G04*
G04 #@! TF.GenerationSoftware,Altium Limited,Altium Designer,22.8.2 (66)*
G04*
G04 Layer_Physical_Order=2*
G04 Layer_Color=16711680*
%FSLAX44Y44*%
%MOMM*%
G71*
G04*
G04 #@! TF.SameCoordinates,B9E833A3-F73B-4BC2-8D6A-DBD716EA0739*
G04*
G04*
G04 #@! TF.FilePolarity,Positive*
G04*
G01*
G75*
%ADD11C,0.2000*%
%ADD29C,1.2900*%
%ADD30R,1.2900X1.2900*%
%ADD36C,1.1200*%
%ADD38R,1.1200X1.1200*%
%ADD40O,1.6000X2.0000*%
%ADD41C,2.1000*%
%ADD42C,1.6000*%
%ADD43R,1.6000X1.6000*%
%ADD44C,1.6500*%
%ADD45R,1.6500X1.6500*%
%ADD46R,1.6000X1.6000*%
%ADD47C,6.0000*%
%ADD48C,0.7000*%
G36*
X777126Y695922D02*
Y667049D01*
X764306D01*
X760836Y670518D01*
X761182Y671118D01*
X762000Y674170D01*
Y677330D01*
X761182Y680382D01*
X759602Y683118D01*
X757368Y685352D01*
X754632Y686932D01*
X751580Y687750D01*
X748420D01*
X745368Y686932D01*
X743126Y685637D01*
X741961Y686802D01*
X741134Y687355D01*
X740158Y687549D01*
X641300D01*
X640325Y687355D01*
X639498Y686802D01*
X631969Y679274D01*
X630967Y679853D01*
X628551Y680500D01*
X626049D01*
X623633Y679853D01*
X621467Y678602D01*
X619698Y676833D01*
X618447Y674667D01*
X617800Y672251D01*
Y669749D01*
X618447Y667333D01*
X619026Y666331D01*
X608244Y655549D01*
X562582D01*
Y657500D01*
X562256Y659980D01*
X561298Y662291D01*
X559776Y664276D01*
X557791Y665798D01*
X555480Y666756D01*
X553000Y667082D01*
X550520Y666756D01*
X548209Y665798D01*
X546225Y664276D01*
X544702Y662291D01*
X543745Y659980D01*
X543418Y657500D01*
Y653500D01*
X543745Y651020D01*
X544702Y648709D01*
X546225Y646724D01*
X548209Y645202D01*
X550520Y644245D01*
X553000Y643918D01*
X555480Y644245D01*
X557791Y645202D01*
X559776Y646724D01*
X561298Y648709D01*
X562020Y650451D01*
X609300D01*
X610275Y650645D01*
X611102Y651198D01*
X622631Y662726D01*
X623633Y662147D01*
X626049Y661500D01*
X628551D01*
X630967Y662147D01*
X633133Y663398D01*
X634902Y665167D01*
X636153Y667333D01*
X636800Y669749D01*
Y672251D01*
X636153Y674667D01*
X635574Y675669D01*
X642356Y682451D01*
X738546D01*
X739335Y681277D01*
X738818Y680382D01*
X738000Y677330D01*
Y674170D01*
X738818Y671118D01*
X740398Y668382D01*
X742632Y666147D01*
X745368Y664567D01*
X748420Y663750D01*
X751580D01*
X754632Y664567D01*
X757368Y666147D01*
X757683Y666462D01*
X761447Y662698D01*
X762274Y662145D01*
X763250Y661951D01*
X777126D01*
Y636265D01*
X761396D01*
X761182Y637065D01*
X759602Y639801D01*
X757368Y642036D01*
X754632Y643615D01*
X751580Y644433D01*
X748420D01*
X745368Y643615D01*
X742632Y642036D01*
X740398Y639801D01*
X738818Y637065D01*
X738260Y634982D01*
X655249D01*
Y661500D01*
X662200D01*
Y680500D01*
X643200D01*
Y661500D01*
X650151D01*
Y634982D01*
X527373D01*
X520549Y641806D01*
Y644273D01*
X522791Y645202D01*
X524776Y646724D01*
X526298Y648709D01*
X527256Y651020D01*
X527582Y653500D01*
Y657500D01*
X527256Y659980D01*
X526298Y662291D01*
X524776Y664276D01*
X522791Y665798D01*
X520480Y666756D01*
X518000Y667082D01*
X515520Y666756D01*
X513209Y665798D01*
X511225Y664276D01*
X509702Y662291D01*
X508745Y659980D01*
X508418Y657500D01*
Y653500D01*
X508745Y651020D01*
X509702Y648709D01*
X511225Y646724D01*
X513209Y645202D01*
X515451Y644273D01*
Y640750D01*
X515645Y639775D01*
X516198Y638948D01*
X524515Y630631D01*
X525341Y630078D01*
X526317Y629884D01*
X738260D01*
X738818Y627801D01*
X740398Y625065D01*
X742632Y622831D01*
X742727Y622776D01*
X742398Y621549D01*
X653700D01*
X652725Y621355D01*
X651898Y620802D01*
X641002Y609907D01*
X639913Y610535D01*
X637434Y611200D01*
X634866D01*
X632387Y610535D01*
X630163Y609252D01*
X628348Y607436D01*
X627065Y605213D01*
X626400Y602733D01*
Y600166D01*
X627065Y597687D01*
X628348Y595463D01*
X630163Y593648D01*
X632387Y592364D01*
X634866Y591700D01*
X637434D01*
X639913Y592364D01*
X642137Y593648D01*
X643952Y595463D01*
X645236Y597687D01*
X645900Y600166D01*
Y602733D01*
X645236Y605213D01*
X644607Y606302D01*
X654756Y616451D01*
X777126D01*
Y605549D01*
X663100D01*
X662125Y605355D01*
X661298Y604802D01*
X641002Y584507D01*
X639913Y585135D01*
X637434Y585800D01*
X634866D01*
X632387Y585135D01*
X630163Y583852D01*
X628348Y582037D01*
X627065Y579813D01*
X626400Y577333D01*
Y574766D01*
X627065Y572286D01*
X628348Y570063D01*
X630163Y568248D01*
X632387Y566964D01*
X634866Y566300D01*
X637434D01*
X639913Y566964D01*
X642137Y568248D01*
X643952Y570063D01*
X645236Y572286D01*
X645900Y574766D01*
Y577333D01*
X645236Y579813D01*
X644607Y580902D01*
X664156Y600451D01*
X743092D01*
X743432Y599181D01*
X742632Y598719D01*
X740398Y596485D01*
X738818Y593748D01*
X738000Y590696D01*
Y587537D01*
X738818Y584485D01*
X740398Y581748D01*
X742632Y579514D01*
X745368Y577934D01*
X745798Y577819D01*
X745631Y576549D01*
X659500D01*
X658525Y576355D01*
X657698Y575802D01*
X641002Y559107D01*
X639913Y559735D01*
X637434Y560400D01*
X634866D01*
X632387Y559735D01*
X630163Y558452D01*
X628348Y556637D01*
X627065Y554413D01*
X626400Y551934D01*
Y549366D01*
X627065Y546886D01*
X628348Y544663D01*
X630163Y542848D01*
X632387Y541564D01*
X634866Y540900D01*
X637434D01*
X639913Y541564D01*
X642137Y542848D01*
X643952Y544663D01*
X645236Y546886D01*
X645900Y549366D01*
Y551934D01*
X645236Y554413D01*
X644607Y555502D01*
X660556Y571451D01*
X777126D01*
Y569549D01*
X677900D01*
X676925Y569355D01*
X676098Y568802D01*
X641002Y533707D01*
X639913Y534335D01*
X637434Y535000D01*
X634866D01*
X632387Y534335D01*
X630163Y533052D01*
X628348Y531236D01*
X627065Y529013D01*
X626400Y526534D01*
Y523966D01*
X627065Y521487D01*
X628348Y519263D01*
X630163Y517448D01*
X632387Y516164D01*
X634866Y515500D01*
X637434D01*
X639913Y516164D01*
X642137Y517448D01*
X643952Y519263D01*
X645236Y521487D01*
X645900Y523966D01*
Y526534D01*
X645236Y529013D01*
X644607Y530102D01*
X678956Y564451D01*
X777126D01*
Y553092D01*
X759646D01*
X759602Y553168D01*
X757368Y555402D01*
X754632Y556982D01*
X751580Y557800D01*
X748420D01*
X745368Y556982D01*
X742632Y555402D01*
X740398Y553168D01*
X738818Y550432D01*
X738000Y547380D01*
Y544220D01*
X738818Y541168D01*
X740398Y538432D01*
X742632Y536197D01*
X743287Y535819D01*
X742947Y534549D01*
X668300D01*
X667325Y534355D01*
X666498Y533802D01*
X641002Y508307D01*
X639913Y508935D01*
X637434Y509600D01*
X634866D01*
X632387Y508935D01*
X630163Y507652D01*
X628348Y505836D01*
X627065Y503613D01*
X626400Y501133D01*
Y498566D01*
X627065Y496087D01*
X628348Y493863D01*
X630163Y492048D01*
X632387Y490764D01*
X634866Y490100D01*
X637434D01*
X639913Y490764D01*
X642137Y492048D01*
X643952Y493863D01*
X645236Y496087D01*
X645900Y498566D01*
Y501133D01*
X645236Y503613D01*
X644607Y504702D01*
X669356Y529451D01*
X777126D01*
Y519549D01*
X678700D01*
X677725Y519355D01*
X676898Y518802D01*
X641002Y482907D01*
X639913Y483535D01*
X637434Y484200D01*
X634866D01*
X632387Y483535D01*
X630163Y482252D01*
X628348Y480437D01*
X627065Y478213D01*
X626400Y475733D01*
Y473166D01*
X627065Y470686D01*
X628348Y468463D01*
X630163Y466648D01*
X632387Y465364D01*
X634866Y464700D01*
X637434D01*
X639913Y465364D01*
X642137Y466648D01*
X643952Y468463D01*
X645236Y470686D01*
X645900Y473166D01*
Y475733D01*
X645236Y478213D01*
X644607Y479302D01*
X679756Y514451D01*
X744189D01*
X744529Y513181D01*
X742632Y512085D01*
X740398Y509851D01*
X738818Y507115D01*
X738000Y504063D01*
Y500903D01*
X738818Y497851D01*
X740398Y495115D01*
X742632Y492881D01*
X744471Y491819D01*
X744131Y490549D01*
X675100D01*
X674125Y490355D01*
X673298Y489802D01*
X641002Y457507D01*
X639913Y458135D01*
X637434Y458800D01*
X634866D01*
X632387Y458135D01*
X630163Y456852D01*
X628348Y455037D01*
X627065Y452813D01*
X626400Y450334D01*
Y447766D01*
X627065Y445286D01*
X628348Y443063D01*
X630163Y441248D01*
X632387Y439964D01*
X634866Y439300D01*
X637434D01*
X639913Y439964D01*
X642137Y441248D01*
X643952Y443063D01*
X645236Y445286D01*
X645900Y447766D01*
Y450334D01*
X645236Y452813D01*
X644607Y453902D01*
X676156Y485451D01*
X777126D01*
Y462882D01*
X761428D01*
X761182Y463798D01*
X759602Y466535D01*
X757368Y468769D01*
X754632Y470349D01*
X751580Y471166D01*
X748420D01*
X745368Y470349D01*
X742632Y468769D01*
X740398Y466535D01*
X738818Y463798D01*
X738000Y460746D01*
Y457587D01*
X738818Y454535D01*
X740398Y451798D01*
X742632Y449564D01*
X745368Y447984D01*
X748420Y447166D01*
X751580D01*
X754632Y447984D01*
X757368Y449564D01*
X759602Y451798D01*
X761182Y454535D01*
X762000Y457587D01*
Y457784D01*
X777126D01*
Y420099D01*
X761285D01*
X761182Y420482D01*
X759602Y423218D01*
X757368Y425452D01*
X754632Y427032D01*
X751580Y427850D01*
X748420D01*
X745368Y427032D01*
X742632Y425452D01*
X740398Y423218D01*
X738818Y420482D01*
X738000Y417430D01*
Y414270D01*
X738818Y411218D01*
X740398Y408482D01*
X742632Y406247D01*
X743374Y405819D01*
X743034Y404549D01*
X643824D01*
X643670Y404518D01*
X642137Y406052D01*
X639913Y407335D01*
X637434Y408000D01*
X634866D01*
X632387Y407335D01*
X630163Y406052D01*
X628348Y404236D01*
X627065Y402013D01*
X626400Y399534D01*
Y396966D01*
X627065Y394487D01*
X628348Y392263D01*
X630163Y390448D01*
X632387Y389164D01*
X634866Y388500D01*
X637434D01*
X639913Y389164D01*
X642137Y390448D01*
X643952Y392263D01*
X645236Y394487D01*
X645900Y396966D01*
Y399451D01*
X777126D01*
Y388549D01*
X676000D01*
X675025Y388355D01*
X674198Y387802D01*
X661794Y375399D01*
X645561D01*
X645236Y376613D01*
X643952Y378837D01*
X642137Y380652D01*
X639913Y381935D01*
X637434Y382600D01*
X634866D01*
X632387Y381935D01*
X630163Y380652D01*
X628348Y378837D01*
X627065Y376613D01*
X626400Y374133D01*
Y371566D01*
X627065Y369086D01*
X628348Y366863D01*
X630163Y365048D01*
X632387Y363764D01*
X634866Y363100D01*
X637434D01*
X639913Y363764D01*
X642137Y365048D01*
X643952Y366863D01*
X645236Y369086D01*
X645561Y370301D01*
X662850D01*
X663825Y370495D01*
X664652Y371048D01*
X677056Y383451D01*
X742457D01*
X742785Y382224D01*
X742632Y382136D01*
X740398Y379901D01*
X738818Y377165D01*
X738000Y374113D01*
Y370953D01*
X738818Y367901D01*
X740398Y365165D01*
X742632Y362931D01*
X745368Y361351D01*
X748420Y360533D01*
X751580D01*
X754632Y361351D01*
X757368Y362931D01*
X759602Y365165D01*
X761182Y367901D01*
X762000Y370953D01*
Y372093D01*
X777126D01*
Y350774D01*
X645353D01*
X645236Y351213D01*
X643952Y353437D01*
X642137Y355252D01*
X639913Y356535D01*
X637434Y357200D01*
X634866D01*
X632387Y356535D01*
X630163Y355252D01*
X628348Y353437D01*
X627065Y351213D01*
X626400Y348733D01*
Y346166D01*
X627065Y343686D01*
X628348Y341463D01*
X630163Y339648D01*
X632387Y338364D01*
X634866Y337700D01*
X637434D01*
X639913Y338364D01*
X642137Y339648D01*
X643952Y341463D01*
X645236Y343686D01*
X645769Y345676D01*
X777126D01*
Y333532D01*
X761267D01*
X761182Y333848D01*
X759602Y336585D01*
X757368Y338819D01*
X754632Y340399D01*
X751580Y341217D01*
X748420D01*
X745368Y340399D01*
X742632Y338819D01*
X740398Y336585D01*
X738818Y333848D01*
X738000Y330796D01*
Y327637D01*
X738818Y324585D01*
X740398Y321848D01*
X742632Y319614D01*
X745368Y318034D01*
X748420Y317216D01*
X751580D01*
X754632Y318034D01*
X757368Y319614D01*
X759602Y321848D01*
X761182Y324585D01*
X762000Y327637D01*
Y328434D01*
X777126D01*
Y290249D01*
X761258D01*
X761182Y290532D01*
X759602Y293268D01*
X757368Y295502D01*
X754632Y297082D01*
X751580Y297900D01*
X748420D01*
X745368Y297082D01*
X742632Y295502D01*
X740398Y293268D01*
X738818Y290532D01*
X738000Y287480D01*
Y284320D01*
X738818Y281268D01*
X740398Y278532D01*
X742632Y276297D01*
X745368Y274718D01*
X748420Y273900D01*
X751580D01*
X754632Y274718D01*
X757368Y276297D01*
X759602Y278532D01*
X761182Y281268D01*
X762000Y284320D01*
Y285151D01*
X777126D01*
Y247341D01*
X761110D01*
X759602Y249951D01*
X757368Y252186D01*
X754632Y253766D01*
X751580Y254583D01*
X748420D01*
X745368Y253766D01*
X742632Y252186D01*
X740398Y249951D01*
X738818Y247215D01*
X738000Y244163D01*
Y241003D01*
X738818Y237951D01*
X740398Y235215D01*
X742632Y232981D01*
X745368Y231401D01*
X748420Y230583D01*
X751580D01*
X754632Y231401D01*
X757368Y232981D01*
X759602Y235215D01*
X761182Y237951D01*
X762000Y241003D01*
Y242243D01*
X777126D01*
Y226799D01*
X645366D01*
X645200Y228000D01*
X645200Y228069D01*
Y247000D01*
X626200D01*
Y228069D01*
X626200Y228000D01*
X626034Y226799D01*
X615385D01*
X615045Y228069D01*
X616772Y229066D01*
X618734Y231028D01*
X620122Y233432D01*
X620840Y236112D01*
Y236230D01*
X610300D01*
X599760D01*
Y236112D01*
X600478Y233432D01*
X601866Y231028D01*
X603828Y229066D01*
X605555Y228069D01*
X605215Y226799D01*
X581750D01*
X580774Y226605D01*
X579948Y226052D01*
X577278Y223383D01*
X576995Y223500D01*
X575005D01*
X573168Y222739D01*
X571761Y221332D01*
X571000Y219495D01*
Y217505D01*
X571761Y215668D01*
X573168Y214261D01*
X575005Y213500D01*
X576995D01*
X578832Y214261D01*
X580239Y215668D01*
X581000Y217505D01*
Y219495D01*
X580883Y219778D01*
X582806Y221701D01*
X777126D01*
Y217299D01*
X586250D01*
X585275Y217105D01*
X584448Y216552D01*
X579528Y211633D01*
X579245Y211750D01*
X577255D01*
X575418Y210989D01*
X574011Y209582D01*
X573250Y207745D01*
Y205755D01*
X574011Y203918D01*
X575418Y202511D01*
X577255Y201750D01*
X579245D01*
X581082Y202511D01*
X582489Y203918D01*
X583250Y205755D01*
Y207745D01*
X583133Y208028D01*
X587306Y212201D01*
X747001D01*
X747168Y210931D01*
X745368Y210449D01*
X742632Y208869D01*
X740398Y206635D01*
X738818Y203898D01*
X738000Y200846D01*
Y197687D01*
X738818Y194635D01*
X740398Y191898D01*
X742595Y189701D01*
X742584Y189439D01*
X742314Y188431D01*
X645700D01*
Y195250D01*
X626700D01*
Y176250D01*
X645700D01*
Y183333D01*
X777126D01*
Y139299D01*
X644200D01*
Y140250D01*
X625200D01*
Y121250D01*
X644200D01*
Y134201D01*
X777126D01*
Y132750D01*
X777602Y131602D01*
X778750Y131126D01*
X887519D01*
X891367Y127278D01*
X891250Y126995D01*
Y125005D01*
X892011Y123168D01*
X893418Y121761D01*
X895255Y121000D01*
X897245D01*
X899082Y121761D01*
X900489Y123168D01*
X901250Y125005D01*
Y126995D01*
X900489Y128832D01*
X899465Y129856D01*
X899991Y131126D01*
X995922D01*
X995922Y39809D01*
X995922Y37467D01*
X995310Y32824D01*
X994098Y28299D01*
X992306Y23972D01*
X989964Y19916D01*
X987112Y16200D01*
X983800Y12888D01*
X980084Y10036D01*
X976028Y7694D01*
X971701Y5902D01*
X967176Y4690D01*
X962533Y4078D01*
X960191Y4078D01*
X630279Y4078D01*
X629753Y5348D01*
X634165Y9761D01*
X634631Y9492D01*
X636653Y8950D01*
X638747D01*
X640769Y9492D01*
X642581Y10538D01*
X644062Y12019D01*
X645108Y13831D01*
X645650Y15853D01*
Y17947D01*
X645108Y19969D01*
X644062Y21781D01*
X642581Y23262D01*
X640769Y24308D01*
X638747Y24850D01*
X636653D01*
X634631Y24308D01*
X632819Y23262D01*
X631338Y21781D01*
X630292Y19969D01*
X629750Y17947D01*
Y15853D01*
X630292Y13831D01*
X630561Y13365D01*
X625994Y8799D01*
X616709D01*
X616368Y10069D01*
X617181Y10538D01*
X618662Y12019D01*
X619708Y13831D01*
X620250Y15853D01*
Y17947D01*
X619708Y19969D01*
X618662Y21781D01*
X617181Y23262D01*
X615369Y24308D01*
X613347Y24850D01*
X611253D01*
X609231Y24308D01*
X607419Y23262D01*
X605938Y21781D01*
X604892Y19969D01*
X604350Y17947D01*
Y15853D01*
X604892Y13831D01*
X605938Y12019D01*
X607419Y10538D01*
X608232Y10069D01*
X607891Y8799D01*
X591309D01*
X590968Y10069D01*
X591781Y10538D01*
X593262Y12019D01*
X594308Y13831D01*
X594850Y15853D01*
Y17947D01*
X594308Y19969D01*
X593262Y21781D01*
X591781Y23262D01*
X589969Y24308D01*
X587947Y24850D01*
X585853D01*
X583831Y24308D01*
X582019Y23262D01*
X580538Y21781D01*
X579492Y19969D01*
X578950Y17947D01*
Y15853D01*
X579492Y13831D01*
X580538Y12019D01*
X582019Y10538D01*
X582832Y10069D01*
X582491Y8799D01*
X565909D01*
X565568Y10069D01*
X566381Y10538D01*
X567862Y12019D01*
X568908Y13831D01*
X569450Y15853D01*
Y17947D01*
X568908Y19969D01*
X567862Y21781D01*
X566381Y23262D01*
X564569Y24308D01*
X562547Y24850D01*
X560644D01*
X560420Y25185D01*
X528802Y56802D01*
X527976Y57355D01*
X527000Y57549D01*
X439000D01*
X438024Y57355D01*
X437198Y56802D01*
X435198Y54802D01*
X434645Y53976D01*
X434451Y53000D01*
Y50867D01*
X434259Y50816D01*
X432640Y49881D01*
X431401Y48642D01*
X431065Y48501D01*
X430235D01*
X429899Y48642D01*
X428660Y49881D01*
X427040Y50816D01*
X425235Y51300D01*
X423365D01*
X421559Y50816D01*
X419940Y49881D01*
X418619Y48559D01*
X417684Y46940D01*
X417200Y45135D01*
Y43265D01*
X417684Y41459D01*
X418619Y39841D01*
X418686Y39773D01*
X418200Y38600D01*
X417200D01*
Y24400D01*
X431400D01*
X431400Y24400D01*
Y24400D01*
X432670Y24601D01*
X433858Y23915D01*
X435730Y23413D01*
Y31500D01*
X438270D01*
Y23413D01*
X440142Y23915D01*
X441998Y24986D01*
X443350Y26338D01*
X444702Y24986D01*
X446558Y23915D01*
X448430Y23413D01*
Y31500D01*
X450970D01*
Y23413D01*
X452842Y23915D01*
X454698Y24986D01*
X456214Y26502D01*
X457562Y26297D01*
X458041Y25819D01*
X459660Y24884D01*
X461465Y24400D01*
X463335D01*
X465140Y24884D01*
X466759Y25819D01*
X467238Y26297D01*
X468586Y26502D01*
X470102Y24986D01*
X471958Y23915D01*
X473830Y23413D01*
Y31500D01*
X475100D01*
Y32770D01*
X483187D01*
X482685Y34642D01*
X481614Y36498D01*
X480098Y38014D01*
X480303Y39362D01*
X480781Y39841D01*
X481467Y41028D01*
X482763Y41132D01*
X518547Y5348D01*
X518021Y4078D01*
X40128Y4078D01*
X37765D01*
X33080Y4695D01*
X28515Y5918D01*
X24150Y7727D01*
X20057Y10089D01*
X16308Y12966D01*
X12966Y16308D01*
X10089Y20057D01*
X7727Y24149D01*
X5918Y28515D01*
X4695Y33080D01*
X4078Y37765D01*
Y40128D01*
X4078Y660191D01*
Y662533D01*
X4690Y667176D01*
X5902Y671701D01*
X7694Y676028D01*
X10036Y680084D01*
X12888Y683800D01*
X16200Y687112D01*
X19916Y689964D01*
X23972Y692306D01*
X28299Y694098D01*
X32824Y695310D01*
X37468Y695922D01*
X39810Y695922D01*
X777126Y695922D01*
D02*
G37*
G36*
X555876Y22519D02*
X555138Y21781D01*
X554092Y19969D01*
X553550Y17947D01*
Y15853D01*
X554092Y13831D01*
X555138Y12019D01*
X556619Y10538D01*
X557432Y10069D01*
X557091Y8799D01*
X522306D01*
X485502Y45602D01*
X484675Y46155D01*
X483700Y46349D01*
X481875D01*
X481716Y46940D01*
X480781Y48559D01*
X479459Y49881D01*
X477840Y50816D01*
X476479Y51181D01*
X476646Y52451D01*
X525944D01*
X555876Y22519D01*
D02*
G37*
%LPC*%
G36*
X706270Y675012D02*
Y670270D01*
X711012D01*
X710120Y672421D01*
X708421Y674120D01*
X706270Y675012D01*
D02*
G37*
G36*
X703730D02*
X701579Y674120D01*
X699880Y672421D01*
X698988Y670270D01*
X703730D01*
Y675012D01*
D02*
G37*
G36*
X711012Y667730D02*
X706270D01*
Y662988D01*
X708421Y663879D01*
X710120Y665579D01*
X711012Y667730D01*
D02*
G37*
G36*
X703730D02*
X698988D01*
X699880Y665579D01*
X701579Y663879D01*
X703730Y662988D01*
Y667730D01*
D02*
G37*
G36*
X42561Y692540D02*
X41270D01*
Y661270D01*
X72540D01*
Y662561D01*
X71739Y667620D01*
X70156Y672491D01*
X67831Y677055D01*
X64820Y681198D01*
X61198Y684820D01*
X57055Y687831D01*
X52491Y690156D01*
X47620Y691739D01*
X42561Y692540D01*
D02*
G37*
G36*
X38730D02*
X37439D01*
X32380Y691739D01*
X27509Y690156D01*
X22945Y687831D01*
X18802Y684820D01*
X15180Y681198D01*
X12169Y677055D01*
X9844Y672491D01*
X8261Y667620D01*
X7460Y662561D01*
Y661270D01*
X38730D01*
Y692540D01*
D02*
G37*
G36*
X285834Y667964D02*
Y656770D01*
X295195D01*
Y657500D01*
X294832Y660251D01*
X293770Y662815D01*
X292081Y665017D01*
X289879Y666707D01*
X287315Y667769D01*
X285834Y667964D01*
D02*
G37*
G36*
X464791D02*
Y656770D01*
X474152D01*
Y657500D01*
X473790Y660251D01*
X472728Y662815D01*
X471039Y665017D01*
X468837Y666707D01*
X466273Y667769D01*
X464791Y667964D01*
D02*
G37*
G36*
X375312D02*
Y656770D01*
X384673D01*
Y657500D01*
X384311Y660251D01*
X383249Y662815D01*
X381560Y665017D01*
X379358Y666707D01*
X376794Y667769D01*
X375312Y667964D01*
D02*
G37*
G36*
X462251D02*
X460770Y667769D01*
X458206Y666707D01*
X456004Y665017D01*
X454315Y662815D01*
X453252Y660251D01*
X452890Y657500D01*
Y656770D01*
X462251D01*
Y667964D01*
D02*
G37*
G36*
X283294D02*
X281812Y667769D01*
X279248Y666707D01*
X277047Y665017D01*
X275357Y662815D01*
X274295Y660251D01*
X273933Y657500D01*
Y656770D01*
X283294D01*
Y667964D01*
D02*
G37*
G36*
X372772D02*
X371291Y667769D01*
X368727Y666707D01*
X366525Y665017D01*
X364836Y662815D01*
X363774Y660251D01*
X363411Y657500D01*
Y656770D01*
X372772D01*
Y667964D01*
D02*
G37*
G36*
X428521Y667082D02*
X426041Y666756D01*
X423730Y665798D01*
X421746Y664276D01*
X420223Y662291D01*
X419266Y659980D01*
X418939Y657500D01*
Y653500D01*
X419266Y651020D01*
X420223Y648709D01*
X421746Y646724D01*
X423730Y645202D01*
X426041Y644245D01*
X428521Y643918D01*
X431001Y644245D01*
X433312Y645202D01*
X435297Y646724D01*
X436819Y648709D01*
X437777Y651020D01*
X438103Y653500D01*
Y657500D01*
X437777Y659980D01*
X436819Y662291D01*
X435297Y664276D01*
X433312Y665798D01*
X431001Y666756D01*
X428521Y667082D01*
D02*
G37*
G36*
X339043D02*
X336562Y666756D01*
X334252Y665798D01*
X332267Y664276D01*
X330744Y662291D01*
X329787Y659980D01*
X329461Y657500D01*
Y653500D01*
X329787Y651020D01*
X330744Y648709D01*
X332267Y646724D01*
X334252Y645202D01*
X336562Y644245D01*
X339043Y643918D01*
X341522Y644245D01*
X343834Y645202D01*
X345818Y646724D01*
X347341Y648709D01*
X348298Y651020D01*
X348624Y653500D01*
Y657500D01*
X348298Y659980D01*
X347341Y662291D01*
X345818Y664276D01*
X343834Y665798D01*
X341522Y666756D01*
X339043Y667082D01*
D02*
G37*
G36*
X249564D02*
X247084Y666756D01*
X244773Y665798D01*
X242788Y664276D01*
X241266Y662291D01*
X240308Y659980D01*
X239982Y657500D01*
Y653500D01*
X240308Y651020D01*
X241266Y648709D01*
X242788Y646724D01*
X244773Y645202D01*
X247084Y644245D01*
X249564Y643918D01*
X252044Y644245D01*
X254355Y645202D01*
X256339Y646724D01*
X257862Y648709D01*
X258819Y651020D01*
X259146Y653500D01*
Y657500D01*
X258819Y659980D01*
X257862Y662291D01*
X256339Y664276D01*
X254355Y665798D01*
X252044Y666756D01*
X249564Y667082D01*
D02*
G37*
G36*
X474152Y654230D02*
X464791D01*
Y643036D01*
X466273Y643231D01*
X468837Y644293D01*
X471039Y645983D01*
X472728Y648185D01*
X473790Y650749D01*
X474152Y653500D01*
Y654230D01*
D02*
G37*
G36*
X384673D02*
X375312D01*
Y643036D01*
X376794Y643231D01*
X379358Y644293D01*
X381560Y645983D01*
X383249Y648185D01*
X384311Y650749D01*
X384673Y653500D01*
Y654230D01*
D02*
G37*
G36*
X295195D02*
X285834D01*
Y643036D01*
X287315Y643231D01*
X289879Y644293D01*
X292081Y645983D01*
X293770Y648185D01*
X294832Y650749D01*
X295195Y653500D01*
Y654230D01*
D02*
G37*
G36*
X462251D02*
X452890D01*
Y653500D01*
X453252Y650749D01*
X454315Y648185D01*
X456004Y645983D01*
X458206Y644293D01*
X460770Y643231D01*
X462251Y643036D01*
Y654230D01*
D02*
G37*
G36*
X372772D02*
X363411D01*
Y653500D01*
X363774Y650749D01*
X364836Y648185D01*
X366525Y645983D01*
X368727Y644293D01*
X371291Y643231D01*
X372772Y643036D01*
Y654230D01*
D02*
G37*
G36*
X283294D02*
X273933D01*
Y653500D01*
X274295Y650749D01*
X275357Y648185D01*
X277047Y645983D01*
X279248Y644293D01*
X281812Y643231D01*
X283294Y643036D01*
Y654230D01*
D02*
G37*
G36*
X72540Y658730D02*
X41270D01*
Y627460D01*
X42561D01*
X47620Y628261D01*
X52491Y629844D01*
X57055Y632169D01*
X61198Y635180D01*
X64820Y638802D01*
X67831Y642945D01*
X70156Y647509D01*
X71739Y652380D01*
X72540Y657439D01*
Y658730D01*
D02*
G37*
G36*
X38730D02*
X7460D01*
Y657439D01*
X8261Y652380D01*
X9844Y647509D01*
X12169Y642945D01*
X15180Y638802D01*
X18802Y635180D01*
X22945Y632169D01*
X27509Y629844D01*
X32380Y628261D01*
X37439Y627460D01*
X38730D01*
Y658730D01*
D02*
G37*
G36*
X620500Y611200D02*
X601000D01*
Y591700D01*
X620500D01*
Y611200D01*
D02*
G37*
G36*
X706270Y595012D02*
Y590270D01*
X711012D01*
X710120Y592421D01*
X708421Y594120D01*
X706270Y595012D01*
D02*
G37*
G36*
X703730D02*
X701579Y594120D01*
X699880Y592421D01*
X698988Y590270D01*
X703730D01*
Y595012D01*
D02*
G37*
G36*
X560770Y593262D02*
Y588520D01*
X565512D01*
X564621Y590671D01*
X562921Y592370D01*
X560770Y593262D01*
D02*
G37*
G36*
X558230D02*
X556079Y592370D01*
X554380Y590671D01*
X553488Y588520D01*
X558230D01*
Y593262D01*
D02*
G37*
G36*
X711012Y587730D02*
X706270D01*
Y582988D01*
X708421Y583880D01*
X710120Y585579D01*
X711012Y587730D01*
D02*
G37*
G36*
X703730D02*
X698988D01*
X699880Y585579D01*
X701579Y583880D01*
X703730Y582988D01*
Y587730D01*
D02*
G37*
G36*
X565512Y585980D02*
X560770D01*
Y581238D01*
X562921Y582130D01*
X564621Y583829D01*
X565512Y585980D01*
D02*
G37*
G36*
X558230D02*
X553488D01*
X554380Y583829D01*
X556079Y582130D01*
X558230Y581238D01*
Y585980D01*
D02*
G37*
G36*
X207270Y584012D02*
Y579270D01*
X212012D01*
X211120Y581421D01*
X209421Y583120D01*
X207270Y584012D01*
D02*
G37*
G36*
X204730D02*
X202579Y583120D01*
X200879Y581421D01*
X199988Y579270D01*
X204730D01*
Y584012D01*
D02*
G37*
G36*
X435170Y583512D02*
Y578770D01*
X439912D01*
X439021Y580921D01*
X437321Y582621D01*
X435170Y583512D01*
D02*
G37*
G36*
X432630D02*
X430479Y582621D01*
X428779Y580921D01*
X427888Y578770D01*
X432630D01*
Y583512D01*
D02*
G37*
G36*
X470995Y606450D02*
X469005D01*
X467168Y605689D01*
X465761Y604282D01*
X465000Y602444D01*
Y600455D01*
X465761Y598618D01*
X467168Y597211D01*
X467451Y597094D01*
Y574416D01*
X466181Y573890D01*
X465582Y574489D01*
X463745Y575250D01*
X461755D01*
X459918Y574489D01*
X458511Y573082D01*
X457750Y571245D01*
Y569255D01*
X458511Y567418D01*
X459918Y566011D01*
X460201Y565894D01*
Y444772D01*
X459511Y444082D01*
X458750Y442245D01*
Y440255D01*
X459511Y438418D01*
X460918Y437011D01*
X462755Y436250D01*
X464745D01*
X466181Y436845D01*
X467451Y436221D01*
Y394210D01*
X466918Y393989D01*
X465511Y392582D01*
X464750Y390745D01*
Y388755D01*
X465511Y386918D01*
X466918Y385511D01*
X468755Y384750D01*
X470745D01*
X472582Y385511D01*
X473989Y386918D01*
X474306Y387684D01*
X475576Y387431D01*
Y346968D01*
X474418Y346489D01*
X473011Y345082D01*
X472250Y343245D01*
Y341255D01*
X473011Y339418D01*
X474418Y338011D01*
X476255Y337250D01*
X478245D01*
X480082Y338011D01*
X481367Y339296D01*
X481934Y339220D01*
X482637Y338907D01*
Y301923D01*
X481384Y300669D01*
X480623Y298832D01*
Y296842D01*
X481384Y295005D01*
X482790Y293598D01*
X484628Y292837D01*
X486617D01*
X488181Y293485D01*
X489451Y292935D01*
Y258856D01*
X489168Y258739D01*
X487761Y257332D01*
X487000Y255494D01*
Y253505D01*
X487761Y251668D01*
X489168Y250261D01*
X491005Y249500D01*
X492994D01*
X494832Y250261D01*
X496239Y251668D01*
X496306Y251830D01*
X497576Y251577D01*
Y149408D01*
X497168Y149239D01*
X495761Y147832D01*
X495000Y145995D01*
Y144005D01*
X495761Y142168D01*
X497168Y140761D01*
X499005Y140000D01*
X500995D01*
X502832Y140761D01*
X504239Y142168D01*
X505000Y144005D01*
Y145995D01*
X504239Y147832D01*
X502832Y149239D01*
X502674Y149304D01*
Y190959D01*
X503944Y191485D01*
X504668Y190761D01*
X506505Y190000D01*
X508495D01*
X510332Y190761D01*
X511739Y192168D01*
X512500Y194005D01*
Y195995D01*
X511739Y197832D01*
X510332Y199239D01*
X510049Y199356D01*
Y419584D01*
X511319Y420110D01*
X511918Y419511D01*
X513755Y418750D01*
X515745D01*
X517582Y419511D01*
X518431Y420360D01*
X519701Y419834D01*
Y404503D01*
X519668Y404489D01*
X518261Y403082D01*
X517500Y401245D01*
Y399255D01*
X518261Y397418D01*
X519668Y396011D01*
X521505Y395250D01*
X523495D01*
X525332Y396011D01*
X526739Y397418D01*
X527500Y399255D01*
Y401245D01*
X526739Y403082D01*
X525332Y404489D01*
X524799Y404710D01*
Y527997D01*
X524832Y528011D01*
X526239Y529418D01*
X527000Y531255D01*
Y533245D01*
X526239Y535082D01*
X524832Y536489D01*
X522995Y537250D01*
X521005D01*
X519168Y536489D01*
X518444Y535765D01*
X517174Y536291D01*
Y573446D01*
X517332Y573511D01*
X518739Y574918D01*
X519500Y576755D01*
Y578745D01*
X518739Y580582D01*
X517332Y581989D01*
X515495Y582750D01*
X513505D01*
X511668Y581989D01*
X510261Y580582D01*
X509500Y578745D01*
Y576755D01*
X510261Y574918D01*
X511668Y573511D01*
X512076Y573342D01*
Y452541D01*
X510806Y452015D01*
X510332Y452489D01*
X508495Y453250D01*
X506505D01*
X504668Y452489D01*
X503944Y451765D01*
X502674Y452291D01*
Y469592D01*
X503082Y469761D01*
X504489Y471168D01*
X505250Y473005D01*
Y474995D01*
X504489Y476832D01*
X503082Y478239D01*
X501245Y479000D01*
X499255D01*
X497418Y478239D01*
X496011Y476832D01*
X495819Y476368D01*
X494549Y476621D01*
Y495644D01*
X494832Y495761D01*
X496239Y497168D01*
X497000Y499005D01*
Y500995D01*
X496239Y502832D01*
X494832Y504239D01*
X492995Y505000D01*
X491005D01*
X489168Y504239D01*
X489005Y504076D01*
X487735Y504602D01*
Y521164D01*
X488989Y522418D01*
X489750Y524255D01*
Y526245D01*
X488989Y528082D01*
X487582Y529489D01*
X485745Y530250D01*
X483755D01*
X481918Y529489D01*
X481847Y529418D01*
X480674Y529904D01*
Y545781D01*
X481832Y546261D01*
X483239Y547668D01*
X484000Y549505D01*
Y551495D01*
X483239Y553332D01*
X481832Y554739D01*
X479995Y555500D01*
X478005D01*
X476168Y554739D01*
X474761Y553332D01*
X474000Y551495D01*
Y549505D01*
X474761Y547668D01*
X475576Y546853D01*
Y392069D01*
X474306Y391816D01*
X473989Y392582D01*
X472582Y393989D01*
X472549Y394003D01*
Y597094D01*
X472832Y597211D01*
X474239Y598618D01*
X475000Y600455D01*
Y602444D01*
X474239Y604282D01*
X472832Y605689D01*
X470995Y606450D01*
D02*
G37*
G36*
X212012Y576730D02*
X207270D01*
Y571988D01*
X209421Y572880D01*
X211120Y574579D01*
X212012Y576730D01*
D02*
G37*
G36*
X204730D02*
X199988D01*
X200879Y574579D01*
X202579Y572880D01*
X204730Y571988D01*
Y576730D01*
D02*
G37*
G36*
X439912Y576230D02*
X435170D01*
Y571488D01*
X437321Y572380D01*
X439021Y574079D01*
X439912Y576230D01*
D02*
G37*
G36*
X432630D02*
X427888D01*
X428779Y574079D01*
X430479Y572380D01*
X432630Y571488D01*
Y576230D01*
D02*
G37*
G36*
X298520Y575512D02*
Y570770D01*
X303262D01*
X302370Y572921D01*
X300671Y574621D01*
X298520Y575512D01*
D02*
G37*
G36*
X295980D02*
X293829Y574621D01*
X292129Y572921D01*
X291238Y570770D01*
X295980D01*
Y575512D01*
D02*
G37*
G36*
X86770Y574262D02*
Y569520D01*
X91512D01*
X90620Y571671D01*
X88921Y573371D01*
X86770Y574262D01*
D02*
G37*
G36*
X84230D02*
X82079Y573371D01*
X80379Y571671D01*
X79488Y569520D01*
X84230D01*
Y574262D01*
D02*
G37*
G36*
X612034Y585800D02*
X609466D01*
X606987Y585135D01*
X604763Y583852D01*
X602948Y582037D01*
X601665Y579813D01*
X601000Y577333D01*
Y574766D01*
X601665Y572286D01*
X602948Y570063D01*
X604763Y568248D01*
X606987Y566964D01*
X609466Y566300D01*
X612034D01*
X614513Y566964D01*
X616737Y568248D01*
X618552Y570063D01*
X619836Y572286D01*
X620500Y574766D01*
Y577333D01*
X619836Y579813D01*
X618552Y582037D01*
X616737Y583852D01*
X614513Y585135D01*
X612034Y585800D01*
D02*
G37*
G36*
X303262Y568230D02*
X298520D01*
Y563488D01*
X300671Y564380D01*
X302370Y566079D01*
X303262Y568230D01*
D02*
G37*
G36*
X295980D02*
X291238D01*
X292129Y566079D01*
X293829Y564380D01*
X295980Y563488D01*
Y568230D01*
D02*
G37*
G36*
X91512Y566980D02*
X86770D01*
Y562238D01*
X88921Y563130D01*
X90620Y564829D01*
X91512Y566980D01*
D02*
G37*
G36*
X84230D02*
X79488D01*
X80379Y564829D01*
X82079Y563130D01*
X84230Y562238D01*
Y566980D01*
D02*
G37*
G36*
X707270Y553012D02*
Y548270D01*
X712012D01*
X711121Y550421D01*
X709421Y552121D01*
X707270Y553012D01*
D02*
G37*
G36*
X704730D02*
X702579Y552121D01*
X700880Y550421D01*
X699988Y548270D01*
X704730D01*
Y553012D01*
D02*
G37*
G36*
X392270D02*
Y548270D01*
X397012D01*
X396120Y550421D01*
X394421Y552121D01*
X392270Y553012D01*
D02*
G37*
G36*
X389730D02*
X387579Y552121D01*
X385880Y550421D01*
X384988Y548270D01*
X389730D01*
Y553012D01*
D02*
G37*
G36*
X712012Y545730D02*
X707270D01*
Y540988D01*
X709421Y541880D01*
X711121Y543579D01*
X712012Y545730D01*
D02*
G37*
G36*
X704730D02*
X699988D01*
X700880Y543579D01*
X702579Y541880D01*
X704730Y540988D01*
Y545730D01*
D02*
G37*
G36*
X397012D02*
X392270D01*
Y540988D01*
X394421Y541880D01*
X396120Y543579D01*
X397012Y545730D01*
D02*
G37*
G36*
X389730D02*
X384988D01*
X385880Y543579D01*
X387579Y541880D01*
X389730Y540988D01*
Y545730D01*
D02*
G37*
G36*
X612034Y560400D02*
X609466D01*
X606987Y559735D01*
X604763Y558452D01*
X602948Y556637D01*
X601665Y554413D01*
X601000Y551934D01*
Y549366D01*
X601665Y546886D01*
X602948Y544663D01*
X604763Y542848D01*
X606987Y541564D01*
X609466Y540900D01*
X612034D01*
X614513Y541564D01*
X616737Y542848D01*
X618552Y544663D01*
X619836Y546886D01*
X620500Y549366D01*
Y551934D01*
X619836Y554413D01*
X618552Y556637D01*
X616737Y558452D01*
X614513Y559735D01*
X612034Y560400D01*
D02*
G37*
G36*
X561020Y542262D02*
Y537520D01*
X565762D01*
X564870Y539671D01*
X563171Y541371D01*
X561020Y542262D01*
D02*
G37*
G36*
X558480D02*
X556329Y541371D01*
X554630Y539671D01*
X553738Y537520D01*
X558480D01*
Y542262D01*
D02*
G37*
G36*
X40270Y542012D02*
Y537270D01*
X45012D01*
X44120Y539421D01*
X42421Y541120D01*
X40270Y542012D01*
D02*
G37*
G36*
X37730D02*
X35579Y541120D01*
X33879Y539421D01*
X32988Y537270D01*
X37730D01*
Y542012D01*
D02*
G37*
G36*
X196324Y538564D02*
Y533823D01*
X201065D01*
X200174Y535974D01*
X198475Y537673D01*
X196324Y538564D01*
D02*
G37*
G36*
X193783D02*
X191632Y537673D01*
X189933Y535974D01*
X189042Y533823D01*
X193783D01*
Y538564D01*
D02*
G37*
G36*
X435170Y537682D02*
Y532940D01*
X439912D01*
X439021Y535091D01*
X437321Y536791D01*
X435170Y537682D01*
D02*
G37*
G36*
X432630D02*
X430479Y536791D01*
X428779Y535091D01*
X427888Y532940D01*
X432630D01*
Y537682D01*
D02*
G37*
G36*
X565762Y534980D02*
X561020D01*
Y530238D01*
X563171Y531129D01*
X564870Y532829D01*
X565762Y534980D01*
D02*
G37*
G36*
X558480D02*
X553738D01*
X554630Y532829D01*
X556329Y531129D01*
X558480Y530238D01*
Y534980D01*
D02*
G37*
G36*
X45012Y534730D02*
X40270D01*
Y529988D01*
X42421Y530880D01*
X44120Y532579D01*
X45012Y534730D01*
D02*
G37*
G36*
X37730D02*
X32988D01*
X33879Y532579D01*
X35579Y530880D01*
X37730Y529988D01*
Y534730D01*
D02*
G37*
G36*
X201065Y531283D02*
X196324D01*
Y526541D01*
X198475Y527432D01*
X200174Y529131D01*
X201065Y531283D01*
D02*
G37*
G36*
X193783D02*
X189042D01*
X189933Y529131D01*
X191632Y527432D01*
X193783Y526541D01*
Y531283D01*
D02*
G37*
G36*
X439912Y530400D02*
X435170D01*
Y525658D01*
X437321Y526549D01*
X439021Y528249D01*
X439912Y530400D01*
D02*
G37*
G36*
X432630D02*
X427888D01*
X428779Y528249D01*
X430479Y526549D01*
X432630Y525658D01*
Y530400D01*
D02*
G37*
G36*
X612034Y535000D02*
X609466D01*
X606987Y534335D01*
X604763Y533052D01*
X602948Y531236D01*
X601665Y529013D01*
X601000Y526534D01*
Y523966D01*
X601665Y521487D01*
X602948Y519263D01*
X604763Y517448D01*
X606987Y516164D01*
X609466Y515500D01*
X612034D01*
X614513Y516164D01*
X616737Y517448D01*
X618552Y519263D01*
X619836Y521487D01*
X620500Y523966D01*
Y526534D01*
X619836Y529013D01*
X618552Y531236D01*
X616737Y533052D01*
X614513Y534335D01*
X612034Y535000D01*
D02*
G37*
G36*
X707270Y507012D02*
Y502270D01*
X712012D01*
X711121Y504421D01*
X709421Y506120D01*
X707270Y507012D01*
D02*
G37*
G36*
X704730D02*
X702579Y506120D01*
X700880Y504421D01*
X699988Y502270D01*
X704730D01*
Y507012D01*
D02*
G37*
G36*
X393270Y506012D02*
Y501270D01*
X398012D01*
X397121Y503421D01*
X395421Y505121D01*
X393270Y506012D01*
D02*
G37*
G36*
X390730D02*
X388579Y505121D01*
X386880Y503421D01*
X385988Y501270D01*
X390730D01*
Y506012D01*
D02*
G37*
G36*
X712012Y499730D02*
X707270D01*
Y494988D01*
X709421Y495880D01*
X711121Y497579D01*
X712012Y499730D01*
D02*
G37*
G36*
X704730D02*
X699988D01*
X700880Y497579D01*
X702579Y495880D01*
X704730Y494988D01*
Y499730D01*
D02*
G37*
G36*
X398012Y498730D02*
X393270D01*
Y493988D01*
X395421Y494879D01*
X397121Y496579D01*
X398012Y498730D01*
D02*
G37*
G36*
X390730D02*
X385988D01*
X386880Y496579D01*
X388579Y494879D01*
X390730Y493988D01*
Y498730D01*
D02*
G37*
G36*
X612034Y509600D02*
X609466D01*
X606987Y508935D01*
X604763Y507652D01*
X602948Y505836D01*
X601665Y503613D01*
X601000Y501133D01*
Y498566D01*
X601665Y496087D01*
X602948Y493863D01*
X604763Y492048D01*
X606987Y490764D01*
X609466Y490100D01*
X612034D01*
X614513Y490764D01*
X616737Y492048D01*
X618552Y493863D01*
X619836Y496087D01*
X620500Y498566D01*
Y501133D01*
X619836Y503613D01*
X618552Y505836D01*
X616737Y507652D01*
X614513Y508935D01*
X612034Y509600D01*
D02*
G37*
G36*
X435170Y491842D02*
Y487100D01*
X439912D01*
X439021Y489251D01*
X437321Y490951D01*
X435170Y491842D01*
D02*
G37*
G36*
X432630D02*
X430479Y490951D01*
X428779Y489251D01*
X427888Y487100D01*
X432630D01*
Y491842D01*
D02*
G37*
G36*
X439912Y484560D02*
X435170D01*
Y479818D01*
X437321Y480710D01*
X439021Y482409D01*
X439912Y484560D01*
D02*
G37*
G36*
X432630D02*
X427888D01*
X428779Y482409D01*
X430479Y480710D01*
X432630Y479818D01*
Y484560D01*
D02*
G37*
G36*
X731995Y483000D02*
X730005D01*
X728168Y482239D01*
X726761Y480832D01*
X726644Y480549D01*
X690500D01*
X689525Y480355D01*
X688698Y479802D01*
X641002Y432107D01*
X639913Y432735D01*
X637434Y433400D01*
X634866D01*
X632387Y432735D01*
X630163Y431452D01*
X628348Y429636D01*
X627065Y427413D01*
X626400Y424934D01*
Y422366D01*
X627065Y419887D01*
X628348Y417663D01*
X630163Y415848D01*
X632387Y414564D01*
X634866Y413900D01*
X637434D01*
X639913Y414564D01*
X642137Y415848D01*
X643952Y417663D01*
X645236Y419887D01*
X645900Y422366D01*
Y424934D01*
X645236Y427413D01*
X644607Y428502D01*
X691556Y475451D01*
X726644D01*
X726761Y475168D01*
X728168Y473761D01*
X730005Y473000D01*
X731995D01*
X733832Y473761D01*
X735239Y475168D01*
X736000Y477005D01*
Y478995D01*
X735239Y480832D01*
X733832Y482239D01*
X731995Y483000D01*
D02*
G37*
G36*
X612034Y484200D02*
X609466D01*
X606987Y483535D01*
X604763Y482252D01*
X602948Y480437D01*
X601665Y478213D01*
X601000Y475733D01*
Y473166D01*
X601665Y470686D01*
X602948Y468463D01*
X604763Y466648D01*
X606987Y465364D01*
X609466Y464700D01*
X612034D01*
X614513Y465364D01*
X616737Y466648D01*
X618552Y468463D01*
X619836Y470686D01*
X620500Y473166D01*
Y475733D01*
X619836Y478213D01*
X618552Y480437D01*
X616737Y482252D01*
X614513Y483535D01*
X612034Y484200D01*
D02*
G37*
G36*
X321270Y457012D02*
Y452270D01*
X326012D01*
X325121Y454421D01*
X323421Y456120D01*
X321270Y457012D01*
D02*
G37*
G36*
X318730D02*
X316579Y456120D01*
X314879Y454421D01*
X313988Y452270D01*
X318730D01*
Y457012D01*
D02*
G37*
G36*
X77770Y455012D02*
Y450270D01*
X82512D01*
X81621Y452421D01*
X79921Y454120D01*
X77770Y455012D01*
D02*
G37*
G36*
X75230D02*
X73079Y454120D01*
X71379Y452421D01*
X70488Y450270D01*
X75230D01*
Y455012D01*
D02*
G37*
G36*
X705270Y453012D02*
Y448270D01*
X710012D01*
X709120Y450421D01*
X707421Y452121D01*
X705270Y453012D01*
D02*
G37*
G36*
X702730D02*
X700579Y452121D01*
X698879Y450421D01*
X697988Y448270D01*
X702730D01*
Y453012D01*
D02*
G37*
G36*
X326012Y449730D02*
X321270D01*
Y444988D01*
X323421Y445880D01*
X325121Y447579D01*
X326012Y449730D01*
D02*
G37*
G36*
X318730D02*
X313988D01*
X314879Y447579D01*
X316579Y445880D01*
X318730Y444988D01*
Y449730D01*
D02*
G37*
G36*
X82512Y447730D02*
X77770D01*
Y442988D01*
X79921Y443880D01*
X81621Y445579D01*
X82512Y447730D01*
D02*
G37*
G36*
X75230D02*
X70488D01*
X71379Y445579D01*
X73079Y443880D01*
X75230Y442988D01*
Y447730D01*
D02*
G37*
G36*
X710012Y445730D02*
X705270D01*
Y440988D01*
X707421Y441880D01*
X709120Y443579D01*
X710012Y445730D01*
D02*
G37*
G36*
X702730D02*
X697988D01*
X698879Y443579D01*
X700579Y441880D01*
X702730Y440988D01*
Y445730D01*
D02*
G37*
G36*
X612034Y458800D02*
X609466D01*
X606987Y458135D01*
X604763Y456852D01*
X602948Y455037D01*
X601665Y452813D01*
X601000Y450334D01*
Y447766D01*
X601665Y445286D01*
X602948Y443063D01*
X604763Y441248D01*
X606987Y439964D01*
X609466Y439300D01*
X612034D01*
X614513Y439964D01*
X616737Y441248D01*
X618552Y443063D01*
X619836Y445286D01*
X620500Y447766D01*
Y450334D01*
X619836Y452813D01*
X618552Y455037D01*
X616737Y456852D01*
X614513Y458135D01*
X612034Y458800D01*
D02*
G37*
G36*
X705270Y426012D02*
Y421270D01*
X710012D01*
X709120Y423421D01*
X707421Y425121D01*
X705270Y426012D01*
D02*
G37*
G36*
X702730D02*
X700579Y425121D01*
X698879Y423421D01*
X697988Y421270D01*
X702730D01*
Y426012D01*
D02*
G37*
G36*
X710012Y418730D02*
X705270D01*
Y413988D01*
X707421Y414879D01*
X709120Y416579D01*
X710012Y418730D01*
D02*
G37*
G36*
X702730D02*
X697988D01*
X698879Y416579D01*
X700579Y414879D01*
X702730Y413988D01*
Y418730D01*
D02*
G37*
G36*
X612034Y433400D02*
X609466D01*
X606987Y432735D01*
X604763Y431452D01*
X602948Y429636D01*
X601665Y427413D01*
X601000Y424934D01*
Y422366D01*
X601665Y419887D01*
X602948Y417663D01*
X604763Y415848D01*
X606987Y414564D01*
X609466Y413900D01*
X612034D01*
X614513Y414564D01*
X616737Y415848D01*
X618552Y417663D01*
X619836Y419887D01*
X620500Y422366D01*
Y424934D01*
X619836Y427413D01*
X618552Y429636D01*
X616737Y431452D01*
X614513Y432735D01*
X612034Y433400D01*
D02*
G37*
G36*
X564270Y415012D02*
Y410270D01*
X569012D01*
X568120Y412421D01*
X566421Y414120D01*
X564270Y415012D01*
D02*
G37*
G36*
X561730D02*
X559579Y414120D01*
X557879Y412421D01*
X556988Y410270D01*
X561730D01*
Y415012D01*
D02*
G37*
G36*
X333270D02*
Y410270D01*
X338012D01*
X337121Y412421D01*
X335421Y414120D01*
X333270Y415012D01*
D02*
G37*
G36*
X330730D02*
X328579Y414120D01*
X326880Y412421D01*
X325988Y410270D01*
X330730D01*
Y415012D01*
D02*
G37*
G36*
X409270Y412012D02*
Y407270D01*
X414012D01*
X413120Y409421D01*
X411421Y411120D01*
X409270Y412012D01*
D02*
G37*
G36*
X406730D02*
X404579Y411120D01*
X402879Y409421D01*
X401988Y407270D01*
X406730D01*
Y412012D01*
D02*
G37*
G36*
X569012Y407730D02*
X564270D01*
Y402988D01*
X566421Y403880D01*
X568120Y405579D01*
X569012Y407730D01*
D02*
G37*
G36*
X561730D02*
X556988D01*
X557879Y405579D01*
X559579Y403880D01*
X561730Y402988D01*
Y407730D01*
D02*
G37*
G36*
X338012D02*
X333270D01*
Y402988D01*
X335421Y403880D01*
X337121Y405579D01*
X338012Y407730D01*
D02*
G37*
G36*
X330730D02*
X325988D01*
X326880Y405579D01*
X328579Y403880D01*
X330730Y402988D01*
Y407730D01*
D02*
G37*
G36*
X414012Y404730D02*
X409270D01*
Y399988D01*
X411421Y400880D01*
X413120Y402579D01*
X414012Y404730D01*
D02*
G37*
G36*
X406730D02*
X401988D01*
X402879Y402579D01*
X404579Y400880D01*
X406730Y399988D01*
Y404730D01*
D02*
G37*
G36*
X612034Y408000D02*
X609466D01*
X606987Y407335D01*
X604763Y406052D01*
X602948Y404236D01*
X601665Y402013D01*
X601000Y399534D01*
Y396966D01*
X601665Y394487D01*
X602948Y392263D01*
X604763Y390448D01*
X606987Y389164D01*
X609466Y388500D01*
X612034D01*
X614513Y389164D01*
X616737Y390448D01*
X618552Y392263D01*
X619836Y394487D01*
X620500Y396966D01*
Y399534D01*
X619836Y402013D01*
X618552Y404236D01*
X616737Y406052D01*
X614513Y407335D01*
X612034Y408000D01*
D02*
G37*
G36*
X32270Y376012D02*
Y371270D01*
X37012D01*
X36121Y373421D01*
X34421Y375121D01*
X32270Y376012D01*
D02*
G37*
G36*
X29730D02*
X27579Y375121D01*
X25879Y373421D01*
X24988Y371270D01*
X29730D01*
Y376012D01*
D02*
G37*
G36*
X705270Y371012D02*
Y366270D01*
X710012D01*
X709120Y368421D01*
X707421Y370121D01*
X705270Y371012D01*
D02*
G37*
G36*
X702730D02*
X700579Y370121D01*
X698879Y368421D01*
X697988Y366270D01*
X702730D01*
Y371012D01*
D02*
G37*
G36*
X37012Y368730D02*
X32270D01*
Y363988D01*
X34421Y364879D01*
X36121Y366579D01*
X37012Y368730D01*
D02*
G37*
G36*
X29730D02*
X24988D01*
X25879Y366579D01*
X27579Y364879D01*
X29730Y363988D01*
Y368730D01*
D02*
G37*
G36*
X612034Y382600D02*
X609466D01*
X606987Y381935D01*
X604763Y380652D01*
X602948Y378837D01*
X601665Y376613D01*
X601000Y374133D01*
Y371566D01*
X601665Y369086D01*
X602948Y366863D01*
X604763Y365048D01*
X606987Y363764D01*
X609466Y363100D01*
X612034D01*
X614513Y363764D01*
X616737Y365048D01*
X618552Y366863D01*
X619836Y369086D01*
X620500Y371566D01*
Y374133D01*
X619836Y376613D01*
X618552Y378837D01*
X616737Y380652D01*
X614513Y381935D01*
X612034Y382600D01*
D02*
G37*
G36*
X710012Y363730D02*
X705270D01*
Y358988D01*
X707421Y359879D01*
X709120Y361579D01*
X710012Y363730D01*
D02*
G37*
G36*
X702730D02*
X697988D01*
X698879Y361579D01*
X700579Y359879D01*
X702730Y358988D01*
Y363730D01*
D02*
G37*
G36*
X409270Y363012D02*
Y358270D01*
X414012D01*
X413120Y360421D01*
X411421Y362121D01*
X409270Y363012D01*
D02*
G37*
G36*
X406730D02*
X404579Y362121D01*
X402879Y360421D01*
X401988Y358270D01*
X406730D01*
Y363012D01*
D02*
G37*
G36*
X414012Y355730D02*
X409270D01*
Y350988D01*
X411421Y351880D01*
X413120Y353579D01*
X414012Y355730D01*
D02*
G37*
G36*
X406730D02*
X401988D01*
X402879Y353579D01*
X404579Y351880D01*
X406730Y350988D01*
Y355730D01*
D02*
G37*
G36*
X612034Y357200D02*
X609466D01*
X606987Y356535D01*
X604763Y355252D01*
X602948Y353437D01*
X601665Y351213D01*
X601000Y348733D01*
Y346166D01*
X601665Y343686D01*
X602948Y341463D01*
X604763Y339648D01*
X606987Y338364D01*
X609466Y337700D01*
X612034D01*
X614513Y338364D01*
X616737Y339648D01*
X618552Y341463D01*
X619836Y343686D01*
X620500Y346166D01*
Y348733D01*
X619836Y351213D01*
X618552Y353437D01*
X616737Y355252D01*
X614513Y356535D01*
X612034Y357200D01*
D02*
G37*
G36*
X78270Y327762D02*
Y323020D01*
X83012D01*
X82121Y325171D01*
X80421Y326870D01*
X78270Y327762D01*
D02*
G37*
G36*
X75730D02*
X73579Y326870D01*
X71880Y325171D01*
X70988Y323020D01*
X75730D01*
Y327762D01*
D02*
G37*
G36*
X318270Y327012D02*
Y322270D01*
X323012D01*
X322121Y324421D01*
X320421Y326120D01*
X318270Y327012D01*
D02*
G37*
G36*
X315730D02*
X313579Y326120D01*
X311880Y324421D01*
X310988Y322270D01*
X315730D01*
Y327012D01*
D02*
G37*
G36*
X83012Y320480D02*
X78270D01*
Y315738D01*
X80421Y316630D01*
X82121Y318329D01*
X83012Y320480D01*
D02*
G37*
G36*
X75730D02*
X70988D01*
X71880Y318329D01*
X73579Y316630D01*
X75730Y315738D01*
Y320480D01*
D02*
G37*
G36*
X323012Y319730D02*
X318270D01*
Y314988D01*
X320421Y315879D01*
X322121Y317579D01*
X323012Y319730D01*
D02*
G37*
G36*
X315730D02*
X310988D01*
X311880Y317579D01*
X313579Y315879D01*
X315730Y314988D01*
Y319730D01*
D02*
G37*
G36*
X650238Y313550D02*
X650120D01*
Y304280D01*
X659390D01*
Y304398D01*
X658672Y307078D01*
X657284Y309482D01*
X655322Y311444D01*
X652918Y312832D01*
X650238Y313550D01*
D02*
G37*
G36*
X647580D02*
X647462D01*
X644782Y312832D01*
X642378Y311444D01*
X640416Y309482D01*
X639028Y307078D01*
X638310Y304398D01*
Y304280D01*
X647580D01*
Y313550D01*
D02*
G37*
G36*
X708298Y303697D02*
Y298955D01*
X713040D01*
X712149Y301107D01*
X710449Y302806D01*
X708298Y303697D01*
D02*
G37*
G36*
X705758D02*
X703607Y302806D01*
X701908Y301107D01*
X701016Y298955D01*
X705758D01*
Y303697D01*
D02*
G37*
G36*
X624701Y312510D02*
X622199D01*
X619783Y311863D01*
X617617Y310612D01*
X615848Y308843D01*
X614597Y306677D01*
X613950Y304261D01*
Y301759D01*
X614597Y299343D01*
X615848Y297177D01*
X617617Y295408D01*
X619783Y294157D01*
X622199Y293510D01*
X624701D01*
X627117Y294157D01*
X629283Y295408D01*
X631052Y297177D01*
X632303Y299343D01*
X632950Y301759D01*
Y304261D01*
X632303Y306677D01*
X631052Y308843D01*
X629283Y310612D01*
X627117Y311863D01*
X624701Y312510D01*
D02*
G37*
G36*
X607550D02*
X588550D01*
Y293510D01*
X607550D01*
Y312510D01*
D02*
G37*
G36*
X659390Y301740D02*
X650120D01*
Y292470D01*
X650238D01*
X652918Y293188D01*
X655322Y294576D01*
X657284Y296538D01*
X658672Y298942D01*
X659390Y301622D01*
Y301740D01*
D02*
G37*
G36*
X647580D02*
X638310D01*
Y301622D01*
X639028Y298942D01*
X640416Y296538D01*
X642378Y294576D01*
X644782Y293188D01*
X647462Y292470D01*
X647580D01*
Y301740D01*
D02*
G37*
G36*
X713040Y296415D02*
X708298D01*
Y291674D01*
X710449Y292565D01*
X712149Y294264D01*
X713040Y296415D01*
D02*
G37*
G36*
X705758D02*
X701016D01*
X701908Y294264D01*
X703607Y292565D01*
X705758Y291674D01*
Y296415D01*
D02*
G37*
G36*
X409270Y273012D02*
Y268270D01*
X414012D01*
X413120Y270421D01*
X411421Y272120D01*
X409270Y273012D01*
D02*
G37*
G36*
X406730D02*
X404579Y272120D01*
X402879Y270421D01*
X401988Y268270D01*
X406730D01*
Y273012D01*
D02*
G37*
G36*
X414012Y265730D02*
X409270D01*
Y260988D01*
X411421Y261880D01*
X413120Y263579D01*
X414012Y265730D01*
D02*
G37*
G36*
X406730D02*
X401988D01*
X402879Y263579D01*
X404579Y261880D01*
X406730Y260988D01*
Y265730D01*
D02*
G37*
G36*
X38500Y276900D02*
X19500D01*
Y257900D01*
X38500D01*
Y276900D01*
D02*
G37*
G36*
X538245Y490500D02*
X536255D01*
X534418Y489739D01*
X533011Y488332D01*
X532250Y486495D01*
Y484506D01*
X533011Y482668D01*
X534418Y481261D01*
X534701Y481144D01*
Y377103D01*
X534668Y377089D01*
X533261Y375682D01*
X532500Y373844D01*
Y371855D01*
X533261Y370018D01*
X534668Y368611D01*
X536505Y367850D01*
X538495D01*
X540332Y368611D01*
X541431Y369710D01*
X542701Y369275D01*
Y366960D01*
X542168Y366739D01*
X540761Y365332D01*
X540000Y363495D01*
Y361505D01*
X540761Y359668D01*
X542168Y358261D01*
X542451Y358144D01*
Y351856D01*
X542168Y351739D01*
X540761Y350332D01*
X540000Y348495D01*
Y346505D01*
X540761Y344668D01*
X542168Y343261D01*
X542451Y343144D01*
Y328106D01*
X542168Y327989D01*
X540761Y326582D01*
X540000Y324744D01*
Y322755D01*
X540761Y320918D01*
X542168Y319511D01*
X542451Y319394D01*
Y284063D01*
X541668Y283739D01*
X540261Y282332D01*
X539500Y280495D01*
Y278505D01*
X540261Y276668D01*
X541668Y275261D01*
X542451Y274937D01*
Y250022D01*
X541261Y248832D01*
X540500Y246995D01*
Y245005D01*
X541261Y243168D01*
X542668Y241761D01*
X544505Y241000D01*
X546495D01*
X548332Y241761D01*
X549739Y243168D01*
X550500Y245005D01*
Y246995D01*
X549739Y248832D01*
X548332Y250239D01*
X547549Y250563D01*
Y275478D01*
X548739Y276668D01*
X549500Y278505D01*
Y280495D01*
X548739Y282332D01*
X547549Y283522D01*
Y319394D01*
X547832Y319511D01*
X549239Y320918D01*
X550000Y322755D01*
Y324744D01*
X549239Y326582D01*
X547832Y327989D01*
X547549Y328106D01*
Y343144D01*
X547832Y343261D01*
X549239Y344668D01*
X550000Y346505D01*
Y348495D01*
X549239Y350332D01*
X547832Y351739D01*
X547549Y351856D01*
Y358144D01*
X547832Y358261D01*
X549239Y359668D01*
X550000Y361505D01*
Y363495D01*
X549239Y365332D01*
X547832Y366739D01*
X547799Y366753D01*
Y407290D01*
X548332Y407511D01*
X549739Y408918D01*
X550500Y410755D01*
Y412745D01*
X549739Y414582D01*
X548332Y415989D01*
X546495Y416750D01*
X544505D01*
X542668Y415989D01*
X541261Y414582D01*
X541069Y414118D01*
X539799Y414371D01*
Y481144D01*
X540082Y481261D01*
X541489Y482668D01*
X542250Y484506D01*
Y486495D01*
X541489Y488332D01*
X540082Y489739D01*
X538245Y490500D01*
D02*
G37*
G36*
X611688Y248040D02*
X611570D01*
Y238770D01*
X620840D01*
Y238888D01*
X620122Y241568D01*
X618734Y243972D01*
X616772Y245934D01*
X614368Y247322D01*
X611688Y248040D01*
D02*
G37*
G36*
X609030D02*
X608912D01*
X606232Y247322D01*
X603828Y245934D01*
X601866Y243972D01*
X600478Y241568D01*
X599760Y238888D01*
Y238770D01*
X609030D01*
Y248040D01*
D02*
G37*
G36*
X30251Y251500D02*
X27749D01*
X25333Y250853D01*
X23167Y249602D01*
X21398Y247833D01*
X20147Y245667D01*
X19500Y243251D01*
Y240749D01*
X20147Y238333D01*
X21398Y236167D01*
X23167Y234398D01*
X25333Y233147D01*
X27749Y232500D01*
X30251D01*
X32667Y233147D01*
X34833Y234398D01*
X36602Y236167D01*
X37853Y238333D01*
X38500Y240749D01*
Y243251D01*
X37853Y245667D01*
X36602Y247833D01*
X34833Y249602D01*
X32667Y250853D01*
X30251Y251500D01*
D02*
G37*
G36*
X330096Y582250D02*
X328107D01*
X326270Y581489D01*
X324863Y580082D01*
X324102Y578245D01*
Y576255D01*
X324863Y574418D01*
X326270Y573011D01*
X326553Y572894D01*
Y535776D01*
X326270Y535659D01*
X324863Y534252D01*
X324102Y532415D01*
Y530425D01*
X324863Y528588D01*
X326270Y527181D01*
X327553Y526650D01*
Y490350D01*
X326270Y489819D01*
X324863Y488412D01*
X324102Y486575D01*
Y484585D01*
X324863Y482748D01*
X326270Y481341D01*
X327553Y480810D01*
Y460398D01*
X327747Y459423D01*
X328299Y458596D01*
X355951Y430944D01*
Y412753D01*
X355918Y412739D01*
X354511Y411332D01*
X353750Y409495D01*
Y407505D01*
X354511Y405668D01*
X355918Y404261D01*
X355951Y404247D01*
Y360708D01*
X355668Y360591D01*
X354261Y359184D01*
X353500Y357346D01*
Y355357D01*
X354261Y353520D01*
X355668Y352113D01*
X355701Y352099D01*
Y315562D01*
X355168Y315341D01*
X353761Y313934D01*
X353000Y312096D01*
Y310107D01*
X353761Y308270D01*
X355168Y306863D01*
X355701Y306642D01*
Y271562D01*
X355168Y271341D01*
X353761Y269934D01*
X353000Y268096D01*
Y266107D01*
X353761Y264270D01*
X355168Y262863D01*
X355701Y262642D01*
Y225354D01*
X355668Y225341D01*
X354261Y223934D01*
X353500Y222096D01*
Y220107D01*
X353617Y219824D01*
X255342Y121549D01*
X63356D01*
X63239Y121832D01*
X61832Y123239D01*
X59995Y124000D01*
X58005D01*
X56168Y123239D01*
X54761Y121832D01*
X54000Y119995D01*
Y118005D01*
X54761Y116168D01*
X56168Y114761D01*
X58005Y114000D01*
X59995D01*
X61832Y114761D01*
X63239Y116168D01*
X63356Y116451D01*
X256398D01*
X257374Y116645D01*
X258200Y117198D01*
X357222Y216219D01*
X357505Y216102D01*
X359495D01*
X361332Y216863D01*
X362739Y218270D01*
X363500Y220107D01*
Y222096D01*
X362739Y223934D01*
X361332Y225341D01*
X360799Y225562D01*
Y262849D01*
X360832Y262863D01*
X362239Y264270D01*
X363000Y266107D01*
Y268096D01*
X362239Y269934D01*
X360832Y271341D01*
X360799Y271354D01*
Y306849D01*
X360832Y306863D01*
X362239Y308270D01*
X363000Y310107D01*
Y312096D01*
X362239Y313934D01*
X360832Y315341D01*
X360799Y315354D01*
Y351892D01*
X361332Y352113D01*
X362739Y353520D01*
X363500Y355357D01*
Y357346D01*
X362739Y359184D01*
X361332Y360591D01*
X361049Y360708D01*
Y404040D01*
X361582Y404261D01*
X362989Y405668D01*
X363750Y407505D01*
Y409495D01*
X362989Y411332D01*
X361582Y412739D01*
X361049Y412960D01*
Y432000D01*
X360855Y432976D01*
X360302Y433802D01*
X332651Y461454D01*
Y482058D01*
X333341Y482748D01*
X334102Y484585D01*
Y486575D01*
X333341Y488412D01*
X332651Y489102D01*
Y527898D01*
X333341Y528588D01*
X334102Y530425D01*
Y532415D01*
X333341Y534252D01*
X331934Y535659D01*
X331651Y535776D01*
Y572894D01*
X331934Y573011D01*
X333341Y574418D01*
X334102Y576255D01*
Y578245D01*
X333341Y580082D01*
X331934Y581489D01*
X330096Y582250D01*
D02*
G37*
G36*
X323270Y217012D02*
Y212270D01*
X328012D01*
X327121Y214421D01*
X325421Y216120D01*
X323270Y217012D01*
D02*
G37*
G36*
X320730D02*
X318579Y216120D01*
X316880Y214421D01*
X315988Y212270D01*
X320730D01*
Y217012D01*
D02*
G37*
G36*
X30251Y226100D02*
X27749D01*
X25333Y225453D01*
X23167Y224202D01*
X21398Y222433D01*
X20147Y220267D01*
X19500Y217851D01*
Y215349D01*
X20147Y212933D01*
X21398Y210767D01*
X23167Y208998D01*
X25333Y207747D01*
X27749Y207100D01*
X30251D01*
X32667Y207747D01*
X34833Y208998D01*
X36602Y210767D01*
X37853Y212933D01*
X38500Y215349D01*
Y217851D01*
X37853Y220267D01*
X36602Y222433D01*
X34833Y224202D01*
X32667Y225453D01*
X30251Y226100D01*
D02*
G37*
G36*
X417770Y210512D02*
Y205770D01*
X422512D01*
X421620Y207921D01*
X419921Y209620D01*
X417770Y210512D01*
D02*
G37*
G36*
X415230D02*
X413079Y209620D01*
X411380Y207921D01*
X410488Y205770D01*
X415230D01*
Y210512D01*
D02*
G37*
G36*
X328012Y209730D02*
X323270D01*
Y204988D01*
X325421Y205879D01*
X327121Y207579D01*
X328012Y209730D01*
D02*
G37*
G36*
X320730D02*
X315988D01*
X316880Y207579D01*
X318579Y205879D01*
X320730Y204988D01*
Y209730D01*
D02*
G37*
G36*
X422512Y203230D02*
X417770D01*
Y198488D01*
X419921Y199380D01*
X421620Y201079D01*
X422512Y203230D01*
D02*
G37*
G36*
X415230D02*
X410488D01*
X411380Y201079D01*
X413079Y199380D01*
X415230Y198488D01*
Y203230D01*
D02*
G37*
G36*
X612188Y196290D02*
X612070D01*
Y187020D01*
X621340D01*
Y187138D01*
X620622Y189818D01*
X619234Y192222D01*
X617272Y194184D01*
X614868Y195572D01*
X612188Y196290D01*
D02*
G37*
G36*
X609530D02*
X609412D01*
X606732Y195572D01*
X604328Y194184D01*
X602366Y192222D01*
X600978Y189818D01*
X600260Y187138D01*
Y187020D01*
X609530D01*
Y196290D01*
D02*
G37*
G36*
X621340Y184480D02*
X612070D01*
Y175210D01*
X612188D01*
X614868Y175928D01*
X617272Y177316D01*
X619234Y179278D01*
X620622Y181682D01*
X621340Y184362D01*
Y184480D01*
D02*
G37*
G36*
X609530D02*
X600260D01*
Y184362D01*
X600978Y181682D01*
X602366Y179278D01*
X604328Y177316D01*
X606732Y175928D01*
X609412Y175210D01*
X609530D01*
Y184480D01*
D02*
G37*
G36*
X324270Y170012D02*
Y165270D01*
X329012D01*
X328120Y167421D01*
X326421Y169121D01*
X324270Y170012D01*
D02*
G37*
G36*
X321730D02*
X319579Y169121D01*
X317880Y167421D01*
X316988Y165270D01*
X321730D01*
Y170012D01*
D02*
G37*
G36*
X722270Y165012D02*
Y160270D01*
X727012D01*
X726121Y162421D01*
X724421Y164121D01*
X722270Y165012D01*
D02*
G37*
G36*
X719730D02*
X717579Y164121D01*
X715880Y162421D01*
X714988Y160270D01*
X719730D01*
Y165012D01*
D02*
G37*
G36*
X329012Y162730D02*
X324270D01*
Y157988D01*
X326421Y158879D01*
X328120Y160579D01*
X329012Y162730D01*
D02*
G37*
G36*
X321730D02*
X316988D01*
X317880Y160579D01*
X319579Y158879D01*
X321730Y157988D01*
Y162730D01*
D02*
G37*
G36*
X417770Y160512D02*
Y155770D01*
X422512D01*
X421620Y157921D01*
X419921Y159621D01*
X417770Y160512D01*
D02*
G37*
G36*
X415230D02*
X413079Y159621D01*
X411380Y157921D01*
X410488Y155770D01*
X415230D01*
Y160512D01*
D02*
G37*
G36*
X727012Y157730D02*
X722270D01*
Y152988D01*
X724421Y153879D01*
X726121Y155579D01*
X727012Y157730D01*
D02*
G37*
G36*
X719730D02*
X714988D01*
X715880Y155579D01*
X717579Y153879D01*
X719730Y152988D01*
Y157730D01*
D02*
G37*
G36*
X422512Y153230D02*
X417770D01*
Y148488D01*
X419921Y149380D01*
X421620Y151079D01*
X422512Y153230D01*
D02*
G37*
G36*
X415230D02*
X410488D01*
X411380Y151079D01*
X413079Y149380D01*
X415230Y148488D01*
Y153230D01*
D02*
G37*
G36*
X751580Y167950D02*
X748420D01*
X745368Y167132D01*
X742632Y165552D01*
X740398Y163318D01*
X738818Y160582D01*
X738000Y157530D01*
Y154370D01*
X738818Y151318D01*
X740398Y148582D01*
X742632Y146348D01*
X745368Y144768D01*
X748420Y143950D01*
X751580D01*
X754632Y144768D01*
X757368Y146348D01*
X759602Y148582D01*
X761182Y151318D01*
X762000Y154370D01*
Y157530D01*
X761182Y160582D01*
X759602Y163318D01*
X757368Y165552D01*
X754632Y167132D01*
X751580Y167950D01*
D02*
G37*
G36*
X61270Y148512D02*
Y143770D01*
X66012D01*
X65121Y145921D01*
X63421Y147620D01*
X61270Y148512D01*
D02*
G37*
G36*
X58730D02*
X56579Y147620D01*
X54879Y145921D01*
X53988Y143770D01*
X58730D01*
Y148512D01*
D02*
G37*
G36*
X66012Y141230D02*
X61270D01*
Y136488D01*
X63421Y137380D01*
X65121Y139079D01*
X66012Y141230D01*
D02*
G37*
G36*
X58730D02*
X53988D01*
X54879Y139079D01*
X56579Y137380D01*
X58730Y136488D01*
Y141230D01*
D02*
G37*
G36*
X610688Y141290D02*
X610570D01*
Y132020D01*
X619840D01*
Y132138D01*
X619122Y134818D01*
X617734Y137222D01*
X615772Y139184D01*
X613368Y140572D01*
X610688Y141290D01*
D02*
G37*
G36*
X608030D02*
X607912D01*
X605232Y140572D01*
X602828Y139184D01*
X600866Y137222D01*
X599478Y134818D01*
X598760Y132138D01*
Y132020D01*
X608030D01*
Y141290D01*
D02*
G37*
G36*
X619840Y129480D02*
X610570D01*
Y120210D01*
X610688D01*
X613368Y120928D01*
X615772Y122316D01*
X617734Y124278D01*
X619122Y126682D01*
X619840Y129362D01*
Y129480D01*
D02*
G37*
G36*
X608030D02*
X598760D01*
Y129362D01*
X599478Y126682D01*
X600866Y124278D01*
X602828Y122316D01*
X605232Y120928D01*
X607912Y120210D01*
X608030D01*
Y129480D01*
D02*
G37*
G36*
X721270Y118012D02*
Y113270D01*
X726012D01*
X725120Y115421D01*
X723421Y117121D01*
X721270Y118012D01*
D02*
G37*
G36*
X718730D02*
X716579Y117121D01*
X714880Y115421D01*
X713988Y113270D01*
X718730D01*
Y118012D01*
D02*
G37*
G36*
X342270Y115012D02*
Y110270D01*
X347012D01*
X346120Y112421D01*
X344421Y114121D01*
X342270Y115012D01*
D02*
G37*
G36*
X339730D02*
X337579Y114121D01*
X335880Y112421D01*
X334988Y110270D01*
X339730D01*
Y115012D01*
D02*
G37*
G36*
X726012Y110730D02*
X721270D01*
Y105988D01*
X723421Y106880D01*
X725120Y108579D01*
X726012Y110730D01*
D02*
G37*
G36*
X718730D02*
X713988D01*
X714880Y108579D01*
X716579Y106880D01*
X718730Y105988D01*
Y110730D01*
D02*
G37*
G36*
X980270Y110012D02*
Y105270D01*
X985012D01*
X984120Y107421D01*
X982421Y109121D01*
X980270Y110012D01*
D02*
G37*
G36*
X977730D02*
X975579Y109121D01*
X973879Y107421D01*
X972988Y105270D01*
X977730D01*
Y110012D01*
D02*
G37*
G36*
X347012Y107730D02*
X342270D01*
Y102988D01*
X344421Y103879D01*
X346120Y105579D01*
X347012Y107730D01*
D02*
G37*
G36*
X339730D02*
X334988D01*
X335880Y105579D01*
X337579Y103879D01*
X339730Y102988D01*
Y107730D01*
D02*
G37*
G36*
X751580Y124633D02*
X748420D01*
X745368Y123815D01*
X742632Y122236D01*
X740398Y120001D01*
X738818Y117265D01*
X738000Y114213D01*
Y111053D01*
X738818Y108001D01*
X739164Y107402D01*
X704311Y72549D01*
X597356D01*
X597239Y72832D01*
X596390Y73681D01*
X596916Y74951D01*
X622100D01*
X623075Y75145D01*
X623902Y75698D01*
X634165Y85961D01*
X634631Y85692D01*
X636653Y85150D01*
X638747D01*
X640769Y85692D01*
X642581Y86738D01*
X644062Y88219D01*
X645108Y90031D01*
X645650Y92053D01*
Y94147D01*
X645108Y96169D01*
X644062Y97981D01*
X642581Y99462D01*
X640769Y100508D01*
X638747Y101050D01*
X636653D01*
X634631Y100508D01*
X632819Y99462D01*
X631338Y97981D01*
X630292Y96169D01*
X629750Y94147D01*
Y92053D01*
X630292Y90031D01*
X630561Y89565D01*
X621044Y80049D01*
X403899D01*
Y82500D01*
X410850D01*
Y101500D01*
X391850D01*
Y82500D01*
X398801D01*
Y78672D01*
X398995Y77696D01*
X399548Y76869D01*
X400719Y75698D01*
X401546Y75145D01*
X402522Y74951D01*
X589084D01*
X589610Y73681D01*
X588761Y72832D01*
X588000Y70995D01*
Y69005D01*
X588761Y67168D01*
X590168Y65761D01*
X592005Y65000D01*
X593995D01*
X595832Y65761D01*
X597239Y67168D01*
X597356Y67451D01*
X705367D01*
X706342Y67645D01*
X707169Y68198D01*
X742317Y103346D01*
X742632Y103031D01*
X745368Y101451D01*
X748420Y100633D01*
X751580D01*
X754632Y101451D01*
X757368Y103031D01*
X759602Y105265D01*
X761182Y108001D01*
X762000Y111053D01*
Y114213D01*
X761182Y117265D01*
X759602Y120001D01*
X757368Y122236D01*
X754632Y123815D01*
X751580Y124633D01*
D02*
G37*
G36*
X985012Y102730D02*
X980270D01*
Y97988D01*
X982421Y98879D01*
X984120Y100579D01*
X985012Y102730D01*
D02*
G37*
G36*
X977730D02*
X972988D01*
X973879Y100579D01*
X975579Y98879D01*
X977730Y97988D01*
Y102730D01*
D02*
G37*
G36*
X504338Y102540D02*
X504220D01*
Y93270D01*
X513490D01*
Y93388D01*
X512772Y96068D01*
X511384Y98472D01*
X509422Y100434D01*
X507018Y101822D01*
X504338Y102540D01*
D02*
G37*
G36*
X501680D02*
X501562D01*
X498882Y101822D01*
X496478Y100434D01*
X494516Y98472D01*
X493128Y96068D01*
X492410Y93388D01*
Y93270D01*
X501680D01*
Y102540D01*
D02*
G37*
G36*
X696450Y101050D02*
X680550D01*
Y85150D01*
X696450D01*
Y101050D01*
D02*
G37*
G36*
X664147D02*
X662053D01*
X660031Y100508D01*
X658219Y99462D01*
X656738Y97981D01*
X655692Y96169D01*
X655150Y94147D01*
Y92053D01*
X655692Y90031D01*
X656738Y88219D01*
X658219Y86738D01*
X660031Y85692D01*
X662053Y85150D01*
X664147D01*
X666169Y85692D01*
X667981Y86738D01*
X669462Y88219D01*
X670508Y90031D01*
X671050Y92053D01*
Y94147D01*
X670508Y96169D01*
X669462Y97981D01*
X667981Y99462D01*
X666169Y100508D01*
X664147Y101050D01*
D02*
G37*
G36*
X613347D02*
X611253D01*
X609231Y100508D01*
X607419Y99462D01*
X605938Y97981D01*
X604892Y96169D01*
X604350Y94147D01*
Y92053D01*
X604892Y90031D01*
X605938Y88219D01*
X607419Y86738D01*
X609231Y85692D01*
X611253Y85150D01*
X613347D01*
X615369Y85692D01*
X617181Y86738D01*
X618662Y88219D01*
X619708Y90031D01*
X620250Y92053D01*
Y94147D01*
X619708Y96169D01*
X618662Y97981D01*
X617181Y99462D01*
X615369Y100508D01*
X613347Y101050D01*
D02*
G37*
G36*
X587947D02*
X585853D01*
X583831Y100508D01*
X582019Y99462D01*
X580538Y97981D01*
X579492Y96169D01*
X578950Y94147D01*
Y92053D01*
X579492Y90031D01*
X580538Y88219D01*
X582019Y86738D01*
X583831Y85692D01*
X585853Y85150D01*
X587947D01*
X589969Y85692D01*
X591781Y86738D01*
X593262Y88219D01*
X594308Y90031D01*
X594850Y92053D01*
Y94147D01*
X594308Y96169D01*
X593262Y97981D01*
X591781Y99462D01*
X589969Y100508D01*
X587947Y101050D01*
D02*
G37*
G36*
X552500Y112549D02*
X444750D01*
X443775Y112355D01*
X442948Y111802D01*
X431419Y100274D01*
X430417Y100853D01*
X428001Y101500D01*
X425499D01*
X423083Y100853D01*
X420917Y99602D01*
X419148Y97833D01*
X417897Y95667D01*
X417250Y93251D01*
Y90749D01*
X417897Y88333D01*
X419148Y86167D01*
X420917Y84398D01*
X423083Y83147D01*
X425499Y82500D01*
X428001D01*
X430417Y83147D01*
X432583Y84398D01*
X434352Y86167D01*
X435603Y88333D01*
X436250Y90749D01*
Y93251D01*
X435603Y95667D01*
X435024Y96669D01*
X445806Y107451D01*
X551444D01*
X557401Y101494D01*
Y99913D01*
X556619Y99462D01*
X555138Y97981D01*
X554092Y96169D01*
X553550Y94147D01*
Y92053D01*
X554092Y90031D01*
X555138Y88219D01*
X556619Y86738D01*
X558431Y85692D01*
X560453Y85150D01*
X562547D01*
X564569Y85692D01*
X566381Y86738D01*
X567862Y88219D01*
X568908Y90031D01*
X569450Y92053D01*
Y94147D01*
X568908Y96169D01*
X567862Y97981D01*
X566381Y99462D01*
X564569Y100508D01*
X562547Y101050D01*
X562499D01*
Y102550D01*
X562305Y103525D01*
X561752Y104352D01*
X554302Y111802D01*
X553475Y112355D01*
X552500Y112549D01*
D02*
G37*
G36*
X478801Y101500D02*
X476299D01*
X473883Y100853D01*
X471717Y99602D01*
X469948Y97833D01*
X468697Y95667D01*
X468050Y93251D01*
Y90749D01*
X468697Y88333D01*
X469948Y86167D01*
X471717Y84398D01*
X473883Y83147D01*
X476299Y82500D01*
X478801D01*
X481217Y83147D01*
X483383Y84398D01*
X485152Y86167D01*
X486403Y88333D01*
X487050Y90749D01*
Y93251D01*
X486403Y95667D01*
X485152Y97833D01*
X483383Y99602D01*
X481217Y100853D01*
X478801Y101500D01*
D02*
G37*
G36*
X453401D02*
X450899D01*
X448483Y100853D01*
X446317Y99602D01*
X444548Y97833D01*
X443297Y95667D01*
X442650Y93251D01*
Y90749D01*
X443297Y88333D01*
X444548Y86167D01*
X446317Y84398D01*
X448483Y83147D01*
X450899Y82500D01*
X453401D01*
X455817Y83147D01*
X457983Y84398D01*
X459752Y86167D01*
X461003Y88333D01*
X461650Y90749D01*
Y93251D01*
X461003Y95667D01*
X459752Y97833D01*
X457983Y99602D01*
X455817Y100853D01*
X453401Y101500D01*
D02*
G37*
G36*
X513490Y90730D02*
X504220D01*
Y81460D01*
X504338D01*
X507018Y82178D01*
X509422Y83566D01*
X511384Y85528D01*
X512772Y87932D01*
X513490Y90612D01*
Y90730D01*
D02*
G37*
G36*
X501680D02*
X492410D01*
Y90612D01*
X493128Y87932D01*
X494516Y85528D01*
X496478Y83566D01*
X498882Y82178D01*
X501562Y81460D01*
X501680D01*
Y90730D01*
D02*
G37*
G36*
X824270Y80012D02*
Y75270D01*
X829012D01*
X828120Y77421D01*
X826421Y79120D01*
X824270Y80012D01*
D02*
G37*
G36*
X821730D02*
X819579Y79120D01*
X817879Y77421D01*
X816988Y75270D01*
X821730D01*
Y80012D01*
D02*
G37*
G36*
X918270Y76291D02*
Y71550D01*
X923011D01*
X922120Y73701D01*
X920421Y75400D01*
X918270Y76291D01*
D02*
G37*
G36*
X915730D02*
X913578Y75400D01*
X911880Y73701D01*
X910988Y71550D01*
X915730D01*
Y76291D01*
D02*
G37*
G36*
X77770Y74012D02*
Y69270D01*
X82512D01*
X81621Y71421D01*
X79921Y73120D01*
X77770Y74012D01*
D02*
G37*
G36*
X75230D02*
X73079Y73120D01*
X71379Y71421D01*
X70488Y69270D01*
X75230D01*
Y74012D01*
D02*
G37*
G36*
X829012Y72730D02*
X824270D01*
Y67988D01*
X826421Y68879D01*
X828120Y70579D01*
X829012Y72730D01*
D02*
G37*
G36*
X821730D02*
X816988D01*
X817879Y70579D01*
X819579Y68879D01*
X821730Y67988D01*
Y72730D01*
D02*
G37*
G36*
X457270Y71012D02*
Y66270D01*
X462012D01*
X461120Y68421D01*
X459421Y70121D01*
X457270Y71012D01*
D02*
G37*
G36*
X454730D02*
X452579Y70121D01*
X450880Y68421D01*
X449988Y66270D01*
X454730D01*
Y71012D01*
D02*
G37*
G36*
X923011Y69010D02*
X918270D01*
Y64268D01*
X920421Y65160D01*
X922120Y66859D01*
X923011Y69010D01*
D02*
G37*
G36*
X915730D02*
X910988D01*
X911880Y66859D01*
X913578Y65160D01*
X915730Y64268D01*
Y69010D01*
D02*
G37*
G36*
X351500Y81300D02*
X332500D01*
Y62300D01*
X351500D01*
Y81300D01*
D02*
G37*
G36*
X82512Y66730D02*
X77770D01*
Y61988D01*
X79921Y62880D01*
X81621Y64579D01*
X82512Y66730D01*
D02*
G37*
G36*
X75230D02*
X70488D01*
X71379Y64579D01*
X73079Y62880D01*
X75230Y61988D01*
Y66730D01*
D02*
G37*
G36*
X462012Y63730D02*
X457270D01*
Y58988D01*
X459421Y59879D01*
X461120Y61579D01*
X462012Y63730D01*
D02*
G37*
G36*
X454730D02*
X449988D01*
X450880Y61579D01*
X452579Y59879D01*
X454730Y58988D01*
Y63730D01*
D02*
G37*
G36*
X751580Y81317D02*
X748420D01*
X745368Y80499D01*
X742632Y78919D01*
X740398Y76685D01*
X738818Y73948D01*
X738000Y70897D01*
Y67737D01*
X738818Y64685D01*
X739164Y64085D01*
X733378Y58299D01*
X582106D01*
X581989Y58582D01*
X580582Y59989D01*
X578745Y60750D01*
X576755D01*
X574918Y59989D01*
X573511Y58582D01*
X572750Y56745D01*
Y54755D01*
X573511Y52918D01*
X574918Y51511D01*
X576755Y50750D01*
X578745D01*
X580582Y51511D01*
X581989Y52918D01*
X582106Y53201D01*
X734433D01*
X735409Y53395D01*
X736236Y53948D01*
X742317Y60029D01*
X742632Y59714D01*
X745368Y58134D01*
X748420Y57317D01*
X751580D01*
X754632Y58134D01*
X757368Y59714D01*
X759602Y61948D01*
X761182Y64685D01*
X762000Y67737D01*
Y70897D01*
X761182Y73948D01*
X759602Y76685D01*
X757368Y78919D01*
X754632Y80499D01*
X751580Y81317D01*
D02*
G37*
G36*
X343388Y56940D02*
X343270D01*
Y47670D01*
X352540D01*
Y47788D01*
X351822Y50468D01*
X350434Y52872D01*
X348472Y54834D01*
X346068Y56222D01*
X343388Y56940D01*
D02*
G37*
G36*
X340730D02*
X340612D01*
X337932Y56222D01*
X335528Y54834D01*
X333566Y52872D01*
X332178Y50468D01*
X331460Y47788D01*
Y47670D01*
X340730D01*
Y56940D01*
D02*
G37*
G36*
X962561Y72540D02*
X961270D01*
Y41270D01*
X992540D01*
Y42561D01*
X991739Y47620D01*
X990156Y52491D01*
X987831Y57055D01*
X984820Y61198D01*
X981198Y64820D01*
X977055Y67831D01*
X972491Y70156D01*
X967620Y71739D01*
X962561Y72540D01*
D02*
G37*
G36*
X42561D02*
X41270D01*
Y41270D01*
X72540D01*
Y42561D01*
X71739Y47620D01*
X70156Y52491D01*
X67831Y57055D01*
X64820Y61198D01*
X61198Y64820D01*
X57055Y67831D01*
X52491Y70156D01*
X47620Y71739D01*
X42561Y72540D01*
D02*
G37*
G36*
X38730D02*
X37439D01*
X32380Y71739D01*
X27509Y70156D01*
X22945Y67831D01*
X18802Y64820D01*
X15180Y61198D01*
X12169Y57055D01*
X9844Y52491D01*
X8261Y47620D01*
X7460Y42561D01*
Y41270D01*
X38730D01*
Y72540D01*
D02*
G37*
G36*
X958730D02*
X957439D01*
X952380Y71739D01*
X947509Y70156D01*
X942945Y67831D01*
X938802Y64820D01*
X935180Y61198D01*
X932169Y57055D01*
X929844Y52491D01*
X928261Y47620D01*
X927460Y42561D01*
Y41270D01*
X958730D01*
Y72540D01*
D02*
G37*
G36*
X664095Y49400D02*
X662105D01*
X660268Y48639D01*
X658861Y47232D01*
X658100Y45395D01*
Y43405D01*
X658861Y41568D01*
X660268Y40161D01*
X662105Y39400D01*
X664095D01*
X665932Y40161D01*
X667172Y41401D01*
X862207D01*
X862511Y40668D01*
X863918Y39261D01*
X865755Y38500D01*
X867745D01*
X869582Y39261D01*
X870989Y40668D01*
X871750Y42505D01*
Y44495D01*
X870989Y46332D01*
X869582Y47739D01*
X867745Y48500D01*
X865755D01*
X863918Y47739D01*
X862678Y46499D01*
X667643D01*
X667339Y47232D01*
X665932Y48639D01*
X664095Y49400D01*
D02*
G37*
G36*
X352540Y45130D02*
X343270D01*
Y35860D01*
X343388D01*
X346068Y36578D01*
X348472Y37966D01*
X350434Y39928D01*
X351822Y42332D01*
X352540Y45012D01*
Y45130D01*
D02*
G37*
G36*
X340730D02*
X331460D01*
Y45012D01*
X332178Y42332D01*
X333566Y39928D01*
X335528Y37966D01*
X337932Y36578D01*
X340612Y35860D01*
X340730D01*
Y45130D01*
D02*
G37*
G36*
X824270Y34012D02*
Y29270D01*
X829012D01*
X828120Y31421D01*
X826421Y33121D01*
X824270Y34012D01*
D02*
G37*
G36*
X821730D02*
X819579Y33121D01*
X817879Y31421D01*
X816988Y29270D01*
X821730D01*
Y34012D01*
D02*
G37*
G36*
X751717Y39040D02*
X751270D01*
Y27270D01*
X763040D01*
Y27717D01*
X762151Y31033D01*
X760435Y34007D01*
X758007Y36435D01*
X755033Y38151D01*
X751717Y39040D01*
D02*
G37*
G36*
X748730D02*
X748283D01*
X744967Y38151D01*
X741993Y36435D01*
X739565Y34007D01*
X737849Y31033D01*
X736960Y27717D01*
Y27270D01*
X748730D01*
Y39040D01*
D02*
G37*
G36*
X483187Y30230D02*
X476370D01*
Y23413D01*
X478242Y23915D01*
X480098Y24986D01*
X481614Y26502D01*
X482685Y28358D01*
X483187Y30230D01*
D02*
G37*
G36*
X829012Y26730D02*
X824270D01*
Y21988D01*
X826421Y22880D01*
X828120Y24579D01*
X829012Y26730D01*
D02*
G37*
G36*
X821730D02*
X816988D01*
X817879Y24579D01*
X819579Y22880D01*
X821730Y21988D01*
Y26730D01*
D02*
G37*
G36*
X763040Y24730D02*
X751270D01*
Y12960D01*
X751717D01*
X755033Y13849D01*
X758007Y15565D01*
X760435Y17993D01*
X762151Y20967D01*
X763040Y24283D01*
Y24730D01*
D02*
G37*
G36*
X748730D02*
X736960D01*
Y24283D01*
X737849Y20967D01*
X739565Y17993D01*
X741993Y15565D01*
X744967Y13849D01*
X748283Y12960D01*
X748730D01*
Y24730D01*
D02*
G37*
G36*
X343251Y30500D02*
X340749D01*
X338333Y29853D01*
X336167Y28602D01*
X334398Y26833D01*
X333147Y24667D01*
X332500Y22251D01*
Y19749D01*
X333147Y17333D01*
X334398Y15167D01*
X336167Y13398D01*
X338333Y12147D01*
X340749Y11500D01*
X343251D01*
X345667Y12147D01*
X347833Y13398D01*
X349602Y15167D01*
X350853Y17333D01*
X351500Y19749D01*
Y22251D01*
X350853Y24667D01*
X349602Y26833D01*
X347833Y28602D01*
X345667Y29853D01*
X343251Y30500D01*
D02*
G37*
G36*
X689547Y24850D02*
X687453D01*
X685431Y24308D01*
X683619Y23262D01*
X682138Y21781D01*
X681092Y19969D01*
X680550Y17947D01*
Y15853D01*
X681092Y13831D01*
X682138Y12019D01*
X683619Y10538D01*
X685431Y9492D01*
X687453Y8950D01*
X689547D01*
X691569Y9492D01*
X693381Y10538D01*
X694862Y12019D01*
X695908Y13831D01*
X696450Y15853D01*
Y17947D01*
X695908Y19969D01*
X694862Y21781D01*
X693381Y23262D01*
X691569Y24308D01*
X689547Y24850D01*
D02*
G37*
G36*
X664147D02*
X662053D01*
X660031Y24308D01*
X658219Y23262D01*
X656738Y21781D01*
X655692Y19969D01*
X655150Y17947D01*
Y15853D01*
X655692Y13831D01*
X656738Y12019D01*
X658219Y10538D01*
X660031Y9492D01*
X662053Y8950D01*
X664147D01*
X666169Y9492D01*
X667981Y10538D01*
X669462Y12019D01*
X670508Y13831D01*
X671050Y15853D01*
Y17947D01*
X670508Y19969D01*
X669462Y21781D01*
X667981Y23262D01*
X666169Y24308D01*
X664147Y24850D01*
D02*
G37*
G36*
X992540Y38730D02*
X961270D01*
Y7460D01*
X962561D01*
X967620Y8261D01*
X972491Y9844D01*
X977055Y12169D01*
X981198Y15180D01*
X984820Y18802D01*
X987831Y22945D01*
X990156Y27509D01*
X991739Y32380D01*
X992540Y37439D01*
Y38730D01*
D02*
G37*
G36*
X958730D02*
X927460D01*
Y37439D01*
X928261Y32380D01*
X929844Y27509D01*
X932169Y22945D01*
X935180Y18802D01*
X938802Y15180D01*
X942945Y12169D01*
X947509Y9844D01*
X952380Y8261D01*
X957439Y7460D01*
X958730D01*
Y38730D01*
D02*
G37*
G36*
X72540D02*
X41270D01*
Y7460D01*
X42561D01*
X47620Y8261D01*
X52491Y9844D01*
X57055Y12169D01*
X61198Y15180D01*
X64820Y18802D01*
X67831Y22945D01*
X70156Y27509D01*
X71739Y32380D01*
X72540Y37439D01*
Y38730D01*
D02*
G37*
G36*
X38730D02*
X7460D01*
Y37439D01*
X8261Y32380D01*
X9844Y27509D01*
X12169Y22945D01*
X15180Y18802D01*
X18802Y15180D01*
X22945Y12169D01*
X27509Y9844D01*
X32380Y8261D01*
X37439Y7460D01*
X38730D01*
Y38730D01*
D02*
G37*
G36*
X525270Y45012D02*
Y40270D01*
X530012D01*
X529120Y42421D01*
X527421Y44120D01*
X525270Y45012D01*
D02*
G37*
G36*
X522730D02*
X520579Y44120D01*
X518880Y42421D01*
X517988Y40270D01*
X522730D01*
Y45012D01*
D02*
G37*
G36*
X530012Y37730D02*
X525270D01*
Y32988D01*
X527421Y33879D01*
X529120Y35579D01*
X530012Y37730D01*
D02*
G37*
G36*
X522730D02*
X517988D01*
X518880Y35579D01*
X520579Y33879D01*
X522730Y32988D01*
Y37730D01*
D02*
G37*
%LPD*%
D11*
X636150Y423650D02*
X690500Y478000D01*
X731000D01*
X330102Y485580D02*
Y531420D01*
Y460398D02*
Y485580D01*
X329102Y531420D02*
Y577250D01*
X358500Y356352D02*
Y432000D01*
X358250Y221352D02*
Y310852D01*
X514625Y423875D02*
X514750Y423750D01*
X514625Y423875D02*
Y577625D01*
X514500Y577750D02*
X514625Y577625D01*
X462750Y442250D02*
Y570250D01*
Y442250D02*
X463750Y441250D01*
X537250Y373100D02*
Y485500D01*
Y373100D02*
X537500Y372850D01*
X522250Y400500D02*
Y532000D01*
X522000Y532250D02*
X522250Y532000D01*
Y400500D02*
X522500Y400250D01*
X652700Y632433D02*
X750000D01*
X652700D02*
Y671000D01*
X526317Y632433D02*
X652700D01*
X553000Y661000D02*
X561000Y653000D01*
X609300D02*
X627300Y671000D01*
X561000Y653000D02*
X609300D01*
X518000Y640750D02*
Y661000D01*
Y640750D02*
X526317Y632433D01*
X751000Y676750D02*
X763250Y664500D01*
X627300Y671000D02*
X641300Y685000D01*
X740158D01*
X749409Y675750D02*
X750000D01*
X740158Y685000D02*
X749409Y675750D01*
X558618Y22732D02*
X561500Y19849D01*
X439000Y55000D02*
X527000D01*
X561500Y16900D02*
Y19849D01*
X558618Y22732D02*
Y23382D01*
X527000Y55000D02*
X558618Y23382D01*
X581750Y224250D02*
X793750D01*
X576000Y218500D02*
X581750Y224250D01*
X827078Y386000D02*
X830078Y389000D01*
X830750D01*
X662850Y372850D02*
X676000Y386000D01*
X827078D01*
X833578Y402000D02*
X836578Y399000D01*
X636150Y398250D02*
X640074D01*
X643824Y402000D01*
X833578D01*
X836578Y399000D02*
X837250D01*
X785793Y619543D02*
X786750Y620500D01*
X653700Y619000D02*
X783078D01*
X783622Y619543D01*
X636150Y601450D02*
X653700Y619000D01*
X783622Y619543D02*
X785793D01*
X663100Y603000D02*
X819750D01*
X636150Y576050D02*
X663100Y603000D01*
X819750D02*
X824250Y607500D01*
X799250Y517000D02*
X805750Y523500D01*
X636150Y474450D02*
X678700Y517000D01*
X799250D01*
X798147Y534000D02*
X799500D01*
X796147Y532000D02*
X798147Y534000D01*
X636150Y499850D02*
X668300Y532000D01*
X796147D01*
X791897Y489750D02*
X793250D01*
X790147Y488000D02*
X791897Y489750D01*
X636150Y449050D02*
X675100Y488000D01*
X790147D01*
X659500Y574000D02*
X814828D01*
X636150Y550650D02*
X659500Y574000D01*
X818078Y577250D02*
X818500D01*
X814828Y574000D02*
X818078Y577250D01*
X750233Y330983D02*
X799267D01*
X799500Y330750D01*
X750000Y331217D02*
X750233Y330983D01*
X545250Y411500D02*
X545500Y411750D01*
X545000Y362500D02*
X545250Y362750D01*
Y411500D01*
X885500Y136750D02*
X896250Y126000D01*
X640700Y136750D02*
X885500D01*
X634700Y130750D02*
X640700Y136750D01*
X663100Y44400D02*
X663550Y43950D01*
X866300D01*
X866750Y43500D01*
X507500Y195000D02*
Y448250D01*
X500000Y145000D02*
X500125Y145125D01*
Y473875D01*
X500250Y474000D01*
X492000Y255000D02*
Y500000D01*
Y255000D02*
X492500Y254500D01*
X485186Y298523D02*
X485436Y298273D01*
X478125Y549625D02*
X479000Y550500D01*
X477500Y342250D02*
X478125Y342875D01*
X484750Y525250D02*
X485186Y524814D01*
X470000Y389750D02*
Y601450D01*
X478125Y342875D02*
Y549625D01*
X485186Y298523D02*
Y524814D01*
X330102Y460398D02*
X358500Y432000D01*
X578250Y206750D02*
X586250Y214750D01*
X805750D01*
X637700Y349000D02*
X638475Y348225D01*
X835975D01*
X836750Y349000D01*
X636150Y347450D02*
X637700Y349000D01*
X817417Y460333D02*
X818250Y459500D01*
X750833Y460333D02*
X817417D01*
X750000Y461166D02*
X750833Y460333D01*
X750208Y244792D02*
X786542D01*
X750000Y244583D02*
X750208Y244792D01*
X786542D02*
X786750Y245000D01*
X677900Y567000D02*
X811500D01*
X636150Y525250D02*
X677900Y567000D01*
X750108Y374642D02*
X805392D01*
X805500Y374750D01*
X636200Y185750D02*
X636332Y185882D01*
X844882D01*
X763250Y664500D02*
X851500D01*
X851750Y664750D01*
X750717Y633717D02*
X843783D01*
X844500Y633000D01*
X836308Y591808D02*
X837000Y592500D01*
X750692Y591808D02*
X836308D01*
X750000Y591116D02*
X750692Y591808D01*
X829043Y550543D02*
X830000Y551500D01*
X752744Y550543D02*
X829043D01*
X823734Y504217D02*
X824000Y503952D01*
X750266Y504217D02*
X823734D01*
X750000Y504483D02*
X750266Y504217D01*
X750000Y547800D02*
X752744Y550543D01*
X750300Y417550D02*
X811450D01*
X811750Y417250D01*
X750000Y417850D02*
X750300Y417550D01*
X750000Y374533D02*
X750108Y374642D01*
X750200Y287700D02*
X793550D01*
X793750Y287500D01*
X750000Y287900D02*
X750200Y287700D01*
X750000Y157950D02*
X750225Y157725D01*
X636150Y372850D02*
X662850D01*
X577750Y55750D02*
X734433D01*
X750000Y71317D01*
X705367Y70000D02*
X750000Y114633D01*
X593000Y70000D02*
X705367D01*
X627050Y6250D02*
X637700Y16900D01*
X521250Y6250D02*
X627050D01*
X750000Y114633D02*
X750058Y114692D01*
X545000Y246500D02*
X545500Y246000D01*
X545000Y246500D02*
Y323750D01*
Y347500D02*
Y362500D01*
Y323750D02*
Y347500D01*
X358250Y311352D02*
Y356102D01*
X358500Y356352D01*
X358000Y311102D02*
X358250Y311352D01*
X358000Y311102D02*
X358250Y310852D01*
Y221352D02*
X358500Y221102D01*
X59000Y119000D02*
X256398D01*
X358500Y221102D01*
X401350Y78672D02*
Y92000D01*
X402522Y77500D02*
X622100D01*
X637700Y93100D01*
X401350Y78672D02*
X402522Y77500D01*
X437000Y53000D02*
X439000Y55000D01*
X483700Y43800D02*
X521250Y6250D01*
X475100Y44200D02*
X475500Y43800D01*
X483700D01*
X437000Y44200D02*
Y53000D01*
X444750Y110000D02*
X552500D01*
X426750Y92000D02*
X444750Y110000D01*
X552500D02*
X559950Y102550D01*
Y94650D02*
Y102550D01*
Y94650D02*
X561500Y93100D01*
X608600Y375000D02*
X610750Y372850D01*
D29*
X688500Y16900D02*
D03*
X663100D02*
D03*
X637700D02*
D03*
X612300D02*
D03*
X586900D02*
D03*
X561500D02*
D03*
Y93100D02*
D03*
X586900D02*
D03*
X612300D02*
D03*
X637700D02*
D03*
X663100D02*
D03*
D30*
X688500D02*
D03*
D36*
X437000Y44200D02*
D03*
X475100D02*
D03*
X462400D02*
D03*
X449700D02*
D03*
X424300D02*
D03*
X475100Y31500D02*
D03*
X462400D02*
D03*
X449700D02*
D03*
X437000D02*
D03*
D38*
X424300D02*
D03*
D40*
X463521Y655500D02*
D03*
X428521D02*
D03*
X374043D02*
D03*
X339043D02*
D03*
X284564D02*
D03*
X249564D02*
D03*
X553000D02*
D03*
X518000D02*
D03*
D41*
X750000Y242583D02*
D03*
Y199267D02*
D03*
Y285900D02*
D03*
Y329216D02*
D03*
Y372533D02*
D03*
Y415850D02*
D03*
Y459166D02*
D03*
Y502483D02*
D03*
Y589116D02*
D03*
Y632433D02*
D03*
Y69317D02*
D03*
Y112633D02*
D03*
Y26000D02*
D03*
Y155950D02*
D03*
Y675750D02*
D03*
Y545800D02*
D03*
D42*
X610800Y185750D02*
D03*
X609300Y130750D02*
D03*
X627300Y671000D02*
D03*
X610300Y237500D02*
D03*
X648850Y303010D02*
D03*
X623450D02*
D03*
X29000Y242000D02*
D03*
Y216600D02*
D03*
X342000Y46400D02*
D03*
Y21000D02*
D03*
X502950Y92000D02*
D03*
X477550D02*
D03*
X426750D02*
D03*
X452150D02*
D03*
D43*
X636200Y185750D02*
D03*
X634700Y130750D02*
D03*
X652700Y671000D02*
D03*
X635700Y237500D02*
D03*
X598050Y303010D02*
D03*
X401350Y92000D02*
D03*
D44*
X636150Y398250D02*
D03*
X610750D02*
D03*
X636150Y449050D02*
D03*
X610750D02*
D03*
X636150Y525250D02*
D03*
X610750D02*
D03*
X636150Y550650D02*
D03*
X610750D02*
D03*
X636150Y601450D02*
D03*
X610750Y576050D02*
D03*
X636150D02*
D03*
X610750Y499850D02*
D03*
X636150D02*
D03*
X610750Y474450D02*
D03*
X636150D02*
D03*
X610750Y423650D02*
D03*
X636150D02*
D03*
X610750Y372850D02*
D03*
Y347450D02*
D03*
X636150Y372850D02*
D03*
Y347450D02*
D03*
D45*
X610750Y601450D02*
D03*
D46*
X29000Y267400D02*
D03*
X342000Y71800D02*
D03*
D47*
X960000Y40000D02*
D03*
Y660000D02*
D03*
X40000D02*
D03*
Y40000D02*
D03*
D48*
X731000Y478000D02*
D03*
X456000Y65000D02*
D03*
X341000Y109000D02*
D03*
X323000Y164000D02*
D03*
X322000Y211000D02*
D03*
X320000Y451000D02*
D03*
X332000Y409000D02*
D03*
X317000Y321000D02*
D03*
X705000Y669000D02*
D03*
X823000Y74000D02*
D03*
X979000Y104000D02*
D03*
X823000Y28000D02*
D03*
X720000Y112000D02*
D03*
X721000Y159000D02*
D03*
X707028Y297685D02*
D03*
X704000Y365000D02*
D03*
Y420000D02*
D03*
Y447000D02*
D03*
X706000Y501000D02*
D03*
X705000Y589000D02*
D03*
X706000Y547000D02*
D03*
X408000Y267000D02*
D03*
Y357000D02*
D03*
Y406000D02*
D03*
X392000Y500000D02*
D03*
X391000Y547000D02*
D03*
X206000Y578000D02*
D03*
X39000Y536000D02*
D03*
X514500Y577750D02*
D03*
X462750Y570250D02*
D03*
X537250Y485500D02*
D03*
X522000Y532250D02*
D03*
X524000Y39000D02*
D03*
X786750Y620500D02*
D03*
X799500Y330750D02*
D03*
X545500Y411750D02*
D03*
X866750Y43500D02*
D03*
X522500Y400250D02*
D03*
X514750Y423750D02*
D03*
X507500Y448250D02*
D03*
X500250Y474000D02*
D03*
X492000Y500000D02*
D03*
X484750Y525250D02*
D03*
X479000Y550500D02*
D03*
X485623Y297837D02*
D03*
X463750Y441250D02*
D03*
X358750Y408500D02*
D03*
X578250Y206750D02*
D03*
X576000Y218500D02*
D03*
X805750Y214750D02*
D03*
X793750Y224250D02*
D03*
X836750Y349000D02*
D03*
X837250Y399000D02*
D03*
X793250Y489750D02*
D03*
X805750Y523500D02*
D03*
X799500Y534000D02*
D03*
X811500Y567000D02*
D03*
X818500Y577250D02*
D03*
X824250Y607500D02*
D03*
X805500Y374750D02*
D03*
X896250Y126000D02*
D03*
X844882Y185882D02*
D03*
X851750Y664750D02*
D03*
X844500Y633000D02*
D03*
X837000Y592500D02*
D03*
X830000Y551500D02*
D03*
X830750Y389000D02*
D03*
X824000Y503952D02*
D03*
X818250Y459500D02*
D03*
X811750Y417250D02*
D03*
X793750Y287500D02*
D03*
X786750Y245000D02*
D03*
X577750Y55750D02*
D03*
X593000Y70000D02*
D03*
X917000Y70280D02*
D03*
X545500Y246000D02*
D03*
X563000Y409000D02*
D03*
X559750Y536250D02*
D03*
X559500Y587250D02*
D03*
X297250Y569500D02*
D03*
X85500Y568250D02*
D03*
X329102Y577250D02*
D03*
Y531420D02*
D03*
Y485580D02*
D03*
X358500Y356352D02*
D03*
X358000Y311102D02*
D03*
Y267102D02*
D03*
X358500Y221102D02*
D03*
X433900Y577500D02*
D03*
Y531670D02*
D03*
Y485830D02*
D03*
X416500Y204500D02*
D03*
Y154500D02*
D03*
X31000Y370000D02*
D03*
X77000Y321750D02*
D03*
X76500Y449000D02*
D03*
X59000Y119000D02*
D03*
X60000Y142500D02*
D03*
X500000Y145000D02*
D03*
X492000Y254500D02*
D03*
X507500Y195000D02*
D03*
X544500Y279500D02*
D03*
X545000Y323750D02*
D03*
X477250Y342250D02*
D03*
X545000Y362500D02*
D03*
X469750Y389750D02*
D03*
X663100Y44400D02*
D03*
X545000Y347500D02*
D03*
X537500Y372850D02*
D03*
X470000Y601450D02*
D03*
X76500Y68000D02*
D03*
X195054Y532553D02*
D03*
M02*
