M48
;Layer_Color=9474304
;FILE_FORMAT=4:4
METRIC,LZ
;TYPE=PLATED
T1F00S00C0.3500
T2F00S00C0.7400
T3F00S00C0.7900
T4F00S00C1.1000
T5F00S00C1.2000
T6F00S00C1.6000
T7F00S00C3.2000
%
T01
X000765Y00068
X00059Y00119
X0006Y001425
X00341Y00109
X00456Y00065
X00524Y00039
X0057775Y0005575
X00593Y0007
X006631Y000444
X0072Y00112
X00823Y00074
Y00028
X0086675Y000435
X00917Y0007028
X0089625Y00126
X00979Y00104
X00844882Y00185882
X0080575Y0021475
X0079375Y0022425
X0078675Y00245
X0079375Y002875
X007995Y0033075
X008055Y0037475
X0083075Y00389
X0083725Y00399
X0081175Y0041725
X0081825Y004595
X00824Y00503952
X0080575Y005235
X007995Y00534
X0079325Y0048975
X00731Y00478
X00706Y00501
X00704Y00447
Y0042
Y00365
X00707028Y00297685
X00721Y00159
X0057825Y0020675
X00576Y002185
X005455Y00246
X005445Y002795
X00545Y0032375
Y003475
Y003625
X005455Y0041175
X00563Y00409
X0055975Y0053625
X0083675Y00349
X005375Y0037285
X005225Y0040025
X0051475Y0042375
X005075Y0044825
X0050025Y00474
X00492Y005
X0048475Y0052525
X00522Y0053225
X0053725Y004855
X004339Y0048583
Y0053167
X00392Y005
X00329102Y0048558
X0032Y00451
X00332Y00409
X0035875Y004085
X00408Y00406
Y00357
X003585Y00356352
X00358Y00311102
Y00267102
X003585Y00221102
X00322Y00211
X00323Y00164
X004165Y001545
Y002045
X00408Y00267
X00492Y002545
X00485623Y00297837
X0047725Y0034225
X0046975Y0038975
X0046375Y0044125
X00329102Y0053142
X00195054Y00532553
X00317Y00321
X005075Y00195
X005Y00145
X00077Y0032175
X00031Y0037
X000765Y00449
X00039Y00536
X000855Y0056825
X00206Y00578
X0029725Y005695
X00329102Y0057725
X00391Y00547
X004339Y005775
X0046275Y0057025
X00479Y005505
X0047Y0060145
X005145Y0057775
X005595Y0058725
X00705Y00589
X00706Y00547
X00705Y00669
X0078675Y006205
X0082425Y006075
X00837Y005925
X008185Y0057725
X008115Y00567
X0083Y005515
X008445Y00633
X0085175Y0066475
T02
X004243Y000315
Y000442
X00437
X004497
X004624
X004751
Y000315
X004624
X004497
X00437
T03
X005615Y000169
X005869
X006123
X006377
X006631
X006885
Y000931
X006631
X006377
X006123
X005869
X005615
T04
X00342Y00021
Y000464
Y000718
X0040135Y00092
X0042675
X0045215
X0047755
X0050295
X006093Y0013075
X006347
X006362Y0018575
X006108
X006103Y002375
X006357
X0062345Y0030301
X0064885
X0059805
X0061075Y0034745
Y0037285
Y0039825
X0063615
Y0042365
Y0044905
X0061075
Y0047445
Y0049985
Y0052525
X0063615
Y0049985
Y0047445
X0061075Y0042365
X0063615Y0037285
Y0034745
X00029Y002674
Y00242
Y002166
X0061075Y0055065
X0063615
Y0057605
Y0060145
X0061075
Y0057605
X006273Y00671
X006527
T05
X00249564Y006555
X00284564
X00339043
X00374043
X00428521
X00463521
X00518
X00553
T06
X0075Y00026
Y00069317
Y00112633
Y0015595
Y00199267
Y00242583
Y002859
Y00329216
Y00372533
Y0041585
Y00459166
Y00502483
Y005458
Y00589116
Y00632433
Y0067575
T07
X0004Y0004
X0096
X0004Y0066
X0096
M30
