G04*
G04 #@! TF.GenerationSoftware,Altium Limited,Altium Designer,22.8.2 (66)*
G04*
G04 Layer_Color=39423*
%FSLAX44Y44*%
%MOMM*%
G71*
G04*
G04 #@! TF.SameCoordinates,B9E833A3-F73B-4BC2-8D6A-DBD716EA0739*
G04*
G04*
G04 #@! TF.FilePolarity,Negative*
G04*
G01*
G75*
%ADD28O,1.8032X2.2032*%
%ADD29C,1.2900*%
%ADD30R,1.2900X1.2900*%
%ADD31C,2.3032*%
%ADD32C,1.8032*%
%ADD33R,1.8032X1.8032*%
%ADD34C,1.8532*%
%ADD35R,1.8532X1.8532*%
%ADD36C,1.1200*%
%ADD37R,1.8032X1.8032*%
%ADD38R,1.1200X1.1200*%
%ADD39C,6.2032*%
D28*
X463521Y655500D02*
D03*
X428521D02*
D03*
X374043D02*
D03*
X339043D02*
D03*
X284564D02*
D03*
X249564D02*
D03*
X553000D02*
D03*
X518000D02*
D03*
D29*
X688500Y16900D02*
D03*
X663100D02*
D03*
X637700D02*
D03*
X612300D02*
D03*
X586900D02*
D03*
X561500D02*
D03*
Y93100D02*
D03*
X586900D02*
D03*
X612300D02*
D03*
X637700D02*
D03*
X663100D02*
D03*
D30*
X688500D02*
D03*
D31*
X750000Y242583D02*
D03*
Y199267D02*
D03*
Y285900D02*
D03*
Y329216D02*
D03*
Y372533D02*
D03*
Y415850D02*
D03*
Y459166D02*
D03*
Y502483D02*
D03*
Y589116D02*
D03*
Y632433D02*
D03*
Y69317D02*
D03*
Y112633D02*
D03*
Y26000D02*
D03*
Y155950D02*
D03*
Y675750D02*
D03*
Y545800D02*
D03*
D32*
X610800Y185750D02*
D03*
X609300Y130750D02*
D03*
X627300Y671000D02*
D03*
X610300Y237500D02*
D03*
X648850Y303010D02*
D03*
X623450D02*
D03*
X29000Y242000D02*
D03*
Y216600D02*
D03*
X342000Y46400D02*
D03*
Y21000D02*
D03*
X502950Y92000D02*
D03*
X477550D02*
D03*
X426750D02*
D03*
X452150D02*
D03*
D33*
X636200Y185750D02*
D03*
X634700Y130750D02*
D03*
X652700Y671000D02*
D03*
X635700Y237500D02*
D03*
X598050Y303010D02*
D03*
X401350Y92000D02*
D03*
D34*
X636150Y398250D02*
D03*
X610750D02*
D03*
X636150Y449050D02*
D03*
X610750D02*
D03*
X636150Y525250D02*
D03*
X610750D02*
D03*
X636150Y550650D02*
D03*
X610750D02*
D03*
X636150Y601450D02*
D03*
X610750Y576050D02*
D03*
X636150D02*
D03*
X610750Y499850D02*
D03*
X636150D02*
D03*
X610750Y474450D02*
D03*
X636150D02*
D03*
X610750Y423650D02*
D03*
X636150D02*
D03*
X610750Y372850D02*
D03*
Y347450D02*
D03*
X636150Y372850D02*
D03*
Y347450D02*
D03*
D35*
X610750Y601450D02*
D03*
D36*
X437000Y44200D02*
D03*
X475100D02*
D03*
X462400D02*
D03*
X449700D02*
D03*
X424300D02*
D03*
X475100Y31500D02*
D03*
X462400D02*
D03*
X449700D02*
D03*
X437000D02*
D03*
D37*
X29000Y267400D02*
D03*
X342000Y71800D02*
D03*
D38*
X424300Y31500D02*
D03*
D39*
X960000Y40000D02*
D03*
Y660000D02*
D03*
X40000D02*
D03*
Y40000D02*
D03*
M02*
