M48
; DRILL file KiCad 10.0.5 date 2026-08-20T18:33:43
; FORMAT={-:-/ absolute / metric / decimal}
; #@! TF.CreationDate,2026-08-20T18:33:43+02:00
; #@! TF.GenerationSoftware,Kicad,Pcbnew,10.0.5
; #@! TF.FileFunction,Plated,1,2,PTH
FMAT,2
METRIC
; #@! TA.AperFunction,Plated,PTH,ViaDrill
T1C0.250
; #@! TA.AperFunction,Plated,PTH,ComponentDrill
T2C0.650
; #@! TA.AperFunction,Plated,PTH,ComponentDrill
T3C1.000
%
G90
G05
T1
X132.6Y-93.75
X136.05Y-94.95
X136.05Y-95.85
X137.9Y-93.575
X138.87Y-93.346
X139.658Y-94.065
X140.032Y-92.247
X140.376Y-91.663
X140.7Y-97.48
X140.778Y-90.723
X140.91Y-94.1
X140.954Y-93.197
X141.9Y-96.0
X141.978Y-91.29
X143.85Y-90.9
X145.484Y-90.284
X145.95Y-92.25
X147.6Y-96.15
X149.1Y-90.75
X149.55Y-93.6
X150.3Y-90.6
X150.6Y-91.8
X150.6Y-95.25
X150.75Y-93.6
X150.75Y-94.25
X151.2Y-96.9
X154.544Y-86.52
X155.04Y-88.529
X155.16Y-87.29
X155.57Y-84.86
X157.22Y-83.7
X157.35Y-95.7
X157.514Y-91.9
X157.66Y-88.39
X157.8Y-93.3
X157.95Y-90.15
X157.95Y-91.35
X157.98Y-95.68
X159.45Y-90.15
X159.45Y-94.8
X161.25Y-95.14
X161.26Y-97.05
X161.36Y-88.46
X162.25Y-92.036
X164.153Y-96.33
X165.81Y-92.36
X165.85Y-93.85
T2
X156.92Y-84.875
X156.92Y-86.145
X158.19Y-84.875
X158.19Y-86.145
X159.46Y-84.875
X159.46Y-86.145
X160.73Y-84.875
X160.73Y-86.145
X162.0Y-84.875
X162.0Y-86.145
T3
X144.26Y-85.65
X146.8Y-85.65
X149.34Y-85.65
X151.88Y-85.65
M30
