%TF.GenerationSoftware,KiCad,Pcbnew,10.0.5*%
%TF.CreationDate,2026-08-20T18:33:20+02:00*%
%TF.ProjectId,densor_nfc_v2,64656e73-6f72-45f6-9e66-635f76322e6b,rev?*%
%TF.SameCoordinates,Original*%
%TF.FileFunction,Copper,L1,Top*%
%TF.FilePolarity,Positive*%
%FSLAX46Y46*%
G04 Gerber Fmt 4.6, Leading zero omitted, Abs format (unit mm)*
G04 Created by KiCad (PCBNEW 10.0.5) date 2026-08-20 18:33:20*
%MOMM*%
%LPD*%
G01*
G04 APERTURE LIST*
G04 Aperture macros list*
%AMRoundRect*
0 Rectangle with rounded corners*
0 $1 Rounding radius*
0 $2 $3 $4 $5 $6 $7 $8 $9 X,Y pos of 4 corners*
0 Add a 4 corners polygon primitive as box body*
4,1,4,$2,$3,$4,$5,$6,$7,$8,$9,$2,$3,0*
0 Add four circle primitives for the rounded corners*
1,1,$1+$1,$2,$3*
1,1,$1+$1,$4,$5*
1,1,$1+$1,$6,$7*
1,1,$1+$1,$8,$9*
0 Add four rect primitives between the rounded corners*
20,1,$1+$1,$2,$3,$4,$5,0*
20,1,$1+$1,$4,$5,$6,$7,0*
20,1,$1+$1,$6,$7,$8,$9,0*
20,1,$1+$1,$8,$9,$2,$3,0*%
%AMFreePoly0*
4,1,6,0.325000,0.000000,0.325000,-0.150000,-0.175000,-0.150000,-0.175000,0.150000,0.175000,0.150000,0.325000,0.000000,0.325000,0.000000,$1*%
%AMFreePoly1*
4,1,6,0.325000,0.000000,0.175000,-0.150000,-0.175000,-0.150000,-0.175000,0.150000,0.325000,0.150000,0.325000,0.000000,0.325000,0.000000,$1*%
%AMFreePoly2*
4,1,6,0.150000,-0.175000,-0.150000,-0.175000,-0.150000,0.175000,0.000000,0.325000,0.150000,0.325000,0.150000,-0.175000,0.150000,-0.175000,$1*%
%AMFreePoly3*
4,1,6,0.150000,0.175000,0.150000,-0.175000,-0.150000,-0.175000,-0.150000,0.325000,0.000000,0.325000,0.150000,0.175000,0.150000,0.175000,$1*%
%AMFreePoly4*
4,1,6,0.175000,-0.150000,-0.175000,-0.150000,-0.325000,0.000000,-0.325000,0.150000,0.175000,0.150000,0.175000,-0.150000,0.175000,-0.150000,$1*%
%AMFreePoly5*
4,1,7,0.175000,-0.150000,-0.175000,-0.150000,-0.325000,-0.150000,-0.325000,0.000000,-0.175000,0.150000,0.175000,0.150000,0.175000,-0.150000,0.175000,-0.150000,$1*%
%AMFreePoly6*
4,1,6,0.150000,-0.175000,0.000000,-0.325000,-0.150000,-0.325000,-0.150000,0.175000,0.150000,0.175000,0.150000,-0.175000,0.150000,-0.175000,$1*%
%AMFreePoly7*
4,1,6,0.150000,-0.325000,0.000000,-0.325000,-0.150000,-0.175000,-0.150000,0.175000,0.150000,0.175000,0.150000,-0.325000,0.150000,-0.325000,$1*%
G04 Aperture macros list end*
%TA.AperFunction,SMDPad,CuDef*%
%ADD10R,0.250000X0.275000*%
%TD*%
%TA.AperFunction,SMDPad,CuDef*%
%ADD11R,0.275000X0.250000*%
%TD*%
%TA.AperFunction,SMDPad,CuDef*%
%ADD12FreePoly0,0.000000*%
%TD*%
%TA.AperFunction,SMDPad,CuDef*%
%ADD13R,0.700000X0.300000*%
%TD*%
%TA.AperFunction,SMDPad,CuDef*%
%ADD14FreePoly1,0.000000*%
%TD*%
%TA.AperFunction,SMDPad,CuDef*%
%ADD15FreePoly2,0.000000*%
%TD*%
%TA.AperFunction,SMDPad,CuDef*%
%ADD16R,0.300000X0.700000*%
%TD*%
%TA.AperFunction,SMDPad,CuDef*%
%ADD17FreePoly3,0.000000*%
%TD*%
%TA.AperFunction,SMDPad,CuDef*%
%ADD18FreePoly4,0.000000*%
%TD*%
%TA.AperFunction,SMDPad,CuDef*%
%ADD19FreePoly5,0.000000*%
%TD*%
%TA.AperFunction,SMDPad,CuDef*%
%ADD20FreePoly6,0.000000*%
%TD*%
%TA.AperFunction,SMDPad,CuDef*%
%ADD21FreePoly7,0.000000*%
%TD*%
%TA.AperFunction,SMDPad,CuDef*%
%ADD22RoundRect,0.225000X-0.225000X-0.250000X0.225000X-0.250000X0.225000X0.250000X-0.225000X0.250000X0*%
%TD*%
%TA.AperFunction,SMDPad,CuDef*%
%ADD23RoundRect,0.225000X-0.250000X0.225000X-0.250000X-0.225000X0.250000X-0.225000X0.250000X0.225000X0*%
%TD*%
%TA.AperFunction,ComponentPad*%
%ADD24R,1.000000X1.000000*%
%TD*%
%TA.AperFunction,ComponentPad*%
%ADD25O,1.000000X1.000000*%
%TD*%
%TA.AperFunction,SMDPad,CuDef*%
%ADD26RoundRect,0.093750X0.106250X-0.093750X0.106250X0.093750X-0.106250X0.093750X-0.106250X-0.093750X0*%
%TD*%
%TA.AperFunction,HeatsinkPad*%
%ADD27R,1.600000X1.000000*%
%TD*%
%TA.AperFunction,SMDPad,CuDef*%
%ADD28RoundRect,0.200000X0.275000X-0.200000X0.275000X0.200000X-0.275000X0.200000X-0.275000X-0.200000X0*%
%TD*%
%TA.AperFunction,SMDPad,CuDef*%
%ADD29R,1.400000X1.400000*%
%TD*%
%TA.AperFunction,SMDPad,CuDef*%
%ADD30RoundRect,0.225000X0.225000X0.250000X-0.225000X0.250000X-0.225000X-0.250000X0.225000X-0.250000X0*%
%TD*%
%TA.AperFunction,SMDPad,CuDef*%
%ADD31RoundRect,0.200000X-0.200000X-0.275000X0.200000X-0.275000X0.200000X0.275000X-0.200000X0.275000X0*%
%TD*%
%TA.AperFunction,SMDPad,CuDef*%
%ADD32RoundRect,0.112500X0.112500X-0.187500X0.112500X0.187500X-0.112500X0.187500X-0.112500X-0.187500X0*%
%TD*%
%TA.AperFunction,SMDPad,CuDef*%
%ADD33R,1.000000X1.450000*%
%TD*%
%TA.AperFunction,SMDPad,CuDef*%
%ADD34R,0.200000X0.750000*%
%TD*%
%TA.AperFunction,SMDPad,CuDef*%
%ADD35R,0.200000X0.650000*%
%TD*%
%TA.AperFunction,SMDPad,CuDef*%
%ADD36R,0.650000X0.200000*%
%TD*%
%TA.AperFunction,SMDPad,CuDef*%
%ADD37RoundRect,0.062500X-0.062500X0.350000X-0.062500X-0.350000X0.062500X-0.350000X0.062500X0.350000X0*%
%TD*%
%TA.AperFunction,SMDPad,CuDef*%
%ADD38RoundRect,0.062500X-0.350000X0.062500X-0.350000X-0.062500X0.350000X-0.062500X0.350000X0.062500X0*%
%TD*%
%TA.AperFunction,SMDPad,CuDef*%
%ADD39R,1.700000X1.700000*%
%TD*%
%TA.AperFunction,SMDPad,CuDef*%
%ADD40R,0.350000X2.000000*%
%TD*%
%TA.AperFunction,SMDPad,CuDef*%
%ADD41R,1.000000X0.500000*%
%TD*%
%TA.AperFunction,SMDPad,CuDef*%
%ADD42RoundRect,0.125000X-0.125000X0.125000X-0.125000X-0.125000X0.125000X-0.125000X0.125000X0.125000X0*%
%TD*%
%TA.AperFunction,ComponentPad*%
%ADD43R,1.700000X1.700000*%
%TD*%
%TA.AperFunction,ComponentPad*%
%ADD44O,1.700000X1.700000*%
%TD*%
%TA.AperFunction,SMDPad,CuDef*%
%ADD45R,0.420000X0.350000*%
%TD*%
%TA.AperFunction,SMDPad,CuDef*%
%ADD46R,1.400000X2.550000*%
%TD*%
%TA.AperFunction,ViaPad*%
%ADD47C,0.500000*%
%TD*%
%TA.AperFunction,Conductor*%
%ADD48C,0.150000*%
%TD*%
%TA.AperFunction,Conductor*%
%ADD49C,0.200000*%
%TD*%
%TA.AperFunction,Conductor*%
%ADD50C,0.300000*%
%TD*%
%TA.AperFunction,Conductor*%
%ADD51C,0.400000*%
%TD*%
G04 APERTURE END LIST*
D10*
%TO.P,U5,12,INT1_12*%
%TO.N,unconnected-(U5-INT1-Pad12)*%
X160087500Y-97062500D03*
%TO.P,U5,11,INT2_11*%
%TO.N,unconnected-(U5-INT2-Pad11)*%
X159587500Y-97062500D03*
D11*
%TO.P,U5,10,VDD_IO_10*%
%TO.N,/V_MCU*%
X159075000Y-97050000D03*
%TO.P,U5,9,VDD_9*%
X159075000Y-96550000D03*
%TO.P,U5,8,GND_8*%
%TO.N,/PSW*%
X159075000Y-96050000D03*
%TO.P,U5,7,RES_7*%
X159075000Y-95550000D03*
D10*
%TO.P,U5,6,GND_6*%
X159587500Y-95537500D03*
%TO.P,U5,5,NC_5*%
X160087500Y-95537500D03*
D11*
%TO.P,U5,4,SDA_4*%
%TO.N,/i2c_sda*%
X160600000Y-95550000D03*
%TO.P,U5,3,SA0_3*%
%TO.N,unconnected-(U5-SA0-Pad3)*%
X160600000Y-96050000D03*
%TO.P,U5,2,CS_2*%
%TO.N,/V_MCU*%
X160600000Y-96550000D03*
%TO.P,U5,1,SCL_1*%
%TO.N,/i2c_scl*%
X160600000Y-97050000D03*
%TD*%
D12*
%TO.P,U4,1,PC14_1*%
%TO.N,/NFC_SWITCH*%
X158725000Y-91610000D03*
D13*
%TO.P,U4,2,PC15_2*%
%TO.N,unconnected-(U4-PC15-Pad2)*%
X158900000Y-92110000D03*
%TO.P,U4,3,NRST_3*%
%TO.N,/nRST_MCU*%
X158900000Y-92610000D03*
%TO.P,U4,4,VDDA_4*%
%TO.N,/V_MCU*%
X158900000Y-93110000D03*
D14*
%TO.P,U4,5,PA0_5*%
%TO.N,/pd*%
X158725000Y-93610000D03*
D15*
%TO.P,U4,6,PA1_6*%
%TO.N,unconnected-(U4-PA1-Pad6)*%
X159200000Y-94085000D03*
D16*
%TO.P,U4,7,PA4_7*%
%TO.N,/i2c_scl*%
X159700000Y-93910000D03*
%TO.P,U4,8,PA5_8*%
%TO.N,unconnected-(U4-PA5-Pad8)*%
X160200000Y-93910000D03*
%TO.P,U4,9,PA6_9*%
%TO.N,unconnected-(U4-PA6-Pad9)*%
X160700000Y-93910000D03*
D17*
%TO.P,U4,10,PA7_10*%
%TO.N,unconnected-(U4-PA7-Pad10)*%
X161200000Y-94085000D03*
D18*
%TO.P,U4,11,PB1_11*%
%TO.N,unconnected-(U4-PB1-Pad11)*%
X161675000Y-93610000D03*
D13*
%TO.P,U4,12,VSS_12*%
%TO.N,/PSW*%
X161500000Y-93110000D03*
%TO.P,U4,13,VDD_13*%
%TO.N,/V_MCU*%
X161500000Y-92610000D03*
%TO.P,U4,14,PA9_14*%
%TO.N,unconnected-(U4-PA9-Pad14)*%
X161500000Y-92110000D03*
D19*
%TO.P,U4,15,PA10_15*%
%TO.N,/i2c_sda*%
X161675000Y-91610000D03*
D20*
%TO.P,U4,16,PA13_16*%
%TO.N,/swdio*%
X161200000Y-91135000D03*
D16*
%TO.P,U4,17,PA14_17*%
%TO.N,/swclk*%
X160700000Y-91310000D03*
%TO.P,U4,18,PB6_18*%
%TO.N,unconnected-(U4-PB6-Pad18)*%
X160200000Y-91310000D03*
%TO.P,U4,19,PB7_19*%
%TO.N,unconnected-(U4-PB7-Pad19)*%
X159700000Y-91310000D03*
D21*
%TO.P,U4,20,PB9_20*%
%TO.N,/PSW*%
X159200000Y-91135000D03*
%TD*%
D22*
%TO.P,C4,1*%
%TO.N,/V_MCU*%
X156275000Y-96900000D03*
%TO.P,C4,2*%
%TO.N,GND*%
X157825000Y-96900000D03*
%TD*%
D23*
%TO.P,C14,1*%
%TO.N,GND*%
X165150000Y-96940000D03*
%TO.P,C14,2*%
%TO.N,/V_MCU*%
X165150000Y-95390000D03*
%TD*%
D24*
%TO.P,J1,1,VTref_1*%
%TO.N,/V_MCU*%
X162000000Y-84875000D03*
D25*
%TO.P,J1,2,SWDIO/TMS_2*%
%TO.N,/swdio*%
X162000000Y-86145000D03*
%TO.P,J1,3,GND_3*%
%TO.N,GND*%
X160730000Y-84875000D03*
%TO.P,J1,4,SWDCLK/TCK_4*%
%TO.N,/swclk*%
X160730000Y-86145000D03*
%TO.P,J1,5,GND_5*%
%TO.N,GND*%
X159460000Y-84875000D03*
%TO.P,J1,6,SWO/TDO_6*%
%TO.N,unconnected-(J1-SWO{slash}TDO-Pad6)*%
X159460000Y-86145000D03*
%TO.P,J1,7,KEY_7*%
%TO.N,unconnected-(J1-KEY-Pad7)*%
X158190000Y-84875000D03*
%TO.P,J1,8,NC/TDI_8*%
%TO.N,unconnected-(J1-NC{slash}TDI-Pad8)*%
X158190000Y-86145000D03*
%TO.P,J1,9,GNDDetect_9*%
%TO.N,unconnected-(J1-GNDDetect-Pad9)*%
X156920000Y-84875000D03*
%TO.P,J1,10,~{RESET}_10*%
%TO.N,/nRST_MCU*%
X156920000Y-86145000D03*
%TD*%
D26*
%TO.P,U3,1,SCL_1*%
%TO.N,/i2c_scl*%
X162010000Y-96910000D03*
%TO.P,U3,2,GND_2*%
%TO.N,GND*%
X162660000Y-96910000D03*
%TO.P,U3,3,ALERT_3*%
%TO.N,unconnected-(U3-ALERT-Pad3)*%
X163310000Y-96910000D03*
%TO.P,U3,4,ADD0_4*%
%TO.N,GND*%
X163310000Y-95135000D03*
%TO.P,U3,5,V+_5*%
%TO.N,/V_MCU*%
X162660000Y-95135000D03*
%TO.P,U3,6,SDA_6*%
%TO.N,/i2c_sda*%
X162010000Y-95135000D03*
D27*
%TO.P,U3,7*%
%TO.N,N/C*%
X162660000Y-96022500D03*
%TD*%
D28*
%TO.P,R3,1*%
%TO.N,/V_MCU*%
X146550000Y-93075000D03*
%TO.P,R3,2*%
%TO.N,/i2c_sda*%
X146550000Y-91425000D03*
%TD*%
D29*
%TO.P,C1,1*%
%TO.N,/V_MCU*%
X146400000Y-94750000D03*
%TO.P,C1,2*%
%TO.N,GND*%
X146400000Y-96950000D03*
%TD*%
D30*
%TO.P,C12,1*%
%TO.N,GND*%
X164820000Y-93860000D03*
%TO.P,C12,2*%
%TO.N,/V_MCU*%
X163270000Y-93860000D03*
%TD*%
D31*
%TO.P,R7,1*%
%TO.N,/pd*%
X155175000Y-90900000D03*
%TO.P,R7,2*%
%TO.N,/PSW*%
X156825000Y-90900000D03*
%TD*%
D28*
%TO.P,R4,1*%
%TO.N,/V_MCU*%
X148050000Y-93075000D03*
%TO.P,R4,2*%
%TO.N,/nRST_MCU*%
X148050000Y-91425000D03*
%TD*%
D30*
%TO.P,C7,1*%
%TO.N,GND*%
X164820000Y-92360000D03*
%TO.P,C7,2*%
%TO.N,/V_MCU*%
X163270000Y-92360000D03*
%TD*%
%TO.P,C13,1*%
%TO.N,GND*%
X143275000Y-93750000D03*
%TO.P,C13,2*%
%TO.N,/V_NFC_switched*%
X141725000Y-93750000D03*
%TD*%
D32*
%TO.P,D2,1,K_1*%
%TO.N,/V_MCU*%
X143850000Y-97200000D03*
%TO.P,D2,2,A_2*%
%TO.N,/V_EH*%
X143850000Y-95100000D03*
%TD*%
D22*
%TO.P,C6,1*%
%TO.N,/V_MCU*%
X141725000Y-92250000D03*
%TO.P,C6,2*%
%TO.N,GND*%
X143275000Y-92250000D03*
%TD*%
D33*
%TO.P,D3,1,K_1*%
%TO.N,/V_MCU*%
X152050000Y-91200000D03*
%TO.P,D3,2,A_2*%
%TO.N,/pd*%
X153650000Y-91200000D03*
%TD*%
D29*
%TO.P,C2,1*%
%TO.N,/V_MCU*%
X148950000Y-94750000D03*
%TO.P,C2,2*%
%TO.N,GND*%
X148950000Y-96950000D03*
%TD*%
D28*
%TO.P,R2,1*%
%TO.N,/V_MCU*%
X145050000Y-93075000D03*
%TO.P,R2,2*%
%TO.N,/i2c_scl*%
X145050000Y-91425000D03*
%TD*%
D34*
%TO.P,U6,1,NC2_1*%
%TO.N,/i2c_sda_switched*%
X138749999Y-91225800D03*
D35*
%TO.P,U6,2,GND_2*%
%TO.N,GND*%
X138350000Y-91175000D03*
%TO.P,U6,3,NO3_3*%
%TO.N,unconnected-(U6-NO3-Pad3)*%
X137950000Y-91175000D03*
%TO.P,U6,4,COM3_4*%
%TO.N,/V_MCU*%
X137550001Y-91175000D03*
D36*
%TO.P,U6,5,NC3_5*%
%TO.N,/V_NFC_switched*%
X136975001Y-91350001D03*
%TO.P,U6,6,IN3-4_6*%
%TO.N,/NFC_SWITCH*%
X136975001Y-91750000D03*
%TO.P,U6,7,NO4_7*%
%TO.N,unconnected-(U6-NO4-Pad7)*%
X136975001Y-92150000D03*
%TO.P,U6,8,COM4_8*%
%TO.N,unconnected-(U6-COM4-Pad8)*%
X136975001Y-92549999D03*
D35*
%TO.P,U6,9,NC4_9*%
%TO.N,unconnected-(U6-NC4-Pad9)*%
X137550001Y-92725000D03*
%TO.P,U6,10,VCC_10*%
%TO.N,/V_MCU*%
X137950000Y-92725000D03*
%TO.P,U6,11,NO1_11*%
%TO.N,unconnected-(U6-NO1-Pad11)*%
X138350000Y-92725000D03*
%TO.P,U6,12,COM1_12*%
%TO.N,/i2c_scl*%
X138749999Y-92725000D03*
D36*
%TO.P,U6,13,NC1_13*%
%TO.N,/i2c_scl_switched*%
X139324999Y-92549999D03*
%TO.P,U6,14,IN1-2_14*%
%TO.N,/NFC_SWITCH*%
X139324999Y-92150000D03*
%TO.P,U6,15,NO2_15*%
%TO.N,unconnected-(U6-NO2-Pad15)*%
X139324999Y-91750000D03*
%TO.P,U6,16,COM2_16*%
%TO.N,/i2c_sda*%
X139324999Y-91350001D03*
%TD*%
D37*
%TO.P,U2,1,nRST_1*%
%TO.N,unconnected-(U2-nRST-Pad1)*%
X154050000Y-94050000D03*
%TO.P,U2,2,WDI_2*%
%TO.N,GND*%
X153550000Y-94050000D03*
%TO.P,U2,3,nEXTR_3*%
X153050000Y-94050000D03*
%TO.P,U2,4,PSW/nIRQ2_4*%
%TO.N,/PSW*%
X152550000Y-94050000D03*
D38*
%TO.P,U2,5,VBAT_5*%
%TO.N,GND*%
X151837500Y-94762500D03*
%TO.P,U2,6,SDA_6*%
%TO.N,/i2c_sda*%
X151837500Y-95262500D03*
%TO.P,U2,7,SCL_7*%
%TO.N,/i2c_scl*%
X151837500Y-95762500D03*
%TO.P,U2,8,CLKOUT/nIRQ3_8*%
%TO.N,unconnected-(U2-CLKOUT{slash}nIRQ3-Pad8)*%
X151837500Y-96262500D03*
D37*
%TO.P,U2,9,VSS_9*%
%TO.N,GND*%
X152550000Y-96975000D03*
%TO.P,U2,10,EXTI_10*%
X153050000Y-96975000D03*
%TO.P,U2,11,FOUT/nIRQ_11*%
%TO.N,unconnected-(U2-FOUT{slash}nIRQ-Pad11)*%
X153550000Y-96975000D03*
%TO.P,U2,12,nTIRQ_12*%
%TO.N,unconnected-(U2-nTIRQ-Pad12)*%
X154050000Y-96975000D03*
D38*
%TO.P,U2,13,VCC_13*%
%TO.N,/V_MCU*%
X154762500Y-96262500D03*
%TO.P,U2,14,AF_14*%
%TO.N,unconnected-(U2-AF-Pad14)*%
X154762500Y-95762500D03*
%TO.P,U2,15,XO_15*%
%TO.N,Net-(U2-XO)*%
X154762500Y-95262500D03*
%TO.P,U2,16,XI_16*%
%TO.N,Net-(U2-XI)*%
X154762500Y-94762500D03*
D39*
%TO.P,U2,17,VSS_17*%
%TO.N,GND*%
X153300000Y-95512500D03*
%TD*%
D40*
%TO.P,J2,1,Pin_1_1*%
%TO.N,/V_MCU*%
X152570000Y-80320000D03*
%TO.P,J2,2,Pin_2_2*%
%TO.N,/i2c_scl*%
X153070000Y-80320000D03*
%TO.P,J2,3,Pin_3_3*%
%TO.N,/i2c_sda*%
X153570000Y-80320000D03*
%TO.P,J2,4,Pin_4_4*%
%TO.N,/nRST_MCU*%
X154070000Y-80320000D03*
%TO.P,J2,5,Pin_5_5*%
%TO.N,/PSW*%
X154570000Y-80320000D03*
%TO.P,J2,6,Pin_6_6*%
%TO.N,/swclk*%
X155070000Y-80320000D03*
%TO.P,J2,7,Pin_7_7*%
%TO.N,/swdio*%
X155570000Y-80320000D03*
%TO.P,J2,8,Pin_8_8*%
%TO.N,GND*%
X156070000Y-80320000D03*
%TD*%
D41*
%TO.P,Y1,1,1_1*%
%TO.N,Net-(U2-XI)*%
X156300000Y-94400000D03*
%TO.P,Y1,2,2_2*%
%TO.N,Net-(U2-XO)*%
X156300000Y-95500000D03*
%TD*%
D42*
%TO.P,D1,1,K_1*%
%TO.N,/V_EH*%
X141900000Y-95050000D03*
%TO.P,D1,2,A_2*%
%TO.N,GND*%
X141900000Y-97250000D03*
%TD*%
D43*
%TO.P,J3,1,Pin_1_1*%
%TO.N,/V_MCU*%
X144260000Y-85650000D03*
D44*
%TO.P,J3,2,Pin_2_2*%
%TO.N,/i2c_scl*%
X146800000Y-85650000D03*
%TO.P,J3,3,Pin_3_3*%
%TO.N,/i2c_sda*%
X149340000Y-85650000D03*
%TO.P,J3,4,Pin_4_4*%
%TO.N,GND*%
X151880000Y-85650000D03*
%TD*%
D30*
%TO.P,C5,1*%
%TO.N,GND*%
X164820000Y-90860000D03*
%TO.P,C5,2*%
%TO.N,/V_MCU*%
X163270000Y-90860000D03*
%TD*%
D45*
%TO.P,U1,1,LPD_1*%
%TO.N,unconnected-(U1-LPD-Pad1)*%
X136902500Y-94450000D03*
%TO.P,U1,2,NC_2*%
%TO.N,unconnected-(U1-NC-Pad2)*%
X136902500Y-94950000D03*
%TO.P,U1,3,V_EH_3*%
%TO.N,/V_EH*%
X136902500Y-95450000D03*
%TO.P,U1,4,AC0_4*%
%TO.N,/AC0*%
X136902500Y-95950000D03*
%TO.P,U1,5,AC1_5*%
X136902500Y-96450000D03*
%TO.P,U1,6,VSS_6*%
%TO.N,GND*%
X136902500Y-96950000D03*
%TO.P,U1,7,SDA_7*%
%TO.N,/i2c_sda_switched*%
X139422500Y-96950000D03*
%TO.P,U1,8,SCL_8*%
%TO.N,/i2c_scl_switched*%
X139422500Y-96450000D03*
%TO.P,U1,9,NC_9*%
%TO.N,unconnected-(U1-NC-Pad9)*%
X139422500Y-95950000D03*
%TO.P,U1,10,VDCG_10*%
%TO.N,unconnected-(U1-VDCG-Pad10)*%
X139422500Y-95450000D03*
%TO.P,U1,11,GPO(CMOS)_11*%
%TO.N,unconnected-(U1-GPO(CMOS)-Pad11)*%
X139422500Y-94950000D03*
%TO.P,U1,12,VCC_12*%
%TO.N,/V_NFC_switched*%
X139422500Y-94450000D03*
D46*
%TO.P,U1,13,EXP_13*%
%TO.N,unconnected-(U1-EXP-Pad13)*%
X138162500Y-95700000D03*
%TD*%
D47*
%TO.N,/i2c_sda*%
X161250000Y-95140000D03*
%TO.N,/i2c_scl*%
X161260000Y-97050000D03*
%TO.N,/NFC_SWITCH*%
X140032079Y-92247216D03*
X141978189Y-91290411D03*
X149100000Y-90750000D03*
X145484300Y-90284300D03*
%TO.N,/V_MCU*%
X149550000Y-93600000D03*
X140954088Y-93196716D03*
X137900000Y-93575500D03*
X150600000Y-91800000D03*
%TO.N,/pd*%
X157514477Y-91900500D03*
X157800000Y-93300000D03*
%TO.N,/i2c_scl*%
X150600000Y-95250000D03*
X143850000Y-90900000D03*
X138870000Y-93345500D03*
%TO.N,/PSW*%
X154544500Y-86520000D03*
X155040000Y-88529500D03*
X150750000Y-93600000D03*
X157950000Y-91350000D03*
%TO.N,/i2c_sda*%
X150750000Y-94249503D03*
X145950000Y-92250000D03*
X140375522Y-91663432D03*
X162249764Y-92036215D03*
%TO.N,/swdio*%
X161360000Y-88460000D03*
X155569500Y-84860000D03*
%TO.N,/swclk*%
X157660000Y-88390000D03*
X155160000Y-87290000D03*
%TO.N,GND*%
X157980000Y-95680000D03*
X165810000Y-92360000D03*
X151200000Y-96900000D03*
X140777979Y-90723091D03*
X164153125Y-96330000D03*
X140700000Y-97480000D03*
X150300000Y-90600000D03*
X165850000Y-93850000D03*
X147600000Y-96150000D03*
X157220000Y-83700000D03*
X157950000Y-90150000D03*
X159450000Y-90150000D03*
X157350000Y-95700000D03*
%TO.N,/V_NFC_switched*%
X140910000Y-94100000D03*
X139658032Y-94064539D03*
%TO.N,/V_EH*%
X136050000Y-94950000D03*
X141900000Y-96000000D03*
%TO.N,/AC0*%
X136050000Y-95850000D03*
X132600000Y-93750000D03*
%TO.N,/i2c_scl*%
X159450000Y-94800000D03*
%TD*%
%TO.N,/NFC_SWITCH*%
D48*
X139324999Y-92150000D02*
X139934863Y-92150000D01*
X149975500Y-92375500D02*
X157774500Y-92375500D01*
X137525001Y-91825000D02*
X137525001Y-91975001D01*
X137525001Y-91975001D02*
X137725000Y-92175000D01*
X149100000Y-90750000D02*
X149100000Y-91500000D01*
X142068600Y-91200000D02*
X141978189Y-91290411D01*
X157774500Y-92375500D02*
X158450000Y-91700000D01*
X158450000Y-91700000D02*
X158725000Y-91700000D01*
X136975001Y-91750000D02*
X137450001Y-91750000D01*
X139299999Y-92175000D02*
X139324999Y-92150000D01*
X137450001Y-91750000D02*
X137525001Y-91825000D01*
X137725000Y-92175000D02*
X139299999Y-92175000D01*
X143421200Y-90284300D02*
X142505500Y-91200000D01*
X145484300Y-90284300D02*
X143421200Y-90284300D01*
X139934863Y-92150000D02*
X140032079Y-92247216D01*
X149100000Y-91500000D02*
X149975500Y-92375500D01*
X142505500Y-91200000D02*
X142068600Y-91200000D01*
%TO.N,/nRST_MCU*%
D49*
X149325000Y-92700000D02*
X158130000Y-92700000D01*
X148050000Y-91092893D02*
X151112893Y-88030000D01*
X148050000Y-91425000D02*
X149325000Y-92700000D01*
X148050000Y-91425000D02*
X148050000Y-91092893D01*
X158130000Y-92700000D02*
X158220000Y-92610000D01*
X153660000Y-88030000D02*
X156330000Y-88030000D01*
X151112893Y-88030000D02*
X153660000Y-88030000D01*
D48*
X154070000Y-87620000D02*
X153660000Y-88030000D01*
D49*
X158220000Y-92610000D02*
X158900000Y-92610000D01*
D48*
X154070000Y-80320000D02*
X154070000Y-87620000D01*
D49*
X156920000Y-87440000D02*
X156920000Y-86145000D01*
X156330000Y-88030000D02*
X156920000Y-87440000D01*
%TO.N,/V_MCU*%
D50*
X163335000Y-86210000D02*
X162000000Y-84875000D01*
D48*
X162660000Y-95135000D02*
X162660000Y-94533930D01*
X159075000Y-97050000D02*
X159075000Y-97715000D01*
D50*
X146400000Y-94750000D02*
X148950000Y-94750000D01*
X146300000Y-94750000D02*
X146400000Y-94750000D01*
X158700000Y-97720000D02*
X159080000Y-97720000D01*
D48*
X137900000Y-93575500D02*
X137950000Y-93525500D01*
D49*
X159980000Y-92610000D02*
X161500000Y-92610000D01*
D48*
X152181472Y-83550000D02*
X146360000Y-83550000D01*
X144260000Y-87250000D02*
X144250000Y-87260000D01*
X140850000Y-90160000D02*
X140886640Y-90160000D01*
X141503189Y-92028189D02*
X141725000Y-92250000D01*
D50*
X155455000Y-97720000D02*
X155762500Y-97412500D01*
X166100000Y-97700000D02*
X166100000Y-96340000D01*
D48*
X159075000Y-97050000D02*
X159075000Y-96550000D01*
X144260000Y-85650000D02*
X144260000Y-87250000D01*
D50*
X163335000Y-93935000D02*
X163335000Y-93858930D01*
D49*
X163020000Y-92610000D02*
X163270000Y-92360000D01*
D48*
X140954088Y-93196716D02*
X140954088Y-93020912D01*
D50*
X148950000Y-94200000D02*
X149550000Y-93600000D01*
D48*
X159075000Y-96550000D02*
X160600000Y-96550000D01*
D49*
X159480000Y-93110000D02*
X159980000Y-92610000D01*
D48*
X152580000Y-83151472D02*
X152181472Y-83550000D01*
D50*
X146400000Y-94750000D02*
X146400000Y-94425000D01*
D49*
X141840000Y-90160000D02*
X140850000Y-90160000D01*
D48*
X145825000Y-84085000D02*
X145750000Y-84160000D01*
X138090000Y-90160000D02*
X140850000Y-90160000D01*
D49*
X154762500Y-96412500D02*
X155762500Y-97412500D01*
D50*
X148950000Y-94750000D02*
X150450000Y-96250000D01*
X148950000Y-94750000D02*
X148950000Y-93975000D01*
X150970000Y-97720000D02*
X155455000Y-97720000D01*
X148950000Y-93975000D02*
X148050000Y-93075000D01*
D49*
X161500000Y-92610000D02*
X163020000Y-92610000D01*
D50*
X150600000Y-91800000D02*
X151450000Y-91800000D01*
X158500000Y-97720000D02*
X158700000Y-97720000D01*
X143850000Y-97200000D02*
X146300000Y-94750000D01*
D48*
X146360000Y-83550000D02*
X145825000Y-84085000D01*
X159075000Y-97715000D02*
X159080000Y-97720000D01*
D50*
X146400000Y-94425000D02*
X145050000Y-93075000D01*
D48*
X140886640Y-90160000D02*
X141503189Y-90776549D01*
D49*
X159480000Y-93110000D02*
X158900000Y-93110000D01*
D48*
X142880000Y-84160000D02*
X142450000Y-84590000D01*
D49*
X154762500Y-96262500D02*
X154762500Y-96412500D01*
X143696751Y-91525000D02*
X145050000Y-92878249D01*
D48*
X142450000Y-87290000D02*
X143580000Y-88420000D01*
D49*
X144250000Y-87260000D02*
X144250000Y-87750000D01*
D50*
X166100000Y-96340000D02*
X165150000Y-95390000D01*
D49*
X141725000Y-92250000D02*
X142450000Y-91525000D01*
D48*
X145825000Y-84085000D02*
X145345000Y-84565000D01*
X152570000Y-80320000D02*
X152580000Y-80330000D01*
D50*
X146400000Y-93225000D02*
X146550000Y-93075000D01*
X155455000Y-97720000D02*
X158500000Y-97720000D01*
X151450000Y-91800000D02*
X152050000Y-91200000D01*
D48*
X145345000Y-84565000D02*
X144260000Y-85650000D01*
X162660000Y-94533930D02*
X163335000Y-93858930D01*
D50*
X164790000Y-95390000D02*
X163335000Y-93935000D01*
X148950000Y-94750000D02*
X148950000Y-94200000D01*
D48*
X137950000Y-93525500D02*
X137950000Y-92725000D01*
D49*
X142450000Y-91525000D02*
X143696751Y-91525000D01*
D48*
X145750000Y-84160000D02*
X142880000Y-84160000D01*
X137550001Y-90699999D02*
X138090000Y-90160000D01*
D50*
X166080000Y-97720000D02*
X166100000Y-97700000D01*
D48*
X141503189Y-90776549D02*
X141503189Y-92028189D01*
D50*
X146400000Y-94750000D02*
X146400000Y-93225000D01*
D48*
X142450000Y-84590000D02*
X142450000Y-87290000D01*
D49*
X143580000Y-88420000D02*
X141840000Y-90160000D01*
D50*
X150450000Y-97200000D02*
X150970000Y-97720000D01*
D48*
X140954088Y-93020912D02*
X141725000Y-92250000D01*
D50*
X163270000Y-90860000D02*
X163270000Y-86211070D01*
X163270000Y-93860000D02*
X163270000Y-90860000D01*
D49*
X145050000Y-92878249D02*
X145050000Y-93075000D01*
D48*
X137550001Y-91175000D02*
X137550001Y-90699999D01*
D49*
X144250000Y-87750000D02*
X143580000Y-88420000D01*
D50*
X158500000Y-97720000D02*
X166080000Y-97720000D01*
D49*
X145050000Y-93075000D02*
X148050000Y-93075000D01*
D50*
X155762500Y-97412500D02*
X156275000Y-96900000D01*
X150450000Y-96250000D02*
X150450000Y-97200000D01*
D48*
X152580000Y-80330000D02*
X152580000Y-83151472D01*
D50*
X165150000Y-95390000D02*
X164790000Y-95390000D01*
%TO.N,/pd*%
D49*
X158110000Y-93610000D02*
X158725000Y-93610000D01*
X157514477Y-91900500D02*
X156175500Y-91900500D01*
X155175000Y-90900000D02*
X153950000Y-90900000D01*
X153950000Y-90900000D02*
X153650000Y-91200000D01*
X157800000Y-93300000D02*
X158110000Y-93610000D01*
X156175500Y-91900500D02*
X155175000Y-90900000D01*
%TO.N,/i2c_scl*%
D48*
X144525000Y-90900000D02*
X145050000Y-91425000D01*
X147950000Y-84760000D02*
X147950000Y-86440000D01*
X138749999Y-93225499D02*
X138870000Y-93345500D01*
X153070000Y-83085736D02*
X152255736Y-83900000D01*
D49*
X145050000Y-91425000D02*
X146790000Y-89685000D01*
D48*
X150600000Y-95250000D02*
X151112500Y-95762500D01*
D49*
X146790000Y-89685000D02*
X146790000Y-87600000D01*
D48*
X151112500Y-95762500D02*
X151837500Y-95762500D01*
X147820000Y-84630000D02*
X146800000Y-85650000D01*
X148550000Y-83900000D02*
X147820000Y-84630000D01*
X147820000Y-84630000D02*
X147950000Y-84760000D01*
X147950000Y-86440000D02*
X146790000Y-87600000D01*
D49*
X146790000Y-87600000D02*
X146790000Y-85660000D01*
D48*
X153070000Y-80320000D02*
X153070000Y-83085736D01*
X152255736Y-83900000D02*
X148550000Y-83900000D01*
X138749999Y-92725000D02*
X138749999Y-93225499D01*
D49*
X146790000Y-85660000D02*
X146800000Y-85650000D01*
D48*
X143850000Y-90900000D02*
X144525000Y-90900000D01*
%TO.N,/PSW*%
D49*
X157950000Y-90910000D02*
X157960000Y-90900000D01*
X160087500Y-95312500D02*
X160870000Y-94530000D01*
X152550000Y-93695558D02*
X153195558Y-93050000D01*
X153195558Y-93050000D02*
X156790000Y-93050000D01*
X162250000Y-93499374D02*
X161860626Y-93110000D01*
X154544500Y-86520000D02*
X154570000Y-86494500D01*
X156825000Y-90900000D02*
X155040000Y-89115000D01*
X159200000Y-91225000D02*
X158875000Y-90900000D01*
X159075000Y-95550000D02*
X159075000Y-96050000D01*
X154570000Y-86494500D02*
X154570000Y-80320000D01*
X150750000Y-93600000D02*
X152100000Y-93600000D01*
X156790000Y-93050000D02*
X159075000Y-95335000D01*
X157960000Y-90900000D02*
X156825000Y-90900000D01*
X159587500Y-95537500D02*
X160087500Y-95537500D01*
X152550000Y-94050000D02*
X152550000Y-93695558D01*
X160087500Y-95537500D02*
X160087500Y-95312500D01*
X158550000Y-90900000D02*
X157960000Y-90900000D01*
X157950000Y-91350000D02*
X157950000Y-90910000D01*
X152100000Y-93600000D02*
X152550000Y-94050000D01*
X158100000Y-91350000D02*
X157950000Y-91350000D01*
X160870000Y-94530000D02*
X162100000Y-94530000D01*
X161860626Y-93110000D02*
X161500000Y-93110000D01*
X159075000Y-95335000D02*
X159075000Y-95550000D01*
X155040000Y-89115000D02*
X155040000Y-88529500D01*
X158875000Y-90900000D02*
X158550000Y-90900000D01*
X162250000Y-94380000D02*
X162250000Y-93499374D01*
X159575000Y-95550000D02*
X159587500Y-95537500D01*
X162100000Y-94530000D02*
X162250000Y-94380000D01*
X159075000Y-95550000D02*
X159575000Y-95550000D01*
%TO.N,/i2c_sda*%
D48*
X150195000Y-84795000D02*
X150410000Y-85010000D01*
D49*
X149330000Y-85660000D02*
X149340000Y-85650000D01*
D48*
X150025000Y-93175000D02*
X150025000Y-93925000D01*
X145950000Y-92250000D02*
X145950000Y-92025000D01*
X140062091Y-91350001D02*
X139324999Y-91350001D01*
X160880000Y-95550000D02*
X160600000Y-95550000D01*
X162249764Y-92036215D02*
X162249764Y-91899764D01*
X153570000Y-80320000D02*
X153570000Y-83010000D01*
X162050000Y-91700000D02*
X161675000Y-91700000D01*
X151362500Y-95262500D02*
X151837500Y-95262500D01*
X150700497Y-94200000D02*
X150750000Y-94249503D01*
X150300000Y-94200000D02*
X150700497Y-94200000D01*
X148215380Y-92050000D02*
X149190381Y-93025000D01*
X149190381Y-93025000D02*
X149875000Y-93025000D01*
X153570000Y-83010000D02*
X152380000Y-84200000D01*
X140375522Y-91663432D02*
X140062091Y-91350001D01*
X146550000Y-91425000D02*
X147175000Y-92050000D01*
X150025000Y-93925000D02*
X150300000Y-94200000D01*
X150410000Y-86500000D02*
X149330000Y-87580000D01*
D49*
X146550000Y-91425000D02*
X149330000Y-88645000D01*
D48*
X150410000Y-85010000D02*
X150410000Y-86500000D01*
X149875000Y-93025000D02*
X150025000Y-93175000D01*
X147175000Y-92050000D02*
X148215380Y-92050000D01*
X145950000Y-92025000D02*
X146550000Y-91425000D01*
X152380000Y-84200000D02*
X150790000Y-84200000D01*
X162249764Y-91899764D02*
X162050000Y-91700000D01*
X150300000Y-94200000D02*
X151362500Y-95262500D01*
D49*
X149330000Y-87580000D02*
X149330000Y-85660000D01*
X149330000Y-88645000D02*
X149330000Y-87580000D01*
D48*
X150195000Y-84795000D02*
X149340000Y-85650000D01*
X150790000Y-84200000D02*
X150195000Y-84795000D01*
%TO.N,/swdio*%
D49*
X162070000Y-88790000D02*
X162070000Y-87520000D01*
X162070000Y-90265000D02*
X162070000Y-88790000D01*
X155570000Y-84859500D02*
X155570000Y-80320000D01*
X162000000Y-87450000D02*
X162000000Y-86145000D01*
X161200000Y-91135000D02*
X162070000Y-90265000D01*
X162070000Y-88790000D02*
X161690000Y-88790000D01*
X161690000Y-88790000D02*
X161360000Y-88460000D01*
X155569500Y-84860000D02*
X155570000Y-84859500D01*
X162070000Y-87520000D02*
X162000000Y-87450000D01*
%TO.N,/swclk*%
X158050000Y-88780000D02*
X157660000Y-88390000D01*
X160700000Y-88780000D02*
X158050000Y-88780000D01*
X160700000Y-87470000D02*
X160730000Y-87440000D01*
X155160000Y-87290000D02*
X155070000Y-87200000D01*
X160700000Y-88780000D02*
X160700000Y-87470000D01*
X160730000Y-87440000D02*
X160730000Y-86145000D01*
X160700000Y-91400000D02*
X160700000Y-88780000D01*
X155070000Y-87200000D02*
X155070000Y-80320000D01*
%TO.N,GND*%
D48*
X152550000Y-94762500D02*
X153300000Y-95512500D01*
D51*
X148950000Y-96950000D02*
X148400000Y-96950000D01*
D48*
X138424200Y-90625800D02*
X140680688Y-90625800D01*
X164015000Y-97345000D02*
X162907501Y-97345000D01*
X152550000Y-96975000D02*
X152550000Y-96262500D01*
X137432500Y-97480000D02*
X140700000Y-97480000D01*
X157980000Y-96420000D02*
X157825000Y-96575000D01*
X153300000Y-94300000D02*
X153300000Y-95512500D01*
X156070000Y-80320000D02*
X156070000Y-83190000D01*
X163522500Y-95135000D02*
X163310000Y-95135000D01*
X162660000Y-97097499D02*
X162660000Y-96910000D01*
X153050000Y-94050000D02*
X153300000Y-94300000D01*
X138350000Y-91175000D02*
X138350000Y-90700000D01*
X164153125Y-96330000D02*
X164153125Y-97206875D01*
X153050000Y-95762500D02*
X153300000Y-95512500D01*
X156580000Y-83700000D02*
X157220000Y-83700000D01*
X162907501Y-97345000D02*
X162660000Y-97097499D01*
X140680688Y-90625800D02*
X140777979Y-90723091D01*
D51*
X146400000Y-96950000D02*
X148950000Y-96950000D01*
D48*
X164153125Y-95765625D02*
X163522500Y-95135000D01*
X152550000Y-96262500D02*
X153300000Y-95512500D01*
X153550000Y-94050000D02*
X153300000Y-94300000D01*
D51*
X146400000Y-96950000D02*
X146800000Y-96950000D01*
D48*
X138350000Y-90700000D02*
X138424200Y-90625800D01*
X157980000Y-95680000D02*
X157980000Y-96420000D01*
X164153125Y-97206875D02*
X164015000Y-97345000D01*
X156070000Y-83190000D02*
X156580000Y-83700000D01*
X136902500Y-96950000D02*
X137432500Y-97480000D01*
D51*
X146800000Y-96950000D02*
X147600000Y-96150000D01*
X148400000Y-96950000D02*
X147600000Y-96150000D01*
D48*
X151837500Y-94762500D02*
X152550000Y-94762500D01*
X143275000Y-92250000D02*
X143275000Y-93750000D01*
X157825000Y-96575000D02*
X157825000Y-96900000D01*
X164153125Y-96330000D02*
X164153125Y-95765625D01*
X153050000Y-96975000D02*
X153050000Y-95762500D01*
%TO.N,/V_NFC_switched*%
X139658032Y-94064539D02*
X139422500Y-94300071D01*
X136200000Y-91500000D02*
X136349999Y-91350001D01*
X139658032Y-94064539D02*
X139643493Y-94050000D01*
X139022500Y-94050000D02*
X136950000Y-94050000D01*
X140910000Y-94100000D02*
X141260000Y-93750000D01*
X136349999Y-91350001D02*
X136975001Y-91350001D01*
X139422500Y-94450000D02*
X139022500Y-94050000D01*
X139643493Y-94050000D02*
X139022500Y-94050000D01*
X141260000Y-93750000D02*
X141725000Y-93750000D01*
X136950000Y-94050000D02*
X136200000Y-93300000D01*
X136200000Y-93300000D02*
X136200000Y-91500000D01*
X139422500Y-94300071D02*
X139422500Y-94450000D01*
%TO.N,/V_EH*%
D49*
X141900000Y-95050000D02*
X143800000Y-95050000D01*
X143800000Y-95050000D02*
X143850000Y-95100000D01*
X136550000Y-95450000D02*
X136050000Y-94950000D01*
X141900000Y-96000000D02*
X141900000Y-95050000D01*
X136902500Y-95450000D02*
X136550000Y-95450000D01*
%TO.N,/i2c_sda_switched*%
D48*
X141040000Y-92075736D02*
X140435000Y-92680736D01*
X141040000Y-91656158D02*
X141040000Y-92075736D01*
X138749999Y-91050001D02*
X138774999Y-91025001D01*
X139782500Y-96950000D02*
X139422500Y-96950000D01*
X140433843Y-91050001D02*
X141040000Y-91656158D01*
X139874999Y-91025001D02*
X139899999Y-91050001D01*
X138774999Y-91025001D02*
X139874999Y-91025001D01*
X140435000Y-92680736D02*
X140435000Y-96297500D01*
X140435000Y-96297500D02*
X139782500Y-96950000D01*
X138749999Y-91225800D02*
X138749999Y-91050001D01*
X139899999Y-91050001D02*
X140433843Y-91050001D01*
%TO.N,/i2c_scl_switched*%
X139750000Y-96450000D02*
X139422500Y-96450000D01*
X140135000Y-96065000D02*
X139750000Y-96450000D01*
X140135000Y-93360000D02*
X140135000Y-96065000D01*
X139324999Y-92549999D02*
X140135000Y-93360000D01*
%TO.N,Net-(U2-XO)*%
X156062500Y-95262500D02*
X156300000Y-95500000D01*
X154762500Y-95262500D02*
X156062500Y-95262500D01*
%TO.N,Net-(U2-XI)*%
X154762500Y-94762500D02*
X155125000Y-94400000D01*
X155125000Y-94400000D02*
X156300000Y-94400000D01*
%TO.N,/AC0*%
X134250000Y-91350000D02*
X121650000Y-91350000D01*
X121050000Y-97050000D02*
X135150000Y-97050000D01*
X120750000Y-90450000D02*
X120750000Y-97350000D01*
X134850000Y-96750000D02*
X134850000Y-90750000D01*
X135900000Y-96450000D02*
X136902500Y-96450000D01*
X122850000Y-92550000D02*
X122850000Y-95250000D01*
X136050000Y-95850000D02*
X136200000Y-96000000D01*
X135600000Y-97650000D02*
X135750000Y-97500000D01*
X121350000Y-91050000D02*
X121350000Y-96750000D01*
X135150000Y-97050000D02*
X135150000Y-90450000D01*
X133950000Y-91650000D02*
X121950000Y-91650000D01*
X121650000Y-96450000D02*
X134550000Y-96450000D01*
X122250000Y-95850000D02*
X133950000Y-95850000D01*
X120750000Y-97350000D02*
X135450000Y-97350000D01*
X131400000Y-92550000D02*
X122850000Y-92550000D01*
X135450000Y-90125000D02*
X120450000Y-90125000D01*
X121950000Y-96150000D02*
X134250000Y-96150000D01*
X135450000Y-97350000D02*
X135450000Y-90125000D01*
X133650000Y-91950000D02*
X122250000Y-91950000D01*
X121950000Y-91650000D02*
X121950000Y-96150000D01*
X134850000Y-90750000D02*
X121050000Y-90750000D01*
X135150000Y-90450000D02*
X120750000Y-90450000D01*
X122550000Y-95550000D02*
X133650000Y-95550000D01*
X133350000Y-92250000D02*
X122550000Y-92250000D01*
X133650000Y-95550000D02*
X133650000Y-91950000D01*
X132600000Y-93750000D02*
X131400000Y-92550000D01*
X120450000Y-90125000D02*
X120450000Y-97650000D01*
X121350000Y-96750000D02*
X134850000Y-96750000D01*
X122250000Y-91950000D02*
X122250000Y-95850000D01*
X122850000Y-95250000D02*
X133350000Y-95250000D01*
X135750000Y-96600000D02*
X135900000Y-96450000D01*
X134550000Y-91050000D02*
X121350000Y-91050000D01*
X135750000Y-97500000D02*
X135750000Y-96600000D01*
X121650000Y-91350000D02*
X121650000Y-96450000D01*
X134550000Y-96450000D02*
X134550000Y-91050000D01*
X136200000Y-96000000D02*
X136852500Y-96000000D01*
X120450000Y-97650000D02*
X135600000Y-97650000D01*
X134250000Y-96150000D02*
X134250000Y-91350000D01*
X122550000Y-92250000D02*
X122550000Y-95550000D01*
X133350000Y-95250000D02*
X133350000Y-92250000D01*
X121050000Y-90750000D02*
X121050000Y-97050000D01*
X133950000Y-95850000D02*
X133950000Y-91650000D01*
%TO.N,/i2c_scl*%
X161400000Y-96910000D02*
X162010000Y-96910000D01*
X161260000Y-97050000D02*
X161400000Y-96910000D01*
X161260000Y-97050000D02*
X160600000Y-97050000D01*
%TO.N,/i2c_sda*%
X161765000Y-95135000D02*
X162010000Y-95135000D01*
X161760000Y-95140000D02*
X161765000Y-95135000D01*
X161290000Y-95140000D02*
X161760000Y-95140000D01*
X161290000Y-95140000D02*
X160880000Y-95550000D01*
%TO.N,/i2c_scl*%
X159700000Y-94550000D02*
X159700000Y-94000000D01*
X159450000Y-94800000D02*
X159700000Y-94550000D01*
%TD*%
%TA.AperFunction,Conductor*%
%TO.N,GND*%
G36*
X143468039Y-92269685D02*
G01*
X143513794Y-92322489D01*
X143525000Y-92374000D01*
X143525000Y-93500000D01*
X144256160Y-93500000D01*
X144323199Y-93519685D01*
X144355426Y-93549688D01*
X144417455Y-93632547D01*
X144532664Y-93718793D01*
X144532671Y-93718797D01*
X144563553Y-93730315D01*
X144667517Y-93769091D01*
X144727127Y-93775500D01*
X145062034Y-93775499D01*
X145129073Y-93795183D01*
X145149715Y-93811818D01*
X145363181Y-94025284D01*
X145396666Y-94086607D01*
X145399500Y-94112965D01*
X145399500Y-94962034D01*
X145379815Y-95029073D01*
X145363181Y-95049715D01*
X143849714Y-96563181D01*
X143788391Y-96596666D01*
X143762035Y-96599500D01*
X143704993Y-96599500D01*
X143704991Y-96599501D01*
X143608286Y-96614817D01*
X143608285Y-96614817D01*
X143533876Y-96652731D01*
X143491719Y-96674211D01*
X143491718Y-96674212D01*
X143491713Y-96674215D01*
X143399215Y-96766713D01*
X143399210Y-96766720D01*
X143339816Y-96883288D01*
X143324500Y-96979996D01*
X143324500Y-97420007D01*
X143339817Y-97516713D01*
X143339817Y-97516714D01*
X143339818Y-97516715D01*
X143399211Y-97633281D01*
X143399213Y-97633283D01*
X143399215Y-97633286D01*
X143423748Y-97657819D01*
X143457233Y-97719142D01*
X143452249Y-97788834D01*
X143410377Y-97844767D01*
X143344913Y-97869184D01*
X143336067Y-97869500D01*
X142676066Y-97869500D01*
X142609027Y-97849815D01*
X142563272Y-97797011D01*
X142553328Y-97727853D01*
X142569333Y-97682380D01*
X142603155Y-97625188D01*
X142603156Y-97625185D01*
X142639525Y-97500000D01*
X141160474Y-97500000D01*
X141196843Y-97625185D01*
X141196844Y-97625188D01*
X141230667Y-97682380D01*
X141247849Y-97750104D01*
X141225688Y-97816366D01*
X141171222Y-97860129D01*
X141123934Y-97869500D01*
X137199531Y-97869500D01*
X137132492Y-97849815D01*
X137086737Y-97797011D01*
X137076793Y-97727853D01*
X137105818Y-97664297D01*
X137164596Y-97626523D01*
X137186275Y-97622211D01*
X137219872Y-97618598D01*
X137219879Y-97618596D01*
X137354586Y-97568354D01*
X137354593Y-97568350D01*
X137469687Y-97482190D01*
X137469690Y-97482187D01*
X137555851Y-97367091D01*
X137555852Y-97367090D01*
X137559927Y-97356166D01*
X137601798Y-97300232D01*
X137667262Y-97275815D01*
X137676085Y-97275499D01*
X138886665Y-97275499D01*
X138953704Y-97295184D01*
X138974346Y-97311817D01*
X139039735Y-97377206D01*
X139142509Y-97422585D01*
X139167635Y-97425500D01*
X139677364Y-97425499D01*
X139677379Y-97425497D01*
X139677382Y-97425497D01*
X139702486Y-97422586D01*
X139702487Y-97422585D01*
X139702491Y-97422585D01*
X139805265Y-97377206D01*
X139842638Y-97339831D01*
X139898227Y-97307736D01*
X139927438Y-97299910D01*
X140013062Y-97250475D01*
X140082975Y-97180562D01*
X140735474Y-96528063D01*
X140738516Y-96522794D01*
X140784910Y-96442438D01*
X140794538Y-96406507D01*
X140803115Y-96374500D01*
X140810499Y-96346938D01*
X140810500Y-96346935D01*
X140810500Y-94774500D01*
X140830185Y-94707461D01*
X140882989Y-94661706D01*
X140934500Y-94650500D01*
X140982472Y-94650500D01*
X140982475Y-94650500D01*
X141122485Y-94612984D01*
X141122487Y-94612982D01*
X141122489Y-94612982D01*
X141122490Y-94612981D01*
X141233080Y-94549131D01*
X141300977Y-94532658D01*
X141367005Y-94555510D01*
X141410196Y-94610430D01*
X141416838Y-94679983D01*
X141405565Y-94712811D01*
X141365279Y-94791877D01*
X141349500Y-94891506D01*
X141349500Y-95208493D01*
X141365279Y-95308121D01*
X141365280Y-95308124D01*
X141365281Y-95308126D01*
X141426472Y-95428220D01*
X141426473Y-95428221D01*
X141426475Y-95428224D01*
X141463180Y-95464928D01*
X141496666Y-95526251D01*
X141499500Y-95552610D01*
X141499500Y-95570614D01*
X141479815Y-95637653D01*
X141463181Y-95658295D01*
X141459493Y-95661982D01*
X141459488Y-95661988D01*
X141387017Y-95787511D01*
X141387016Y-95787515D01*
X141349500Y-95927525D01*
X141349500Y-96072475D01*
X141385726Y-96207671D01*
X141387017Y-96212488D01*
X141459488Y-96338011D01*
X141459493Y-96338017D01*
X141501951Y-96380475D01*
X141535436Y-96441798D01*
X141530452Y-96511490D01*
X141488580Y-96567423D01*
X141477391Y-96574888D01*
X141388892Y-96627225D01*
X141388883Y-96627232D01*
X141277232Y-96738883D01*
X141277226Y-96738891D01*
X141196845Y-96874808D01*
X141196843Y-96874814D01*
X141160474Y-96999999D01*
X141160474Y-97000000D01*
X142639526Y-97000000D01*
X142639525Y-96999999D01*
X142603156Y-96874814D01*
X142603154Y-96874808D01*
X142522773Y-96738891D01*
X142522767Y-96738883D01*
X142411116Y-96627232D01*
X142411104Y-96627223D01*
X142322609Y-96574888D01*
X142274925Y-96523819D01*
X142262421Y-96455078D01*
X142289066Y-96390488D01*
X142298040Y-96380483D01*
X142340509Y-96338015D01*
X142412984Y-96212485D01*
X142450500Y-96072475D01*
X142450500Y-95927525D01*
X142412984Y-95787515D01*
X142398298Y-95762079D01*
X142340511Y-95661988D01*
X142335562Y-95655539D01*
X142336630Y-95654719D01*
X142307220Y-95600858D01*
X142312204Y-95531166D01*
X142354076Y-95475233D01*
X142419540Y-95450816D01*
X142428386Y-95450500D01*
X143281045Y-95450500D01*
X143348084Y-95470185D01*
X143391528Y-95518203D01*
X143399211Y-95533281D01*
X143399213Y-95533283D01*
X143399215Y-95533286D01*
X143491713Y-95625784D01*
X143491716Y-95625786D01*
X143491719Y-95625789D01*
X143608285Y-95685182D01*
X143608286Y-95685182D01*
X143608288Y-95685183D01*
X143608287Y-95685183D01*
X143651618Y-95692045D01*
X143704997Y-95700500D01*
X143995002Y-95700499D01*
X143995007Y-95700499D01*
X143995007Y-95700498D01*
X144091715Y-95685182D01*
X144208281Y-95625789D01*
X144300789Y-95533281D01*
X144360182Y-95416715D01*
X144375500Y-95320003D01*
X144375499Y-94879998D01*
X144375499Y-94879992D01*
X144360182Y-94783286D01*
X144360182Y-94783285D01*
X144343477Y-94750500D01*
X144300789Y-94666719D01*
X144300785Y-94666715D01*
X144300784Y-94666713D01*
X144208286Y-94574215D01*
X144208282Y-94574212D01*
X144208281Y-94574211D01*
X144167881Y-94553626D01*
X144117087Y-94505654D01*
X144100292Y-94437833D01*
X144118640Y-94378045D01*
X144161544Y-94308488D01*
X144161547Y-94308481D01*
X144214855Y-94147606D01*
X144224999Y-94048322D01*
X144225000Y-94048309D01*
X144225000Y-94000000D01*
X143399000Y-94000000D01*
X143331961Y-93980315D01*
X143286206Y-93927511D01*
X143275000Y-93876000D01*
X143275000Y-93750000D01*
X143149000Y-93750000D01*
X143081961Y-93730315D01*
X143036206Y-93677511D01*
X143025000Y-93626000D01*
X143025000Y-92374000D01*
X143044685Y-92306961D01*
X143097489Y-92261206D01*
X143149000Y-92250000D01*
X143401000Y-92250000D01*
X143468039Y-92269685D01*
G37*
%TD.AperFunction*%
%TA.AperFunction,Conductor*%
G36*
X145136885Y-96652731D02*
G01*
X145181232Y-96681232D01*
X145200000Y-96700000D01*
X147610542Y-96700000D01*
X147648642Y-96679196D01*
X147718334Y-96684180D01*
X147742950Y-96700000D01*
X148826000Y-96700000D01*
X148893039Y-96719685D01*
X148938794Y-96772489D01*
X148950000Y-96824000D01*
X148950000Y-97076000D01*
X148930315Y-97143039D01*
X148877511Y-97188794D01*
X148826000Y-97200000D01*
X147739458Y-97200000D01*
X147701358Y-97220804D01*
X147631666Y-97215820D01*
X147607050Y-97200000D01*
X145200000Y-97200000D01*
X145200000Y-97697839D01*
X145203700Y-97732242D01*
X145191296Y-97801002D01*
X145143687Y-97852140D01*
X145080411Y-97869500D01*
X144363933Y-97869500D01*
X144296894Y-97849815D01*
X144251139Y-97797011D01*
X144241195Y-97727853D01*
X144270220Y-97664297D01*
X144276252Y-97657819D01*
X144300784Y-97633286D01*
X144300789Y-97633281D01*
X144360182Y-97516715D01*
X144360182Y-97516713D01*
X144360183Y-97516712D01*
X144374629Y-97425500D01*
X144375500Y-97420003D01*
X144375499Y-97362964D01*
X144395182Y-97295926D01*
X144411813Y-97275288D01*
X145005870Y-96681232D01*
X145067193Y-96647747D01*
X145136885Y-96652731D01*
G37*
%TD.AperFunction*%
%TA.AperFunction,Conductor*%
G36*
X151105703Y-96393047D02*
G01*
X151135898Y-96432296D01*
X151185863Y-96534500D01*
X151187989Y-96538849D01*
X151273651Y-96624511D01*
X151382488Y-96677719D01*
X151382489Y-96677719D01*
X151382491Y-96677720D01*
X151453051Y-96688000D01*
X151801001Y-96687999D01*
X151868039Y-96707683D01*
X151913794Y-96760487D01*
X151925000Y-96811999D01*
X151925000Y-96850000D01*
X153000501Y-96850000D01*
X153067540Y-96869685D01*
X153113295Y-96922489D01*
X153124501Y-96974000D01*
X153124501Y-96976000D01*
X153104816Y-97043039D01*
X153052012Y-97088794D01*
X153000501Y-97100000D01*
X151925000Y-97100000D01*
X151925000Y-97145500D01*
X151905315Y-97212539D01*
X151852511Y-97258294D01*
X151801000Y-97269500D01*
X151207965Y-97269500D01*
X151140926Y-97249815D01*
X151120284Y-97233181D01*
X150936819Y-97049716D01*
X150903334Y-96988393D01*
X150900500Y-96962035D01*
X150900500Y-96486760D01*
X150920185Y-96419721D01*
X150972989Y-96373966D01*
X151042147Y-96364022D01*
X151105703Y-96393047D01*
G37*
%TD.AperFunction*%
%TA.AperFunction,Conductor*%
G36*
X164146032Y-95388582D02*
G01*
X164170440Y-95407543D01*
X164338379Y-95575482D01*
X164371864Y-95636805D01*
X164374024Y-95652469D01*
X164374059Y-95652465D01*
X164374293Y-95654418D01*
X164374476Y-95655741D01*
X164374499Y-95656133D01*
X164374500Y-95656141D01*
X164374500Y-95656144D01*
X164377510Y-95681214D01*
X164384640Y-95740588D01*
X164437636Y-95874976D01*
X164496390Y-95952454D01*
X164521213Y-96017765D01*
X164506785Y-96086129D01*
X164462688Y-96132914D01*
X164447273Y-96142422D01*
X164447267Y-96142427D01*
X164327427Y-96262267D01*
X164327424Y-96262271D01*
X164238457Y-96406507D01*
X164238452Y-96406518D01*
X164185144Y-96567393D01*
X164175000Y-96666677D01*
X164175000Y-96690000D01*
X165026000Y-96690000D01*
X165093039Y-96709685D01*
X165138794Y-96762489D01*
X165150000Y-96814000D01*
X165150000Y-97066000D01*
X165130315Y-97133039D01*
X165077511Y-97178794D01*
X165026000Y-97190000D01*
X164175001Y-97190000D01*
X164156502Y-97208498D01*
X164155316Y-97212539D01*
X164102512Y-97258294D01*
X164051001Y-97269500D01*
X163918509Y-97269500D01*
X163851470Y-97249815D01*
X163805715Y-97197011D01*
X163795771Y-97127853D01*
X163796036Y-97126102D01*
X163810500Y-97034781D01*
X163810500Y-96785218D01*
X163795879Y-96692904D01*
X163786354Y-96674211D01*
X163772203Y-96646439D01*
X163759308Y-96577771D01*
X163759515Y-96575852D01*
X163759627Y-96574888D01*
X163760500Y-96567365D01*
X163760499Y-95774151D01*
X163780183Y-95707113D01*
X163809014Y-95675775D01*
X163839715Y-95652217D01*
X163934891Y-95528183D01*
X163934891Y-95528182D01*
X163968198Y-95447772D01*
X164012038Y-95393368D01*
X164078332Y-95371303D01*
X164146032Y-95388582D01*
G37*
%TD.AperFunction*%
%TA.AperFunction,Conductor*%
G36*
X157305702Y-94132541D02*
G01*
X157312180Y-94138573D01*
X158600681Y-95427074D01*
X158634166Y-95488397D01*
X158637000Y-95514754D01*
X158637000Y-95719857D01*
X158637002Y-95719880D01*
X158639914Y-95744989D01*
X158639915Y-95744995D01*
X158642090Y-95749920D01*
X158651158Y-95819199D01*
X158642092Y-95850076D01*
X158639916Y-95855003D01*
X158639915Y-95855009D01*
X158637000Y-95880131D01*
X158637000Y-95938069D01*
X158617315Y-96005108D01*
X158564511Y-96050863D01*
X158495353Y-96060807D01*
X158447903Y-96043607D01*
X158358492Y-95988457D01*
X158358481Y-95988452D01*
X158197606Y-95935144D01*
X158098322Y-95925000D01*
X158075000Y-95925000D01*
X158075000Y-96776000D01*
X158055315Y-96843039D01*
X158002511Y-96888794D01*
X157951000Y-96900000D01*
X157699000Y-96900000D01*
X157631961Y-96880315D01*
X157586206Y-96827511D01*
X157575000Y-96776000D01*
X157575000Y-95924999D01*
X157551693Y-95925000D01*
X157551674Y-95925001D01*
X157452392Y-95935144D01*
X157291518Y-95988452D01*
X157291509Y-95988457D01*
X157262561Y-96006312D01*
X157195168Y-96024752D01*
X157128505Y-96003829D01*
X157083736Y-95950186D01*
X157075075Y-95880856D01*
X157084030Y-95850689D01*
X157097585Y-95819991D01*
X157100500Y-95794865D01*
X157100499Y-95205136D01*
X157100497Y-95205117D01*
X157097586Y-95180012D01*
X157097585Y-95180010D01*
X157097585Y-95180009D01*
X157052206Y-95077235D01*
X157012652Y-95037681D01*
X156979167Y-94976358D01*
X156984151Y-94906666D01*
X157012652Y-94862319D01*
X157027691Y-94847280D01*
X157052206Y-94822765D01*
X157097585Y-94719991D01*
X157100500Y-94694865D01*
X157100499Y-94226253D01*
X157120183Y-94159215D01*
X157172987Y-94113460D01*
X157242146Y-94103516D01*
X157305702Y-94132541D01*
G37*
%TD.AperFunction*%
%TA.AperFunction,Conductor*%
G36*
X153243039Y-95282185D02*
G01*
X153288794Y-95334989D01*
X153300000Y-95386500D01*
X153300000Y-95512500D01*
X153426000Y-95512500D01*
X153493039Y-95532185D01*
X153538794Y-95584989D01*
X153550000Y-95636500D01*
X153550000Y-96140632D01*
X153530315Y-96207671D01*
X153477511Y-96253426D01*
X153443876Y-96263337D01*
X153382493Y-96272279D01*
X153273650Y-96325489D01*
X153261681Y-96337459D01*
X153200358Y-96370944D01*
X153130666Y-96365960D01*
X153074733Y-96324088D01*
X153050316Y-96258624D01*
X153050000Y-96249778D01*
X153050000Y-95762500D01*
X152671867Y-95762500D01*
X152604828Y-95742815D01*
X152559073Y-95690011D01*
X152549162Y-95656374D01*
X152545475Y-95631063D01*
X152540220Y-95594991D01*
X152526516Y-95566960D01*
X152514756Y-95498091D01*
X152526515Y-95458040D01*
X152540220Y-95430009D01*
X152549163Y-95368621D01*
X152578308Y-95305122D01*
X152637156Y-95267458D01*
X152671868Y-95262500D01*
X153176000Y-95262500D01*
X153243039Y-95282185D01*
G37*
%TD.AperFunction*%
%TA.AperFunction,Conductor*%
G36*
X147892540Y-95220185D02*
G01*
X147938295Y-95272989D01*
X147949501Y-95324500D01*
X147949501Y-95494856D01*
X147949502Y-95494882D01*
X147952413Y-95519987D01*
X147952415Y-95519991D01*
X147997793Y-95622764D01*
X148006095Y-95631066D01*
X148039580Y-95692389D01*
X148034596Y-95762081D01*
X147992726Y-95818013D01*
X147892809Y-95892812D01*
X147806649Y-96007906D01*
X147806646Y-96007911D01*
X147791182Y-96049374D01*
X147749310Y-96105307D01*
X147683846Y-96129724D01*
X147615573Y-96114872D01*
X147566168Y-96065467D01*
X147558818Y-96049374D01*
X147543353Y-96007911D01*
X147543350Y-96007906D01*
X147457190Y-95892812D01*
X147357273Y-95818013D01*
X147315403Y-95762079D01*
X147310419Y-95692387D01*
X147343903Y-95631067D01*
X147352206Y-95622765D01*
X147397585Y-95519991D01*
X147400500Y-95494865D01*
X147400500Y-95324500D01*
X147420185Y-95257461D01*
X147472989Y-95211706D01*
X147524500Y-95200500D01*
X147825501Y-95200500D01*
X147892540Y-95220185D01*
G37*
%TD.AperFunction*%
%TA.AperFunction,Conductor*%
G36*
X156272539Y-81839685D02*
G01*
X156318294Y-81892489D01*
X156329500Y-81944000D01*
X156329500Y-82920172D01*
X156329500Y-83019828D01*
X156367636Y-83111897D01*
X156438103Y-83182364D01*
X156530172Y-83220500D01*
X164710500Y-83220500D01*
X164777539Y-83240185D01*
X164823294Y-83292989D01*
X164834500Y-83344500D01*
X164834500Y-89849829D01*
X164872636Y-89941897D01*
X164943103Y-90012364D01*
X164951138Y-90015692D01*
X164993452Y-90033219D01*
X165047856Y-90077060D01*
X165069921Y-90143354D01*
X165070000Y-90147780D01*
X165070000Y-90610000D01*
X165769999Y-90610000D01*
X165769999Y-90561692D01*
X165769998Y-90561677D01*
X165759855Y-90462392D01*
X165706547Y-90301518D01*
X165706542Y-90301507D01*
X165668355Y-90239597D01*
X165649914Y-90172205D01*
X165670836Y-90105541D01*
X165724478Y-90060772D01*
X165773893Y-90050500D01*
X166125500Y-90050500D01*
X166192539Y-90070185D01*
X166238294Y-90122989D01*
X166249500Y-90174500D01*
X166249500Y-95553035D01*
X166229815Y-95620074D01*
X166177011Y-95665829D01*
X166107853Y-95675773D01*
X166044297Y-95646748D01*
X166037819Y-95640716D01*
X165961819Y-95564716D01*
X165928334Y-95503393D01*
X165925500Y-95477035D01*
X165925500Y-95123862D01*
X165925500Y-95123856D01*
X165915359Y-95039410D01*
X165862364Y-94905025D01*
X165862363Y-94905024D01*
X165862363Y-94905023D01*
X165784245Y-94802011D01*
X165775078Y-94789922D01*
X165775077Y-94789921D01*
X165662027Y-94704191D01*
X165620504Y-94647999D01*
X165615953Y-94578278D01*
X165631415Y-94540290D01*
X165706544Y-94418488D01*
X165706547Y-94418481D01*
X165759855Y-94257606D01*
X165769999Y-94158322D01*
X165770000Y-94158309D01*
X165770000Y-94110000D01*
X164944000Y-94110000D01*
X164876961Y-94090315D01*
X164831206Y-94037511D01*
X164820000Y-93986000D01*
X164820000Y-93860000D01*
X164694000Y-93860000D01*
X164626961Y-93840315D01*
X164581206Y-93787511D01*
X164570000Y-93736000D01*
X164570000Y-93610000D01*
X165070000Y-93610000D01*
X165769999Y-93610000D01*
X165769999Y-93561692D01*
X165769998Y-93561677D01*
X165759855Y-93462392D01*
X165706547Y-93301518D01*
X165706544Y-93301511D01*
X165628570Y-93175098D01*
X165610129Y-93107705D01*
X165628570Y-93044902D01*
X165706544Y-92918488D01*
X165706547Y-92918481D01*
X165759855Y-92757606D01*
X165769999Y-92658322D01*
X165770000Y-92658309D01*
X165770000Y-92610000D01*
X165070000Y-92610000D01*
X165070000Y-93610000D01*
X164570000Y-93610000D01*
X164570000Y-92110000D01*
X165070000Y-92110000D01*
X165769999Y-92110000D01*
X165769999Y-92061692D01*
X165769998Y-92061677D01*
X165759855Y-91962392D01*
X165706547Y-91801518D01*
X165706544Y-91801511D01*
X165628570Y-91675098D01*
X165610129Y-91607705D01*
X165628570Y-91544902D01*
X165706544Y-91418488D01*
X165706547Y-91418481D01*
X165759855Y-91257606D01*
X165769999Y-91158322D01*
X165770000Y-91158309D01*
X165770000Y-91110000D01*
X165070000Y-91110000D01*
X165070000Y-92110000D01*
X164570000Y-92110000D01*
X164570000Y-89884999D01*
X164546693Y-89885000D01*
X164546674Y-89885001D01*
X164447392Y-89895144D01*
X164286518Y-89948452D01*
X164286507Y-89948457D01*
X164142271Y-90037424D01*
X164142267Y-90037427D01*
X164022427Y-90157267D01*
X164022422Y-90157273D01*
X164012914Y-90172688D01*
X163960964Y-90219410D01*
X163892001Y-90230629D01*
X163832453Y-90206390D01*
X163794244Y-90177415D01*
X163769573Y-90158706D01*
X163728051Y-90102514D01*
X163720500Y-90059903D01*
X163720500Y-86476520D01*
X163737114Y-86414519D01*
X163754799Y-86383888D01*
X163768808Y-86331603D01*
X163785499Y-86269309D01*
X163785499Y-86150691D01*
X163769676Y-86091636D01*
X163754800Y-86036114D01*
X163714393Y-85966129D01*
X163695489Y-85933386D01*
X162836818Y-85074715D01*
X162803333Y-85013392D01*
X162800499Y-84987034D01*
X162800499Y-84330143D01*
X162800499Y-84330136D01*
X162798375Y-84311819D01*
X162797586Y-84305012D01*
X162797585Y-84305010D01*
X162797585Y-84305009D01*
X162752206Y-84202235D01*
X162672765Y-84122794D01*
X162569992Y-84077415D01*
X162544865Y-84074500D01*
X161455143Y-84074500D01*
X161455117Y-84074502D01*
X161430014Y-84077413D01*
X161421013Y-84079863D01*
X161420200Y-84076875D01*
X161366581Y-84083877D01*
X161316925Y-84064480D01*
X161203684Y-83988814D01*
X161203671Y-83988807D01*
X161021691Y-83913429D01*
X161021683Y-83913427D01*
X160980000Y-83905135D01*
X160980000Y-84665382D01*
X160929554Y-84614936D01*
X160855445Y-84572149D01*
X160772787Y-84550000D01*
X160687213Y-84550000D01*
X160604555Y-84572149D01*
X160530446Y-84614936D01*
X160469936Y-84675446D01*
X160427149Y-84749555D01*
X160405000Y-84832213D01*
X160405000Y-84917787D01*
X160427149Y-85000445D01*
X160469936Y-85074554D01*
X160520382Y-85125000D01*
X159669618Y-85125000D01*
X159720064Y-85074554D01*
X159762851Y-85000445D01*
X159785000Y-84917787D01*
X159785000Y-84832213D01*
X159762851Y-84749555D01*
X159720064Y-84675446D01*
X159659554Y-84614936D01*
X159585445Y-84572149D01*
X159502787Y-84550000D01*
X159417213Y-84550000D01*
X159334555Y-84572149D01*
X159260446Y-84614936D01*
X159210000Y-84665382D01*
X159210000Y-83905136D01*
X159209999Y-83905135D01*
X159710000Y-83905135D01*
X159710000Y-84625000D01*
X160480000Y-84625000D01*
X160480000Y-83905136D01*
X160479999Y-83905135D01*
X160438316Y-83913427D01*
X160438308Y-83913429D01*
X160256328Y-83988807D01*
X160256315Y-83988814D01*
X160163891Y-84050571D01*
X160097214Y-84071449D01*
X160029833Y-84052965D01*
X160026109Y-84050571D01*
X159933684Y-83988814D01*
X159933671Y-83988807D01*
X159751691Y-83913429D01*
X159751683Y-83913427D01*
X159710000Y-83905135D01*
X159209999Y-83905135D01*
X159168316Y-83913427D01*
X159168308Y-83913429D01*
X158986328Y-83988807D01*
X158986315Y-83988814D01*
X158822537Y-84098248D01*
X158822533Y-84098251D01*
X158752636Y-84168149D01*
X158691313Y-84201634D01*
X158621621Y-84196650D01*
X158596064Y-84183570D01*
X158569184Y-84165609D01*
X158569181Y-84165607D01*
X158569179Y-84165606D01*
X158569176Y-84165604D01*
X158569171Y-84165602D01*
X158423501Y-84105264D01*
X158423489Y-84105261D01*
X158268845Y-84074500D01*
X158268842Y-84074500D01*
X158111158Y-84074500D01*
X158111155Y-84074500D01*
X157956510Y-84105261D01*
X157956498Y-84105264D01*
X157810827Y-84165602D01*
X157810814Y-84165609D01*
X157679711Y-84253210D01*
X157679707Y-84253213D01*
X157642681Y-84290240D01*
X157581358Y-84323725D01*
X157511666Y-84318741D01*
X157467319Y-84290240D01*
X157430292Y-84253213D01*
X157430288Y-84253210D01*
X157299185Y-84165609D01*
X157299172Y-84165602D01*
X157153501Y-84105264D01*
X157153489Y-84105261D01*
X156998845Y-84074500D01*
X156998842Y-84074500D01*
X156841158Y-84074500D01*
X156841155Y-84074500D01*
X156686510Y-84105261D01*
X156686498Y-84105264D01*
X156540827Y-84165602D01*
X156540814Y-84165609D01*
X156409711Y-84253210D01*
X156409707Y-84253213D01*
X156298213Y-84364707D01*
X156298210Y-84364711D01*
X156210603Y-84495824D01*
X156210429Y-84496150D01*
X156210293Y-84496288D01*
X156207221Y-84500886D01*
X156206348Y-84500303D01*
X156161464Y-84545991D01*
X156093325Y-84561447D01*
X156027647Y-84537610D01*
X156013394Y-84525370D01*
X156006819Y-84518795D01*
X155973334Y-84457472D01*
X155970500Y-84431114D01*
X155970500Y-81944000D01*
X155990185Y-81876961D01*
X156042989Y-81831206D01*
X156094500Y-81820000D01*
X156205500Y-81820000D01*
X156272539Y-81839685D01*
G37*
%TD.AperFunction*%
%TA.AperFunction,Conductor*%
G36*
X154432539Y-88450185D02*
G01*
X154478294Y-88502989D01*
X154489500Y-88554500D01*
X154489500Y-88601975D01*
X154526613Y-88740480D01*
X154527017Y-88741988D01*
X154599488Y-88867511D01*
X154599493Y-88867517D01*
X154603181Y-88871205D01*
X154636666Y-88932528D01*
X154639500Y-88958886D01*
X154639500Y-89062273D01*
X154639500Y-89167727D01*
X154645602Y-89190500D01*
X154666793Y-89269589D01*
X154669177Y-89273718D01*
X154719520Y-89360913D01*
X154719522Y-89360915D01*
X155271426Y-89912819D01*
X155304911Y-89974142D01*
X155299927Y-90043834D01*
X155258055Y-90099767D01*
X155192591Y-90124184D01*
X155183745Y-90124500D01*
X154927130Y-90124500D01*
X154927123Y-90124501D01*
X154867516Y-90130908D01*
X154732671Y-90181202D01*
X154732664Y-90181206D01*
X154617455Y-90267452D01*
X154596171Y-90295884D01*
X154540236Y-90337755D01*
X154470545Y-90342738D01*
X154409224Y-90309253D01*
X154322765Y-90222794D01*
X154219992Y-90177415D01*
X154194865Y-90174500D01*
X153105143Y-90174500D01*
X153105117Y-90174502D01*
X153080012Y-90177413D01*
X153080008Y-90177415D01*
X152977235Y-90222793D01*
X152977234Y-90222794D01*
X152937681Y-90262348D01*
X152876358Y-90295833D01*
X152806666Y-90290849D01*
X152762319Y-90262348D01*
X152722765Y-90222794D01*
X152619992Y-90177415D01*
X152594865Y-90174500D01*
X151505143Y-90174500D01*
X151505117Y-90174502D01*
X151480012Y-90177413D01*
X151480008Y-90177415D01*
X151377235Y-90222793D01*
X151297794Y-90302234D01*
X151252415Y-90405006D01*
X151252415Y-90405008D01*
X151249500Y-90430131D01*
X151249500Y-90430137D01*
X151249501Y-91225500D01*
X151229817Y-91292539D01*
X151177013Y-91338294D01*
X151125501Y-91349500D01*
X150953936Y-91349500D01*
X150891936Y-91332887D01*
X150812485Y-91287016D01*
X150672475Y-91249500D01*
X150527525Y-91249500D01*
X150404432Y-91282483D01*
X150387511Y-91287017D01*
X150261988Y-91359488D01*
X150261982Y-91359493D01*
X150159493Y-91461982D01*
X150159488Y-91461988D01*
X150087017Y-91587511D01*
X150087016Y-91587515D01*
X150070907Y-91647636D01*
X150064738Y-91670658D01*
X150028372Y-91730318D01*
X149965525Y-91760847D01*
X149896150Y-91752552D01*
X149857282Y-91726245D01*
X149511819Y-91380782D01*
X149478334Y-91319459D01*
X149475500Y-91293101D01*
X149475500Y-91204386D01*
X149495185Y-91137347D01*
X149511819Y-91116705D01*
X149518524Y-91110000D01*
X149540509Y-91088015D01*
X149612984Y-90962485D01*
X149650500Y-90822475D01*
X149650500Y-90677525D01*
X149612984Y-90537515D01*
X149599664Y-90514445D01*
X149540511Y-90411988D01*
X149540506Y-90411982D01*
X149506585Y-90378061D01*
X149473100Y-90316738D01*
X149478084Y-90247046D01*
X149506583Y-90202701D01*
X151242467Y-88466819D01*
X151303790Y-88433334D01*
X151330148Y-88430500D01*
X153607273Y-88430500D01*
X154365500Y-88430500D01*
X154432539Y-88450185D01*
G37*
%TD.AperFunction*%
%TA.AperFunction,Conductor*%
G36*
X160138334Y-86701259D02*
G01*
X160182681Y-86729760D01*
X160219706Y-86766785D01*
X160219709Y-86766787D01*
X160219711Y-86766789D01*
X160274391Y-86803325D01*
X160319195Y-86856935D01*
X160329500Y-86906426D01*
X160329500Y-87288984D01*
X160325275Y-87321077D01*
X160305485Y-87394936D01*
X160305484Y-87394935D01*
X160299500Y-87417268D01*
X160299500Y-88255500D01*
X160279815Y-88322539D01*
X160227011Y-88368294D01*
X160175500Y-88379500D01*
X158322254Y-88379500D01*
X158255215Y-88359815D01*
X158209460Y-88307011D01*
X158202482Y-88287604D01*
X158172984Y-88177515D01*
X158108214Y-88065331D01*
X158100511Y-88051988D01*
X158100506Y-88051982D01*
X157998017Y-87949493D01*
X157998011Y-87949488D01*
X157872488Y-87877017D01*
X157872489Y-87877017D01*
X157851097Y-87871285D01*
X157732475Y-87839500D01*
X157587525Y-87839500D01*
X157468903Y-87871285D01*
X157447511Y-87877017D01*
X157335331Y-87941784D01*
X157335327Y-87941787D01*
X157321985Y-87949491D01*
X157219491Y-88051985D01*
X157211787Y-88065327D01*
X157211784Y-88065331D01*
X157147017Y-88177511D01*
X157147016Y-88177515D01*
X157109500Y-88317525D01*
X157109500Y-88462475D01*
X157147016Y-88602485D01*
X157147017Y-88602488D01*
X157219488Y-88728011D01*
X157219490Y-88728013D01*
X157219491Y-88728015D01*
X157321985Y-88830509D01*
X157321986Y-88830510D01*
X157321988Y-88830511D01*
X157447511Y-88902982D01*
X157447512Y-88902982D01*
X157447515Y-88902984D01*
X157587525Y-88940500D01*
X157592745Y-88940500D01*
X157659784Y-88960185D01*
X157680426Y-88976819D01*
X157804087Y-89100480D01*
X157895412Y-89153207D01*
X157997273Y-89180500D01*
X160175500Y-89180500D01*
X160242539Y-89200185D01*
X160288294Y-89252989D01*
X160299500Y-89304500D01*
X160299500Y-90535500D01*
X160279815Y-90602539D01*
X160227011Y-90648294D01*
X160175501Y-90659500D01*
X160005144Y-90659500D01*
X160005117Y-90659502D01*
X159970742Y-90663489D01*
X159970537Y-90661727D01*
X159929459Y-90661725D01*
X159929255Y-90663490D01*
X159919991Y-90662415D01*
X159894865Y-90659500D01*
X159505143Y-90659500D01*
X159505119Y-90659502D01*
X159480011Y-90662414D01*
X159471711Y-90664672D01*
X159416382Y-90666908D01*
X159350001Y-90654500D01*
X159350000Y-90654500D01*
X159247255Y-90654500D01*
X159180216Y-90634815D01*
X159159574Y-90618181D01*
X159120915Y-90579522D01*
X159120913Y-90579520D01*
X159048159Y-90537515D01*
X159029589Y-90526793D01*
X158953105Y-90506300D01*
X158927727Y-90499500D01*
X158927726Y-90499500D01*
X157598467Y-90499500D01*
X157531428Y-90479815D01*
X157485673Y-90427011D01*
X157482285Y-90418834D01*
X157468796Y-90382669D01*
X157468793Y-90382664D01*
X157382547Y-90267455D01*
X157382544Y-90267452D01*
X157267335Y-90181206D01*
X157267328Y-90181202D01*
X157132482Y-90130908D01*
X157132483Y-90130908D01*
X157072883Y-90124501D01*
X157072881Y-90124500D01*
X157072873Y-90124500D01*
X157072865Y-90124500D01*
X156667255Y-90124500D01*
X156600216Y-90104815D01*
X156579574Y-90088181D01*
X155503280Y-89011887D01*
X155469795Y-88950564D01*
X155474779Y-88880872D01*
X155483570Y-88862211D01*
X155552984Y-88741985D01*
X155590500Y-88601975D01*
X155590500Y-88554500D01*
X155610185Y-88487461D01*
X155662989Y-88441706D01*
X155714500Y-88430500D01*
X156382725Y-88430500D01*
X156382727Y-88430500D01*
X156484588Y-88403207D01*
X156575913Y-88350480D01*
X157240480Y-87685913D01*
X157293207Y-87594588D01*
X157320500Y-87492727D01*
X157320500Y-87387273D01*
X157320500Y-86906426D01*
X157340185Y-86839387D01*
X157375607Y-86803325D01*
X157430289Y-86766789D01*
X157444873Y-86752205D01*
X157467319Y-86729760D01*
X157528642Y-86696275D01*
X157598334Y-86701259D01*
X157642681Y-86729760D01*
X157679707Y-86766786D01*
X157679711Y-86766789D01*
X157810814Y-86854390D01*
X157810827Y-86854397D01*
X157893834Y-86888779D01*
X157956503Y-86914737D01*
X158111153Y-86945499D01*
X158111156Y-86945500D01*
X158111158Y-86945500D01*
X158268844Y-86945500D01*
X158268845Y-86945499D01*
X158423497Y-86914737D01*
X158561777Y-86857460D01*
X158569172Y-86854397D01*
X158569172Y-86854396D01*
X158569179Y-86854394D01*
X158700289Y-86766789D01*
X158714873Y-86752205D01*
X158737319Y-86729760D01*
X158798642Y-86696275D01*
X158868334Y-86701259D01*
X158912681Y-86729760D01*
X158949707Y-86766786D01*
X158949711Y-86766789D01*
X159080814Y-86854390D01*
X159080827Y-86854397D01*
X159163834Y-86888779D01*
X159226503Y-86914737D01*
X159381153Y-86945499D01*
X159381156Y-86945500D01*
X159381158Y-86945500D01*
X159538844Y-86945500D01*
X159538845Y-86945499D01*
X159693497Y-86914737D01*
X159831777Y-86857460D01*
X159839172Y-86854397D01*
X159839172Y-86854396D01*
X159839179Y-86854394D01*
X159970289Y-86766789D01*
X159984873Y-86752205D01*
X160007319Y-86729760D01*
X160068642Y-86696275D01*
X160138334Y-86701259D01*
G37*
%TD.AperFunction*%
%TA.AperFunction,Conductor*%
G36*
X153613834Y-83599717D02*
G01*
X153669767Y-83641589D01*
X153694184Y-83707053D01*
X153694500Y-83715899D01*
X153694500Y-87413101D01*
X153674815Y-87480140D01*
X153658181Y-87500782D01*
X153565782Y-87593181D01*
X153504459Y-87626666D01*
X153478101Y-87629500D01*
X151060166Y-87629500D01*
X150958303Y-87656793D01*
X150866980Y-87709520D01*
X150866977Y-87709522D01*
X149942181Y-88634318D01*
X149880858Y-88667803D01*
X149811166Y-88662819D01*
X149755233Y-88620947D01*
X149730816Y-88555483D01*
X149730500Y-88546637D01*
X149730500Y-87761899D01*
X149750185Y-87694860D01*
X149766819Y-87674218D01*
X150218292Y-87222745D01*
X150710475Y-86730563D01*
X150754453Y-86654389D01*
X150805019Y-86606175D01*
X150873626Y-86592951D01*
X150938491Y-86618919D01*
X150949521Y-86628709D01*
X151000535Y-86679723D01*
X151000540Y-86679727D01*
X151172442Y-86804620D01*
X151361782Y-86901095D01*
X151563871Y-86966757D01*
X151630000Y-86977231D01*
X151630000Y-86083012D01*
X151687007Y-86115925D01*
X151814174Y-86150000D01*
X151945826Y-86150000D01*
X152072993Y-86115925D01*
X152130000Y-86083012D01*
X152130000Y-86977230D01*
X152196126Y-86966757D01*
X152196129Y-86966757D01*
X152398217Y-86901095D01*
X152587557Y-86804620D01*
X152759459Y-86679727D01*
X152759464Y-86679723D01*
X152909723Y-86529464D01*
X152909727Y-86529459D01*
X153034620Y-86357557D01*
X153131095Y-86168217D01*
X153196757Y-85966129D01*
X153196757Y-85966126D01*
X153207231Y-85900000D01*
X152313012Y-85900000D01*
X152345925Y-85842993D01*
X152380000Y-85715826D01*
X152380000Y-85584174D01*
X152345925Y-85457007D01*
X152313012Y-85400000D01*
X153207231Y-85400000D01*
X153196757Y-85333873D01*
X153196757Y-85333870D01*
X153131095Y-85131782D01*
X153034620Y-84942442D01*
X152909727Y-84770540D01*
X152909723Y-84770535D01*
X152759466Y-84620278D01*
X152721290Y-84592542D01*
X152678624Y-84537212D01*
X152672645Y-84467599D01*
X152705250Y-84405803D01*
X152706420Y-84404616D01*
X153482819Y-83628218D01*
X153544142Y-83594733D01*
X153613834Y-83599717D01*
G37*
%TD.AperFunction*%
%TD*%
M02*
