%TF.GenerationSoftware,KiCad,Pcbnew,7.0.0-da2b9df05c~171~ubuntu20.04.1*%
%TF.CreationDate,2024-03-22T19:40:27+01:00*%
%TF.ProjectId,densor_nfc_v2,64656e73-6f72-45f6-9e66-635f76322e6b,rev?*%
%TF.SameCoordinates,Original*%
%TF.FileFunction,Copper,L2,Bot*%
%TF.FilePolarity,Positive*%
%FSLAX46Y46*%
G04 Gerber Fmt 4.6, Leading zero omitted, Abs format (unit mm)*
G04 Created by KiCad (PCBNEW 7.0.0-da2b9df05c~171~ubuntu20.04.1) date 2024-03-22 19:40:27*
%MOMM*%
%LPD*%
G01*
G04 APERTURE LIST*
%TA.AperFunction,ComponentPad*%
%ADD10R,1.000000X1.000000*%
%TD*%
%TA.AperFunction,ComponentPad*%
%ADD11O,1.000000X1.000000*%
%TD*%
%TA.AperFunction,ComponentPad*%
%ADD12R,1.700000X1.700000*%
%TD*%
%TA.AperFunction,ComponentPad*%
%ADD13O,1.700000X1.700000*%
%TD*%
%TA.AperFunction,ViaPad*%
%ADD14C,0.500000*%
%TD*%
%TA.AperFunction,Conductor*%
%ADD15C,0.150000*%
%TD*%
%TA.AperFunction,Conductor*%
%ADD16C,0.300000*%
%TD*%
%TA.AperFunction,Conductor*%
%ADD17C,0.200000*%
%TD*%
G04 APERTURE END LIST*
D10*
%TO.P,J1,1,VTref*%
%TO.N,/V_MCU*%
X161999999Y-84874999D03*
D11*
%TO.P,J1,2,SWDIO/TMS*%
%TO.N,/swdio*%
X161999999Y-86144999D03*
%TO.P,J1,3,GND*%
%TO.N,GND*%
X160729999Y-84874999D03*
%TO.P,J1,4,SWDCLK/TCK*%
%TO.N,/swclk*%
X160729999Y-86144999D03*
%TO.P,J1,5,GND*%
%TO.N,GND*%
X159459999Y-84874999D03*
%TO.P,J1,6,SWO/TDO*%
%TO.N,unconnected-(J1-SWO{slash}TDO-Pad6)*%
X159459999Y-86144999D03*
%TO.P,J1,7,KEY*%
%TO.N,unconnected-(J1-KEY-Pad7)*%
X158189999Y-84874999D03*
%TO.P,J1,8,NC/TDI*%
%TO.N,unconnected-(J1-NC{slash}TDI-Pad8)*%
X158189999Y-86144999D03*
%TO.P,J1,9,GNDDetect*%
%TO.N,unconnected-(J1-GNDDetect-Pad9)*%
X156919999Y-84874999D03*
%TO.P,J1,10,~{RESET}*%
%TO.N,/nRST_MCU*%
X156919999Y-86144999D03*
%TD*%
D12*
%TO.P,J3,1,Pin_1*%
%TO.N,/V_MCU*%
X144259999Y-85649999D03*
D13*
%TO.P,J3,2,Pin_2*%
%TO.N,/i2c_scl*%
X146799999Y-85649999D03*
%TO.P,J3,3,Pin_3*%
%TO.N,/i2c_sda*%
X149339999Y-85649999D03*
%TO.P,J3,4,Pin_4*%
%TO.N,GND*%
X151879999Y-85649999D03*
%TD*%
D14*
%TO.N,GND*%
X158400000Y-96000000D03*
X151200000Y-96900000D03*
X140777979Y-90723091D03*
X140700000Y-97480000D03*
X150300000Y-90600000D03*
X147600000Y-96150000D03*
X164850000Y-97500000D03*
X157220000Y-83700000D03*
X157950000Y-90150000D03*
X164850000Y-96300000D03*
X159450000Y-90150000D03*
X157350000Y-95700000D03*
%TO.N,/AC0*%
X136050000Y-95850000D03*
X132600000Y-93750000D03*
%TO.N,/V_MCU*%
X149550000Y-93600000D03*
X140954088Y-93196716D03*
X137900000Y-93575500D03*
X150600000Y-91800000D03*
%TO.N,/V_NFC_switched*%
X140910000Y-94100000D03*
X139658032Y-94064539D03*
%TO.N,/V_EH*%
X136050000Y-94950000D03*
X141900000Y-96000000D03*
%TO.N,/pd*%
X157514477Y-91900500D03*
X157800000Y-93300000D03*
%TO.N,/swdio*%
X161360000Y-88460000D03*
X155569500Y-84860000D03*
%TO.N,/swclk*%
X157660000Y-88390000D03*
X155160000Y-87290000D03*
%TO.N,/i2c_sda*%
X150750000Y-94249503D03*
X145950000Y-92250000D03*
X161700000Y-95700000D03*
X140375522Y-91663432D03*
X162450000Y-92100000D03*
%TO.N,/i2c_scl*%
X159450000Y-94800000D03*
X150600000Y-95250000D03*
X143850000Y-90900000D03*
X161700000Y-96900000D03*
X138870000Y-93345500D03*
%TO.N,/PSW*%
X154544500Y-86520000D03*
X155040000Y-88529500D03*
X150750000Y-93600000D03*
X157950000Y-91350000D03*
%TO.N,/NFC_SWITCH*%
X140032079Y-92247216D03*
X141978189Y-91290411D03*
X149100000Y-90750000D03*
X145484300Y-90284300D03*
%TD*%
D15*
%TO.N,/AC0*%
X134850000Y-91050000D02*
X134850000Y-97050000D01*
X135450000Y-90450000D02*
X135450000Y-95250000D01*
X133950000Y-96150000D02*
X121950000Y-96150000D01*
X121950000Y-96150000D02*
X121950000Y-91650000D01*
X134550000Y-91350000D02*
X134550000Y-96750000D01*
X133950000Y-91950000D02*
X133950000Y-96150000D01*
X134250000Y-91650000D02*
X134250000Y-96450000D01*
X121650000Y-96450000D02*
X121650000Y-91350000D01*
X121650000Y-91350000D02*
X134550000Y-91350000D01*
X133650000Y-95850000D02*
X122250000Y-95850000D01*
X134850000Y-97050000D02*
X121050000Y-97050000D01*
X121350000Y-91050000D02*
X134850000Y-91050000D01*
X122250000Y-91950000D02*
X133950000Y-91950000D01*
X133650000Y-92250000D02*
X133650000Y-95850000D01*
X121050000Y-97050000D02*
X121050000Y-90750000D01*
X133350000Y-92550000D02*
X133350000Y-95550000D01*
X134250000Y-96450000D02*
X121650000Y-96450000D01*
X122850000Y-92550000D02*
X133350000Y-92550000D01*
X135150000Y-90750000D02*
X135150000Y-97350000D01*
X122550000Y-92250000D02*
X133650000Y-92250000D01*
X122550000Y-95550000D02*
X122550000Y-92250000D01*
X134550000Y-96750000D02*
X121350000Y-96750000D01*
X120750000Y-97350000D02*
X120750000Y-90450000D01*
X120750000Y-90450000D02*
X135450000Y-90450000D01*
X132600000Y-93750000D02*
X131100000Y-95250000D01*
X122250000Y-95850000D02*
X122250000Y-91950000D01*
X122850000Y-95250000D02*
X122850000Y-92550000D01*
X135450000Y-95250000D02*
X136050000Y-95850000D01*
X121950000Y-91650000D02*
X134250000Y-91650000D01*
X131100000Y-95250000D02*
X122850000Y-95250000D01*
X135150000Y-97350000D02*
X120750000Y-97350000D01*
X121050000Y-90750000D02*
X135150000Y-90750000D01*
X121350000Y-96750000D02*
X121350000Y-91050000D01*
X133350000Y-95550000D02*
X122550000Y-95550000D01*
D16*
%TO.N,/V_MCU*%
X149550000Y-93600000D02*
X149550000Y-92850000D01*
D15*
X140435248Y-93425000D02*
X140260248Y-93600000D01*
X140954088Y-93196716D02*
X140725804Y-93425000D01*
X138144500Y-93820000D02*
X137900000Y-93575500D01*
X139854784Y-93589539D02*
X139461280Y-93589539D01*
D16*
X149550000Y-92850000D02*
X150600000Y-91800000D01*
D15*
X139865245Y-93600000D02*
X139854784Y-93589539D01*
X139230819Y-93820000D02*
X138144500Y-93820000D01*
X140260248Y-93600000D02*
X139865245Y-93600000D01*
X140725804Y-93425000D02*
X140435248Y-93425000D01*
X139461280Y-93589539D02*
X139230819Y-93820000D01*
%TO.N,/V_NFC_switched*%
X139658032Y-94064539D02*
X140874539Y-94064539D01*
X140874539Y-94064539D02*
X140910000Y-94100000D01*
D17*
%TO.N,/V_EH*%
X140850000Y-94950000D02*
X141900000Y-96000000D01*
X136050000Y-94950000D02*
X140850000Y-94950000D01*
%TO.N,/pd*%
X157800000Y-92186023D02*
X157800000Y-93300000D01*
X157514477Y-91900500D02*
X157800000Y-92186023D01*
%TO.N,/swdio*%
X156655785Y-86941446D02*
X155569500Y-85855161D01*
X161360000Y-88460000D02*
X159841446Y-86941446D01*
X159841446Y-86941446D02*
X156655785Y-86941446D01*
X155569500Y-85855161D02*
X155569500Y-84860000D01*
%TO.N,/swclk*%
X157660000Y-88390000D02*
X156260000Y-88390000D01*
X156260000Y-88390000D02*
X155160000Y-87290000D01*
D15*
%TO.N,/i2c_sda*%
X141860736Y-90425000D02*
X144125000Y-90425000D01*
X150750000Y-94249503D02*
X160249503Y-94249503D01*
X160249503Y-94249503D02*
X162399006Y-92100000D01*
X140375522Y-91663432D02*
X140622304Y-91663432D01*
X141199999Y-91085737D02*
X141860736Y-90425000D01*
X144125000Y-90425000D02*
X145950000Y-92250000D01*
X162399006Y-92100000D02*
X162450000Y-92100000D01*
X140622304Y-91663432D02*
X141199999Y-91085737D01*
X160249503Y-94249503D02*
X161700000Y-95700000D01*
%TO.N,/i2c_scl*%
X145744500Y-95250000D02*
X150600000Y-95250000D01*
X150600000Y-95250000D02*
X151200000Y-94650000D01*
X143216216Y-92721716D02*
X145744500Y-95250000D01*
X151200000Y-94650000D02*
X158400000Y-94650000D01*
X159000000Y-95250000D02*
X160050000Y-95250000D01*
X160050000Y-95250000D02*
X161700000Y-96900000D01*
X143216216Y-92721716D02*
X143850000Y-92087932D01*
X143850000Y-92087932D02*
X143850000Y-90900000D01*
X139493784Y-92721716D02*
X143216216Y-92721716D01*
X159000000Y-95250000D02*
X159450000Y-94800000D01*
X138870000Y-93345500D02*
X139493784Y-92721716D01*
X158400000Y-94650000D02*
X159000000Y-95250000D01*
D17*
%TO.N,/PSW*%
X153000000Y-91350000D02*
X150750000Y-93600000D01*
X154544500Y-88034000D02*
X154544500Y-86520000D01*
X155040000Y-88529500D02*
X154544500Y-88034000D01*
X157950000Y-91350000D02*
X153000000Y-91350000D01*
D15*
%TO.N,/NFC_SWITCH*%
X140462784Y-92247216D02*
X141419589Y-91290411D01*
X140032079Y-92247216D02*
X140462784Y-92247216D01*
X141419589Y-91290411D02*
X141978189Y-91290411D01*
X145950000Y-90750000D02*
X145484300Y-90284300D01*
X149100000Y-90750000D02*
X145950000Y-90750000D01*
%TD*%
%TA.AperFunction,Conductor*%
%TO.N,GND*%
G36*
X156267500Y-79547113D02*
G01*
X156312887Y-79592500D01*
X156329500Y-79654500D01*
X156329500Y-82933115D01*
X156327116Y-82957306D01*
X156324592Y-82970000D01*
X156326975Y-82981980D01*
X156329500Y-82994674D01*
X156341650Y-83055759D01*
X156341651Y-83055762D01*
X156344034Y-83067740D01*
X156399399Y-83150601D01*
X156482260Y-83205966D01*
X156580000Y-83225408D01*
X156591980Y-83223025D01*
X156592694Y-83222883D01*
X156616885Y-83220500D01*
X164710500Y-83220500D01*
X164772500Y-83237113D01*
X164817887Y-83282500D01*
X164834500Y-83344500D01*
X164834500Y-89763115D01*
X164832116Y-89787306D01*
X164829592Y-89800000D01*
X164831975Y-89811980D01*
X164846650Y-89885759D01*
X164846651Y-89885762D01*
X164849034Y-89897740D01*
X164904399Y-89980601D01*
X164987260Y-90035966D01*
X164998787Y-90038259D01*
X165085000Y-90055408D01*
X165096980Y-90053025D01*
X165097694Y-90052883D01*
X165121885Y-90050500D01*
X166125500Y-90050500D01*
X166187500Y-90067113D01*
X166232887Y-90112500D01*
X166249500Y-90174500D01*
X166249500Y-97745500D01*
X166232887Y-97807500D01*
X166187500Y-97852887D01*
X166125500Y-97869500D01*
X135460796Y-97869500D01*
X135401780Y-97854555D01*
X135356989Y-97813324D01*
X135337220Y-97755743D01*
X135347238Y-97695694D01*
X135381490Y-97651682D01*
X135383826Y-97650419D01*
X135390788Y-97642854D01*
X135395158Y-97639453D01*
X135399227Y-97635707D01*
X135407836Y-97630084D01*
X135433636Y-97596934D01*
X135440261Y-97589114D01*
X135461741Y-97565781D01*
X135468703Y-97558219D01*
X135472831Y-97548805D01*
X135475856Y-97544176D01*
X135478493Y-97539302D01*
X135484809Y-97531189D01*
X135498449Y-97491452D01*
X135502162Y-97481936D01*
X135519043Y-97443454D01*
X135519891Y-97433214D01*
X135521250Y-97427850D01*
X135522162Y-97422380D01*
X135525500Y-97412660D01*
X135525500Y-97370654D01*
X135525924Y-97360414D01*
X135528543Y-97328803D01*
X135529392Y-97318563D01*
X135526869Y-97308601D01*
X135526021Y-97298360D01*
X135526815Y-97298294D01*
X135525500Y-97287736D01*
X135525500Y-96392875D01*
X135544199Y-96327395D01*
X135594656Y-96281663D01*
X135661654Y-96269472D01*
X135724986Y-96294499D01*
X135765923Y-96325911D01*
X135765927Y-96325913D01*
X135772375Y-96330861D01*
X135906291Y-96386330D01*
X136050000Y-96405250D01*
X136193709Y-96386330D01*
X136327625Y-96330861D01*
X136442621Y-96242621D01*
X136530861Y-96127625D01*
X136586330Y-95993709D01*
X136605250Y-95850000D01*
X136586330Y-95706291D01*
X136530861Y-95572375D01*
X136513682Y-95549987D01*
X136488655Y-95486654D01*
X136500846Y-95419656D01*
X136546578Y-95369199D01*
X136612058Y-95350500D01*
X140632745Y-95350500D01*
X140680198Y-95359939D01*
X140720426Y-95386819D01*
X141316675Y-95983067D01*
X141340206Y-96015904D01*
X141351933Y-96054562D01*
X141360563Y-96120114D01*
X141363670Y-96143709D01*
X141366781Y-96151220D01*
X141366782Y-96151223D01*
X141401971Y-96236178D01*
X141419139Y-96277625D01*
X141424084Y-96284069D01*
X141424085Y-96284071D01*
X141500163Y-96383217D01*
X141507379Y-96392621D01*
X141622375Y-96480861D01*
X141756291Y-96536330D01*
X141900000Y-96555250D01*
X142043709Y-96536330D01*
X142177625Y-96480861D01*
X142292621Y-96392621D01*
X142380861Y-96277625D01*
X142436330Y-96143709D01*
X142455250Y-96000000D01*
X142436330Y-95856291D01*
X142380861Y-95722375D01*
X142292621Y-95607379D01*
X142272291Y-95591779D01*
X142184071Y-95524085D01*
X142184069Y-95524084D01*
X142177625Y-95519139D01*
X142102402Y-95487981D01*
X142051223Y-95466782D01*
X142051220Y-95466781D01*
X142043709Y-95463670D01*
X142035649Y-95462608D01*
X142035646Y-95462608D01*
X141954562Y-95451933D01*
X141915904Y-95440206D01*
X141883067Y-95416675D01*
X141516892Y-95050500D01*
X141208178Y-94741786D01*
X141174800Y-94680945D01*
X141179339Y-94611696D01*
X141220375Y-94555731D01*
X141296175Y-94497567D01*
X141296174Y-94497567D01*
X141302621Y-94492621D01*
X141390861Y-94377625D01*
X141446330Y-94243709D01*
X141465250Y-94100000D01*
X141446330Y-93956291D01*
X141390861Y-93822375D01*
X141385913Y-93815927D01*
X141385911Y-93815923D01*
X141336061Y-93750958D01*
X141312319Y-93697000D01*
X141316177Y-93638176D01*
X141345043Y-93590614D01*
X141346709Y-93589337D01*
X141434949Y-93474341D01*
X141490418Y-93340425D01*
X141508243Y-93205029D01*
X141529607Y-93150093D01*
X141573925Y-93111227D01*
X141631182Y-93097216D01*
X143009317Y-93097216D01*
X143056770Y-93106655D01*
X143096998Y-93133535D01*
X145442350Y-95478887D01*
X145458474Y-95498741D01*
X145464416Y-95507836D01*
X145472518Y-95514142D01*
X145472521Y-95514145D01*
X145489394Y-95527277D01*
X145493311Y-95530737D01*
X145493445Y-95530580D01*
X145497354Y-95533891D01*
X145500983Y-95537520D01*
X145505155Y-95540498D01*
X145505160Y-95540503D01*
X145517895Y-95549595D01*
X145521999Y-95552655D01*
X145563311Y-95584809D01*
X145570831Y-95587390D01*
X145577301Y-95592010D01*
X145587148Y-95594941D01*
X145587151Y-95594943D01*
X145627460Y-95606943D01*
X145632304Y-95608494D01*
X145681840Y-95625500D01*
X145689791Y-95625500D01*
X145697412Y-95627769D01*
X145749706Y-95625605D01*
X145754831Y-95625500D01*
X150142973Y-95625500D01*
X150182832Y-95632081D01*
X150218460Y-95651124D01*
X150315927Y-95725914D01*
X150315930Y-95725916D01*
X150322375Y-95730861D01*
X150456291Y-95786330D01*
X150600000Y-95805250D01*
X150743709Y-95786330D01*
X150877625Y-95730861D01*
X150992621Y-95642621D01*
X151080861Y-95527625D01*
X151136330Y-95393709D01*
X151153426Y-95263847D01*
X151165154Y-95225188D01*
X151188682Y-95192354D01*
X151319220Y-95061816D01*
X151359446Y-95034939D01*
X151406899Y-95025500D01*
X158193101Y-95025500D01*
X158240554Y-95034939D01*
X158280782Y-95061819D01*
X158697850Y-95478887D01*
X158713974Y-95498741D01*
X158719916Y-95507836D01*
X158728018Y-95514142D01*
X158728023Y-95514147D01*
X158728485Y-95514506D01*
X158746942Y-95532216D01*
X158747312Y-95532653D01*
X158747315Y-95532656D01*
X158753959Y-95540500D01*
X158762787Y-95545760D01*
X158762788Y-95545761D01*
X158781143Y-95556698D01*
X158793832Y-95565367D01*
X158818811Y-95584809D01*
X158826331Y-95587390D01*
X158832801Y-95592010D01*
X158842654Y-95594943D01*
X158847635Y-95597378D01*
X158852786Y-95599388D01*
X158861615Y-95604649D01*
X158892587Y-95611143D01*
X158907397Y-95615220D01*
X158937340Y-95625500D01*
X158945294Y-95625500D01*
X158952912Y-95627768D01*
X158963180Y-95627343D01*
X158968690Y-95628030D01*
X158974211Y-95628258D01*
X158984268Y-95630367D01*
X159015676Y-95626451D01*
X159031014Y-95625500D01*
X159843101Y-95625500D01*
X159890554Y-95634939D01*
X159930782Y-95661819D01*
X161111315Y-96842352D01*
X161134846Y-96875189D01*
X161146573Y-96913847D01*
X161163670Y-97043709D01*
X161219139Y-97177625D01*
X161307379Y-97292621D01*
X161422375Y-97380861D01*
X161556291Y-97436330D01*
X161700000Y-97455250D01*
X161843709Y-97436330D01*
X161977625Y-97380861D01*
X162092621Y-97292621D01*
X162180861Y-97177625D01*
X162236330Y-97043709D01*
X162255250Y-96900000D01*
X162236330Y-96756291D01*
X162180861Y-96622375D01*
X162092621Y-96507379D01*
X161977625Y-96419139D01*
X161966572Y-96414561D01*
X161919735Y-96380533D01*
X161893450Y-96328948D01*
X161893450Y-96271052D01*
X161919735Y-96219467D01*
X161966572Y-96185438D01*
X161977625Y-96180861D01*
X162092621Y-96092621D01*
X162180861Y-95977625D01*
X162236330Y-95843709D01*
X162255250Y-95700000D01*
X162236330Y-95556291D01*
X162180861Y-95422375D01*
X162092621Y-95307379D01*
X161977625Y-95219139D01*
X161912950Y-95192350D01*
X161851223Y-95166782D01*
X161851220Y-95166781D01*
X161843709Y-95163670D01*
X161835649Y-95162608D01*
X161835646Y-95162608D01*
X161713848Y-95146573D01*
X161675190Y-95134846D01*
X161642353Y-95111315D01*
X160868221Y-94337183D01*
X160836127Y-94281596D01*
X160836127Y-94217408D01*
X160868221Y-94161821D01*
X161598251Y-93431791D01*
X162340303Y-92689738D01*
X162388125Y-92660001D01*
X162433814Y-92655502D01*
X162433814Y-92654189D01*
X162441941Y-92654189D01*
X162450000Y-92655250D01*
X162593709Y-92636330D01*
X162727625Y-92580861D01*
X162842621Y-92492621D01*
X162930861Y-92377625D01*
X162986330Y-92243709D01*
X163005250Y-92100000D01*
X162986330Y-91956291D01*
X162930861Y-91822375D01*
X162842621Y-91707379D01*
X162829833Y-91697566D01*
X162734071Y-91624085D01*
X162734069Y-91624084D01*
X162727625Y-91619139D01*
X162691592Y-91604214D01*
X162601223Y-91566782D01*
X162601220Y-91566781D01*
X162593709Y-91563670D01*
X162585649Y-91562608D01*
X162585646Y-91562608D01*
X162458059Y-91545811D01*
X162450000Y-91544750D01*
X162441941Y-91545811D01*
X162314353Y-91562608D01*
X162314348Y-91562609D01*
X162306291Y-91563670D01*
X162298781Y-91566780D01*
X162298776Y-91566782D01*
X162179885Y-91616028D01*
X162179883Y-91616029D01*
X162172375Y-91619139D01*
X162165933Y-91624082D01*
X162165928Y-91624085D01*
X162063821Y-91702435D01*
X162063817Y-91702438D01*
X162057379Y-91707379D01*
X162052438Y-91713817D01*
X162052435Y-91713821D01*
X161974085Y-91815928D01*
X161974082Y-91815933D01*
X161969139Y-91822375D01*
X161966029Y-91829883D01*
X161966028Y-91829885D01*
X161916782Y-91948776D01*
X161916780Y-91948781D01*
X161913670Y-91956291D01*
X161912609Y-91964348D01*
X161912608Y-91964353D01*
X161904304Y-92027427D01*
X161892577Y-92066084D01*
X161869046Y-92098921D01*
X160130284Y-93837684D01*
X160090056Y-93864564D01*
X160042603Y-93874003D01*
X158304890Y-93874003D01*
X158239410Y-93855304D01*
X158193678Y-93804847D01*
X158181487Y-93737849D01*
X158206514Y-93674517D01*
X158275911Y-93584076D01*
X158275911Y-93584075D01*
X158280861Y-93577625D01*
X158336330Y-93443709D01*
X158355250Y-93300000D01*
X158336330Y-93156291D01*
X158280861Y-93022375D01*
X158275915Y-93015930D01*
X158275911Y-93015922D01*
X158226125Y-92951041D01*
X158207081Y-92915413D01*
X158200500Y-92875554D01*
X158200500Y-92154516D01*
X158200499Y-92154492D01*
X158200499Y-92132350D01*
X158200499Y-92122590D01*
X158193652Y-92101518D01*
X158189111Y-92082601D01*
X158188323Y-92077625D01*
X158185646Y-92060719D01*
X158175583Y-92040969D01*
X158168142Y-92023006D01*
X158161296Y-92001933D01*
X158159593Y-91999590D01*
X158147230Y-91937442D01*
X158170536Y-91874279D01*
X158214157Y-91839899D01*
X158213080Y-91838033D01*
X158220113Y-91833972D01*
X158227625Y-91830861D01*
X158342621Y-91742621D01*
X158430861Y-91627625D01*
X158486330Y-91493709D01*
X158505250Y-91350000D01*
X158486330Y-91206291D01*
X158430861Y-91072375D01*
X158342621Y-90957379D01*
X158332353Y-90949500D01*
X158234071Y-90874085D01*
X158234069Y-90874084D01*
X158227625Y-90869139D01*
X158162641Y-90842222D01*
X158101223Y-90816782D01*
X158101220Y-90816781D01*
X158093709Y-90813670D01*
X158085649Y-90812608D01*
X158085646Y-90812608D01*
X157958059Y-90795811D01*
X157950000Y-90794750D01*
X157941941Y-90795811D01*
X157814353Y-90812608D01*
X157814348Y-90812609D01*
X157806291Y-90813670D01*
X157798781Y-90816780D01*
X157798776Y-90816782D01*
X157679885Y-90866028D01*
X157679883Y-90866029D01*
X157672375Y-90869139D01*
X157665935Y-90874080D01*
X157665922Y-90874088D01*
X157601041Y-90923875D01*
X157565413Y-90942919D01*
X157525554Y-90949500D01*
X153063433Y-90949500D01*
X152936567Y-90949500D01*
X152927285Y-90952515D01*
X152927281Y-90952516D01*
X152915490Y-90956347D01*
X152896587Y-90960885D01*
X152884333Y-90962826D01*
X152884325Y-90962828D01*
X152874696Y-90964354D01*
X152866006Y-90968781D01*
X152866001Y-90968783D01*
X152854953Y-90974412D01*
X152836990Y-90981853D01*
X152825189Y-90985687D01*
X152825182Y-90985690D01*
X152815911Y-90988703D01*
X152808022Y-90994434D01*
X152808015Y-90994438D01*
X152797980Y-91001729D01*
X152781398Y-91011891D01*
X152770352Y-91017519D01*
X152770347Y-91017522D01*
X152761658Y-91021950D01*
X152754759Y-91028848D01*
X152754757Y-91028850D01*
X152739091Y-91044516D01*
X150766930Y-93016675D01*
X150734093Y-93040206D01*
X150695436Y-93051933D01*
X150614353Y-93062608D01*
X150614348Y-93062609D01*
X150606291Y-93063670D01*
X150598781Y-93066780D01*
X150598776Y-93066782D01*
X150479885Y-93116028D01*
X150479883Y-93116029D01*
X150472375Y-93119139D01*
X150465933Y-93124082D01*
X150465928Y-93124085D01*
X150363821Y-93202435D01*
X150363817Y-93202438D01*
X150357379Y-93207379D01*
X150352438Y-93213817D01*
X150352435Y-93213821D01*
X150274085Y-93315928D01*
X150274082Y-93315933D01*
X150269139Y-93322375D01*
X150264559Y-93333431D01*
X150230531Y-93380266D01*
X150178947Y-93406549D01*
X150121053Y-93406549D01*
X150069469Y-93380266D01*
X150035440Y-93333431D01*
X150030861Y-93322375D01*
X150025913Y-93315927D01*
X150021848Y-93308885D01*
X150022127Y-93308723D01*
X150007081Y-93280575D01*
X150000500Y-93240715D01*
X150000500Y-93087966D01*
X150009939Y-93040513D01*
X150036819Y-93000285D01*
X150136094Y-92901010D01*
X150664501Y-92372600D01*
X150697339Y-92349070D01*
X150727883Y-92339806D01*
X150727800Y-92339494D01*
X150735646Y-92337391D01*
X150743709Y-92336330D01*
X150877625Y-92280861D01*
X150992621Y-92192621D01*
X151080861Y-92077625D01*
X151136330Y-91943709D01*
X151155250Y-91800000D01*
X151136330Y-91656291D01*
X151080861Y-91522375D01*
X150992621Y-91407379D01*
X150928346Y-91358059D01*
X150884071Y-91324085D01*
X150884069Y-91324084D01*
X150877625Y-91319139D01*
X150813604Y-91292621D01*
X150751223Y-91266782D01*
X150751220Y-91266781D01*
X150743709Y-91263670D01*
X150735649Y-91262608D01*
X150735646Y-91262608D01*
X150608059Y-91245811D01*
X150600000Y-91244750D01*
X150591941Y-91245811D01*
X150464353Y-91262608D01*
X150464348Y-91262609D01*
X150456291Y-91263670D01*
X150448781Y-91266780D01*
X150448776Y-91266782D01*
X150329885Y-91316028D01*
X150329883Y-91316029D01*
X150322375Y-91319139D01*
X150315933Y-91324082D01*
X150315928Y-91324085D01*
X150213821Y-91402435D01*
X150213817Y-91402438D01*
X150207379Y-91407379D01*
X150202438Y-91413817D01*
X150202435Y-91413821D01*
X150124085Y-91515928D01*
X150124082Y-91515933D01*
X150119139Y-91522375D01*
X150116029Y-91529883D01*
X150116028Y-91529885D01*
X150066782Y-91648776D01*
X150066780Y-91648781D01*
X150063670Y-91656291D01*
X150062608Y-91664352D01*
X150060506Y-91672200D01*
X150060194Y-91672116D01*
X150050925Y-91702666D01*
X150027396Y-91735499D01*
X149254263Y-92508632D01*
X149243898Y-92517895D01*
X149223297Y-92534324D01*
X149223291Y-92534329D01*
X149216030Y-92540121D01*
X149210797Y-92547795D01*
X149210796Y-92547797D01*
X149183824Y-92587356D01*
X149181144Y-92591132D01*
X149152724Y-92629641D01*
X149152721Y-92629646D01*
X149147207Y-92637118D01*
X149144370Y-92645224D01*
X149139528Y-92652327D01*
X149136791Y-92661199D01*
X149136788Y-92661206D01*
X149122672Y-92706968D01*
X149121225Y-92711367D01*
X149113316Y-92733971D01*
X149102354Y-92765301D01*
X149102032Y-92773886D01*
X149099500Y-92782098D01*
X149099500Y-92791385D01*
X149099500Y-92839262D01*
X149099413Y-92843899D01*
X149097623Y-92891719D01*
X149097623Y-92891723D01*
X149097276Y-92901010D01*
X149099071Y-92907712D01*
X149099500Y-92915342D01*
X149099500Y-93240715D01*
X149092919Y-93280575D01*
X149077872Y-93308723D01*
X149078152Y-93308885D01*
X149074085Y-93315928D01*
X149069139Y-93322375D01*
X149066030Y-93329881D01*
X149066028Y-93329885D01*
X149016782Y-93448776D01*
X149016780Y-93448781D01*
X149013670Y-93456291D01*
X149012609Y-93464348D01*
X149012608Y-93464353D01*
X148996846Y-93584076D01*
X148994750Y-93600000D01*
X148995811Y-93608059D01*
X149012367Y-93733819D01*
X149013670Y-93743709D01*
X149016781Y-93751220D01*
X149016782Y-93751223D01*
X149046254Y-93822375D01*
X149069139Y-93877625D01*
X149157379Y-93992621D01*
X149272375Y-94080861D01*
X149406291Y-94136330D01*
X149550000Y-94155250D01*
X149693709Y-94136330D01*
X149827625Y-94080861D01*
X149942621Y-93992621D01*
X150030861Y-93877625D01*
X150035438Y-93866572D01*
X150069467Y-93819735D01*
X150121052Y-93793450D01*
X150178948Y-93793450D01*
X150230533Y-93819735D01*
X150264562Y-93866574D01*
X150269005Y-93877301D01*
X150278443Y-93924752D01*
X150269004Y-93972203D01*
X150216782Y-94098279D01*
X150216780Y-94098284D01*
X150213670Y-94105794D01*
X150212609Y-94113851D01*
X150212608Y-94113856D01*
X150201734Y-94196452D01*
X150194750Y-94249503D01*
X150195811Y-94257562D01*
X150212466Y-94384071D01*
X150213670Y-94393212D01*
X150216781Y-94400723D01*
X150216782Y-94400726D01*
X150247169Y-94474088D01*
X150269139Y-94527128D01*
X150274084Y-94533572D01*
X150274085Y-94533574D01*
X150330263Y-94606786D01*
X150354826Y-94666087D01*
X150346448Y-94729725D01*
X150307374Y-94780648D01*
X150218460Y-94848875D01*
X150182832Y-94867919D01*
X150142973Y-94874500D01*
X145951399Y-94874500D01*
X145903946Y-94865061D01*
X145863718Y-94838181D01*
X143834934Y-92809396D01*
X143802840Y-92753809D01*
X143802840Y-92689621D01*
X143834934Y-92634034D01*
X143893054Y-92575914D01*
X144078893Y-92390075D01*
X144098748Y-92373952D01*
X144107836Y-92368016D01*
X144127271Y-92343043D01*
X144130744Y-92339140D01*
X144130573Y-92338995D01*
X144133885Y-92335084D01*
X144137520Y-92331450D01*
X144149608Y-92314517D01*
X144152647Y-92310440D01*
X144184809Y-92269121D01*
X144187390Y-92261600D01*
X144192010Y-92255131D01*
X144206955Y-92204927D01*
X144208479Y-92200170D01*
X144225500Y-92150592D01*
X144225500Y-92142638D01*
X144227768Y-92135020D01*
X144225606Y-92082739D01*
X144225500Y-92077616D01*
X144225500Y-91357027D01*
X144232055Y-91317245D01*
X144251026Y-91281669D01*
X144251515Y-91281030D01*
X144307477Y-91239903D01*
X144376775Y-91235316D01*
X144437669Y-91268706D01*
X144904142Y-91735180D01*
X145361315Y-92192353D01*
X145384846Y-92225190D01*
X145396573Y-92263848D01*
X145412453Y-92384471D01*
X145413670Y-92393709D01*
X145416781Y-92401220D01*
X145416782Y-92401223D01*
X145442580Y-92463505D01*
X145469139Y-92527625D01*
X145474084Y-92534069D01*
X145474085Y-92534071D01*
X145512375Y-92583971D01*
X145557379Y-92642621D01*
X145672375Y-92730861D01*
X145806291Y-92786330D01*
X145950000Y-92805250D01*
X146093709Y-92786330D01*
X146227625Y-92730861D01*
X146342621Y-92642621D01*
X146430861Y-92527625D01*
X146486330Y-92393709D01*
X146505250Y-92250000D01*
X146486330Y-92106291D01*
X146430861Y-91972375D01*
X146342621Y-91857379D01*
X146227625Y-91769139D01*
X146145640Y-91735180D01*
X146101223Y-91716782D01*
X146101220Y-91716781D01*
X146093709Y-91713670D01*
X146085649Y-91712608D01*
X146085646Y-91712608D01*
X145963848Y-91696573D01*
X145925190Y-91684846D01*
X145892353Y-91661315D01*
X145266163Y-91035125D01*
X145234950Y-90982662D01*
X145232554Y-90921663D01*
X145259554Y-90866912D01*
X145309407Y-90831680D01*
X145370026Y-90824505D01*
X145470455Y-90837727D01*
X145509110Y-90849453D01*
X145541947Y-90872984D01*
X145647850Y-90978887D01*
X145663974Y-90998741D01*
X145669916Y-91007836D01*
X145678018Y-91014142D01*
X145678021Y-91014145D01*
X145694894Y-91027277D01*
X145698808Y-91030734D01*
X145698942Y-91030577D01*
X145702848Y-91033885D01*
X145706482Y-91037519D01*
X145715152Y-91043709D01*
X145723389Y-91049590D01*
X145727500Y-91052655D01*
X145768811Y-91084809D01*
X145776331Y-91087390D01*
X145782801Y-91092010D01*
X145810492Y-91100254D01*
X145832940Y-91106937D01*
X145837822Y-91108501D01*
X145863109Y-91117181D01*
X145887340Y-91125500D01*
X145895293Y-91125500D01*
X145902911Y-91127768D01*
X145955191Y-91125606D01*
X145960315Y-91125500D01*
X148642973Y-91125500D01*
X148682832Y-91132081D01*
X148718460Y-91151124D01*
X148815927Y-91225914D01*
X148815930Y-91225916D01*
X148822375Y-91230861D01*
X148956291Y-91286330D01*
X149100000Y-91305250D01*
X149243709Y-91286330D01*
X149377625Y-91230861D01*
X149492621Y-91142621D01*
X149580861Y-91027625D01*
X149636330Y-90893709D01*
X149655250Y-90750000D01*
X149636330Y-90606291D01*
X149580861Y-90472375D01*
X149492621Y-90357379D01*
X149481540Y-90348876D01*
X149384071Y-90274085D01*
X149384069Y-90274084D01*
X149377625Y-90269139D01*
X149311576Y-90241781D01*
X149251223Y-90216782D01*
X149251220Y-90216781D01*
X149243709Y-90213670D01*
X149235649Y-90212608D01*
X149235646Y-90212608D01*
X149108059Y-90195811D01*
X149100000Y-90194750D01*
X149091941Y-90195811D01*
X148964353Y-90212608D01*
X148964348Y-90212609D01*
X148956291Y-90213670D01*
X148948781Y-90216780D01*
X148948776Y-90216782D01*
X148829885Y-90266028D01*
X148829883Y-90266029D01*
X148822375Y-90269139D01*
X148815936Y-90274079D01*
X148815927Y-90274085D01*
X148718460Y-90348876D01*
X148682832Y-90367919D01*
X148642973Y-90374500D01*
X146160170Y-90374500D01*
X146102913Y-90360489D01*
X146058595Y-90321624D01*
X146037231Y-90266686D01*
X146029167Y-90205437D01*
X146020630Y-90140591D01*
X145965161Y-90006675D01*
X145876921Y-89891679D01*
X145856174Y-89875759D01*
X145768371Y-89808385D01*
X145768369Y-89808384D01*
X145761925Y-89803439D01*
X145700557Y-89778020D01*
X145635523Y-89751082D01*
X145635520Y-89751081D01*
X145628009Y-89747970D01*
X145619949Y-89746908D01*
X145619946Y-89746908D01*
X145492359Y-89730111D01*
X145484300Y-89729050D01*
X145476241Y-89730111D01*
X145348653Y-89746908D01*
X145348648Y-89746909D01*
X145340591Y-89747970D01*
X145333081Y-89751080D01*
X145333076Y-89751082D01*
X145214185Y-89800328D01*
X145214183Y-89800329D01*
X145206675Y-89803439D01*
X145200233Y-89808382D01*
X145200228Y-89808385D01*
X145098121Y-89886735D01*
X145098117Y-89886738D01*
X145091679Y-89891679D01*
X145086738Y-89898117D01*
X145086735Y-89898121D01*
X145008385Y-90000228D01*
X145008382Y-90000233D01*
X145003439Y-90006675D01*
X145000329Y-90014183D01*
X145000328Y-90014185D01*
X144951082Y-90133076D01*
X144951080Y-90133081D01*
X144947970Y-90140591D01*
X144946909Y-90148648D01*
X144946908Y-90148653D01*
X144932736Y-90256300D01*
X144929050Y-90284300D01*
X144930111Y-90292359D01*
X144930111Y-90292360D01*
X144944094Y-90398570D01*
X144936919Y-90459192D01*
X144901687Y-90509045D01*
X144846936Y-90536045D01*
X144785937Y-90533649D01*
X144733474Y-90502436D01*
X144427150Y-90196112D01*
X144411022Y-90176251D01*
X144410706Y-90175768D01*
X144410703Y-90175765D01*
X144405084Y-90167164D01*
X144380109Y-90147725D01*
X144376190Y-90144264D01*
X144376058Y-90144421D01*
X144372143Y-90141105D01*
X144368518Y-90137480D01*
X144351591Y-90125395D01*
X144347481Y-90122330D01*
X144314297Y-90096502D01*
X144306189Y-90090191D01*
X144298668Y-90087609D01*
X144292199Y-90082990D01*
X144282353Y-90080058D01*
X144282350Y-90080057D01*
X144242043Y-90068056D01*
X144237167Y-90066494D01*
X144197381Y-90052836D01*
X144197374Y-90052834D01*
X144187660Y-90049500D01*
X144179706Y-90049500D01*
X144172088Y-90047232D01*
X144161823Y-90047656D01*
X144161820Y-90047656D01*
X144119807Y-90049394D01*
X144114684Y-90049500D01*
X141912541Y-90049500D01*
X141887092Y-90046860D01*
X141886526Y-90046741D01*
X141886519Y-90046740D01*
X141876468Y-90044633D01*
X141866277Y-90045903D01*
X141866273Y-90045903D01*
X141845060Y-90048548D01*
X141839845Y-90048871D01*
X141839862Y-90049076D01*
X141834743Y-90049500D01*
X141829622Y-90049500D01*
X141824574Y-90050342D01*
X141824564Y-90050343D01*
X141809130Y-90052918D01*
X141804070Y-90053655D01*
X141762307Y-90058861D01*
X141762296Y-90058864D01*
X141752110Y-90060134D01*
X141744965Y-90063626D01*
X141737126Y-90064935D01*
X141728097Y-90069820D01*
X141728094Y-90069822D01*
X141691105Y-90089838D01*
X141686557Y-90092179D01*
X141648753Y-90110662D01*
X141648751Y-90110663D01*
X141639525Y-90115174D01*
X141633901Y-90120797D01*
X141626910Y-90124581D01*
X141619957Y-90132132D01*
X141619955Y-90132135D01*
X141591454Y-90163094D01*
X141587908Y-90166789D01*
X140912479Y-90842219D01*
X140912476Y-90842222D01*
X140654443Y-91100254D01*
X140614514Y-91127010D01*
X140567410Y-91136571D01*
X140535110Y-91130365D01*
X140534588Y-91132316D01*
X140526744Y-91130214D01*
X140519231Y-91127102D01*
X140511171Y-91126040D01*
X140511168Y-91126040D01*
X140383581Y-91109243D01*
X140375522Y-91108182D01*
X140367463Y-91109243D01*
X140239875Y-91126040D01*
X140239870Y-91126041D01*
X140231813Y-91127102D01*
X140224303Y-91130212D01*
X140224298Y-91130214D01*
X140105407Y-91179460D01*
X140105405Y-91179461D01*
X140097897Y-91182571D01*
X140091455Y-91187514D01*
X140091450Y-91187517D01*
X139989343Y-91265867D01*
X139989339Y-91265870D01*
X139982901Y-91270811D01*
X139977960Y-91277249D01*
X139977957Y-91277253D01*
X139899607Y-91379360D01*
X139899604Y-91379365D01*
X139894661Y-91385807D01*
X139891551Y-91393315D01*
X139891550Y-91393317D01*
X139842304Y-91512208D01*
X139842302Y-91512213D01*
X139839192Y-91519723D01*
X139838131Y-91527780D01*
X139838130Y-91527785D01*
X139821333Y-91655373D01*
X139820815Y-91659305D01*
X139820814Y-91659310D01*
X139820272Y-91663432D01*
X139819729Y-91663360D01*
X139804719Y-91719377D01*
X139760063Y-91764031D01*
X139754454Y-91766355D01*
X139748012Y-91771298D01*
X139748007Y-91771301D01*
X139645900Y-91849651D01*
X139645896Y-91849654D01*
X139639458Y-91854595D01*
X139634517Y-91861033D01*
X139634514Y-91861037D01*
X139556164Y-91963144D01*
X139556161Y-91963149D01*
X139551218Y-91969591D01*
X139548108Y-91977099D01*
X139548107Y-91977101D01*
X139498861Y-92095992D01*
X139498859Y-92095997D01*
X139495749Y-92103507D01*
X139494688Y-92111564D01*
X139494687Y-92111569D01*
X139476829Y-92247216D01*
X139476031Y-92247110D01*
X139466738Y-92289939D01*
X139435287Y-92332088D01*
X139391701Y-92356034D01*
X139385158Y-92356850D01*
X139378013Y-92360342D01*
X139370174Y-92361651D01*
X139361145Y-92366536D01*
X139361142Y-92366538D01*
X139324153Y-92386554D01*
X139319605Y-92388895D01*
X139281801Y-92407378D01*
X139281799Y-92407379D01*
X139272573Y-92411890D01*
X139266949Y-92417513D01*
X139259958Y-92421297D01*
X139253005Y-92428848D01*
X139253003Y-92428851D01*
X139224502Y-92459810D01*
X139220956Y-92463505D01*
X138927645Y-92756815D01*
X138894808Y-92780346D01*
X138856150Y-92792073D01*
X138734353Y-92808108D01*
X138734348Y-92808109D01*
X138726291Y-92809170D01*
X138718781Y-92812280D01*
X138718776Y-92812282D01*
X138599885Y-92861528D01*
X138599883Y-92861529D01*
X138592375Y-92864639D01*
X138585933Y-92869582D01*
X138585928Y-92869585D01*
X138483821Y-92947935D01*
X138483817Y-92947938D01*
X138477379Y-92952879D01*
X138472438Y-92959317D01*
X138472435Y-92959321D01*
X138394085Y-93061428D01*
X138394082Y-93061433D01*
X138389139Y-93067875D01*
X138386029Y-93075383D01*
X138385042Y-93077093D01*
X138334912Y-93125083D01*
X138266849Y-93138622D01*
X138202169Y-93113471D01*
X138184075Y-93099588D01*
X138184073Y-93099587D01*
X138177625Y-93094639D01*
X138113010Y-93067875D01*
X138051223Y-93042282D01*
X138051220Y-93042281D01*
X138043709Y-93039170D01*
X138035649Y-93038108D01*
X138035646Y-93038108D01*
X137908059Y-93021311D01*
X137900000Y-93020250D01*
X137891941Y-93021311D01*
X137764353Y-93038108D01*
X137764348Y-93038109D01*
X137756291Y-93039170D01*
X137748781Y-93042280D01*
X137748776Y-93042282D01*
X137629885Y-93091528D01*
X137629883Y-93091529D01*
X137622375Y-93094639D01*
X137615933Y-93099582D01*
X137615928Y-93099585D01*
X137513821Y-93177935D01*
X137513817Y-93177938D01*
X137507379Y-93182879D01*
X137502438Y-93189317D01*
X137502435Y-93189321D01*
X137424085Y-93291428D01*
X137424082Y-93291433D01*
X137419139Y-93297875D01*
X137416029Y-93305383D01*
X137416028Y-93305385D01*
X137366782Y-93424276D01*
X137366780Y-93424281D01*
X137363670Y-93431791D01*
X137362609Y-93439848D01*
X137362608Y-93439853D01*
X137358068Y-93474341D01*
X137344750Y-93575500D01*
X137345811Y-93583559D01*
X137362112Y-93707379D01*
X137363670Y-93719209D01*
X137366781Y-93726720D01*
X137366782Y-93726723D01*
X137389207Y-93780861D01*
X137419139Y-93853125D01*
X137424084Y-93859569D01*
X137424085Y-93859571D01*
X137492535Y-93948776D01*
X137507379Y-93968121D01*
X137622375Y-94056361D01*
X137756291Y-94111830D01*
X137900000Y-94130750D01*
X137899781Y-94132407D01*
X137948058Y-94144631D01*
X137955198Y-94148494D01*
X137963311Y-94154809D01*
X137970831Y-94157390D01*
X137977301Y-94162010D01*
X138027440Y-94176937D01*
X138032322Y-94178501D01*
X138057609Y-94187181D01*
X138081840Y-94195500D01*
X138089793Y-94195500D01*
X138097411Y-94197768D01*
X138149691Y-94195606D01*
X138154815Y-94195500D01*
X139033567Y-94195500D01*
X139081020Y-94204939D01*
X139121248Y-94231819D01*
X139148128Y-94272047D01*
X139177171Y-94342164D01*
X139182118Y-94348611D01*
X139182121Y-94348616D01*
X139183192Y-94350012D01*
X139183767Y-94351468D01*
X139186184Y-94355654D01*
X139185563Y-94356012D01*
X139208221Y-94413344D01*
X139196031Y-94480343D01*
X139150299Y-94530801D01*
X139084818Y-94549500D01*
X136474446Y-94549500D01*
X136434587Y-94542919D01*
X136398959Y-94523875D01*
X136334077Y-94474088D01*
X136334067Y-94474082D01*
X136327625Y-94469139D01*
X136291592Y-94454214D01*
X136201223Y-94416782D01*
X136201220Y-94416781D01*
X136193709Y-94413670D01*
X136185649Y-94412608D01*
X136185646Y-94412608D01*
X136058059Y-94395811D01*
X136050000Y-94394750D01*
X136041941Y-94395811D01*
X136041940Y-94395811D01*
X135965685Y-94405850D01*
X135897095Y-94395293D01*
X135844919Y-94349536D01*
X135825500Y-94282911D01*
X135825500Y-90470654D01*
X135825924Y-90460414D01*
X135826025Y-90459192D01*
X135829392Y-90418563D01*
X135819075Y-90377825D01*
X135816977Y-90367816D01*
X135810065Y-90326390D01*
X135805174Y-90317353D01*
X135803378Y-90312120D01*
X135801151Y-90307044D01*
X135798628Y-90297078D01*
X135775654Y-90261914D01*
X135770406Y-90253108D01*
X135764276Y-90241781D01*
X135754392Y-90223515D01*
X135739475Y-90161935D01*
X135756926Y-90101025D01*
X135802190Y-90056688D01*
X135863448Y-90040500D01*
X140973115Y-90040500D01*
X140997306Y-90042883D01*
X141010000Y-90045408D01*
X141057468Y-90035966D01*
X141107740Y-90025966D01*
X141190601Y-89970601D01*
X141245966Y-89887740D01*
X141265408Y-89790000D01*
X141262883Y-89777306D01*
X141260500Y-89753115D01*
X141260500Y-86541302D01*
X143109500Y-86541302D01*
X143109501Y-86544864D01*
X143109912Y-86548411D01*
X143109913Y-86548422D01*
X143111340Y-86560722D01*
X143112415Y-86569991D01*
X143157794Y-86672765D01*
X143237235Y-86752206D01*
X143277279Y-86769887D01*
X143331477Y-86793818D01*
X143331478Y-86793818D01*
X143340009Y-86797585D01*
X143365135Y-86800500D01*
X145154864Y-86800499D01*
X145179991Y-86797585D01*
X145282765Y-86752206D01*
X145362206Y-86672765D01*
X145407585Y-86569991D01*
X145410500Y-86544865D01*
X145410499Y-85806045D01*
X145426170Y-85745709D01*
X145469221Y-85700621D01*
X145528772Y-85682180D01*
X145589770Y-85695048D01*
X145636798Y-85735971D01*
X145657970Y-85794606D01*
X145659030Y-85806048D01*
X145664244Y-85862310D01*
X145665812Y-85867821D01*
X145665814Y-85867831D01*
X145721024Y-86061870D01*
X145721026Y-86061876D01*
X145722595Y-86067389D01*
X145817634Y-86258255D01*
X145821086Y-86262826D01*
X145912859Y-86384353D01*
X145946128Y-86428407D01*
X145950360Y-86432265D01*
X146091269Y-86560722D01*
X146103698Y-86572052D01*
X146284981Y-86684298D01*
X146483802Y-86761321D01*
X146693390Y-86800500D01*
X146900881Y-86800500D01*
X146906610Y-86800500D01*
X147116198Y-86761321D01*
X147315019Y-86684298D01*
X147496302Y-86572052D01*
X147653872Y-86428407D01*
X147782366Y-86258255D01*
X147877405Y-86067389D01*
X147935756Y-85862310D01*
X147946529Y-85746047D01*
X147966633Y-85688996D01*
X148009410Y-85649999D01*
X148130589Y-85649999D01*
X148173367Y-85688996D01*
X148193471Y-85746048D01*
X148199030Y-85806048D01*
X148204244Y-85862310D01*
X148205812Y-85867821D01*
X148205814Y-85867831D01*
X148261024Y-86061870D01*
X148261026Y-86061876D01*
X148262595Y-86067389D01*
X148357634Y-86258255D01*
X148361086Y-86262826D01*
X148452859Y-86384353D01*
X148486128Y-86428407D01*
X148490360Y-86432265D01*
X148631269Y-86560722D01*
X148643698Y-86572052D01*
X148824981Y-86684298D01*
X149023802Y-86761321D01*
X149233390Y-86800500D01*
X149440881Y-86800500D01*
X149446610Y-86800500D01*
X149656198Y-86761321D01*
X149855019Y-86684298D01*
X150036302Y-86572052D01*
X150193872Y-86428407D01*
X150322366Y-86258255D01*
X150389325Y-86123781D01*
X150435722Y-86073212D01*
X150501914Y-86055065D01*
X150567617Y-86074904D01*
X150612705Y-86126650D01*
X150704113Y-86322676D01*
X150709501Y-86332008D01*
X150838784Y-86516643D01*
X150845721Y-86524909D01*
X151005090Y-86684278D01*
X151013356Y-86691215D01*
X151197991Y-86820498D01*
X151207323Y-86825886D01*
X151411602Y-86921143D01*
X151421736Y-86924831D01*
X151616219Y-86976943D01*
X151627448Y-86977311D01*
X151630000Y-86966369D01*
X152130000Y-86966369D01*
X152132551Y-86977311D01*
X152143780Y-86976943D01*
X152338263Y-86924831D01*
X152348397Y-86921143D01*
X152552676Y-86825886D01*
X152562008Y-86820498D01*
X152746643Y-86691215D01*
X152754909Y-86684278D01*
X152914278Y-86524909D01*
X152918398Y-86520000D01*
X153989250Y-86520000D01*
X153990311Y-86528057D01*
X153990311Y-86528059D01*
X154006004Y-86647262D01*
X154008170Y-86663709D01*
X154011281Y-86671220D01*
X154011282Y-86671223D01*
X154046722Y-86756782D01*
X154063639Y-86797625D01*
X154068582Y-86804067D01*
X154068588Y-86804077D01*
X154118375Y-86868959D01*
X154137419Y-86904587D01*
X154144000Y-86944446D01*
X154144000Y-87970567D01*
X154144000Y-88097433D01*
X154147015Y-88106714D01*
X154147016Y-88106717D01*
X154150846Y-88118506D01*
X154155387Y-88137418D01*
X154158854Y-88159304D01*
X154163283Y-88167996D01*
X154163284Y-88167999D01*
X154168912Y-88179044D01*
X154176357Y-88197019D01*
X154183204Y-88218090D01*
X154188936Y-88225980D01*
X154188940Y-88225987D01*
X154196226Y-88236015D01*
X154206389Y-88252598D01*
X154207283Y-88254353D01*
X154216450Y-88272342D01*
X154223350Y-88279242D01*
X154239013Y-88294905D01*
X154239016Y-88294909D01*
X154456675Y-88512568D01*
X154480206Y-88545405D01*
X154491933Y-88584063D01*
X154494519Y-88603709D01*
X154503670Y-88673209D01*
X154506781Y-88680720D01*
X154506782Y-88680723D01*
X154533637Y-88745557D01*
X154559139Y-88807125D01*
X154564084Y-88813569D01*
X154564085Y-88813571D01*
X154610432Y-88873971D01*
X154647379Y-88922121D01*
X154762375Y-89010361D01*
X154896291Y-89065830D01*
X155040000Y-89084750D01*
X155183709Y-89065830D01*
X155317625Y-89010361D01*
X155432621Y-88922121D01*
X155520861Y-88807125D01*
X155576330Y-88673209D01*
X155590100Y-88568610D01*
X155617187Y-88506130D01*
X155673182Y-88467376D01*
X155741197Y-88464034D01*
X155800721Y-88497114D01*
X155999091Y-88695484D01*
X155999094Y-88695486D01*
X156021658Y-88718050D01*
X156041396Y-88728107D01*
X156057984Y-88738273D01*
X156068010Y-88745557D01*
X156068012Y-88745558D01*
X156075910Y-88751296D01*
X156096981Y-88758142D01*
X156114954Y-88765586D01*
X156134696Y-88775646D01*
X156156581Y-88779112D01*
X156175489Y-88783651D01*
X156196567Y-88790500D01*
X156228481Y-88790500D01*
X156323433Y-88790500D01*
X157235554Y-88790500D01*
X157275413Y-88797081D01*
X157311041Y-88816125D01*
X157375922Y-88865911D01*
X157375930Y-88865915D01*
X157382375Y-88870861D01*
X157516291Y-88926330D01*
X157660000Y-88945250D01*
X157803709Y-88926330D01*
X157937625Y-88870861D01*
X158052621Y-88782621D01*
X158140861Y-88667625D01*
X158196330Y-88533709D01*
X158215250Y-88390000D01*
X158196330Y-88246291D01*
X158140861Y-88112375D01*
X158052621Y-87997379D01*
X158035296Y-87984085D01*
X157944071Y-87914085D01*
X157944069Y-87914084D01*
X157937625Y-87909139D01*
X157838564Y-87868107D01*
X157811223Y-87856782D01*
X157811220Y-87856781D01*
X157803709Y-87853670D01*
X157795649Y-87852608D01*
X157795646Y-87852608D01*
X157668059Y-87835811D01*
X157660000Y-87834750D01*
X157651941Y-87835811D01*
X157524353Y-87852608D01*
X157524348Y-87852609D01*
X157516291Y-87853670D01*
X157508781Y-87856780D01*
X157508776Y-87856782D01*
X157389885Y-87906028D01*
X157389883Y-87906029D01*
X157382375Y-87909139D01*
X157375935Y-87914080D01*
X157375922Y-87914088D01*
X157311041Y-87963875D01*
X157275413Y-87982919D01*
X157235554Y-87989500D01*
X156477255Y-87989500D01*
X156429802Y-87980061D01*
X156389574Y-87953181D01*
X155743323Y-87306930D01*
X155719792Y-87274092D01*
X155708066Y-87235436D01*
X155696330Y-87146291D01*
X155640861Y-87012375D01*
X155552621Y-86897379D01*
X155520962Y-86873086D01*
X155444071Y-86814085D01*
X155444069Y-86814084D01*
X155437625Y-86809139D01*
X155391694Y-86790114D01*
X155311223Y-86756782D01*
X155311220Y-86756781D01*
X155303709Y-86753670D01*
X155295649Y-86752608D01*
X155295646Y-86752608D01*
X155195923Y-86739479D01*
X155136622Y-86714915D01*
X155097547Y-86663991D01*
X155089170Y-86600357D01*
X155099750Y-86520000D01*
X155080830Y-86376291D01*
X155025361Y-86242375D01*
X154937121Y-86127379D01*
X154930678Y-86122435D01*
X154828571Y-86044085D01*
X154828569Y-86044084D01*
X154822125Y-86039139D01*
X154728129Y-86000205D01*
X154695723Y-85986782D01*
X154695720Y-85986781D01*
X154688209Y-85983670D01*
X154680149Y-85982608D01*
X154680146Y-85982608D01*
X154552559Y-85965811D01*
X154544500Y-85964750D01*
X154536441Y-85965811D01*
X154408853Y-85982608D01*
X154408848Y-85982609D01*
X154400791Y-85983670D01*
X154393281Y-85986780D01*
X154393276Y-85986782D01*
X154274385Y-86036028D01*
X154274383Y-86036029D01*
X154266875Y-86039139D01*
X154260433Y-86044082D01*
X154260428Y-86044085D01*
X154158321Y-86122435D01*
X154158317Y-86122438D01*
X154151879Y-86127379D01*
X154146938Y-86133817D01*
X154146935Y-86133821D01*
X154068585Y-86235928D01*
X154068582Y-86235933D01*
X154063639Y-86242375D01*
X154060529Y-86249883D01*
X154060528Y-86249885D01*
X154011282Y-86368776D01*
X154011280Y-86368781D01*
X154008170Y-86376291D01*
X154007109Y-86384348D01*
X154007108Y-86384353D01*
X153993469Y-86487956D01*
X153989250Y-86520000D01*
X152918398Y-86520000D01*
X152921215Y-86516643D01*
X153050498Y-86332008D01*
X153055886Y-86322676D01*
X153151143Y-86118397D01*
X153154831Y-86108263D01*
X153206943Y-85913780D01*
X153207311Y-85902551D01*
X153196369Y-85900000D01*
X152146326Y-85900000D01*
X152133450Y-85903450D01*
X152130000Y-85916326D01*
X152130000Y-86966369D01*
X151630000Y-86966369D01*
X151630000Y-85383674D01*
X152130000Y-85383674D01*
X152133450Y-85396549D01*
X152146326Y-85400000D01*
X153196369Y-85400000D01*
X153207311Y-85397448D01*
X153206943Y-85386219D01*
X153154831Y-85191736D01*
X153151143Y-85181602D01*
X153055889Y-84977332D01*
X153050491Y-84967982D01*
X152974881Y-84860000D01*
X155014250Y-84860000D01*
X155033170Y-85003709D01*
X155036281Y-85011220D01*
X155036282Y-85011223D01*
X155057729Y-85063000D01*
X155088639Y-85137625D01*
X155093582Y-85144067D01*
X155093588Y-85144077D01*
X155143375Y-85208959D01*
X155162419Y-85244587D01*
X155169000Y-85284446D01*
X155169000Y-85791728D01*
X155169000Y-85918594D01*
X155172015Y-85927875D01*
X155172016Y-85927878D01*
X155175846Y-85939667D01*
X155180387Y-85958579D01*
X155181532Y-85965811D01*
X155183854Y-85980465D01*
X155188283Y-85989157D01*
X155188284Y-85989160D01*
X155193912Y-86000205D01*
X155201357Y-86018180D01*
X155208204Y-86039251D01*
X155213936Y-86047141D01*
X155213940Y-86047148D01*
X155221226Y-86057176D01*
X155231389Y-86073759D01*
X155231972Y-86074904D01*
X155241450Y-86093503D01*
X155264013Y-86116066D01*
X155264016Y-86116070D01*
X156394876Y-87246930D01*
X156394879Y-87246932D01*
X156417443Y-87269496D01*
X156437181Y-87279553D01*
X156453769Y-87289719D01*
X156463795Y-87297003D01*
X156463797Y-87297004D01*
X156471695Y-87302742D01*
X156492766Y-87309588D01*
X156510739Y-87317032D01*
X156530481Y-87327092D01*
X156552366Y-87330558D01*
X156571274Y-87335097D01*
X156592352Y-87341946D01*
X156624266Y-87341946D01*
X156719218Y-87341946D01*
X159624191Y-87341946D01*
X159671644Y-87351385D01*
X159711872Y-87378265D01*
X160776675Y-88443068D01*
X160800206Y-88475905D01*
X160811933Y-88514563D01*
X160823670Y-88603709D01*
X160879139Y-88737625D01*
X160884084Y-88744069D01*
X160884085Y-88744071D01*
X160937415Y-88813571D01*
X160967379Y-88852621D01*
X161082375Y-88940861D01*
X161216291Y-88996330D01*
X161360000Y-89015250D01*
X161503709Y-88996330D01*
X161637625Y-88940861D01*
X161752621Y-88852621D01*
X161840861Y-88737625D01*
X161896330Y-88603709D01*
X161915250Y-88460000D01*
X161896330Y-88316291D01*
X161840861Y-88182375D01*
X161752621Y-88067379D01*
X161661396Y-87997379D01*
X161644071Y-87984085D01*
X161644069Y-87984084D01*
X161637625Y-87979139D01*
X161574956Y-87953181D01*
X161511223Y-87926782D01*
X161511220Y-87926781D01*
X161503709Y-87923670D01*
X161495649Y-87922608D01*
X161495646Y-87922608D01*
X161414563Y-87911933D01*
X161375905Y-87900206D01*
X161343068Y-87876675D01*
X160627785Y-87161392D01*
X160596698Y-87109350D01*
X160593996Y-87048790D01*
X160620325Y-86994186D01*
X160669392Y-86958588D01*
X160716117Y-86952301D01*
X160716117Y-86949785D01*
X160723077Y-86949785D01*
X160730000Y-86950565D01*
X160909255Y-86930368D01*
X161079522Y-86870789D01*
X161232262Y-86774816D01*
X161277318Y-86729759D01*
X161332906Y-86697665D01*
X161397094Y-86697665D01*
X161452681Y-86729758D01*
X161497738Y-86774816D01*
X161650478Y-86870789D01*
X161820745Y-86930368D01*
X162000000Y-86950565D01*
X162179255Y-86930368D01*
X162349522Y-86870789D01*
X162502262Y-86774816D01*
X162629816Y-86647262D01*
X162725789Y-86494522D01*
X162785368Y-86324255D01*
X162805565Y-86145000D01*
X162785368Y-85965745D01*
X162725789Y-85795478D01*
X162693006Y-85743304D01*
X162674780Y-85691215D01*
X162680959Y-85636376D01*
X162710318Y-85589652D01*
X162752206Y-85547765D01*
X162797585Y-85444991D01*
X162800500Y-85419865D01*
X162800499Y-84330136D01*
X162797585Y-84305009D01*
X162752206Y-84202235D01*
X162672765Y-84122794D01*
X162657833Y-84116201D01*
X162578522Y-84081181D01*
X162578517Y-84081179D01*
X162569991Y-84077415D01*
X162560726Y-84076340D01*
X162548414Y-84074911D01*
X162548401Y-84074910D01*
X162544865Y-84074500D01*
X162541290Y-84074500D01*
X161458714Y-84074500D01*
X161458696Y-84074500D01*
X161455136Y-84074501D01*
X161451589Y-84074912D01*
X161451577Y-84074913D01*
X161439276Y-84076340D01*
X161439274Y-84076340D01*
X161430009Y-84077415D01*
X161421479Y-84081180D01*
X161421307Y-84081228D01*
X161362812Y-84082830D01*
X161310097Y-84057429D01*
X161292970Y-84043373D01*
X161282882Y-84036633D01*
X161119905Y-83949520D01*
X161108712Y-83944883D01*
X160993896Y-83910054D01*
X160982612Y-83909361D01*
X160980000Y-83920363D01*
X160980000Y-85001000D01*
X160963387Y-85063000D01*
X160918000Y-85108387D01*
X160856000Y-85125000D01*
X159334000Y-85125000D01*
X159272000Y-85108387D01*
X159226613Y-85063000D01*
X159210000Y-85001000D01*
X159210000Y-84608674D01*
X159710000Y-84608674D01*
X159713450Y-84621549D01*
X159726326Y-84625000D01*
X160463674Y-84625000D01*
X160476549Y-84621549D01*
X160480000Y-84608674D01*
X160480000Y-83920363D01*
X160477387Y-83909361D01*
X160466103Y-83910054D01*
X160351287Y-83944883D01*
X160340094Y-83949520D01*
X160177114Y-84036634D01*
X160163888Y-84045472D01*
X160119190Y-84063986D01*
X160070810Y-84063986D01*
X160026112Y-84045472D01*
X160012885Y-84036634D01*
X159849905Y-83949520D01*
X159838712Y-83944883D01*
X159723896Y-83910054D01*
X159712612Y-83909361D01*
X159710000Y-83920363D01*
X159710000Y-84608674D01*
X159210000Y-84608674D01*
X159210000Y-83920363D01*
X159207387Y-83909361D01*
X159196103Y-83910054D01*
X159081287Y-83944883D01*
X159070094Y-83949520D01*
X158907117Y-84036633D01*
X158897029Y-84043374D01*
X158754182Y-84160606D01*
X158748266Y-84166522D01*
X158701540Y-84195879D01*
X158646703Y-84202056D01*
X158594616Y-84183829D01*
X158545415Y-84152913D01*
X158545409Y-84152910D01*
X158539522Y-84149211D01*
X158532959Y-84146914D01*
X158532956Y-84146913D01*
X158375824Y-84091930D01*
X158375819Y-84091928D01*
X158369255Y-84089632D01*
X158362335Y-84088852D01*
X158362334Y-84088852D01*
X158196923Y-84070215D01*
X158190000Y-84069435D01*
X158183077Y-84070215D01*
X158017665Y-84088852D01*
X158017662Y-84088852D01*
X158010745Y-84089632D01*
X158004182Y-84091928D01*
X158004175Y-84091930D01*
X157847043Y-84146913D01*
X157847036Y-84146915D01*
X157840478Y-84149211D01*
X157834590Y-84152910D01*
X157834587Y-84152912D01*
X157693638Y-84241476D01*
X157693633Y-84241479D01*
X157687738Y-84245184D01*
X157682813Y-84250108D01*
X157682809Y-84250112D01*
X157642681Y-84290241D01*
X157587094Y-84322335D01*
X157522906Y-84322335D01*
X157467319Y-84290241D01*
X157427190Y-84250112D01*
X157427190Y-84250111D01*
X157422262Y-84245184D01*
X157269522Y-84149211D01*
X157262959Y-84146914D01*
X157262956Y-84146913D01*
X157105824Y-84091930D01*
X157105819Y-84091928D01*
X157099255Y-84089632D01*
X157092335Y-84088852D01*
X157092334Y-84088852D01*
X156926923Y-84070215D01*
X156920000Y-84069435D01*
X156913077Y-84070215D01*
X156747665Y-84088852D01*
X156747662Y-84088852D01*
X156740745Y-84089632D01*
X156734182Y-84091928D01*
X156734175Y-84091930D01*
X156577043Y-84146913D01*
X156577036Y-84146915D01*
X156570478Y-84149211D01*
X156564590Y-84152910D01*
X156564587Y-84152912D01*
X156423638Y-84241476D01*
X156423633Y-84241479D01*
X156417738Y-84245184D01*
X156412813Y-84250108D01*
X156412809Y-84250112D01*
X156295112Y-84367809D01*
X156295108Y-84367813D01*
X156290184Y-84372738D01*
X156286481Y-84378630D01*
X156286474Y-84378640D01*
X156204637Y-84508883D01*
X156162145Y-84550006D01*
X156105438Y-84566775D01*
X156047414Y-84555373D01*
X156001268Y-84518396D01*
X155967067Y-84473824D01*
X155967064Y-84473821D01*
X155962121Y-84467379D01*
X155847125Y-84379139D01*
X155737458Y-84333714D01*
X155720723Y-84326782D01*
X155720720Y-84326781D01*
X155713209Y-84323670D01*
X155705149Y-84322608D01*
X155705146Y-84322608D01*
X155577559Y-84305811D01*
X155569500Y-84304750D01*
X155561441Y-84305811D01*
X155433853Y-84322608D01*
X155433848Y-84322609D01*
X155425791Y-84323670D01*
X155418281Y-84326780D01*
X155418276Y-84326782D01*
X155299385Y-84376028D01*
X155299383Y-84376029D01*
X155291875Y-84379139D01*
X155285433Y-84384082D01*
X155285428Y-84384085D01*
X155183321Y-84462435D01*
X155183317Y-84462438D01*
X155176879Y-84467379D01*
X155171938Y-84473817D01*
X155171935Y-84473821D01*
X155093585Y-84575928D01*
X155093582Y-84575933D01*
X155088639Y-84582375D01*
X155085529Y-84589883D01*
X155085528Y-84589885D01*
X155036282Y-84708776D01*
X155036280Y-84708781D01*
X155033170Y-84716291D01*
X155032109Y-84724348D01*
X155032108Y-84724353D01*
X155015311Y-84851941D01*
X155014250Y-84860000D01*
X152974881Y-84860000D01*
X152921215Y-84783357D01*
X152914280Y-84775092D01*
X152754909Y-84615721D01*
X152746643Y-84608784D01*
X152562008Y-84479501D01*
X152552676Y-84474113D01*
X152348397Y-84378856D01*
X152338263Y-84375168D01*
X152143780Y-84323056D01*
X152132551Y-84322688D01*
X152130000Y-84333631D01*
X152130000Y-85383674D01*
X151630000Y-85383674D01*
X151630000Y-84333631D01*
X151627448Y-84322688D01*
X151616219Y-84323056D01*
X151421736Y-84375168D01*
X151411602Y-84378856D01*
X151207332Y-84474110D01*
X151197982Y-84479508D01*
X151013357Y-84608784D01*
X151005092Y-84615719D01*
X150845719Y-84775092D01*
X150838784Y-84783357D01*
X150709508Y-84967982D01*
X150704109Y-84977332D01*
X150612705Y-85173349D01*
X150567617Y-85225095D01*
X150501914Y-85244934D01*
X150435723Y-85226787D01*
X150389325Y-85176218D01*
X150322366Y-85041745D01*
X150193872Y-84871593D01*
X150142432Y-84824699D01*
X150040531Y-84731803D01*
X150040529Y-84731801D01*
X150036302Y-84727948D01*
X150031438Y-84724936D01*
X150031435Y-84724934D01*
X149859890Y-84618718D01*
X149859889Y-84618717D01*
X149855019Y-84615702D01*
X149849681Y-84613634D01*
X149849677Y-84613632D01*
X149661545Y-84540750D01*
X149661540Y-84540748D01*
X149656198Y-84538679D01*
X149650560Y-84537625D01*
X149452239Y-84500552D01*
X149452236Y-84500551D01*
X149446610Y-84499500D01*
X149233390Y-84499500D01*
X149227764Y-84500551D01*
X149227760Y-84500552D01*
X149029439Y-84537625D01*
X149029436Y-84537625D01*
X149023802Y-84538679D01*
X149018461Y-84540747D01*
X149018454Y-84540750D01*
X148830322Y-84613632D01*
X148830313Y-84613636D01*
X148824981Y-84615702D01*
X148820114Y-84618715D01*
X148820109Y-84618718D01*
X148648564Y-84724934D01*
X148648555Y-84724940D01*
X148643698Y-84727948D01*
X148639475Y-84731797D01*
X148639468Y-84731803D01*
X148490360Y-84867734D01*
X148490354Y-84867739D01*
X148486128Y-84871593D01*
X148482681Y-84876156D01*
X148482675Y-84876164D01*
X148361086Y-85037173D01*
X148361083Y-85037177D01*
X148357634Y-85041745D01*
X148355084Y-85046867D01*
X148355079Y-85046875D01*
X148266337Y-85225095D01*
X148262595Y-85232611D01*
X148261027Y-85238119D01*
X148261024Y-85238129D01*
X148205814Y-85432168D01*
X148205811Y-85432179D01*
X148204244Y-85437690D01*
X148203714Y-85443400D01*
X148203714Y-85443405D01*
X148193471Y-85553951D01*
X148173367Y-85611003D01*
X148130589Y-85649999D01*
X148009410Y-85649999D01*
X147966633Y-85611003D01*
X147946529Y-85553951D01*
X147942456Y-85509999D01*
X147935756Y-85437690D01*
X147931382Y-85422319D01*
X147880911Y-85244934D01*
X147877405Y-85232611D01*
X147782366Y-85041745D01*
X147653872Y-84871593D01*
X147602432Y-84824699D01*
X147500531Y-84731803D01*
X147500529Y-84731801D01*
X147496302Y-84727948D01*
X147491438Y-84724936D01*
X147491435Y-84724934D01*
X147319890Y-84618718D01*
X147319889Y-84618717D01*
X147315019Y-84615702D01*
X147309681Y-84613634D01*
X147309677Y-84613632D01*
X147121545Y-84540750D01*
X147121540Y-84540748D01*
X147116198Y-84538679D01*
X147110560Y-84537625D01*
X146912239Y-84500552D01*
X146912236Y-84500551D01*
X146906610Y-84499500D01*
X146693390Y-84499500D01*
X146687764Y-84500551D01*
X146687760Y-84500552D01*
X146489439Y-84537625D01*
X146489436Y-84537625D01*
X146483802Y-84538679D01*
X146478461Y-84540747D01*
X146478454Y-84540750D01*
X146290322Y-84613632D01*
X146290313Y-84613636D01*
X146284981Y-84615702D01*
X146280114Y-84618715D01*
X146280109Y-84618718D01*
X146108564Y-84724934D01*
X146108555Y-84724940D01*
X146103698Y-84727948D01*
X146099475Y-84731797D01*
X146099468Y-84731803D01*
X145950360Y-84867734D01*
X145950354Y-84867739D01*
X145946128Y-84871593D01*
X145942681Y-84876156D01*
X145942675Y-84876164D01*
X145821086Y-85037173D01*
X145821083Y-85037177D01*
X145817634Y-85041745D01*
X145815084Y-85046867D01*
X145815079Y-85046875D01*
X145726337Y-85225095D01*
X145722595Y-85232611D01*
X145721027Y-85238119D01*
X145721024Y-85238129D01*
X145665814Y-85432168D01*
X145665811Y-85432179D01*
X145664244Y-85437690D01*
X145663715Y-85443398D01*
X145663714Y-85443404D01*
X145657970Y-85505395D01*
X145636798Y-85564030D01*
X145589770Y-85604953D01*
X145528772Y-85617821D01*
X145469221Y-85599380D01*
X145426170Y-85554292D01*
X145410499Y-85493953D01*
X145410499Y-84758714D01*
X145410499Y-84758709D01*
X145410499Y-84755136D01*
X145407585Y-84730009D01*
X145362206Y-84627235D01*
X145282765Y-84547794D01*
X145266812Y-84540750D01*
X145188522Y-84506181D01*
X145188517Y-84506179D01*
X145179991Y-84502415D01*
X145170726Y-84501340D01*
X145158414Y-84499911D01*
X145158401Y-84499910D01*
X145154865Y-84499500D01*
X145151290Y-84499500D01*
X143368714Y-84499500D01*
X143368696Y-84499500D01*
X143365136Y-84499501D01*
X143361589Y-84499912D01*
X143361577Y-84499913D01*
X143349277Y-84501340D01*
X143349275Y-84501340D01*
X143340009Y-84502415D01*
X143331479Y-84506180D01*
X143331476Y-84506182D01*
X143247745Y-84543153D01*
X143247743Y-84543154D01*
X143237235Y-84547794D01*
X143229112Y-84555916D01*
X143229109Y-84555919D01*
X143165919Y-84619109D01*
X143165916Y-84619112D01*
X143157794Y-84627235D01*
X143112415Y-84730009D01*
X143111340Y-84739271D01*
X143111340Y-84739273D01*
X143109911Y-84751585D01*
X143109910Y-84751599D01*
X143109500Y-84755135D01*
X143109500Y-84758708D01*
X143109500Y-84758709D01*
X143109500Y-86541285D01*
X143109500Y-86541302D01*
X141260500Y-86541302D01*
X141260500Y-83384500D01*
X141277113Y-83322500D01*
X141322500Y-83277113D01*
X141384500Y-83260500D01*
X152023115Y-83260500D01*
X152047306Y-83262883D01*
X152060000Y-83265408D01*
X152157740Y-83245966D01*
X152240601Y-83190601D01*
X152295966Y-83107740D01*
X152310500Y-83034674D01*
X152315408Y-83010000D01*
X152312883Y-82997306D01*
X152310500Y-82973115D01*
X152310500Y-79654500D01*
X152327113Y-79592500D01*
X152372500Y-79547113D01*
X152434500Y-79530500D01*
X156205500Y-79530500D01*
X156267500Y-79547113D01*
G37*
%TD.AperFunction*%
%TD*%
M02*
