%TF.GenerationSoftware,KiCad,Pcbnew,7.0.0-da2b9df05c~171~ubuntu20.04.1*%
%TF.CreationDate,2024-03-22T19:40:27+01:00*%
%TF.ProjectId,densor_nfc_v2,64656e73-6f72-45f6-9e66-635f76322e6b,rev?*%
%TF.SameCoordinates,Original*%
%TF.FileFunction,Soldermask,Top*%
%TF.FilePolarity,Negative*%
%FSLAX46Y46*%
G04 Gerber Fmt 4.6, Leading zero omitted, Abs format (unit mm)*
G04 Created by KiCad (PCBNEW 7.0.0-da2b9df05c~171~ubuntu20.04.1) date 2024-03-22 19:40:27*
%MOMM*%
%LPD*%
G01*
G04 APERTURE LIST*
G04 Aperture macros list*
%AMRoundRect*
0 Rectangle with rounded corners*
0 $1 Rounding radius*
0 $2 $3 $4 $5 $6 $7 $8 $9 X,Y pos of 4 corners*
0 Add a 4 corners polygon primitive as box body*
4,1,4,$2,$3,$4,$5,$6,$7,$8,$9,$2,$3,0*
0 Add four circle primitives for the rounded corners*
1,1,$1+$1,$2,$3*
1,1,$1+$1,$4,$5*
1,1,$1+$1,$6,$7*
1,1,$1+$1,$8,$9*
0 Add four rect primitives between the rounded corners*
20,1,$1+$1,$2,$3,$4,$5,0*
20,1,$1+$1,$4,$5,$6,$7,0*
20,1,$1+$1,$6,$7,$8,$9,0*
20,1,$1+$1,$8,$9,$2,$3,0*%
%AMFreePoly0*
4,1,6,0.325000,0.000000,0.325000,-0.150000,-0.175000,-0.150000,-0.175000,0.150000,0.175000,0.150000,0.325000,0.000000,0.325000,0.000000,$1*%
%AMFreePoly1*
4,1,6,0.325000,0.000000,0.175000,-0.150000,-0.175000,-0.150000,-0.175000,0.150000,0.325000,0.150000,0.325000,0.000000,0.325000,0.000000,$1*%
%AMFreePoly2*
4,1,6,0.150000,-0.175000,-0.150000,-0.175000,-0.150000,0.175000,0.000000,0.325000,0.150000,0.325000,0.150000,-0.175000,0.150000,-0.175000,$1*%
%AMFreePoly3*
4,1,6,0.150000,0.175000,0.150000,-0.175000,-0.150000,-0.175000,-0.150000,0.325000,0.000000,0.325000,0.150000,0.175000,0.150000,0.175000,$1*%
%AMFreePoly4*
4,1,6,0.175000,-0.150000,-0.175000,-0.150000,-0.325000,0.000000,-0.325000,0.150000,0.175000,0.150000,0.175000,-0.150000,0.175000,-0.150000,$1*%
%AMFreePoly5*
4,1,7,0.175000,-0.150000,-0.175000,-0.150000,-0.325000,-0.150000,-0.325000,0.000000,-0.175000,0.150000,0.175000,0.150000,0.175000,-0.150000,0.175000,-0.150000,$1*%
%AMFreePoly6*
4,1,6,0.150000,-0.175000,0.000000,-0.325000,-0.150000,-0.325000,-0.150000,0.175000,0.150000,0.175000,0.150000,-0.175000,0.150000,-0.175000,$1*%
%AMFreePoly7*
4,1,6,0.150000,-0.325000,0.000000,-0.325000,-0.150000,-0.175000,-0.150000,0.175000,0.150000,0.175000,0.150000,-0.325000,0.150000,-0.325000,$1*%
G04 Aperture macros list end*
%ADD10C,0.010000*%
%ADD11FreePoly0,0.000000*%
%ADD12R,0.700000X0.300000*%
%ADD13FreePoly1,0.000000*%
%ADD14FreePoly2,0.000000*%
%ADD15R,0.300000X0.700000*%
%ADD16FreePoly3,0.000000*%
%ADD17FreePoly4,0.000000*%
%ADD18FreePoly5,0.000000*%
%ADD19FreePoly6,0.000000*%
%ADD20FreePoly7,0.000000*%
%ADD21RoundRect,0.225000X-0.225000X-0.250000X0.225000X-0.250000X0.225000X0.250000X-0.225000X0.250000X0*%
%ADD22R,1.000000X1.000000*%
%ADD23O,1.000000X1.000000*%
%ADD24R,0.275000X0.250000*%
%ADD25R,0.250000X0.275000*%
%ADD26RoundRect,0.200000X0.275000X-0.200000X0.275000X0.200000X-0.275000X0.200000X-0.275000X-0.200000X0*%
%ADD27R,1.400000X1.400000*%
%ADD28RoundRect,0.225000X0.225000X0.250000X-0.225000X0.250000X-0.225000X-0.250000X0.225000X-0.250000X0*%
%ADD29RoundRect,0.200000X-0.200000X-0.275000X0.200000X-0.275000X0.200000X0.275000X-0.200000X0.275000X0*%
%ADD30RoundRect,0.112500X0.112500X-0.187500X0.112500X0.187500X-0.112500X0.187500X-0.112500X-0.187500X0*%
%ADD31R,1.000000X1.450000*%
%ADD32R,0.200000X0.750000*%
%ADD33R,0.200000X0.650000*%
%ADD34R,0.650000X0.200000*%
%ADD35RoundRect,0.062500X-0.062500X0.350000X-0.062500X-0.350000X0.062500X-0.350000X0.062500X0.350000X0*%
%ADD36RoundRect,0.062500X-0.350000X0.062500X-0.350000X-0.062500X0.350000X-0.062500X0.350000X0.062500X0*%
%ADD37R,1.700000X1.700000*%
%ADD38R,0.350000X2.000000*%
%ADD39R,1.000000X0.500000*%
%ADD40RoundRect,0.125000X-0.125000X0.125000X-0.125000X-0.125000X0.125000X-0.125000X0.125000X0.125000X0*%
%ADD41O,1.700000X1.700000*%
%ADD42R,1.400000X2.550000*%
G04 APERTURE END LIST*
%TO.C,U6*%
G36*
X138900001Y-91550001D02*
G01*
X138599999Y-91550001D01*
X138599999Y-90800000D01*
X138900001Y-90800000D01*
X138900001Y-91550001D01*
G37*
G36*
X138499999Y-91550001D02*
G01*
X138200000Y-91550001D01*
X138200000Y-90800000D01*
X138499999Y-90800000D01*
X138499999Y-91550001D01*
G37*
G36*
X138100000Y-91550001D02*
G01*
X137800001Y-91550001D01*
X137800001Y-90800000D01*
X138100000Y-90800000D01*
X138100000Y-91550001D01*
G37*
G36*
X137700001Y-91550001D02*
G01*
X137399999Y-91550001D01*
X137399999Y-90800000D01*
X137700001Y-90800000D01*
X137700001Y-91550001D01*
G37*
G36*
X139699999Y-91500001D02*
G01*
X138950001Y-91500001D01*
X138950001Y-91199999D01*
X139699999Y-91199999D01*
X139699999Y-91500001D01*
G37*
G36*
X137349999Y-91500001D02*
G01*
X136600001Y-91500001D01*
X136600001Y-91199999D01*
X137349999Y-91199999D01*
X137349999Y-91500001D01*
G37*
G36*
X139699999Y-91900000D02*
G01*
X138950001Y-91900000D01*
X138950001Y-91600001D01*
X139699999Y-91600001D01*
X139699999Y-91900000D01*
G37*
G36*
X137349999Y-91900000D02*
G01*
X136600001Y-91900000D01*
X136600001Y-91600001D01*
X137349999Y-91600001D01*
X137349999Y-91900000D01*
G37*
G36*
X139699999Y-92299999D02*
G01*
X138950001Y-92299999D01*
X138950001Y-92000000D01*
X139699999Y-92000000D01*
X139699999Y-92299999D01*
G37*
G36*
X137349999Y-92299999D02*
G01*
X136600001Y-92299999D01*
X136600001Y-92000000D01*
X137349999Y-92000000D01*
X137349999Y-92299999D01*
G37*
G36*
X138900001Y-93100000D02*
G01*
X138599999Y-93100000D01*
X138599999Y-92349999D01*
X138900001Y-92349999D01*
X138900001Y-93100000D01*
G37*
G36*
X138499999Y-93100000D02*
G01*
X138200000Y-93100000D01*
X138200000Y-92349999D01*
X138499999Y-92349999D01*
X138499999Y-93100000D01*
G37*
G36*
X138100000Y-93100000D02*
G01*
X137800001Y-93100000D01*
X137800001Y-92349999D01*
X138100000Y-92349999D01*
X138100000Y-93100000D01*
G37*
G36*
X137700001Y-93100000D02*
G01*
X137399999Y-93100000D01*
X137399999Y-92349999D01*
X137700001Y-92349999D01*
X137700001Y-93100000D01*
G37*
G36*
X139699999Y-92700001D02*
G01*
X138950001Y-92700001D01*
X138950001Y-92399999D01*
X139699999Y-92399999D01*
X139699999Y-92700001D01*
G37*
G36*
X137349999Y-92700001D02*
G01*
X136600001Y-92700001D01*
X136600001Y-92399999D01*
X137349999Y-92399999D01*
X137349999Y-92700001D01*
G37*
%TO.C,U1*%
G36*
X137162500Y-94675000D02*
G01*
X136642500Y-94675000D01*
X136642500Y-94225000D01*
X137162500Y-94225000D01*
X137162500Y-94675000D01*
G37*
D10*
X137162500Y-94675000D02*
X136642500Y-94675000D01*
X136642500Y-94225000D01*
X137162500Y-94225000D01*
X137162500Y-94675000D01*
G36*
X137162500Y-95175000D02*
G01*
X136642500Y-95175000D01*
X136642500Y-94725000D01*
X137162500Y-94725000D01*
X137162500Y-95175000D01*
G37*
X137162500Y-95175000D02*
X136642500Y-95175000D01*
X136642500Y-94725000D01*
X137162500Y-94725000D01*
X137162500Y-95175000D01*
G36*
X137162500Y-95675000D02*
G01*
X136642500Y-95675000D01*
X136642500Y-95225000D01*
X137162500Y-95225000D01*
X137162500Y-95675000D01*
G37*
X137162500Y-95675000D02*
X136642500Y-95675000D01*
X136642500Y-95225000D01*
X137162500Y-95225000D01*
X137162500Y-95675000D01*
G36*
X137162500Y-96175000D02*
G01*
X136642500Y-96175000D01*
X136642500Y-95725000D01*
X137162500Y-95725000D01*
X137162500Y-96175000D01*
G37*
X137162500Y-96175000D02*
X136642500Y-96175000D01*
X136642500Y-95725000D01*
X137162500Y-95725000D01*
X137162500Y-96175000D01*
G36*
X137162500Y-96675000D02*
G01*
X136642500Y-96675000D01*
X136642500Y-96225000D01*
X137162500Y-96225000D01*
X137162500Y-96675000D01*
G37*
X137162500Y-96675000D02*
X136642500Y-96675000D01*
X136642500Y-96225000D01*
X137162500Y-96225000D01*
X137162500Y-96675000D01*
G36*
X137162500Y-97175000D02*
G01*
X136642500Y-97175000D01*
X136642500Y-96725000D01*
X137162500Y-96725000D01*
X137162500Y-97175000D01*
G37*
X137162500Y-97175000D02*
X136642500Y-97175000D01*
X136642500Y-96725000D01*
X137162500Y-96725000D01*
X137162500Y-97175000D01*
G36*
X139682500Y-94675000D02*
G01*
X139162500Y-94675000D01*
X139162500Y-94225000D01*
X139682500Y-94225000D01*
X139682500Y-94675000D01*
G37*
X139682500Y-94675000D02*
X139162500Y-94675000D01*
X139162500Y-94225000D01*
X139682500Y-94225000D01*
X139682500Y-94675000D01*
G36*
X139682500Y-95175000D02*
G01*
X139162500Y-95175000D01*
X139162500Y-94725000D01*
X139682500Y-94725000D01*
X139682500Y-95175000D01*
G37*
X139682500Y-95175000D02*
X139162500Y-95175000D01*
X139162500Y-94725000D01*
X139682500Y-94725000D01*
X139682500Y-95175000D01*
G36*
X139682500Y-95675000D02*
G01*
X139162500Y-95675000D01*
X139162500Y-95225000D01*
X139682500Y-95225000D01*
X139682500Y-95675000D01*
G37*
X139682500Y-95675000D02*
X139162500Y-95675000D01*
X139162500Y-95225000D01*
X139682500Y-95225000D01*
X139682500Y-95675000D01*
G36*
X139682500Y-96175000D02*
G01*
X139162500Y-96175000D01*
X139162500Y-95725000D01*
X139682500Y-95725000D01*
X139682500Y-96175000D01*
G37*
X139682500Y-96175000D02*
X139162500Y-96175000D01*
X139162500Y-95725000D01*
X139682500Y-95725000D01*
X139682500Y-96175000D01*
G36*
X139682500Y-96675000D02*
G01*
X139162500Y-96675000D01*
X139162500Y-96225000D01*
X139682500Y-96225000D01*
X139682500Y-96675000D01*
G37*
X139682500Y-96675000D02*
X139162500Y-96675000D01*
X139162500Y-96225000D01*
X139682500Y-96225000D01*
X139682500Y-96675000D01*
G36*
X139682500Y-97175000D02*
G01*
X139162500Y-97175000D01*
X139162500Y-96725000D01*
X139682500Y-96725000D01*
X139682500Y-97175000D01*
G37*
X139682500Y-97175000D02*
X139162500Y-97175000D01*
X139162500Y-96725000D01*
X139682500Y-96725000D01*
X139682500Y-97175000D01*
%TD*%
D11*
%TO.C,U4*%
X158725000Y-91700000D03*
D12*
X158899999Y-92199999D03*
X158899999Y-92699999D03*
X158899999Y-93199999D03*
D13*
X158725000Y-93700000D03*
D14*
X159200000Y-94175000D03*
D15*
X159699999Y-93999999D03*
X160199999Y-93999999D03*
X160699999Y-93999999D03*
D16*
X161200000Y-94175000D03*
D17*
X161675000Y-93700000D03*
D12*
X161499999Y-93199999D03*
X161499999Y-92699999D03*
X161499999Y-92199999D03*
D18*
X161675000Y-91700000D03*
D19*
X161200000Y-91225000D03*
D15*
X160699999Y-91399999D03*
X160199999Y-91399999D03*
X159699999Y-91399999D03*
D20*
X159200000Y-91225000D03*
%TD*%
D21*
%TO.C,C4*%
X156275000Y-96900000D03*
X157825000Y-96900000D03*
%TD*%
D22*
%TO.C,J1*%
X161999999Y-84874999D03*
D23*
X161999999Y-86144999D03*
X160729999Y-84874999D03*
X160729999Y-86144999D03*
X159459999Y-84874999D03*
X159459999Y-86144999D03*
X158189999Y-84874999D03*
X158189999Y-86144999D03*
X156919999Y-84874999D03*
X156919999Y-86144999D03*
%TD*%
D24*
%TO.C,U5*%
X160812499Y-97049999D03*
X160812499Y-96549999D03*
X160812499Y-96049999D03*
X160812499Y-95549999D03*
D25*
X160299999Y-95537499D03*
X159799999Y-95537499D03*
D24*
X159287499Y-95549999D03*
X159287499Y-96049999D03*
X159287499Y-96549999D03*
X159287499Y-97049999D03*
D25*
X159799999Y-97062499D03*
X160299999Y-97062499D03*
%TD*%
D26*
%TO.C,R3*%
X146550000Y-93075000D03*
X146550000Y-91425000D03*
%TD*%
D27*
%TO.C,C1*%
X146399999Y-94749999D03*
X146399999Y-96949999D03*
%TD*%
D28*
%TO.C,C12*%
X164850000Y-94650000D03*
X163300000Y-94650000D03*
%TD*%
D29*
%TO.C,R7*%
X155175000Y-90900000D03*
X156825000Y-90900000D03*
%TD*%
D26*
%TO.C,R4*%
X148050000Y-93075000D03*
X148050000Y-91425000D03*
%TD*%
D28*
%TO.C,C7*%
X164850000Y-93150000D03*
X163300000Y-93150000D03*
%TD*%
%TO.C,C13*%
X143275000Y-93750000D03*
X141725000Y-93750000D03*
%TD*%
D30*
%TO.C,D2*%
X143850000Y-97200000D03*
X143850000Y-95100000D03*
%TD*%
D21*
%TO.C,C6*%
X141725000Y-92250000D03*
X143275000Y-92250000D03*
%TD*%
D31*
%TO.C,D3*%
X152049999Y-91199999D03*
X153649999Y-91199999D03*
%TD*%
D27*
%TO.C,C2*%
X148949999Y-94749999D03*
X148949999Y-96949999D03*
%TD*%
D26*
%TO.C,R2*%
X145050000Y-93075000D03*
X145050000Y-91425000D03*
%TD*%
D32*
%TO.C,U6*%
X138749998Y-91225799D03*
D33*
X138349999Y-91174999D03*
X137949999Y-91174999D03*
X137550000Y-91174999D03*
D34*
X136975000Y-91350000D03*
X136975000Y-91749999D03*
X136975000Y-92149999D03*
X136975000Y-92549998D03*
D33*
X137550000Y-92724999D03*
X137949999Y-92724999D03*
X138349999Y-92724999D03*
X138749998Y-92724999D03*
D34*
X139324998Y-92549998D03*
X139324998Y-92149999D03*
X139324998Y-91749999D03*
X139324998Y-91350000D03*
%TD*%
D35*
%TO.C,U2*%
X154050000Y-94050000D03*
X153550000Y-94050000D03*
X153050000Y-94050000D03*
X152550000Y-94050000D03*
D36*
X151837500Y-94762500D03*
X151837500Y-95262500D03*
X151837500Y-95762500D03*
X151837500Y-96262500D03*
D35*
X152550000Y-96975000D03*
X153050000Y-96975000D03*
X153550000Y-96975000D03*
X154050000Y-96975000D03*
D36*
X154762500Y-96262500D03*
X154762500Y-95762500D03*
X154762500Y-95262500D03*
X154762500Y-94762500D03*
D37*
X153299999Y-95512499D03*
%TD*%
D38*
%TO.C,J2*%
X152569999Y-80319999D03*
X153069999Y-80319999D03*
X153569999Y-80319999D03*
X154069999Y-80319999D03*
X154569999Y-80319999D03*
X155069999Y-80319999D03*
X155569999Y-80319999D03*
X156069999Y-80319999D03*
%TD*%
D39*
%TO.C,Y1*%
X156299999Y-94399999D03*
X156299999Y-95499999D03*
%TD*%
D40*
%TO.C,D1*%
X141900000Y-95050000D03*
X141900000Y-97250000D03*
%TD*%
D37*
%TO.C,J3*%
X144259999Y-85649999D03*
D41*
X146799999Y-85649999D03*
X149339999Y-85649999D03*
X151879999Y-85649999D03*
%TD*%
D28*
%TO.C,C5*%
X164850000Y-91650000D03*
X163300000Y-91650000D03*
%TD*%
D42*
%TO.C,U1*%
X138162499Y-95699999D03*
%TD*%
M02*
