%TF.GenerationSoftware,KiCad,Pcbnew,7.0.0-da2b9df05c~171~ubuntu20.04.1*%
%TF.CreationDate,2024-03-22T19:40:26+01:00*%
%TF.ProjectId,densor_nfc_v2,64656e73-6f72-45f6-9e66-635f76322e6b,rev?*%
%TF.SameCoordinates,Original*%
%TF.FileFunction,Copper,L1,Top*%
%TF.FilePolarity,Positive*%
%FSLAX46Y46*%
G04 Gerber Fmt 4.6, Leading zero omitted, Abs format (unit mm)*
G04 Created by KiCad (PCBNEW 7.0.0-da2b9df05c~171~ubuntu20.04.1) date 2024-03-22 19:40:26*
%MOMM*%
%LPD*%
G01*
G04 APERTURE LIST*
G04 Aperture macros list*
%AMRoundRect*
0 Rectangle with rounded corners*
0 $1 Rounding radius*
0 $2 $3 $4 $5 $6 $7 $8 $9 X,Y pos of 4 corners*
0 Add a 4 corners polygon primitive as box body*
4,1,4,$2,$3,$4,$5,$6,$7,$8,$9,$2,$3,0*
0 Add four circle primitives for the rounded corners*
1,1,$1+$1,$2,$3*
1,1,$1+$1,$4,$5*
1,1,$1+$1,$6,$7*
1,1,$1+$1,$8,$9*
0 Add four rect primitives between the rounded corners*
20,1,$1+$1,$2,$3,$4,$5,0*
20,1,$1+$1,$4,$5,$6,$7,0*
20,1,$1+$1,$6,$7,$8,$9,0*
20,1,$1+$1,$8,$9,$2,$3,0*%
%AMFreePoly0*
4,1,6,0.325000,0.000000,0.325000,-0.150000,-0.175000,-0.150000,-0.175000,0.150000,0.175000,0.150000,0.325000,0.000000,0.325000,0.000000,$1*%
%AMFreePoly1*
4,1,6,0.325000,0.000000,0.175000,-0.150000,-0.175000,-0.150000,-0.175000,0.150000,0.325000,0.150000,0.325000,0.000000,0.325000,0.000000,$1*%
%AMFreePoly2*
4,1,6,0.150000,-0.175000,-0.150000,-0.175000,-0.150000,0.175000,0.000000,0.325000,0.150000,0.325000,0.150000,-0.175000,0.150000,-0.175000,$1*%
%AMFreePoly3*
4,1,6,0.150000,0.175000,0.150000,-0.175000,-0.150000,-0.175000,-0.150000,0.325000,0.000000,0.325000,0.150000,0.175000,0.150000,0.175000,$1*%
%AMFreePoly4*
4,1,6,0.175000,-0.150000,-0.175000,-0.150000,-0.325000,0.000000,-0.325000,0.150000,0.175000,0.150000,0.175000,-0.150000,0.175000,-0.150000,$1*%
%AMFreePoly5*
4,1,7,0.175000,-0.150000,-0.175000,-0.150000,-0.325000,-0.150000,-0.325000,0.000000,-0.175000,0.150000,0.175000,0.150000,0.175000,-0.150000,0.175000,-0.150000,$1*%
%AMFreePoly6*
4,1,6,0.150000,-0.175000,0.000000,-0.325000,-0.150000,-0.325000,-0.150000,0.175000,0.150000,0.175000,0.150000,-0.175000,0.150000,-0.175000,$1*%
%AMFreePoly7*
4,1,6,0.150000,-0.325000,0.000000,-0.325000,-0.150000,-0.175000,-0.150000,0.175000,0.150000,0.175000,0.150000,-0.325000,0.150000,-0.325000,$1*%
G04 Aperture macros list end*
%TA.AperFunction,SMDPad,CuDef*%
%ADD10FreePoly0,0.000000*%
%TD*%
%TA.AperFunction,SMDPad,CuDef*%
%ADD11R,0.700000X0.300000*%
%TD*%
%TA.AperFunction,SMDPad,CuDef*%
%ADD12FreePoly1,0.000000*%
%TD*%
%TA.AperFunction,SMDPad,CuDef*%
%ADD13FreePoly2,0.000000*%
%TD*%
%TA.AperFunction,SMDPad,CuDef*%
%ADD14R,0.300000X0.700000*%
%TD*%
%TA.AperFunction,SMDPad,CuDef*%
%ADD15FreePoly3,0.000000*%
%TD*%
%TA.AperFunction,SMDPad,CuDef*%
%ADD16FreePoly4,0.000000*%
%TD*%
%TA.AperFunction,SMDPad,CuDef*%
%ADD17FreePoly5,0.000000*%
%TD*%
%TA.AperFunction,SMDPad,CuDef*%
%ADD18FreePoly6,0.000000*%
%TD*%
%TA.AperFunction,SMDPad,CuDef*%
%ADD19FreePoly7,0.000000*%
%TD*%
%TA.AperFunction,SMDPad,CuDef*%
%ADD20RoundRect,0.225000X-0.225000X-0.250000X0.225000X-0.250000X0.225000X0.250000X-0.225000X0.250000X0*%
%TD*%
%TA.AperFunction,ComponentPad*%
%ADD21R,1.000000X1.000000*%
%TD*%
%TA.AperFunction,ComponentPad*%
%ADD22O,1.000000X1.000000*%
%TD*%
%TA.AperFunction,SMDPad,CuDef*%
%ADD23R,0.275000X0.250000*%
%TD*%
%TA.AperFunction,SMDPad,CuDef*%
%ADD24R,0.250000X0.275000*%
%TD*%
%TA.AperFunction,SMDPad,CuDef*%
%ADD25RoundRect,0.200000X0.275000X-0.200000X0.275000X0.200000X-0.275000X0.200000X-0.275000X-0.200000X0*%
%TD*%
%TA.AperFunction,SMDPad,CuDef*%
%ADD26R,1.400000X1.400000*%
%TD*%
%TA.AperFunction,SMDPad,CuDef*%
%ADD27RoundRect,0.225000X0.225000X0.250000X-0.225000X0.250000X-0.225000X-0.250000X0.225000X-0.250000X0*%
%TD*%
%TA.AperFunction,SMDPad,CuDef*%
%ADD28RoundRect,0.200000X-0.200000X-0.275000X0.200000X-0.275000X0.200000X0.275000X-0.200000X0.275000X0*%
%TD*%
%TA.AperFunction,SMDPad,CuDef*%
%ADD29RoundRect,0.112500X0.112500X-0.187500X0.112500X0.187500X-0.112500X0.187500X-0.112500X-0.187500X0*%
%TD*%
%TA.AperFunction,SMDPad,CuDef*%
%ADD30R,1.000000X1.450000*%
%TD*%
%TA.AperFunction,SMDPad,CuDef*%
%ADD31R,0.200000X0.750000*%
%TD*%
%TA.AperFunction,SMDPad,CuDef*%
%ADD32R,0.200000X0.650000*%
%TD*%
%TA.AperFunction,SMDPad,CuDef*%
%ADD33R,0.650000X0.200000*%
%TD*%
%TA.AperFunction,SMDPad,CuDef*%
%ADD34RoundRect,0.062500X-0.062500X0.350000X-0.062500X-0.350000X0.062500X-0.350000X0.062500X0.350000X0*%
%TD*%
%TA.AperFunction,SMDPad,CuDef*%
%ADD35RoundRect,0.062500X-0.350000X0.062500X-0.350000X-0.062500X0.350000X-0.062500X0.350000X0.062500X0*%
%TD*%
%TA.AperFunction,SMDPad,CuDef*%
%ADD36R,1.700000X1.700000*%
%TD*%
%TA.AperFunction,SMDPad,CuDef*%
%ADD37R,0.350000X2.000000*%
%TD*%
%TA.AperFunction,SMDPad,CuDef*%
%ADD38R,1.000000X0.500000*%
%TD*%
%TA.AperFunction,SMDPad,CuDef*%
%ADD39RoundRect,0.125000X-0.125000X0.125000X-0.125000X-0.125000X0.125000X-0.125000X0.125000X0.125000X0*%
%TD*%
%TA.AperFunction,ComponentPad*%
%ADD40R,1.700000X1.700000*%
%TD*%
%TA.AperFunction,ComponentPad*%
%ADD41O,1.700000X1.700000*%
%TD*%
%TA.AperFunction,SMDPad,CuDef*%
%ADD42R,0.420000X0.350000*%
%TD*%
%TA.AperFunction,SMDPad,CuDef*%
%ADD43R,1.400000X2.550000*%
%TD*%
%TA.AperFunction,ViaPad*%
%ADD44C,0.500000*%
%TD*%
%TA.AperFunction,Conductor*%
%ADD45C,0.150000*%
%TD*%
%TA.AperFunction,Conductor*%
%ADD46C,0.400000*%
%TD*%
%TA.AperFunction,Conductor*%
%ADD47C,0.300000*%
%TD*%
%TA.AperFunction,Conductor*%
%ADD48C,0.200000*%
%TD*%
G04 APERTURE END LIST*
D10*
%TO.P,U4,1,PC14*%
%TO.N,/NFC_SWITCH*%
X158725000Y-91700000D03*
D11*
%TO.P,U4,2,PC15*%
%TO.N,unconnected-(U4-PC15-Pad2)*%
X158899999Y-92199999D03*
%TO.P,U4,3,NRST*%
%TO.N,/nRST_MCU*%
X158899999Y-92699999D03*
%TO.P,U4,4,VDDA*%
%TO.N,/V_MCU*%
X158899999Y-93199999D03*
D12*
%TO.P,U4,5,PA0*%
%TO.N,/pd*%
X158725000Y-93700000D03*
D13*
%TO.P,U4,6,PA1*%
%TO.N,unconnected-(U4-PA1-Pad6)*%
X159200000Y-94175000D03*
D14*
%TO.P,U4,7,PA4*%
%TO.N,/i2c_scl*%
X159699999Y-93999999D03*
%TO.P,U4,8,PA5*%
%TO.N,unconnected-(U4-PA5-Pad8)*%
X160199999Y-93999999D03*
%TO.P,U4,9,PA6*%
%TO.N,unconnected-(U4-PA6-Pad9)*%
X160699999Y-93999999D03*
D15*
%TO.P,U4,10,PA7*%
%TO.N,unconnected-(U4-PA7-Pad10)*%
X161200000Y-94175000D03*
D16*
%TO.P,U4,11,PB1*%
%TO.N,unconnected-(U4-PB1-Pad11)*%
X161675000Y-93700000D03*
D11*
%TO.P,U4,12,VSS*%
%TO.N,/PSW*%
X161499999Y-93199999D03*
%TO.P,U4,13,VDD*%
%TO.N,/V_MCU*%
X161499999Y-92699999D03*
%TO.P,U4,14,PA9*%
%TO.N,unconnected-(U4-PA9-Pad14)*%
X161499999Y-92199999D03*
D17*
%TO.P,U4,15,PA10*%
%TO.N,/i2c_sda*%
X161675000Y-91700000D03*
D18*
%TO.P,U4,16,PA13*%
%TO.N,/swdio*%
X161200000Y-91225000D03*
D14*
%TO.P,U4,17,PA14*%
%TO.N,/swclk*%
X160699999Y-91399999D03*
%TO.P,U4,18,PB6*%
%TO.N,unconnected-(U4-PB6-Pad18)*%
X160199999Y-91399999D03*
%TO.P,U4,19,PB7*%
%TO.N,unconnected-(U4-PB7-Pad19)*%
X159699999Y-91399999D03*
D19*
%TO.P,U4,20,PB9*%
%TO.N,/PSW*%
X159200000Y-91225000D03*
%TD*%
D20*
%TO.P,C4,1*%
%TO.N,/V_MCU*%
X156275000Y-96900000D03*
%TO.P,C4,2*%
%TO.N,GND*%
X157825000Y-96900000D03*
%TD*%
D21*
%TO.P,J1,1,VTref*%
%TO.N,/V_MCU*%
X161999999Y-84874999D03*
D22*
%TO.P,J1,2,SWDIO/TMS*%
%TO.N,/swdio*%
X161999999Y-86144999D03*
%TO.P,J1,3,GND*%
%TO.N,GND*%
X160729999Y-84874999D03*
%TO.P,J1,4,SWDCLK/TCK*%
%TO.N,/swclk*%
X160729999Y-86144999D03*
%TO.P,J1,5,GND*%
%TO.N,GND*%
X159459999Y-84874999D03*
%TO.P,J1,6,SWO/TDO*%
%TO.N,unconnected-(J1-SWO{slash}TDO-Pad6)*%
X159459999Y-86144999D03*
%TO.P,J1,7,KEY*%
%TO.N,unconnected-(J1-KEY-Pad7)*%
X158189999Y-84874999D03*
%TO.P,J1,8,NC/TDI*%
%TO.N,unconnected-(J1-NC{slash}TDI-Pad8)*%
X158189999Y-86144999D03*
%TO.P,J1,9,GNDDetect*%
%TO.N,unconnected-(J1-GNDDetect-Pad9)*%
X156919999Y-84874999D03*
%TO.P,J1,10,~{RESET}*%
%TO.N,/nRST_MCU*%
X156919999Y-86144999D03*
%TD*%
D23*
%TO.P,U5,1,SCL*%
%TO.N,/i2c_scl*%
X160812499Y-97049999D03*
%TO.P,U5,2,CS*%
%TO.N,/V_MCU*%
X160812499Y-96549999D03*
%TO.P,U5,3,SA0*%
%TO.N,unconnected-(U5-SA0-Pad3)*%
X160812499Y-96049999D03*
%TO.P,U5,4,SDA*%
%TO.N,/i2c_sda*%
X160812499Y-95549999D03*
D24*
%TO.P,U5,5,NC*%
%TO.N,/PSW*%
X160299999Y-95537499D03*
%TO.P,U5,6,GND*%
X159799999Y-95537499D03*
D23*
%TO.P,U5,7,RES*%
X159287499Y-95549999D03*
%TO.P,U5,8,GND*%
X159287499Y-96049999D03*
%TO.P,U5,9,VDD*%
%TO.N,/V_MCU*%
X159287499Y-96549999D03*
%TO.P,U5,10,VDD_IO*%
X159287499Y-97049999D03*
D24*
%TO.P,U5,11,INT2*%
%TO.N,unconnected-(U5-INT2-Pad11)*%
X159799999Y-97062499D03*
%TO.P,U5,12,INT1*%
%TO.N,unconnected-(U5-INT1-Pad12)*%
X160299999Y-97062499D03*
%TD*%
D25*
%TO.P,R3,1*%
%TO.N,/V_MCU*%
X146550000Y-93075000D03*
%TO.P,R3,2*%
%TO.N,/i2c_sda*%
X146550000Y-91425000D03*
%TD*%
D26*
%TO.P,C1,1*%
%TO.N,/V_MCU*%
X146399999Y-94749999D03*
%TO.P,C1,2*%
%TO.N,GND*%
X146399999Y-96949999D03*
%TD*%
D27*
%TO.P,C12,1*%
%TO.N,GND*%
X164850000Y-94650000D03*
%TO.P,C12,2*%
%TO.N,/V_MCU*%
X163300000Y-94650000D03*
%TD*%
D28*
%TO.P,R7,1*%
%TO.N,/pd*%
X155175000Y-90900000D03*
%TO.P,R7,2*%
%TO.N,/PSW*%
X156825000Y-90900000D03*
%TD*%
D25*
%TO.P,R4,1*%
%TO.N,/V_MCU*%
X148050000Y-93075000D03*
%TO.P,R4,2*%
%TO.N,/nRST_MCU*%
X148050000Y-91425000D03*
%TD*%
D27*
%TO.P,C7,1*%
%TO.N,GND*%
X164850000Y-93150000D03*
%TO.P,C7,2*%
%TO.N,/V_MCU*%
X163300000Y-93150000D03*
%TD*%
%TO.P,C13,1*%
%TO.N,GND*%
X143275000Y-93750000D03*
%TO.P,C13,2*%
%TO.N,/V_NFC_switched*%
X141725000Y-93750000D03*
%TD*%
D29*
%TO.P,D2,1,K*%
%TO.N,/V_MCU*%
X143850000Y-97200000D03*
%TO.P,D2,2,A*%
%TO.N,/V_EH*%
X143850000Y-95100000D03*
%TD*%
D20*
%TO.P,C6,1*%
%TO.N,/V_MCU*%
X141725000Y-92250000D03*
%TO.P,C6,2*%
%TO.N,GND*%
X143275000Y-92250000D03*
%TD*%
D30*
%TO.P,D3,1,K*%
%TO.N,/V_MCU*%
X152049999Y-91199999D03*
%TO.P,D3,2,A*%
%TO.N,/pd*%
X153649999Y-91199999D03*
%TD*%
D26*
%TO.P,C2,1*%
%TO.N,/V_MCU*%
X148949999Y-94749999D03*
%TO.P,C2,2*%
%TO.N,GND*%
X148949999Y-96949999D03*
%TD*%
D25*
%TO.P,R2,1*%
%TO.N,/V_MCU*%
X145050000Y-93075000D03*
%TO.P,R2,2*%
%TO.N,/i2c_scl*%
X145050000Y-91425000D03*
%TD*%
D31*
%TO.P,U6,1,NC2*%
%TO.N,/i2c_sda_switched*%
X138749998Y-91225799D03*
D32*
%TO.P,U6,2,GND*%
%TO.N,GND*%
X138349999Y-91174999D03*
%TO.P,U6,3,NO3*%
%TO.N,unconnected-(U6-NO3-Pad3)*%
X137949999Y-91174999D03*
%TO.P,U6,4,COM3*%
%TO.N,/V_MCU*%
X137550000Y-91174999D03*
D33*
%TO.P,U6,5,NC3*%
%TO.N,/V_NFC_switched*%
X136975000Y-91350000D03*
%TO.P,U6,6,IN3-4*%
%TO.N,/NFC_SWITCH*%
X136975000Y-91749999D03*
%TO.P,U6,7,NO4*%
%TO.N,unconnected-(U6-NO4-Pad7)*%
X136975000Y-92149999D03*
%TO.P,U6,8,COM4*%
%TO.N,unconnected-(U6-COM4-Pad8)*%
X136975000Y-92549998D03*
D32*
%TO.P,U6,9,NC4*%
%TO.N,unconnected-(U6-NC4-Pad9)*%
X137550000Y-92724999D03*
%TO.P,U6,10,VCC*%
%TO.N,/V_MCU*%
X137949999Y-92724999D03*
%TO.P,U6,11,NO1*%
%TO.N,unconnected-(U6-NO1-Pad11)*%
X138349999Y-92724999D03*
%TO.P,U6,12,COM1*%
%TO.N,/i2c_scl*%
X138749998Y-92724999D03*
D33*
%TO.P,U6,13,NC1*%
%TO.N,/i2c_scl_switched*%
X139324998Y-92549998D03*
%TO.P,U6,14,IN1-2*%
%TO.N,/NFC_SWITCH*%
X139324998Y-92149999D03*
%TO.P,U6,15,NO2*%
%TO.N,unconnected-(U6-NO2-Pad15)*%
X139324998Y-91749999D03*
%TO.P,U6,16,COM2*%
%TO.N,/i2c_sda*%
X139324998Y-91350000D03*
%TD*%
D34*
%TO.P,U2,1,nRST*%
%TO.N,unconnected-(U2-nRST-Pad1)*%
X154050000Y-94050000D03*
%TO.P,U2,2,WDI*%
%TO.N,GND*%
X153550000Y-94050000D03*
%TO.P,U2,3,nEXTR*%
X153050000Y-94050000D03*
%TO.P,U2,4,PSW/nIRQ2*%
%TO.N,/PSW*%
X152550000Y-94050000D03*
D35*
%TO.P,U2,5,VBAT*%
%TO.N,GND*%
X151837500Y-94762500D03*
%TO.P,U2,6,SDA*%
%TO.N,/i2c_sda*%
X151837500Y-95262500D03*
%TO.P,U2,7,SCL*%
%TO.N,/i2c_scl*%
X151837500Y-95762500D03*
%TO.P,U2,8,CLKOUT/nIRQ3*%
%TO.N,unconnected-(U2-CLKOUT{slash}nIRQ3-Pad8)*%
X151837500Y-96262500D03*
D34*
%TO.P,U2,9,VSS*%
%TO.N,GND*%
X152550000Y-96975000D03*
%TO.P,U2,10,EXTI*%
X153050000Y-96975000D03*
%TO.P,U2,11,FOUT/nIRQ*%
%TO.N,unconnected-(U2-FOUT{slash}nIRQ-Pad11)*%
X153550000Y-96975000D03*
%TO.P,U2,12,nTIRQ*%
%TO.N,unconnected-(U2-nTIRQ-Pad12)*%
X154050000Y-96975000D03*
D35*
%TO.P,U2,13,VCC*%
%TO.N,/V_MCU*%
X154762500Y-96262500D03*
%TO.P,U2,14,AF*%
%TO.N,unconnected-(U2-AF-Pad14)*%
X154762500Y-95762500D03*
%TO.P,U2,15,XO*%
%TO.N,Net-(U2-XO)*%
X154762500Y-95262500D03*
%TO.P,U2,16,XI*%
%TO.N,Net-(U2-XI)*%
X154762500Y-94762500D03*
D36*
%TO.P,U2,17,VSS*%
%TO.N,GND*%
X153299999Y-95512499D03*
%TD*%
D37*
%TO.P,J2,1,Pin_1*%
%TO.N,/V_MCU*%
X152569999Y-80319999D03*
%TO.P,J2,2,Pin_2*%
%TO.N,/i2c_scl*%
X153069999Y-80319999D03*
%TO.P,J2,3,Pin_3*%
%TO.N,/i2c_sda*%
X153569999Y-80319999D03*
%TO.P,J2,4,Pin_4*%
%TO.N,/nRST_MCU*%
X154069999Y-80319999D03*
%TO.P,J2,5,Pin_5*%
%TO.N,/PSW*%
X154569999Y-80319999D03*
%TO.P,J2,6,Pin_6*%
%TO.N,/swclk*%
X155069999Y-80319999D03*
%TO.P,J2,7,Pin_7*%
%TO.N,/swdio*%
X155569999Y-80319999D03*
%TO.P,J2,8,Pin_8*%
%TO.N,GND*%
X156069999Y-80319999D03*
%TD*%
D38*
%TO.P,Y1,1,1*%
%TO.N,Net-(U2-XI)*%
X156299999Y-94399999D03*
%TO.P,Y1,2,2*%
%TO.N,Net-(U2-XO)*%
X156299999Y-95499999D03*
%TD*%
D39*
%TO.P,D1,1,K*%
%TO.N,/V_EH*%
X141900000Y-95050000D03*
%TO.P,D1,2,A*%
%TO.N,GND*%
X141900000Y-97250000D03*
%TD*%
D40*
%TO.P,J3,1,Pin_1*%
%TO.N,/V_MCU*%
X144259999Y-85649999D03*
D41*
%TO.P,J3,2,Pin_2*%
%TO.N,/i2c_scl*%
X146799999Y-85649999D03*
%TO.P,J3,3,Pin_3*%
%TO.N,/i2c_sda*%
X149339999Y-85649999D03*
%TO.P,J3,4,Pin_4*%
%TO.N,GND*%
X151879999Y-85649999D03*
%TD*%
D27*
%TO.P,C5,1*%
%TO.N,GND*%
X164850000Y-91650000D03*
%TO.P,C5,2*%
%TO.N,/V_MCU*%
X163300000Y-91650000D03*
%TD*%
D42*
%TO.P,U1,1,LPD*%
%TO.N,unconnected-(U1-LPD-Pad1)*%
X136902499Y-94449999D03*
%TO.P,U1,2,NC*%
%TO.N,unconnected-(U1-NC-Pad2)*%
X136902499Y-94949999D03*
%TO.P,U1,3,V_EH*%
%TO.N,/V_EH*%
X136902499Y-95449999D03*
%TO.P,U1,4,AC0*%
%TO.N,/AC0*%
X136902499Y-95949999D03*
%TO.P,U1,5,AC1*%
X136902499Y-96449999D03*
%TO.P,U1,6,VSS*%
%TO.N,GND*%
X136902499Y-96949999D03*
%TO.P,U1,7,SDA*%
%TO.N,/i2c_sda_switched*%
X139422499Y-96949999D03*
%TO.P,U1,8,SCL*%
%TO.N,/i2c_scl_switched*%
X139422499Y-96449999D03*
%TO.P,U1,9,NC*%
%TO.N,unconnected-(U1-NC-Pad9)*%
X139422499Y-95949999D03*
%TO.P,U1,10,VDCG*%
%TO.N,unconnected-(U1-VDCG-Pad10)*%
X139422499Y-95449999D03*
%TO.P,U1,11,GPO(CMOS)*%
%TO.N,unconnected-(U1-GPO(CMOS)-Pad11)*%
X139422499Y-94949999D03*
%TO.P,U1,12,VCC*%
%TO.N,/V_NFC_switched*%
X139422499Y-94449999D03*
D43*
%TO.P,U1,13,EXP*%
%TO.N,unconnected-(U1-EXP-Pad13)*%
X138162499Y-95699999D03*
%TD*%
D44*
%TO.N,GND*%
X158400000Y-96000000D03*
X151200000Y-96900000D03*
X140777979Y-90723091D03*
X140700000Y-97480000D03*
X150300000Y-90600000D03*
X147600000Y-96150000D03*
X164850000Y-97500000D03*
X157220000Y-83700000D03*
X157950000Y-90150000D03*
X164850000Y-96300000D03*
X159450000Y-90150000D03*
X157350000Y-95700000D03*
%TO.N,/AC0*%
X136050000Y-95850000D03*
X132600000Y-93750000D03*
%TO.N,/V_MCU*%
X149550000Y-93600000D03*
X140954088Y-93196716D03*
X137900000Y-93575500D03*
X150600000Y-91800000D03*
%TO.N,/V_NFC_switched*%
X140910000Y-94100000D03*
X139658032Y-94064539D03*
%TO.N,/V_EH*%
X136050000Y-94950000D03*
X141900000Y-96000000D03*
%TO.N,/pd*%
X157514477Y-91900500D03*
X157800000Y-93300000D03*
%TO.N,/swdio*%
X161360000Y-88460000D03*
X155569500Y-84860000D03*
%TO.N,/swclk*%
X157660000Y-88390000D03*
X155160000Y-87290000D03*
%TO.N,/i2c_sda*%
X150750000Y-94249503D03*
X145950000Y-92250000D03*
X161700000Y-95700000D03*
X140375522Y-91663432D03*
X162450000Y-92100000D03*
%TO.N,/i2c_scl*%
X159450000Y-94800000D03*
X150600000Y-95250000D03*
X143850000Y-90900000D03*
X161700000Y-96900000D03*
X138870000Y-93345500D03*
%TO.N,/PSW*%
X154544500Y-86520000D03*
X155040000Y-88529500D03*
X150750000Y-93600000D03*
X157950000Y-91350000D03*
%TO.N,/NFC_SWITCH*%
X140032079Y-92247216D03*
X141978189Y-91290411D03*
X149100000Y-90750000D03*
X145484300Y-90284300D03*
%TD*%
D45*
%TO.N,GND*%
X152550000Y-94762500D02*
X153300000Y-95512500D01*
D46*
X148950000Y-96950000D02*
X148400000Y-96950000D01*
D45*
X138424200Y-90625800D02*
X140680688Y-90625800D01*
X152550000Y-96975000D02*
X152550000Y-96262500D01*
X137432500Y-97480000D02*
X140700000Y-97480000D01*
X153300000Y-94300000D02*
X153300000Y-95512500D01*
X156070000Y-80320000D02*
X156070000Y-83190000D01*
X157825000Y-96575000D02*
X158400000Y-96000000D01*
X153050000Y-94050000D02*
X153300000Y-94300000D01*
X138350000Y-91175000D02*
X138350000Y-90700000D01*
X153050000Y-95762500D02*
X153300000Y-95512500D01*
X156580000Y-83700000D02*
X157220000Y-83700000D01*
X157825000Y-96900000D02*
X157825000Y-96575000D01*
X140680688Y-90625800D02*
X140777979Y-90723091D01*
D46*
X146400000Y-96950000D02*
X148950000Y-96950000D01*
D45*
X152550000Y-96262500D02*
X153300000Y-95512500D01*
X153550000Y-94050000D02*
X153300000Y-94300000D01*
D46*
X146400000Y-96950000D02*
X146800000Y-96950000D01*
D45*
X138350000Y-90700000D02*
X138424200Y-90625800D01*
X156070000Y-83190000D02*
X156580000Y-83700000D01*
X136902500Y-96950000D02*
X137432500Y-97480000D01*
D46*
X146800000Y-96950000D02*
X147600000Y-96150000D01*
X148400000Y-96950000D02*
X147600000Y-96150000D01*
D45*
X151837500Y-94762500D02*
X152550000Y-94762500D01*
X143275000Y-92250000D02*
X143275000Y-93750000D01*
X153050000Y-96975000D02*
X153050000Y-95762500D01*
%TO.N,/AC0*%
X134250000Y-91350000D02*
X121650000Y-91350000D01*
X121050000Y-97050000D02*
X135150000Y-97050000D01*
X120750000Y-90450000D02*
X120750000Y-97350000D01*
X134850000Y-96750000D02*
X134850000Y-90750000D01*
X135900000Y-96450000D02*
X136902500Y-96450000D01*
X122850000Y-92550000D02*
X122850000Y-95250000D01*
X136050000Y-95850000D02*
X136200000Y-96000000D01*
X135600000Y-97650000D02*
X135750000Y-97500000D01*
X121350000Y-91050000D02*
X121350000Y-96750000D01*
X135150000Y-97050000D02*
X135150000Y-90450000D01*
X133950000Y-91650000D02*
X121950000Y-91650000D01*
X121650000Y-96450000D02*
X134550000Y-96450000D01*
X122250000Y-95850000D02*
X133950000Y-95850000D01*
X120750000Y-97350000D02*
X135450000Y-97350000D01*
X131400000Y-92550000D02*
X122850000Y-92550000D01*
X135450000Y-90125000D02*
X120450000Y-90125000D01*
X121950000Y-96150000D02*
X134250000Y-96150000D01*
X135450000Y-97350000D02*
X135450000Y-90125000D01*
X133650000Y-91950000D02*
X122250000Y-91950000D01*
X121950000Y-91650000D02*
X121950000Y-96150000D01*
X134850000Y-90750000D02*
X121050000Y-90750000D01*
X135150000Y-90450000D02*
X120750000Y-90450000D01*
X122550000Y-95550000D02*
X133650000Y-95550000D01*
X133350000Y-92250000D02*
X122550000Y-92250000D01*
X133650000Y-95550000D02*
X133650000Y-91950000D01*
X132600000Y-93750000D02*
X131400000Y-92550000D01*
X120450000Y-90125000D02*
X120450000Y-97650000D01*
X121350000Y-96750000D02*
X134850000Y-96750000D01*
X122250000Y-91950000D02*
X122250000Y-95850000D01*
X122850000Y-95250000D02*
X133350000Y-95250000D01*
X135750000Y-96600000D02*
X135900000Y-96450000D01*
X134550000Y-91050000D02*
X121350000Y-91050000D01*
X135750000Y-97500000D02*
X135750000Y-96600000D01*
X121650000Y-91350000D02*
X121650000Y-96450000D01*
X134550000Y-96450000D02*
X134550000Y-91050000D01*
X136200000Y-96000000D02*
X136852500Y-96000000D01*
X120450000Y-97650000D02*
X135600000Y-97650000D01*
X134250000Y-96150000D02*
X134250000Y-91350000D01*
X122550000Y-92250000D02*
X122550000Y-95550000D01*
X133350000Y-95250000D02*
X133350000Y-92250000D01*
X121050000Y-90750000D02*
X121050000Y-97050000D01*
X133950000Y-95850000D02*
X133950000Y-91650000D01*
D47*
%TO.N,/V_MCU*%
X163300000Y-93150000D02*
X163300000Y-91650000D01*
D45*
X159287500Y-97512500D02*
X159080000Y-97720000D01*
D47*
X163300000Y-91650000D02*
X163300000Y-86175000D01*
X146400000Y-94750000D02*
X148950000Y-94750000D01*
X146300000Y-94750000D02*
X146400000Y-94750000D01*
X158700000Y-97720000D02*
X159080000Y-97720000D01*
X159500000Y-93200000D02*
X158900000Y-93200000D01*
D45*
X137900000Y-93575500D02*
X137950000Y-93525500D01*
X159287500Y-97050000D02*
X159287500Y-97512500D01*
X152181472Y-83550000D02*
X146360000Y-83550000D01*
X144260000Y-87250000D02*
X144250000Y-87260000D01*
X140850000Y-90160000D02*
X140886640Y-90160000D01*
D47*
X160000000Y-92700000D02*
X159500000Y-93200000D01*
D45*
X141503189Y-92028189D02*
X141725000Y-92250000D01*
D47*
X155455000Y-97720000D02*
X155762500Y-97412500D01*
X158700000Y-97720000D02*
X162080000Y-97720000D01*
D45*
X144260000Y-85650000D02*
X144260000Y-87250000D01*
D47*
X163300000Y-93150000D02*
X162850000Y-92700000D01*
X163350000Y-94700000D02*
X163300000Y-94650000D01*
D45*
X140954088Y-93196716D02*
X140954088Y-93020912D01*
D47*
X148950000Y-94200000D02*
X149550000Y-93600000D01*
D45*
X160812500Y-96550000D02*
X159287500Y-96550000D01*
D47*
X163300000Y-86175000D02*
X162000000Y-84875000D01*
D45*
X152580000Y-83151472D02*
X152181472Y-83550000D01*
D47*
X146400000Y-94750000D02*
X146400000Y-94425000D01*
D48*
X141840000Y-90160000D02*
X140850000Y-90160000D01*
D47*
X162850000Y-92700000D02*
X161500000Y-92700000D01*
D45*
X145825000Y-84085000D02*
X145750000Y-84160000D01*
X138090000Y-90160000D02*
X140850000Y-90160000D01*
D48*
X154762500Y-96412500D02*
X155762500Y-97412500D01*
D47*
X148950000Y-94750000D02*
X150450000Y-96250000D01*
X148950000Y-94750000D02*
X148950000Y-93975000D01*
X150970000Y-97720000D02*
X155455000Y-97720000D01*
X148950000Y-93975000D02*
X148050000Y-93075000D01*
X150600000Y-91800000D02*
X151450000Y-91800000D01*
X161500000Y-92700000D02*
X160000000Y-92700000D01*
X143850000Y-97200000D02*
X146300000Y-94750000D01*
D45*
X146360000Y-83550000D02*
X145825000Y-84085000D01*
D47*
X146400000Y-94425000D02*
X145050000Y-93075000D01*
D45*
X140886640Y-90160000D02*
X141503189Y-90776549D01*
D47*
X163300000Y-94650000D02*
X163300000Y-93150000D01*
D45*
X142880000Y-84160000D02*
X142450000Y-84590000D01*
D48*
X154762500Y-96262500D02*
X154762500Y-96412500D01*
X143696751Y-91525000D02*
X145050000Y-92878249D01*
D45*
X142450000Y-87290000D02*
X143580000Y-88420000D01*
D48*
X144250000Y-87260000D02*
X144250000Y-87750000D01*
X141725000Y-92250000D02*
X142450000Y-91525000D01*
D45*
X145825000Y-84085000D02*
X145345000Y-84565000D01*
X152570000Y-80320000D02*
X152580000Y-80330000D01*
D47*
X146400000Y-93225000D02*
X146550000Y-93075000D01*
X155455000Y-97720000D02*
X158700000Y-97720000D01*
X151450000Y-91800000D02*
X152050000Y-91200000D01*
D45*
X145345000Y-84565000D02*
X144260000Y-85650000D01*
D47*
X148950000Y-94750000D02*
X148950000Y-94200000D01*
D45*
X137950000Y-93525500D02*
X137950000Y-92725000D01*
D48*
X142450000Y-91525000D02*
X143696751Y-91525000D01*
D45*
X145750000Y-84160000D02*
X142880000Y-84160000D01*
X137550001Y-90699999D02*
X138090000Y-90160000D01*
D47*
X162080000Y-97720000D02*
X163350000Y-96450000D01*
D45*
X141503189Y-90776549D02*
X141503189Y-92028189D01*
D47*
X163350000Y-96450000D02*
X163350000Y-94700000D01*
X146400000Y-94750000D02*
X146400000Y-93225000D01*
D45*
X142450000Y-84590000D02*
X142450000Y-87290000D01*
D48*
X143580000Y-88420000D02*
X141840000Y-90160000D01*
D47*
X150450000Y-97200000D02*
X150970000Y-97720000D01*
D45*
X140954088Y-93020912D02*
X141725000Y-92250000D01*
D48*
X145050000Y-92878249D02*
X145050000Y-93075000D01*
D45*
X137550001Y-91175000D02*
X137550001Y-90699999D01*
D48*
X144250000Y-87750000D02*
X143580000Y-88420000D01*
X145050000Y-93075000D02*
X148050000Y-93075000D01*
D45*
X159287500Y-96550000D02*
X159287500Y-97050000D01*
D47*
X155762500Y-97412500D02*
X156275000Y-96900000D01*
X150450000Y-96250000D02*
X150450000Y-97200000D01*
D45*
X152580000Y-80330000D02*
X152580000Y-83151472D01*
%TO.N,/V_NFC_switched*%
X139658032Y-94064539D02*
X139422500Y-94300071D01*
X136200000Y-91500000D02*
X136349999Y-91350001D01*
X139658032Y-94064539D02*
X139643493Y-94050000D01*
X139022500Y-94050000D02*
X136950000Y-94050000D01*
X140910000Y-94100000D02*
X141260000Y-93750000D01*
X136349999Y-91350001D02*
X136975001Y-91350001D01*
X139422500Y-94450000D02*
X139022500Y-94050000D01*
X139643493Y-94050000D02*
X139022500Y-94050000D01*
X141260000Y-93750000D02*
X141725000Y-93750000D01*
X136950000Y-94050000D02*
X136200000Y-93300000D01*
X136200000Y-93300000D02*
X136200000Y-91500000D01*
X139422500Y-94300071D02*
X139422500Y-94450000D01*
D48*
%TO.N,/V_EH*%
X141900000Y-95050000D02*
X143800000Y-95050000D01*
X143800000Y-95050000D02*
X143850000Y-95100000D01*
X136550000Y-95450000D02*
X136050000Y-94950000D01*
X141900000Y-96000000D02*
X141900000Y-95050000D01*
X136902500Y-95450000D02*
X136550000Y-95450000D01*
%TO.N,/pd*%
X158200000Y-93700000D02*
X157800000Y-93300000D01*
X157514477Y-91900500D02*
X156175500Y-91900500D01*
X155175000Y-90900000D02*
X153950000Y-90900000D01*
X153950000Y-90900000D02*
X153650000Y-91200000D01*
X156175500Y-91900500D02*
X155175000Y-90900000D01*
X158725000Y-93700000D02*
X158200000Y-93700000D01*
%TO.N,/swdio*%
X162070000Y-88790000D02*
X162070000Y-87520000D01*
X155570000Y-84859500D02*
X155570000Y-80320000D01*
X162000000Y-87450000D02*
X162000000Y-86145000D01*
X162070000Y-90355000D02*
X162070000Y-88790000D01*
X162070000Y-88790000D02*
X161690000Y-88790000D01*
X161690000Y-88790000D02*
X161360000Y-88460000D01*
X155569500Y-84860000D02*
X155570000Y-84859500D01*
X162070000Y-87520000D02*
X162000000Y-87450000D01*
X161200000Y-91225000D02*
X162070000Y-90355000D01*
%TO.N,/swclk*%
X158050000Y-88780000D02*
X157660000Y-88390000D01*
X160700000Y-88780000D02*
X158050000Y-88780000D01*
X160700000Y-87470000D02*
X160730000Y-87440000D01*
X155160000Y-87290000D02*
X155070000Y-87200000D01*
X160700000Y-88780000D02*
X160700000Y-87470000D01*
X160730000Y-87440000D02*
X160730000Y-86145000D01*
X160700000Y-91400000D02*
X160700000Y-88780000D01*
X155070000Y-87200000D02*
X155070000Y-80320000D01*
%TO.N,/nRST_MCU*%
X148050000Y-91092893D02*
X151112893Y-88030000D01*
X148050000Y-91425000D02*
X148050000Y-91092893D01*
X153660000Y-88030000D02*
X156330000Y-88030000D01*
X151112893Y-88030000D02*
X153660000Y-88030000D01*
D45*
X154070000Y-87620000D02*
X153660000Y-88030000D01*
X154070000Y-80320000D02*
X154070000Y-87620000D01*
D48*
X156920000Y-87440000D02*
X156920000Y-86145000D01*
X149325000Y-92700000D02*
X158900000Y-92700000D01*
X148050000Y-91425000D02*
X149325000Y-92700000D01*
X156330000Y-88030000D02*
X156920000Y-87440000D01*
D45*
%TO.N,/i2c_sda*%
X150195000Y-84795000D02*
X150410000Y-85010000D01*
D48*
X149330000Y-85660000D02*
X149340000Y-85650000D01*
D45*
X150025000Y-93175000D02*
X150025000Y-93925000D01*
X145950000Y-92250000D02*
X145950000Y-92025000D01*
X140062091Y-91350001D02*
X139324999Y-91350001D01*
X153570000Y-80320000D02*
X153570000Y-83010000D01*
X151362500Y-95262500D02*
X151837500Y-95262500D01*
X150700497Y-94200000D02*
X150750000Y-94249503D01*
X150300000Y-94200000D02*
X150700497Y-94200000D01*
X148215380Y-92050000D02*
X149190381Y-93025000D01*
X149190381Y-93025000D02*
X149875000Y-93025000D01*
X162050000Y-91700000D02*
X161675000Y-91700000D01*
X153570000Y-83010000D02*
X152380000Y-84200000D01*
X162450000Y-92100000D02*
X162050000Y-91700000D01*
X140375522Y-91663432D02*
X140062091Y-91350001D01*
X146550000Y-91425000D02*
X147175000Y-92050000D01*
X150025000Y-93925000D02*
X150300000Y-94200000D01*
X150410000Y-86500000D02*
X149330000Y-87580000D01*
D48*
X146550000Y-91425000D02*
X149330000Y-88645000D01*
D45*
X150410000Y-85010000D02*
X150410000Y-86500000D01*
X149875000Y-93025000D02*
X150025000Y-93175000D01*
X147175000Y-92050000D02*
X148215380Y-92050000D01*
X160962500Y-95700000D02*
X160812500Y-95550000D01*
X145950000Y-92025000D02*
X146550000Y-91425000D01*
X152380000Y-84200000D02*
X150790000Y-84200000D01*
X161700000Y-95700000D02*
X160962500Y-95700000D01*
X150300000Y-94200000D02*
X151362500Y-95262500D01*
D48*
X149330000Y-87580000D02*
X149330000Y-85660000D01*
X149330000Y-88645000D02*
X149330000Y-87580000D01*
D45*
X150195000Y-84795000D02*
X149340000Y-85650000D01*
X150790000Y-84200000D02*
X150195000Y-84795000D01*
%TO.N,/i2c_scl*%
X144525000Y-90900000D02*
X145050000Y-91425000D01*
X147950000Y-84760000D02*
X147950000Y-86440000D01*
X160962500Y-96900000D02*
X160812500Y-97050000D01*
X138749999Y-93225499D02*
X138870000Y-93345500D01*
X159700000Y-94550000D02*
X159700000Y-94000000D01*
X153070000Y-83085736D02*
X152255736Y-83900000D01*
D48*
X145050000Y-91425000D02*
X146790000Y-89685000D01*
D45*
X150600000Y-95250000D02*
X151112500Y-95762500D01*
D48*
X146790000Y-89685000D02*
X146790000Y-87600000D01*
D45*
X151112500Y-95762500D02*
X151837500Y-95762500D01*
X147820000Y-84630000D02*
X146800000Y-85650000D01*
X161700000Y-96900000D02*
X160962500Y-96900000D01*
X148550000Y-83900000D02*
X147820000Y-84630000D01*
X147820000Y-84630000D02*
X147950000Y-84760000D01*
X147950000Y-86440000D02*
X146790000Y-87600000D01*
X159450000Y-94800000D02*
X159700000Y-94550000D01*
D48*
X146790000Y-87600000D02*
X146790000Y-85660000D01*
D45*
X153070000Y-80320000D02*
X153070000Y-83085736D01*
X152255736Y-83900000D02*
X148550000Y-83900000D01*
X138749999Y-92725000D02*
X138749999Y-93225499D01*
D48*
X146790000Y-85660000D02*
X146800000Y-85650000D01*
D45*
X143850000Y-90900000D02*
X144525000Y-90900000D01*
D48*
%TO.N,/PSW*%
X162450000Y-94650000D02*
X162450000Y-93450000D01*
X154544500Y-86520000D02*
X154570000Y-86494500D01*
X156825000Y-90900000D02*
X155040000Y-89115000D01*
X159200000Y-91225000D02*
X158875000Y-90900000D01*
X154570000Y-86494500D02*
X154570000Y-80320000D01*
X150750000Y-93600000D02*
X152100000Y-93600000D01*
X152550000Y-94050000D02*
X152550000Y-93695558D01*
X162450000Y-93450000D02*
X162200000Y-93200000D01*
X158550000Y-90900000D02*
X156825000Y-90900000D01*
X152100000Y-93600000D02*
X152550000Y-94050000D01*
X158100000Y-91350000D02*
X157950000Y-91350000D01*
X162200000Y-93200000D02*
X161500000Y-93200000D01*
X160300000Y-95375000D02*
X160725000Y-94950000D01*
X159800000Y-95537500D02*
X160300000Y-95537500D01*
X159787500Y-95550000D02*
X159800000Y-95537500D01*
X159287500Y-95550000D02*
X159787500Y-95550000D01*
X155040000Y-89115000D02*
X155040000Y-88529500D01*
X156787500Y-93050000D02*
X159287500Y-95550000D01*
X160300000Y-95537500D02*
X160300000Y-95375000D01*
X153195558Y-93050000D02*
X156787500Y-93050000D01*
X158875000Y-90900000D02*
X158550000Y-90900000D01*
X162150000Y-94950000D02*
X162450000Y-94650000D01*
X160725000Y-94950000D02*
X162150000Y-94950000D01*
X159287500Y-95550000D02*
X159287500Y-96050000D01*
X158550000Y-90900000D02*
X158100000Y-91350000D01*
X152550000Y-93695558D02*
X153195558Y-93050000D01*
D45*
%TO.N,/i2c_sda_switched*%
X141040000Y-92075736D02*
X140435000Y-92680736D01*
X141040000Y-91656158D02*
X141040000Y-92075736D01*
X138749999Y-91050001D02*
X138774999Y-91025001D01*
X139782500Y-96950000D02*
X139422500Y-96950000D01*
X140433843Y-91050001D02*
X141040000Y-91656158D01*
X139874999Y-91025001D02*
X139899999Y-91050001D01*
X138774999Y-91025001D02*
X139874999Y-91025001D01*
X140435000Y-92680736D02*
X140435000Y-96297500D01*
X140435000Y-96297500D02*
X139782500Y-96950000D01*
X138749999Y-91225800D02*
X138749999Y-91050001D01*
X139899999Y-91050001D02*
X140433843Y-91050001D01*
%TO.N,/i2c_scl_switched*%
X139750000Y-96450000D02*
X139422500Y-96450000D01*
X140135000Y-96065000D02*
X139750000Y-96450000D01*
X140135000Y-93360000D02*
X140135000Y-96065000D01*
X139324999Y-92549999D02*
X140135000Y-93360000D01*
%TO.N,Net-(U2-XO)*%
X156062500Y-95262500D02*
X156300000Y-95500000D01*
X154762500Y-95262500D02*
X156062500Y-95262500D01*
%TO.N,Net-(U2-XI)*%
X154762500Y-94762500D02*
X155125000Y-94400000D01*
X155125000Y-94400000D02*
X156300000Y-94400000D01*
%TO.N,/NFC_SWITCH*%
X139324999Y-92150000D02*
X139934863Y-92150000D01*
X149975500Y-92375500D02*
X157774500Y-92375500D01*
X137525001Y-91825000D02*
X137525001Y-91975001D01*
X137525001Y-91975001D02*
X137725000Y-92175000D01*
X149100000Y-90750000D02*
X149100000Y-91500000D01*
X142068600Y-91200000D02*
X141978189Y-91290411D01*
X157774500Y-92375500D02*
X158450000Y-91700000D01*
X158450000Y-91700000D02*
X158725000Y-91700000D01*
X136975001Y-91750000D02*
X137450001Y-91750000D01*
X139299999Y-92175000D02*
X139324999Y-92150000D01*
X137450001Y-91750000D02*
X137525001Y-91825000D01*
X137725000Y-92175000D02*
X139299999Y-92175000D01*
X143421200Y-90284300D02*
X142505500Y-91200000D01*
X145484300Y-90284300D02*
X143421200Y-90284300D01*
X139934863Y-92150000D02*
X140032079Y-92247216D01*
X149100000Y-91500000D02*
X149975500Y-92375500D01*
X142505500Y-91200000D02*
X142068600Y-91200000D01*
%TD*%
%TA.AperFunction,Conductor*%
%TO.N,GND*%
G36*
X156267500Y-81836613D02*
G01*
X156312887Y-81882000D01*
X156329500Y-81944000D01*
X156329500Y-82933115D01*
X156327116Y-82957306D01*
X156324592Y-82970000D01*
X156326975Y-82981980D01*
X156341650Y-83055759D01*
X156341651Y-83055762D01*
X156344034Y-83067740D01*
X156399399Y-83150601D01*
X156482260Y-83205966D01*
X156523312Y-83214132D01*
X156580000Y-83225408D01*
X156591980Y-83223025D01*
X156592694Y-83222883D01*
X156616885Y-83220500D01*
X164710500Y-83220500D01*
X164772500Y-83237113D01*
X164817887Y-83282500D01*
X164834500Y-83344500D01*
X164834500Y-89763115D01*
X164832116Y-89787306D01*
X164829592Y-89800000D01*
X164831975Y-89811980D01*
X164834500Y-89824674D01*
X164846650Y-89885759D01*
X164846651Y-89885762D01*
X164849034Y-89897740D01*
X164904399Y-89980601D01*
X164987260Y-90035966D01*
X165085000Y-90055408D01*
X165096980Y-90053025D01*
X165097694Y-90052883D01*
X165121885Y-90050500D01*
X166125500Y-90050500D01*
X166187500Y-90067113D01*
X166232887Y-90112500D01*
X166249500Y-90174500D01*
X166249500Y-97745500D01*
X166232887Y-97807500D01*
X166187500Y-97852887D01*
X166125500Y-97869500D01*
X162866966Y-97869500D01*
X162810671Y-97855985D01*
X162766648Y-97818385D01*
X162744493Y-97764898D01*
X162749035Y-97707182D01*
X162779285Y-97657819D01*
X163209897Y-97227206D01*
X163645744Y-96791357D01*
X163656093Y-96782109D01*
X163683970Y-96759879D01*
X163716191Y-96712618D01*
X163718830Y-96708898D01*
X163752793Y-96662882D01*
X163755629Y-96654775D01*
X163760472Y-96647673D01*
X163777339Y-96592986D01*
X163778761Y-96588669D01*
X163797646Y-96534700D01*
X163797967Y-96526112D01*
X163800500Y-96517902D01*
X163800500Y-96460739D01*
X163800587Y-96456102D01*
X163800634Y-96454847D01*
X163802724Y-96398990D01*
X163800928Y-96392287D01*
X163800500Y-96384658D01*
X163800500Y-95412181D01*
X163813443Y-95357023D01*
X163849571Y-95313380D01*
X163862451Y-95303612D01*
X163925840Y-95278951D01*
X163992701Y-95291438D01*
X164042918Y-95337315D01*
X164048634Y-95346583D01*
X164057537Y-95357842D01*
X164167157Y-95467462D01*
X164178419Y-95476367D01*
X164310366Y-95557753D01*
X164323374Y-95563819D01*
X164470969Y-95612727D01*
X164484125Y-95615543D01*
X164573555Y-95624680D01*
X164579832Y-95625000D01*
X164583674Y-95625000D01*
X164596549Y-95621549D01*
X164600000Y-95608674D01*
X164600000Y-95608673D01*
X165100000Y-95608673D01*
X165103450Y-95621548D01*
X165116326Y-95624999D01*
X165120165Y-95624999D01*
X165126447Y-95624678D01*
X165215867Y-95615544D01*
X165229036Y-95612725D01*
X165376625Y-95563819D01*
X165389633Y-95557753D01*
X165521580Y-95476367D01*
X165532842Y-95467462D01*
X165642462Y-95357842D01*
X165651367Y-95346580D01*
X165732753Y-95214633D01*
X165738819Y-95201625D01*
X165787727Y-95054030D01*
X165790543Y-95040874D01*
X165799680Y-94951444D01*
X165800000Y-94945168D01*
X165800000Y-94916326D01*
X165796549Y-94903450D01*
X165783674Y-94900000D01*
X165116326Y-94900000D01*
X165103450Y-94903450D01*
X165100000Y-94916326D01*
X165100000Y-95608673D01*
X164600000Y-95608673D01*
X164600000Y-94383674D01*
X165100000Y-94383674D01*
X165103450Y-94396549D01*
X165116326Y-94400000D01*
X165783673Y-94400000D01*
X165796548Y-94396549D01*
X165799999Y-94383674D01*
X165799999Y-94354835D01*
X165799678Y-94348552D01*
X165790544Y-94259132D01*
X165787725Y-94245963D01*
X165738819Y-94098374D01*
X165732753Y-94085366D01*
X165658570Y-93965096D01*
X165640108Y-93899999D01*
X165658570Y-93834901D01*
X165732755Y-93714629D01*
X165738819Y-93701625D01*
X165787727Y-93554030D01*
X165790543Y-93540874D01*
X165799680Y-93451444D01*
X165800000Y-93445168D01*
X165800000Y-93416326D01*
X165796549Y-93403450D01*
X165783674Y-93400000D01*
X165116326Y-93400000D01*
X165103450Y-93403450D01*
X165100000Y-93416326D01*
X165100000Y-94383674D01*
X164600000Y-94383674D01*
X164600000Y-92883674D01*
X165100000Y-92883674D01*
X165103450Y-92896549D01*
X165116326Y-92900000D01*
X165783673Y-92900000D01*
X165796548Y-92896549D01*
X165799999Y-92883674D01*
X165799999Y-92854835D01*
X165799678Y-92848552D01*
X165790544Y-92759132D01*
X165787725Y-92745963D01*
X165738819Y-92598374D01*
X165732753Y-92585366D01*
X165658570Y-92465097D01*
X165640108Y-92400000D01*
X165658570Y-92334903D01*
X165732753Y-92214633D01*
X165738819Y-92201625D01*
X165787727Y-92054030D01*
X165790543Y-92040874D01*
X165799680Y-91951444D01*
X165800000Y-91945168D01*
X165800000Y-91916326D01*
X165796549Y-91903450D01*
X165783674Y-91900000D01*
X165116326Y-91900000D01*
X165103450Y-91903450D01*
X165100000Y-91916326D01*
X165100000Y-92883674D01*
X164600000Y-92883674D01*
X164600000Y-91383674D01*
X165100000Y-91383674D01*
X165103450Y-91396549D01*
X165116326Y-91400000D01*
X165783673Y-91400000D01*
X165796548Y-91396549D01*
X165799999Y-91383674D01*
X165799999Y-91354835D01*
X165799678Y-91348552D01*
X165790544Y-91259132D01*
X165787725Y-91245963D01*
X165738819Y-91098374D01*
X165732753Y-91085366D01*
X165651367Y-90953419D01*
X165642462Y-90942157D01*
X165532842Y-90832537D01*
X165521580Y-90823632D01*
X165389633Y-90742246D01*
X165376625Y-90736180D01*
X165229030Y-90687272D01*
X165215874Y-90684456D01*
X165126444Y-90675319D01*
X165120168Y-90675000D01*
X165116326Y-90675000D01*
X165103450Y-90678450D01*
X165100000Y-90691326D01*
X165100000Y-91383674D01*
X164600000Y-91383674D01*
X164600000Y-90691327D01*
X164596549Y-90678451D01*
X164583674Y-90675001D01*
X164579835Y-90675001D01*
X164573552Y-90675321D01*
X164484132Y-90684455D01*
X164470963Y-90687274D01*
X164323374Y-90736180D01*
X164310366Y-90742246D01*
X164178419Y-90823632D01*
X164167157Y-90832537D01*
X164057537Y-90942157D01*
X164048633Y-90953418D01*
X164042916Y-90962687D01*
X163992701Y-91008562D01*
X163925842Y-91021048D01*
X163862455Y-90996390D01*
X163799575Y-90948707D01*
X163763444Y-90905063D01*
X163750500Y-90849903D01*
X163750500Y-86207261D01*
X163751280Y-86193378D01*
X163755270Y-86157965D01*
X163744635Y-86101761D01*
X163743864Y-86097218D01*
X163739368Y-86067389D01*
X163735348Y-86040713D01*
X163731622Y-86032976D01*
X163730024Y-86024529D01*
X163703305Y-85973976D01*
X163701236Y-85969878D01*
X163676425Y-85918358D01*
X163670581Y-85912059D01*
X163666566Y-85904463D01*
X163626164Y-85864061D01*
X163622946Y-85860721D01*
X163590374Y-85825616D01*
X163590372Y-85825615D01*
X163584055Y-85818806D01*
X163578046Y-85815336D01*
X163572340Y-85810237D01*
X162836818Y-85074715D01*
X162809938Y-85034487D01*
X162800499Y-84987034D01*
X162800499Y-84333714D01*
X162800499Y-84330136D01*
X162797585Y-84305009D01*
X162752206Y-84202235D01*
X162672765Y-84122794D01*
X162657833Y-84116201D01*
X162578522Y-84081181D01*
X162578517Y-84081179D01*
X162569991Y-84077415D01*
X162560726Y-84076340D01*
X162548414Y-84074911D01*
X162548401Y-84074910D01*
X162544865Y-84074500D01*
X162541290Y-84074500D01*
X161458714Y-84074500D01*
X161458696Y-84074500D01*
X161455136Y-84074501D01*
X161451589Y-84074912D01*
X161451577Y-84074913D01*
X161439276Y-84076340D01*
X161439274Y-84076340D01*
X161430009Y-84077415D01*
X161421479Y-84081180D01*
X161421307Y-84081228D01*
X161362812Y-84082830D01*
X161310097Y-84057429D01*
X161292970Y-84043373D01*
X161282882Y-84036633D01*
X161119905Y-83949520D01*
X161108712Y-83944883D01*
X160993896Y-83910054D01*
X160982612Y-83909361D01*
X160980000Y-83920363D01*
X160980000Y-85001000D01*
X160963387Y-85063000D01*
X160918000Y-85108387D01*
X160856000Y-85125000D01*
X159334000Y-85125000D01*
X159272000Y-85108387D01*
X159226613Y-85063000D01*
X159210000Y-85001000D01*
X159210000Y-84608674D01*
X159710000Y-84608674D01*
X159713450Y-84621549D01*
X159726326Y-84625000D01*
X160463674Y-84625000D01*
X160476549Y-84621549D01*
X160480000Y-84608674D01*
X160480000Y-83920363D01*
X160477387Y-83909361D01*
X160466103Y-83910054D01*
X160351287Y-83944883D01*
X160340094Y-83949520D01*
X160177114Y-84036634D01*
X160163888Y-84045472D01*
X160119190Y-84063986D01*
X160070810Y-84063986D01*
X160026112Y-84045472D01*
X160012885Y-84036634D01*
X159849905Y-83949520D01*
X159838712Y-83944883D01*
X159723896Y-83910054D01*
X159712612Y-83909361D01*
X159710000Y-83920363D01*
X159710000Y-84608674D01*
X159210000Y-84608674D01*
X159210000Y-83920363D01*
X159207387Y-83909361D01*
X159196103Y-83910054D01*
X159081287Y-83944883D01*
X159070094Y-83949520D01*
X158907117Y-84036633D01*
X158897029Y-84043374D01*
X158754182Y-84160606D01*
X158748266Y-84166522D01*
X158701540Y-84195879D01*
X158646703Y-84202056D01*
X158594616Y-84183829D01*
X158545415Y-84152913D01*
X158545409Y-84152910D01*
X158539522Y-84149211D01*
X158532959Y-84146914D01*
X158532956Y-84146913D01*
X158375824Y-84091930D01*
X158375819Y-84091928D01*
X158369255Y-84089632D01*
X158362335Y-84088852D01*
X158362334Y-84088852D01*
X158196923Y-84070215D01*
X158190000Y-84069435D01*
X158183077Y-84070215D01*
X158017665Y-84088852D01*
X158017662Y-84088852D01*
X158010745Y-84089632D01*
X158004182Y-84091928D01*
X158004175Y-84091930D01*
X157847043Y-84146913D01*
X157847036Y-84146915D01*
X157840478Y-84149211D01*
X157834590Y-84152910D01*
X157834587Y-84152912D01*
X157693638Y-84241476D01*
X157693633Y-84241479D01*
X157687738Y-84245184D01*
X157682813Y-84250108D01*
X157682809Y-84250112D01*
X157642681Y-84290241D01*
X157587094Y-84322335D01*
X157522906Y-84322335D01*
X157467319Y-84290241D01*
X157427190Y-84250112D01*
X157427190Y-84250111D01*
X157422262Y-84245184D01*
X157269522Y-84149211D01*
X157262959Y-84146914D01*
X157262956Y-84146913D01*
X157105824Y-84091930D01*
X157105819Y-84091928D01*
X157099255Y-84089632D01*
X157092335Y-84088852D01*
X157092334Y-84088852D01*
X156926923Y-84070215D01*
X156920000Y-84069435D01*
X156913077Y-84070215D01*
X156747665Y-84088852D01*
X156747662Y-84088852D01*
X156740745Y-84089632D01*
X156734182Y-84091928D01*
X156734175Y-84091930D01*
X156577043Y-84146913D01*
X156577036Y-84146915D01*
X156570478Y-84149211D01*
X156564590Y-84152910D01*
X156564587Y-84152912D01*
X156423638Y-84241476D01*
X156423633Y-84241479D01*
X156417738Y-84245184D01*
X156412813Y-84250108D01*
X156412809Y-84250112D01*
X156295112Y-84367809D01*
X156295108Y-84367813D01*
X156290184Y-84372738D01*
X156286481Y-84378630D01*
X156286474Y-84378640D01*
X156204637Y-84508883D01*
X156162145Y-84550007D01*
X156105438Y-84566775D01*
X156047413Y-84555373D01*
X156001267Y-84518395D01*
X155996123Y-84511691D01*
X155977080Y-84476064D01*
X155970500Y-84436206D01*
X155970500Y-81944000D01*
X155987113Y-81882000D01*
X156032500Y-81836613D01*
X156094500Y-81820000D01*
X156205500Y-81820000D01*
X156267500Y-81836613D01*
G37*
%TD.AperFunction*%
%TA.AperFunction,Conductor*%
G36*
X145184219Y-96678244D02*
G01*
X145202186Y-96696211D01*
X145216326Y-96700000D01*
X146526000Y-96700000D01*
X146588000Y-96716613D01*
X146633387Y-96762000D01*
X146650000Y-96824000D01*
X146650000Y-97076000D01*
X146633387Y-97138000D01*
X146588000Y-97183387D01*
X146526000Y-97200000D01*
X145216326Y-97200000D01*
X145203450Y-97203450D01*
X145200000Y-97216326D01*
X145200000Y-97694518D01*
X145200353Y-97701116D01*
X145203700Y-97732246D01*
X145191946Y-97799682D01*
X145146203Y-97850606D01*
X145080410Y-97869500D01*
X144363932Y-97869500D01*
X144307637Y-97855985D01*
X144263614Y-97818385D01*
X144241459Y-97764898D01*
X144246001Y-97707182D01*
X144276251Y-97657819D01*
X144276724Y-97657346D01*
X144300789Y-97633281D01*
X144360182Y-97516715D01*
X144375500Y-97420003D01*
X144375499Y-97362964D01*
X144384938Y-97315513D01*
X144411816Y-97275286D01*
X145008860Y-96678241D01*
X145064444Y-96646150D01*
X145128632Y-96646150D01*
X145184219Y-96678244D01*
G37*
%TD.AperFunction*%
%TA.AperFunction,Conductor*%
G36*
X143463000Y-92016613D02*
G01*
X143508387Y-92062000D01*
X143525000Y-92124000D01*
X143525000Y-93483674D01*
X143528450Y-93496549D01*
X143541326Y-93500000D01*
X144208673Y-93500000D01*
X144218857Y-93497271D01*
X144267623Y-93494171D01*
X144313801Y-93510152D01*
X144350219Y-93542733D01*
X144412140Y-93625448D01*
X144417454Y-93632546D01*
X144532669Y-93718796D01*
X144667517Y-93769091D01*
X144727127Y-93775500D01*
X145062033Y-93775499D01*
X145109485Y-93784938D01*
X145149714Y-93811818D01*
X145363181Y-94025284D01*
X145390061Y-94065512D01*
X145399500Y-94112965D01*
X145399500Y-94962034D01*
X145390061Y-95009487D01*
X145363181Y-95049715D01*
X143849714Y-96563181D01*
X143809487Y-96590061D01*
X143762035Y-96599500D01*
X143709868Y-96599500D01*
X143709855Y-96599500D01*
X143704998Y-96599501D01*
X143700195Y-96600261D01*
X143700190Y-96600262D01*
X143617921Y-96613291D01*
X143617915Y-96613292D01*
X143608285Y-96614818D01*
X143599595Y-96619245D01*
X143599591Y-96619247D01*
X143500413Y-96669780D01*
X143500407Y-96669784D01*
X143491719Y-96674211D01*
X143484820Y-96681109D01*
X143484817Y-96681112D01*
X143406112Y-96759817D01*
X143406109Y-96759820D01*
X143399211Y-96766719D01*
X143394784Y-96775407D01*
X143394780Y-96775413D01*
X143347558Y-96868094D01*
X143339818Y-96883285D01*
X143338291Y-96892920D01*
X143338290Y-96892926D01*
X143325263Y-96975176D01*
X143325262Y-96975183D01*
X143324500Y-96979997D01*
X143324500Y-96984874D01*
X143324500Y-96984875D01*
X143324500Y-97415132D01*
X143324500Y-97415144D01*
X143324501Y-97420002D01*
X143325261Y-97424806D01*
X143325262Y-97424808D01*
X143338291Y-97507078D01*
X143338292Y-97507082D01*
X143339818Y-97516715D01*
X143344246Y-97525406D01*
X143344247Y-97525408D01*
X143394780Y-97624586D01*
X143394782Y-97624589D01*
X143399211Y-97633281D01*
X143406112Y-97640182D01*
X143423749Y-97657819D01*
X143453999Y-97707182D01*
X143458541Y-97764898D01*
X143436386Y-97818385D01*
X143392363Y-97855985D01*
X143336068Y-97869500D01*
X142676066Y-97869500D01*
X142613785Y-97852725D01*
X142568356Y-97806937D01*
X142552070Y-97744527D01*
X142569334Y-97682380D01*
X142599182Y-97631909D01*
X142605331Y-97617697D01*
X142635500Y-97513856D01*
X142636075Y-97502590D01*
X142625096Y-97500000D01*
X141174904Y-97500000D01*
X141163924Y-97502590D01*
X141164499Y-97513856D01*
X141194668Y-97617697D01*
X141200817Y-97631909D01*
X141230666Y-97682380D01*
X141247930Y-97744527D01*
X141231644Y-97806937D01*
X141186215Y-97852725D01*
X141123934Y-97869500D01*
X137199534Y-97869500D01*
X137139461Y-97853977D01*
X137094428Y-97811293D01*
X137075712Y-97752137D01*
X137087997Y-97691319D01*
X137128209Y-97644066D01*
X137186279Y-97622210D01*
X137212167Y-97619426D01*
X137227141Y-97615888D01*
X137346277Y-97571452D01*
X137361689Y-97563037D01*
X137462592Y-97487501D01*
X137475001Y-97475092D01*
X137550539Y-97374187D01*
X137558951Y-97358779D01*
X137559928Y-97356163D01*
X137586367Y-97313928D01*
X137627297Y-97285510D01*
X137676104Y-97275499D01*
X138886666Y-97275499D01*
X138934119Y-97284938D01*
X138974347Y-97311817D01*
X139039735Y-97377206D01*
X139098316Y-97403072D01*
X139133977Y-97418818D01*
X139133978Y-97418818D01*
X139142509Y-97422585D01*
X139167635Y-97425500D01*
X139677364Y-97425499D01*
X139702491Y-97422585D01*
X139805265Y-97377206D01*
X139837571Y-97344899D01*
X139868532Y-97322315D01*
X139886670Y-97316307D01*
X139886378Y-97315457D01*
X139891126Y-97314866D01*
X139898270Y-97311373D01*
X139906110Y-97310065D01*
X139952147Y-97285150D01*
X139956664Y-97282825D01*
X140003711Y-97259826D01*
X140009334Y-97254202D01*
X140016326Y-97250419D01*
X140051817Y-97211863D01*
X140055294Y-97208241D01*
X140663889Y-96599646D01*
X140683747Y-96583521D01*
X140692836Y-96577584D01*
X140712279Y-96552602D01*
X140715742Y-96548709D01*
X140715571Y-96548564D01*
X140718883Y-96544653D01*
X140722519Y-96541018D01*
X140734614Y-96524076D01*
X140737621Y-96520042D01*
X140769809Y-96478689D01*
X140772390Y-96471168D01*
X140777010Y-96464699D01*
X140791959Y-96414483D01*
X140793481Y-96409732D01*
X140810500Y-96360160D01*
X140810500Y-96352207D01*
X140812768Y-96344589D01*
X140810606Y-96292308D01*
X140810500Y-96287185D01*
X140810500Y-94777094D01*
X140824511Y-94719837D01*
X140863377Y-94675519D01*
X140918313Y-94654155D01*
X141053709Y-94636330D01*
X141187625Y-94580861D01*
X141221107Y-94555169D01*
X141282339Y-94530366D01*
X141347620Y-94540529D01*
X141398415Y-94582774D01*
X141420307Y-94645109D01*
X141407079Y-94709838D01*
X141369713Y-94783174D01*
X141369711Y-94783178D01*
X141365281Y-94791874D01*
X141363755Y-94801508D01*
X141363753Y-94801515D01*
X141350263Y-94886691D01*
X141350262Y-94886698D01*
X141349500Y-94891512D01*
X141349500Y-95208488D01*
X141350262Y-95213302D01*
X141350263Y-95213308D01*
X141363753Y-95298484D01*
X141363754Y-95298489D01*
X141365281Y-95308126D01*
X141426472Y-95428220D01*
X141433373Y-95435121D01*
X141463181Y-95464929D01*
X141490061Y-95505157D01*
X141499500Y-95552610D01*
X141499500Y-95575554D01*
X141492919Y-95615413D01*
X141473875Y-95651041D01*
X141424088Y-95715922D01*
X141424080Y-95715935D01*
X141419139Y-95722375D01*
X141416029Y-95729883D01*
X141416028Y-95729885D01*
X141366782Y-95848776D01*
X141366780Y-95848781D01*
X141363670Y-95856291D01*
X141362609Y-95864348D01*
X141362608Y-95864353D01*
X141347696Y-95977625D01*
X141344750Y-96000000D01*
X141345811Y-96008059D01*
X141361391Y-96126405D01*
X141363670Y-96143709D01*
X141366781Y-96151220D01*
X141366782Y-96151223D01*
X141395214Y-96219864D01*
X141419139Y-96277625D01*
X141424084Y-96284069D01*
X141424085Y-96284071D01*
X141507379Y-96392621D01*
X141505794Y-96393836D01*
X141528305Y-96429929D01*
X141534012Y-96485636D01*
X141514630Y-96538173D01*
X141474112Y-96576827D01*
X141395603Y-96623257D01*
X141383370Y-96632746D01*
X141282746Y-96733370D01*
X141273255Y-96745605D01*
X141200816Y-96868094D01*
X141194668Y-96882302D01*
X141164499Y-96986143D01*
X141163924Y-96997409D01*
X141174904Y-97000000D01*
X142625096Y-97000000D01*
X142636075Y-96997409D01*
X142635500Y-96986143D01*
X142605331Y-96882302D01*
X142599183Y-96868094D01*
X142526744Y-96745605D01*
X142517253Y-96733370D01*
X142416629Y-96632746D01*
X142404393Y-96623255D01*
X142325888Y-96576827D01*
X142285364Y-96538167D01*
X142265985Y-96485621D01*
X142271702Y-96429907D01*
X142294207Y-96393838D01*
X142292621Y-96392621D01*
X142318075Y-96359449D01*
X142380861Y-96277625D01*
X142436330Y-96143709D01*
X142455250Y-96000000D01*
X142436330Y-95856291D01*
X142380861Y-95722375D01*
X142375915Y-95715930D01*
X142375911Y-95715922D01*
X142326125Y-95651041D01*
X142307081Y-95615413D01*
X142300500Y-95575554D01*
X142300500Y-95574500D01*
X142317113Y-95512500D01*
X142362500Y-95467113D01*
X142424500Y-95450500D01*
X143281044Y-95450500D01*
X143345833Y-95468772D01*
X143391528Y-95518203D01*
X143394779Y-95524584D01*
X143394781Y-95524587D01*
X143399211Y-95533281D01*
X143491719Y-95625789D01*
X143500412Y-95630218D01*
X143500413Y-95630219D01*
X143520332Y-95640368D01*
X143608285Y-95685182D01*
X143704997Y-95700500D01*
X143995002Y-95700499D01*
X144091715Y-95685182D01*
X144208281Y-95625789D01*
X144300789Y-95533281D01*
X144360182Y-95416715D01*
X144375500Y-95320003D01*
X144375499Y-94879998D01*
X144360182Y-94783285D01*
X144315130Y-94694865D01*
X144305219Y-94675413D01*
X144305218Y-94675412D01*
X144300789Y-94666719D01*
X144208281Y-94574211D01*
X144199585Y-94569780D01*
X144167883Y-94553627D01*
X144118387Y-94507829D01*
X144100178Y-94442900D01*
X144118640Y-94378044D01*
X144157755Y-94314629D01*
X144163819Y-94301625D01*
X144212727Y-94154030D01*
X144215543Y-94140874D01*
X144224680Y-94051444D01*
X144225000Y-94045168D01*
X144225000Y-94016326D01*
X144221549Y-94003450D01*
X144208674Y-94000000D01*
X143149000Y-94000000D01*
X143087000Y-93983387D01*
X143041613Y-93938000D01*
X143025000Y-93876000D01*
X143025000Y-92124000D01*
X143041613Y-92062000D01*
X143087000Y-92016613D01*
X143149000Y-92000000D01*
X143401000Y-92000000D01*
X143463000Y-92016613D01*
G37*
%TD.AperFunction*%
%TA.AperFunction,Conductor*%
G36*
X151092321Y-96382952D02*
G01*
X151135900Y-96432300D01*
X151177748Y-96517902D01*
X151187988Y-96538847D01*
X151273653Y-96624512D01*
X151382491Y-96677720D01*
X151453051Y-96688000D01*
X151801002Y-96687999D01*
X151863000Y-96704612D01*
X151908387Y-96749999D01*
X151925000Y-96811999D01*
X151925000Y-96833674D01*
X151928450Y-96846549D01*
X151941326Y-96850000D01*
X152551000Y-96850000D01*
X152613000Y-96866613D01*
X152658387Y-96912000D01*
X152675000Y-96974000D01*
X152675000Y-96976000D01*
X152658387Y-97038000D01*
X152613000Y-97083387D01*
X152551000Y-97100000D01*
X151941326Y-97100000D01*
X151928450Y-97103450D01*
X151925000Y-97116326D01*
X151925000Y-97145500D01*
X151908387Y-97207500D01*
X151863000Y-97252887D01*
X151801000Y-97269500D01*
X151207966Y-97269500D01*
X151160513Y-97260061D01*
X151120285Y-97233181D01*
X150936819Y-97049716D01*
X150909939Y-97009488D01*
X150900500Y-96962035D01*
X150900500Y-96486761D01*
X150917977Y-96423287D01*
X150965482Y-96377706D01*
X151029624Y-96362867D01*
X151092321Y-96382952D01*
G37*
%TD.AperFunction*%
%TA.AperFunction,Conductor*%
G36*
X157262817Y-94110823D02*
G01*
X157312180Y-94141073D01*
X158813789Y-95642682D01*
X158839251Y-95679621D01*
X158849096Y-95719910D01*
X158849501Y-95719864D01*
X158849912Y-95723410D01*
X158849913Y-95723423D01*
X158851339Y-95735720D01*
X158851340Y-95735725D01*
X158852415Y-95744991D01*
X158856183Y-95753525D01*
X158858632Y-95762526D01*
X158857324Y-95762881D01*
X158865154Y-95800000D01*
X158857323Y-95837122D01*
X158858630Y-95837478D01*
X158856180Y-95846481D01*
X158852415Y-95855009D01*
X158851341Y-95864264D01*
X158851340Y-95864269D01*
X158849911Y-95876585D01*
X158849910Y-95876599D01*
X158849500Y-95880135D01*
X158849500Y-95883709D01*
X158849500Y-95883710D01*
X158849500Y-96128869D01*
X158834645Y-96187720D01*
X158793639Y-96232470D01*
X158736307Y-96252397D01*
X158676385Y-96242728D01*
X158628232Y-96205777D01*
X158617466Y-96192161D01*
X158507842Y-96082537D01*
X158496580Y-96073632D01*
X158364633Y-95992246D01*
X158351625Y-95986180D01*
X158204030Y-95937272D01*
X158190874Y-95934456D01*
X158101444Y-95925319D01*
X158095168Y-95925000D01*
X158091326Y-95925000D01*
X158078450Y-95928450D01*
X158075000Y-95941326D01*
X158075000Y-97026000D01*
X158058387Y-97088000D01*
X158013000Y-97133387D01*
X157951000Y-97150000D01*
X157699000Y-97150000D01*
X157637000Y-97133387D01*
X157591613Y-97088000D01*
X157575000Y-97026000D01*
X157575000Y-95941327D01*
X157571549Y-95928451D01*
X157558674Y-95925001D01*
X157554835Y-95925001D01*
X157548552Y-95925321D01*
X157459132Y-95934455D01*
X157445963Y-95937274D01*
X157298374Y-95986180D01*
X157285367Y-95992245D01*
X157262562Y-96006312D01*
X157203022Y-96024648D01*
X157142079Y-96011716D01*
X157095118Y-95970779D01*
X157073991Y-95912171D01*
X157084032Y-95850686D01*
X157086677Y-95844695D01*
X157097585Y-95819991D01*
X157100500Y-95794865D01*
X157100499Y-95205136D01*
X157097585Y-95180009D01*
X157052206Y-95077235D01*
X157012652Y-95037681D01*
X156980558Y-94982094D01*
X156980558Y-94917906D01*
X157012652Y-94862319D01*
X157027691Y-94847280D01*
X157052206Y-94822765D01*
X157097585Y-94719991D01*
X157100500Y-94694865D01*
X157100499Y-94228753D01*
X157114014Y-94172459D01*
X157151613Y-94128436D01*
X157205101Y-94106281D01*
X157262817Y-94110823D01*
G37*
%TD.AperFunction*%
%TA.AperFunction,Conductor*%
G36*
X147887501Y-95217113D02*
G01*
X147932888Y-95262500D01*
X147949501Y-95324500D01*
X147949501Y-95494864D01*
X147949912Y-95498411D01*
X147949913Y-95498422D01*
X147951340Y-95510722D01*
X147952415Y-95519991D01*
X147956181Y-95528521D01*
X147956182Y-95528523D01*
X147968443Y-95556291D01*
X147997794Y-95622765D01*
X148005919Y-95630890D01*
X148006095Y-95631066D01*
X148006311Y-95631463D01*
X148012412Y-95640368D01*
X148011511Y-95640985D01*
X148039580Y-95692388D01*
X148034596Y-95762079D01*
X147992726Y-95818013D01*
X147899908Y-95887497D01*
X147887498Y-95899907D01*
X147811962Y-96000810D01*
X147803548Y-96016220D01*
X147791182Y-96049375D01*
X147757533Y-96098585D01*
X147704807Y-96126405D01*
X147645193Y-96126405D01*
X147592467Y-96098585D01*
X147558818Y-96049375D01*
X147546451Y-96016220D01*
X147538037Y-96000810D01*
X147462501Y-95899907D01*
X147450088Y-95887494D01*
X147357274Y-95818013D01*
X147322751Y-95778171D01*
X147307901Y-95727589D01*
X147315405Y-95675408D01*
X147337822Y-95640528D01*
X147337588Y-95640368D01*
X147343068Y-95632368D01*
X147343905Y-95631065D01*
X147352206Y-95622765D01*
X147397585Y-95519991D01*
X147400500Y-95494865D01*
X147400500Y-95324500D01*
X147417113Y-95262500D01*
X147462500Y-95217113D01*
X147524500Y-95200500D01*
X147825501Y-95200500D01*
X147887501Y-95217113D01*
G37*
%TD.AperFunction*%
%TA.AperFunction,Conductor*%
G36*
X154420228Y-88444511D02*
G01*
X154464546Y-88483376D01*
X154485910Y-88538314D01*
X154502532Y-88664569D01*
X154503670Y-88673209D01*
X154559139Y-88807125D01*
X154564082Y-88813567D01*
X154564088Y-88813577D01*
X154613875Y-88878459D01*
X154632919Y-88914087D01*
X154639500Y-88953946D01*
X154639500Y-89051567D01*
X154639500Y-89178433D01*
X154642515Y-89187714D01*
X154642516Y-89187717D01*
X154646346Y-89199506D01*
X154650887Y-89218418D01*
X154654354Y-89240304D01*
X154658783Y-89248996D01*
X154658784Y-89248999D01*
X154664412Y-89260044D01*
X154671857Y-89278019D01*
X154678704Y-89299090D01*
X154684436Y-89306980D01*
X154684440Y-89306987D01*
X154691726Y-89317015D01*
X154701889Y-89333598D01*
X154711950Y-89353342D01*
X154734513Y-89375905D01*
X154734516Y-89375909D01*
X155109689Y-89751082D01*
X155271427Y-89912819D01*
X155301677Y-89962182D01*
X155306219Y-90019898D01*
X155284064Y-90073385D01*
X155240041Y-90110985D01*
X155183746Y-90124500D01*
X154930439Y-90124500D01*
X154930420Y-90124500D01*
X154927128Y-90124501D01*
X154923850Y-90124853D01*
X154923838Y-90124854D01*
X154875231Y-90130079D01*
X154875225Y-90130080D01*
X154867517Y-90130909D01*
X154860252Y-90133618D01*
X154860246Y-90133620D01*
X154740980Y-90178104D01*
X154740978Y-90178104D01*
X154732669Y-90181204D01*
X154725572Y-90186516D01*
X154725568Y-90186519D01*
X154624550Y-90262141D01*
X154624546Y-90262144D01*
X154617454Y-90267454D01*
X154612144Y-90274546D01*
X154612137Y-90274554D01*
X154595014Y-90297427D01*
X154550084Y-90334575D01*
X154493144Y-90347086D01*
X154436779Y-90332193D01*
X154402818Y-90301622D01*
X154402206Y-90302235D01*
X154322765Y-90222794D01*
X154277524Y-90202818D01*
X154228522Y-90181181D01*
X154228517Y-90181179D01*
X154219991Y-90177415D01*
X154210726Y-90176340D01*
X154198414Y-90174911D01*
X154198401Y-90174910D01*
X154194865Y-90174500D01*
X154191290Y-90174500D01*
X153108714Y-90174500D01*
X153108696Y-90174500D01*
X153105136Y-90174501D01*
X153101589Y-90174912D01*
X153101577Y-90174913D01*
X153089277Y-90176340D01*
X153089275Y-90176340D01*
X153080009Y-90177415D01*
X153071479Y-90181180D01*
X153071476Y-90181182D01*
X152987745Y-90218153D01*
X152987743Y-90218154D01*
X152977235Y-90222794D01*
X152969112Y-90230916D01*
X152969109Y-90230919D01*
X152937681Y-90262348D01*
X152882094Y-90294442D01*
X152817906Y-90294442D01*
X152762319Y-90262348D01*
X152730890Y-90230919D01*
X152722765Y-90222794D01*
X152677524Y-90202818D01*
X152628522Y-90181181D01*
X152628517Y-90181179D01*
X152619991Y-90177415D01*
X152610726Y-90176340D01*
X152598414Y-90174911D01*
X152598401Y-90174910D01*
X152594865Y-90174500D01*
X152591290Y-90174500D01*
X151508714Y-90174500D01*
X151508696Y-90174500D01*
X151505136Y-90174501D01*
X151501589Y-90174912D01*
X151501577Y-90174913D01*
X151489277Y-90176340D01*
X151489275Y-90176340D01*
X151480009Y-90177415D01*
X151471479Y-90181180D01*
X151471476Y-90181182D01*
X151387745Y-90218153D01*
X151387743Y-90218154D01*
X151377235Y-90222794D01*
X151369112Y-90230916D01*
X151369109Y-90230919D01*
X151305919Y-90294109D01*
X151305916Y-90294112D01*
X151297794Y-90302235D01*
X151293154Y-90312743D01*
X151293153Y-90312745D01*
X151256181Y-90396477D01*
X151256179Y-90396484D01*
X151252415Y-90405009D01*
X151251340Y-90414271D01*
X151251340Y-90414273D01*
X151249911Y-90426585D01*
X151249910Y-90426599D01*
X151249500Y-90430135D01*
X151249500Y-90887501D01*
X151249501Y-91225500D01*
X151232888Y-91287500D01*
X151187501Y-91332887D01*
X151125501Y-91349500D01*
X150959285Y-91349500D01*
X150919425Y-91342919D01*
X150891276Y-91327872D01*
X150891115Y-91328152D01*
X150884072Y-91324086D01*
X150877625Y-91319139D01*
X150827191Y-91298249D01*
X150751223Y-91266782D01*
X150751220Y-91266781D01*
X150743709Y-91263670D01*
X150735649Y-91262608D01*
X150735646Y-91262608D01*
X150608059Y-91245811D01*
X150600000Y-91244750D01*
X150591941Y-91245811D01*
X150464353Y-91262608D01*
X150464348Y-91262609D01*
X150456291Y-91263670D01*
X150448781Y-91266780D01*
X150448776Y-91266782D01*
X150329885Y-91316028D01*
X150329883Y-91316029D01*
X150322375Y-91319139D01*
X150315933Y-91324082D01*
X150315928Y-91324085D01*
X150213821Y-91402435D01*
X150213817Y-91402438D01*
X150207379Y-91407379D01*
X150202438Y-91413817D01*
X150202435Y-91413821D01*
X150124085Y-91515928D01*
X150124082Y-91515933D01*
X150119139Y-91522375D01*
X150116029Y-91529883D01*
X150116028Y-91529885D01*
X150066780Y-91648782D01*
X150063670Y-91656291D01*
X150062609Y-91664346D01*
X150061725Y-91667647D01*
X150029631Y-91723233D01*
X149974043Y-91755326D01*
X149909857Y-91755326D01*
X149854270Y-91723232D01*
X149511819Y-91380781D01*
X149484939Y-91340553D01*
X149475500Y-91293100D01*
X149475500Y-91207027D01*
X149482081Y-91167168D01*
X149501124Y-91131540D01*
X149575914Y-91034072D01*
X149575913Y-91034072D01*
X149580861Y-91027625D01*
X149636330Y-90893709D01*
X149655250Y-90750000D01*
X149636330Y-90606291D01*
X149580861Y-90472375D01*
X149575913Y-90465927D01*
X149575911Y-90465923D01*
X149497726Y-90364030D01*
X149473986Y-90310076D01*
X149477841Y-90251256D01*
X149508419Y-90200865D01*
X151242466Y-88466819D01*
X151282695Y-88439939D01*
X151330148Y-88430500D01*
X153628481Y-88430500D01*
X153691519Y-88430500D01*
X154362971Y-88430500D01*
X154420228Y-88444511D01*
G37*
%TD.AperFunction*%
%TA.AperFunction,Conductor*%
G36*
X157642681Y-86729758D02*
G01*
X157687738Y-86774816D01*
X157840478Y-86870789D01*
X158010745Y-86930368D01*
X158190000Y-86950565D01*
X158369255Y-86930368D01*
X158539522Y-86870789D01*
X158692262Y-86774816D01*
X158737318Y-86729759D01*
X158792906Y-86697665D01*
X158857094Y-86697665D01*
X158912681Y-86729758D01*
X158957738Y-86774816D01*
X159110478Y-86870789D01*
X159280745Y-86930368D01*
X159460000Y-86950565D01*
X159639255Y-86930368D01*
X159809522Y-86870789D01*
X159962262Y-86774816D01*
X160007318Y-86729759D01*
X160062906Y-86697665D01*
X160127094Y-86697665D01*
X160182681Y-86729758D01*
X160227738Y-86774816D01*
X160233639Y-86778523D01*
X160233638Y-86778523D01*
X160271472Y-86802296D01*
X160314028Y-86847309D01*
X160329500Y-86907290D01*
X160329500Y-87285201D01*
X160319695Y-87326038D01*
X160321799Y-87326722D01*
X160318783Y-87336002D01*
X160314354Y-87344696D01*
X160312827Y-87354330D01*
X160312828Y-87354330D01*
X160310887Y-87366582D01*
X160306347Y-87385492D01*
X160302515Y-87397285D01*
X160302514Y-87397288D01*
X160299500Y-87406567D01*
X160299500Y-87416327D01*
X160299500Y-88255500D01*
X160282887Y-88317500D01*
X160237500Y-88362887D01*
X160175500Y-88379500D01*
X158322612Y-88379500D01*
X158265355Y-88365489D01*
X158221037Y-88326623D01*
X158199673Y-88271684D01*
X158197391Y-88254353D01*
X158196330Y-88246291D01*
X158140861Y-88112375D01*
X158052621Y-87997379D01*
X158037217Y-87985559D01*
X157944071Y-87914085D01*
X157944069Y-87914084D01*
X157937625Y-87909139D01*
X157876924Y-87883996D01*
X157811223Y-87856782D01*
X157811220Y-87856781D01*
X157803709Y-87853670D01*
X157795649Y-87852608D01*
X157795646Y-87852608D01*
X157668059Y-87835811D01*
X157660000Y-87834750D01*
X157651941Y-87835811D01*
X157524353Y-87852608D01*
X157524348Y-87852609D01*
X157516291Y-87853670D01*
X157508781Y-87856780D01*
X157508776Y-87856782D01*
X157389885Y-87906028D01*
X157389883Y-87906029D01*
X157382375Y-87909139D01*
X157375932Y-87914082D01*
X157375923Y-87914088D01*
X157314053Y-87961563D01*
X157257430Y-87985744D01*
X157255559Y-87985559D01*
X157255744Y-87987430D01*
X157231563Y-88044053D01*
X157184088Y-88105923D01*
X157184082Y-88105932D01*
X157179139Y-88112375D01*
X157176029Y-88119883D01*
X157176028Y-88119885D01*
X157126782Y-88238776D01*
X157126780Y-88238781D01*
X157123670Y-88246291D01*
X157122609Y-88254348D01*
X157122608Y-88254353D01*
X157106132Y-88379500D01*
X157104750Y-88390000D01*
X157105811Y-88398059D01*
X157115966Y-88475198D01*
X157123670Y-88533709D01*
X157179139Y-88667625D01*
X157184084Y-88674069D01*
X157184085Y-88674071D01*
X157248856Y-88758481D01*
X157267379Y-88782621D01*
X157382375Y-88870861D01*
X157516291Y-88926330D01*
X157605438Y-88938066D01*
X157644093Y-88949791D01*
X157676931Y-88973322D01*
X157721950Y-89018342D01*
X157811658Y-89108050D01*
X157831397Y-89118107D01*
X157847990Y-89128275D01*
X157865910Y-89141296D01*
X157886983Y-89148142D01*
X157904946Y-89155583D01*
X157924696Y-89165646D01*
X157946579Y-89169111D01*
X157965495Y-89173652D01*
X157986567Y-89180499D01*
X158018469Y-89180499D01*
X158018477Y-89180499D01*
X158018481Y-89180500D01*
X160175500Y-89180500D01*
X160237500Y-89197113D01*
X160282887Y-89242500D01*
X160299500Y-89304500D01*
X160299500Y-90625500D01*
X160282887Y-90687500D01*
X160237500Y-90732887D01*
X160175501Y-90749500D01*
X160008714Y-90749500D01*
X160008696Y-90749500D01*
X160005136Y-90749501D01*
X160001589Y-90749912D01*
X160001577Y-90749913D01*
X159989274Y-90751340D01*
X159989270Y-90751340D01*
X159980009Y-90752415D01*
X159978299Y-90753169D01*
X159921698Y-90753169D01*
X159919991Y-90752415D01*
X159910729Y-90751340D01*
X159910724Y-90751339D01*
X159898414Y-90749911D01*
X159898401Y-90749910D01*
X159894865Y-90749500D01*
X159891290Y-90749500D01*
X159508714Y-90749500D01*
X159508696Y-90749500D01*
X159505136Y-90749501D01*
X159501589Y-90749912D01*
X159501577Y-90749913D01*
X159489276Y-90751340D01*
X159489274Y-90751340D01*
X159480009Y-90752415D01*
X159476303Y-90754050D01*
X159428118Y-90756667D01*
X159354822Y-90745058D01*
X159354813Y-90745057D01*
X159350000Y-90744295D01*
X159345122Y-90744295D01*
X159337050Y-90744295D01*
X159289597Y-90734856D01*
X159249369Y-90707976D01*
X159135916Y-90594523D01*
X159135915Y-90594522D01*
X159135909Y-90594516D01*
X159135905Y-90594513D01*
X159113342Y-90571950D01*
X159104649Y-90567520D01*
X159104647Y-90567519D01*
X159093598Y-90561889D01*
X159077015Y-90551726D01*
X159066987Y-90544440D01*
X159066980Y-90544436D01*
X159059090Y-90538704D01*
X159038019Y-90531857D01*
X159020044Y-90524412D01*
X159008999Y-90518784D01*
X159008996Y-90518783D01*
X159000304Y-90514354D01*
X158990667Y-90512827D01*
X158990666Y-90512827D01*
X158978418Y-90510887D01*
X158959506Y-90506346D01*
X158947717Y-90502516D01*
X158947714Y-90502515D01*
X158938433Y-90499500D01*
X158928673Y-90499500D01*
X157598466Y-90499500D01*
X157549653Y-90489488D01*
X157508722Y-90461069D01*
X157482284Y-90418832D01*
X157471896Y-90390981D01*
X157468796Y-90382669D01*
X157382546Y-90267454D01*
X157360908Y-90251256D01*
X157274431Y-90186519D01*
X157274430Y-90186518D01*
X157267331Y-90181204D01*
X157196965Y-90154959D01*
X157139752Y-90133620D01*
X157139750Y-90133619D01*
X157132483Y-90130909D01*
X157124770Y-90130079D01*
X157124767Y-90130079D01*
X157076180Y-90124855D01*
X157076169Y-90124854D01*
X157072873Y-90124500D01*
X157069551Y-90124500D01*
X156667255Y-90124500D01*
X156619802Y-90115061D01*
X156579574Y-90088181D01*
X155501220Y-89009827D01*
X155470640Y-88959433D01*
X155466785Y-88900613D01*
X155490526Y-88846659D01*
X155515911Y-88813576D01*
X155515911Y-88813575D01*
X155520861Y-88807125D01*
X155576330Y-88673209D01*
X155594090Y-88538314D01*
X155615454Y-88483376D01*
X155659772Y-88444511D01*
X155717029Y-88430500D01*
X156383677Y-88430500D01*
X156393433Y-88430500D01*
X156414495Y-88423656D01*
X156433423Y-88419111D01*
X156455304Y-88415646D01*
X156475045Y-88405586D01*
X156493014Y-88398143D01*
X156514090Y-88391296D01*
X156532016Y-88378271D01*
X156548602Y-88368107D01*
X156568342Y-88358050D01*
X156590905Y-88335486D01*
X156590909Y-88335484D01*
X157045508Y-87880884D01*
X157098488Y-87849521D01*
X157118854Y-87848854D01*
X157119521Y-87828487D01*
X157150883Y-87775509D01*
X157225484Y-87700909D01*
X157225486Y-87700905D01*
X157248050Y-87678342D01*
X157258107Y-87658602D01*
X157268271Y-87642016D01*
X157281296Y-87624090D01*
X157288143Y-87603014D01*
X157295586Y-87585045D01*
X157305646Y-87565304D01*
X157309111Y-87543423D01*
X157313656Y-87524496D01*
X157317485Y-87512712D01*
X157317485Y-87512711D01*
X157320500Y-87503433D01*
X157320500Y-87376567D01*
X157320500Y-86907290D01*
X157335972Y-86847309D01*
X157378528Y-86802296D01*
X157392022Y-86793817D01*
X157422262Y-86774816D01*
X157467318Y-86729759D01*
X157522906Y-86697665D01*
X157587094Y-86697665D01*
X157642681Y-86729758D01*
G37*
%TD.AperFunction*%
%TA.AperFunction,Conductor*%
G36*
X153643385Y-83615581D02*
G01*
X153680985Y-83659604D01*
X153694500Y-83715899D01*
X153694500Y-87413100D01*
X153685061Y-87460553D01*
X153658181Y-87500782D01*
X153565780Y-87593182D01*
X153525551Y-87620061D01*
X153478099Y-87629500D01*
X151176326Y-87629500D01*
X151049460Y-87629500D01*
X151040184Y-87632513D01*
X151040176Y-87632515D01*
X151028384Y-87636347D01*
X151009475Y-87640886D01*
X150997232Y-87642825D01*
X150997223Y-87642827D01*
X150987589Y-87644354D01*
X150978895Y-87648783D01*
X150978890Y-87648785D01*
X150967844Y-87654413D01*
X150949882Y-87661853D01*
X150938087Y-87665686D01*
X150938079Y-87665690D01*
X150928804Y-87668704D01*
X150920916Y-87674434D01*
X150920909Y-87674438D01*
X150910871Y-87681731D01*
X150894298Y-87691886D01*
X150883252Y-87697515D01*
X150883246Y-87697519D01*
X150874551Y-87701950D01*
X150867654Y-87708846D01*
X150867648Y-87708851D01*
X150851987Y-87724513D01*
X149942181Y-88634319D01*
X149892818Y-88664569D01*
X149835102Y-88669111D01*
X149781615Y-88646956D01*
X149744015Y-88602933D01*
X149730500Y-88546638D01*
X149730500Y-87761899D01*
X149739939Y-87714446D01*
X149766819Y-87674218D01*
X149984470Y-87456567D01*
X150638889Y-86802146D01*
X150658747Y-86786021D01*
X150667836Y-86780084D01*
X150687279Y-86755102D01*
X150690746Y-86751205D01*
X150690574Y-86751060D01*
X150693881Y-86747154D01*
X150697520Y-86743517D01*
X150709597Y-86726600D01*
X150712663Y-86722489D01*
X150744809Y-86681189D01*
X150747390Y-86673668D01*
X150752010Y-86667199D01*
X150753763Y-86661307D01*
X150789171Y-86618550D01*
X150842897Y-86595609D01*
X150901164Y-86599812D01*
X150951040Y-86630228D01*
X151005090Y-86684278D01*
X151013356Y-86691215D01*
X151197991Y-86820498D01*
X151207323Y-86825886D01*
X151411602Y-86921143D01*
X151421736Y-86924831D01*
X151616219Y-86976943D01*
X151627448Y-86977311D01*
X151630000Y-86966369D01*
X152130000Y-86966369D01*
X152132551Y-86977311D01*
X152143780Y-86976943D01*
X152338263Y-86924831D01*
X152348397Y-86921143D01*
X152552676Y-86825886D01*
X152562008Y-86820498D01*
X152746643Y-86691215D01*
X152754909Y-86684278D01*
X152914278Y-86524909D01*
X152921215Y-86516643D01*
X153050498Y-86332008D01*
X153055886Y-86322676D01*
X153151143Y-86118397D01*
X153154831Y-86108263D01*
X153206943Y-85913780D01*
X153207311Y-85902551D01*
X153196369Y-85900000D01*
X152146326Y-85900000D01*
X152133450Y-85903450D01*
X152130000Y-85916326D01*
X152130000Y-86966369D01*
X151630000Y-86966369D01*
X151630000Y-85524000D01*
X151646613Y-85462000D01*
X151692000Y-85416613D01*
X151754000Y-85400000D01*
X153196369Y-85400000D01*
X153207311Y-85397448D01*
X153206943Y-85386219D01*
X153154831Y-85191736D01*
X153151143Y-85181602D01*
X153055889Y-84977332D01*
X153050491Y-84967982D01*
X152921215Y-84783357D01*
X152914280Y-84775092D01*
X152754909Y-84615721D01*
X152746643Y-84608784D01*
X152723952Y-84592896D01*
X152687689Y-84553321D01*
X152671548Y-84502128D01*
X152678554Y-84448910D01*
X152707393Y-84403642D01*
X153482818Y-83628218D01*
X153532182Y-83597968D01*
X153589898Y-83593426D01*
X153643385Y-83615581D01*
G37*
%TD.AperFunction*%
%TD*%
M02*
