M48
; DRILL file {KiCad 7.0.0-da2b9df05c~171~ubuntu20.04.1} date Fri 22 Mar 2024 19:40:21 CET
; FORMAT={-:-/ absolute / inch / decimal}
; #@! TF.CreationDate,2024-03-22T19:40:21+01:00
; #@! TF.GenerationSoftware,Kicad,Pcbnew,7.0.0-da2b9df05c~171~ubuntu20.04.1
; #@! TF.FileFunction,Plated,1,2,PTH
FMAT,2
INCH
; #@! TA.AperFunction,Plated,PTH,ViaDrill
T1C0.0098
; #@! TA.AperFunction,Plated,PTH,ComponentDrill
T2C0.0256
; #@! TA.AperFunction,Plated,PTH,ComponentDrill
T3C0.0394
%
G90
G05
T1
X5.2205Y-3.6909
X5.3563Y-3.7382
X5.3563Y-3.7736
X5.4291Y-3.6841
X5.4673Y-3.675
X5.4983Y-3.7033
X5.5131Y-3.6318
X5.5266Y-3.6088
X5.5394Y-3.8378
X5.5424Y-3.5718
X5.5476Y-3.7047
X5.5494Y-3.6692
X5.5866Y-3.7795
X5.5897Y-3.5941
X5.6634Y-3.5787
X5.7277Y-3.5545
X5.7461Y-3.6319
X5.811Y-3.7854
X5.8701Y-3.5728
X5.8878Y-3.685
X5.9173Y-3.5669
X5.9291Y-3.6142
X5.9291Y-3.75
X5.935Y-3.685
X5.935Y-3.7106
X5.9528Y-3.815
X6.0844Y-3.4063
X6.1039Y-3.4854
X6.1087Y-3.4366
X6.1248Y-3.3409
X6.1898Y-3.2953
X6.1949Y-3.7677
X6.2014Y-3.6181
X6.2071Y-3.4799
X6.2126Y-3.6732
X6.2185Y-3.5492
X6.2185Y-3.5965
X6.2362Y-3.7795
X6.2776Y-3.5492
X6.2776Y-3.7323
X6.3528Y-3.4827
X6.3661Y-3.7677
X6.3661Y-3.815
X6.3957Y-3.626
X6.4902Y-3.7913
X6.4902Y-3.8386
T2
X6.178Y-3.3415
X6.178Y-3.3915
X6.228Y-3.3415
X6.228Y-3.3915
X6.278Y-3.3415
X6.278Y-3.3915
X6.328Y-3.3415
X6.328Y-3.3915
X6.378Y-3.3415
X6.378Y-3.3915
T3
X5.6795Y-3.372
X5.7795Y-3.372
X5.8795Y-3.372
X5.9795Y-3.372
T0
M30
