G04*
G04 #@! TF.GenerationSoftware,Altium Limited,Altium Designer,22.8.2 (66)*
G04*
G04 Layer_Color=65535*
%FSLAX44Y44*%
%MOMM*%
G71*
G04*
G04 #@! TF.SameCoordinates,77D84F31-F88A-430F-A0AE-3837F78F33EF*
G04*
G04*
G04 #@! TF.FilePolarity,Positive*
G04*
G01*
G75*
%ADD10C,0.2000*%
%ADD11C,0.1270*%
%ADD12C,0.1500*%
G36*
X955Y18173D02*
X1509D01*
Y18134D01*
X1865D01*
Y18094D01*
X2142D01*
Y18055D01*
X2379D01*
Y18015D01*
X2577D01*
Y17976D01*
X2774D01*
Y17936D01*
X2932D01*
Y17897D01*
X3091D01*
Y17857D01*
X3209D01*
Y17818D01*
X3367D01*
Y17778D01*
X3486D01*
Y17738D01*
X3605D01*
Y17699D01*
X3763D01*
Y17659D01*
X3842D01*
Y17620D01*
X4000D01*
Y17580D01*
X4079D01*
Y17541D01*
X4198D01*
Y17501D01*
X4316D01*
Y17462D01*
X4435D01*
Y17422D01*
X4514D01*
Y17383D01*
X4633D01*
Y17343D01*
X4712D01*
Y17304D01*
X4830D01*
Y17264D01*
X4909D01*
Y17225D01*
X5028D01*
Y17185D01*
X5107D01*
Y17145D01*
X5186D01*
Y17106D01*
X5305D01*
Y17066D01*
X5384D01*
Y17027D01*
X5463D01*
Y16987D01*
X5542D01*
Y16948D01*
X5621D01*
Y16908D01*
X5740D01*
Y16869D01*
X5819D01*
Y16829D01*
X5898D01*
Y16789D01*
X5977D01*
Y16750D01*
X6056D01*
Y16710D01*
X6135D01*
Y16671D01*
X6214D01*
Y16631D01*
X6293D01*
Y16592D01*
X6373D01*
Y16552D01*
X6452D01*
Y16513D01*
X6531D01*
Y16473D01*
X6610D01*
Y16434D01*
X6649D01*
Y16394D01*
X6728D01*
Y16355D01*
X6807D01*
Y16315D01*
X6887D01*
Y16276D01*
X6966D01*
Y16236D01*
X7045D01*
Y16196D01*
X7084D01*
Y16157D01*
X7163D01*
Y16117D01*
X7242D01*
Y16078D01*
X7282D01*
Y16038D01*
X7361D01*
Y15999D01*
X7440D01*
Y15959D01*
X7519D01*
Y15920D01*
X7559D01*
Y15880D01*
X7638D01*
Y15841D01*
X7717D01*
Y15801D01*
X7756D01*
Y15761D01*
X7836D01*
Y15722D01*
X7915D01*
Y15682D01*
X7954D01*
Y15643D01*
X8033D01*
Y15603D01*
X8112D01*
Y15564D01*
X8152D01*
Y15524D01*
X8231D01*
Y15485D01*
X8310D01*
Y15445D01*
X8429D01*
Y15485D01*
X8508D01*
Y15524D01*
X8587D01*
Y15564D01*
X8666D01*
Y15603D01*
X8784D01*
Y15643D01*
X8863D01*
Y15682D01*
X8943D01*
Y15722D01*
X9022D01*
Y15761D01*
X9101D01*
Y15801D01*
X9180D01*
Y15841D01*
X9298D01*
Y15880D01*
X9378D01*
Y15920D01*
X9457D01*
Y15959D01*
X9536D01*
Y15999D01*
X9615D01*
Y16038D01*
X9733D01*
Y16078D01*
X9812D01*
Y16117D01*
X9931D01*
Y16157D01*
X10010D01*
Y16196D01*
X10089D01*
Y16236D01*
X10208D01*
Y16276D01*
X10287D01*
Y16315D01*
X10406D01*
Y16355D01*
X10524D01*
Y16394D01*
X10603D01*
Y16434D01*
X10722D01*
Y16473D01*
X10841D01*
Y16513D01*
X10920D01*
Y16552D01*
X11038D01*
Y16592D01*
X11157D01*
Y16631D01*
X11276D01*
Y16671D01*
X11394D01*
Y16710D01*
X11513D01*
Y16750D01*
X11631D01*
Y16789D01*
X11790D01*
Y16829D01*
X11908D01*
Y16869D01*
X12066D01*
Y16908D01*
X12185D01*
Y16948D01*
X12343D01*
Y16987D01*
X12501D01*
Y17027D01*
X12659D01*
Y17066D01*
X12818D01*
Y17106D01*
X13015D01*
Y17145D01*
X13213D01*
Y17185D01*
X13411D01*
Y17225D01*
X13648D01*
Y17264D01*
X13885D01*
Y17304D01*
X14202D01*
Y17343D01*
X14834D01*
Y17383D01*
X15744D01*
Y17343D01*
X16535D01*
Y17304D01*
X16969D01*
Y17264D01*
X17286D01*
Y17225D01*
X17523D01*
Y17185D01*
X17721D01*
Y17145D01*
X17839D01*
Y17106D01*
X17997D01*
Y17066D01*
X18116D01*
Y17027D01*
X18235D01*
Y16987D01*
X18353D01*
Y16948D01*
X18472D01*
Y16908D01*
X18591D01*
Y16869D01*
X18670D01*
Y16829D01*
X18788D01*
Y16789D01*
X18867D01*
Y16750D01*
X18946D01*
Y16710D01*
X19065D01*
Y16671D01*
X19144D01*
Y16631D01*
X19223D01*
Y16592D01*
X19302D01*
Y16552D01*
X19381D01*
Y16513D01*
X19461D01*
Y16473D01*
X19500D01*
Y16434D01*
X19579D01*
Y16394D01*
X19658D01*
Y16355D01*
X19698D01*
Y16315D01*
X19777D01*
Y16276D01*
X19856D01*
Y16236D01*
X19895D01*
Y16196D01*
X19974D01*
Y16157D01*
X20014D01*
Y16117D01*
X20093D01*
Y16078D01*
X20133D01*
Y16038D01*
X20212D01*
Y15999D01*
X20251D01*
Y15959D01*
X20291D01*
Y15920D01*
X20370D01*
Y15880D01*
X20410D01*
Y15841D01*
X20449D01*
Y15801D01*
X20528D01*
Y15761D01*
X20568D01*
Y15722D01*
X20607D01*
Y15682D01*
X20647D01*
Y15643D01*
X20686D01*
Y15603D01*
X20726D01*
Y15564D01*
X20805D01*
Y15524D01*
X20844D01*
Y15485D01*
X20884D01*
Y15445D01*
X20924D01*
Y15406D01*
X20963D01*
Y15366D01*
X21003D01*
Y15326D01*
X21042D01*
Y15287D01*
X21082D01*
Y15247D01*
X21121D01*
Y15208D01*
X21161D01*
Y15168D01*
X21200D01*
Y15129D01*
X21240D01*
Y15089D01*
X21279D01*
Y15050D01*
X21319D01*
Y15010D01*
X21358D01*
Y14971D01*
X21398D01*
Y14931D01*
X21437D01*
Y14892D01*
X21477D01*
Y14852D01*
X21517D01*
Y14813D01*
X21556D01*
Y14773D01*
X21596D01*
Y14694D01*
X21635D01*
Y14654D01*
X21675D01*
Y14615D01*
X21714D01*
Y14575D01*
X21754D01*
Y14536D01*
X21793D01*
Y14496D01*
X21833D01*
Y14457D01*
X21872D01*
Y14377D01*
X21912D01*
Y14338D01*
X21951D01*
Y14298D01*
X21991D01*
Y14259D01*
X22031D01*
Y14219D01*
X22070D01*
Y14140D01*
X22110D01*
Y14101D01*
X22149D01*
Y14061D01*
X22189D01*
Y14022D01*
X22228D01*
Y13943D01*
X22268D01*
Y13903D01*
X22307D01*
Y13864D01*
X22347D01*
Y13784D01*
X22387D01*
Y13745D01*
X22426D01*
Y13705D01*
X22466D01*
Y13626D01*
X22505D01*
Y13587D01*
X22545D01*
Y13547D01*
X22584D01*
Y13468D01*
X22624D01*
Y13428D01*
X22663D01*
Y13389D01*
X22703D01*
Y13310D01*
X22742D01*
Y13270D01*
X22782D01*
Y13191D01*
X22821D01*
Y13152D01*
X22861D01*
Y13073D01*
X22901D01*
Y13033D01*
X22940D01*
Y12954D01*
X22980D01*
Y12915D01*
X23019D01*
Y12835D01*
X23059D01*
Y12796D01*
X23098D01*
Y12717D01*
X23138D01*
Y12638D01*
X23177D01*
Y12598D01*
X23217D01*
Y12519D01*
X23256D01*
Y12440D01*
X23296D01*
Y12400D01*
X23335D01*
Y12321D01*
X23375D01*
Y12242D01*
X23415D01*
Y12203D01*
X23454D01*
Y12124D01*
X23494D01*
Y12045D01*
X23533D01*
Y11966D01*
X23573D01*
Y11887D01*
X23612D01*
Y11847D01*
X23652D01*
Y11768D01*
X23691D01*
Y11689D01*
X23731D01*
Y11610D01*
X23770D01*
Y11531D01*
X23810D01*
Y11451D01*
X23849D01*
Y11372D01*
X23889D01*
Y11293D01*
X23929D01*
Y11214D01*
X23968D01*
Y11135D01*
X24008D01*
Y11017D01*
X24047D01*
Y10938D01*
X24087D01*
Y10858D01*
X24126D01*
Y10779D01*
X24166D01*
Y10661D01*
X24205D01*
Y10582D01*
X24245D01*
Y10503D01*
X24285D01*
Y10384D01*
X24324D01*
Y10305D01*
X24364D01*
Y10186D01*
X24403D01*
Y10068D01*
X24443D01*
Y9988D01*
X24482D01*
Y9870D01*
X24522D01*
Y9751D01*
X24561D01*
Y9633D01*
X24601D01*
Y9514D01*
X24640D01*
Y9395D01*
X24680D01*
Y9277D01*
X24719D01*
Y9119D01*
X24759D01*
Y9000D01*
X24799D01*
Y8842D01*
X24838D01*
Y8723D01*
X24878D01*
Y8565D01*
X24917D01*
Y8367D01*
X24957D01*
Y8209D01*
X24996D01*
Y8051D01*
X25036D01*
Y7814D01*
X25075D01*
Y7537D01*
X25115D01*
Y7181D01*
X25154D01*
Y6628D01*
X25194D01*
Y4967D01*
X25154D01*
Y4413D01*
X25115D01*
Y4057D01*
X25075D01*
Y3781D01*
X25036D01*
Y3543D01*
X24996D01*
Y3346D01*
X24957D01*
Y3187D01*
X24917D01*
Y3029D01*
X24878D01*
Y2871D01*
X24838D01*
Y2713D01*
X24799D01*
Y2594D01*
X24759D01*
Y2436D01*
X24719D01*
Y2318D01*
X24680D01*
Y2199D01*
X24640D01*
Y2080D01*
X24601D01*
Y1962D01*
X24561D01*
Y1843D01*
X24522D01*
Y1725D01*
X24482D01*
Y1645D01*
X24443D01*
Y1527D01*
X24403D01*
Y1408D01*
X24364D01*
Y1329D01*
X24324D01*
Y1210D01*
X24285D01*
Y1131D01*
X24245D01*
Y1052D01*
X24205D01*
Y934D01*
X24166D01*
Y855D01*
X24126D01*
Y776D01*
X24087D01*
Y696D01*
X24047D01*
Y578D01*
X24008D01*
Y499D01*
X23968D01*
Y420D01*
X23929D01*
Y340D01*
X23889D01*
Y261D01*
X23849D01*
Y182D01*
X23810D01*
Y103D01*
X23770D01*
Y64D01*
X23731D01*
Y-15D01*
X23691D01*
Y-94D01*
X23652D01*
Y-173D01*
X23612D01*
Y-253D01*
X23573D01*
Y-332D01*
X23533D01*
Y-371D01*
X23494D01*
Y-450D01*
X23454D01*
Y-529D01*
X23415D01*
Y-569D01*
X23375D01*
Y-648D01*
X23335D01*
Y-727D01*
X23296D01*
Y-767D01*
X23256D01*
Y-846D01*
X23217D01*
Y-885D01*
X23177D01*
Y-964D01*
X23138D01*
Y-1004D01*
X23098D01*
Y-1083D01*
X23059D01*
Y-1123D01*
X23019D01*
Y-1201D01*
X22980D01*
Y-1241D01*
X22940D01*
Y-1320D01*
X22901D01*
Y-1360D01*
X22861D01*
Y-1439D01*
X22821D01*
Y-1478D01*
X22782D01*
Y-1518D01*
X22742D01*
Y-1597D01*
X22703D01*
Y-1637D01*
X22663D01*
Y-1676D01*
X22624D01*
Y-1755D01*
X22584D01*
Y-1795D01*
X22545D01*
Y-1834D01*
X22505D01*
Y-1874D01*
X22466D01*
Y-1953D01*
X22426D01*
Y-1992D01*
X22387D01*
Y-2032D01*
X22347D01*
Y-2071D01*
X22307D01*
Y-2150D01*
X22268D01*
Y-2190D01*
X22228D01*
Y-2230D01*
X22189D01*
Y-2269D01*
X22149D01*
Y-2309D01*
X22110D01*
Y-2348D01*
X22070D01*
Y-2427D01*
X22031D01*
Y-2467D01*
X21991D01*
Y-2506D01*
X21951D01*
Y-2546D01*
X21912D01*
Y-2585D01*
X21872D01*
Y-2625D01*
X21833D01*
Y-2665D01*
X21793D01*
Y-2704D01*
X21754D01*
Y-2744D01*
X21714D01*
Y-2783D01*
X21675D01*
Y-2823D01*
X21635D01*
Y-2902D01*
X21596D01*
Y-2941D01*
X21556D01*
Y-2981D01*
X21517D01*
Y-3020D01*
X21477D01*
Y-3060D01*
X21437D01*
Y-3099D01*
X21398D01*
Y-3139D01*
X21358D01*
Y-3179D01*
X21279D01*
Y-3218D01*
X21240D01*
Y-3258D01*
X21200D01*
Y-3297D01*
X21161D01*
Y-3337D01*
X21121D01*
Y-3376D01*
X21082D01*
Y-3416D01*
X21042D01*
Y-3455D01*
X21003D01*
Y-3495D01*
X20963D01*
Y-3535D01*
X20924D01*
Y-3574D01*
X20884D01*
Y-3613D01*
X20805D01*
Y-3653D01*
X20765D01*
Y-3693D01*
X20726D01*
Y-3732D01*
X20686D01*
Y-3772D01*
X20647D01*
Y-3811D01*
X20607D01*
Y-3851D01*
X20528D01*
Y-3890D01*
X20489D01*
Y-3930D01*
X20449D01*
Y-3969D01*
X20410D01*
Y-4009D01*
X20330D01*
Y-4049D01*
X20291D01*
Y-4088D01*
X20251D01*
Y-4128D01*
X20212D01*
Y-4167D01*
X20172D01*
Y-4207D01*
X20133D01*
Y-4246D01*
X20093D01*
Y-4325D01*
X20054D01*
Y-4444D01*
X20014D01*
Y-4523D01*
X19974D01*
Y-4681D01*
X19935D01*
Y-4839D01*
X19895D01*
Y-4997D01*
X19856D01*
Y-5116D01*
X19816D01*
Y-5274D01*
X19777D01*
Y-5432D01*
X19737D01*
Y-5591D01*
X19698D01*
Y-5749D01*
X19658D01*
Y-5907D01*
X19619D01*
Y-6065D01*
X19579D01*
Y-6223D01*
X19540D01*
Y-6381D01*
X19500D01*
Y-6500D01*
X19461D01*
Y-6658D01*
X19421D01*
Y-6816D01*
X19381D01*
Y-6935D01*
X19342D01*
Y-7093D01*
X19302D01*
Y-7212D01*
X19263D01*
Y-7370D01*
X19223D01*
Y-7489D01*
X19184D01*
Y-7647D01*
X19144D01*
Y-7765D01*
X19105D01*
Y-7923D01*
X19065D01*
Y-8042D01*
X19025D01*
Y-8161D01*
X18986D01*
Y-8319D01*
X18946D01*
Y-8438D01*
X18907D01*
Y-8556D01*
X18867D01*
Y-8675D01*
X18828D01*
Y-8793D01*
X18788D01*
Y-8952D01*
X18749D01*
Y-9070D01*
X18709D01*
Y-9189D01*
X18670D01*
Y-9307D01*
X18630D01*
Y-9426D01*
X18591D01*
Y-9545D01*
X18551D01*
Y-9663D01*
X18512D01*
Y-9782D01*
X18472D01*
Y-9901D01*
X18432D01*
Y-10019D01*
X18393D01*
Y-10138D01*
X18353D01*
Y-10256D01*
X18314D01*
Y-10375D01*
X18274D01*
Y-10494D01*
X18235D01*
Y-10612D01*
X18195D01*
Y-10691D01*
X18156D01*
Y-10810D01*
X18116D01*
Y-10929D01*
X18076D01*
Y-11047D01*
X18037D01*
Y-11166D01*
X17997D01*
Y-11245D01*
X17958D01*
Y-11364D01*
X17918D01*
Y-11482D01*
X17879D01*
Y-11561D01*
X17839D01*
Y-11680D01*
X17800D01*
Y-11798D01*
X17760D01*
Y-11878D01*
X17721D01*
Y-11996D01*
X17681D01*
Y-12115D01*
X17642D01*
Y-12194D01*
X17602D01*
Y-12313D01*
X17563D01*
Y-12392D01*
X17523D01*
Y-12510D01*
X17483D01*
Y-12589D01*
X17444D01*
Y-12708D01*
X17404D01*
Y-12787D01*
X17365D01*
Y-12906D01*
X17325D01*
Y-12985D01*
X17286D01*
Y-13103D01*
X17246D01*
Y-13182D01*
X17207D01*
Y-13261D01*
X17167D01*
Y-13380D01*
X17128D01*
Y-13459D01*
X17088D01*
Y-13538D01*
X17048D01*
Y-13657D01*
X17009D01*
Y-13736D01*
X16969D01*
Y-13815D01*
X16930D01*
Y-13934D01*
X16890D01*
Y-14013D01*
X16851D01*
Y-14092D01*
X16811D01*
Y-14171D01*
X16772D01*
Y-14290D01*
X16732D01*
Y-14369D01*
X16693D01*
Y-14448D01*
X16653D01*
Y-14527D01*
X16614D01*
Y-14606D01*
X16574D01*
Y-14685D01*
X16535D01*
Y-14804D01*
X16495D01*
Y-14883D01*
X16455D01*
Y-14962D01*
X16416D01*
Y-15041D01*
X16376D01*
Y-15120D01*
X16337D01*
Y-15199D01*
X16297D01*
Y-15278D01*
X16258D01*
Y-15357D01*
X16218D01*
Y-15436D01*
X16179D01*
Y-15515D01*
X16139D01*
Y-15594D01*
X16099D01*
Y-15674D01*
X16060D01*
Y-15753D01*
X16020D01*
Y-15832D01*
X15981D01*
Y-15911D01*
X15941D01*
Y-15950D01*
X15902D01*
Y-16029D01*
X15862D01*
Y-16108D01*
X15823D01*
Y-16187D01*
X15783D01*
Y-16267D01*
X15744D01*
Y-16346D01*
X15704D01*
Y-16385D01*
X15665D01*
Y-16464D01*
X15625D01*
Y-16543D01*
X15586D01*
Y-16623D01*
X15546D01*
Y-16662D01*
X15506D01*
Y-16741D01*
X15467D01*
Y-16820D01*
X15427D01*
Y-16860D01*
X15388D01*
Y-16939D01*
X15348D01*
Y-17018D01*
X15309D01*
Y-17057D01*
X15269D01*
Y-17136D01*
X15230D01*
Y-17216D01*
X15190D01*
Y-17255D01*
X15151D01*
Y-17334D01*
X15111D01*
Y-17374D01*
X15071D01*
Y-17453D01*
X15032D01*
Y-17492D01*
X14992D01*
Y-17572D01*
X14953D01*
Y-17611D01*
X14913D01*
Y-17690D01*
X14874D01*
Y-17730D01*
X14834D01*
Y-17809D01*
X14795D01*
Y-17848D01*
X14755D01*
Y-17927D01*
X14716D01*
Y-17967D01*
X14676D01*
Y-18006D01*
X14636D01*
Y-18086D01*
X14597D01*
Y-18125D01*
X14557D01*
Y-18204D01*
X14518D01*
Y-18244D01*
X14478D01*
Y-18283D01*
X14439D01*
Y-18323D01*
X14399D01*
Y-18402D01*
X14360D01*
Y-18441D01*
X14320D01*
Y-18481D01*
X14281D01*
Y-18520D01*
X14241D01*
Y-18599D01*
X14202D01*
Y-18639D01*
X14162D01*
Y-18679D01*
X14123D01*
Y-18718D01*
X14083D01*
Y-18758D01*
X14043D01*
Y-18837D01*
X14004D01*
Y-18876D01*
X13964D01*
Y-18916D01*
X13925D01*
Y-18955D01*
X13885D01*
Y-18995D01*
X13846D01*
Y-19035D01*
X13806D01*
Y-19074D01*
X13767D01*
Y-19114D01*
X13727D01*
Y-19153D01*
X13687D01*
Y-19193D01*
X13648D01*
Y-19232D01*
X13608D01*
Y-19272D01*
X13569D01*
Y-19311D01*
X13529D01*
Y-19351D01*
X13490D01*
Y-19390D01*
X13450D01*
Y-19430D01*
X13411D01*
Y-19469D01*
X13371D01*
Y-19509D01*
X13292D01*
Y-19548D01*
X13253D01*
Y-19588D01*
X13213D01*
Y-19628D01*
X13174D01*
Y-19667D01*
X13134D01*
Y-19707D01*
X13055D01*
Y-19746D01*
X13015D01*
Y-19786D01*
X12976D01*
Y-19825D01*
X12897D01*
Y-19865D01*
X12857D01*
Y-19904D01*
X12778D01*
Y-19944D01*
X12738D01*
Y-19983D01*
X12659D01*
Y-20023D01*
X12580D01*
Y-20062D01*
X12541D01*
Y-20102D01*
X12462D01*
Y-20142D01*
X12383D01*
Y-20181D01*
X12304D01*
Y-20221D01*
X12225D01*
Y-20260D01*
X12145D01*
Y-20300D01*
X12027D01*
Y-20339D01*
X11908D01*
Y-20379D01*
X11790D01*
Y-20418D01*
X11671D01*
Y-20458D01*
X11473D01*
Y-20498D01*
X11236D01*
Y-20537D01*
X10603D01*
Y-20498D01*
X10366D01*
Y-20458D01*
X10208D01*
Y-20418D01*
X10089D01*
Y-20379D01*
X9971D01*
Y-20339D01*
X9852D01*
Y-20300D01*
X9773D01*
Y-20260D01*
X9694D01*
Y-20221D01*
X9615D01*
Y-20181D01*
X9575D01*
Y-20142D01*
X9496D01*
Y-20102D01*
X9457D01*
Y-20062D01*
X9378D01*
Y-20023D01*
X9338D01*
Y-19983D01*
X9298D01*
Y-19944D01*
X9259D01*
Y-19904D01*
X9219D01*
Y-19865D01*
X9180D01*
Y-19825D01*
X9140D01*
Y-19786D01*
X9101D01*
Y-19746D01*
X9061D01*
Y-19707D01*
X9022D01*
Y-19667D01*
X8982D01*
Y-19628D01*
X8943D01*
Y-19588D01*
X8903D01*
Y-19509D01*
X8863D01*
Y-19469D01*
X8824D01*
Y-19390D01*
X8784D01*
Y-19311D01*
X8745D01*
Y-19232D01*
X8705D01*
Y-19153D01*
X8666D01*
Y-19074D01*
X8626D01*
Y-18955D01*
X8587D01*
Y-18837D01*
X8547D01*
Y-18718D01*
X8508D01*
Y-18560D01*
X8468D01*
Y-18362D01*
X8429D01*
Y-18086D01*
X8389D01*
Y-17572D01*
X8349D01*
Y-16425D01*
X8389D01*
Y-15753D01*
X8429D01*
Y-15278D01*
X8468D01*
Y-14843D01*
X8508D01*
Y-14448D01*
X8547D01*
Y-14131D01*
X8587D01*
Y-13815D01*
X8626D01*
Y-13459D01*
X8666D01*
Y-13143D01*
X8705D01*
Y-12827D01*
X8745D01*
Y-12471D01*
X8784D01*
Y-12115D01*
X8824D01*
Y-11719D01*
X8863D01*
Y-11205D01*
X8903D01*
Y-10098D01*
X8943D01*
Y-9031D01*
X8903D01*
Y-8200D01*
X8863D01*
Y-7884D01*
X8824D01*
Y-7686D01*
X8784D01*
Y-7528D01*
X8745D01*
Y-7409D01*
X8705D01*
Y-7291D01*
X8666D01*
Y-7212D01*
X8626D01*
Y-7133D01*
X8587D01*
Y-7093D01*
X8547D01*
Y-7014D01*
X8508D01*
Y-6974D01*
X8468D01*
Y-6895D01*
X8429D01*
Y-6856D01*
X8389D01*
Y-6816D01*
X8349D01*
Y-6777D01*
X8310D01*
Y-6737D01*
X8231D01*
Y-6698D01*
X8191D01*
Y-6658D01*
X8112D01*
Y-6619D01*
X8033D01*
Y-6579D01*
X7954D01*
Y-6540D01*
X7836D01*
Y-6500D01*
X7638D01*
Y-6460D01*
X7163D01*
Y-6500D01*
X7005D01*
Y-6540D01*
X6887D01*
Y-6579D01*
X6768D01*
Y-6619D01*
X6689D01*
Y-6658D01*
X6649D01*
Y-6698D01*
X6570D01*
Y-6737D01*
X6531D01*
Y-6777D01*
X6491D01*
Y-6816D01*
X6412D01*
Y-6856D01*
X6373D01*
Y-6895D01*
X6333D01*
Y-6935D01*
X6293D01*
Y-6974D01*
X6254D01*
Y-7014D01*
X6214D01*
Y-7054D01*
X6175D01*
Y-7093D01*
X6135D01*
Y-7172D01*
X6096D01*
Y-7212D01*
X6056D01*
Y-7251D01*
X6017D01*
Y-7330D01*
X5977D01*
Y-7370D01*
X5938D01*
Y-7409D01*
X5898D01*
Y-7489D01*
X5858D01*
Y-7568D01*
X5819D01*
Y-7607D01*
X5779D01*
Y-7686D01*
X5740D01*
Y-7765D01*
X5700D01*
Y-7844D01*
X5661D01*
Y-7923D01*
X5621D01*
Y-8003D01*
X5582D01*
Y-8121D01*
X5542D01*
Y-8200D01*
X5503D01*
Y-8279D01*
X5463D01*
Y-8398D01*
X5423D01*
Y-8477D01*
X5384D01*
Y-8596D01*
X5344D01*
Y-8714D01*
X5305D01*
Y-8833D01*
X5265D01*
Y-8952D01*
X5226D01*
Y-9070D01*
X5186D01*
Y-9189D01*
X5147D01*
Y-9307D01*
X5107D01*
Y-9466D01*
X5068D01*
Y-9584D01*
X5028D01*
Y-9742D01*
X4988D01*
Y-9901D01*
X4949D01*
Y-10019D01*
X4909D01*
Y-10177D01*
X4870D01*
Y-10336D01*
X4830D01*
Y-10494D01*
X4791D01*
Y-10652D01*
X4751D01*
Y-10810D01*
X4712D01*
Y-11008D01*
X4672D01*
Y-11166D01*
X4633D01*
Y-11324D01*
X4593D01*
Y-11522D01*
X4554D01*
Y-11680D01*
X4514D01*
Y-11878D01*
X4475D01*
Y-12075D01*
X4435D01*
Y-12234D01*
X4395D01*
Y-12431D01*
X4356D01*
Y-12629D01*
X4316D01*
Y-12827D01*
X4277D01*
Y-13024D01*
X4237D01*
Y-13182D01*
X4198D01*
Y-13380D01*
X4158D01*
Y-13578D01*
X4119D01*
Y-13776D01*
X4079D01*
Y-13973D01*
X4040D01*
Y-14171D01*
X4000D01*
Y-14329D01*
X3961D01*
Y-14527D01*
X3921D01*
Y-14725D01*
X3881D01*
Y-14883D01*
X3842D01*
Y-15080D01*
X3802D01*
Y-15239D01*
X3763D01*
Y-15436D01*
X3723D01*
Y-15594D01*
X3684D01*
Y-15753D01*
X3644D01*
Y-15911D01*
X3605D01*
Y-16069D01*
X3565D01*
Y-16227D01*
X3525D01*
Y-16385D01*
X3486D01*
Y-16543D01*
X3446D01*
Y-16702D01*
X3407D01*
Y-16820D01*
X3367D01*
Y-16978D01*
X3328D01*
Y-17097D01*
X3288D01*
Y-17216D01*
X3249D01*
Y-17334D01*
X3209D01*
Y-17453D01*
X3170D01*
Y-17572D01*
X3130D01*
Y-17651D01*
X3091D01*
Y-17769D01*
X3051D01*
Y-17848D01*
X3011D01*
Y-17967D01*
X2972D01*
Y-18046D01*
X2932D01*
Y-18125D01*
X2893D01*
Y-18204D01*
X2853D01*
Y-18283D01*
X2814D01*
Y-18362D01*
X2774D01*
Y-18441D01*
X2735D01*
Y-18520D01*
X2695D01*
Y-18599D01*
X2656D01*
Y-18679D01*
X2616D01*
Y-18758D01*
X2577D01*
Y-18797D01*
X2537D01*
Y-18876D01*
X2498D01*
Y-18916D01*
X2458D01*
Y-18995D01*
X2418D01*
Y-19035D01*
X2379D01*
Y-19074D01*
X2339D01*
Y-19153D01*
X2300D01*
Y-19193D01*
X2260D01*
Y-19232D01*
X2221D01*
Y-19272D01*
X2181D01*
Y-19351D01*
X2142D01*
Y-19390D01*
X2102D01*
Y-19430D01*
X2062D01*
Y-19469D01*
X2023D01*
Y-19509D01*
X1983D01*
Y-19548D01*
X1944D01*
Y-19588D01*
X1904D01*
Y-19628D01*
X1865D01*
Y-19667D01*
X1825D01*
Y-19707D01*
X1786D01*
Y-19746D01*
X1746D01*
Y-19786D01*
X1707D01*
Y-19825D01*
X1628D01*
Y-19865D01*
X1588D01*
Y-19904D01*
X1549D01*
Y-19944D01*
X1509D01*
Y-19983D01*
X1430D01*
Y-20023D01*
X1390D01*
Y-20062D01*
X1311D01*
Y-20102D01*
X1232D01*
Y-20142D01*
X1153D01*
Y-20181D01*
X1074D01*
Y-20221D01*
X995D01*
Y-20260D01*
X876D01*
Y-20300D01*
X758D01*
Y-20339D01*
X600D01*
Y-20379D01*
X402D01*
Y-20418D01*
X86D01*
Y-20458D01*
X-270D01*
Y-20418D01*
X-587D01*
Y-20379D01*
X-784D01*
Y-20339D01*
X-903D01*
Y-20300D01*
X-1022D01*
Y-20260D01*
X-1140D01*
Y-20221D01*
X-1219D01*
Y-20181D01*
X-1298D01*
Y-20142D01*
X-1417D01*
Y-20102D01*
X-1457D01*
Y-20062D01*
X-1536D01*
Y-20023D01*
X-1615D01*
Y-19983D01*
X-1654D01*
Y-19944D01*
X-1733D01*
Y-19904D01*
X-1773D01*
Y-19865D01*
X-1813D01*
Y-19825D01*
X-1892D01*
Y-19786D01*
X-1931D01*
Y-19746D01*
X-1971D01*
Y-19707D01*
X-2010D01*
Y-19667D01*
X-2050D01*
Y-19628D01*
X-2089D01*
Y-19588D01*
X-2129D01*
Y-19548D01*
X-2168D01*
Y-19509D01*
X-2208D01*
Y-19469D01*
X-2247D01*
Y-19430D01*
X-2287D01*
Y-19390D01*
X-2326D01*
Y-19351D01*
X-2366D01*
Y-19311D01*
X-2406D01*
Y-19232D01*
X-2445D01*
Y-19193D01*
X-2485D01*
Y-19153D01*
X-2524D01*
Y-19074D01*
X-2564D01*
Y-19035D01*
X-2603D01*
Y-18995D01*
X-2643D01*
Y-18916D01*
X-2682D01*
Y-18837D01*
X-2722D01*
Y-18797D01*
X-2761D01*
Y-18718D01*
X-2801D01*
Y-18639D01*
X-2841D01*
Y-18560D01*
X-2880D01*
Y-18520D01*
X-2920D01*
Y-18441D01*
X-2959D01*
Y-18362D01*
X-2999D01*
Y-18244D01*
X-3038D01*
Y-18165D01*
X-3078D01*
Y-18086D01*
X-3117D01*
Y-17967D01*
X-3157D01*
Y-17888D01*
X-3196D01*
Y-17769D01*
X-3236D01*
Y-17651D01*
X-3275D01*
Y-17572D01*
X-3315D01*
Y-17413D01*
X-3355D01*
Y-17295D01*
X-3394D01*
Y-17176D01*
X-3434D01*
Y-17057D01*
X-3473D01*
Y-16899D01*
X-3513D01*
Y-16741D01*
X-3552D01*
Y-16583D01*
X-3592D01*
Y-16425D01*
X-3631D01*
Y-16227D01*
X-3671D01*
Y-16029D01*
X-3711D01*
Y-15832D01*
X-3750D01*
Y-15634D01*
X-3789D01*
Y-15397D01*
X-3829D01*
Y-15159D01*
X-3869D01*
Y-14922D01*
X-3908D01*
Y-14645D01*
X-3948D01*
Y-14369D01*
X-3987D01*
Y-14052D01*
X-4027D01*
Y-13696D01*
X-4066D01*
Y-13301D01*
X-4106D01*
Y-12866D01*
X-4145D01*
Y-12392D01*
X-4185D01*
Y-11917D01*
X-4225D01*
Y-11403D01*
X-4264D01*
Y-10849D01*
X-4304D01*
Y-10336D01*
X-4343D01*
Y-9742D01*
X-4383D01*
Y-9149D01*
X-4422D01*
Y-8596D01*
X-4462D01*
Y-8003D01*
X-4501D01*
Y-7449D01*
X-4541D01*
Y-6856D01*
X-4580D01*
Y-6381D01*
X-4620D01*
Y-5946D01*
X-4659D01*
Y-5551D01*
X-4699D01*
Y-5156D01*
X-4739D01*
Y-4800D01*
X-4778D01*
Y-4483D01*
X-4818D01*
Y-4207D01*
X-4857D01*
Y-3930D01*
X-4897D01*
Y-3653D01*
X-4936D01*
Y-3455D01*
X-4976D01*
Y-3218D01*
X-5015D01*
Y-3020D01*
X-5055D01*
Y-2862D01*
X-5094D01*
Y-2704D01*
X-5134D01*
Y-2585D01*
X-5173D01*
Y-2467D01*
X-5213D01*
Y-2388D01*
X-5253D01*
Y-2269D01*
X-5292D01*
Y-2190D01*
X-5332D01*
Y-2111D01*
X-5371D01*
Y-2071D01*
X-5411D01*
Y-1992D01*
X-5450D01*
Y-1913D01*
X-5490D01*
Y-1874D01*
X-5529D01*
Y-1795D01*
X-5569D01*
Y-1755D01*
X-5608D01*
Y-1716D01*
X-5648D01*
Y-1637D01*
X-5688D01*
Y-1597D01*
X-5727D01*
Y-1518D01*
X-5767D01*
Y-1478D01*
X-5806D01*
Y-1439D01*
X-5846D01*
Y-1360D01*
X-5885D01*
Y-1320D01*
X-5925D01*
Y-1241D01*
X-5964D01*
Y-1201D01*
X-6004D01*
Y-1123D01*
X-6043D01*
Y-1083D01*
X-6083D01*
Y-1004D01*
X-6122D01*
Y-964D01*
X-6162D01*
Y-885D01*
X-6202D01*
Y-846D01*
X-6241D01*
Y-767D01*
X-6281D01*
Y-688D01*
X-6320D01*
Y-648D01*
X-6360D01*
Y-569D01*
X-6399D01*
Y-490D01*
X-6439D01*
Y-450D01*
X-6478D01*
Y-371D01*
X-6518D01*
Y-292D01*
X-6557D01*
Y-213D01*
X-6597D01*
Y-134D01*
X-6636D01*
Y-94D01*
X-6676D01*
Y-15D01*
X-6716D01*
Y64D01*
X-6755D01*
Y143D01*
X-6795D01*
Y222D01*
X-6834D01*
Y301D01*
X-6874D01*
Y380D01*
X-6913D01*
Y459D01*
X-6953D01*
Y538D01*
X-6992D01*
Y617D01*
X-7032D01*
Y696D01*
X-7071D01*
Y776D01*
X-7111D01*
Y894D01*
X-7150D01*
Y973D01*
X-7190D01*
Y1052D01*
X-7230D01*
Y1131D01*
X-7269D01*
Y1250D01*
X-7309D01*
Y1329D01*
X-7348D01*
Y1408D01*
X-7388D01*
Y1527D01*
X-7427D01*
Y1606D01*
X-7467D01*
Y1725D01*
X-7506D01*
Y1804D01*
X-7546D01*
Y1922D01*
X-7585D01*
Y2001D01*
X-7625D01*
Y2120D01*
X-7664D01*
Y2238D01*
X-7704D01*
Y2357D01*
X-7744D01*
Y2436D01*
X-7783D01*
Y2555D01*
X-7823D01*
Y2673D01*
X-7862D01*
Y2792D01*
X-7902D01*
Y2911D01*
X-7941D01*
Y3029D01*
X-7981D01*
Y3187D01*
X-8020D01*
Y3306D01*
X-8060D01*
Y3425D01*
X-8099D01*
Y3583D01*
X-8139D01*
Y3701D01*
X-8179D01*
Y3860D01*
X-8218D01*
Y4018D01*
X-8258D01*
Y4176D01*
X-8297D01*
Y4334D01*
X-8337D01*
Y4532D01*
X-8376D01*
Y4690D01*
X-8416D01*
Y4888D01*
X-8455D01*
Y5085D01*
X-8495D01*
Y5283D01*
X-8534D01*
Y5560D01*
X-8574D01*
Y5916D01*
X-8613D01*
Y6549D01*
X-8653D01*
Y8328D01*
X-8613D01*
Y8960D01*
X-8574D01*
Y9316D01*
X-8534D01*
Y9593D01*
X-8495D01*
Y9830D01*
X-8455D01*
Y9988D01*
X-8416D01*
Y10147D01*
X-8376D01*
Y10305D01*
X-8337D01*
Y10463D01*
X-8297D01*
Y10621D01*
X-8258D01*
Y10740D01*
X-8218D01*
Y10858D01*
X-8179D01*
Y11017D01*
X-8139D01*
Y11135D01*
X-8099D01*
Y11254D01*
X-8060D01*
Y11333D01*
X-8020D01*
Y11451D01*
X-7981D01*
Y11570D01*
X-7941D01*
Y11689D01*
X-7902D01*
Y11768D01*
X-7862D01*
Y11887D01*
X-7823D01*
Y11966D01*
X-7783D01*
Y12045D01*
X-7744D01*
Y12124D01*
X-7704D01*
Y12242D01*
X-7664D01*
Y12321D01*
X-7625D01*
Y12400D01*
X-7585D01*
Y12480D01*
X-7546D01*
Y12559D01*
X-7506D01*
Y12638D01*
X-7467D01*
Y12717D01*
X-7427D01*
Y12796D01*
X-7388D01*
Y12875D01*
X-7348D01*
Y12915D01*
X-7309D01*
Y12994D01*
X-7269D01*
Y13073D01*
X-7230D01*
Y13152D01*
X-7190D01*
Y13191D01*
X-7150D01*
Y13270D01*
X-7111D01*
Y13349D01*
X-7071D01*
Y13389D01*
X-7032D01*
Y13468D01*
X-6992D01*
Y13508D01*
X-6953D01*
Y13587D01*
X-6913D01*
Y13626D01*
X-6874D01*
Y13705D01*
X-6834D01*
Y13745D01*
X-6795D01*
Y13824D01*
X-6755D01*
Y13864D01*
X-6716D01*
Y13943D01*
X-6676D01*
Y13982D01*
X-6636D01*
Y14022D01*
X-6597D01*
Y14101D01*
X-6557D01*
Y14140D01*
X-6518D01*
Y14180D01*
X-6478D01*
Y14259D01*
X-6439D01*
Y14298D01*
X-6399D01*
Y14338D01*
X-6360D01*
Y14377D01*
X-6320D01*
Y14457D01*
X-6281D01*
Y14496D01*
X-6241D01*
Y14536D01*
X-6202D01*
Y14575D01*
X-6162D01*
Y14654D01*
X-6122D01*
Y14694D01*
X-6083D01*
Y14733D01*
X-6043D01*
Y14773D01*
X-6004D01*
Y14813D01*
X-5964D01*
Y14852D01*
X-5925D01*
Y14892D01*
X-5885D01*
Y14971D01*
X-5846D01*
Y15010D01*
X-5806D01*
Y15050D01*
X-5767D01*
Y15089D01*
X-5727D01*
Y15129D01*
X-5688D01*
Y15168D01*
X-5648D01*
Y15208D01*
X-5608D01*
Y15247D01*
X-5569D01*
Y15287D01*
X-5529D01*
Y15326D01*
X-5490D01*
Y15366D01*
X-5450D01*
Y15406D01*
X-5411D01*
Y15445D01*
X-5371D01*
Y15485D01*
X-5332D01*
Y15524D01*
X-5292D01*
Y15564D01*
X-5253D01*
Y15603D01*
X-5213D01*
Y15643D01*
X-5173D01*
Y15682D01*
X-5134D01*
Y15722D01*
X-5094D01*
Y15761D01*
X-5055D01*
Y15801D01*
X-5015D01*
Y15841D01*
X-4976D01*
Y15880D01*
X-4936D01*
Y15920D01*
X-4897D01*
Y15959D01*
X-4818D01*
Y15999D01*
X-4778D01*
Y16038D01*
X-4739D01*
Y16078D01*
X-4699D01*
Y16117D01*
X-4659D01*
Y16157D01*
X-4620D01*
Y16196D01*
X-4580D01*
Y16236D01*
X-4501D01*
Y16276D01*
X-4462D01*
Y16315D01*
X-4422D01*
Y16355D01*
X-4383D01*
Y16394D01*
X-4343D01*
Y16434D01*
X-4264D01*
Y16473D01*
X-4225D01*
Y16513D01*
X-4185D01*
Y16552D01*
X-4145D01*
Y16592D01*
X-4066D01*
Y16631D01*
X-4027D01*
Y16671D01*
X-3987D01*
Y16710D01*
X-3908D01*
Y16750D01*
X-3869D01*
Y16789D01*
X-3829D01*
Y16829D01*
X-3750D01*
Y16869D01*
X-3711D01*
Y16908D01*
X-3631D01*
Y16948D01*
X-3592D01*
Y16987D01*
X-3513D01*
Y17027D01*
X-3473D01*
Y17066D01*
X-3394D01*
Y17106D01*
X-3355D01*
Y17145D01*
X-3275D01*
Y17185D01*
X-3236D01*
Y17225D01*
X-3157D01*
Y17264D01*
X-3078D01*
Y17304D01*
X-2999D01*
Y17343D01*
X-2959D01*
Y17383D01*
X-2880D01*
Y17422D01*
X-2801D01*
Y17462D01*
X-2722D01*
Y17501D01*
X-2643D01*
Y17541D01*
X-2564D01*
Y17580D01*
X-2485D01*
Y17620D01*
X-2406D01*
Y17659D01*
X-2287D01*
Y17699D01*
X-2208D01*
Y17738D01*
X-2129D01*
Y17778D01*
X-2010D01*
Y17818D01*
X-1892D01*
Y17857D01*
X-1773D01*
Y17897D01*
X-1654D01*
Y17936D01*
X-1536D01*
Y17976D01*
X-1377D01*
Y18015D01*
X-1259D01*
Y18055D01*
X-1061D01*
Y18094D01*
X-864D01*
Y18134D01*
X-666D01*
Y18173D01*
X-310D01*
Y18213D01*
X955D01*
Y18173D01*
D02*
G37*
G36*
X68577Y-11704D02*
X68641Y-11713D01*
X68725Y-11723D01*
X68910Y-11760D01*
X69113Y-11824D01*
X69224Y-11861D01*
X69335Y-11917D01*
X69446Y-11982D01*
X69557Y-12046D01*
X69658Y-12129D01*
X69760Y-12222D01*
X69769Y-12231D01*
X69788Y-12250D01*
X69806Y-12277D01*
X69843Y-12314D01*
X69889Y-12370D01*
X69936Y-12435D01*
X69982Y-12518D01*
X70037Y-12601D01*
X70093Y-12703D01*
X70148Y-12814D01*
X70204Y-12934D01*
X70250Y-13063D01*
X70296Y-13202D01*
X70333Y-13359D01*
X70361Y-13516D01*
X70380Y-13692D01*
X69732Y-13757D01*
Y-13738D01*
X69723Y-13701D01*
X69705Y-13627D01*
X69686Y-13544D01*
X69649Y-13442D01*
X69612Y-13322D01*
X69566Y-13202D01*
X69501Y-13073D01*
X69427Y-12952D01*
X69335Y-12823D01*
X69233Y-12712D01*
X69113Y-12610D01*
X68983Y-12527D01*
X68836Y-12453D01*
X68660Y-12416D01*
X68475Y-12398D01*
X68438D01*
X68383Y-12407D01*
X68327Y-12416D01*
X68244Y-12425D01*
X68151Y-12444D01*
X68059Y-12481D01*
X67948Y-12518D01*
X67828Y-12564D01*
X67708Y-12629D01*
X67587Y-12703D01*
X67467Y-12795D01*
X67338Y-12906D01*
X67218Y-13026D01*
X67107Y-13174D01*
X66996Y-13341D01*
X66986Y-13350D01*
X66968Y-13387D01*
X66940Y-13433D01*
X66912Y-13507D01*
X66866Y-13599D01*
X66820Y-13701D01*
X66764Y-13831D01*
X66718Y-13969D01*
X66663Y-14117D01*
X66607Y-14293D01*
X66561Y-14469D01*
X66524Y-14663D01*
X66487Y-14875D01*
X66459Y-15088D01*
X66441Y-15319D01*
X66432Y-15550D01*
Y-15560D01*
Y-15596D01*
Y-15643D01*
X66441Y-15717D01*
Y-15800D01*
X66450Y-15892D01*
X66469Y-15994D01*
X66478Y-16114D01*
X66533Y-16355D01*
X66598Y-16604D01*
X66700Y-16845D01*
X66755Y-16946D01*
X66829Y-17048D01*
X66838Y-17057D01*
X66848Y-17067D01*
X66903Y-17122D01*
X66986Y-17205D01*
X67107Y-17298D01*
X67255Y-17390D01*
X67421Y-17473D01*
X67615Y-17529D01*
X67726Y-17538D01*
X67837Y-17547D01*
X67892D01*
X67930Y-17538D01*
X68022Y-17529D01*
X68151Y-17501D01*
X68290Y-17455D01*
X68447Y-17390D01*
X68604Y-17298D01*
X68762Y-17168D01*
X68771Y-17159D01*
X68780Y-17150D01*
X68808Y-17122D01*
X68845Y-17085D01*
X68882Y-17039D01*
X68928Y-16974D01*
X68974Y-16909D01*
X69030Y-16835D01*
X69085Y-16743D01*
X69141Y-16651D01*
X69261Y-16438D01*
X69363Y-16188D01*
X69446Y-15902D01*
X70139Y-16022D01*
Y-16031D01*
X70121Y-16068D01*
X70102Y-16133D01*
X70075Y-16207D01*
X70047Y-16299D01*
X70001Y-16401D01*
X69954Y-16521D01*
X69889Y-16651D01*
X69760Y-16919D01*
X69594Y-17196D01*
X69390Y-17464D01*
X69289Y-17584D01*
X69168Y-17695D01*
X69159Y-17704D01*
X69141Y-17723D01*
X69104Y-17751D01*
X69057Y-17779D01*
X69002Y-17825D01*
X68928Y-17871D01*
X68854Y-17917D01*
X68762Y-17973D01*
X68558Y-18074D01*
X68318Y-18167D01*
X68188Y-18195D01*
X68059Y-18222D01*
X67920Y-18241D01*
X67782Y-18250D01*
X67745D01*
X67689Y-18241D01*
X67634D01*
X67550Y-18232D01*
X67458Y-18213D01*
X67365Y-18195D01*
X67255Y-18167D01*
X67134Y-18130D01*
X67014Y-18084D01*
X66894Y-18028D01*
X66764Y-17963D01*
X66644Y-17880D01*
X66524Y-17788D01*
X66404Y-17686D01*
X66293Y-17566D01*
X66284Y-17557D01*
X66265Y-17538D01*
X66238Y-17492D01*
X66210Y-17436D01*
X66164Y-17362D01*
X66117Y-17279D01*
X66062Y-17177D01*
X66016Y-17057D01*
X65960Y-16919D01*
X65905Y-16771D01*
X65858Y-16604D01*
X65821Y-16419D01*
X65785Y-16216D01*
X65757Y-16003D01*
X65738Y-15772D01*
X65729Y-15532D01*
Y-15513D01*
Y-15458D01*
X65738Y-15384D01*
Y-15273D01*
X65747Y-15134D01*
X65766Y-14977D01*
X65785Y-14801D01*
X65821Y-14617D01*
X65858Y-14413D01*
X65905Y-14200D01*
X65960Y-13979D01*
X66034Y-13757D01*
X66108Y-13526D01*
X66210Y-13304D01*
X66311Y-13091D01*
X66441Y-12878D01*
X66450Y-12869D01*
X66478Y-12823D01*
X66524Y-12767D01*
X66580Y-12693D01*
X66663Y-12601D01*
X66755Y-12499D01*
X66857Y-12398D01*
X66986Y-12287D01*
X67125Y-12176D01*
X67273Y-12065D01*
X67439Y-11972D01*
X67615Y-11880D01*
X67809Y-11806D01*
X68013Y-11741D01*
X68225Y-11704D01*
X68447Y-11695D01*
X68521D01*
X68577Y-11704D01*
D02*
G37*
G36*
X48763D02*
X48828Y-11713D01*
X48911Y-11723D01*
X49096Y-11760D01*
X49300Y-11824D01*
X49411Y-11861D01*
X49521Y-11917D01*
X49632Y-11982D01*
X49743Y-12046D01*
X49845Y-12129D01*
X49947Y-12222D01*
X49956Y-12231D01*
X49974Y-12250D01*
X49993Y-12277D01*
X50030Y-12314D01*
X50076Y-12370D01*
X50122Y-12435D01*
X50169Y-12518D01*
X50224Y-12601D01*
X50280Y-12703D01*
X50335Y-12814D01*
X50391Y-12934D01*
X50437Y-13063D01*
X50483Y-13202D01*
X50520Y-13359D01*
X50548Y-13516D01*
X50566Y-13692D01*
X49919Y-13757D01*
Y-13738D01*
X49910Y-13701D01*
X49891Y-13627D01*
X49873Y-13544D01*
X49836Y-13442D01*
X49799Y-13322D01*
X49753Y-13202D01*
X49688Y-13073D01*
X49614Y-12952D01*
X49521Y-12823D01*
X49420Y-12712D01*
X49300Y-12610D01*
X49170Y-12527D01*
X49022Y-12453D01*
X48847Y-12416D01*
X48662Y-12398D01*
X48625D01*
X48569Y-12407D01*
X48514Y-12416D01*
X48431Y-12425D01*
X48338Y-12444D01*
X48246Y-12481D01*
X48135Y-12518D01*
X48014Y-12564D01*
X47894Y-12629D01*
X47774Y-12703D01*
X47654Y-12795D01*
X47524Y-12906D01*
X47404Y-13026D01*
X47293Y-13174D01*
X47182Y-13341D01*
X47173Y-13350D01*
X47155Y-13387D01*
X47127Y-13433D01*
X47099Y-13507D01*
X47053Y-13599D01*
X47007Y-13701D01*
X46951Y-13831D01*
X46905Y-13969D01*
X46849Y-14117D01*
X46794Y-14293D01*
X46748Y-14469D01*
X46711Y-14663D01*
X46674Y-14875D01*
X46646Y-15088D01*
X46628Y-15319D01*
X46618Y-15550D01*
Y-15560D01*
Y-15596D01*
Y-15643D01*
X46628Y-15717D01*
Y-15800D01*
X46637Y-15892D01*
X46655Y-15994D01*
X46665Y-16114D01*
X46720Y-16355D01*
X46785Y-16604D01*
X46887Y-16845D01*
X46942Y-16946D01*
X47016Y-17048D01*
X47025Y-17057D01*
X47034Y-17067D01*
X47090Y-17122D01*
X47173Y-17205D01*
X47293Y-17298D01*
X47441Y-17390D01*
X47608Y-17473D01*
X47802Y-17529D01*
X47913Y-17538D01*
X48024Y-17547D01*
X48079D01*
X48116Y-17538D01*
X48209Y-17529D01*
X48338Y-17501D01*
X48477Y-17455D01*
X48634Y-17390D01*
X48791Y-17298D01*
X48948Y-17168D01*
X48958Y-17159D01*
X48967Y-17150D01*
X48994Y-17122D01*
X49032Y-17085D01*
X49068Y-17039D01*
X49115Y-16974D01*
X49161Y-16909D01*
X49216Y-16835D01*
X49272Y-16743D01*
X49327Y-16651D01*
X49447Y-16438D01*
X49549Y-16188D01*
X49632Y-15902D01*
X50326Y-16022D01*
Y-16031D01*
X50307Y-16068D01*
X50289Y-16133D01*
X50261Y-16207D01*
X50233Y-16299D01*
X50187Y-16401D01*
X50141Y-16521D01*
X50076Y-16651D01*
X49947Y-16919D01*
X49780Y-17196D01*
X49577Y-17464D01*
X49475Y-17584D01*
X49355Y-17695D01*
X49346Y-17704D01*
X49327Y-17723D01*
X49290Y-17751D01*
X49244Y-17779D01*
X49189Y-17825D01*
X49115Y-17871D01*
X49041Y-17917D01*
X48948Y-17973D01*
X48745Y-18074D01*
X48505Y-18167D01*
X48375Y-18195D01*
X48246Y-18222D01*
X48107Y-18241D01*
X47968Y-18250D01*
X47931D01*
X47876Y-18241D01*
X47820D01*
X47737Y-18232D01*
X47645Y-18213D01*
X47552Y-18195D01*
X47441Y-18167D01*
X47321Y-18130D01*
X47201Y-18084D01*
X47081Y-18028D01*
X46951Y-17963D01*
X46831Y-17880D01*
X46711Y-17788D01*
X46591Y-17686D01*
X46480Y-17566D01*
X46470Y-17557D01*
X46452Y-17538D01*
X46424Y-17492D01*
X46396Y-17436D01*
X46350Y-17362D01*
X46304Y-17279D01*
X46248Y-17177D01*
X46202Y-17057D01*
X46147Y-16919D01*
X46091Y-16771D01*
X46045Y-16604D01*
X46008Y-16419D01*
X45971Y-16216D01*
X45943Y-16003D01*
X45925Y-15772D01*
X45916Y-15532D01*
Y-15513D01*
Y-15458D01*
X45925Y-15384D01*
Y-15273D01*
X45934Y-15134D01*
X45953Y-14977D01*
X45971Y-14801D01*
X46008Y-14617D01*
X46045Y-14413D01*
X46091Y-14200D01*
X46147Y-13979D01*
X46221Y-13757D01*
X46295Y-13526D01*
X46396Y-13304D01*
X46498Y-13091D01*
X46628Y-12878D01*
X46637Y-12869D01*
X46665Y-12823D01*
X46711Y-12767D01*
X46766Y-12693D01*
X46849Y-12601D01*
X46942Y-12499D01*
X47044Y-12398D01*
X47173Y-12287D01*
X47312Y-12176D01*
X47460Y-12065D01*
X47626Y-11972D01*
X47802Y-11880D01*
X47996Y-11806D01*
X48199Y-11741D01*
X48412Y-11704D01*
X48634Y-11695D01*
X48708D01*
X48763Y-11704D01*
D02*
G37*
G36*
X86300Y-11806D02*
X86448Y-11815D01*
X86615Y-11834D01*
X86781Y-11861D01*
X86938Y-11898D01*
X87003Y-11926D01*
X87068Y-11954D01*
X87086Y-11963D01*
X87123Y-11982D01*
X87179Y-12019D01*
X87243Y-12065D01*
X87317Y-12129D01*
X87392Y-12203D01*
X87465Y-12296D01*
X87530Y-12398D01*
X87539Y-12416D01*
X87567Y-12471D01*
X87595Y-12555D01*
X87641Y-12666D01*
X87678Y-12804D01*
X87706Y-12971D01*
X87734Y-13146D01*
X87743Y-13350D01*
Y-13359D01*
Y-13387D01*
Y-13433D01*
X87734Y-13489D01*
Y-13553D01*
X87724Y-13636D01*
X87687Y-13821D01*
X87632Y-14034D01*
X87558Y-14247D01*
X87447Y-14469D01*
X87373Y-14570D01*
X87299Y-14663D01*
X87290Y-14672D01*
X87281Y-14681D01*
X87253Y-14709D01*
X87216Y-14737D01*
X87170Y-14783D01*
X87114Y-14829D01*
X87049Y-14875D01*
X86975Y-14922D01*
X86883Y-14977D01*
X86791Y-15033D01*
X86680Y-15088D01*
X86569Y-15134D01*
X86439Y-15190D01*
X86300Y-15227D01*
X86153Y-15273D01*
X85995Y-15301D01*
X86005Y-15310D01*
X86042Y-15347D01*
X86097Y-15393D01*
X86162Y-15467D01*
X86236Y-15541D01*
X86310Y-15633D01*
X86384Y-15735D01*
X86448Y-15837D01*
Y-15846D01*
X86467Y-15865D01*
X86476Y-15892D01*
X86504Y-15929D01*
X86532Y-15985D01*
X86559Y-16040D01*
X86633Y-16179D01*
X86707Y-16345D01*
X86791Y-16540D01*
X86874Y-16743D01*
X86948Y-16956D01*
X87336Y-18148D01*
X86559D01*
X86189Y-16974D01*
Y-16965D01*
X86180Y-16946D01*
X86171Y-16909D01*
X86153Y-16863D01*
X86134Y-16798D01*
X86106Y-16734D01*
X86051Y-16576D01*
X85977Y-16392D01*
X85903Y-16198D01*
X85810Y-16013D01*
X85718Y-15828D01*
X85709Y-15818D01*
X85690Y-15781D01*
X85653Y-15726D01*
X85616Y-15670D01*
X85496Y-15532D01*
X85431Y-15476D01*
X85367Y-15430D01*
X85357Y-15421D01*
X85330Y-15412D01*
X85293Y-15393D01*
X85228Y-15375D01*
X85145Y-15356D01*
X85043Y-15347D01*
X84923Y-15328D01*
X83998D01*
X83518Y-18148D01*
X82815D01*
X83906Y-11797D01*
X86236D01*
X86300Y-11806D01*
D02*
G37*
G36*
X77351Y-12518D02*
X75668D01*
X74697Y-18148D01*
X73995D01*
X74965Y-12518D01*
X73246D01*
X73375Y-11797D01*
X77480D01*
X77351Y-12518D01*
D02*
G37*
G36*
X71378Y-18148D02*
X70675D01*
X71766Y-11797D01*
X72469D01*
X71378Y-18148D01*
D02*
G37*
G36*
X64703D02*
X64028D01*
X63778Y-16318D01*
X61670D01*
X60838Y-18148D01*
X60089D01*
X63020Y-11797D01*
X63852D01*
X64703Y-18148D01*
D02*
G37*
G36*
X59174Y-11806D02*
X59294Y-11815D01*
X59433Y-11834D01*
X59571Y-11861D01*
X59701Y-11898D01*
X59812Y-11954D01*
X59821Y-11963D01*
X59858Y-11982D01*
X59914Y-12028D01*
X59978Y-12083D01*
X60052Y-12157D01*
X60126Y-12250D01*
X60209Y-12361D01*
X60283Y-12490D01*
X60293Y-12508D01*
X60311Y-12555D01*
X60348Y-12629D01*
X60385Y-12740D01*
X60413Y-12860D01*
X60450Y-13008D01*
X60468Y-13174D01*
X60477Y-13359D01*
Y-13368D01*
Y-13387D01*
Y-13424D01*
Y-13470D01*
X60468Y-13526D01*
X60459Y-13590D01*
X60441Y-13757D01*
X60404Y-13942D01*
X60348Y-14145D01*
X60265Y-14358D01*
X60163Y-14579D01*
Y-14589D01*
X60154Y-14607D01*
X60135Y-14635D01*
X60108Y-14672D01*
X60043Y-14774D01*
X59950Y-14894D01*
X59830Y-15023D01*
X59692Y-15153D01*
X59535Y-15273D01*
X59359Y-15365D01*
X59350D01*
X59340Y-15375D01*
X59313Y-15384D01*
X59266Y-15393D01*
X59220Y-15412D01*
X59165Y-15430D01*
X59026Y-15467D01*
X58850Y-15504D01*
X58638Y-15541D01*
X58407Y-15560D01*
X58157Y-15569D01*
X56863D01*
X56419Y-18148D01*
X55716D01*
X56807Y-11797D01*
X59072D01*
X59174Y-11806D01*
D02*
G37*
G36*
X54995Y-18148D02*
X54320D01*
X54070Y-16318D01*
X51962D01*
X51130Y-18148D01*
X50381D01*
X53312Y-11797D01*
X54144D01*
X54995Y-18148D01*
D02*
G37*
G36*
X80309Y-11704D02*
X80374D01*
X80457Y-11713D01*
X80550Y-11732D01*
X80651Y-11760D01*
X80762Y-11787D01*
X80883Y-11834D01*
X81012Y-11880D01*
X81141Y-11945D01*
X81271Y-12019D01*
X81400Y-12102D01*
X81530Y-12203D01*
X81659Y-12324D01*
X81779Y-12453D01*
X81789Y-12462D01*
X81807Y-12490D01*
X81835Y-12527D01*
X81881Y-12592D01*
X81927Y-12666D01*
X81983Y-12758D01*
X82038Y-12869D01*
X82103Y-12998D01*
X82158Y-13137D01*
X82214Y-13294D01*
X82269Y-13461D01*
X82316Y-13646D01*
X82362Y-13849D01*
X82390Y-14071D01*
X82408Y-14302D01*
X82417Y-14542D01*
Y-14552D01*
Y-14589D01*
Y-14644D01*
X82408Y-14727D01*
Y-14820D01*
X82399Y-14931D01*
X82380Y-15060D01*
X82362Y-15190D01*
X82343Y-15338D01*
X82316Y-15495D01*
X82242Y-15828D01*
X82140Y-16170D01*
X82075Y-16336D01*
X82001Y-16503D01*
Y-16512D01*
X81983Y-16540D01*
X81955Y-16586D01*
X81927Y-16641D01*
X81890Y-16715D01*
X81835Y-16798D01*
X81715Y-16993D01*
X81567Y-17205D01*
X81382Y-17427D01*
X81178Y-17630D01*
X81077Y-17723D01*
X80956Y-17816D01*
X80947D01*
X80929Y-17834D01*
X80892Y-17852D01*
X80846Y-17880D01*
X80790Y-17917D01*
X80725Y-17954D01*
X80642Y-17991D01*
X80559Y-18028D01*
X80365Y-18111D01*
X80143Y-18185D01*
X79903Y-18232D01*
X79773Y-18241D01*
X79644Y-18250D01*
X79588D01*
X79542Y-18241D01*
X79486D01*
X79431Y-18232D01*
X79283Y-18213D01*
X79117Y-18176D01*
X78932Y-18121D01*
X78738Y-18037D01*
X78553Y-17936D01*
X78543D01*
X78534Y-17917D01*
X78506Y-17899D01*
X78470Y-17871D01*
X78386Y-17797D01*
X78275Y-17695D01*
X78146Y-17557D01*
X78016Y-17390D01*
X77887Y-17196D01*
X77767Y-16965D01*
Y-16956D01*
X77758Y-16937D01*
X77739Y-16900D01*
X77721Y-16854D01*
X77693Y-16789D01*
X77674Y-16715D01*
X77647Y-16632D01*
X77619Y-16540D01*
X77582Y-16438D01*
X77554Y-16318D01*
X77508Y-16068D01*
X77471Y-15791D01*
X77462Y-15495D01*
Y-15486D01*
Y-15476D01*
Y-15449D01*
Y-15421D01*
X77471Y-15328D01*
X77480Y-15208D01*
X77489Y-15060D01*
X77508Y-14885D01*
X77536Y-14690D01*
X77573Y-14487D01*
X77619Y-14265D01*
X77674Y-14034D01*
X77748Y-13803D01*
X77832Y-13563D01*
X77924Y-13331D01*
X78044Y-13100D01*
X78174Y-12878D01*
X78331Y-12666D01*
X78340Y-12656D01*
X78368Y-12619D01*
X78414Y-12573D01*
X78470Y-12518D01*
X78543Y-12444D01*
X78636Y-12361D01*
X78738Y-12268D01*
X78858Y-12176D01*
X78987Y-12092D01*
X79135Y-12000D01*
X79292Y-11917D01*
X79459Y-11843D01*
X79634Y-11787D01*
X79819Y-11732D01*
X80014Y-11704D01*
X80217Y-11695D01*
X80263D01*
X80309Y-11704D01*
D02*
G37*
G36*
X75690Y5601D02*
X75949Y5582D01*
X76263Y5545D01*
X76597Y5489D01*
X76930Y5415D01*
X77263Y5323D01*
X77282D01*
X77300Y5304D01*
X77411Y5267D01*
X77560Y5212D01*
X77763Y5119D01*
X77986Y5008D01*
X78226Y4878D01*
X78449Y4712D01*
X78671Y4545D01*
X78689Y4527D01*
X78763Y4471D01*
X78874Y4360D01*
X78985Y4230D01*
X79134Y4082D01*
X79263Y3916D01*
X79393Y3730D01*
X79504Y3527D01*
X79522Y3508D01*
X79541Y3434D01*
X79597Y3323D01*
X79652Y3193D01*
X79689Y3045D01*
X79745Y2860D01*
X79763Y2675D01*
X79782Y2490D01*
Y2471D01*
Y2397D01*
X79763Y2305D01*
X79745Y2193D01*
X79689Y2045D01*
X79633Y1897D01*
X79541Y1731D01*
X79411Y1582D01*
X79393Y1564D01*
X79356Y1527D01*
X79263Y1453D01*
X79171Y1379D01*
X79041Y1305D01*
X78874Y1231D01*
X78708Y1194D01*
X78504Y1175D01*
X78430D01*
X78337Y1194D01*
X78226Y1212D01*
X77986Y1286D01*
X77874Y1342D01*
X77763Y1416D01*
X77745Y1434D01*
X77726Y1453D01*
X77671Y1527D01*
X77615Y1601D01*
X77541Y1693D01*
X77449Y1823D01*
X77356Y1971D01*
X77263Y2138D01*
X77245Y2175D01*
X77208Y2249D01*
X77134Y2379D01*
X77041Y2527D01*
X76930Y2693D01*
X76800Y2860D01*
X76652Y3027D01*
X76504Y3175D01*
X76486Y3193D01*
X76430Y3230D01*
X76319Y3286D01*
X76171Y3360D01*
X75986Y3434D01*
X75745Y3490D01*
X75449Y3527D01*
X75115Y3545D01*
X74967D01*
X74801Y3527D01*
X74616Y3490D01*
X74375Y3453D01*
X74153Y3379D01*
X73912Y3286D01*
X73708Y3156D01*
X73690Y3138D01*
X73634Y3082D01*
X73542Y3008D01*
X73449Y2916D01*
X73356Y2786D01*
X73264Y2638D01*
X73208Y2471D01*
X73190Y2286D01*
Y2268D01*
Y2230D01*
X73208Y2175D01*
Y2101D01*
X73264Y1916D01*
X73356Y1731D01*
Y1712D01*
X73393Y1693D01*
X73486Y1601D01*
X73634Y1471D01*
X73838Y1323D01*
X73856D01*
X73893Y1305D01*
X73967Y1268D01*
X74042Y1231D01*
X74264Y1138D01*
X74504Y1045D01*
X74523D01*
X74578Y1027D01*
X74653Y1008D01*
X74782Y971D01*
X74949Y934D01*
X75153Y879D01*
X75412Y805D01*
X75708Y731D01*
X75726D01*
X75745Y712D01*
X75801D01*
X75875Y694D01*
X76060Y638D01*
X76301Y582D01*
X76578Y509D01*
X76893Y416D01*
X77541Y194D01*
X77560D01*
X77578Y175D01*
X77689Y138D01*
X77837Y83D01*
X78041Y-10D01*
X78282Y-121D01*
X78523Y-232D01*
X78763Y-380D01*
X79004Y-529D01*
X79022Y-547D01*
X79096Y-602D01*
X79208Y-695D01*
X79356Y-825D01*
X79504Y-991D01*
X79671Y-1177D01*
X79819Y-1399D01*
X79967Y-1639D01*
X79985Y-1676D01*
X80022Y-1751D01*
X80078Y-1899D01*
X80152Y-2084D01*
X80208Y-2325D01*
X80263Y-2602D01*
X80300Y-2917D01*
X80319Y-3250D01*
Y-3269D01*
Y-3306D01*
Y-3361D01*
Y-3436D01*
X80300Y-3547D01*
X80282Y-3658D01*
X80245Y-3936D01*
X80170Y-4269D01*
X80059Y-4602D01*
X79911Y-4972D01*
X79708Y-5324D01*
Y-5343D01*
X79689Y-5361D01*
X79597Y-5472D01*
X79467Y-5639D01*
X79263Y-5843D01*
X79022Y-6065D01*
X78726Y-6306D01*
X78393Y-6546D01*
X77986Y-6750D01*
X77967D01*
X77930Y-6769D01*
X77874Y-6787D01*
X77782Y-6824D01*
X77671Y-6861D01*
X77541Y-6917D01*
X77393Y-6954D01*
X77226Y-6991D01*
X76838Y-7083D01*
X76393Y-7176D01*
X75875Y-7232D01*
X75319Y-7250D01*
X75134D01*
X75004Y-7232D01*
X74856D01*
X74671Y-7213D01*
X74467Y-7194D01*
X74245Y-7157D01*
X73764Y-7083D01*
X73245Y-6954D01*
X72745Y-6787D01*
X72264Y-6565D01*
X72245D01*
X72227Y-6546D01*
X72116Y-6472D01*
X71968Y-6361D01*
X71764Y-6195D01*
X71542Y-6009D01*
X71301Y-5769D01*
X71079Y-5509D01*
X70857Y-5213D01*
Y-5195D01*
X70838Y-5176D01*
X70783Y-5065D01*
X70690Y-4898D01*
X70597Y-4676D01*
X70486Y-4435D01*
X70412Y-4139D01*
X70338Y-3843D01*
X70320Y-3528D01*
Y-3510D01*
Y-3436D01*
X70338Y-3343D01*
X70357Y-3232D01*
X70412Y-3084D01*
X70468Y-2936D01*
X70560Y-2788D01*
X70672Y-2658D01*
X70690Y-2639D01*
X70746Y-2602D01*
X70820Y-2547D01*
X70931Y-2473D01*
X71060Y-2399D01*
X71209Y-2343D01*
X71394Y-2306D01*
X71579Y-2288D01*
X71653D01*
X71745Y-2306D01*
X71856Y-2325D01*
X71986Y-2362D01*
X72116Y-2417D01*
X72245Y-2491D01*
X72357Y-2584D01*
X72375Y-2602D01*
X72412Y-2639D01*
X72468Y-2695D01*
X72542Y-2788D01*
X72616Y-2899D01*
X72708Y-3028D01*
X72801Y-3195D01*
X72875Y-3380D01*
X72894Y-3399D01*
X72912Y-3473D01*
X72968Y-3584D01*
X73023Y-3695D01*
X73171Y-4010D01*
X73338Y-4306D01*
X73356Y-4324D01*
X73393Y-4361D01*
X73449Y-4435D01*
X73523Y-4509D01*
X73616Y-4621D01*
X73745Y-4713D01*
X73893Y-4806D01*
X74042Y-4898D01*
X74060D01*
X74116Y-4935D01*
X74227Y-4972D01*
X74356Y-5009D01*
X74523Y-5046D01*
X74745Y-5084D01*
X74967Y-5102D01*
X75245Y-5121D01*
X75412D01*
X75615Y-5102D01*
X75838Y-5065D01*
X76115Y-5009D01*
X76393Y-4917D01*
X76652Y-4806D01*
X76912Y-4658D01*
X76930Y-4639D01*
X77004Y-4565D01*
X77115Y-4473D01*
X77226Y-4343D01*
X77337Y-4176D01*
X77449Y-3973D01*
X77523Y-3750D01*
X77541Y-3510D01*
Y-3491D01*
Y-3417D01*
X77523Y-3325D01*
X77504Y-3195D01*
X77467Y-3065D01*
X77393Y-2917D01*
X77319Y-2769D01*
X77208Y-2639D01*
X77189Y-2621D01*
X77152Y-2584D01*
X77078Y-2528D01*
X76967Y-2454D01*
X76838Y-2362D01*
X76689Y-2288D01*
X76523Y-2195D01*
X76319Y-2121D01*
X76301Y-2102D01*
X76227Y-2084D01*
X76097Y-2047D01*
X75912Y-1991D01*
X75708Y-1936D01*
X75430Y-1862D01*
X75134Y-1769D01*
X74782Y-1695D01*
X74764D01*
X74727Y-1676D01*
X74653Y-1658D01*
X74560Y-1639D01*
X74449Y-1621D01*
X74319Y-1584D01*
X74005Y-1491D01*
X73671Y-1380D01*
X73282Y-1269D01*
X72912Y-1121D01*
X72560Y-973D01*
X72542D01*
X72523Y-954D01*
X72412Y-899D01*
X72245Y-806D01*
X72042Y-658D01*
X71801Y-491D01*
X71560Y-306D01*
X71320Y-66D01*
X71097Y194D01*
X71079Y231D01*
X71023Y323D01*
X70931Y490D01*
X70838Y712D01*
X70727Y971D01*
X70653Y1305D01*
X70579Y1656D01*
X70560Y2045D01*
Y2064D01*
Y2101D01*
Y2156D01*
X70579Y2230D01*
X70597Y2416D01*
X70634Y2675D01*
X70708Y2971D01*
X70801Y3286D01*
X70949Y3601D01*
X71134Y3916D01*
Y3934D01*
X71153Y3952D01*
X71245Y4045D01*
X71375Y4193D01*
X71560Y4378D01*
X71782Y4582D01*
X72079Y4804D01*
X72412Y5008D01*
X72782Y5175D01*
X72801D01*
X72838Y5193D01*
X72894Y5212D01*
X72968Y5249D01*
X73079Y5286D01*
X73190Y5323D01*
X73338Y5360D01*
X73505Y5397D01*
X73856Y5471D01*
X74282Y5545D01*
X74764Y5601D01*
X75282Y5619D01*
X75467D01*
X75690Y5601D01*
D02*
G37*
G36*
X39471D02*
X39730Y5582D01*
X40045Y5545D01*
X40378Y5489D01*
X40712Y5415D01*
X41045Y5323D01*
X41063D01*
X41082Y5304D01*
X41193Y5267D01*
X41341Y5212D01*
X41545Y5119D01*
X41767Y5008D01*
X42008Y4878D01*
X42230Y4712D01*
X42452Y4545D01*
X42471Y4527D01*
X42545Y4471D01*
X42656Y4360D01*
X42767Y4230D01*
X42915Y4082D01*
X43045Y3916D01*
X43174Y3730D01*
X43285Y3527D01*
X43304Y3508D01*
X43323Y3434D01*
X43378Y3323D01*
X43434Y3193D01*
X43471Y3045D01*
X43526Y2860D01*
X43545Y2675D01*
X43563Y2490D01*
Y2471D01*
Y2397D01*
X43545Y2305D01*
X43526Y2193D01*
X43471Y2045D01*
X43415Y1897D01*
X43323Y1731D01*
X43193Y1582D01*
X43174Y1564D01*
X43137Y1527D01*
X43045Y1453D01*
X42952Y1379D01*
X42822Y1305D01*
X42656Y1231D01*
X42489Y1194D01*
X42285Y1175D01*
X42211D01*
X42119Y1194D01*
X42008Y1212D01*
X41767Y1286D01*
X41656Y1342D01*
X41545Y1416D01*
X41526Y1434D01*
X41508Y1453D01*
X41452Y1527D01*
X41397Y1601D01*
X41323Y1693D01*
X41230Y1823D01*
X41137Y1971D01*
X41045Y2138D01*
X41026Y2175D01*
X40989Y2249D01*
X40915Y2379D01*
X40823Y2527D01*
X40712Y2693D01*
X40582Y2860D01*
X40434Y3027D01*
X40286Y3175D01*
X40267Y3193D01*
X40212Y3230D01*
X40101Y3286D01*
X39952Y3360D01*
X39767Y3434D01*
X39527Y3490D01*
X39230Y3527D01*
X38897Y3545D01*
X38749D01*
X38582Y3527D01*
X38397Y3490D01*
X38156Y3453D01*
X37934Y3379D01*
X37693Y3286D01*
X37490Y3156D01*
X37471Y3138D01*
X37416Y3082D01*
X37323Y3008D01*
X37231Y2916D01*
X37138Y2786D01*
X37045Y2638D01*
X36990Y2471D01*
X36971Y2286D01*
Y2268D01*
Y2230D01*
X36990Y2175D01*
Y2101D01*
X37045Y1916D01*
X37138Y1731D01*
Y1712D01*
X37175Y1693D01*
X37267Y1601D01*
X37416Y1471D01*
X37619Y1323D01*
X37638D01*
X37675Y1305D01*
X37749Y1268D01*
X37823Y1231D01*
X38045Y1138D01*
X38286Y1045D01*
X38305D01*
X38360Y1027D01*
X38434Y1008D01*
X38564Y971D01*
X38730Y934D01*
X38934Y879D01*
X39193Y805D01*
X39490Y731D01*
X39508D01*
X39527Y712D01*
X39582D01*
X39656Y694D01*
X39841Y638D01*
X40082Y582D01*
X40360Y509D01*
X40675Y416D01*
X41323Y194D01*
X41341D01*
X41360Y175D01*
X41471Y138D01*
X41619Y83D01*
X41823Y-10D01*
X42063Y-121D01*
X42304Y-232D01*
X42545Y-380D01*
X42786Y-529D01*
X42804Y-547D01*
X42878Y-602D01*
X42989Y-695D01*
X43137Y-825D01*
X43285Y-991D01*
X43452Y-1177D01*
X43600Y-1399D01*
X43748Y-1639D01*
X43767Y-1676D01*
X43804Y-1751D01*
X43859Y-1899D01*
X43934Y-2084D01*
X43989Y-2325D01*
X44045Y-2602D01*
X44082Y-2917D01*
X44100Y-3250D01*
Y-3269D01*
Y-3306D01*
Y-3361D01*
Y-3436D01*
X44082Y-3547D01*
X44063Y-3658D01*
X44026Y-3936D01*
X43952Y-4269D01*
X43841Y-4602D01*
X43693Y-4972D01*
X43489Y-5324D01*
Y-5343D01*
X43471Y-5361D01*
X43378Y-5472D01*
X43248Y-5639D01*
X43045Y-5843D01*
X42804Y-6065D01*
X42508Y-6306D01*
X42174Y-6546D01*
X41767Y-6750D01*
X41749D01*
X41712Y-6769D01*
X41656Y-6787D01*
X41563Y-6824D01*
X41452Y-6861D01*
X41323Y-6917D01*
X41175Y-6954D01*
X41008Y-6991D01*
X40619Y-7083D01*
X40175Y-7176D01*
X39656Y-7232D01*
X39101Y-7250D01*
X38916D01*
X38786Y-7232D01*
X38638D01*
X38453Y-7213D01*
X38249Y-7194D01*
X38027Y-7157D01*
X37545Y-7083D01*
X37027Y-6954D01*
X36527Y-6787D01*
X36045Y-6565D01*
X36027D01*
X36008Y-6546D01*
X35897Y-6472D01*
X35749Y-6361D01*
X35545Y-6195D01*
X35323Y-6009D01*
X35083Y-5769D01*
X34860Y-5509D01*
X34638Y-5213D01*
Y-5195D01*
X34620Y-5176D01*
X34564Y-5065D01*
X34471Y-4898D01*
X34379Y-4676D01*
X34268Y-4435D01*
X34194Y-4139D01*
X34120Y-3843D01*
X34101Y-3528D01*
Y-3510D01*
Y-3436D01*
X34120Y-3343D01*
X34138Y-3232D01*
X34194Y-3084D01*
X34249Y-2936D01*
X34342Y-2788D01*
X34453Y-2658D01*
X34471Y-2639D01*
X34527Y-2602D01*
X34601Y-2547D01*
X34712Y-2473D01*
X34842Y-2399D01*
X34990Y-2343D01*
X35175Y-2306D01*
X35360Y-2288D01*
X35434D01*
X35527Y-2306D01*
X35638Y-2325D01*
X35768Y-2362D01*
X35897Y-2417D01*
X36027Y-2491D01*
X36138Y-2584D01*
X36156Y-2602D01*
X36194Y-2639D01*
X36249Y-2695D01*
X36323Y-2788D01*
X36397Y-2899D01*
X36490Y-3028D01*
X36582Y-3195D01*
X36656Y-3380D01*
X36675Y-3399D01*
X36693Y-3473D01*
X36749Y-3584D01*
X36805Y-3695D01*
X36953Y-4010D01*
X37119Y-4306D01*
X37138Y-4324D01*
X37175Y-4361D01*
X37231Y-4435D01*
X37305Y-4509D01*
X37397Y-4621D01*
X37527Y-4713D01*
X37675Y-4806D01*
X37823Y-4898D01*
X37842D01*
X37897Y-4935D01*
X38008Y-4972D01*
X38138Y-5009D01*
X38305Y-5046D01*
X38527Y-5084D01*
X38749Y-5102D01*
X39027Y-5121D01*
X39193D01*
X39397Y-5102D01*
X39619Y-5065D01*
X39897Y-5009D01*
X40175Y-4917D01*
X40434Y-4806D01*
X40693Y-4658D01*
X40712Y-4639D01*
X40786Y-4565D01*
X40897Y-4473D01*
X41008Y-4343D01*
X41119Y-4176D01*
X41230Y-3973D01*
X41304Y-3750D01*
X41323Y-3510D01*
Y-3491D01*
Y-3417D01*
X41304Y-3325D01*
X41286Y-3195D01*
X41249Y-3065D01*
X41175Y-2917D01*
X41101Y-2769D01*
X40989Y-2639D01*
X40971Y-2621D01*
X40934Y-2584D01*
X40860Y-2528D01*
X40749Y-2454D01*
X40619Y-2362D01*
X40471Y-2288D01*
X40304Y-2195D01*
X40101Y-2121D01*
X40082Y-2102D01*
X40008Y-2084D01*
X39878Y-2047D01*
X39693Y-1991D01*
X39490Y-1936D01*
X39212Y-1862D01*
X38916Y-1769D01*
X38564Y-1695D01*
X38545D01*
X38508Y-1676D01*
X38434Y-1658D01*
X38342Y-1639D01*
X38230Y-1621D01*
X38101Y-1584D01*
X37786Y-1491D01*
X37453Y-1380D01*
X37064Y-1269D01*
X36693Y-1121D01*
X36342Y-973D01*
X36323D01*
X36305Y-954D01*
X36194Y-899D01*
X36027Y-806D01*
X35823Y-658D01*
X35582Y-491D01*
X35342Y-306D01*
X35101Y-66D01*
X34879Y194D01*
X34860Y231D01*
X34805Y323D01*
X34712Y490D01*
X34620Y712D01*
X34509Y971D01*
X34434Y1305D01*
X34360Y1656D01*
X34342Y2045D01*
Y2064D01*
Y2101D01*
Y2156D01*
X34360Y2230D01*
X34379Y2416D01*
X34416Y2675D01*
X34490Y2971D01*
X34583Y3286D01*
X34731Y3601D01*
X34916Y3916D01*
Y3934D01*
X34934Y3952D01*
X35027Y4045D01*
X35157Y4193D01*
X35342Y4378D01*
X35564Y4582D01*
X35860Y4804D01*
X36194Y5008D01*
X36564Y5175D01*
X36582D01*
X36620Y5193D01*
X36675Y5212D01*
X36749Y5249D01*
X36860Y5286D01*
X36971Y5323D01*
X37119Y5360D01*
X37286Y5397D01*
X37638Y5471D01*
X38064Y5545D01*
X38545Y5601D01*
X39064Y5619D01*
X39249D01*
X39471Y5601D01*
D02*
G37*
G36*
X67005D02*
X67153Y5563D01*
X67302Y5526D01*
X67468Y5452D01*
X67616Y5341D01*
X67764Y5212D01*
X67783Y5193D01*
X67820Y5138D01*
X67875Y5045D01*
X67950Y4915D01*
X68024Y4749D01*
X68079Y4545D01*
X68116Y4323D01*
X68135Y4045D01*
Y-5491D01*
Y-5509D01*
Y-5565D01*
X68116Y-5658D01*
Y-5769D01*
X68098Y-5898D01*
X68061Y-6046D01*
X67950Y-6361D01*
X67857Y-6528D01*
X67764Y-6694D01*
X67635Y-6843D01*
X67487Y-6972D01*
X67320Y-7083D01*
X67116Y-7176D01*
X66876Y-7232D01*
X66616Y-7250D01*
X66487D01*
X66394Y-7232D01*
X66172Y-7194D01*
X65950Y-7139D01*
X65931D01*
X65894Y-7120D01*
X65857Y-7102D01*
X65783Y-7065D01*
X65598Y-6972D01*
X65413Y-6824D01*
X65394Y-6806D01*
X65376Y-6787D01*
X65265Y-6676D01*
X65117Y-6528D01*
X64968Y-6343D01*
Y-6324D01*
X64931Y-6306D01*
X64913Y-6250D01*
X64857Y-6176D01*
X64728Y-5991D01*
X64580Y-5769D01*
X60284Y1268D01*
Y-5676D01*
Y-5713D01*
Y-5806D01*
X60265Y-5935D01*
X60228Y-6102D01*
X60191Y-6287D01*
X60117Y-6491D01*
X60024Y-6676D01*
X59895Y-6843D01*
X59876Y-6861D01*
X59821Y-6898D01*
X59747Y-6972D01*
X59636Y-7046D01*
X59506Y-7120D01*
X59339Y-7194D01*
X59154Y-7232D01*
X58951Y-7250D01*
X58858D01*
X58747Y-7232D01*
X58599Y-7194D01*
X58450Y-7157D01*
X58284Y-7083D01*
X58136Y-6972D01*
X57988Y-6843D01*
X57969Y-6824D01*
X57932Y-6769D01*
X57877Y-6676D01*
X57821Y-6546D01*
X57747Y-6380D01*
X57691Y-6195D01*
X57654Y-5954D01*
X57636Y-5695D01*
Y3656D01*
Y3693D01*
Y3767D01*
Y3878D01*
X57654Y4008D01*
X57691Y4323D01*
X57728Y4489D01*
X57765Y4619D01*
X57784Y4638D01*
X57802Y4693D01*
X57839Y4786D01*
X57913Y4878D01*
X57988Y5008D01*
X58099Y5119D01*
X58210Y5230D01*
X58358Y5341D01*
X58376Y5360D01*
X58432Y5378D01*
X58506Y5434D01*
X58617Y5489D01*
X58747Y5526D01*
X58895Y5582D01*
X59062Y5601D01*
X59228Y5619D01*
X59358D01*
X59450Y5601D01*
X59654Y5563D01*
X59858Y5489D01*
X59876D01*
X59913Y5471D01*
X60024Y5397D01*
X60173Y5286D01*
X60339Y5156D01*
X60358D01*
X60376Y5119D01*
X60469Y5027D01*
X60599Y4860D01*
X60728Y4656D01*
Y4638D01*
X60765Y4601D01*
X60802Y4545D01*
X60858Y4471D01*
X60987Y4267D01*
X61135Y4027D01*
X65524Y-2991D01*
Y4045D01*
Y4082D01*
Y4175D01*
X65542Y4304D01*
X65561Y4471D01*
X65598Y4656D01*
X65672Y4860D01*
X65746Y5045D01*
X65857Y5212D01*
X65876Y5230D01*
X65931Y5267D01*
X66005Y5341D01*
X66116Y5415D01*
X66246Y5489D01*
X66413Y5563D01*
X66598Y5601D01*
X66802Y5619D01*
X66894D01*
X67005Y5601D01*
D02*
G37*
G36*
X31972Y-1325D02*
X32120Y-1343D01*
X32287Y-1380D01*
X32453Y-1454D01*
X32620Y-1528D01*
X32768Y-1639D01*
X32787Y-1658D01*
X32824Y-1695D01*
X32879Y-1769D01*
X32953Y-1862D01*
X33027Y-1991D01*
X33083Y-2139D01*
X33120Y-2306D01*
X33138Y-2491D01*
Y-2510D01*
Y-2565D01*
X33120Y-2658D01*
X33101Y-2788D01*
X33046Y-2917D01*
X32990Y-3047D01*
X32898Y-3195D01*
X32787Y-3325D01*
X32768Y-3343D01*
X32713Y-3380D01*
X32638Y-3417D01*
X32527Y-3473D01*
X32379Y-3547D01*
X32194Y-3584D01*
X31972Y-3621D01*
X31731Y-3639D01*
X29009D01*
X28898Y-3621D01*
X28750Y-3602D01*
X28583Y-3565D01*
X28417Y-3510D01*
X28250Y-3436D01*
X28102Y-3325D01*
X28083Y-3306D01*
X28046Y-3269D01*
X27991Y-3195D01*
X27935Y-3102D01*
X27861Y-2991D01*
X27806Y-2843D01*
X27768Y-2676D01*
X27750Y-2491D01*
Y-2473D01*
Y-2399D01*
X27768Y-2306D01*
X27787Y-2195D01*
X27824Y-2047D01*
X27898Y-1917D01*
X27972Y-1769D01*
X28083Y-1639D01*
X28102Y-1621D01*
X28157Y-1584D01*
X28231Y-1528D01*
X28342Y-1473D01*
X28491Y-1417D01*
X28676Y-1362D01*
X28879Y-1325D01*
X29120Y-1306D01*
X31842D01*
X31972Y-1325D01*
D02*
G37*
G36*
X54432Y5397D02*
X54581Y5378D01*
X54747Y5341D01*
X54914Y5286D01*
X55080Y5212D01*
X55210Y5101D01*
X55229Y5082D01*
X55266Y5045D01*
X55321Y4971D01*
X55395Y4878D01*
X55451Y4767D01*
X55506Y4638D01*
X55543Y4471D01*
X55562Y4304D01*
Y4286D01*
Y4230D01*
X55543Y4138D01*
X55525Y4008D01*
X55469Y3878D01*
X55414Y3749D01*
X55321Y3619D01*
X55210Y3490D01*
X55192Y3471D01*
X55155Y3453D01*
X55062Y3397D01*
X54969Y3341D01*
X54821Y3286D01*
X54655Y3249D01*
X54451Y3212D01*
X54210Y3193D01*
X48877D01*
Y545D01*
X53895D01*
X54007Y527D01*
X54136Y509D01*
X54303Y471D01*
X54451Y416D01*
X54618Y342D01*
X54747Y231D01*
X54766Y212D01*
X54803Y175D01*
X54858Y120D01*
X54914Y27D01*
X54969Y-84D01*
X55025Y-214D01*
X55062Y-380D01*
X55080Y-547D01*
Y-565D01*
Y-621D01*
X55062Y-714D01*
X55044Y-825D01*
X55006Y-954D01*
X54932Y-1084D01*
X54858Y-1214D01*
X54747Y-1343D01*
X54729Y-1362D01*
X54692Y-1380D01*
X54618Y-1436D01*
X54507Y-1491D01*
X54377Y-1547D01*
X54210Y-1584D01*
X54007Y-1621D01*
X53784Y-1639D01*
X48877D01*
Y-4769D01*
X54525D01*
X54636Y-4787D01*
X54784Y-4806D01*
X54951Y-4843D01*
X55118Y-4917D01*
X55266Y-4991D01*
X55414Y-5102D01*
X55432Y-5121D01*
X55469Y-5158D01*
X55525Y-5232D01*
X55599Y-5324D01*
X55655Y-5435D01*
X55710Y-5584D01*
X55747Y-5732D01*
X55766Y-5917D01*
Y-5935D01*
Y-5991D01*
X55747Y-6083D01*
X55729Y-6213D01*
X55673Y-6343D01*
X55617Y-6472D01*
X55525Y-6602D01*
X55414Y-6732D01*
X55395Y-6750D01*
X55358Y-6787D01*
X55266Y-6824D01*
X55155Y-6880D01*
X55006Y-6954D01*
X54840Y-6991D01*
X54636Y-7028D01*
X54414Y-7046D01*
X47581D01*
X47433Y-7028D01*
X47248Y-6991D01*
X47044Y-6954D01*
X46841Y-6880D01*
X46637Y-6787D01*
X46470Y-6658D01*
X46452Y-6639D01*
X46415Y-6583D01*
X46341Y-6491D01*
X46285Y-6343D01*
X46211Y-6158D01*
X46137Y-5954D01*
X46100Y-5676D01*
X46081Y-5380D01*
Y3730D01*
Y3749D01*
Y3823D01*
X46100Y3934D01*
Y4064D01*
X46156Y4378D01*
X46192Y4527D01*
X46248Y4675D01*
X46267Y4693D01*
X46285Y4730D01*
X46322Y4804D01*
X46396Y4897D01*
X46563Y5082D01*
X46674Y5156D01*
X46804Y5230D01*
X46822D01*
X46878Y5267D01*
X46952Y5286D01*
X47063Y5323D01*
X47192Y5360D01*
X47359Y5378D01*
X47526Y5415D01*
X54321D01*
X54432Y5397D01*
D02*
G37*
G36*
X102353D02*
X102594Y5378D01*
X102835Y5360D01*
X103076Y5341D01*
X103113D01*
X103187Y5323D01*
X103298Y5304D01*
X103464Y5267D01*
X103650Y5230D01*
X103835Y5175D01*
X104261Y5008D01*
X104279Y4990D01*
X104353Y4971D01*
X104464Y4915D01*
X104594Y4823D01*
X104742Y4730D01*
X104909Y4619D01*
X105094Y4471D01*
X105260Y4304D01*
X105279Y4286D01*
X105335Y4230D01*
X105427Y4119D01*
X105520Y3990D01*
X105631Y3841D01*
X105760Y3656D01*
X105871Y3434D01*
X105964Y3212D01*
X105983Y3175D01*
X106001Y3101D01*
X106038Y2971D01*
X106094Y2804D01*
X106131Y2619D01*
X106168Y2397D01*
X106186Y2156D01*
X106205Y1897D01*
Y1879D01*
Y1842D01*
Y1768D01*
X106186Y1656D01*
Y1545D01*
X106168Y1416D01*
X106112Y1082D01*
X106001Y731D01*
X105853Y342D01*
X105668Y-29D01*
X105538Y-214D01*
X105390Y-380D01*
X105353Y-417D01*
X105297Y-454D01*
X105242Y-510D01*
X105057Y-658D01*
X104798Y-843D01*
X104483Y-1028D01*
X104094Y-1195D01*
X103631Y-1362D01*
X103113Y-1473D01*
X103131D01*
X103224Y-1510D01*
X103335Y-1565D01*
X103483Y-1639D01*
X103668Y-1751D01*
X103872Y-1917D01*
X104094Y-2102D01*
X104316Y-2343D01*
X104335Y-2380D01*
X104427Y-2454D01*
X104538Y-2602D01*
X104686Y-2788D01*
X104853Y-3010D01*
X105020Y-3250D01*
X105205Y-3528D01*
X105390Y-3806D01*
X105409Y-3843D01*
X105464Y-3936D01*
X105557Y-4084D01*
X105668Y-4269D01*
X105779Y-4491D01*
X105909Y-4713D01*
X106020Y-4972D01*
X106131Y-5213D01*
X106149Y-5232D01*
X106168Y-5324D01*
X106223Y-5435D01*
X106279Y-5565D01*
X106371Y-5861D01*
X106390Y-5991D01*
X106409Y-6102D01*
Y-6120D01*
Y-6158D01*
Y-6213D01*
X106390Y-6287D01*
X106334Y-6472D01*
X106223Y-6676D01*
Y-6694D01*
X106186Y-6713D01*
X106094Y-6824D01*
X105946Y-6954D01*
X105742Y-7083D01*
X105723D01*
X105686Y-7102D01*
X105631Y-7139D01*
X105538Y-7157D01*
X105446Y-7194D01*
X105316Y-7232D01*
X105038Y-7250D01*
X104964D01*
X104872Y-7232D01*
X104761D01*
X104520Y-7157D01*
X104390Y-7120D01*
X104261Y-7046D01*
X104242Y-7028D01*
X104205Y-7009D01*
X104150Y-6954D01*
X104075Y-6898D01*
X103909Y-6732D01*
X103742Y-6528D01*
Y-6509D01*
X103705Y-6472D01*
X103650Y-6398D01*
X103594Y-6287D01*
X103520Y-6176D01*
X103409Y-6009D01*
X103298Y-5824D01*
X103168Y-5620D01*
X102168Y-3750D01*
X102150Y-3713D01*
X102076Y-3639D01*
X101983Y-3510D01*
X101872Y-3361D01*
X101724Y-3176D01*
X101576Y-2991D01*
X101409Y-2806D01*
X101261Y-2639D01*
X101242Y-2621D01*
X101187Y-2565D01*
X101113Y-2491D01*
X101020Y-2399D01*
X100891Y-2288D01*
X100761Y-2195D01*
X100613Y-2102D01*
X100465Y-2028D01*
X100446D01*
X100391Y-2010D01*
X100317Y-1973D01*
X100187Y-1936D01*
X100039Y-1917D01*
X99872Y-1880D01*
X99669Y-1862D01*
X98780D01*
Y-5602D01*
Y-5639D01*
Y-5732D01*
X98761Y-5880D01*
X98724Y-6065D01*
X98687Y-6269D01*
X98613Y-6472D01*
X98520Y-6658D01*
X98391Y-6843D01*
X98372Y-6861D01*
X98317Y-6898D01*
X98243Y-6972D01*
X98113Y-7046D01*
X97965Y-7120D01*
X97798Y-7194D01*
X97595Y-7232D01*
X97372Y-7250D01*
X97261D01*
X97150Y-7232D01*
X97002Y-7194D01*
X96835Y-7139D01*
X96650Y-7065D01*
X96484Y-6972D01*
X96335Y-6824D01*
X96317Y-6806D01*
X96280Y-6750D01*
X96224Y-6639D01*
X96169Y-6509D01*
X96095Y-6343D01*
X96039Y-6120D01*
X96002Y-5880D01*
X95984Y-5602D01*
Y3730D01*
Y3749D01*
Y3767D01*
Y3878D01*
X96002Y4027D01*
X96039Y4212D01*
X96076Y4434D01*
X96150Y4638D01*
X96243Y4841D01*
X96372Y5008D01*
X96391Y5027D01*
X96447Y5063D01*
X96539Y5138D01*
X96687Y5212D01*
X96873Y5286D01*
X97076Y5360D01*
X97354Y5397D01*
X97650Y5415D01*
X102131D01*
X102353Y5397D01*
D02*
G37*
G36*
X88096Y5601D02*
X88262D01*
X88466Y5582D01*
X88688Y5545D01*
X88910Y5526D01*
X89429Y5434D01*
X89984Y5286D01*
X90558Y5082D01*
X90836Y4971D01*
X91095Y4823D01*
X91114D01*
X91151Y4786D01*
X91225Y4749D01*
X91336Y4675D01*
X91447Y4601D01*
X91577Y4489D01*
X91891Y4249D01*
X92243Y3916D01*
X92595Y3527D01*
X92928Y3082D01*
X93225Y2564D01*
Y2545D01*
X93262Y2490D01*
X93299Y2416D01*
X93336Y2305D01*
X93391Y2175D01*
X93447Y2008D01*
X93521Y1823D01*
X93595Y1601D01*
X93651Y1360D01*
X93725Y1101D01*
X93780Y823D01*
X93836Y527D01*
X93910Y-103D01*
X93947Y-806D01*
Y-825D01*
Y-862D01*
Y-936D01*
Y-1047D01*
X93928Y-1177D01*
Y-1325D01*
X93910Y-1491D01*
X93891Y-1658D01*
X93854Y-2065D01*
X93780Y-2510D01*
X93669Y-2973D01*
X93539Y-3417D01*
Y-3436D01*
X93521Y-3473D01*
X93503Y-3528D01*
X93465Y-3621D01*
X93428Y-3713D01*
X93373Y-3824D01*
X93243Y-4102D01*
X93077Y-4435D01*
X92873Y-4769D01*
X92632Y-5121D01*
X92354Y-5472D01*
Y-5491D01*
X92317Y-5509D01*
X92225Y-5620D01*
X92040Y-5769D01*
X91817Y-5972D01*
X91540Y-6176D01*
X91206Y-6398D01*
X90836Y-6620D01*
X90429Y-6806D01*
X90410D01*
X90373Y-6824D01*
X90318Y-6843D01*
X90225Y-6880D01*
X90114Y-6917D01*
X90003Y-6954D01*
X89855Y-6991D01*
X89688Y-7028D01*
X89299Y-7102D01*
X88855Y-7176D01*
X88355Y-7232D01*
X87818Y-7250D01*
X87577D01*
X87448Y-7232D01*
X87299D01*
X87133Y-7213D01*
X86948Y-7194D01*
X86540Y-7139D01*
X86114Y-7046D01*
X85651Y-6935D01*
X85207Y-6787D01*
X85189D01*
X85152Y-6769D01*
X85096Y-6732D01*
X85022Y-6694D01*
X84800Y-6602D01*
X84540Y-6454D01*
X84226Y-6250D01*
X83911Y-6028D01*
X83596Y-5769D01*
X83281Y-5454D01*
Y-5435D01*
X83244Y-5417D01*
X83207Y-5361D01*
X83152Y-5306D01*
X83022Y-5121D01*
X82837Y-4861D01*
X82652Y-4565D01*
X82467Y-4213D01*
X82281Y-3806D01*
X82115Y-3380D01*
Y-3361D01*
X82096Y-3325D01*
X82078Y-3250D01*
X82059Y-3176D01*
X82022Y-3065D01*
X81985Y-2917D01*
X81948Y-2769D01*
X81930Y-2602D01*
X81855Y-2213D01*
X81781Y-1769D01*
X81744Y-1306D01*
X81726Y-788D01*
Y-769D01*
Y-732D01*
Y-640D01*
Y-547D01*
X81744Y-417D01*
Y-269D01*
X81763Y-103D01*
X81781Y83D01*
X81819Y471D01*
X81892Y916D01*
X82004Y1379D01*
X82133Y1823D01*
Y1842D01*
X82152Y1879D01*
X82170Y1934D01*
X82207Y2027D01*
X82244Y2119D01*
X82300Y2249D01*
X82430Y2527D01*
X82596Y2842D01*
X82800Y3193D01*
X83041Y3527D01*
X83318Y3860D01*
X83337Y3878D01*
X83355Y3897D01*
X83467Y4008D01*
X83633Y4156D01*
X83855Y4341D01*
X84133Y4545D01*
X84466Y4767D01*
X84818Y4971D01*
X85225Y5156D01*
X85244D01*
X85281Y5175D01*
X85337Y5193D01*
X85429Y5230D01*
X85540Y5267D01*
X85651Y5304D01*
X85800Y5341D01*
X85966Y5397D01*
X86355Y5471D01*
X86781Y5545D01*
X87262Y5601D01*
X87781Y5619D01*
X87966D01*
X88096Y5601D01*
D02*
G37*
%LPC*%
G36*
X995Y15801D02*
X165D01*
Y15761D01*
X-152D01*
Y15722D01*
X-389D01*
Y15682D01*
X-547D01*
Y15643D01*
X-705D01*
Y15603D01*
X-864D01*
Y15564D01*
X-982D01*
Y15524D01*
X-1061D01*
Y15485D01*
X-1180D01*
Y15445D01*
X-1298D01*
Y15406D01*
X-1377D01*
Y15366D01*
X-1457D01*
Y15326D01*
X-1536D01*
Y15287D01*
X-1615D01*
Y15247D01*
X-1694D01*
Y15208D01*
X-1773D01*
Y15168D01*
X-1852D01*
Y15129D01*
X-1931D01*
Y15089D01*
X-1971D01*
Y15050D01*
X-2050D01*
Y15010D01*
X-2089D01*
Y14971D01*
X-2168D01*
Y14931D01*
X-2247D01*
Y14892D01*
X-2287D01*
Y14852D01*
X-2326D01*
Y14813D01*
X-2406D01*
Y14773D01*
X-2445D01*
Y14733D01*
X-2524D01*
Y14694D01*
X-2564D01*
Y14654D01*
X-2603D01*
Y14615D01*
X-2682D01*
Y14575D01*
X-2722D01*
Y14536D01*
X-2761D01*
Y14496D01*
X-2801D01*
Y14457D01*
X-2841D01*
Y14417D01*
X-2920D01*
Y14377D01*
X-2959D01*
Y14338D01*
X-2999D01*
Y14298D01*
X-3038D01*
Y14259D01*
X-3117D01*
Y14219D01*
X-3157D01*
Y14180D01*
X-3196D01*
Y14140D01*
X-3236D01*
Y14101D01*
X-3275D01*
Y14061D01*
X-3315D01*
Y14022D01*
X-3355D01*
Y13982D01*
X-3394D01*
Y13943D01*
X-3434D01*
Y13903D01*
X-3473D01*
Y13864D01*
X-3513D01*
Y13824D01*
X-3552D01*
Y13784D01*
X-3592D01*
Y13745D01*
X-3631D01*
Y13705D01*
X-3671D01*
Y13666D01*
X-3711D01*
Y13626D01*
X-3750D01*
Y13587D01*
X-3789D01*
Y13547D01*
X-3829D01*
Y13508D01*
X-3869D01*
Y13468D01*
X-3908D01*
Y13428D01*
X-3948D01*
Y13389D01*
X-3987D01*
Y13310D01*
X-4027D01*
Y13270D01*
X-4066D01*
Y13231D01*
X-4106D01*
Y13191D01*
X-4145D01*
Y13152D01*
X-4185D01*
Y13112D01*
X-4225D01*
Y13033D01*
X-4264D01*
Y12994D01*
X-4304D01*
Y12954D01*
X-4343D01*
Y12915D01*
X-4383D01*
Y12835D01*
X-4422D01*
Y12796D01*
X-4462D01*
Y12717D01*
X-4501D01*
Y12677D01*
X-4541D01*
Y12638D01*
X-4580D01*
Y12559D01*
X-4620D01*
Y12519D01*
X-4659D01*
Y12440D01*
X-4699D01*
Y12400D01*
X-4739D01*
Y12321D01*
X-4778D01*
Y12282D01*
X-4818D01*
Y12203D01*
X-4857D01*
Y12163D01*
X-4897D01*
Y12084D01*
X-4936D01*
Y12005D01*
X-4976D01*
Y11966D01*
X-5015D01*
Y11887D01*
X-5055D01*
Y11807D01*
X-5094D01*
Y11728D01*
X-5134D01*
Y11649D01*
X-5173D01*
Y11610D01*
X-5213D01*
Y11531D01*
X-5253D01*
Y11451D01*
X-5292D01*
Y11372D01*
X-5332D01*
Y11293D01*
X-5371D01*
Y11175D01*
X-5411D01*
Y11096D01*
X-5450D01*
Y11017D01*
X-5490D01*
Y10898D01*
X-5529D01*
Y10819D01*
X-5569D01*
Y10700D01*
X-5608D01*
Y10621D01*
X-5648D01*
Y10503D01*
X-5688D01*
Y10384D01*
X-5727D01*
Y10265D01*
X-5767D01*
Y10147D01*
X-5806D01*
Y10028D01*
X-5846D01*
Y9870D01*
X-5885D01*
Y9712D01*
X-5925D01*
Y9593D01*
X-5964D01*
Y9395D01*
X-6004D01*
Y9198D01*
X-6043D01*
Y8921D01*
X-6083D01*
Y8565D01*
X-6122D01*
Y7814D01*
X-6162D01*
Y7260D01*
X-6122D01*
Y6509D01*
X-6083D01*
Y6074D01*
X-6043D01*
Y5758D01*
X-6004D01*
Y5520D01*
X-5964D01*
Y5323D01*
X-5925D01*
Y5125D01*
X-5885D01*
Y4927D01*
X-5846D01*
Y4769D01*
X-5806D01*
Y4611D01*
X-5767D01*
Y4453D01*
X-5727D01*
Y4334D01*
X-5688D01*
Y4176D01*
X-5648D01*
Y4057D01*
X-5608D01*
Y3899D01*
X-5569D01*
Y3781D01*
X-5529D01*
Y3662D01*
X-5490D01*
Y3543D01*
X-5450D01*
Y3425D01*
X-5411D01*
Y3306D01*
X-5371D01*
Y3187D01*
X-5332D01*
Y3069D01*
X-5292D01*
Y2990D01*
X-5253D01*
Y2871D01*
X-5213D01*
Y2792D01*
X-5173D01*
Y2673D01*
X-5134D01*
Y2555D01*
X-5094D01*
Y2476D01*
X-5055D01*
Y2397D01*
X-5015D01*
Y2278D01*
X-4976D01*
Y2199D01*
X-4936D01*
Y2120D01*
X-4897D01*
Y2001D01*
X-4857D01*
Y1922D01*
X-4818D01*
Y1843D01*
X-4778D01*
Y1764D01*
X-4739D01*
Y1685D01*
X-4699D01*
Y1606D01*
X-4659D01*
Y1527D01*
X-4620D01*
Y1448D01*
X-4580D01*
Y1369D01*
X-4541D01*
Y1289D01*
X-4501D01*
Y1210D01*
X-4462D01*
Y1131D01*
X-4422D01*
Y1052D01*
X-4383D01*
Y973D01*
X-4343D01*
Y894D01*
X-4304D01*
Y815D01*
X-4264D01*
Y776D01*
X-4225D01*
Y696D01*
X-4185D01*
Y617D01*
X-4145D01*
Y538D01*
X-4106D01*
Y499D01*
X-4066D01*
Y420D01*
X-4027D01*
Y340D01*
X-3987D01*
Y301D01*
X-3948D01*
Y222D01*
X-3908D01*
Y182D01*
X-3869D01*
Y103D01*
X-3829D01*
Y64D01*
X-3789D01*
Y-15D01*
X-3750D01*
Y-55D01*
X-3711D01*
Y-134D01*
X-3671D01*
Y-173D01*
X-3631D01*
Y-253D01*
X-3592D01*
Y-292D01*
X-3552D01*
Y-332D01*
X-3513D01*
Y-411D01*
X-3473D01*
Y-450D01*
X-3434D01*
Y-529D01*
X-3394D01*
Y-569D01*
X-3355D01*
Y-648D01*
X-3315D01*
Y-727D01*
X-3275D01*
Y-767D01*
X-3236D01*
Y-846D01*
X-3196D01*
Y-925D01*
X-3157D01*
Y-964D01*
X-3117D01*
Y-1043D01*
X-3078D01*
Y-1123D01*
X-3038D01*
Y-1201D01*
X-2999D01*
Y-1281D01*
X-2959D01*
Y-1360D01*
X-2920D01*
Y-1439D01*
X-2880D01*
Y-1557D01*
X-2841D01*
Y-1676D01*
X-2801D01*
Y-1795D01*
X-2761D01*
Y-1913D01*
X-2722D01*
Y-2032D01*
X-2682D01*
Y-2190D01*
X-2643D01*
Y-2348D01*
X-2603D01*
Y-2506D01*
X-2564D01*
Y-2665D01*
X-2524D01*
Y-2862D01*
X-2485D01*
Y-3060D01*
X-2445D01*
Y-3297D01*
X-2406D01*
Y-3535D01*
X-2366D01*
Y-3772D01*
X-2326D01*
Y-4049D01*
X-2287D01*
Y-4365D01*
X-2247D01*
Y-4681D01*
X-2208D01*
Y-5037D01*
X-2168D01*
Y-5393D01*
X-2129D01*
Y-5867D01*
X-2089D01*
Y-6302D01*
X-2050D01*
Y-6816D01*
X-2010D01*
Y-7370D01*
X-1971D01*
Y-7765D01*
Y-7805D01*
Y-7963D01*
X-1931D01*
Y-8556D01*
X-1892D01*
Y-9149D01*
X-1852D01*
Y-9742D01*
X-1813D01*
Y-10296D01*
X-1773D01*
Y-10810D01*
X-1733D01*
Y-11324D01*
X-1694D01*
Y-11798D01*
X-1654D01*
Y-12273D01*
X-1615D01*
Y-12668D01*
X-1575D01*
Y-13064D01*
X-1536D01*
Y-13420D01*
X-1496D01*
Y-13776D01*
X-1457D01*
Y-14052D01*
X-1417D01*
Y-14369D01*
X-1377D01*
Y-14645D01*
X-1338D01*
Y-14883D01*
X-1298D01*
Y-15159D01*
X-1259D01*
Y-15357D01*
X-1219D01*
Y-15594D01*
X-1180D01*
Y-15792D01*
X-1140D01*
Y-15990D01*
X-1101D01*
Y-16148D01*
X-1061D01*
Y-16346D01*
X-1022D01*
Y-16504D01*
X-982D01*
Y-16623D01*
X-943D01*
Y-16781D01*
X-903D01*
Y-16899D01*
X-864D01*
Y-17018D01*
X-824D01*
Y-17136D01*
X-784D01*
Y-17255D01*
X-745D01*
Y-17334D01*
X-705D01*
Y-17453D01*
X-666D01*
Y-17532D01*
X-626D01*
Y-17611D01*
X-587D01*
Y-17651D01*
X-547D01*
Y-17730D01*
X-508D01*
Y-17769D01*
X-468D01*
Y-17809D01*
X-428D01*
Y-17888D01*
X-349D01*
Y-17927D01*
X-310D01*
Y-17967D01*
X-231D01*
Y-18006D01*
X6D01*
Y-17967D01*
X86D01*
Y-17927D01*
X125D01*
Y-17888D01*
X165D01*
Y-17848D01*
X204D01*
Y-17809D01*
X244D01*
Y-17769D01*
X283D01*
Y-17690D01*
X323D01*
Y-17651D01*
X362D01*
Y-17572D01*
X402D01*
Y-17532D01*
X441D01*
Y-17453D01*
X481D01*
Y-17374D01*
X520D01*
Y-17295D01*
X560D01*
Y-17216D01*
X600D01*
Y-17136D01*
X639D01*
Y-17018D01*
X679D01*
Y-16939D01*
X718D01*
Y-16820D01*
X758D01*
Y-16702D01*
X797D01*
Y-16583D01*
X837D01*
Y-16504D01*
X876D01*
Y-16346D01*
X916D01*
Y-16227D01*
X955D01*
Y-16108D01*
X995D01*
Y-15950D01*
X1034D01*
Y-15832D01*
X1074D01*
Y-15674D01*
X1113D01*
Y-15515D01*
X1153D01*
Y-15357D01*
X1193D01*
Y-15199D01*
X1232D01*
Y-15001D01*
X1272D01*
Y-14843D01*
X1311D01*
Y-14685D01*
X1351D01*
Y-14487D01*
X1390D01*
Y-14290D01*
X1430D01*
Y-14131D01*
X1469D01*
Y-13934D01*
X1509D01*
Y-13736D01*
X1549D01*
Y-13538D01*
X1588D01*
Y-13380D01*
X1628D01*
Y-13182D01*
X1667D01*
Y-12985D01*
X1707D01*
Y-12787D01*
X1746D01*
Y-12589D01*
X1786D01*
Y-12392D01*
X1825D01*
Y-12194D01*
X1865D01*
Y-12036D01*
X1904D01*
Y-11838D01*
X1944D01*
Y-11640D01*
X1983D01*
Y-11443D01*
X2023D01*
Y-11285D01*
X2062D01*
Y-11087D01*
X2102D01*
Y-10929D01*
X2142D01*
Y-10731D01*
X2181D01*
Y-10573D01*
X2221D01*
Y-10415D01*
X2260D01*
Y-10256D01*
X2300D01*
Y-10098D01*
X2339D01*
Y-9940D01*
X2379D01*
Y-9782D01*
X2418D01*
Y-9624D01*
X2458D01*
Y-9466D01*
X2498D01*
Y-9307D01*
X2537D01*
Y-9149D01*
X2577D01*
Y-9031D01*
X2616D01*
Y-8873D01*
X2656D01*
Y-8754D01*
X2695D01*
Y-8635D01*
X2735D01*
Y-8517D01*
X2774D01*
Y-8359D01*
X2814D01*
Y-8240D01*
X2853D01*
Y-8121D01*
X2893D01*
Y-8003D01*
X2932D01*
Y-7923D01*
X2972D01*
Y-7805D01*
X3011D01*
Y-7686D01*
X3051D01*
Y-7607D01*
X3091D01*
Y-7489D01*
X3130D01*
Y-7409D01*
X3170D01*
Y-7291D01*
X3209D01*
Y-7212D01*
X3249D01*
Y-7133D01*
X3288D01*
Y-7054D01*
X3328D01*
Y-6974D01*
X3367D01*
Y-6895D01*
X3407D01*
Y-6777D01*
X3446D01*
Y-6698D01*
X3486D01*
Y-6658D01*
X3525D01*
Y-6579D01*
X3565D01*
Y-6500D01*
X3605D01*
Y-6421D01*
X3644D01*
Y-6342D01*
X3684D01*
Y-6302D01*
X3723D01*
Y-6223D01*
X3763D01*
Y-6144D01*
X3802D01*
Y-6105D01*
X3842D01*
Y-6026D01*
X3881D01*
Y-5986D01*
X3921D01*
Y-5907D01*
X3961D01*
Y-5867D01*
X4000D01*
Y-5828D01*
X4040D01*
Y-5749D01*
X4079D01*
Y-5709D01*
X4119D01*
Y-5630D01*
X4158D01*
Y-5591D01*
X4198D01*
Y-5551D01*
X4237D01*
Y-5512D01*
X4277D01*
Y-5472D01*
X4316D01*
Y-5393D01*
X4356D01*
Y-5353D01*
X4395D01*
Y-5314D01*
X4435D01*
Y-5274D01*
X4475D01*
Y-5235D01*
X4514D01*
Y-5195D01*
X4554D01*
Y-5156D01*
X4593D01*
Y-5116D01*
X4633D01*
Y-5077D01*
X4672D01*
Y-5037D01*
X4751D01*
Y-4997D01*
X4791D01*
Y-4958D01*
X4830D01*
Y-4918D01*
X4870D01*
Y-4879D01*
X4909D01*
Y-4839D01*
X4988D01*
Y-4800D01*
X5028D01*
Y-4760D01*
X5107D01*
Y-4721D01*
X5147D01*
Y-4681D01*
X5186D01*
Y-4642D01*
X5265D01*
Y-4602D01*
X5344D01*
Y-4563D01*
X5384D01*
Y-4523D01*
X5463D01*
Y-4483D01*
X5542D01*
Y-4444D01*
X5621D01*
Y-4404D01*
X5700D01*
Y-4365D01*
X5819D01*
Y-4325D01*
X5898D01*
Y-4286D01*
X5977D01*
Y-4246D01*
X6096D01*
Y-4207D01*
X6214D01*
Y-4167D01*
X6373D01*
Y-4128D01*
X6531D01*
Y-4088D01*
X6768D01*
Y-4049D01*
X7163D01*
Y-4009D01*
X7519D01*
Y-4049D01*
X7954D01*
Y-4088D01*
X8191D01*
Y-4128D01*
X8389D01*
Y-4167D01*
X8547D01*
Y-4207D01*
X8666D01*
Y-4246D01*
X8784D01*
Y-4286D01*
X8903D01*
Y-4325D01*
X9022D01*
Y-4365D01*
X9101D01*
Y-4404D01*
X9180D01*
Y-4444D01*
X9259D01*
Y-4483D01*
X9338D01*
Y-4523D01*
X9417D01*
Y-4563D01*
X9496D01*
Y-4602D01*
X9575D01*
Y-4642D01*
X9615D01*
Y-4681D01*
X9694D01*
Y-4721D01*
X9733D01*
Y-4760D01*
X9773D01*
Y-4800D01*
X9852D01*
Y-4839D01*
X9892D01*
Y-4879D01*
X9931D01*
Y-4918D01*
X9971D01*
Y-4958D01*
X10010D01*
Y-4997D01*
X10089D01*
Y-5037D01*
X10129D01*
Y-5077D01*
X10168D01*
Y-5116D01*
X10208D01*
Y-5156D01*
X10247D01*
Y-5195D01*
X10287D01*
Y-5274D01*
X10326D01*
Y-5314D01*
X10366D01*
Y-5353D01*
X10406D01*
Y-5393D01*
X10445D01*
Y-5432D01*
X10485D01*
Y-5512D01*
X10524D01*
Y-5551D01*
X10564D01*
Y-5591D01*
X10603D01*
Y-5670D01*
X10643D01*
Y-5709D01*
X10682D01*
Y-5788D01*
X10722D01*
Y-5867D01*
X10761D01*
Y-5907D01*
X10801D01*
Y-5986D01*
X10841D01*
Y-6065D01*
X10880D01*
Y-6144D01*
X10920D01*
Y-6223D01*
X10959D01*
Y-6342D01*
X10999D01*
Y-6421D01*
X11038D01*
Y-6500D01*
X11078D01*
Y-6619D01*
X11117D01*
Y-6737D01*
X11157D01*
Y-6856D01*
X11196D01*
Y-6974D01*
X11236D01*
Y-7133D01*
X11276D01*
Y-7291D01*
X11315D01*
Y-7489D01*
X11355D01*
Y-7686D01*
X11394D01*
Y-7923D01*
X11434D01*
Y-8359D01*
X11473D01*
Y-10454D01*
X11434D01*
Y-11166D01*
X11394D01*
Y-11680D01*
X11355D01*
Y-12115D01*
X11315D01*
Y-12550D01*
X11276D01*
Y-12906D01*
X11236D01*
Y-13222D01*
X11196D01*
Y-13578D01*
X11157D01*
Y-13894D01*
X11117D01*
Y-14250D01*
X11078D01*
Y-14645D01*
X11038D01*
Y-15041D01*
X10999D01*
Y-15515D01*
X10959D01*
Y-16108D01*
X10920D01*
Y-16899D01*
X10880D01*
Y-17809D01*
X10920D01*
Y-18046D01*
X10959D01*
Y-18086D01*
X11117D01*
Y-18046D01*
X11196D01*
Y-18006D01*
X11276D01*
Y-17967D01*
X11355D01*
Y-17927D01*
X11394D01*
Y-17888D01*
X11434D01*
Y-17848D01*
X11513D01*
Y-17809D01*
X11552D01*
Y-17769D01*
X11592D01*
Y-17730D01*
X11631D01*
Y-17690D01*
X11710D01*
Y-17651D01*
X11750D01*
Y-17611D01*
X11790D01*
Y-17572D01*
X11829D01*
Y-17532D01*
X11869D01*
Y-17492D01*
X11908D01*
Y-17453D01*
X11948D01*
Y-17413D01*
X11987D01*
Y-17374D01*
X12027D01*
Y-17334D01*
X12066D01*
Y-17295D01*
X12106D01*
Y-17255D01*
X12145D01*
Y-17176D01*
X12185D01*
Y-17136D01*
X12225D01*
Y-17097D01*
X12264D01*
Y-17057D01*
X12304D01*
Y-17018D01*
X12343D01*
Y-16939D01*
X12383D01*
Y-16899D01*
X12422D01*
Y-16860D01*
X12462D01*
Y-16820D01*
X12501D01*
Y-16741D01*
X12541D01*
Y-16702D01*
X12580D01*
Y-16623D01*
X12620D01*
Y-16583D01*
X12659D01*
Y-16543D01*
X12699D01*
Y-16464D01*
X12738D01*
Y-16425D01*
X12778D01*
Y-16346D01*
X12818D01*
Y-16306D01*
X12857D01*
Y-16227D01*
X12897D01*
Y-16187D01*
X12936D01*
Y-16108D01*
X12976D01*
Y-16029D01*
X13015D01*
Y-15990D01*
X13055D01*
Y-15911D01*
X13094D01*
Y-15871D01*
X13134D01*
Y-15792D01*
X13174D01*
Y-15713D01*
X13213D01*
Y-15674D01*
X13253D01*
Y-15594D01*
X13292D01*
Y-15515D01*
X13332D01*
Y-15436D01*
X13371D01*
Y-15397D01*
X13411D01*
Y-15318D01*
X13450D01*
Y-15239D01*
X13490D01*
Y-15159D01*
X13529D01*
Y-15080D01*
X13569D01*
Y-15001D01*
X13608D01*
Y-14962D01*
X13648D01*
Y-14883D01*
X13687D01*
Y-14804D01*
X13727D01*
Y-14725D01*
X13767D01*
Y-14645D01*
X13806D01*
Y-14566D01*
X13846D01*
Y-14487D01*
X13885D01*
Y-14408D01*
X13925D01*
Y-14329D01*
X13964D01*
Y-14250D01*
X14004D01*
Y-14171D01*
X14043D01*
Y-14092D01*
X14083D01*
Y-14013D01*
X14123D01*
Y-13934D01*
X14162D01*
Y-13855D01*
X14202D01*
Y-13776D01*
X14241D01*
Y-13696D01*
X14281D01*
Y-13578D01*
X14320D01*
Y-13499D01*
X14360D01*
Y-13420D01*
X14399D01*
Y-13341D01*
X14439D01*
Y-13261D01*
X14478D01*
Y-13182D01*
X14518D01*
Y-13064D01*
X14557D01*
Y-12985D01*
X14597D01*
Y-12906D01*
X14636D01*
Y-12787D01*
X14676D01*
Y-12708D01*
X14716D01*
Y-12629D01*
X14755D01*
Y-12510D01*
X14795D01*
Y-12431D01*
X14834D01*
Y-12352D01*
X14874D01*
Y-12234D01*
X14913D01*
Y-12154D01*
X14953D01*
Y-12075D01*
X14992D01*
Y-11957D01*
X15032D01*
Y-11878D01*
X15071D01*
Y-11759D01*
X15111D01*
Y-11680D01*
X15151D01*
Y-11561D01*
X15190D01*
Y-11482D01*
X15230D01*
Y-11364D01*
X15269D01*
Y-11285D01*
X15309D01*
Y-11166D01*
X15348D01*
Y-11047D01*
X15388D01*
Y-10968D01*
X15427D01*
Y-10849D01*
X15467D01*
Y-10731D01*
X15506D01*
Y-10652D01*
X15546D01*
Y-10533D01*
X15586D01*
Y-10415D01*
X15625D01*
Y-10336D01*
X15665D01*
Y-10217D01*
X15704D01*
Y-10098D01*
X15744D01*
Y-9980D01*
X15783D01*
Y-9901D01*
X15823D01*
Y-9782D01*
X15862D01*
Y-9663D01*
X15902D01*
Y-9545D01*
X15941D01*
Y-9426D01*
X15981D01*
Y-9307D01*
X16020D01*
Y-9189D01*
X16060D01*
Y-9070D01*
X16099D01*
Y-8952D01*
X16139D01*
Y-8833D01*
X16179D01*
Y-8714D01*
X16218D01*
Y-8596D01*
X16258D01*
Y-8477D01*
X16297D01*
Y-8359D01*
X16337D01*
Y-8240D01*
X16376D01*
Y-8121D01*
X16416D01*
Y-8003D01*
X16455D01*
Y-7844D01*
X16495D01*
Y-7726D01*
X16535D01*
Y-7607D01*
X16574D01*
Y-7489D01*
X16614D01*
Y-7330D01*
X16653D01*
Y-7212D01*
X16693D01*
Y-7093D01*
X16732D01*
Y-6935D01*
X16772D01*
Y-6816D01*
X16811D01*
Y-6658D01*
X16851D01*
Y-6540D01*
X16890D01*
Y-6381D01*
X16930D01*
Y-6223D01*
X16969D01*
Y-6105D01*
X17009D01*
Y-5946D01*
X17048D01*
Y-5788D01*
X17088D01*
Y-5670D01*
X17128D01*
Y-5512D01*
X17167D01*
Y-5353D01*
X17207D01*
Y-5195D01*
X17246D01*
Y-5037D01*
X17286D01*
Y-4879D01*
X17325D01*
Y-4721D01*
X17365D01*
Y-4523D01*
X17404D01*
Y-4365D01*
X17444D01*
Y-4207D01*
X17483D01*
Y-4049D01*
X17523D01*
Y-3890D01*
X17563D01*
Y-3732D01*
X17602D01*
Y-3574D01*
X17642D01*
Y-3455D01*
X17681D01*
Y-3297D01*
X17721D01*
Y-3179D01*
X17760D01*
Y-3060D01*
X17800D01*
Y-2981D01*
X17839D01*
Y-2902D01*
X17879D01*
Y-2862D01*
X17918D01*
Y-2823D01*
X17958D01*
Y-2783D01*
X17997D01*
Y-2744D01*
X18037D01*
Y-2704D01*
X18076D01*
Y-2665D01*
X18116D01*
Y-2625D01*
X18195D01*
Y-2585D01*
X18235D01*
Y-2546D01*
X18274D01*
Y-2506D01*
X18314D01*
Y-2467D01*
X18393D01*
Y-2427D01*
X18432D01*
Y-2388D01*
X18472D01*
Y-2348D01*
X18512D01*
Y-2309D01*
X18591D01*
Y-2269D01*
X18630D01*
Y-2230D01*
X18670D01*
Y-2190D01*
X18749D01*
Y-2150D01*
X18788D01*
Y-2111D01*
X18828D01*
Y-2071D01*
X18867D01*
Y-2032D01*
X18907D01*
Y-1992D01*
X18986D01*
Y-1953D01*
X19025D01*
Y-1913D01*
X19065D01*
Y-1874D01*
X19105D01*
Y-1834D01*
X19144D01*
Y-1795D01*
X19184D01*
Y-1755D01*
X19223D01*
Y-1716D01*
X19302D01*
Y-1676D01*
X19342D01*
Y-1637D01*
X19381D01*
Y-1597D01*
X19421D01*
Y-1557D01*
X19461D01*
Y-1518D01*
X19500D01*
Y-1478D01*
X19540D01*
Y-1439D01*
X19579D01*
Y-1399D01*
X19619D01*
Y-1360D01*
X19658D01*
Y-1320D01*
X19698D01*
Y-1281D01*
X19737D01*
Y-1241D01*
X19777D01*
Y-1201D01*
X19816D01*
Y-1162D01*
X19856D01*
Y-1123D01*
X19895D01*
Y-1083D01*
X19935D01*
Y-1043D01*
X19974D01*
Y-964D01*
X20014D01*
Y-925D01*
X20054D01*
Y-885D01*
X20093D01*
Y-846D01*
X20133D01*
Y-806D01*
X20172D01*
Y-767D01*
X20212D01*
Y-727D01*
X20251D01*
Y-648D01*
X20291D01*
Y-608D01*
X20330D01*
Y-569D01*
X20370D01*
Y-529D01*
X20410D01*
Y-490D01*
X20449D01*
Y-411D01*
X20489D01*
Y-371D01*
X20528D01*
Y-332D01*
X20568D01*
Y-253D01*
X20607D01*
Y-213D01*
X20647D01*
Y-173D01*
X20686D01*
Y-94D01*
X20726D01*
Y-55D01*
X20765D01*
Y-15D01*
X20805D01*
Y64D01*
X20844D01*
Y103D01*
X20884D01*
Y182D01*
X20924D01*
Y222D01*
X20963D01*
Y301D01*
X21003D01*
Y340D01*
X21042D01*
Y420D01*
X21082D01*
Y459D01*
X21121D01*
Y538D01*
X21161D01*
Y578D01*
X21200D01*
Y657D01*
X21240D01*
Y736D01*
X21279D01*
Y776D01*
X21319D01*
Y855D01*
X21358D01*
Y934D01*
X21398D01*
Y1013D01*
X21437D01*
Y1052D01*
X21477D01*
Y1131D01*
X21517D01*
Y1210D01*
X21556D01*
Y1289D01*
X21596D01*
Y1369D01*
X21635D01*
Y1448D01*
X21675D01*
Y1527D01*
X21714D01*
Y1606D01*
X21754D01*
Y1685D01*
X21793D01*
Y1764D01*
X21833D01*
Y1883D01*
X21872D01*
Y1962D01*
X21912D01*
Y2041D01*
X21951D01*
Y2159D01*
X21991D01*
Y2238D01*
X22031D01*
Y2357D01*
X22070D01*
Y2436D01*
X22110D01*
Y2555D01*
X22149D01*
Y2673D01*
X22189D01*
Y2792D01*
X22228D01*
Y2911D01*
X22268D01*
Y3029D01*
X22307D01*
Y3187D01*
X22347D01*
Y3306D01*
X22387D01*
Y3464D01*
X22426D01*
Y3622D01*
X22466D01*
Y3820D01*
X22505D01*
Y3978D01*
X22545D01*
Y4216D01*
X22584D01*
Y4453D01*
X22624D01*
Y4769D01*
X22663D01*
Y5204D01*
X22703D01*
Y6351D01*
X22663D01*
Y6786D01*
X22624D01*
Y7102D01*
X22584D01*
Y7339D01*
X22545D01*
Y7577D01*
X22505D01*
Y7774D01*
X22466D01*
Y7932D01*
X22426D01*
Y8091D01*
X22387D01*
Y8288D01*
X22347D01*
Y8407D01*
X22307D01*
Y8565D01*
X22268D01*
Y8684D01*
X22228D01*
Y8802D01*
X22189D01*
Y8960D01*
X22149D01*
Y9039D01*
X22110D01*
Y9158D01*
X22070D01*
Y9277D01*
X22031D01*
Y9395D01*
X21991D01*
Y9474D01*
X21951D01*
Y9593D01*
X21912D01*
Y9672D01*
X21872D01*
Y9751D01*
X21833D01*
Y9870D01*
X21793D01*
Y9949D01*
X21754D01*
Y10028D01*
X21714D01*
Y10107D01*
X21675D01*
Y10186D01*
X21635D01*
Y10305D01*
X21596D01*
Y10384D01*
X21556D01*
Y10423D01*
X21517D01*
Y10503D01*
X21477D01*
Y10582D01*
X21437D01*
Y10661D01*
X21398D01*
Y10740D01*
X21358D01*
Y10819D01*
X21319D01*
Y10898D01*
X21279D01*
Y10938D01*
X21240D01*
Y11017D01*
X21200D01*
Y11096D01*
X21161D01*
Y11135D01*
X21121D01*
Y11214D01*
X21082D01*
Y11293D01*
X21042D01*
Y11333D01*
X21003D01*
Y11412D01*
X20963D01*
Y11491D01*
X20924D01*
Y11531D01*
X20884D01*
Y11610D01*
X20844D01*
Y11649D01*
X20805D01*
Y11728D01*
X20765D01*
Y11768D01*
X20726D01*
Y11847D01*
X20686D01*
Y11887D01*
X20647D01*
Y11966D01*
X20607D01*
Y12005D01*
X20568D01*
Y12045D01*
X20528D01*
Y12124D01*
X20489D01*
Y12163D01*
X20449D01*
Y12242D01*
X20410D01*
Y12282D01*
X20370D01*
Y12321D01*
X20330D01*
Y12400D01*
X20291D01*
Y12440D01*
X20251D01*
Y12480D01*
X20212D01*
Y12559D01*
X20172D01*
Y12598D01*
X20133D01*
Y12638D01*
X20093D01*
Y12677D01*
X20054D01*
Y12756D01*
X20014D01*
Y12796D01*
X19974D01*
Y12835D01*
X19935D01*
Y12875D01*
X19895D01*
Y12954D01*
X19856D01*
Y12994D01*
X19816D01*
Y13033D01*
X19777D01*
Y13073D01*
X19737D01*
Y13112D01*
X19698D01*
Y13152D01*
X19658D01*
Y13191D01*
X19619D01*
Y13231D01*
X19579D01*
Y13310D01*
X19540D01*
Y13349D01*
X19500D01*
Y13389D01*
X19461D01*
Y13428D01*
X19421D01*
Y13468D01*
X19381D01*
Y13508D01*
X19342D01*
Y13547D01*
X19302D01*
Y13587D01*
X19223D01*
Y13626D01*
X19184D01*
Y13666D01*
X19144D01*
Y13705D01*
X19105D01*
Y13745D01*
X19065D01*
Y13784D01*
X19025D01*
Y13824D01*
X18986D01*
Y13864D01*
X18907D01*
Y13903D01*
X18867D01*
Y13943D01*
X18828D01*
Y13982D01*
X18749D01*
Y14022D01*
X18709D01*
Y14061D01*
X18670D01*
Y14101D01*
X18591D01*
Y14140D01*
X18551D01*
Y14180D01*
X18472D01*
Y14219D01*
X18393D01*
Y14259D01*
X18353D01*
Y14298D01*
X18274D01*
Y14338D01*
X18195D01*
Y14377D01*
X18116D01*
Y14417D01*
X18037D01*
Y14457D01*
X17958D01*
Y14496D01*
X17879D01*
Y14536D01*
X17760D01*
Y14575D01*
X17642D01*
Y14615D01*
X17563D01*
Y14654D01*
X17444D01*
Y14694D01*
X17286D01*
Y14733D01*
X17167D01*
Y14773D01*
X17009D01*
Y14813D01*
X16811D01*
Y14852D01*
X16614D01*
Y14892D01*
X16297D01*
Y14931D01*
X14795D01*
Y14892D01*
X14399D01*
Y14852D01*
X14083D01*
Y14813D01*
X13846D01*
Y14773D01*
X13608D01*
Y14733D01*
X13450D01*
Y14694D01*
X13253D01*
Y14654D01*
X13094D01*
Y14615D01*
X12976D01*
Y14575D01*
X12818D01*
Y14536D01*
X12699D01*
Y14496D01*
X12541D01*
Y14457D01*
X12422D01*
Y14417D01*
X12304D01*
Y14377D01*
X12185D01*
Y14338D01*
X12066D01*
Y14298D01*
X11908D01*
Y14259D01*
X11790D01*
Y14219D01*
X11710D01*
Y14180D01*
X11592D01*
Y14140D01*
X11473D01*
Y14101D01*
X11355D01*
Y14061D01*
X11236D01*
Y14022D01*
X11117D01*
Y13982D01*
X11038D01*
Y13943D01*
X10920D01*
Y13903D01*
X10841D01*
Y13864D01*
X10761D01*
Y13824D01*
X10682D01*
Y13784D01*
X10643D01*
Y13745D01*
X10682D01*
Y13705D01*
X10722D01*
Y13666D01*
X10761D01*
Y13626D01*
X10801D01*
Y13587D01*
X10841D01*
Y13547D01*
X10880D01*
Y13508D01*
X10920D01*
Y13468D01*
X10959D01*
Y13428D01*
X11038D01*
Y13389D01*
X11078D01*
Y13349D01*
X11117D01*
Y13310D01*
X11157D01*
Y13270D01*
X11196D01*
Y13231D01*
X11276D01*
Y13191D01*
X11315D01*
Y13152D01*
X11355D01*
Y13112D01*
X11394D01*
Y13073D01*
X11434D01*
Y13033D01*
X11473D01*
Y12994D01*
X11552D01*
Y12954D01*
X11592D01*
Y12915D01*
X11631D01*
Y12875D01*
X11671D01*
Y12835D01*
X11710D01*
Y12796D01*
X11750D01*
Y12756D01*
X11790D01*
Y12717D01*
X11829D01*
Y12677D01*
X11908D01*
Y12638D01*
X11948D01*
Y12598D01*
X11987D01*
Y12559D01*
X12027D01*
Y12519D01*
X12066D01*
Y12480D01*
X12106D01*
Y12440D01*
X12145D01*
Y12400D01*
X12185D01*
Y12361D01*
X12225D01*
Y12321D01*
X12264D01*
Y12282D01*
X12304D01*
Y12242D01*
X12343D01*
Y12203D01*
X12383D01*
Y12163D01*
X12422D01*
Y12124D01*
X12462D01*
Y12084D01*
X12501D01*
Y12045D01*
X12541D01*
Y12005D01*
X12580D01*
Y11966D01*
X12620D01*
Y11926D01*
X12659D01*
Y11887D01*
X12699D01*
Y11847D01*
X12738D01*
Y11807D01*
X12778D01*
Y11768D01*
X12818D01*
Y11728D01*
X12857D01*
Y11689D01*
X12897D01*
Y11649D01*
X12936D01*
Y11610D01*
X12976D01*
Y11531D01*
X13015D01*
Y11451D01*
X13055D01*
Y11372D01*
X13094D01*
Y10977D01*
X13134D01*
Y10819D01*
X13094D01*
Y10542D01*
X13055D01*
Y10423D01*
X13015D01*
Y10344D01*
X12976D01*
Y10265D01*
X12936D01*
Y10226D01*
X12897D01*
Y10147D01*
X12857D01*
Y10107D01*
X12818D01*
Y10068D01*
X12738D01*
Y10028D01*
X12699D01*
Y9988D01*
X12659D01*
Y9949D01*
X12580D01*
Y9909D01*
X12501D01*
Y9870D01*
X12422D01*
Y9830D01*
X12304D01*
Y9791D01*
X12066D01*
Y9751D01*
X11631D01*
Y9791D01*
X11473D01*
Y9830D01*
X11394D01*
Y9870D01*
X11315D01*
Y9909D01*
X11276D01*
Y9949D01*
X11236D01*
Y9988D01*
X11157D01*
Y10028D01*
X11117D01*
Y10068D01*
X11078D01*
Y10107D01*
X11038D01*
Y10147D01*
X10999D01*
Y10186D01*
X10920D01*
Y10226D01*
X10880D01*
Y10265D01*
X10841D01*
Y10305D01*
X10801D01*
Y10344D01*
X10761D01*
Y10384D01*
X10722D01*
Y10423D01*
X10682D01*
Y10463D01*
X10603D01*
Y10503D01*
X10564D01*
Y10542D01*
X10524D01*
Y10582D01*
X10485D01*
Y10621D01*
X10445D01*
Y10661D01*
X10406D01*
Y10700D01*
X10366D01*
Y10740D01*
X10326D01*
Y10779D01*
X10247D01*
Y10819D01*
X10208D01*
Y10858D01*
X10168D01*
Y10898D01*
X10129D01*
Y10938D01*
X10089D01*
Y10977D01*
X10050D01*
Y11017D01*
X10010D01*
Y11056D01*
X9971D01*
Y11096D01*
X9892D01*
Y11135D01*
X9852D01*
Y11175D01*
X9812D01*
Y11214D01*
X9773D01*
Y11254D01*
X9733D01*
Y11293D01*
X9654D01*
Y11333D01*
X9615D01*
Y11372D01*
X9575D01*
Y11412D01*
X9536D01*
Y11451D01*
X9496D01*
Y11491D01*
X9457D01*
Y11531D01*
X9378D01*
Y11570D01*
X9338D01*
Y11610D01*
X9298D01*
Y11649D01*
X9259D01*
Y11689D01*
X9219D01*
Y11728D01*
X9140D01*
Y11768D01*
X9101D01*
Y11807D01*
X9061D01*
Y11847D01*
X9022D01*
Y11887D01*
X8943D01*
Y11926D01*
X8903D01*
Y11966D01*
X8863D01*
Y12005D01*
X8824D01*
Y12045D01*
X8745D01*
Y12084D01*
X8705D01*
Y12124D01*
X8666D01*
Y12163D01*
X8587D01*
Y12203D01*
X8547D01*
Y12242D01*
X8508D01*
Y12282D01*
X8429D01*
Y12321D01*
X8389D01*
Y12361D01*
X8349D01*
Y12400D01*
X8310D01*
Y12440D01*
X8231D01*
Y12480D01*
X8191D01*
Y12519D01*
X8152D01*
Y12559D01*
X8073D01*
Y12598D01*
X8033D01*
Y12638D01*
X7954D01*
Y12677D01*
X7915D01*
Y12717D01*
X7875D01*
Y12756D01*
X7796D01*
Y12796D01*
X7756D01*
Y12835D01*
X7677D01*
Y12875D01*
X7638D01*
Y12915D01*
X7598D01*
Y12954D01*
X7519D01*
Y12994D01*
X7480D01*
Y13033D01*
X7401D01*
Y13073D01*
X7361D01*
Y13112D01*
X7282D01*
Y13152D01*
X7242D01*
Y13191D01*
X7203D01*
Y13231D01*
X7124D01*
Y13270D01*
X7084D01*
Y13310D01*
X7005D01*
Y13349D01*
X6966D01*
Y13389D01*
X6887D01*
Y13428D01*
X6807D01*
Y13468D01*
X6768D01*
Y13508D01*
X6689D01*
Y13547D01*
X6649D01*
Y13587D01*
X6570D01*
Y13626D01*
X6531D01*
Y13666D01*
X6452D01*
Y13705D01*
X6373D01*
Y13745D01*
X6333D01*
Y13784D01*
X6254D01*
Y13824D01*
X6175D01*
Y13864D01*
X6135D01*
Y13903D01*
X6056D01*
Y13943D01*
X5977D01*
Y13982D01*
X5938D01*
Y14022D01*
X5858D01*
Y14061D01*
X5779D01*
Y14101D01*
X5740D01*
Y14140D01*
X5661D01*
Y14180D01*
X5582D01*
Y14219D01*
X5503D01*
Y14259D01*
X5423D01*
Y14298D01*
X5384D01*
Y14338D01*
X5305D01*
Y14377D01*
X5226D01*
Y14417D01*
X5147D01*
Y14457D01*
X5068D01*
Y14496D01*
X4988D01*
Y14536D01*
X4909D01*
Y14575D01*
X4830D01*
Y14615D01*
X4751D01*
Y14654D01*
X4672D01*
Y14694D01*
X4593D01*
Y14733D01*
X4514D01*
Y14773D01*
X4435D01*
Y14813D01*
X4356D01*
Y14852D01*
X4277D01*
Y14892D01*
X4158D01*
Y14931D01*
X4079D01*
Y14971D01*
X4000D01*
Y15010D01*
X3881D01*
Y15050D01*
X3802D01*
Y15089D01*
X3723D01*
Y15129D01*
X3605D01*
Y15168D01*
X3525D01*
Y15208D01*
X3407D01*
Y15247D01*
X3288D01*
Y15287D01*
X3170D01*
Y15326D01*
X3051D01*
Y15366D01*
X2932D01*
Y15406D01*
X2814D01*
Y15445D01*
X2695D01*
Y15485D01*
X2577D01*
Y15524D01*
X2418D01*
Y15564D01*
X2260D01*
Y15603D01*
X2102D01*
Y15643D01*
X1904D01*
Y15682D01*
X1667D01*
Y15722D01*
X1390D01*
Y15761D01*
X995D01*
Y15801D01*
D02*
G37*
G36*
X86291Y-12490D02*
X84488D01*
X84118Y-14635D01*
X85321D01*
X85487Y-14626D01*
X85662D01*
X85838Y-14607D01*
X85995Y-14598D01*
X86060Y-14589D01*
X86116Y-14579D01*
X86125D01*
X86162Y-14570D01*
X86217Y-14552D01*
X86282Y-14533D01*
X86365Y-14496D01*
X86448Y-14459D01*
X86532Y-14413D01*
X86615Y-14358D01*
X86624Y-14348D01*
X86652Y-14330D01*
X86689Y-14284D01*
X86735Y-14237D01*
X86791Y-14173D01*
X86846Y-14099D01*
X86902Y-14016D01*
X86948Y-13923D01*
X86957Y-13914D01*
X86966Y-13877D01*
X86985Y-13821D01*
X87012Y-13747D01*
X87040Y-13664D01*
X87059Y-13563D01*
X87068Y-13451D01*
X87077Y-13331D01*
Y-13322D01*
Y-13285D01*
X87068Y-13230D01*
Y-13165D01*
X87031Y-13008D01*
X87003Y-12924D01*
X86966Y-12851D01*
Y-12841D01*
X86948Y-12814D01*
X86929Y-12786D01*
X86892Y-12740D01*
X86818Y-12647D01*
X86763Y-12610D01*
X86707Y-12573D01*
X86698D01*
X86680Y-12564D01*
X86633Y-12545D01*
X86578Y-12527D01*
X86504Y-12518D01*
X86411Y-12499D01*
X86291Y-12490D01*
D02*
G37*
G36*
X63344D02*
Y-12499D01*
X63334Y-12518D01*
X63325Y-12545D01*
X63307Y-12582D01*
X63288Y-12638D01*
X63270Y-12703D01*
X63242Y-12777D01*
X63214Y-12860D01*
X63140Y-13045D01*
X63048Y-13267D01*
X62946Y-13516D01*
X62826Y-13784D01*
X61975Y-15661D01*
X63686D01*
X63492Y-14071D01*
Y-14062D01*
X63482Y-14025D01*
Y-13979D01*
X63473Y-13914D01*
X63464Y-13831D01*
X63455Y-13738D01*
X63436Y-13636D01*
X63427Y-13516D01*
X63399Y-13267D01*
X63381Y-13008D01*
X63362Y-12740D01*
X63344Y-12490D01*
D02*
G37*
G36*
X58878D02*
X57389D01*
X56983Y-14848D01*
X58222D01*
X58333Y-14838D01*
X58471Y-14829D01*
X58619Y-14811D01*
X58767Y-14783D01*
X58915Y-14746D01*
X59044Y-14700D01*
X59054Y-14690D01*
X59100Y-14672D01*
X59155Y-14635D01*
X59220Y-14579D01*
X59303Y-14505D01*
X59396Y-14413D01*
X59479Y-14311D01*
X59562Y-14182D01*
X59571Y-14163D01*
X59599Y-14117D01*
X59627Y-14043D01*
X59673Y-13951D01*
X59710Y-13831D01*
X59738Y-13692D01*
X59766Y-13544D01*
X59775Y-13387D01*
Y-13368D01*
Y-13331D01*
X59766Y-13267D01*
Y-13193D01*
X59729Y-13026D01*
X59701Y-12934D01*
X59664Y-12860D01*
X59655Y-12851D01*
X59645Y-12823D01*
X59618Y-12795D01*
X59590Y-12749D01*
X59488Y-12656D01*
X59433Y-12610D01*
X59368Y-12573D01*
X59359D01*
X59331Y-12564D01*
X59285Y-12545D01*
X59220Y-12527D01*
X59128Y-12518D01*
X59017Y-12499D01*
X58878Y-12490D01*
D02*
G37*
G36*
X53636D02*
Y-12499D01*
X53626Y-12518D01*
X53617Y-12545D01*
X53599Y-12582D01*
X53580Y-12638D01*
X53562Y-12703D01*
X53534Y-12777D01*
X53506Y-12860D01*
X53432Y-13045D01*
X53340Y-13267D01*
X53238Y-13516D01*
X53118Y-13784D01*
X52267Y-15661D01*
X53978D01*
X53784Y-14071D01*
Y-14062D01*
X53774Y-14025D01*
Y-13979D01*
X53765Y-13914D01*
X53756Y-13831D01*
X53747Y-13738D01*
X53728Y-13636D01*
X53719Y-13516D01*
X53691Y-13267D01*
X53673Y-13008D01*
X53654Y-12740D01*
X53636Y-12490D01*
D02*
G37*
G36*
X80180Y-12398D02*
X80106D01*
X80060Y-12407D01*
X79995Y-12416D01*
X79921Y-12435D01*
X79838Y-12462D01*
X79745Y-12490D01*
X79644Y-12527D01*
X79533Y-12573D01*
X79431Y-12638D01*
X79311Y-12703D01*
X79200Y-12786D01*
X79089Y-12888D01*
X78969Y-12998D01*
X78858Y-13128D01*
X78849Y-13137D01*
X78830Y-13165D01*
X78793Y-13220D01*
X78747Y-13285D01*
X78691Y-13378D01*
X78636Y-13489D01*
X78571Y-13609D01*
X78506Y-13757D01*
X78432Y-13923D01*
X78368Y-14099D01*
X78312Y-14302D01*
X78257Y-14515D01*
X78211Y-14746D01*
X78174Y-14986D01*
X78155Y-15254D01*
X78146Y-15532D01*
Y-15541D01*
Y-15569D01*
Y-15624D01*
X78155Y-15689D01*
X78164Y-15763D01*
X78174Y-15855D01*
X78183Y-15957D01*
X78201Y-16059D01*
X78257Y-16299D01*
X78340Y-16540D01*
X78386Y-16660D01*
X78451Y-16780D01*
X78516Y-16891D01*
X78599Y-17002D01*
X78608Y-17011D01*
X78617Y-17030D01*
X78645Y-17048D01*
X78682Y-17085D01*
X78775Y-17177D01*
X78904Y-17270D01*
X79070Y-17372D01*
X79246Y-17464D01*
X79348Y-17501D01*
X79459Y-17520D01*
X79570Y-17538D01*
X79681Y-17547D01*
X79727D01*
X79764Y-17538D01*
X79856Y-17529D01*
X79977Y-17501D01*
X80124Y-17464D01*
X80282Y-17399D01*
X80448Y-17316D01*
X80614Y-17205D01*
X80624D01*
X80633Y-17187D01*
X80688Y-17141D01*
X80781Y-17057D01*
X80883Y-16937D01*
X81012Y-16780D01*
X81141Y-16595D01*
X81271Y-16364D01*
X81326Y-16244D01*
X81391Y-16105D01*
Y-16096D01*
X81410Y-16068D01*
X81419Y-16031D01*
X81447Y-15976D01*
X81465Y-15902D01*
X81493Y-15818D01*
X81521Y-15726D01*
X81558Y-15615D01*
X81585Y-15495D01*
X81613Y-15375D01*
X81668Y-15097D01*
X81705Y-14792D01*
X81715Y-14469D01*
Y-14459D01*
Y-14422D01*
Y-14376D01*
X81705Y-14311D01*
Y-14228D01*
X81687Y-14136D01*
X81678Y-14034D01*
X81659Y-13914D01*
X81604Y-13673D01*
X81521Y-13424D01*
X81474Y-13294D01*
X81410Y-13174D01*
X81345Y-13063D01*
X81262Y-12952D01*
X81252Y-12943D01*
X81243Y-12924D01*
X81215Y-12897D01*
X81178Y-12869D01*
X81086Y-12777D01*
X80956Y-12675D01*
X80799Y-12573D01*
X80614Y-12481D01*
X80513Y-12453D01*
X80411Y-12425D01*
X80300Y-12407D01*
X80180Y-12398D01*
D02*
G37*
G36*
X101279Y3230D02*
X98780D01*
Y231D01*
X101094D01*
X101298Y249D01*
X101520Y268D01*
X101761Y286D01*
X102002Y323D01*
X102224Y360D01*
X102242D01*
X102316Y397D01*
X102428Y416D01*
X102539Y471D01*
X102835Y620D01*
X102964Y712D01*
X103076Y823D01*
X103094Y842D01*
X103131Y879D01*
X103168Y953D01*
X103224Y1064D01*
X103279Y1194D01*
X103335Y1360D01*
X103353Y1545D01*
X103372Y1749D01*
Y1768D01*
Y1823D01*
X103353Y1916D01*
X103335Y2008D01*
X103279Y2268D01*
X103205Y2397D01*
X103131Y2527D01*
X103113Y2545D01*
X103094Y2582D01*
X103039Y2656D01*
X102964Y2730D01*
X102872Y2804D01*
X102779Y2897D01*
X102501Y3045D01*
X102483D01*
X102428Y3082D01*
X102316Y3101D01*
X102150Y3138D01*
X101927Y3175D01*
X101631Y3193D01*
X101279Y3230D01*
D02*
G37*
G36*
X87781Y3341D02*
X87670D01*
X87522Y3323D01*
X87355Y3304D01*
X87151Y3267D01*
X86929Y3230D01*
X86707Y3156D01*
X86485Y3064D01*
X86466Y3045D01*
X86392Y3008D01*
X86281Y2953D01*
X86151Y2879D01*
X85985Y2767D01*
X85818Y2638D01*
X85651Y2490D01*
X85485Y2305D01*
X85466Y2286D01*
X85411Y2212D01*
X85337Y2101D01*
X85244Y1953D01*
X85133Y1768D01*
X85022Y1545D01*
X84911Y1286D01*
X84800Y1008D01*
X84781Y971D01*
X84763Y860D01*
X84726Y712D01*
X84689Y490D01*
X84633Y212D01*
X84596Y-84D01*
X84578Y-417D01*
X84559Y-788D01*
Y-806D01*
Y-825D01*
Y-880D01*
Y-954D01*
X84578Y-1158D01*
X84596Y-1399D01*
X84614Y-1676D01*
X84670Y-1991D01*
X84726Y-2306D01*
X84800Y-2621D01*
X84818Y-2658D01*
X84855Y-2751D01*
X84911Y-2899D01*
X84985Y-3084D01*
X85077Y-3306D01*
X85207Y-3528D01*
X85355Y-3750D01*
X85503Y-3954D01*
X85522Y-3973D01*
X85577Y-4047D01*
X85688Y-4139D01*
X85800Y-4250D01*
X85966Y-4380D01*
X86133Y-4491D01*
X86336Y-4621D01*
X86540Y-4732D01*
X86559Y-4750D01*
X86633Y-4769D01*
X86762Y-4806D01*
X86910Y-4843D01*
X87114Y-4898D01*
X87318Y-4935D01*
X87559Y-4954D01*
X87818Y-4972D01*
X87966D01*
X88133Y-4954D01*
X88355Y-4917D01*
X88614Y-4861D01*
X88873Y-4787D01*
X89170Y-4676D01*
X89447Y-4528D01*
X89484Y-4509D01*
X89577Y-4435D01*
X89707Y-4343D01*
X89892Y-4195D01*
X90077Y-3991D01*
X90281Y-3750D01*
X90466Y-3473D01*
X90651Y-3139D01*
Y-3121D01*
X90669Y-3102D01*
X90688Y-3047D01*
X90725Y-2973D01*
X90762Y-2880D01*
X90799Y-2769D01*
X90892Y-2491D01*
X90966Y-2158D01*
X91040Y-1751D01*
X91095Y-1288D01*
X91114Y-788D01*
Y-769D01*
Y-732D01*
Y-658D01*
Y-565D01*
X91095Y-454D01*
Y-325D01*
X91058Y-29D01*
X91003Y323D01*
X90929Y694D01*
X90836Y1082D01*
X90688Y1434D01*
Y1453D01*
X90669Y1471D01*
X90614Y1582D01*
X90521Y1768D01*
X90392Y1971D01*
X90225Y2193D01*
X90021Y2434D01*
X89799Y2656D01*
X89521Y2860D01*
X89484Y2879D01*
X89392Y2934D01*
X89225Y3008D01*
X89021Y3101D01*
X88762Y3193D01*
X88466Y3267D01*
X88133Y3323D01*
X87781Y3341D01*
D02*
G37*
%LPD*%
D10*
X-53250Y-10250D02*
G03*
X-53250Y-10250I-500J0D01*
G01*
X-52250Y10750D02*
G03*
X-52250Y10750I-500J0D01*
G01*
X-19284806Y19282236D02*
G03*
X-19284639Y19281692I38147344J11737449D01*
G01*
D11*
X-92750Y16750D02*
X-90250D01*
Y-15250D02*
Y16750D01*
X-92750Y-15250D02*
X-90250D01*
X-115250Y16750D02*
X-112750D01*
X-115250Y-15250D02*
Y16750D01*
Y-15250D02*
X-112750D01*
X-122250Y16750D02*
X-119750D01*
Y-15250D02*
Y16750D01*
X-122250Y-15250D02*
X-119750D01*
X-144750Y16750D02*
X-142250D01*
X-144750Y-15250D02*
Y16750D01*
Y-15250D02*
X-142250D01*
X-49750Y-9000D02*
X-47000Y-11750D01*
X-49750Y-9000D02*
Y15250D01*
X-47000Y-11750D02*
X-22750D01*
X-49750Y15250D02*
X-22750D01*
Y-11750D02*
Y15250D01*
D12*
X-152750Y20250D02*
Y22250D01*
Y15500D02*
Y17500D01*
Y10750D02*
Y12750D01*
Y6000D02*
Y8000D01*
Y1250D02*
Y3250D01*
Y-22500D02*
Y-20500D01*
Y-17750D02*
Y-15750D01*
Y-13000D02*
Y-11000D01*
Y-8250D02*
Y-6250D01*
Y-3500D02*
Y-1500D01*
M02*
