G04*
G04 #@! TF.GenerationSoftware,Altium Limited,Altium Designer,22.8.2 (66)*
G04*
G04 Layer_Color=8421504*
%FSLAX44Y44*%
%MOMM*%
G71*
G04*
G04 #@! TF.SameCoordinates,77D84F31-F88A-430F-A0AE-3837F78F33EF*
G04*
G04*
G04 #@! TF.FilePolarity,Positive*
G04*
G01*
G75*
%ADD13R,1.4000X1.4000*%
%ADD14C,0.2750*%
%ADD15R,0.6500X0.5500*%
%ADD16R,0.5000X0.3500*%
%ADD17R,0.3500X0.5000*%
%ADD18R,0.6800X0.6200*%
D13*
X-102750Y11750D02*
D03*
Y-10250D02*
D03*
X-132250Y11750D02*
D03*
Y-10250D02*
D03*
D14*
X-44250Y-2250D02*
D03*
Y-6250D02*
D03*
X-40250D02*
D03*
Y-2250D02*
D03*
X-44250Y1750D02*
D03*
Y5750D02*
D03*
Y9750D02*
D03*
X-40250Y1750D02*
D03*
Y5750D02*
D03*
Y9750D02*
D03*
X-36250Y-6250D02*
D03*
X-32250D02*
D03*
X-36250Y-2250D02*
D03*
X-32250D02*
D03*
X-28250Y-6250D02*
D03*
Y-2250D02*
D03*
Y1750D02*
D03*
X-36250D02*
D03*
Y5750D02*
D03*
Y9750D02*
D03*
X-32250Y1750D02*
D03*
Y5750D02*
D03*
Y9750D02*
D03*
X-28250Y5750D02*
D03*
Y9750D02*
D03*
D15*
X-84250Y17250D02*
D03*
X-75750D02*
D03*
X-65250D02*
D03*
X-56750D02*
D03*
D16*
X-59500Y-2500D02*
D03*
Y2500D02*
D03*
X-75500Y-2500D02*
D03*
Y2500D02*
D03*
D17*
X-65000Y8000D02*
D03*
X-60000D02*
D03*
X-70000D02*
D03*
Y-8000D02*
D03*
X-60000D02*
D03*
X-65000D02*
D03*
X-75000D02*
D03*
Y8000D02*
D03*
D18*
X-65450Y-17750D02*
D03*
X-74050D02*
D03*
X-26200Y-17500D02*
D03*
X-34800D02*
D03*
X-54800Y-17750D02*
D03*
X-46200D02*
D03*
M02*
