G04*
G04 #@! TF.GenerationSoftware,Altium Limited,Altium Designer,22.8.2 (66)*
G04*
G04 Layer_Physical_Order=1*
G04 Layer_Color=255*
%FSLAX44Y44*%
%MOMM*%
G71*
G04*
G04 #@! TF.SameCoordinates,77D84F31-F88A-430F-A0AE-3837F78F33EF*
G04*
G04*
G04 #@! TF.FilePolarity,Positive*
G04*
G01*
G75*
%ADD10C,0.2000*%
%ADD12C,0.1500*%
%ADD13R,1.4000X1.4000*%
%ADD15R,0.6500X0.5500*%
%ADD16R,0.5000X0.3500*%
%ADD17R,0.3500X0.5000*%
%ADD18R,0.6800X0.6200*%
%ADD22C,0.3500*%
%ADD27C,0.1000*%
%ADD28C,0.2000*%
%ADD29R,4.0000X0.3500*%
%ADD30C,0.2400*%
%ADD31C,0.3000*%
%ADD32C,0.5000*%
G36*
X-186452Y23718D02*
X-186220Y23568D01*
X-185986Y23435D01*
X-185752Y23319D01*
X-185517Y23222D01*
X-185280Y23142D01*
X-185043Y23080D01*
X-184804Y23035D01*
X-184564Y23009D01*
X-184323Y23000D01*
Y22000D01*
X-184564Y21991D01*
X-184804Y21964D01*
X-185043Y21920D01*
X-185280Y21858D01*
X-185517Y21778D01*
X-185752Y21681D01*
X-185986Y21565D01*
X-186220Y21432D01*
X-186452Y21282D01*
X-186682Y21113D01*
Y23887D01*
X-186452Y23718D01*
D02*
G37*
G36*
X-188818Y21113D02*
X-188929Y21187D01*
X-189063Y21253D01*
X-189219Y21311D01*
X-189398Y21361D01*
X-189598Y21403D01*
X-189821Y21438D01*
X-190334Y21484D01*
X-190936Y21500D01*
Y23500D01*
X-190624Y23504D01*
X-189821Y23562D01*
X-189598Y23597D01*
X-189398Y23639D01*
X-189219Y23689D01*
X-189063Y23747D01*
X-188929Y23813D01*
X-188818Y23887D01*
Y21113D01*
D02*
G37*
G36*
Y16113D02*
X-188929Y16187D01*
X-189063Y16252D01*
X-189219Y16310D01*
X-189398Y16361D01*
X-189598Y16403D01*
X-189821Y16438D01*
X-190334Y16485D01*
X-190936Y16500D01*
Y18500D01*
X-190624Y18504D01*
X-189821Y18562D01*
X-189598Y18597D01*
X-189398Y18639D01*
X-189219Y18690D01*
X-189063Y18748D01*
X-188929Y18813D01*
X-188818Y18887D01*
Y16113D01*
D02*
G37*
G36*
X-88750Y15267D02*
X-88741Y15025D01*
X-88715Y14785D01*
X-88671Y14546D01*
X-88610Y14308D01*
X-88531Y14071D01*
X-88434Y13836D01*
X-88320Y13601D01*
X-88188Y13368D01*
X-88039Y13137D01*
X-87872Y12906D01*
X-90646Y12916D01*
X-90475Y13148D01*
X-90323Y13380D01*
X-90189Y13614D01*
X-90072Y13848D01*
X-89974Y14083D01*
X-89893Y14319D01*
X-89831Y14557D01*
X-89786Y14795D01*
X-89759Y15034D01*
X-89750Y15275D01*
X-88750Y15267D01*
D02*
G37*
G36*
X-188818Y11113D02*
X-188929Y11187D01*
X-189063Y11252D01*
X-189219Y11310D01*
X-189398Y11361D01*
X-189598Y11403D01*
X-189821Y11438D01*
X-190334Y11485D01*
X-190936Y11500D01*
Y13500D01*
X-190624Y13504D01*
X-189821Y13562D01*
X-189598Y13597D01*
X-189398Y13639D01*
X-189219Y13690D01*
X-189063Y13748D01*
X-188929Y13813D01*
X-188818Y13887D01*
Y11113D01*
D02*
G37*
G36*
X-168197Y19754D02*
X-168150D01*
Y19418D01*
X-168197D01*
Y19227D01*
X-168245D01*
Y19035D01*
X-168293D01*
Y18987D01*
X-168341D01*
Y18844D01*
X-168389D01*
Y18796D01*
X-168437D01*
Y18748D01*
X-168485D01*
Y18652D01*
X-168533D01*
Y18604D01*
X-168581D01*
Y18508D01*
X-168629D01*
Y18460D01*
X-168676D01*
Y18412D01*
X-168724D01*
Y18365D01*
X-168772D01*
Y18317D01*
X-168820D01*
Y18269D01*
X-168868D01*
Y18221D01*
X-168916D01*
Y18173D01*
X-168964D01*
Y18125D01*
X-169012D01*
Y18077D01*
X-169060D01*
Y18029D01*
X-169155D01*
Y17981D01*
X-169203D01*
Y17933D01*
X-169251D01*
Y17886D01*
X-169299D01*
Y17838D01*
X-169395D01*
Y17790D01*
X-169443D01*
Y17742D01*
X-169491D01*
Y17694D01*
X-169539D01*
Y17646D01*
X-169634D01*
Y17598D01*
X-169682D01*
Y17550D01*
X-169730D01*
Y17502D01*
X-169826D01*
Y17455D01*
X-169874D01*
Y17407D01*
X-169922D01*
Y17359D01*
X-170018D01*
Y17311D01*
X-170065D01*
Y17263D01*
X-170161D01*
Y17215D01*
X-170209D01*
Y17167D01*
X-170257D01*
Y17119D01*
X-170353D01*
Y17071D01*
X-170401D01*
Y17024D01*
X-170497D01*
Y16976D01*
X-170544D01*
Y16928D01*
X-170640D01*
Y16880D01*
X-170688D01*
Y16832D01*
X-170784D01*
Y16784D01*
X-170832D01*
Y16736D01*
X-170880D01*
Y16688D01*
X-170976D01*
Y16640D01*
X-171024D01*
Y16592D01*
X-171119D01*
Y16545D01*
X-171167D01*
Y16497D01*
X-171215D01*
Y16449D01*
X-171311D01*
Y16401D01*
X-171359D01*
Y16353D01*
X-171455D01*
Y16305D01*
X-171502D01*
Y16257D01*
X-171550D01*
Y16209D01*
X-171646D01*
Y16161D01*
X-171694D01*
Y16113D01*
X-171742D01*
Y16065D01*
X-171838D01*
Y16018D01*
X-171886D01*
Y15970D01*
X-171933D01*
Y15922D01*
X-171981D01*
Y15874D01*
X-172029D01*
Y15826D01*
X-172125D01*
Y15778D01*
X-172173D01*
Y15730D01*
X-172221D01*
Y15682D01*
X-172269D01*
Y15634D01*
X-172317D01*
Y15587D01*
X-172365D01*
Y15539D01*
X-172412D01*
Y15491D01*
X-172460D01*
Y15443D01*
X-172508D01*
Y15395D01*
X-172556D01*
Y15347D01*
X-172604D01*
Y15299D01*
X-172652D01*
Y15251D01*
X-172700D01*
Y15203D01*
X-172748D01*
Y15155D01*
X-172796D01*
Y15060D01*
X-172844D01*
Y15012D01*
X-172892D01*
Y14964D01*
X-172939D01*
Y14868D01*
X-172987D01*
Y14772D01*
X-173035D01*
Y14724D01*
X-173083D01*
Y14581D01*
X-173131D01*
Y14485D01*
X-173179D01*
Y14293D01*
X-173227D01*
Y13719D01*
X-173179D01*
Y13527D01*
X-173131D01*
Y13431D01*
X-173083D01*
Y13335D01*
X-173035D01*
Y13287D01*
X-172987D01*
Y13192D01*
X-172939D01*
Y13144D01*
X-172892D01*
Y13096D01*
X-172844D01*
Y13048D01*
X-172796D01*
Y13000D01*
X-172700D01*
Y12952D01*
X-172604D01*
Y12904D01*
X-172508D01*
Y12856D01*
X-172269D01*
Y12808D01*
X-171838D01*
Y12856D01*
X-171550D01*
Y12904D01*
X-171359D01*
Y12952D01*
X-171263D01*
Y13000D01*
X-171119D01*
Y13048D01*
X-171024D01*
Y13096D01*
X-170928D01*
Y13144D01*
X-170832D01*
Y13192D01*
X-170784D01*
Y13240D01*
X-170688D01*
Y13287D01*
X-170640D01*
Y13335D01*
X-170544D01*
Y13383D01*
X-170497D01*
Y13431D01*
X-170401D01*
Y13479D01*
X-170353D01*
Y13527D01*
X-170305D01*
Y13575D01*
X-170209D01*
Y13623D01*
X-170161D01*
Y13671D01*
X-170113D01*
Y13719D01*
X-170065D01*
Y13766D01*
X-170018D01*
Y13814D01*
X-169970D01*
Y13862D01*
X-169922D01*
Y13910D01*
X-169826D01*
Y13958D01*
X-169730D01*
Y13910D01*
X-169682D01*
Y13862D01*
X-169634D01*
Y13671D01*
X-169682D01*
Y13575D01*
X-169730D01*
Y13431D01*
X-169778D01*
Y13240D01*
X-169826D01*
Y13144D01*
X-169874D01*
Y12952D01*
X-169922D01*
Y12856D01*
X-169970D01*
Y12760D01*
X-170018D01*
Y12617D01*
X-170065D01*
Y12521D01*
X-170113D01*
Y12425D01*
X-170161D01*
Y12282D01*
X-170209D01*
Y12234D01*
X-170257D01*
Y12090D01*
X-170305D01*
Y11994D01*
X-170353D01*
Y11946D01*
X-170401D01*
Y11803D01*
X-170449D01*
Y11755D01*
X-170497D01*
Y11659D01*
X-170544D01*
Y11563D01*
X-170592D01*
Y11515D01*
X-170640D01*
Y11419D01*
X-170688D01*
Y11323D01*
X-170736D01*
Y11228D01*
X-170784D01*
Y11180D01*
X-170832D01*
Y11084D01*
X-170880D01*
Y11036D01*
X-170928D01*
Y10940D01*
X-170976D01*
Y10845D01*
X-171024D01*
Y10797D01*
X-171071D01*
Y10701D01*
X-171119D01*
Y10653D01*
X-171167D01*
Y10557D01*
X-171215D01*
Y10509D01*
X-171263D01*
Y10461D01*
X-171311D01*
Y10366D01*
X-171359D01*
Y10318D01*
X-171407D01*
Y10270D01*
X-171455D01*
Y10174D01*
X-171502D01*
Y10126D01*
X-171550D01*
Y10078D01*
X-171598D01*
Y10030D01*
X-171646D01*
Y9982D01*
X-171694D01*
Y9887D01*
X-171742D01*
Y9839D01*
X-171790D01*
Y9791D01*
X-171838D01*
Y9743D01*
X-171886D01*
Y9695D01*
X-171933D01*
Y9599D01*
X-171981D01*
Y9551D01*
X-172029D01*
Y9503D01*
X-172077D01*
Y9456D01*
X-172125D01*
Y9408D01*
X-172173D01*
Y9360D01*
X-172221D01*
Y9312D01*
X-172269D01*
Y9264D01*
X-172317D01*
Y9216D01*
X-172365D01*
Y9168D01*
X-172412D01*
Y9120D01*
X-172460D01*
Y9072D01*
X-172508D01*
Y9024D01*
X-172556D01*
Y8977D01*
X-172604D01*
Y8929D01*
X-172652D01*
Y8881D01*
X-172700D01*
Y8833D01*
X-172748D01*
Y8785D01*
X-172844D01*
Y8737D01*
X-172892D01*
Y8689D01*
X-172939D01*
Y8641D01*
X-172987D01*
Y8593D01*
X-173035D01*
Y8545D01*
X-173131D01*
Y8497D01*
X-173179D01*
Y8450D01*
X-173227D01*
Y8402D01*
X-173323D01*
Y8354D01*
X-173370D01*
Y8306D01*
X-173418D01*
Y8258D01*
X-173514D01*
Y8210D01*
X-173562D01*
Y8162D01*
X-173658D01*
Y8114D01*
X-173706D01*
Y8066D01*
X-173802D01*
Y8019D01*
X-173850D01*
Y7971D01*
X-173945D01*
Y7923D01*
X-174041D01*
Y7875D01*
X-174089D01*
Y7827D01*
X-174185D01*
Y7779D01*
X-174281D01*
Y7731D01*
X-174376D01*
Y7683D01*
X-174472D01*
Y7635D01*
X-174616D01*
Y7588D01*
X-174664D01*
Y7540D01*
X-174807D01*
Y7492D01*
X-174951D01*
Y7444D01*
X-175095D01*
Y7396D01*
X-175286D01*
Y7348D01*
X-175430D01*
Y7300D01*
X-175670D01*
Y7252D01*
X-176053D01*
Y7204D01*
X-176675D01*
Y7396D01*
X-176628D01*
Y7444D01*
X-176532D01*
Y7492D01*
X-176436D01*
Y7540D01*
X-176292D01*
Y7588D01*
X-176244D01*
Y7635D01*
X-176101D01*
Y7683D01*
X-176005D01*
Y7731D01*
X-175909D01*
Y7779D01*
X-175861D01*
Y7827D01*
X-175765D01*
Y7875D01*
X-175718D01*
Y7923D01*
X-175670D01*
Y7971D01*
X-175622D01*
Y8019D01*
X-175526D01*
Y8066D01*
X-175478D01*
Y8114D01*
X-175430D01*
Y8162D01*
X-175382D01*
Y8210D01*
X-175334D01*
Y8258D01*
X-175286D01*
Y8306D01*
X-175238D01*
Y8354D01*
X-175191D01*
Y8402D01*
X-175143D01*
Y8450D01*
X-175095D01*
Y8497D01*
X-175047D01*
Y8545D01*
X-174999D01*
Y8641D01*
X-174951D01*
Y8689D01*
X-174903D01*
Y8737D01*
X-174855D01*
Y8833D01*
X-174807D01*
Y8881D01*
X-174760D01*
Y8977D01*
X-174712D01*
Y9024D01*
X-174664D01*
Y9120D01*
X-174616D01*
Y9216D01*
X-174568D01*
Y9312D01*
X-174520D01*
Y9408D01*
X-174472D01*
Y9503D01*
X-174424D01*
Y9599D01*
X-174376D01*
Y9743D01*
X-174328D01*
Y9887D01*
X-174281D01*
Y9982D01*
X-174233D01*
Y10174D01*
X-174185D01*
Y10318D01*
X-174137D01*
Y10509D01*
X-174089D01*
Y10797D01*
X-174041D01*
Y10988D01*
X-173993D01*
Y11276D01*
X-173945D01*
Y11755D01*
X-173993D01*
Y11803D01*
X-174041D01*
Y11755D01*
X-174089D01*
Y11707D01*
X-174137D01*
Y11611D01*
X-174185D01*
Y11563D01*
X-174233D01*
Y11467D01*
X-174281D01*
Y11372D01*
X-174328D01*
Y11323D01*
X-174376D01*
Y11228D01*
X-174424D01*
Y11180D01*
X-174472D01*
Y11132D01*
X-174520D01*
Y11084D01*
X-174568D01*
Y11036D01*
X-174616D01*
Y10988D01*
X-174664D01*
Y10940D01*
X-174712D01*
Y10892D01*
X-174760D01*
Y10845D01*
X-174807D01*
Y10797D01*
X-174855D01*
Y10749D01*
X-174903D01*
Y10701D01*
X-174999D01*
Y10653D01*
X-175047D01*
Y10605D01*
X-175095D01*
Y10557D01*
X-175191D01*
Y10509D01*
X-175238D01*
Y10461D01*
X-175334D01*
Y10414D01*
X-175430D01*
Y10366D01*
X-175526D01*
Y10318D01*
X-175670D01*
Y10270D01*
X-175861D01*
Y10222D01*
X-176388D01*
Y10270D01*
X-176484D01*
Y10318D01*
X-176580D01*
Y10366D01*
X-176675D01*
Y10414D01*
X-176723D01*
Y10461D01*
X-176771D01*
Y10509D01*
X-176819D01*
Y10557D01*
X-176867D01*
Y10605D01*
X-176915D01*
Y10701D01*
X-176963D01*
Y10749D01*
X-177011D01*
Y10892D01*
X-177059D01*
Y11036D01*
X-177107D01*
Y11563D01*
X-177059D01*
Y11755D01*
X-177011D01*
Y11898D01*
X-176963D01*
Y11946D01*
X-176915D01*
Y12090D01*
X-176867D01*
Y12138D01*
X-176819D01*
Y12234D01*
X-176771D01*
Y12329D01*
X-176723D01*
Y12377D01*
X-176675D01*
Y12473D01*
X-176628D01*
Y12521D01*
X-176580D01*
Y12569D01*
X-176532D01*
Y12665D01*
X-176484D01*
Y12713D01*
X-176436D01*
Y12808D01*
X-176388D01*
Y12856D01*
X-176340D01*
Y12952D01*
X-176292D01*
Y13000D01*
X-176244D01*
Y13096D01*
X-176196D01*
Y13144D01*
X-176149D01*
Y13240D01*
X-176101D01*
Y13287D01*
X-176053D01*
Y13383D01*
X-176005D01*
Y13479D01*
X-175957D01*
Y13527D01*
X-175909D01*
Y13623D01*
X-175861D01*
Y13719D01*
X-175813D01*
Y13814D01*
X-175765D01*
Y13958D01*
X-175718D01*
Y14054D01*
X-175670D01*
Y14197D01*
X-175622D01*
Y14389D01*
X-175574D01*
Y14581D01*
X-175526D01*
Y14772D01*
X-175574D01*
Y14820D01*
X-175622D01*
Y14772D01*
X-175670D01*
Y14724D01*
X-175718D01*
Y14677D01*
X-175765D01*
Y14628D01*
X-175813D01*
Y14533D01*
X-175861D01*
Y14485D01*
X-175909D01*
Y14389D01*
X-175957D01*
Y14341D01*
X-176005D01*
Y14245D01*
X-176053D01*
Y14197D01*
X-176101D01*
Y14102D01*
X-176149D01*
Y14054D01*
X-176196D01*
Y14006D01*
X-176244D01*
Y13958D01*
X-176292D01*
Y13862D01*
X-176340D01*
Y13814D01*
X-176388D01*
Y13766D01*
X-176436D01*
Y13719D01*
X-176484D01*
Y13671D01*
X-176532D01*
Y13623D01*
X-176580D01*
Y13575D01*
X-176628D01*
Y13527D01*
X-176675D01*
Y13479D01*
X-176771D01*
Y13431D01*
X-176819D01*
Y13383D01*
X-176867D01*
Y13335D01*
X-176915D01*
Y13287D01*
X-176963D01*
Y13240D01*
X-177011D01*
Y13192D01*
X-177107D01*
Y13144D01*
X-177155D01*
Y13096D01*
X-177202D01*
Y13048D01*
X-177250D01*
Y13000D01*
X-177346D01*
Y12952D01*
X-177394D01*
Y12904D01*
X-177442D01*
Y12856D01*
X-177538D01*
Y12808D01*
X-177586D01*
Y12760D01*
X-177633D01*
Y12713D01*
X-177729D01*
Y12665D01*
X-177777D01*
Y12617D01*
X-177825D01*
Y12569D01*
X-177921D01*
Y12521D01*
X-177969D01*
Y12473D01*
X-178017D01*
Y12425D01*
X-178112D01*
Y12377D01*
X-178160D01*
Y12329D01*
X-178208D01*
Y12282D01*
X-178304D01*
Y12234D01*
X-178352D01*
Y12186D01*
X-178400D01*
Y12138D01*
X-178448D01*
Y12090D01*
X-178543D01*
Y12042D01*
X-178591D01*
Y11994D01*
X-178639D01*
Y11946D01*
X-178687D01*
Y11898D01*
X-178735D01*
Y11850D01*
X-178831D01*
Y11803D01*
X-178879D01*
Y11755D01*
X-178927D01*
Y11707D01*
X-178975D01*
Y11659D01*
X-179023D01*
Y11611D01*
X-179070D01*
Y11563D01*
X-179118D01*
Y11515D01*
X-179166D01*
Y11467D01*
X-179214D01*
Y11419D01*
X-179262D01*
Y11372D01*
X-179310D01*
Y11323D01*
X-179358D01*
Y11276D01*
X-179406D01*
Y11228D01*
X-179454D01*
Y11180D01*
X-179501D01*
Y11084D01*
X-179549D01*
Y11036D01*
X-179597D01*
Y10988D01*
X-179645D01*
Y10940D01*
X-179693D01*
Y10845D01*
X-179741D01*
Y10797D01*
X-179789D01*
Y10701D01*
X-179837D01*
Y10605D01*
X-179885D01*
Y10557D01*
X-179933D01*
Y10461D01*
X-179981D01*
Y10318D01*
X-180028D01*
Y10222D01*
X-180076D01*
Y10126D01*
X-180124D01*
Y9934D01*
X-180172D01*
Y9791D01*
X-180220D01*
Y9503D01*
X-180268D01*
Y8306D01*
X-180316D01*
Y8114D01*
X-180364D01*
Y8066D01*
X-180507D01*
Y8114D01*
X-180555D01*
Y8210D01*
X-180603D01*
Y8402D01*
X-180651D01*
Y8593D01*
X-180699D01*
Y8737D01*
X-180747D01*
Y9072D01*
X-180795D01*
Y9264D01*
X-180843D01*
Y9551D01*
X-180891D01*
Y11132D01*
X-180843D01*
Y11419D01*
X-180795D01*
Y11611D01*
X-180747D01*
Y11850D01*
X-180699D01*
Y11994D01*
X-180651D01*
Y12090D01*
X-180603D01*
Y12282D01*
X-180555D01*
Y12329D01*
X-180507D01*
Y12473D01*
X-180459D01*
Y12617D01*
X-180412D01*
Y12665D01*
X-180364D01*
Y12808D01*
X-180316D01*
Y12856D01*
X-180268D01*
Y12952D01*
X-180220D01*
Y13048D01*
X-180172D01*
Y13096D01*
X-180124D01*
Y13192D01*
X-180076D01*
Y13287D01*
X-180028D01*
Y13335D01*
X-179981D01*
Y13431D01*
X-179933D01*
Y13479D01*
X-179885D01*
Y13527D01*
X-179837D01*
Y13623D01*
X-179789D01*
Y13671D01*
X-179741D01*
Y13719D01*
X-179693D01*
Y13766D01*
X-179645D01*
Y13814D01*
X-179597D01*
Y13910D01*
X-179549D01*
Y13958D01*
X-179501D01*
Y14006D01*
X-179454D01*
Y14054D01*
X-179406D01*
Y14102D01*
X-179358D01*
Y14150D01*
X-179310D01*
Y14197D01*
X-179262D01*
Y14245D01*
X-179214D01*
Y14293D01*
X-179166D01*
Y14341D01*
X-179118D01*
Y14389D01*
X-179070D01*
Y14437D01*
X-179023D01*
Y14485D01*
X-178975D01*
Y14533D01*
X-178927D01*
Y14581D01*
X-178879D01*
Y14628D01*
X-178831D01*
Y14677D01*
X-178735D01*
Y14724D01*
X-178687D01*
Y14772D01*
X-178639D01*
Y14820D01*
X-178591D01*
Y14868D01*
X-178543D01*
Y14916D01*
X-178448D01*
Y14964D01*
X-178400D01*
Y15012D01*
X-178352D01*
Y15060D01*
X-178256D01*
Y15108D01*
X-178208D01*
Y15155D01*
X-178160D01*
Y15203D01*
X-178064D01*
Y15251D01*
X-178017D01*
Y15299D01*
X-177921D01*
Y15347D01*
X-177873D01*
Y15395D01*
X-177825D01*
Y15443D01*
X-177729D01*
Y15491D01*
X-177633D01*
Y15539D01*
X-177586D01*
Y15587D01*
X-177490D01*
Y15634D01*
X-177442D01*
Y15682D01*
X-177346D01*
Y15730D01*
X-177250D01*
Y15778D01*
X-177155D01*
Y15826D01*
X-177059D01*
Y15874D01*
X-177011D01*
Y15922D01*
X-176915D01*
Y15970D01*
X-176819D01*
Y16018D01*
X-176723D01*
Y16065D01*
X-176628D01*
Y16113D01*
X-176532D01*
Y16161D01*
X-176436D01*
Y16209D01*
X-176340D01*
Y16257D01*
X-176244D01*
Y16305D01*
X-176149D01*
Y16353D01*
X-176005D01*
Y16401D01*
X-175957D01*
Y16449D01*
X-175813D01*
Y16497D01*
X-175718D01*
Y16545D01*
X-175622D01*
Y16592D01*
X-175478D01*
Y16640D01*
X-175382D01*
Y16688D01*
X-175238D01*
Y16736D01*
X-175095D01*
Y16784D01*
X-174999D01*
Y16832D01*
X-174807D01*
Y16880D01*
X-174664D01*
Y16928D01*
X-174520D01*
Y16976D01*
X-174328D01*
Y17024D01*
X-174185D01*
Y17071D01*
X-174041D01*
Y17119D01*
X-173802D01*
Y17167D01*
X-173658D01*
Y17215D01*
X-173466D01*
Y17263D01*
X-173275D01*
Y17311D01*
X-173131D01*
Y17359D01*
X-172892D01*
Y17407D01*
X-172700D01*
Y17455D01*
X-172556D01*
Y17502D01*
X-172317D01*
Y17550D01*
X-172173D01*
Y17598D01*
X-171981D01*
Y17646D01*
X-171838D01*
Y17694D01*
X-171694D01*
Y17742D01*
X-171502D01*
Y17790D01*
X-171359D01*
Y17838D01*
X-171215D01*
Y17886D01*
X-171071D01*
Y17933D01*
X-170976D01*
Y17981D01*
X-170784D01*
Y18029D01*
X-170688D01*
Y18077D01*
X-170592D01*
Y18125D01*
X-170449D01*
Y18173D01*
X-170353D01*
Y18221D01*
X-170257D01*
Y18269D01*
X-170113D01*
Y18317D01*
X-170065D01*
Y18365D01*
X-169922D01*
Y18412D01*
X-169826D01*
Y18460D01*
X-169778D01*
Y18508D01*
X-169682D01*
Y18556D01*
X-169587D01*
Y18604D01*
X-169539D01*
Y18652D01*
X-169443D01*
Y18700D01*
X-169395D01*
Y18748D01*
X-169299D01*
Y18796D01*
X-169251D01*
Y18844D01*
X-169155D01*
Y18892D01*
X-169107D01*
Y18939D01*
X-169060D01*
Y18987D01*
X-169012D01*
Y19035D01*
X-168916D01*
Y19083D01*
X-168868D01*
Y19131D01*
X-168820D01*
Y19179D01*
X-168772D01*
Y19227D01*
X-168724D01*
Y19275D01*
X-168676D01*
Y19323D01*
X-168629D01*
Y19370D01*
X-168581D01*
Y19418D01*
X-168533D01*
Y19466D01*
X-168485D01*
Y19610D01*
X-168437D01*
Y19706D01*
X-168389D01*
Y19802D01*
X-168197D01*
Y19754D01*
D02*
G37*
G36*
X-188818Y6113D02*
X-188929Y6187D01*
X-189063Y6252D01*
X-189219Y6310D01*
X-189398Y6361D01*
X-189598Y6403D01*
X-189821Y6438D01*
X-190334Y6485D01*
X-190936Y6500D01*
Y8500D01*
X-190624Y8504D01*
X-189821Y8562D01*
X-189598Y8597D01*
X-189398Y8639D01*
X-189219Y8690D01*
X-189063Y8748D01*
X-188929Y8813D01*
X-188818Y8887D01*
Y6113D01*
D02*
G37*
G36*
Y1113D02*
X-188929Y1187D01*
X-189063Y1252D01*
X-189219Y1311D01*
X-189398Y1361D01*
X-189598Y1403D01*
X-189821Y1438D01*
X-190334Y1485D01*
X-190936Y1500D01*
Y3500D01*
X-190624Y3504D01*
X-189821Y3562D01*
X-189598Y3597D01*
X-189398Y3639D01*
X-189219Y3690D01*
X-189063Y3747D01*
X-188929Y3813D01*
X-188818Y3887D01*
Y1113D01*
D02*
G37*
G36*
Y-3887D02*
X-188929Y-3813D01*
X-189063Y-3747D01*
X-189219Y-3690D01*
X-189398Y-3639D01*
X-189598Y-3597D01*
X-189821Y-3562D01*
X-190334Y-3516D01*
X-190936Y-3500D01*
Y-1500D01*
X-190624Y-1496D01*
X-189821Y-1438D01*
X-189598Y-1403D01*
X-189398Y-1361D01*
X-189219Y-1311D01*
X-189063Y-1252D01*
X-188929Y-1187D01*
X-188818Y-1113D01*
Y-3887D01*
D02*
G37*
G36*
X-148741Y-1814D02*
X-148715Y-2054D01*
X-148670Y-2293D01*
X-148608Y-2530D01*
X-148528Y-2767D01*
X-148431Y-3002D01*
X-148315Y-3236D01*
X-148182Y-3469D01*
X-148032Y-3702D01*
X-147863Y-3932D01*
X-150637D01*
X-150468Y-3702D01*
X-150317Y-3469D01*
X-150184Y-3236D01*
X-150069Y-3002D01*
X-149972Y-2767D01*
X-149892Y-2530D01*
X-149830Y-2293D01*
X-149785Y-2054D01*
X-149759Y-1814D01*
X-149750Y-1573D01*
X-148750D01*
X-148741Y-1814D01*
D02*
G37*
G36*
X-157899Y5515D02*
X-157851D01*
Y-3633D01*
X-157899D01*
Y-3777D01*
X-157947D01*
Y-4112D01*
X-157995D01*
Y-4208D01*
X-158043D01*
Y-4304D01*
X-157995D01*
Y-4352D01*
X-158043D01*
Y-4448D01*
X-158091D01*
Y-4687D01*
X-158187D01*
Y-4879D01*
X-158235D01*
Y-5070D01*
X-158330D01*
Y-5214D01*
X-158426D01*
Y-5262D01*
X-158378D01*
Y-5310D01*
X-158426D01*
Y-5357D01*
X-158474D01*
Y-5501D01*
X-158522D01*
Y-5549D01*
X-158570D01*
Y-5645D01*
X-158618D01*
Y-5741D01*
X-158714D01*
Y-5836D01*
X-158762D01*
Y-5932D01*
X-158809D01*
Y-5980D01*
X-158857D01*
Y-6028D01*
X-158905D01*
Y-6076D01*
X-158953D01*
Y-6124D01*
X-159001D01*
Y-6172D01*
X-159049D01*
Y-6220D01*
X-159097D01*
Y-6268D01*
X-159145D01*
Y-6316D01*
X-159192D01*
Y-6363D01*
X-159240D01*
Y-6411D01*
X-159288D01*
Y-6459D01*
X-159336D01*
Y-6507D01*
X-159384D01*
Y-6555D01*
X-159432D01*
Y-6603D01*
X-159480D01*
Y-6651D01*
X-159528D01*
Y-6699D01*
X-159624D01*
Y-6747D01*
X-159671D01*
Y-6794D01*
X-159719D01*
Y-6842D01*
X-159767D01*
Y-6890D01*
X-159863D01*
Y-6938D01*
X-159959D01*
Y-6986D01*
X-160007D01*
Y-7034D01*
X-160103D01*
Y-7082D01*
X-160198D01*
Y-7130D01*
X-160246D01*
Y-7178D01*
X-160390D01*
Y-7226D01*
X-160486D01*
Y-7273D01*
X-160534D01*
Y-7321D01*
X-160677D01*
Y-7369D01*
X-160725D01*
Y-7417D01*
X-160869D01*
Y-7465D01*
X-161061D01*
Y-7561D01*
X-161252D01*
Y-7609D01*
X-161444D01*
Y-7657D01*
X-161540D01*
Y-7705D01*
X-161779D01*
Y-7753D01*
X-161827D01*
Y-7800D01*
X-162114D01*
Y-7848D01*
X-162498D01*
Y-7896D01*
X-162545D01*
Y-7944D01*
X-163072D01*
Y-7992D01*
X-163312D01*
Y-8040D01*
X-163456D01*
Y-7992D01*
X-165036D01*
Y-8040D01*
X-165132D01*
Y-7992D01*
X-165419D01*
Y-7944D01*
X-165946D01*
Y-7896D01*
X-165994D01*
Y-7848D01*
X-166377D01*
Y-7800D01*
X-166665D01*
Y-7753D01*
X-166713D01*
Y-7705D01*
X-166952D01*
Y-7657D01*
X-167000D01*
Y-7609D01*
X-167096D01*
Y-7657D01*
X-167144D01*
Y-7609D01*
X-167239D01*
Y-7561D01*
X-167431D01*
Y-7465D01*
X-167623D01*
Y-7417D01*
X-167766D01*
Y-7369D01*
X-167814D01*
Y-7321D01*
X-167958D01*
Y-7273D01*
X-168054D01*
Y-7226D01*
X-168102D01*
Y-7178D01*
X-168245D01*
Y-7082D01*
X-168389D01*
Y-7034D01*
X-168485D01*
Y-6986D01*
X-168533D01*
Y-6938D01*
X-168629D01*
Y-6890D01*
X-168676D01*
Y-6842D01*
X-168724D01*
Y-6794D01*
X-168820D01*
Y-6747D01*
X-168868D01*
Y-6699D01*
X-168964D01*
Y-6651D01*
X-169012D01*
Y-6555D01*
X-169107D01*
Y-6459D01*
X-169203D01*
Y-6411D01*
X-169299D01*
Y-6363D01*
X-169251D01*
Y-6316D01*
X-169347D01*
Y-6268D01*
X-169395D01*
Y-6220D01*
X-169443D01*
Y-6172D01*
X-169491D01*
Y-6076D01*
X-169587D01*
Y-5980D01*
X-169682D01*
Y-5884D01*
X-169730D01*
Y-5836D01*
X-169778D01*
Y-5789D01*
X-169826D01*
Y-5693D01*
X-169874D01*
Y-5645D01*
X-169922D01*
Y-5549D01*
X-169970D01*
Y-5453D01*
X-170018D01*
Y-5405D01*
X-170065D01*
Y-5262D01*
X-170113D01*
Y-5118D01*
X-170209D01*
Y-4927D01*
X-170305D01*
Y-4735D01*
X-170353D01*
Y-4543D01*
X-170401D01*
Y-4495D01*
X-170449D01*
Y-4256D01*
X-170497D01*
Y-4160D01*
X-170544D01*
Y-4064D01*
X-170497D01*
Y-3968D01*
X-170544D01*
Y-3825D01*
X-170592D01*
Y-3298D01*
X-170640D01*
Y5515D01*
X-170544D01*
Y5611D01*
X-167144D01*
Y5563D01*
X-167096D01*
Y5515D01*
X-167048D01*
Y5611D01*
X-167000D01*
Y-3250D01*
X-166952D01*
Y-3346D01*
X-166904D01*
Y-3633D01*
X-166856D01*
Y-3729D01*
X-166808D01*
Y-3777D01*
X-166856D01*
Y-3825D01*
X-166808D01*
Y-3873D01*
X-166761D01*
Y-4064D01*
X-166665D01*
Y-4160D01*
X-166713D01*
Y-4208D01*
X-166617D01*
Y-4304D01*
X-166569D01*
Y-4352D01*
X-166521D01*
Y-4448D01*
X-166473D01*
Y-4495D01*
X-166425D01*
Y-4543D01*
X-166377D01*
Y-4639D01*
X-166329D01*
Y-4735D01*
X-166234D01*
Y-4783D01*
X-166186D01*
Y-4879D01*
X-166090D01*
Y-4927D01*
X-165994D01*
Y-4974D01*
X-165946D01*
Y-5022D01*
X-165898D01*
Y-5070D01*
X-165850D01*
Y-5118D01*
X-165755D01*
Y-5166D01*
X-165659D01*
Y-5214D01*
X-165611D01*
Y-5262D01*
X-165467D01*
Y-5310D01*
X-165324D01*
Y-5357D01*
X-165276D01*
Y-5405D01*
X-164988D01*
Y-5453D01*
X-164940D01*
Y-5501D01*
X-164797D01*
Y-5453D01*
X-164653D01*
Y-5501D01*
X-163839D01*
Y-5453D01*
X-163647D01*
Y-5501D01*
X-163551D01*
Y-5453D01*
X-163456D01*
Y-5405D01*
X-163216D01*
Y-5357D01*
X-163168D01*
Y-5310D01*
X-163024D01*
Y-5262D01*
X-162881D01*
Y-5214D01*
X-162833D01*
Y-5166D01*
X-162737D01*
Y-5118D01*
X-162593D01*
Y-5022D01*
X-162498D01*
Y-4974D01*
X-162450D01*
Y-4927D01*
X-162402D01*
Y-4879D01*
X-162306D01*
Y-4783D01*
X-162210D01*
Y-4687D01*
X-162162D01*
Y-4639D01*
X-162114D01*
Y-4543D01*
X-162019D01*
Y-4448D01*
X-161971D01*
Y-4400D01*
X-161923D01*
Y-4304D01*
X-161875D01*
Y-4208D01*
X-161827D01*
Y-4160D01*
X-161779D01*
Y-4016D01*
X-161731D01*
Y-3968D01*
X-161683D01*
Y-3921D01*
X-161731D01*
Y-3873D01*
X-161683D01*
Y-3825D01*
X-161635D01*
Y-3585D01*
X-161588D01*
Y-3537D01*
X-161540D01*
Y-3154D01*
X-161492D01*
Y5515D01*
X-161444D01*
Y5611D01*
X-157899D01*
Y5515D01*
D02*
G37*
G36*
X-172460Y3025D02*
X-176580D01*
Y2977D01*
X-176628D01*
Y-7800D01*
X-180364D01*
Y-2388D01*
Y-2340D01*
Y2977D01*
X-180412D01*
Y3025D01*
X-184531D01*
Y3073D01*
X-184579D01*
Y3168D01*
X-184531D01*
Y5515D01*
X-184579D01*
Y5563D01*
X-184531D01*
Y5659D01*
X-172460D01*
Y3025D01*
D02*
G37*
G36*
X-115746Y-6126D02*
X-115688Y-6929D01*
X-115653Y-7152D01*
X-115611Y-7352D01*
X-115561Y-7531D01*
X-115503Y-7687D01*
X-115437Y-7821D01*
X-115363Y-7933D01*
X-118137D01*
X-118063Y-7821D01*
X-117998Y-7687D01*
X-117940Y-7531D01*
X-117889Y-7352D01*
X-117847Y-7152D01*
X-117812Y-6929D01*
X-117766Y-6416D01*
X-117750Y-5814D01*
X-115750D01*
X-115746Y-6126D01*
D02*
G37*
G36*
X-188818Y-8887D02*
X-188929Y-8813D01*
X-189063Y-8748D01*
X-189219Y-8690D01*
X-189398Y-8639D01*
X-189598Y-8597D01*
X-189821Y-8562D01*
X-190334Y-8515D01*
X-190936Y-8500D01*
Y-6500D01*
X-190624Y-6496D01*
X-189821Y-6438D01*
X-189598Y-6403D01*
X-189398Y-6361D01*
X-189219Y-6310D01*
X-189063Y-6252D01*
X-188929Y-6187D01*
X-188818Y-6113D01*
Y-8887D01*
D02*
G37*
G36*
X-160936Y-10157D02*
X-160822D01*
Y-10186D01*
X-160679D01*
Y-10214D01*
X-160592D01*
Y-10243D01*
X-160564D01*
Y-11074D01*
X-160592D01*
Y-11103D01*
X-160908D01*
Y-11074D01*
X-161338D01*
Y-11103D01*
X-161538D01*
Y-11131D01*
X-161653D01*
Y-11160D01*
X-161710D01*
Y-11189D01*
X-161768D01*
Y-11217D01*
X-161825D01*
Y-11246D01*
X-161853D01*
Y-11275D01*
X-161882D01*
Y-11332D01*
X-161911D01*
Y-11360D01*
X-161939D01*
Y-11418D01*
X-161968D01*
Y-11504D01*
X-161997D01*
Y-11618D01*
X-162025D01*
Y-12707D01*
X-161997D01*
Y-12736D01*
X-160736D01*
Y-13481D01*
X-162025D01*
Y-18324D01*
X-163114D01*
Y-17894D01*
Y-17866D01*
Y-13481D01*
X-164175D01*
Y-12736D01*
X-163143D01*
Y-12707D01*
X-163114D01*
Y-11590D01*
X-163086D01*
Y-11360D01*
X-163057D01*
Y-11217D01*
X-163028D01*
Y-11103D01*
X-163000D01*
Y-11045D01*
X-162971D01*
Y-10959D01*
X-162942D01*
Y-10902D01*
X-162914D01*
Y-10873D01*
X-162885D01*
Y-10816D01*
X-162856D01*
Y-10759D01*
X-162828D01*
Y-10730D01*
X-162799D01*
Y-10673D01*
X-162771D01*
Y-10644D01*
X-162742D01*
Y-10615D01*
X-162713D01*
Y-10587D01*
X-162684D01*
Y-10558D01*
X-162656D01*
Y-10530D01*
X-162627D01*
Y-10501D01*
X-162570D01*
Y-10472D01*
X-162541D01*
Y-10444D01*
X-162513D01*
Y-10415D01*
X-162455D01*
Y-10386D01*
X-162427D01*
Y-10358D01*
X-162369D01*
Y-10329D01*
X-162312D01*
Y-10300D01*
X-162255D01*
Y-10272D01*
X-162169D01*
Y-10243D01*
X-162111D01*
Y-10214D01*
X-162025D01*
Y-10186D01*
X-161911D01*
Y-10157D01*
X-161796D01*
Y-10128D01*
X-160936D01*
Y-10157D01*
D02*
G37*
G36*
X-188818Y-13887D02*
X-188929Y-13813D01*
X-189063Y-13748D01*
X-189219Y-13690D01*
X-189398Y-13639D01*
X-189598Y-13597D01*
X-189821Y-13562D01*
X-190334Y-13515D01*
X-190936Y-13500D01*
Y-11500D01*
X-190624Y-11496D01*
X-189821Y-11438D01*
X-189598Y-11403D01*
X-189398Y-11361D01*
X-189219Y-11310D01*
X-189063Y-11252D01*
X-188929Y-11187D01*
X-188818Y-11113D01*
Y-13887D01*
D02*
G37*
G36*
X-165350Y-18324D02*
X-166410D01*
Y-10730D01*
Y-10701D01*
Y-10272D01*
X-165350D01*
Y-18324D01*
D02*
G37*
G36*
X-177357Y-10300D02*
X-176956D01*
Y-10329D01*
X-176784D01*
Y-10358D01*
X-176583D01*
Y-10386D01*
X-176497D01*
Y-10415D01*
X-176383D01*
Y-10444D01*
X-176239D01*
Y-10472D01*
X-176182D01*
Y-10501D01*
X-176096D01*
Y-10530D01*
X-176010D01*
Y-10558D01*
X-175953D01*
Y-10587D01*
X-175867D01*
Y-10615D01*
X-175809D01*
Y-10644D01*
X-175752D01*
Y-10673D01*
X-175666D01*
Y-10701D01*
X-175638D01*
Y-10730D01*
X-175580D01*
Y-10759D01*
X-175523D01*
Y-10787D01*
X-175466D01*
Y-10816D01*
X-175408D01*
Y-10845D01*
X-175380D01*
Y-10873D01*
X-175351D01*
Y-10902D01*
X-175294D01*
Y-10931D01*
X-175265D01*
Y-10959D01*
X-175208D01*
Y-10988D01*
X-175179D01*
Y-11017D01*
X-175150D01*
Y-11045D01*
X-175122D01*
Y-11074D01*
X-175064D01*
Y-11103D01*
X-175036D01*
Y-11131D01*
X-175007D01*
Y-11160D01*
X-174978D01*
Y-11189D01*
X-174950D01*
Y-11217D01*
X-174921D01*
Y-11246D01*
X-174893D01*
Y-11275D01*
X-174864D01*
Y-11303D01*
X-174835D01*
Y-11332D01*
X-174806D01*
Y-11360D01*
X-174778D01*
Y-11389D01*
X-174749D01*
Y-11418D01*
X-174720D01*
Y-11475D01*
X-174692D01*
Y-11504D01*
X-174663D01*
Y-11532D01*
X-174635D01*
Y-11561D01*
X-174606D01*
Y-11590D01*
X-174577D01*
Y-11647D01*
X-174549D01*
Y-11676D01*
X-174520D01*
Y-11733D01*
X-174491D01*
Y-11762D01*
X-174463D01*
Y-11819D01*
X-174434D01*
Y-11876D01*
X-174405D01*
Y-11905D01*
X-174377D01*
Y-11962D01*
X-174348D01*
Y-12020D01*
X-174319D01*
Y-12077D01*
X-174291D01*
Y-12134D01*
X-174262D01*
Y-12192D01*
X-174233D01*
Y-12220D01*
X-174205D01*
Y-12306D01*
X-174176D01*
Y-12392D01*
X-174147D01*
Y-12450D01*
X-174119D01*
Y-12536D01*
X-174090D01*
Y-12593D01*
X-174061D01*
Y-12679D01*
X-174033D01*
Y-12707D01*
Y-12736D01*
Y-12793D01*
X-174004D01*
Y-12879D01*
X-173975D01*
Y-12994D01*
X-173947D01*
Y-13109D01*
X-173918D01*
Y-13223D01*
X-173890D01*
Y-13395D01*
X-173861D01*
Y-13567D01*
X-173832D01*
Y-13825D01*
X-173804D01*
Y-13854D01*
X-173832D01*
Y-13911D01*
X-173804D01*
Y-14685D01*
X-173832D01*
Y-14742D01*
X-173804D01*
Y-14799D01*
X-173832D01*
Y-15029D01*
X-173861D01*
Y-15201D01*
X-173890D01*
Y-15401D01*
X-173918D01*
Y-15487D01*
X-173947D01*
Y-15630D01*
X-173975D01*
Y-15745D01*
X-174004D01*
Y-15831D01*
X-174033D01*
Y-15917D01*
X-174061D01*
Y-16003D01*
X-174090D01*
Y-16089D01*
X-174119D01*
Y-16175D01*
X-174147D01*
Y-16232D01*
X-174176D01*
Y-16290D01*
X-174205D01*
Y-16376D01*
X-174233D01*
Y-16433D01*
X-174262D01*
Y-16490D01*
X-174291D01*
Y-16547D01*
X-174319D01*
Y-16605D01*
X-174348D01*
Y-16662D01*
X-174377D01*
Y-16691D01*
X-174405D01*
Y-16748D01*
X-174434D01*
Y-16805D01*
X-174463D01*
Y-16834D01*
X-174491D01*
Y-16891D01*
X-174520D01*
Y-16920D01*
X-174549D01*
Y-16977D01*
X-174577D01*
Y-17006D01*
X-174606D01*
Y-17035D01*
X-174635D01*
Y-17092D01*
X-174663D01*
Y-17121D01*
X-174692D01*
Y-17149D01*
X-174720D01*
Y-17178D01*
X-174749D01*
Y-17207D01*
X-174778D01*
Y-17235D01*
X-174806D01*
Y-17293D01*
X-174835D01*
Y-17321D01*
X-174864D01*
Y-17350D01*
X-174893D01*
Y-17379D01*
X-174921D01*
Y-17407D01*
X-174950D01*
Y-17436D01*
X-174978D01*
Y-17464D01*
X-175036D01*
Y-17493D01*
X-175064D01*
Y-17522D01*
X-175093D01*
Y-17550D01*
X-175122D01*
Y-17579D01*
X-175150D01*
Y-17608D01*
X-175208D01*
Y-17636D01*
X-175236D01*
Y-17665D01*
X-175265D01*
Y-17694D01*
X-175322D01*
Y-17722D01*
X-175351D01*
Y-17751D01*
X-175408D01*
Y-17780D01*
X-175466D01*
Y-17808D01*
X-175494D01*
Y-17837D01*
X-175552D01*
Y-17866D01*
X-175609D01*
Y-17894D01*
X-175638D01*
Y-17923D01*
X-175695D01*
Y-17952D01*
X-175752D01*
Y-17980D01*
X-175838D01*
Y-18009D01*
X-175896D01*
Y-18038D01*
X-175953D01*
Y-18066D01*
X-176039D01*
Y-18095D01*
X-176125D01*
Y-18124D01*
X-176211D01*
Y-18152D01*
X-176297D01*
Y-18181D01*
X-176411D01*
Y-18210D01*
X-176526D01*
Y-18238D01*
X-176698D01*
Y-18267D01*
X-176812D01*
Y-18296D01*
X-177128D01*
Y-18324D01*
X-180395D01*
Y-10272D01*
X-177357D01*
Y-10300D01*
D02*
G37*
G36*
X-157500Y-11275D02*
Y-11303D01*
Y-12707D01*
X-157471D01*
Y-12736D01*
X-156182D01*
Y-13453D01*
X-156210D01*
Y-13481D01*
X-157500D01*
Y-17178D01*
X-157471D01*
Y-17321D01*
X-157443D01*
Y-17379D01*
X-157414D01*
Y-17407D01*
X-157385D01*
Y-17464D01*
X-157357D01*
Y-17493D01*
X-157328D01*
Y-17522D01*
X-157271D01*
Y-17550D01*
X-157242D01*
Y-17579D01*
X-157185D01*
Y-17608D01*
X-157127D01*
Y-17636D01*
X-157013D01*
Y-17665D01*
X-156841D01*
Y-17694D01*
X-156755D01*
Y-17665D01*
X-156468D01*
Y-17636D01*
X-156325D01*
Y-17608D01*
X-156239D01*
Y-18439D01*
X-156354D01*
Y-18468D01*
X-156583D01*
Y-18496D01*
X-157385D01*
Y-18468D01*
X-157615D01*
Y-18439D01*
X-157729D01*
Y-18410D01*
X-157844D01*
Y-18382D01*
X-157930D01*
Y-18353D01*
X-157987D01*
Y-18324D01*
X-158045D01*
Y-18296D01*
X-158102D01*
Y-18267D01*
X-158159D01*
Y-18238D01*
X-158188D01*
Y-18210D01*
X-158245D01*
Y-18181D01*
X-158274D01*
Y-18152D01*
X-158302D01*
Y-18124D01*
X-158331D01*
Y-18066D01*
X-158360D01*
Y-18038D01*
X-158388D01*
Y-17980D01*
X-158417D01*
Y-17952D01*
X-158446D01*
Y-17894D01*
X-158474D01*
Y-17808D01*
X-158503D01*
Y-17722D01*
X-158532D01*
Y-17550D01*
X-158560D01*
Y-13510D01*
X-158589D01*
Y-13481D01*
X-159535D01*
Y-12736D01*
X-158589D01*
Y-12707D01*
X-158560D01*
Y-11532D01*
X-158503D01*
Y-11504D01*
X-158417D01*
Y-11475D01*
X-158331D01*
Y-11446D01*
X-158245D01*
Y-11418D01*
X-158130D01*
Y-11389D01*
X-158045D01*
Y-11360D01*
X-157958D01*
Y-11332D01*
X-157872D01*
Y-11303D01*
X-157787D01*
Y-11275D01*
X-157672D01*
Y-11246D01*
X-157586D01*
Y-11217D01*
X-157500D01*
Y-11275D01*
D02*
G37*
G36*
X-169820Y-12593D02*
X-169620D01*
Y-12622D01*
X-169505D01*
Y-12650D01*
X-169362D01*
Y-12679D01*
X-169276D01*
Y-12707D01*
X-169218D01*
Y-12736D01*
X-169104D01*
Y-12765D01*
X-169075D01*
Y-12793D01*
X-168989D01*
Y-12822D01*
X-168932D01*
Y-12851D01*
X-168874D01*
Y-12879D01*
X-168817D01*
Y-12908D01*
X-168789D01*
Y-12937D01*
X-168731D01*
Y-12965D01*
X-168703D01*
Y-12994D01*
X-168674D01*
Y-13023D01*
X-168617D01*
Y-13051D01*
X-168588D01*
Y-13080D01*
X-168559D01*
Y-13109D01*
X-168531D01*
Y-13137D01*
X-168502D01*
Y-13166D01*
X-168445D01*
Y-13195D01*
X-168416D01*
Y-13223D01*
X-168387D01*
Y-13281D01*
X-168359D01*
Y-13309D01*
X-168330D01*
Y-13338D01*
X-168301D01*
Y-13367D01*
X-168273D01*
Y-13395D01*
X-168244D01*
Y-13424D01*
X-168215D01*
Y-13481D01*
X-168187D01*
Y-13510D01*
X-168158D01*
Y-13567D01*
X-168129D01*
Y-13596D01*
X-168101D01*
Y-13653D01*
X-168072D01*
Y-13710D01*
X-168043D01*
Y-13739D01*
X-168015D01*
Y-13796D01*
X-167986D01*
Y-13854D01*
X-167957D01*
Y-13911D01*
X-167929D01*
Y-13997D01*
X-167900D01*
Y-14054D01*
X-167871D01*
Y-14140D01*
X-167843D01*
Y-14255D01*
X-167814D01*
Y-14341D01*
X-167785D01*
Y-14484D01*
X-167757D01*
Y-14627D01*
X-167728D01*
Y-14828D01*
X-167700D01*
Y-15716D01*
X-167728D01*
Y-15745D01*
X-171683D01*
Y-16204D01*
X-171654D01*
Y-16376D01*
X-171625D01*
Y-16490D01*
X-171597D01*
Y-16633D01*
X-171568D01*
Y-16719D01*
X-171540D01*
Y-16805D01*
X-171511D01*
Y-16891D01*
X-171482D01*
Y-16920D01*
X-171454D01*
Y-17006D01*
X-171425D01*
Y-17063D01*
X-171396D01*
Y-17092D01*
X-171368D01*
Y-17149D01*
X-171339D01*
Y-17178D01*
X-171310D01*
Y-17235D01*
X-171282D01*
Y-17264D01*
X-171253D01*
Y-17293D01*
X-171224D01*
Y-17321D01*
X-171196D01*
Y-17379D01*
X-171138D01*
Y-17407D01*
X-171110D01*
Y-17436D01*
X-171081D01*
Y-17464D01*
X-171052D01*
Y-17493D01*
X-170995D01*
Y-17522D01*
X-170966D01*
Y-17550D01*
X-170909D01*
Y-17579D01*
X-170852D01*
Y-17608D01*
X-170795D01*
Y-17636D01*
X-170709D01*
Y-17665D01*
X-170623D01*
Y-17694D01*
X-170422D01*
Y-17722D01*
X-170049D01*
Y-17694D01*
X-169792D01*
Y-17665D01*
X-169706D01*
Y-17636D01*
X-169620D01*
Y-17608D01*
X-169534D01*
Y-17579D01*
X-169476D01*
Y-17550D01*
X-169419D01*
Y-17522D01*
X-169390D01*
Y-17493D01*
X-169362D01*
Y-17464D01*
X-169304D01*
Y-17436D01*
X-169276D01*
Y-17407D01*
X-169247D01*
Y-17379D01*
X-169218D01*
Y-17350D01*
X-169190D01*
Y-17321D01*
X-169161D01*
Y-17264D01*
X-169132D01*
Y-17235D01*
X-169104D01*
Y-17178D01*
X-169075D01*
Y-17121D01*
X-169046D01*
Y-17063D01*
X-169018D01*
Y-17006D01*
X-168989D01*
Y-16920D01*
X-168960D01*
Y-16834D01*
X-168932D01*
Y-16691D01*
X-168903D01*
Y-16605D01*
X-168874D01*
Y-16576D01*
X-167785D01*
Y-16605D01*
X-167757D01*
Y-16633D01*
X-167785D01*
Y-16805D01*
X-167814D01*
Y-16891D01*
X-167843D01*
Y-17006D01*
X-167871D01*
Y-17092D01*
X-167900D01*
Y-17178D01*
X-167929D01*
Y-17235D01*
X-167957D01*
Y-17293D01*
X-167986D01*
Y-17350D01*
X-168015D01*
Y-17407D01*
X-168043D01*
Y-17464D01*
X-168072D01*
Y-17493D01*
X-168101D01*
Y-17550D01*
X-168129D01*
Y-17579D01*
X-168158D01*
Y-17636D01*
X-168187D01*
Y-17665D01*
X-168215D01*
Y-17694D01*
X-168244D01*
Y-17751D01*
X-168301D01*
Y-17780D01*
X-168330D01*
Y-17837D01*
X-168387D01*
Y-17894D01*
X-168416D01*
Y-17923D01*
X-168473D01*
Y-17952D01*
X-168502D01*
Y-17980D01*
X-168531D01*
Y-18009D01*
X-168588D01*
Y-18038D01*
X-168617D01*
Y-18066D01*
X-168645D01*
Y-18095D01*
X-168703D01*
Y-18124D01*
X-168731D01*
Y-18152D01*
X-168789D01*
Y-18181D01*
X-168846D01*
Y-18210D01*
X-168903D01*
Y-18238D01*
X-168960D01*
Y-18267D01*
X-169018D01*
Y-18296D01*
X-169104D01*
Y-18324D01*
X-169190D01*
Y-18353D01*
X-169276D01*
Y-18382D01*
X-169390D01*
Y-18410D01*
X-169505D01*
Y-18439D01*
X-169648D01*
Y-18468D01*
X-169877D01*
Y-18496D01*
X-170651D01*
Y-18468D01*
X-170852D01*
Y-18439D01*
X-170995D01*
Y-18410D01*
X-171081D01*
Y-18382D01*
X-171196D01*
Y-18353D01*
X-171282D01*
Y-18324D01*
X-171339D01*
Y-18296D01*
X-171425D01*
Y-18267D01*
X-171482D01*
Y-18238D01*
X-171540D01*
Y-18210D01*
X-171597D01*
Y-18181D01*
X-171625D01*
Y-18152D01*
X-171683D01*
Y-18124D01*
X-171712D01*
Y-18095D01*
X-171769D01*
Y-18066D01*
X-171826D01*
Y-18038D01*
X-171855D01*
Y-18009D01*
X-171884D01*
Y-17980D01*
X-171912D01*
Y-17952D01*
X-171941D01*
Y-17923D01*
X-171969D01*
Y-17894D01*
X-171998D01*
Y-17866D01*
X-172027D01*
Y-17837D01*
X-172055D01*
Y-17808D01*
X-172084D01*
Y-17780D01*
X-172113D01*
Y-17751D01*
X-172141D01*
Y-17722D01*
X-172170D01*
Y-17694D01*
X-172199D01*
Y-17636D01*
X-172227D01*
Y-17608D01*
X-172256D01*
Y-17579D01*
X-172285D01*
Y-17522D01*
X-172313D01*
Y-17493D01*
X-172342D01*
Y-17436D01*
X-172371D01*
Y-17379D01*
X-172399D01*
Y-17350D01*
X-172428D01*
Y-17264D01*
X-172457D01*
Y-17207D01*
X-172485D01*
Y-17178D01*
X-172514D01*
Y-17092D01*
X-172543D01*
Y-17006D01*
X-172571D01*
Y-16949D01*
X-172600D01*
Y-16834D01*
X-172629D01*
Y-16748D01*
X-172657D01*
Y-16633D01*
X-172686D01*
Y-16490D01*
X-172715D01*
Y-16376D01*
X-172743D01*
Y-16089D01*
X-172772D01*
Y-15086D01*
X-172743D01*
Y-14828D01*
X-172715D01*
Y-14685D01*
X-172686D01*
Y-14570D01*
X-172657D01*
Y-14427D01*
X-172629D01*
Y-14369D01*
X-172600D01*
Y-14255D01*
X-172571D01*
Y-14169D01*
X-172543D01*
Y-14112D01*
X-172514D01*
Y-14026D01*
X-172485D01*
Y-13997D01*
X-172457D01*
Y-13911D01*
X-172428D01*
Y-13854D01*
X-172399D01*
Y-13825D01*
X-172371D01*
Y-13739D01*
X-172342D01*
Y-13710D01*
X-172313D01*
Y-13653D01*
X-172285D01*
Y-13625D01*
X-172256D01*
Y-13567D01*
X-172227D01*
Y-13539D01*
X-172199D01*
Y-13481D01*
X-172170D01*
Y-13453D01*
X-172141D01*
Y-13424D01*
X-172113D01*
Y-13395D01*
X-172084D01*
Y-13367D01*
X-172055D01*
Y-13309D01*
X-172027D01*
Y-13281D01*
X-171998D01*
Y-13252D01*
X-171969D01*
Y-13223D01*
X-171941D01*
Y-13195D01*
X-171912D01*
Y-13166D01*
X-171884D01*
Y-13137D01*
X-171826D01*
Y-13109D01*
X-171798D01*
Y-13080D01*
X-171769D01*
Y-13051D01*
X-171740D01*
Y-13023D01*
X-171683D01*
Y-12994D01*
X-171654D01*
Y-12965D01*
X-171597D01*
Y-12937D01*
X-171568D01*
Y-12908D01*
X-171511D01*
Y-12879D01*
X-171454D01*
Y-12851D01*
X-171425D01*
Y-12822D01*
X-171368D01*
Y-12793D01*
X-171282D01*
Y-12765D01*
X-171224D01*
Y-12736D01*
X-171138D01*
Y-12707D01*
X-171052D01*
Y-12679D01*
X-170995D01*
Y-12650D01*
X-170852D01*
Y-12622D01*
X-170737D01*
Y-12593D01*
X-170537D01*
Y-12564D01*
X-169820D01*
Y-12593D01*
D02*
G37*
G36*
X-188818Y-18887D02*
X-188929Y-18813D01*
X-189063Y-18748D01*
X-189219Y-18690D01*
X-189398Y-18639D01*
X-189598Y-18597D01*
X-189821Y-18562D01*
X-190334Y-18515D01*
X-190936Y-18500D01*
Y-16500D01*
X-190624Y-16496D01*
X-189821Y-16438D01*
X-189598Y-16403D01*
X-189398Y-16361D01*
X-189219Y-16310D01*
X-189063Y-16252D01*
X-188929Y-16187D01*
X-188818Y-16113D01*
Y-18887D01*
D02*
G37*
G36*
X-142989Y-16745D02*
X-142958Y-16973D01*
X-142905Y-17202D01*
X-142831Y-17432D01*
X-142736Y-17663D01*
X-142619Y-17895D01*
X-142482Y-18129D01*
X-142323Y-18364D01*
X-142144Y-18599D01*
X-141943Y-18836D01*
X-144710Y-19035D01*
X-144575Y-18818D01*
X-144454Y-18597D01*
X-144348Y-18371D01*
X-144256Y-18141D01*
X-144178Y-17907D01*
X-144114Y-17668D01*
X-144064Y-17424D01*
X-144028Y-17177D01*
X-144007Y-16925D01*
X-144000Y-16669D01*
X-143000Y-16518D01*
X-142989Y-16745D01*
D02*
G37*
G36*
X-188818Y-28887D02*
X-188929Y-28813D01*
X-189063Y-28747D01*
X-189219Y-28689D01*
X-189398Y-28639D01*
X-189598Y-28597D01*
X-189821Y-28562D01*
X-190334Y-28516D01*
X-190936Y-28500D01*
Y-26500D01*
X-190624Y-26496D01*
X-189821Y-26438D01*
X-189598Y-26403D01*
X-189398Y-26361D01*
X-189219Y-26311D01*
X-189063Y-26253D01*
X-188929Y-26187D01*
X-188818Y-26113D01*
Y-28887D01*
D02*
G37*
G36*
X-31364Y17713D02*
X-31329Y17491D01*
X-31272Y17268D01*
X-31193Y17042D01*
X-31090Y16814D01*
X-30965Y16585D01*
X-30817Y16353D01*
X-30646Y16120D01*
X-30452Y15885D01*
X-30235Y15647D01*
X-32994Y15348D01*
X-32877Y15555D01*
X-32771Y15768D01*
X-32678Y15987D01*
X-32598Y16213D01*
X-32530Y16445D01*
X-32474Y16684D01*
X-32431Y16929D01*
X-32400Y17181D01*
X-32375Y17703D01*
X-31375Y17933D01*
X-31364Y17713D01*
D02*
G37*
G36*
X-37205Y17667D02*
X-37144Y17488D01*
X-37050Y17309D01*
X-36923Y17130D01*
X-36761Y16951D01*
X-36566Y16772D01*
X-36337Y16593D01*
X-36074Y16414D01*
X-35777Y16234D01*
X-35447Y16055D01*
X-37960Y14871D01*
X-37946Y14971D01*
X-37939Y15101D01*
X-37940Y15262D01*
X-37967Y15673D01*
X-38065Y16516D01*
X-38171Y17228D01*
X-37231Y17846D01*
X-37205Y17667D01*
D02*
G37*
G36*
X-25933Y17335D02*
X-25847Y17157D01*
X-25731Y16982D01*
X-25584Y16811D01*
X-25406Y16643D01*
X-25198Y16479D01*
X-24960Y16319D01*
X-24690Y16162D01*
X-24391Y16008D01*
X-24061Y15859D01*
X-26482Y14500D01*
X-26467Y14651D01*
X-26465Y14821D01*
X-26473Y15011D01*
X-26525Y15447D01*
X-26568Y15695D01*
X-26768Y16553D01*
X-26858Y16877D01*
X-25988Y17517D01*
X-25933Y17335D01*
D02*
G37*
G36*
X-42400Y17133D02*
X-42283Y16968D01*
X-42138Y16810D01*
X-41966Y16661D01*
X-41765Y16521D01*
X-41536Y16388D01*
X-41280Y16264D01*
X-40995Y16147D01*
X-40682Y16039D01*
X-40342Y15939D01*
X-42548Y14255D01*
X-42555Y14431D01*
X-42576Y14619D01*
X-42611Y14820D01*
X-42661Y15034D01*
X-42803Y15500D01*
X-42896Y15752D01*
X-43260Y16585D01*
X-42488Y17306D01*
X-42400Y17133D01*
D02*
G37*
G36*
X-80997Y14864D02*
X-80986Y14740D01*
X-80969Y14629D01*
X-80944Y14532D01*
X-80913Y14447D01*
X-80875Y14375D01*
X-80830Y14315D01*
X-80778Y14269D01*
X-80719Y14236D01*
X-80653Y14215D01*
X-82230Y13745D01*
X-82186Y13798D01*
X-82147Y13868D01*
X-82113Y13953D01*
X-82083Y14055D01*
X-82058Y14172D01*
X-82037Y14306D01*
X-82009Y14621D01*
X-82000Y15000D01*
X-81000D01*
X-80997Y14864D01*
D02*
G37*
G36*
X-63998Y15209D02*
X-63938Y14296D01*
X-63910Y14131D01*
X-63878Y13992D01*
X-63840Y13877D01*
X-63797Y13788D01*
X-63750Y13725D01*
X-66250D01*
X-66203Y13788D01*
X-66160Y13877D01*
X-66122Y13992D01*
X-66090Y14131D01*
X-66062Y14296D01*
X-66023Y14702D01*
X-66002Y15209D01*
X-66000Y15500D01*
X-64000D01*
X-63998Y15209D01*
D02*
G37*
G36*
X-44176Y12890D02*
X-44447Y12485D01*
X-44558Y12284D01*
X-44651Y12085D01*
X-44728Y11887D01*
X-44787Y11691D01*
X-44830Y11496D01*
X-44855Y11303D01*
X-44864Y11111D01*
X-45864D01*
X-45872Y11303D01*
X-45898Y11496D01*
X-45940Y11691D01*
X-45999Y11887D01*
X-46076Y12085D01*
X-46169Y12284D01*
X-46280Y12485D01*
X-46407Y12687D01*
X-46552Y12890D01*
X-46713Y13096D01*
X-44014D01*
X-44176Y12890D01*
D02*
G37*
G36*
X-35032Y13202D02*
X-35182Y12969D01*
X-35315Y12736D01*
X-35431Y12502D01*
X-35528Y12267D01*
X-35608Y12030D01*
X-35670Y11793D01*
X-35714Y11554D01*
X-35741Y11314D01*
X-35750Y11073D01*
X-36750D01*
X-36759Y11314D01*
X-36785Y11554D01*
X-36830Y11793D01*
X-36892Y12030D01*
X-36972Y12267D01*
X-37069Y12502D01*
X-37185Y12736D01*
X-37318Y12969D01*
X-37468Y13202D01*
X-37637Y13433D01*
X-34863D01*
X-35032Y13202D01*
D02*
G37*
G36*
X-30377Y13095D02*
X-30638Y12867D01*
X-31077Y12421D01*
X-31256Y12202D01*
X-31407Y11986D01*
X-31530Y11774D01*
X-31627Y11565D01*
X-31695Y11358D01*
X-31736Y11156D01*
X-31750Y10956D01*
X-32750Y11106D01*
X-32753Y11467D01*
X-32835Y12687D01*
X-32872Y12936D01*
X-32967Y13366D01*
X-33025Y13547D01*
X-33090Y13706D01*
X-30377Y13095D01*
D02*
G37*
G36*
X-39460Y13083D02*
X-39577Y12864D01*
X-39681Y12639D01*
X-39770Y12410D01*
X-39846Y12176D01*
X-39908Y11937D01*
X-39956Y11694D01*
X-39990Y11445D01*
X-40011Y11192D01*
X-40018Y10934D01*
X-41018Y10764D01*
X-41029Y10989D01*
X-41061Y11215D01*
X-41115Y11443D01*
X-41190Y11672D01*
X-41287Y11903D01*
X-41406Y12134D01*
X-41546Y12368D01*
X-41707Y12602D01*
X-41890Y12838D01*
X-42095Y13075D01*
X-39330Y13298D01*
X-39460Y13083D01*
D02*
G37*
G36*
X-56542Y10400D02*
X-56776Y10569D01*
X-57239Y10855D01*
X-57467Y10971D01*
X-57693Y11070D01*
X-57917Y11150D01*
X-58139Y11213D01*
X-58359Y11257D01*
X-58578Y11284D01*
X-58794Y11293D01*
Y12293D01*
X-58578Y12302D01*
X-58359Y12329D01*
X-58139Y12374D01*
X-57917Y12436D01*
X-57693Y12517D01*
X-57467Y12615D01*
X-57239Y12731D01*
X-57008Y12865D01*
X-56542Y13187D01*
Y10400D01*
D02*
G37*
G36*
X-80098Y10983D02*
X-80195Y10883D01*
X-80273Y10776D01*
X-80333Y10663D01*
X-80373Y10542D01*
X-80395Y10415D01*
X-80398Y10280D01*
X-80382Y10139D01*
X-80347Y9990D01*
X-80293Y9835D01*
X-81345Y9823D01*
X-81403Y10011D01*
X-81588Y10492D01*
X-81653Y10624D01*
X-81721Y10742D01*
X-81791Y10846D01*
X-81862Y10935D01*
X-81936Y11011D01*
X-82011Y11072D01*
X-79982Y11076D01*
X-80098Y10983D01*
D02*
G37*
G36*
X-63678Y11334D02*
X-63710Y11273D01*
X-63752Y11187D01*
X-63811Y11031D01*
X-63861Y10852D01*
X-63903Y10652D01*
X-63938Y10429D01*
X-63990Y9715D01*
X-64000Y9314D01*
X-66000D01*
X-66010Y9715D01*
X-66062Y10429D01*
X-66097Y10652D01*
X-66139Y10852D01*
X-66189Y11031D01*
X-66248Y11187D01*
X-66290Y11273D01*
X-66322Y11334D01*
X-66398Y11447D01*
X-63602D01*
X-63678Y11334D01*
D02*
G37*
G36*
X-47338Y8715D02*
X-47281Y8444D01*
X-47210Y8185D01*
X-47126Y7938D01*
X-47028Y7703D01*
X-46918Y7479D01*
X-46793Y7267D01*
X-46656Y7067D01*
X-46505Y6879D01*
X-46341Y6702D01*
X-47048Y5995D01*
X-47225Y6159D01*
X-47413Y6310D01*
X-47613Y6447D01*
X-47825Y6571D01*
X-48049Y6682D01*
X-48284Y6780D01*
X-48531Y6864D01*
X-48790Y6935D01*
X-49061Y6992D01*
X-49344Y7036D01*
X-47382Y8997D01*
X-47338Y8715D01*
D02*
G37*
G36*
X-21981Y7033D02*
X-21841Y6959D01*
X-21680Y6894D01*
X-21497Y6837D01*
X-21294Y6789D01*
X-21070Y6750D01*
X-20558Y6698D01*
X-20271Y6685D01*
X-19962Y6680D01*
X-20059Y4681D01*
X-20375Y4677D01*
X-21402Y4596D01*
X-21600Y4559D01*
X-21774Y4515D01*
X-21925Y4464D01*
X-22051Y4407D01*
X-22155Y4342D01*
X-22100Y7115D01*
X-21981Y7033D01*
D02*
G37*
G36*
X-24234Y4342D02*
X-24338Y4407D01*
X-24464Y4464D01*
X-24615Y4515D01*
X-24789Y4559D01*
X-24987Y4596D01*
X-26014Y4677D01*
X-26330Y4681D01*
X-26427Y6680D01*
X-26118Y6685D01*
X-25831Y6698D01*
X-25319Y6750D01*
X-25095Y6789D01*
X-24892Y6837D01*
X-24709Y6894D01*
X-24548Y6959D01*
X-24408Y7033D01*
X-24289Y7115D01*
X-24234Y4342D01*
D02*
G37*
G36*
X-53317Y863D02*
X-53548Y1032D01*
X-53780Y1182D01*
X-54014Y1315D01*
X-54248Y1431D01*
X-54483Y1528D01*
X-54720Y1608D01*
X-54957Y1670D01*
X-55196Y1715D01*
X-55436Y1741D01*
X-55677Y1750D01*
Y2750D01*
X-55436Y2759D01*
X-55196Y2785D01*
X-54957Y2830D01*
X-54720Y2892D01*
X-54483Y2972D01*
X-54248Y3069D01*
X-54014Y3185D01*
X-53780Y3318D01*
X-53548Y3468D01*
X-53317Y3637D01*
Y863D01*
D02*
G37*
G36*
X-26450Y-12229D02*
X-26522Y-12136D01*
X-26619Y-12030D01*
X-26742Y-11911D01*
X-27063Y-11638D01*
X-27485Y-11316D01*
X-28308Y-10742D01*
X-28102Y-9652D01*
X-27950Y-9754D01*
X-27775Y-9833D01*
X-27578Y-9887D01*
X-27358Y-9917D01*
X-27116Y-9923D01*
X-26851Y-9906D01*
X-26564Y-9864D01*
X-26255Y-9798D01*
X-25923Y-9709D01*
X-25569Y-9595D01*
X-26450Y-12229D01*
D02*
G37*
G36*
X-43318Y-8518D02*
X-43289Y-8764D01*
X-43240Y-9004D01*
X-43171Y-9236D01*
X-43083Y-9462D01*
X-42975Y-9681D01*
X-42848Y-9893D01*
X-42701Y-10099D01*
X-42534Y-10298D01*
X-42348Y-10490D01*
X-45094Y-10903D01*
X-45043Y-10795D01*
X-44998Y-10665D01*
X-44958Y-10511D01*
X-44924Y-10334D01*
X-44870Y-9912D01*
X-44839Y-9397D01*
X-44828Y-8791D01*
X-43328Y-8266D01*
X-43318Y-8518D01*
D02*
G37*
G36*
X-39195Y-8691D02*
X-39078Y-8854D01*
X-38932Y-9008D01*
X-38758Y-9154D01*
X-38555Y-9292D01*
X-38324Y-9421D01*
X-38065Y-9541D01*
X-37778Y-9653D01*
X-37462Y-9757D01*
X-37118Y-9852D01*
X-39298Y-11570D01*
X-39307Y-11399D01*
X-39331Y-11214D01*
X-39370Y-11016D01*
X-39423Y-10804D01*
X-39573Y-10340D01*
X-39670Y-10088D01*
X-40049Y-9250D01*
X-39285Y-8520D01*
X-39195Y-8691D01*
D02*
G37*
G36*
X-17241Y-17064D02*
X-17214Y-17304D01*
X-17170Y-17543D01*
X-17108Y-17780D01*
X-17028Y-18017D01*
X-16931Y-18252D01*
X-16816Y-18486D01*
X-16682Y-18720D01*
X-16532Y-18952D01*
X-16363Y-19182D01*
X-19137D01*
X-18968Y-18952D01*
X-18817Y-18720D01*
X-18685Y-18486D01*
X-18569Y-18252D01*
X-18472Y-18017D01*
X-18392Y-17780D01*
X-18330Y-17543D01*
X-18285Y-17304D01*
X-18259Y-17064D01*
X-18250Y-16823D01*
X-17250D01*
X-17241Y-17064D01*
D02*
G37*
%LPC*%
G36*
X-177414Y-11246D02*
X-179248D01*
Y-11275D01*
X-179277D01*
Y-17321D01*
X-179248D01*
Y-17379D01*
X-177443D01*
Y-17350D01*
X-177214D01*
Y-17321D01*
X-177013D01*
Y-17293D01*
X-176870D01*
Y-17264D01*
X-176784D01*
Y-17235D01*
X-176669D01*
Y-17207D01*
X-176612D01*
Y-17178D01*
X-176526D01*
Y-17149D01*
X-176440D01*
Y-17121D01*
X-176411D01*
Y-17092D01*
X-176325D01*
Y-17063D01*
X-176297D01*
Y-17035D01*
X-176239D01*
Y-17006D01*
X-176182D01*
Y-16977D01*
X-176153D01*
Y-16949D01*
X-176096D01*
Y-16920D01*
X-176067D01*
Y-16891D01*
X-176039D01*
Y-16863D01*
X-175981D01*
Y-16834D01*
X-175953D01*
Y-16805D01*
X-175924D01*
Y-16777D01*
X-175896D01*
Y-16748D01*
X-175867D01*
Y-16719D01*
X-175838D01*
Y-16691D01*
X-175809D01*
Y-16662D01*
X-175781D01*
Y-16633D01*
X-175752D01*
Y-16605D01*
X-175723D01*
Y-16576D01*
X-175695D01*
Y-16547D01*
X-175666D01*
Y-16519D01*
X-175638D01*
Y-16461D01*
X-175609D01*
Y-16433D01*
X-175580D01*
Y-16404D01*
X-175552D01*
Y-16347D01*
X-175523D01*
Y-16318D01*
X-175494D01*
Y-16261D01*
X-175466D01*
Y-16232D01*
X-175437D01*
Y-16175D01*
X-175408D01*
Y-16118D01*
X-175380D01*
Y-16089D01*
X-175351D01*
Y-16003D01*
X-175322D01*
Y-15946D01*
X-175294D01*
Y-15888D01*
X-175265D01*
Y-15802D01*
X-175236D01*
Y-15745D01*
X-175208D01*
Y-15659D01*
X-175179D01*
Y-15573D01*
X-175150D01*
Y-15487D01*
X-175122D01*
Y-15373D01*
X-175093D01*
Y-15229D01*
X-175064D01*
Y-15086D01*
X-175036D01*
Y-14857D01*
X-175007D01*
Y-14398D01*
X-174978D01*
Y-14198D01*
X-175007D01*
Y-13768D01*
X-175036D01*
Y-13510D01*
X-175064D01*
Y-13395D01*
X-175093D01*
Y-13252D01*
X-175122D01*
Y-13137D01*
X-175150D01*
Y-13051D01*
X-175179D01*
Y-12937D01*
X-175208D01*
Y-12879D01*
X-175236D01*
Y-12793D01*
X-175265D01*
Y-12707D01*
X-175294D01*
Y-12679D01*
X-175322D01*
Y-12593D01*
X-175351D01*
Y-12536D01*
X-175380D01*
Y-12507D01*
X-175408D01*
Y-12421D01*
X-175437D01*
Y-12392D01*
X-175466D01*
Y-12335D01*
X-175494D01*
Y-12278D01*
X-175523D01*
Y-12249D01*
X-175552D01*
Y-12220D01*
X-175580D01*
Y-12163D01*
X-175609D01*
Y-12134D01*
X-175638D01*
Y-12106D01*
X-175666D01*
Y-12077D01*
X-175695D01*
Y-12020D01*
X-175723D01*
Y-11991D01*
X-175752D01*
Y-11962D01*
X-175781D01*
Y-11934D01*
X-175809D01*
Y-11905D01*
X-175838D01*
Y-11876D01*
X-175867D01*
Y-11848D01*
X-175896D01*
Y-11819D01*
X-175953D01*
Y-11790D01*
X-175981D01*
Y-11762D01*
X-176010D01*
Y-11733D01*
X-176039D01*
Y-11704D01*
X-176096D01*
Y-11676D01*
X-176125D01*
Y-11647D01*
X-176182D01*
Y-11618D01*
X-176211D01*
Y-11590D01*
X-176268D01*
Y-11561D01*
X-176325D01*
Y-11532D01*
X-176383D01*
Y-11504D01*
X-176440D01*
Y-11475D01*
X-176497D01*
Y-11446D01*
X-176555D01*
Y-11418D01*
X-176641D01*
Y-11389D01*
X-176726D01*
Y-11360D01*
X-176841D01*
Y-11332D01*
X-176956D01*
Y-11303D01*
X-177070D01*
Y-11275D01*
X-177414D01*
Y-11246D01*
D02*
G37*
G36*
X-170021Y-13338D02*
X-170451D01*
Y-13367D01*
X-170565D01*
Y-13395D01*
X-170680D01*
Y-13424D01*
X-170766D01*
Y-13453D01*
X-170823D01*
Y-13481D01*
X-170881D01*
Y-13510D01*
X-170938D01*
Y-13539D01*
X-170966D01*
Y-13567D01*
X-171024D01*
Y-13596D01*
X-171052D01*
Y-13625D01*
X-171081D01*
Y-13653D01*
X-171110D01*
Y-13682D01*
X-171138D01*
Y-13710D01*
X-171167D01*
Y-13739D01*
X-171196D01*
Y-13768D01*
X-171224D01*
Y-13796D01*
X-171253D01*
Y-13825D01*
X-171282D01*
Y-13854D01*
X-171310D01*
Y-13882D01*
X-171339D01*
Y-13940D01*
X-171368D01*
Y-13968D01*
X-171396D01*
Y-14026D01*
X-171425D01*
Y-14083D01*
X-171454D01*
Y-14140D01*
X-171482D01*
Y-14198D01*
X-171511D01*
Y-14255D01*
X-171540D01*
Y-14341D01*
X-171568D01*
Y-14398D01*
X-171597D01*
Y-14541D01*
X-171625D01*
Y-14656D01*
X-171654D01*
Y-14885D01*
X-171683D01*
Y-14971D01*
X-171654D01*
Y-15000D01*
X-168846D01*
Y-14971D01*
X-168817D01*
Y-14943D01*
X-168846D01*
Y-14570D01*
X-168874D01*
Y-14427D01*
X-168903D01*
Y-14312D01*
X-168932D01*
Y-14226D01*
X-168960D01*
Y-14140D01*
X-168989D01*
Y-14083D01*
X-169018D01*
Y-13997D01*
X-169046D01*
Y-13968D01*
X-169075D01*
Y-13911D01*
X-169104D01*
Y-13882D01*
X-169132D01*
Y-13825D01*
X-169161D01*
Y-13796D01*
X-169190D01*
Y-13768D01*
X-169218D01*
Y-13710D01*
X-169276D01*
Y-13682D01*
X-169304D01*
Y-13653D01*
X-169333D01*
Y-13625D01*
X-169362D01*
Y-13596D01*
X-169390D01*
Y-13567D01*
X-169448D01*
Y-13539D01*
X-169476D01*
Y-13510D01*
X-169534D01*
Y-13481D01*
X-169620D01*
Y-13453D01*
X-169677D01*
Y-13424D01*
X-169763D01*
Y-13395D01*
X-169877D01*
Y-13367D01*
X-170021D01*
Y-13338D01*
D02*
G37*
%LPD*%
D10*
X-116750Y11750D02*
X-101750D01*
X-131750D02*
X-116750D01*
Y-9000D02*
Y11750D01*
X1750Y-5500D02*
X3250Y-7000D01*
X-28180Y5681D02*
X-18069D01*
X-28250Y5750D02*
X-28180Y5681D01*
X-18069D02*
X-18000Y5611D01*
X-2000Y7000D02*
X107000D01*
X-2000Y-10000D02*
Y7000D01*
X-5000Y10000D02*
X110000D01*
X-5000Y-13000D02*
Y10000D01*
Y-13000D02*
X113000D01*
X-2000Y-10000D02*
X110000D01*
X-8000Y-16000D02*
X116000D01*
X-8000D02*
Y13000D01*
X-11000Y-19000D02*
X119000D01*
X-11000D02*
Y16000D01*
X-14000Y-22000D02*
X122000D01*
X-14000D02*
Y19000D01*
X122000Y-22000D02*
Y22000D01*
X119000Y-19000D02*
Y19000D01*
X116000Y-16000D02*
Y16000D01*
X113000Y-12750D02*
Y13000D01*
X110000Y-10000D02*
Y10000D01*
X107000Y-7000D02*
Y7000D01*
X3250Y-7000D02*
X107000D01*
X-12250Y22000D02*
X122000D01*
X-14000Y19000D02*
X119000D01*
X-11000Y16000D02*
X116000D01*
X-8000Y13000D02*
X113000D01*
X-21467Y9750D02*
X-18218Y13000D01*
X-18000D01*
X-28250Y9750D02*
X-21467D01*
X-17000Y14406D02*
Y21770D01*
X-17947Y13053D02*
Y13459D01*
X-17000Y14406D01*
Y21770D02*
X-16770Y22000D01*
X-12250D01*
X-66250Y16750D02*
X-65000Y15500D01*
X-74750Y18250D02*
X-73750Y17250D01*
X-65278Y-8000D02*
X-65000Y-8278D01*
X-65278Y-8000D02*
X-65000Y-7722D01*
X-66050Y-17150D02*
X-65000Y-16100D01*
Y12500D02*
Y15500D01*
Y8000D02*
Y12500D01*
Y-7722D02*
Y8000D01*
X-212750Y7500D02*
X-187750D01*
X-212750Y-27500D02*
X-187750D01*
X-73750Y17250D02*
X-65250D01*
X-212750Y-7500D02*
X-187750D01*
X-212750Y2500D02*
X-187750D01*
X-47655Y-2326D02*
X-44327D01*
X-44250Y-2250D01*
X-65000Y-16100D02*
Y-8278D01*
X-65450Y-17750D02*
X-54800D01*
X-212750Y-17500D02*
X-187750D01*
X-212750Y22500D02*
X-187750D01*
X-212750Y17500D02*
X-187750D01*
X-212750Y12500D02*
X-187750D01*
X-212750Y-2500D02*
X-187750D01*
X-212750Y-12500D02*
X-187750D01*
X-45950Y-17750D02*
X-44300Y-16100D01*
D12*
X-41067Y-14407D02*
G03*
X-39583Y-15684I1483J223D01*
G01*
X-41068Y-14399D02*
G03*
X-42126Y-13035I-1732J-251D01*
G01*
X-42587Y-12726D02*
G03*
X-42126Y-13035I1052J1069D01*
G01*
X-39583Y-15684D02*
X-37450D01*
X-41068Y-14399D02*
X-41067Y-14407D01*
X-37450Y-15684D02*
X-34800Y-17500D01*
X-43562Y-11750D02*
X-42587Y-12726D01*
X-43700Y-11275D02*
Y-11201D01*
X-44078Y-10823D02*
Y-6422D01*
X-44250Y-6250D02*
X-44078Y-6422D01*
X-32250Y9750D02*
X-32196Y9804D01*
D13*
X-102750Y11750D02*
D03*
Y-10250D02*
D03*
X-132250Y11750D02*
D03*
Y-10250D02*
D03*
D15*
X-84250Y17250D02*
D03*
X-75750D02*
D03*
X-65250D02*
D03*
X-56750D02*
D03*
D16*
X-59500Y-2500D02*
D03*
Y2500D02*
D03*
X-75500Y-2500D02*
D03*
Y2500D02*
D03*
D17*
X-65000Y8000D02*
D03*
X-60000D02*
D03*
X-70000D02*
D03*
Y-8000D02*
D03*
X-60000D02*
D03*
X-65000D02*
D03*
X-75000D02*
D03*
Y8000D02*
D03*
D18*
X-65450Y-17750D02*
D03*
X-74050D02*
D03*
X-26200Y-17500D02*
D03*
X-34800D02*
D03*
X-54800Y-17750D02*
D03*
X-46200D02*
D03*
D22*
X-18218Y13000D02*
D03*
X-18000Y5611D02*
D03*
X-26623Y19750D02*
D03*
X-43482Y19750D02*
D03*
X-49226D02*
D03*
X-21250D02*
D03*
X-37738D02*
D03*
X-32250D02*
D03*
X-51983Y-5539D02*
D03*
X-55000Y-12750D02*
D03*
X-117000Y16750D02*
D03*
X-85500Y3000D02*
D03*
X-25000Y-11250D02*
D03*
X-22750Y-6500D02*
D03*
X-17750Y-20250D02*
D03*
X-143250Y-20000D02*
D03*
X-149250Y-5000D02*
D03*
X-116750Y-9000D02*
D03*
X-37548Y-11548D02*
D03*
X-23194Y5750D02*
D03*
X1750Y-5500D02*
D03*
X-89263Y11844D02*
D03*
X-81000Y12500D02*
D03*
X-55483Y11793D02*
D03*
X-187750Y7500D02*
D03*
X-52250Y2250D02*
D03*
X-70000Y3500D02*
D03*
X-187750Y-27500D02*
D03*
X-45364Y14210D02*
D03*
X-49118Y8772D02*
D03*
X-65000Y12500D02*
D03*
X-43562Y-11750D02*
D03*
X-187750Y-2500D02*
D03*
X-47655Y-2326D02*
D03*
X-21250Y19750D02*
D03*
X-187750Y-12500D02*
D03*
X-40798Y14250D02*
D03*
X-187750Y-7500D02*
D03*
Y2500D02*
D03*
X-36250Y14500D02*
D03*
X-24750Y14250D02*
D03*
X-187750Y-17500D02*
D03*
Y17500D02*
D03*
Y22500D02*
D03*
Y12500D02*
D03*
X-31500Y14438D02*
D03*
D27*
X-24103Y17699D02*
G03*
X-23373Y19750I-2521J2051D01*
G01*
X-19500Y15986D02*
G03*
X-21454Y13299I1283J-2986D01*
G01*
X-21500Y14250D02*
G03*
X-23147Y17077I-3250J0D01*
G01*
X-21748Y13005D02*
G03*
X-21500Y14250I-3002J1245D01*
G01*
X-23373Y19750D02*
G03*
X-24479Y22192I-3250J0D01*
G01*
X-32118Y7053D02*
G03*
X-30250Y7936I-132J2697D01*
G01*
X-30064Y7750D02*
G03*
X-27421Y3180I1814J-2000D01*
G01*
X-38250Y3936D02*
G03*
X-33553Y5618I2000J1814D01*
G01*
X-20021Y3066D02*
G03*
X-17454Y2407I2021J2545D01*
G01*
X-18836Y-836D02*
G03*
X-20250Y-250I-1414J-1414D01*
G01*
X-18836Y-836D02*
G03*
X-20250Y-250I-1414J-1414D01*
G01*
X-24778Y2912D02*
G03*
X-21611Y2912I1583J2838D01*
G01*
X-30436Y-250D02*
G03*
X-34064Y-250I-1814J-2000D01*
G01*
X-26436D02*
G03*
X-30064Y-250I-1814J-2000D01*
G01*
Y-4250D02*
G03*
X-26436Y-4250I1814J2000D01*
G01*
X-68211Y13000D02*
G03*
X-68211Y12000I3211J-500D01*
G01*
X-42250Y3936D02*
G03*
X-38250Y3936I2000J1814D01*
G01*
X-41550Y1750D02*
G03*
X-42436Y3750I-2700J0D01*
G01*
X-34436Y-250D02*
G03*
X-38064Y-250I-1814J-2000D01*
G01*
Y-4250D02*
G03*
X-34436Y-4250I1814J2000D01*
G01*
X-46333Y32D02*
G03*
X-41550Y1750I2083J1718D01*
G01*
X-38436Y-250D02*
G03*
X-42064Y-4250I-1814J-2000D01*
G01*
X-49104Y1434D02*
G03*
X-46333Y32I4854J6157D01*
G01*
X-53931Y-531D02*
G03*
X-49104Y1434I1681J2781D01*
G01*
X-52586Y-1586D02*
G03*
X-55207Y-500I-2621J-2621D01*
G01*
X-48733Y-5539D02*
G03*
X-51881Y-2290I-3250J0D01*
G01*
X-21750Y-11250D02*
G03*
X-25710Y-8078I-3250J0D01*
G01*
X-29553Y-6118D02*
G03*
X-30436Y-4250I-2697J-132D01*
G01*
X-37550Y-6250D02*
G03*
X-38436Y-4250I-2700J0D01*
G01*
X-37957Y-7675D02*
G03*
X-37550Y-6250I-2293J1425D01*
G01*
X-34064Y-4250D02*
G03*
X-32382Y-8947I1814J-2000D01*
G01*
X-34298Y-11548D02*
G03*
X-36405Y-8506I-3250J0D01*
G01*
X-27452Y-13383D02*
G03*
X-21750Y-11250I2453J2133D01*
G01*
X-20531Y-18569D02*
G03*
X-20356Y-22192I2781J-1681D01*
G01*
X-30255Y-11073D02*
G03*
X-29659Y-11608I5255J5255D01*
G01*
X-34593Y-12900D02*
G03*
X-34298Y-11548I-2955J1352D01*
G01*
X-43245Y-14994D02*
G03*
X-39700Y-17932I3661J810D01*
G01*
X-42250Y-4436D02*
G03*
X-46328Y-7974I-2000J-1814D01*
G01*
X-55124Y-4705D02*
G03*
X-48733Y-5539I3141J-834D01*
G01*
X-46579Y-10540D02*
G03*
X-43260Y-14986I3016J-1210D01*
G01*
X-51750Y-12750D02*
G03*
X-56750Y-10011I-3250J0D01*
G01*
X-90574Y22192D02*
G03*
X-91250Y19750I4074J-2442D01*
G01*
X-84211Y13000D02*
G03*
X-83257Y10161I3211J-500D01*
G01*
X-86013Y11844D02*
G03*
X-86225Y13000I-3250J0D01*
G01*
X-82682Y9087D02*
G03*
X-81414Y7086I5096J1827D01*
G01*
X-92038Y13535D02*
G03*
X-86013Y11844I2775J-1691D01*
G01*
X-81414Y7086D02*
G03*
X-78250Y5750I3225J3225D01*
G01*
X-143586Y18414D02*
G03*
X-147734Y20866I-6846J-6846D01*
G01*
X-141500Y13379D02*
G03*
X-143577Y18406I-7121J0D01*
G01*
X-146423Y15594D02*
G03*
X-147738Y16571I-4009J-4026D01*
G01*
X-145500Y13379D02*
G03*
X-146414Y15586I-3121J0D01*
G01*
X-147250Y11250D02*
G03*
X-147741Y13573I-5744J0D01*
G01*
X-113500Y-9000D02*
G03*
X-113947Y-7356I-3250J0D01*
G01*
X-119553Y-7356D02*
G03*
X-113500Y-9000I2803J-1644D01*
G01*
X-140000Y-20000D02*
G03*
X-140596Y-18124I-3250J0D01*
G01*
X-146000Y-5000D02*
G03*
X-146468Y-3319I-3250J0D01*
G01*
X-140850Y-22192D02*
G03*
X-140000Y-20000I-2400J2192D01*
G01*
X-147760Y-7889D02*
G03*
X-146000Y-5000I-1489J2889D01*
G01*
X-146146Y-18525D02*
G03*
X-145649Y-22192I2896J-1475D01*
G01*
X-54000Y-3000D02*
G03*
X-55207Y-2500I-1207J-1207D01*
G01*
X-40250Y-6250D02*
G03*
X-38414Y-10682I6268J0D01*
G01*
X-161511Y19011D02*
G03*
X-169950Y22500I-8439J-8461D01*
G01*
X-149250Y11250D02*
G03*
X-152994Y14994I-3744J0D01*
G01*
X-28841Y-9659D02*
G03*
X-25000Y-11250I3841J3841D01*
G01*
X-157975Y21725D02*
G03*
X-152000Y19250I5975J5975D01*
G01*
X-158914Y22664D02*
G03*
X-170589Y27500I-11675J-11675D01*
G01*
X-143500Y13379D02*
G03*
X-145000Y17000I-5121J0D01*
G01*
X-145000Y17000D02*
G03*
X-150432Y19250I-5432J-5432D01*
G01*
X-26623Y18773D02*
G03*
X-24750Y14250I6397J0D01*
G01*
X-161511Y19011D02*
G03*
X-152994Y14994I8517J7021D01*
G01*
X-88383Y11816D02*
G03*
X-88932Y11844I-548J-5404D01*
G01*
X-49658Y20182D02*
G03*
X-51976Y22500I-2318J0D01*
G01*
X-86500D02*
G03*
X-89250Y19750I0J-2750D01*
G01*
X-51140Y13385D02*
G03*
X-52358Y10441I2949J-2944D01*
G01*
Y9028D02*
G03*
X-51173Y6254I3240J-257D01*
G01*
X-48377Y3458D02*
G03*
X-44250Y1750I4127J4132D01*
G01*
X-80000Y8500D02*
G03*
X-78189Y7750I1811J1811D01*
G01*
X-81000Y10914D02*
G03*
X-80000Y8500I3414J0D01*
G01*
X-59500Y12086D02*
G03*
X-58794Y11793I706J706D01*
G01*
X-43482Y19750D02*
G03*
X-41490Y14942I6799J0D01*
G01*
X-36292Y14542D02*
G03*
X-36250Y14500I3634J3550D01*
G01*
X-37738Y18092D02*
G03*
X-36292Y14542I5080J0D01*
G01*
X-51137Y13387D02*
G03*
X-49226Y18002I-4615J4615D01*
G01*
X-51137Y13387D02*
G03*
X-51140Y13385I2946J-2946D01*
G01*
X-22346Y22192D02*
X-19500Y19346D01*
X-24479Y22192D02*
X-19464D01*
X-22690Y16764D02*
X-19500Y19954D01*
X-23417Y20279D02*
X-21504Y22192D01*
X-19500Y15986D02*
Y21770D01*
X-23449Y19052D02*
X-20068Y15672D01*
X-27421Y3180D02*
X-26636D01*
X-33553Y5618D02*
X-32118Y7053D01*
X-32391Y6781D02*
X-30913Y5303D01*
X-34045Y4192D02*
X-29808Y-45D01*
X-28697Y3087D02*
X-25360Y-250D01*
X-35045Y166D02*
X-30666Y4545D01*
X-20180Y3056D02*
X-17454Y329D01*
X-18961Y-721D02*
X-17454Y787D01*
X-21187Y2984D02*
X-20302Y3054D01*
X-22733Y-250D02*
X-19664Y2819D01*
X-17454Y-2218D02*
Y2407D01*
X-18836Y-836D02*
X-17454Y-2218D01*
X-21078Y-4250D02*
X-19750Y-5578D01*
X-26087Y3054D02*
X-25202Y2984D01*
X-26738Y-13D02*
X-24098Y2628D01*
X-30887Y81D02*
X-27895Y3074D01*
X-23958Y2591D02*
X-21117Y-250D01*
X-26436D02*
X-20250D01*
X-26436Y-4250D02*
X-21078D01*
X-70000Y13000D02*
X-68211D01*
X-70000D02*
Y14750D01*
X-71000Y13000D02*
Y14750D01*
X-70000D01*
X-68250Y4000D02*
Y12000D01*
X-71750Y7957D02*
X-68250Y4457D01*
X-67500Y-4000D02*
Y4000D01*
X-71750D02*
Y12000D01*
Y5887D02*
X-68250Y9387D01*
X-71750Y10130D02*
X-68880Y13000D01*
X-77789D02*
X-71000D01*
X-77789Y12000D02*
X-71750D01*
X-76793Y13000D02*
X-75793Y12000D01*
X-74123D02*
X-73123Y13000D01*
X-72551D02*
X-68250Y8699D01*
X-76279Y4000D02*
X-68250Y-4029D01*
X-72036Y4000D02*
X-67500Y-536D01*
X-78250Y4000D02*
Y5750D01*
Y4000D02*
X-71750D01*
X-37404Y3309D02*
X-33946Y-149D01*
X-39211Y242D02*
X-36399Y3054D01*
X-41576Y2121D02*
X-40621Y3076D01*
X-42262Y3924D02*
X-38088Y-250D01*
X-52586Y-1586D02*
X-51881Y-2290D01*
X-55411Y103D02*
X-54784Y-524D01*
X-47115Y292D02*
X-42926Y-3897D01*
X-50547Y-518D02*
X-46421Y-4645D01*
X-48767Y-5071D02*
X-44621Y-924D01*
X-50557Y-2618D02*
X-47489Y450D01*
X-21360Y-4250D02*
X-19750Y-5860D01*
X-26395Y-8154D02*
X-22490Y-4250D01*
X-29404Y-4691D02*
X-26044Y-8051D01*
X-29077Y-6594D02*
X-27235Y-4752D01*
X-29553Y-6118D02*
X-27429Y-8242D01*
X-19750Y-16496D02*
Y-5578D01*
X-25603Y-4250D02*
X-19750Y-10102D01*
X-21866Y-12111D02*
X-19750Y-9995D01*
X-22829Y-8831D02*
X-19750Y-5752D01*
X-37573Y-6605D02*
X-35895Y-4927D01*
X-35642Y-8916D02*
X-34487Y-7762D01*
X-32382Y-8947D02*
X-30255Y-11073D01*
X-38331Y-4250D02*
X-20388Y-22192D01*
X-34310Y-11827D02*
X-31906Y-9423D01*
X-21893Y-12203D02*
X-19750Y-14345D01*
X-23997Y-14341D02*
X-20307Y-18031D01*
X-29237Y-12074D02*
X-28442Y-12628D01*
X-29900Y-20145D02*
X-24139Y-14384D01*
X-27705Y-22192D02*
X-19750Y-14238D01*
X-23462Y-22192D02*
X-20950Y-19680D01*
X-29900Y-16923D02*
X-24631Y-22192D01*
X-29900Y-21166D02*
X-28874Y-22192D01*
X-31140Y-12900D02*
X-29763Y-11523D01*
X-29900Y-15902D02*
X-27419Y-13421D01*
X-34593Y-12900D02*
X-29900D01*
Y-22100D02*
Y-12900D01*
X-39700Y-22100D02*
X-29900D01*
X-49900Y-22192D02*
X-20356D01*
X-44793Y-14758D02*
X-39700Y-19851D01*
X-48862Y-6446D02*
X-46453Y-8855D01*
X-55500Y-5750D02*
Y-4500D01*
X-53542Y-9845D02*
X-52451Y-8755D01*
X-50935Y-8615D02*
X-46571Y-12980D01*
X-51778Y-12324D02*
X-46742Y-7289D01*
X-49900Y-14689D02*
X-46809Y-11598D01*
X-51852Y-11941D02*
X-50644Y-13150D01*
X-56750Y-8811D02*
X-54903Y-6965D01*
X-56750Y-5750D02*
X-55500D01*
X-56750Y-7043D02*
X-54191Y-9602D01*
X-68250Y-12000D02*
Y-4000D01*
X-56750Y-10011D02*
Y-5750D01*
X-69574Y-13150D02*
X-68250Y-11826D01*
X-67500Y-13150D02*
Y-12000D01*
X-70350Y-22192D02*
Y-13150D01*
Y-13926D02*
X-69574Y-13150D01*
X-49900Y-18932D02*
X-45399Y-14431D01*
X-49900Y-22192D02*
Y-13150D01*
X-39700Y-22100D02*
Y-17932D01*
X-51775Y-13150D02*
X-49900D01*
X-50644D02*
X-49900Y-13894D01*
X-44675Y-22192D02*
X-40340Y-17857D01*
X-49900Y-13894D02*
X-41601Y-22192D01*
X-40433D02*
X-39700Y-21460D01*
X-48918Y-22192D02*
X-42814Y-16088D01*
X-49900Y-18136D02*
X-45844Y-22192D01*
X-60550Y-20250D02*
X-59700D01*
X-60550Y-21096D02*
X-59704Y-20250D01*
X-60514D02*
X-59700Y-21064D01*
X-70350Y-13150D02*
X-67500D01*
X-74374Y-22192D02*
X-70350Y-18168D01*
X-59700Y-22192D02*
Y-20250D01*
X-60550Y-22192D02*
X-59700D01*
Y-22350D02*
X-49900D01*
X-60550Y-22192D02*
Y-20250D01*
X-70350Y-22350D02*
X-60550D01*
X-99814Y20250D02*
X-97872Y22192D01*
X-102956D02*
X-101014Y20250D01*
X-99814D02*
X-97872Y22192D01*
X-107199D02*
X-105257Y20250D01*
X-104056D02*
X-102114Y22192D01*
X-94471D02*
X-91250Y18971D01*
X-94250Y17328D02*
X-91209Y20369D01*
X-98713Y22192D02*
X-96771Y20250D01*
X-95571D02*
X-93629Y22192D01*
X-108299Y20250D02*
X-106357Y22192D01*
X-147733D02*
X-90574D01*
X-111250Y20250D02*
X-94250D01*
X-115684Y22192D02*
X-111250Y17758D01*
X-111441Y22192D02*
X-109499Y20250D01*
X-118542Y14250D02*
X-110600Y22192D01*
X-119927D02*
X-111985Y14250D01*
X-111250D02*
Y20250D01*
X-124169Y22192D02*
X-116227Y14250D01*
X-122784D02*
X-114842Y22192D01*
X-85279Y13000D02*
X-84198Y11919D01*
X-86225Y13000D02*
X-84211D01*
X-91250Y15602D02*
Y19750D01*
X-94250Y8843D02*
X-92328Y10765D01*
X-94250Y4600D02*
X-90137Y8714D01*
X-94250Y13086D02*
X-91250Y16086D01*
X-94250Y17729D02*
X-91420Y14898D01*
X-94250Y13486D02*
X-92511Y11747D01*
X-114299Y14250D02*
X-111250Y17299D01*
X-116750Y14250D02*
X-111250D01*
Y3250D02*
Y9250D01*
X-114250Y5814D02*
X-111250Y8814D01*
X-114250Y8030D02*
X-111250Y5030D01*
X-114250Y9250D02*
X-111250D01*
X-114250Y5814D02*
X-111250Y8814D01*
X-132654Y22192D02*
X-130712Y20250D01*
X-133755D02*
X-131813Y22192D01*
X-129512Y20250D02*
X-127570Y22192D01*
X-137997Y20250D02*
X-136055Y22192D01*
X-136897D02*
X-134955Y20250D01*
X-123750Y17527D02*
X-119085Y22192D01*
X-125269Y20250D02*
X-123328Y22192D01*
X-123750Y17530D02*
X-120470Y14250D01*
X-128412Y22192D02*
X-126470Y20250D01*
X-123750Y14250D02*
Y20250D01*
X-141140Y22192D02*
X-139198Y20250D01*
X-146374Y20359D02*
X-144541Y22192D01*
X-140750Y20250D02*
X-123750D01*
X-147734Y20866D02*
X-147733Y22192D01*
X-147734Y20866D02*
X-147733Y22192D01*
X-143835Y18655D02*
X-140298Y22192D01*
X-145382D02*
X-140750Y17560D01*
X-142072Y16175D02*
X-140750Y17497D01*
X-123750Y14250D02*
X-116750D01*
X-141500Y9824D02*
X-140750Y9074D01*
X-123750Y9250D02*
X-119250D01*
X-141537Y14104D02*
X-140750Y13317D01*
X-141500Y12505D02*
X-140750Y13255D01*
X-123750Y9045D02*
X-119250Y4545D01*
X-123750Y4799D02*
X-119299Y9250D01*
X-141500Y4020D02*
X-140750Y4769D01*
X-141500Y8262D02*
X-140750Y9012D01*
X-141500Y5582D02*
X-140750Y4832D01*
X-147739Y16063D02*
X-145538Y13862D01*
X-147741Y13573D02*
X-147738Y16571D01*
X-147740Y14750D02*
X-146667Y15823D01*
X-147250Y6755D02*
X-145500Y8505D01*
X-147251Y11332D02*
X-145500Y9582D01*
X-147250Y7089D02*
X-145500Y5339D01*
X-147250Y10997D02*
X-145500Y12747D01*
X-86560Y10039D02*
X-68250Y-8271D01*
X-89359Y8595D02*
X-67614Y-13150D01*
X-94250Y5001D02*
X-70350Y-18899D01*
X-94250Y3250D02*
Y20250D01*
Y9243D02*
X-70350Y-14657D01*
X-95587Y-22192D02*
X-68250Y5145D01*
X-104072Y-22192D02*
X-77880Y4000D01*
X-99829Y-22192D02*
X-73637Y4000D01*
X-108315Y-22192D02*
X-79998Y6124D01*
X-105227Y3250D02*
X-79785Y-22192D01*
X-114250Y1571D02*
X-111250Y4571D01*
X-114250Y-5506D02*
Y9250D01*
Y-2672D02*
X-108328Y3250D01*
X-119250Y-5495D02*
Y9250D01*
X-126440Y3250D02*
X-119250Y-3940D01*
X-112557Y-22192D02*
X-82232Y8134D01*
X-116800Y-22192D02*
X-83784Y10824D01*
X-114250Y3787D02*
X-88270Y-22192D01*
X-139168Y3250D02*
X-113726Y-22192D01*
X-134926Y3250D02*
X-109484Y-22192D01*
X-109470Y3250D02*
X-84028Y-22192D01*
X-111250Y3250D02*
X-94250D01*
X-100985D02*
X-75542Y-22192D01*
X-113561Y-9629D02*
X-100998Y-22192D01*
X-87101D02*
X-67500Y-2591D01*
X-91344Y-22192D02*
X-67500Y1652D01*
X-82859Y-22192D02*
X-68250Y-7583D01*
X-96742Y3250D02*
X-71300Y-22192D01*
X-78616D02*
X-70350Y-13926D01*
X-114074Y-6738D02*
X-104086Y3250D01*
X-140850Y-22192D02*
X-70350D01*
X-141500Y1339D02*
X-117969Y-22192D01*
X-129528D02*
X-118832Y-11496D01*
X-114250Y-455D02*
X-92513Y-22192D01*
X-121043D02*
X-95601Y3250D01*
X-114250Y-4698D02*
X-96756Y-22192D01*
X-125285D02*
X-99843Y3250D01*
X-115453Y-11980D02*
X-105241Y-22192D01*
X-123750Y4802D02*
X-119250Y302D01*
X-123750Y3250D02*
Y9250D01*
X-140750Y3250D02*
X-123750D01*
X-140750D02*
Y20250D01*
X-141500Y-4466D02*
X-133784Y3250D01*
X-140001Y-19937D02*
X-119250Y814D01*
X-141269Y-16962D02*
X-119250Y5056D01*
X-140001Y-19937D02*
X-119250Y814D01*
X-130683Y3250D02*
X-119730Y-7703D01*
X-141500Y-2904D02*
X-122212Y-22192D01*
X-141500Y-223D02*
X-138027Y3250D01*
X-147250Y2846D02*
X-145500Y1096D01*
X-147124Y-1605D02*
X-145500Y19D01*
X-147250Y-1246D02*
Y11250D01*
Y2512D02*
X-145500Y4262D01*
X-141500Y-8708D02*
X-129542Y3250D01*
X-141500Y-16101D02*
Y13379D01*
Y-12951D02*
X-125299Y3250D01*
X-145500Y-16349D02*
Y13379D01*
X-147127Y-1519D02*
X-145500Y-3146D01*
X-141500Y-11389D02*
X-130697Y-22192D01*
X-141500Y-7146D02*
X-126454Y-22192D01*
X-146374Y-6514D02*
X-145500Y-7389D01*
X-133771Y-22192D02*
X-119936Y-8357D01*
X-138013Y-22192D02*
X-119250Y-3429D01*
X-141500Y-15632D02*
X-134939Y-22192D01*
X-140214Y-21160D02*
X-139182Y-22192D01*
X-147762Y-9370D02*
X-145500Y-11631D01*
X-147767Y-14975D02*
X-145500Y-12708D01*
X-147766Y-13608D02*
X-145500Y-15874D01*
X-147763Y-10729D02*
X-145500Y-8466D01*
X-147771Y-19222D02*
X-145659Y-17110D01*
X-147774Y-22192D02*
X-145649D01*
X-147774D02*
X-147760Y-7889D01*
X-147770Y-17847D02*
X-146403Y-19213D01*
X-52360Y-4640D02*
X-51983Y-5539D01*
X-52362Y-4638D02*
X-52360Y-4640D01*
X-54000Y-3000D02*
X-52362Y-4638D01*
X-38414Y-10682D02*
X-37548Y-11548D01*
X-187750Y22500D02*
X-169950D01*
X-59500Y-2500D02*
X-55207D01*
X-149250Y-5000D02*
Y11250D01*
X-25478Y-10772D02*
X-25000Y-11250D01*
X-32250Y-6250D02*
X-28841Y-9659D01*
X-20250Y-2250D02*
X-17750Y-4750D01*
Y-20250D02*
Y-4750D01*
X-143500Y-19750D02*
Y13379D01*
Y-19750D02*
X-143250Y-20000D01*
X-158914Y22664D02*
X-157975Y21725D01*
X-152000Y19250D02*
X-150432D01*
X-212750Y27500D02*
X-170589D01*
X-24750Y14250D02*
Y14927D01*
X-26623Y18773D02*
Y19750D01*
X-28250Y-2250D02*
X-20250D01*
X-32250D02*
X-28250D01*
X-36250D02*
X-32250D01*
X-40250D02*
X-36250D01*
X-89263Y11844D02*
X-88932D01*
X-89250Y12683D02*
X-88837Y12270D01*
X-89250Y12683D02*
Y19750D01*
X-81500Y13677D02*
X-81000Y13176D01*
Y12500D02*
Y13176D01*
X-49658Y20182D02*
X-49226Y19750D01*
X-86500Y22500D02*
X-51976D01*
X-51173Y6254D02*
X-48377Y3458D01*
X-52358Y9028D02*
Y10441D01*
X-78189Y7750D02*
X-75250D01*
X-81000Y10914D02*
Y12500D01*
X-32250Y9857D02*
X-32196Y9804D01*
X-59500Y12086D02*
Y15000D01*
Y9172D02*
Y12086D01*
X-58794Y11793D02*
X-55483D01*
X-56750Y19250D02*
X-56250D01*
X-58750Y17250D02*
X-56750Y19250D01*
X-59500Y8501D02*
Y9172D01*
X-41490Y14942D02*
X-40798Y14250D01*
X-40518Y10018D02*
Y14434D01*
X-37738Y18092D02*
Y19750D01*
X-36250Y9750D02*
Y14500D01*
X-38988Y19750D02*
Y19750D01*
X-59500Y9172D02*
X-58750Y9922D01*
X-57500Y2250D02*
X-52250D01*
X-58875Y2625D02*
X-57750Y3750D01*
Y2500D02*
Y3750D01*
Y2500D02*
X-57500Y2250D01*
X-49118Y8772D02*
X-46096Y5750D01*
X-45364Y11111D02*
Y14210D01*
X-46096Y5750D02*
X-44250D01*
X-32250Y9857D02*
Y13011D01*
X-31500Y13761D01*
Y14438D01*
X-49226Y18002D02*
Y19750D01*
X-57250Y17250D02*
X-56750D01*
X-59500Y15000D02*
X-57250Y17250D01*
X-81500Y13677D02*
Y15000D01*
X-44250Y9750D02*
Y9997D01*
X-45364Y11111D02*
X-44250Y9997D01*
X-40798Y14250D02*
Y14341D01*
X-31875Y14813D02*
Y19375D01*
X-32250Y19750D02*
X-31875Y19375D01*
Y14813D02*
X-31500Y14438D01*
X-40518Y10018D02*
X-40250Y9750D01*
X-26623Y19750D02*
X-26323Y19450D01*
X-24250Y-17995D02*
X-24193Y-17938D01*
X-44250Y9750D02*
X-40250Y5750D01*
X-65000Y-8000D02*
X-60000D01*
X-65278D02*
X-65000D01*
X-84250Y17250D02*
X-83750D01*
X-81500Y15000D01*
X-75250Y7750D02*
X-75000Y8000D01*
X-76050Y-19750D02*
X-74050Y-17750D01*
X-73750D01*
X-28250Y-6250D02*
X-28226Y-6274D01*
X-45950Y-17750D02*
X-44328Y-19372D01*
X-76000Y2250D02*
X-75836Y2414D01*
X-36250Y5750D02*
X-32250Y9750D01*
X-36250Y5750D02*
Y5750D01*
D28*
X-12250Y22000D02*
D03*
X3250Y-7000D02*
D03*
D29*
X-212750Y22500D02*
D03*
Y17500D02*
D03*
Y12500D02*
D03*
Y7500D02*
D03*
Y2500D02*
D03*
Y-22500D02*
D03*
Y-17500D02*
D03*
Y-12500D02*
D03*
Y-7500D02*
D03*
Y-2500D02*
D03*
Y-27500D02*
D03*
Y27500D02*
D03*
D30*
X-44250Y-2250D02*
D03*
Y-6250D02*
D03*
X-40250D02*
D03*
Y-2250D02*
D03*
X-44250Y1750D02*
D03*
Y5750D02*
D03*
Y9750D02*
D03*
X-40250Y1750D02*
D03*
Y5750D02*
D03*
Y9750D02*
D03*
X-36250Y-6250D02*
D03*
X-32250D02*
D03*
X-36250Y-2250D02*
D03*
X-32250D02*
D03*
X-28250Y-6250D02*
D03*
Y-2250D02*
D03*
Y1750D02*
D03*
X-36250D02*
D03*
Y5750D02*
D03*
Y9750D02*
D03*
X-32250Y1750D02*
D03*
Y5750D02*
D03*
Y9750D02*
D03*
X-28250Y5750D02*
D03*
Y9750D02*
D03*
D31*
X-54904Y-17646D02*
Y-12846D01*
X-55000Y-12750D02*
X-54904Y-12846D01*
Y-17646D02*
X-54800Y-17750D01*
D32*
X-82824Y-17740D02*
D03*
X-133000Y-17500D02*
D03*
X-102074Y-16990D02*
D03*
X-148494Y-20250D02*
D03*
M02*
