G04*
G04 #@! TF.GenerationSoftware,Altium Limited,Altium Designer,22.8.2 (66)*
G04*
G04 Layer_Color=2752767*
%FSLAX44Y44*%
%MOMM*%
G71*
G04*
G04 #@! TF.SameCoordinates,77D84F31-F88A-430F-A0AE-3837F78F33EF*
G04*
G04*
G04 #@! TF.FilePolarity,Positive*
G04*
G01*
G75*
%ADD35C,0.0508*%
D35*
X-54015Y-7571D02*
Y-3507D01*
X-49951D01*
Y-7571D01*
X-54015D01*
X-57032Y-14782D02*
Y-10718D01*
X-52968D01*
Y-14782D01*
X-57032D01*
X-119032Y14718D02*
Y18782D01*
X-114968D01*
Y14718D01*
X-119032D01*
X-87532Y968D02*
Y5032D01*
X-83468D01*
Y968D01*
X-87532D01*
X-84856Y-19772D02*
Y-15708D01*
X-80792D01*
Y-19772D01*
X-84856D01*
X-135032Y-19532D02*
Y-15468D01*
X-130968D01*
Y-19532D01*
X-135032D01*
X-104106Y-19022D02*
Y-14958D01*
X-100042D01*
Y-19022D01*
X-104106D01*
X-27032Y-13282D02*
Y-9218D01*
X-22968D01*
Y-13282D01*
X-27032D01*
X-24782Y-8532D02*
Y-4468D01*
X-20718D01*
Y-8532D01*
X-24782D01*
X-19782Y-22282D02*
Y-18218D01*
X-15718D01*
Y-22282D01*
X-19782D01*
X-145282Y-22032D02*
Y-17968D01*
X-141218D01*
Y-22032D01*
X-145282D01*
X-150526Y-22282D02*
Y-18218D01*
X-146462D01*
Y-22282D01*
X-150526D01*
X-151282Y-7032D02*
Y-2968D01*
X-147218D01*
Y-7032D01*
X-151282D01*
X-118782Y-11032D02*
Y-6968D01*
X-114718D01*
Y-11032D01*
X-118782D01*
X-39580Y-13580D02*
Y-9516D01*
X-35516D01*
Y-13580D01*
X-39580D01*
X-25227Y3718D02*
Y7782D01*
X-21163D01*
Y3718D01*
X-25227D01*
X-282Y-7532D02*
Y-3468D01*
X3782D01*
Y-7532D01*
X-282D01*
X-91295Y9812D02*
Y13876D01*
X-87231D01*
Y9812D01*
X-91295D01*
X-83032Y10468D02*
Y14532D01*
X-78968D01*
Y10468D01*
X-83032D01*
X-57515Y9761D02*
Y13825D01*
X-53451D01*
Y9761D01*
X-57515D01*
X-189782Y5468D02*
Y9532D01*
X-185718D01*
Y5468D01*
X-189782D01*
X-54282Y218D02*
Y4282D01*
X-50218D01*
Y218D01*
X-54282D01*
X-72032Y1468D02*
Y5532D01*
X-67968D01*
Y1468D01*
X-72032D01*
X-189782Y-29532D02*
Y-25468D01*
X-185718D01*
Y-29532D01*
X-189782D01*
X-47396Y12178D02*
Y16242D01*
X-43332D01*
Y12178D01*
X-47396D01*
X-51150Y6740D02*
Y10804D01*
X-47086D01*
Y6740D01*
X-51150D01*
X-67032Y10468D02*
Y14532D01*
X-62968D01*
Y10468D01*
X-67032D01*
X-45595Y-13782D02*
Y-9718D01*
X-41530D01*
Y-13782D01*
X-45595D01*
X-189782Y-4532D02*
Y-468D01*
X-185718D01*
Y-4532D01*
X-189782D01*
X-49687Y-4358D02*
Y-294D01*
X-45623D01*
Y-4358D01*
X-49687D01*
X-23282Y17718D02*
Y21782D01*
X-19218D01*
Y17718D01*
X-23282D01*
X-189782Y-14532D02*
Y-10468D01*
X-185718D01*
Y-14532D01*
X-189782D01*
X-42830Y12218D02*
Y16282D01*
X-38766D01*
Y12218D01*
X-42830D01*
X-189782Y-9532D02*
Y-5468D01*
X-185718D01*
Y-9532D01*
X-189782D01*
Y468D02*
Y4532D01*
X-185718D01*
Y468D01*
X-189782D01*
X-38282Y12468D02*
Y16532D01*
X-34218D01*
Y12468D01*
X-38282D01*
X-26782Y12218D02*
Y16282D01*
X-22718D01*
Y12218D01*
X-26782D01*
X-189782Y-19532D02*
Y-15468D01*
X-185718D01*
Y-19532D01*
X-189782D01*
Y15468D02*
Y19532D01*
X-185718D01*
Y15468D01*
X-189782D01*
Y20468D02*
Y24532D01*
X-185718D01*
Y20468D01*
X-189782D01*
Y10468D02*
Y14532D01*
X-185718D01*
Y10468D01*
X-189782D01*
X-33532Y12406D02*
Y16470D01*
X-29468D01*
Y12406D01*
X-33532D01*
M02*
