G04*
G04 #@! TF.GenerationSoftware,Altium Limited,Altium Designer,22.8.2 (66)*
G04*
G04 Layer_Color=39423*
%FSLAX44Y44*%
%MOMM*%
G71*
G04*
G04 #@! TF.SameCoordinates,4B26B776-EE7C-4811-823A-5E0DBC8C83DA*
G04*
G04*
G04 #@! TF.FilePolarity,Negative*
G04*
G01*
G75*
G04:AMPARAMS|DCode=15|XSize=1.5242mm|YSize=0.578mm|CornerRadius=0.289mm|HoleSize=0mm|Usage=FLASHONLY|Rotation=180.000|XOffset=0mm|YOffset=0mm|HoleType=Round|Shape=RoundedRectangle|*
%AMROUNDEDRECTD15*
21,1,1.5242,0.0000,0,0,180.0*
21,1,0.9463,0.5780,0,0,180.0*
1,1,0.5780,-0.4731,0.0000*
1,1,0.5780,0.4731,0.0000*
1,1,0.5780,0.4731,0.0000*
1,1,0.5780,-0.4731,0.0000*
%
%ADD15ROUNDEDRECTD15*%
%ADD16R,1.5242X0.5780*%
%ADD19R,0.8000X1.7000*%
%ADD20R,1.1000X1.2000*%
%ADD21R,1.7000X0.8000*%
%ADD22R,1.6032X1.1532*%
%ADD23R,1.1532X1.6032*%
%ADD24R,1.0032X0.5032*%
%ADD25R,1.2032X1.2032*%
%ADD26C,1.2532*%
%ADD27C,1.8032*%
%ADD28R,1.8032X1.8032*%
%ADD29C,6.2032*%
%ADD30R,1.8032X1.8032*%
%ADD31C,1.8532*%
%ADD32R,1.8532X1.8532*%
%ADD33C,2.3032*%
%ADD34C,0.9032*%
G36*
X309000Y490800D02*
X284000D01*
X283530Y490810D01*
X283060Y490850D01*
X282590Y490910D01*
X282130Y491000D01*
X281670Y491110D01*
X281220Y491240D01*
X280770Y491400D01*
X280340Y491580D01*
X279910Y491780D01*
X279500Y492010D01*
X279100Y492250D01*
X278710Y492520D01*
X278340Y492810D01*
X277980Y493110D01*
X277640Y493440D01*
X277310Y493780D01*
X277010Y494140D01*
X276720Y494510D01*
X276450Y494900D01*
X276210Y495300D01*
X275980Y495710D01*
X275780Y496140D01*
X275600Y496570D01*
X275440Y497020D01*
X275310Y497470D01*
X275200Y497930D01*
X275110Y498390D01*
X275050Y498860D01*
X275010Y499330D01*
X275000Y499800D01*
X275010Y500270D01*
X275050Y500740D01*
X275110Y501210D01*
X275200Y501670D01*
X275310Y502130D01*
X275440Y502580D01*
X275600Y503030D01*
X275780Y503460D01*
X275980Y503890D01*
X276210Y504300D01*
X276450Y504700D01*
X276720Y505090D01*
X277010Y505460D01*
X277310Y505820D01*
X277640Y506160D01*
X277980Y506490D01*
X278340Y506790D01*
X278710Y507080D01*
X279100Y507350D01*
X279500Y507590D01*
X279910Y507820D01*
X280340Y508020D01*
X280770Y508200D01*
X281220Y508360D01*
X281670Y508490D01*
X282130Y508600D01*
X282590Y508690D01*
X283060Y508750D01*
X283530Y508790D01*
X284000Y508800D01*
X309000D01*
Y490800D01*
D02*
G37*
G36*
X106670Y508790D02*
X107140Y508750D01*
X107610Y508690D01*
X108070Y508600D01*
X108530Y508490D01*
X108980Y508360D01*
X109430Y508200D01*
X109860Y508020D01*
X110290Y507820D01*
X110700Y507590D01*
X111100Y507350D01*
X111490Y507080D01*
X111860Y506790D01*
X112220Y506490D01*
X112560Y506160D01*
X112890Y505820D01*
X113190Y505460D01*
X113480Y505090D01*
X113750Y504700D01*
X113990Y504300D01*
X114220Y503890D01*
X114420Y503460D01*
X114600Y503030D01*
X114760Y502580D01*
X114890Y502130D01*
X115000Y501670D01*
X115090Y501210D01*
X115150Y500740D01*
X115190Y500270D01*
X115200Y499800D01*
X115190Y499330D01*
X115150Y498860D01*
X115090Y498390D01*
X115000Y497930D01*
X114890Y497470D01*
X114760Y497020D01*
X114600Y496570D01*
X114420Y496140D01*
X114220Y495710D01*
X113990Y495300D01*
X113750Y494900D01*
X113480Y494510D01*
X113190Y494140D01*
X112890Y493780D01*
X112560Y493440D01*
X112220Y493110D01*
X111860Y492810D01*
X111490Y492520D01*
X111100Y492250D01*
X110700Y492010D01*
X110290Y491780D01*
X109860Y491580D01*
X109430Y491400D01*
X108980Y491240D01*
X108530Y491110D01*
X108070Y491000D01*
X107610Y490910D01*
X107140Y490850D01*
X106670Y490810D01*
X106200Y490800D01*
X81200D01*
Y508800D01*
X106200D01*
X106670Y508790D01*
D02*
G37*
G36*
X229500Y497500D02*
X229490Y497030D01*
X229450Y496560D01*
X229390Y496090D01*
X229300Y495630D01*
X229190Y495170D01*
X229060Y494720D01*
X228900Y494270D01*
X228720Y493840D01*
X228520Y493410D01*
X228290Y493000D01*
X228050Y492600D01*
X227780Y492210D01*
X227490Y491840D01*
X227190Y491480D01*
X226860Y491140D01*
X226520Y490810D01*
X226160Y490510D01*
X225790Y490220D01*
X225400Y489950D01*
X225000Y489710D01*
X224590Y489480D01*
X224160Y489280D01*
X223730Y489100D01*
X223280Y488940D01*
X222830Y488810D01*
X222370Y488700D01*
X221910Y488610D01*
X221440Y488550D01*
X220970Y488510D01*
X220500Y488500D01*
X220030Y488510D01*
X219560Y488550D01*
X219090Y488610D01*
X218630Y488700D01*
X218170Y488810D01*
X217720Y488940D01*
X217270Y489100D01*
X216840Y489280D01*
X216410Y489480D01*
X216000Y489710D01*
X215600Y489950D01*
X215210Y490220D01*
X214840Y490510D01*
X214480Y490810D01*
X214140Y491140D01*
X213810Y491480D01*
X213510Y491840D01*
X213220Y492210D01*
X212950Y492600D01*
X212710Y493000D01*
X212480Y493410D01*
X212280Y493840D01*
X212100Y494270D01*
X211940Y494720D01*
X211810Y495170D01*
X211700Y495630D01*
X211610Y496090D01*
X211550Y496560D01*
X211510Y497030D01*
X211500Y497500D01*
Y522500D01*
X229500D01*
Y497500D01*
D02*
G37*
G36*
X204100Y491500D02*
Y491340D01*
X204080Y491190D01*
X204060Y491030D01*
X204030Y490880D01*
X204000Y490720D01*
X203950Y490570D01*
X203900Y490420D01*
X203840Y490280D01*
X203770Y490140D01*
X203700Y490000D01*
X203620Y489870D01*
X203530Y489740D01*
X203430Y489610D01*
X203330Y489490D01*
X203220Y489380D01*
X203110Y489270D01*
X202990Y489170D01*
X202860Y489070D01*
X202730Y488980D01*
X202600Y488900D01*
X202460Y488830D01*
X202320Y488760D01*
X202180Y488700D01*
X202030Y488650D01*
X201880Y488600D01*
X201720Y488570D01*
X201570Y488540D01*
X201410Y488520D01*
X201260Y488500D01*
X188940D01*
X188790Y488520D01*
X188630Y488540D01*
X188480Y488570D01*
X188320Y488600D01*
X188170Y488650D01*
X188020Y488700D01*
X187880Y488760D01*
X187740Y488830D01*
X187600Y488900D01*
X187470Y488980D01*
X187340Y489070D01*
X187210Y489170D01*
X187090Y489270D01*
X186980Y489380D01*
X186870Y489490D01*
X186770Y489610D01*
X186670Y489740D01*
X186580Y489870D01*
X186500Y490000D01*
X186430Y490140D01*
X186360Y490280D01*
X186300Y490420D01*
X186250Y490570D01*
X186200Y490720D01*
X186170Y490880D01*
X186140Y491030D01*
X186120Y491190D01*
X186100Y491340D01*
Y491500D01*
Y522500D01*
X204100D01*
Y491500D01*
D02*
G37*
G36*
X178700Y497500D02*
X178690Y497030D01*
X178650Y496560D01*
X178590Y496090D01*
X178500Y495630D01*
X178390Y495170D01*
X178260Y494720D01*
X178100Y494270D01*
X177920Y493840D01*
X177720Y493410D01*
X177490Y493000D01*
X177250Y492600D01*
X176980Y492210D01*
X176690Y491840D01*
X176390Y491480D01*
X176060Y491140D01*
X175720Y490810D01*
X175360Y490510D01*
X174990Y490220D01*
X174600Y489950D01*
X174200Y489710D01*
X173790Y489480D01*
X173360Y489280D01*
X172930Y489100D01*
X172480Y488940D01*
X172030Y488810D01*
X171570Y488700D01*
X171110Y488610D01*
X170640Y488550D01*
X170170Y488510D01*
X169700Y488500D01*
X169230Y488510D01*
X168760Y488550D01*
X168290Y488610D01*
X167830Y488700D01*
X167370Y488810D01*
X166920Y488940D01*
X166470Y489100D01*
X166040Y489280D01*
X165610Y489480D01*
X165200Y489710D01*
X164800Y489950D01*
X164410Y490220D01*
X164040Y490510D01*
X163680Y490810D01*
X163340Y491140D01*
X163010Y491480D01*
X162710Y491840D01*
X162420Y492210D01*
X162150Y492600D01*
X161910Y493000D01*
X161680Y493410D01*
X161480Y493840D01*
X161300Y494270D01*
X161140Y494720D01*
X161010Y495170D01*
X160900Y495630D01*
X160810Y496090D01*
X160750Y496560D01*
X160710Y497030D01*
X160700Y497500D01*
Y522500D01*
X178700D01*
Y497500D01*
D02*
G37*
G36*
X309000Y465400D02*
X284000D01*
X283530Y465410D01*
X283060Y465450D01*
X282590Y465510D01*
X282130Y465600D01*
X281670Y465710D01*
X281220Y465840D01*
X280770Y466000D01*
X280340Y466180D01*
X279910Y466380D01*
X279500Y466610D01*
X279100Y466850D01*
X278710Y467120D01*
X278340Y467410D01*
X277980Y467710D01*
X277640Y468040D01*
X277310Y468380D01*
X277010Y468740D01*
X276720Y469110D01*
X276450Y469500D01*
X276210Y469900D01*
X275980Y470310D01*
X275780Y470740D01*
X275600Y471170D01*
X275440Y471620D01*
X275310Y472070D01*
X275200Y472530D01*
X275110Y472990D01*
X275050Y473460D01*
X275010Y473930D01*
X275000Y474400D01*
X275010Y474870D01*
X275050Y475340D01*
X275110Y475810D01*
X275200Y476270D01*
X275310Y476730D01*
X275440Y477180D01*
X275600Y477630D01*
X275780Y478060D01*
X275980Y478490D01*
X276210Y478900D01*
X276450Y479300D01*
X276720Y479690D01*
X277010Y480060D01*
X277310Y480420D01*
X277640Y480760D01*
X277980Y481090D01*
X278340Y481390D01*
X278710Y481680D01*
X279100Y481950D01*
X279500Y482190D01*
X279910Y482420D01*
X280340Y482620D01*
X280770Y482800D01*
X281220Y482960D01*
X281670Y483090D01*
X282130Y483200D01*
X282590Y483290D01*
X283060Y483350D01*
X283530Y483390D01*
X284000Y483400D01*
X309000D01*
Y465400D01*
D02*
G37*
G36*
X106670Y483390D02*
X107140Y483350D01*
X107610Y483290D01*
X108070Y483200D01*
X108530Y483090D01*
X108980Y482960D01*
X109430Y482800D01*
X109860Y482620D01*
X110290Y482420D01*
X110700Y482190D01*
X111100Y481950D01*
X111490Y481680D01*
X111860Y481390D01*
X112220Y481090D01*
X112560Y480760D01*
X112890Y480420D01*
X113190Y480060D01*
X113480Y479690D01*
X113750Y479300D01*
X113990Y478900D01*
X114220Y478490D01*
X114420Y478060D01*
X114600Y477630D01*
X114760Y477180D01*
X114890Y476730D01*
X115000Y476270D01*
X115090Y475810D01*
X115150Y475340D01*
X115190Y474870D01*
X115200Y474400D01*
X115190Y473930D01*
X115150Y473460D01*
X115090Y472990D01*
X115000Y472530D01*
X114890Y472070D01*
X114760Y471620D01*
X114600Y471170D01*
X114420Y470740D01*
X114220Y470310D01*
X113990Y469900D01*
X113750Y469500D01*
X113480Y469110D01*
X113190Y468740D01*
X112890Y468380D01*
X112560Y468040D01*
X112220Y467710D01*
X111860Y467410D01*
X111490Y467120D01*
X111100Y466850D01*
X110700Y466610D01*
X110290Y466380D01*
X109860Y466180D01*
X109430Y466000D01*
X108980Y465840D01*
X108530Y465710D01*
X108070Y465600D01*
X107610Y465510D01*
X107140Y465450D01*
X106670Y465410D01*
X106200Y465400D01*
X81200D01*
Y483400D01*
X106200D01*
X106670Y483390D01*
D02*
G37*
G36*
X309000Y440000D02*
X277840D01*
X277690Y440020D01*
X277530Y440040D01*
X277380Y440070D01*
X277220Y440100D01*
X277070Y440150D01*
X276920Y440200D01*
X276780Y440260D01*
X276640Y440330D01*
X276500Y440400D01*
X276370Y440480D01*
X276240Y440570D01*
X276110Y440670D01*
X275990Y440770D01*
X275880Y440880D01*
X275770Y440990D01*
X275670Y441110D01*
X275570Y441240D01*
X275480Y441370D01*
X275400Y441500D01*
X275330Y441640D01*
X275260Y441780D01*
X275200Y441920D01*
X275150Y442070D01*
X275100Y442220D01*
X275070Y442380D01*
X275040Y442530D01*
X275020Y442690D01*
X275000Y442840D01*
Y443000D01*
Y455000D01*
Y455160D01*
X275020Y455310D01*
X275040Y455470D01*
X275070Y455620D01*
X275100Y455780D01*
X275150Y455930D01*
X275200Y456080D01*
X275260Y456220D01*
X275330Y456360D01*
X275400Y456500D01*
X275480Y456630D01*
X275570Y456760D01*
X275670Y456890D01*
X275770Y457010D01*
X275880Y457120D01*
X275990Y457230D01*
X276110Y457330D01*
X276240Y457430D01*
X276370Y457520D01*
X276500Y457600D01*
X276640Y457670D01*
X276780Y457740D01*
X276920Y457800D01*
X277070Y457850D01*
X277220Y457900D01*
X277380Y457930D01*
X277530Y457960D01*
X277690Y457980D01*
X277840Y458000D01*
X309000D01*
Y440000D01*
D02*
G37*
G36*
X112510Y457980D02*
X112670Y457960D01*
X112820Y457930D01*
X112980Y457900D01*
X113130Y457850D01*
X113280Y457800D01*
X113420Y457740D01*
X113560Y457670D01*
X113700Y457600D01*
X113830Y457520D01*
X113960Y457430D01*
X114090Y457330D01*
X114210Y457230D01*
X114320Y457120D01*
X114430Y457010D01*
X114530Y456890D01*
X114630Y456760D01*
X114720Y456630D01*
X114800Y456500D01*
X114870Y456360D01*
X114940Y456220D01*
X115000Y456080D01*
X115050Y455930D01*
X115100Y455780D01*
X115130Y455620D01*
X115160Y455470D01*
X115180Y455310D01*
X115200Y455160D01*
Y455000D01*
Y443000D01*
Y442840D01*
X115180Y442690D01*
X115160Y442530D01*
X115130Y442380D01*
X115100Y442220D01*
X115050Y442070D01*
X115000Y441920D01*
X114940Y441780D01*
X114870Y441640D01*
X114800Y441500D01*
X114720Y441370D01*
X114630Y441240D01*
X114530Y441110D01*
X114430Y440990D01*
X114320Y440880D01*
X114210Y440770D01*
X114090Y440670D01*
X113960Y440570D01*
X113830Y440480D01*
X113700Y440400D01*
X113560Y440330D01*
X113420Y440260D01*
X113280Y440200D01*
X113130Y440150D01*
X112980Y440100D01*
X112820Y440070D01*
X112670Y440040D01*
X112510Y440020D01*
X112360Y440000D01*
X81200D01*
Y458000D01*
X112360D01*
X112510Y457980D01*
D02*
G37*
G36*
X309000Y414600D02*
X284000D01*
X283530Y414610D01*
X283060Y414650D01*
X282590Y414710D01*
X282130Y414800D01*
X281670Y414910D01*
X281220Y415040D01*
X280770Y415200D01*
X280340Y415380D01*
X279910Y415580D01*
X279500Y415810D01*
X279100Y416050D01*
X278710Y416320D01*
X278340Y416610D01*
X277980Y416910D01*
X277640Y417240D01*
X277310Y417580D01*
X277010Y417940D01*
X276720Y418310D01*
X276450Y418700D01*
X276210Y419100D01*
X275980Y419510D01*
X275780Y419940D01*
X275600Y420370D01*
X275440Y420820D01*
X275310Y421270D01*
X275200Y421730D01*
X275110Y422190D01*
X275050Y422660D01*
X275010Y423130D01*
X275000Y423600D01*
X275010Y424070D01*
X275050Y424540D01*
X275110Y425010D01*
X275200Y425470D01*
X275310Y425930D01*
X275440Y426380D01*
X275600Y426830D01*
X275780Y427260D01*
X275980Y427690D01*
X276210Y428100D01*
X276450Y428500D01*
X276720Y428890D01*
X277010Y429260D01*
X277310Y429620D01*
X277640Y429960D01*
X277980Y430290D01*
X278340Y430590D01*
X278710Y430880D01*
X279100Y431150D01*
X279500Y431390D01*
X279910Y431620D01*
X280340Y431820D01*
X280770Y432000D01*
X281220Y432160D01*
X281670Y432290D01*
X282130Y432400D01*
X282590Y432490D01*
X283060Y432550D01*
X283530Y432590D01*
X284000Y432600D01*
X309000D01*
Y414600D01*
D02*
G37*
G36*
X106670Y432590D02*
X107140Y432550D01*
X107610Y432490D01*
X108070Y432400D01*
X108530Y432290D01*
X108980Y432160D01*
X109430Y432000D01*
X109860Y431820D01*
X110290Y431620D01*
X110700Y431390D01*
X111100Y431150D01*
X111490Y430880D01*
X111860Y430590D01*
X112220Y430290D01*
X112560Y429960D01*
X112890Y429620D01*
X113190Y429260D01*
X113480Y428890D01*
X113750Y428500D01*
X113990Y428100D01*
X114220Y427690D01*
X114420Y427260D01*
X114600Y426830D01*
X114760Y426380D01*
X114890Y425930D01*
X115000Y425470D01*
X115090Y425010D01*
X115150Y424540D01*
X115190Y424070D01*
X115200Y423600D01*
X115190Y423130D01*
X115150Y422660D01*
X115090Y422190D01*
X115000Y421730D01*
X114890Y421270D01*
X114760Y420820D01*
X114600Y420370D01*
X114420Y419940D01*
X114220Y419510D01*
X113990Y419100D01*
X113750Y418700D01*
X113480Y418310D01*
X113190Y417940D01*
X112890Y417580D01*
X112560Y417240D01*
X112220Y416910D01*
X111860Y416610D01*
X111490Y416320D01*
X111100Y416050D01*
X110700Y415810D01*
X110290Y415580D01*
X109860Y415380D01*
X109430Y415200D01*
X108980Y415040D01*
X108530Y414910D01*
X108070Y414800D01*
X107610Y414710D01*
X107140Y414650D01*
X106670Y414610D01*
X106200Y414600D01*
X81200D01*
Y432600D01*
X106200D01*
X106670Y432590D01*
D02*
G37*
G36*
X309000Y389200D02*
X284000D01*
X283530Y389210D01*
X283060Y389250D01*
X282590Y389310D01*
X282130Y389400D01*
X281670Y389510D01*
X281220Y389640D01*
X280770Y389800D01*
X280340Y389980D01*
X279910Y390180D01*
X279500Y390410D01*
X279100Y390650D01*
X278710Y390920D01*
X278340Y391210D01*
X277980Y391510D01*
X277640Y391840D01*
X277310Y392180D01*
X277010Y392540D01*
X276720Y392910D01*
X276450Y393300D01*
X276210Y393700D01*
X275980Y394110D01*
X275780Y394540D01*
X275600Y394970D01*
X275440Y395420D01*
X275310Y395870D01*
X275200Y396330D01*
X275110Y396790D01*
X275050Y397260D01*
X275010Y397730D01*
X275000Y398200D01*
X275010Y398670D01*
X275050Y399140D01*
X275110Y399610D01*
X275200Y400070D01*
X275310Y400530D01*
X275440Y400980D01*
X275600Y401430D01*
X275780Y401860D01*
X275980Y402290D01*
X276210Y402700D01*
X276450Y403100D01*
X276720Y403490D01*
X277010Y403860D01*
X277310Y404220D01*
X277640Y404560D01*
X277980Y404890D01*
X278340Y405190D01*
X278710Y405480D01*
X279100Y405750D01*
X279500Y405990D01*
X279910Y406220D01*
X280340Y406420D01*
X280770Y406600D01*
X281220Y406760D01*
X281670Y406890D01*
X282130Y407000D01*
X282590Y407090D01*
X283060Y407150D01*
X283530Y407190D01*
X284000Y407200D01*
X309000D01*
Y389200D01*
D02*
G37*
G36*
X106670Y407190D02*
X107140Y407150D01*
X107610Y407090D01*
X108070Y407000D01*
X108530Y406890D01*
X108980Y406760D01*
X109430Y406600D01*
X109860Y406420D01*
X110290Y406220D01*
X110700Y405990D01*
X111100Y405750D01*
X111490Y405480D01*
X111860Y405190D01*
X112220Y404890D01*
X112560Y404560D01*
X112890Y404220D01*
X113190Y403860D01*
X113480Y403490D01*
X113750Y403100D01*
X113990Y402700D01*
X114220Y402290D01*
X114420Y401860D01*
X114600Y401430D01*
X114760Y400980D01*
X114890Y400530D01*
X115000Y400070D01*
X115090Y399610D01*
X115150Y399140D01*
X115190Y398670D01*
X115200Y398200D01*
X115190Y397730D01*
X115150Y397260D01*
X115090Y396790D01*
X115000Y396330D01*
X114890Y395870D01*
X114760Y395420D01*
X114600Y394970D01*
X114420Y394540D01*
X114220Y394110D01*
X113990Y393700D01*
X113750Y393300D01*
X113480Y392910D01*
X113190Y392540D01*
X112890Y392180D01*
X112560Y391840D01*
X112220Y391510D01*
X111860Y391210D01*
X111490Y390920D01*
X111100Y390650D01*
X110700Y390410D01*
X110290Y390180D01*
X109860Y389980D01*
X109430Y389800D01*
X108980Y389640D01*
X108530Y389510D01*
X108070Y389400D01*
X107610Y389310D01*
X107140Y389250D01*
X106670Y389210D01*
X106200Y389200D01*
X81200D01*
Y407200D01*
X106200D01*
X106670Y407190D01*
D02*
G37*
G36*
X309000Y363800D02*
X284000D01*
X283530Y363810D01*
X283060Y363850D01*
X282590Y363910D01*
X282130Y364000D01*
X281670Y364110D01*
X281220Y364240D01*
X280770Y364400D01*
X280340Y364580D01*
X279910Y364780D01*
X279500Y365010D01*
X279100Y365250D01*
X278710Y365520D01*
X278340Y365810D01*
X277980Y366110D01*
X277640Y366440D01*
X277310Y366780D01*
X277010Y367140D01*
X276720Y367510D01*
X276450Y367900D01*
X276210Y368300D01*
X275980Y368710D01*
X275780Y369140D01*
X275600Y369570D01*
X275440Y370020D01*
X275310Y370470D01*
X275200Y370930D01*
X275110Y371390D01*
X275050Y371860D01*
X275010Y372330D01*
X275000Y372800D01*
X275010Y373270D01*
X275050Y373740D01*
X275110Y374210D01*
X275200Y374670D01*
X275310Y375130D01*
X275440Y375580D01*
X275600Y376030D01*
X275780Y376460D01*
X275980Y376890D01*
X276210Y377300D01*
X276450Y377700D01*
X276720Y378090D01*
X277010Y378460D01*
X277310Y378820D01*
X277640Y379160D01*
X277980Y379490D01*
X278340Y379790D01*
X278710Y380080D01*
X279100Y380350D01*
X279500Y380590D01*
X279910Y380820D01*
X280340Y381020D01*
X280770Y381200D01*
X281220Y381360D01*
X281670Y381490D01*
X282130Y381600D01*
X282590Y381690D01*
X283060Y381750D01*
X283530Y381790D01*
X284000Y381800D01*
X309000D01*
Y363800D01*
D02*
G37*
G36*
X106670Y381790D02*
X107140Y381750D01*
X107610Y381690D01*
X108070Y381600D01*
X108530Y381490D01*
X108980Y381360D01*
X109430Y381200D01*
X109860Y381020D01*
X110290Y380820D01*
X110700Y380590D01*
X111100Y380350D01*
X111490Y380080D01*
X111860Y379790D01*
X112220Y379490D01*
X112560Y379160D01*
X112890Y378820D01*
X113190Y378460D01*
X113480Y378090D01*
X113750Y377700D01*
X113990Y377300D01*
X114220Y376890D01*
X114420Y376460D01*
X114600Y376030D01*
X114760Y375580D01*
X114890Y375130D01*
X115000Y374670D01*
X115090Y374210D01*
X115150Y373740D01*
X115190Y373270D01*
X115200Y372800D01*
X115190Y372330D01*
X115150Y371860D01*
X115090Y371390D01*
X115000Y370930D01*
X114890Y370470D01*
X114760Y370020D01*
X114600Y369570D01*
X114420Y369140D01*
X114220Y368710D01*
X113990Y368300D01*
X113750Y367900D01*
X113480Y367510D01*
X113190Y367140D01*
X112890Y366780D01*
X112560Y366440D01*
X112220Y366110D01*
X111860Y365810D01*
X111490Y365520D01*
X111100Y365250D01*
X110700Y365010D01*
X110290Y364780D01*
X109860Y364580D01*
X109430Y364400D01*
X108980Y364240D01*
X108530Y364110D01*
X108070Y364000D01*
X107610Y363910D01*
X107140Y363850D01*
X106670Y363810D01*
X106200Y363800D01*
X81200D01*
Y381800D01*
X106200D01*
X106670Y381790D01*
D02*
G37*
G36*
X309000Y338400D02*
X284000D01*
X283530Y338410D01*
X283060Y338450D01*
X282590Y338510D01*
X282130Y338600D01*
X281670Y338710D01*
X281220Y338840D01*
X280770Y339000D01*
X280340Y339180D01*
X279910Y339380D01*
X279500Y339610D01*
X279100Y339850D01*
X278710Y340120D01*
X278340Y340410D01*
X277980Y340710D01*
X277640Y341040D01*
X277310Y341380D01*
X277010Y341740D01*
X276720Y342110D01*
X276450Y342500D01*
X276210Y342900D01*
X275980Y343310D01*
X275780Y343740D01*
X275600Y344170D01*
X275440Y344620D01*
X275310Y345070D01*
X275200Y345530D01*
X275110Y345990D01*
X275050Y346460D01*
X275010Y346930D01*
X275000Y347400D01*
X275010Y347870D01*
X275050Y348340D01*
X275110Y348810D01*
X275200Y349270D01*
X275310Y349730D01*
X275440Y350180D01*
X275600Y350630D01*
X275780Y351060D01*
X275980Y351490D01*
X276210Y351900D01*
X276450Y352300D01*
X276720Y352690D01*
X277010Y353060D01*
X277310Y353420D01*
X277640Y353760D01*
X277980Y354090D01*
X278340Y354390D01*
X278710Y354680D01*
X279100Y354950D01*
X279500Y355190D01*
X279910Y355420D01*
X280340Y355620D01*
X280770Y355800D01*
X281220Y355960D01*
X281670Y356090D01*
X282130Y356200D01*
X282590Y356290D01*
X283060Y356350D01*
X283530Y356390D01*
X284000Y356400D01*
X309000D01*
Y338400D01*
D02*
G37*
G36*
X106670Y356390D02*
X107140Y356350D01*
X107610Y356290D01*
X108070Y356200D01*
X108530Y356090D01*
X108980Y355960D01*
X109430Y355800D01*
X109860Y355620D01*
X110290Y355420D01*
X110700Y355190D01*
X111100Y354950D01*
X111490Y354680D01*
X111860Y354390D01*
X112220Y354090D01*
X112560Y353760D01*
X112890Y353420D01*
X113190Y353060D01*
X113480Y352690D01*
X113750Y352300D01*
X113990Y351900D01*
X114220Y351490D01*
X114420Y351060D01*
X114600Y350630D01*
X114760Y350180D01*
X114890Y349730D01*
X115000Y349270D01*
X115090Y348810D01*
X115150Y348340D01*
X115190Y347870D01*
X115200Y347400D01*
X115190Y346930D01*
X115150Y346460D01*
X115090Y345990D01*
X115000Y345530D01*
X114890Y345070D01*
X114760Y344620D01*
X114600Y344170D01*
X114420Y343740D01*
X114220Y343310D01*
X113990Y342900D01*
X113750Y342500D01*
X113480Y342110D01*
X113190Y341740D01*
X112890Y341380D01*
X112560Y341040D01*
X112220Y340710D01*
X111860Y340410D01*
X111490Y340120D01*
X111100Y339850D01*
X110700Y339610D01*
X110290Y339380D01*
X109860Y339180D01*
X109430Y339000D01*
X108980Y338840D01*
X108530Y338710D01*
X108070Y338600D01*
X107610Y338510D01*
X107140Y338450D01*
X106670Y338410D01*
X106200Y338400D01*
X81200D01*
Y356400D01*
X106200D01*
X106670Y356390D01*
D02*
G37*
G36*
X630898Y340009D02*
X631029Y339983D01*
X631155Y339941D01*
X631274Y339882D01*
X631385Y339808D01*
X631485Y339720D01*
X631485Y339720D01*
X631573Y339620D01*
X631647Y339509D01*
X631706Y339390D01*
X631749Y339263D01*
X631774Y339133D01*
X631783Y339000D01*
Y329018D01*
X639265D01*
X639398Y329009D01*
X639529Y328983D01*
X639655Y328941D01*
X639774Y328882D01*
X639885Y328808D01*
X639985Y328720D01*
X640073Y328620D01*
X640147Y328509D01*
X640206Y328390D01*
X640248Y328264D01*
X640274Y328133D01*
X640283Y328000D01*
Y315000D01*
X640274Y314867D01*
X640248Y314736D01*
X640206Y314610D01*
X640147Y314491D01*
X640073Y314380D01*
X639985Y314280D01*
X639885Y314192D01*
X639774Y314118D01*
X639655Y314059D01*
X639529Y314016D01*
X639398Y313990D01*
X639265Y313982D01*
X608765D01*
X608632Y313990D01*
X608501Y314016D01*
X608375Y314059D01*
X608256Y314118D01*
X608145Y314192D01*
X608045Y314280D01*
X608045Y314280D01*
X607957Y314380D01*
X607883Y314491D01*
X607824Y314610D01*
X607781Y314736D01*
X607756Y314867D01*
X607747Y315000D01*
Y339000D01*
X607756Y339133D01*
X607781Y339263D01*
X607824Y339390D01*
X607883Y339509D01*
X607957Y339620D01*
X608045Y339720D01*
X608145Y339808D01*
X608256Y339882D01*
X608375Y339941D01*
X608501Y339983D01*
X608632Y340009D01*
X608765Y340018D01*
X630765D01*
X630898Y340009D01*
D02*
G37*
G36*
X309000Y313000D02*
X277840D01*
X277690Y313020D01*
X277530Y313040D01*
X277380Y313070D01*
X277220Y313100D01*
X277070Y313150D01*
X276920Y313200D01*
X276780Y313260D01*
X276640Y313330D01*
X276500Y313400D01*
X276370Y313480D01*
X276240Y313570D01*
X276110Y313670D01*
X275990Y313770D01*
X275880Y313880D01*
X275770Y313990D01*
X275670Y314110D01*
X275570Y314240D01*
X275480Y314370D01*
X275400Y314500D01*
X275330Y314640D01*
X275260Y314780D01*
X275200Y314920D01*
X275150Y315070D01*
X275100Y315220D01*
X275070Y315380D01*
X275040Y315530D01*
X275020Y315690D01*
X275000Y315840D01*
Y316000D01*
Y328000D01*
Y328160D01*
X275020Y328310D01*
X275040Y328470D01*
X275070Y328620D01*
X275100Y328780D01*
X275150Y328930D01*
X275200Y329080D01*
X275260Y329220D01*
X275330Y329360D01*
X275400Y329500D01*
X275480Y329630D01*
X275570Y329760D01*
X275670Y329890D01*
X275770Y330010D01*
X275880Y330120D01*
X275990Y330230D01*
X276110Y330330D01*
X276240Y330430D01*
X276370Y330520D01*
X276500Y330600D01*
X276640Y330670D01*
X276780Y330740D01*
X276920Y330800D01*
X277070Y330850D01*
X277220Y330900D01*
X277380Y330930D01*
X277530Y330960D01*
X277690Y330980D01*
X277840Y331000D01*
X309000D01*
Y313000D01*
D02*
G37*
G36*
X112510Y330980D02*
X112670Y330960D01*
X112820Y330930D01*
X112980Y330900D01*
X113130Y330850D01*
X113280Y330800D01*
X113420Y330740D01*
X113560Y330670D01*
X113700Y330600D01*
X113830Y330520D01*
X113960Y330430D01*
X114090Y330330D01*
X114210Y330230D01*
X114320Y330120D01*
X114430Y330010D01*
X114530Y329890D01*
X114630Y329760D01*
X114720Y329630D01*
X114800Y329500D01*
X114870Y329360D01*
X114940Y329220D01*
X115000Y329080D01*
X115050Y328930D01*
X115100Y328780D01*
X115130Y328620D01*
X115160Y328470D01*
X115180Y328310D01*
X115200Y328160D01*
Y328000D01*
Y316000D01*
Y315840D01*
X115180Y315690D01*
X115160Y315530D01*
X115130Y315380D01*
X115100Y315220D01*
X115050Y315070D01*
X115000Y314920D01*
X114940Y314780D01*
X114870Y314640D01*
X114800Y314500D01*
X114720Y314370D01*
X114630Y314240D01*
X114530Y314110D01*
X114430Y313990D01*
X114320Y313880D01*
X114210Y313770D01*
X114090Y313670D01*
X113960Y313570D01*
X113830Y313480D01*
X113700Y313400D01*
X113560Y313330D01*
X113420Y313260D01*
X113280Y313200D01*
X113130Y313150D01*
X112980Y313100D01*
X112820Y313070D01*
X112670Y313040D01*
X112510Y313020D01*
X112360Y313000D01*
X81200D01*
Y331000D01*
X112360D01*
X112510Y330980D01*
D02*
G37*
G36*
X309000Y287600D02*
X284000D01*
X283530Y287610D01*
X283060Y287650D01*
X282590Y287710D01*
X282130Y287800D01*
X281670Y287910D01*
X281220Y288040D01*
X280770Y288200D01*
X280340Y288380D01*
X279910Y288580D01*
X279500Y288810D01*
X279100Y289050D01*
X278710Y289320D01*
X278340Y289610D01*
X277980Y289910D01*
X277640Y290240D01*
X277310Y290580D01*
X277010Y290940D01*
X276720Y291310D01*
X276450Y291700D01*
X276210Y292100D01*
X275980Y292510D01*
X275780Y292940D01*
X275600Y293370D01*
X275440Y293820D01*
X275310Y294270D01*
X275200Y294730D01*
X275110Y295190D01*
X275050Y295660D01*
X275010Y296130D01*
X275000Y296600D01*
X275010Y297070D01*
X275050Y297540D01*
X275110Y298010D01*
X275200Y298470D01*
X275310Y298930D01*
X275440Y299380D01*
X275600Y299830D01*
X275780Y300260D01*
X275980Y300690D01*
X276210Y301100D01*
X276450Y301500D01*
X276720Y301890D01*
X277010Y302260D01*
X277310Y302620D01*
X277640Y302960D01*
X277980Y303290D01*
X278340Y303590D01*
X278710Y303880D01*
X279100Y304150D01*
X279500Y304390D01*
X279910Y304620D01*
X280340Y304820D01*
X280770Y305000D01*
X281220Y305160D01*
X281670Y305290D01*
X282130Y305400D01*
X282590Y305490D01*
X283060Y305550D01*
X283530Y305590D01*
X284000Y305600D01*
X309000D01*
Y287600D01*
D02*
G37*
G36*
X106670Y305590D02*
X107140Y305550D01*
X107610Y305490D01*
X108070Y305400D01*
X108530Y305290D01*
X108980Y305160D01*
X109430Y305000D01*
X109860Y304820D01*
X110290Y304620D01*
X110700Y304390D01*
X111100Y304150D01*
X111490Y303880D01*
X111860Y303590D01*
X112220Y303290D01*
X112560Y302960D01*
X112890Y302620D01*
X113190Y302260D01*
X113480Y301890D01*
X113750Y301500D01*
X113990Y301100D01*
X114220Y300690D01*
X114420Y300260D01*
X114600Y299830D01*
X114760Y299380D01*
X114890Y298930D01*
X115000Y298470D01*
X115090Y298010D01*
X115150Y297540D01*
X115190Y297070D01*
X115200Y296600D01*
X115190Y296130D01*
X115150Y295660D01*
X115090Y295190D01*
X115000Y294730D01*
X114890Y294270D01*
X114760Y293820D01*
X114600Y293370D01*
X114420Y292940D01*
X114220Y292510D01*
X113990Y292100D01*
X113750Y291700D01*
X113480Y291310D01*
X113190Y290940D01*
X112890Y290580D01*
X112560Y290240D01*
X112220Y289910D01*
X111860Y289610D01*
X111490Y289320D01*
X111100Y289050D01*
X110700Y288810D01*
X110290Y288580D01*
X109860Y288380D01*
X109430Y288200D01*
X108980Y288040D01*
X108530Y287910D01*
X108070Y287800D01*
X107610Y287710D01*
X107140Y287650D01*
X106670Y287610D01*
X106200Y287600D01*
X81200D01*
Y305600D01*
X106200D01*
X106670Y305590D01*
D02*
G37*
G36*
X309000Y262200D02*
X284000D01*
X283530Y262210D01*
X283060Y262250D01*
X282590Y262310D01*
X282130Y262400D01*
X281670Y262510D01*
X281220Y262640D01*
X280770Y262800D01*
X280340Y262980D01*
X279910Y263180D01*
X279500Y263410D01*
X279100Y263650D01*
X278710Y263920D01*
X278340Y264210D01*
X277980Y264510D01*
X277640Y264840D01*
X277310Y265180D01*
X277010Y265540D01*
X276720Y265910D01*
X276450Y266300D01*
X276210Y266700D01*
X275980Y267110D01*
X275780Y267540D01*
X275600Y267970D01*
X275440Y268420D01*
X275310Y268870D01*
X275200Y269330D01*
X275110Y269790D01*
X275050Y270260D01*
X275010Y270730D01*
X275000Y271200D01*
X275010Y271670D01*
X275050Y272140D01*
X275110Y272610D01*
X275200Y273070D01*
X275310Y273530D01*
X275440Y273980D01*
X275600Y274430D01*
X275780Y274860D01*
X275980Y275290D01*
X276210Y275700D01*
X276450Y276100D01*
X276720Y276490D01*
X277010Y276860D01*
X277310Y277220D01*
X277640Y277560D01*
X277980Y277890D01*
X278340Y278190D01*
X278710Y278480D01*
X279100Y278750D01*
X279500Y278990D01*
X279910Y279220D01*
X280340Y279420D01*
X280770Y279600D01*
X281220Y279760D01*
X281670Y279890D01*
X282130Y280000D01*
X282590Y280090D01*
X283060Y280150D01*
X283530Y280190D01*
X284000Y280200D01*
X309000D01*
Y262200D01*
D02*
G37*
G36*
X106670Y280190D02*
X107140Y280150D01*
X107610Y280090D01*
X108070Y280000D01*
X108530Y279890D01*
X108980Y279760D01*
X109430Y279600D01*
X109860Y279420D01*
X110290Y279220D01*
X110700Y278990D01*
X111100Y278750D01*
X111490Y278480D01*
X111860Y278190D01*
X112220Y277890D01*
X112560Y277560D01*
X112890Y277220D01*
X113190Y276860D01*
X113480Y276490D01*
X113750Y276100D01*
X113990Y275700D01*
X114220Y275290D01*
X114420Y274860D01*
X114600Y274430D01*
X114760Y273980D01*
X114890Y273530D01*
X115000Y273070D01*
X115090Y272610D01*
X115150Y272140D01*
X115190Y271670D01*
X115200Y271200D01*
X115190Y270730D01*
X115150Y270260D01*
X115090Y269790D01*
X115000Y269330D01*
X114890Y268870D01*
X114760Y268420D01*
X114600Y267970D01*
X114420Y267540D01*
X114220Y267110D01*
X113990Y266700D01*
X113750Y266300D01*
X113480Y265910D01*
X113190Y265540D01*
X112890Y265180D01*
X112560Y264840D01*
X112220Y264510D01*
X111860Y264210D01*
X111490Y263920D01*
X111100Y263650D01*
X110700Y263410D01*
X110290Y263180D01*
X109860Y262980D01*
X109430Y262800D01*
X108980Y262640D01*
X108530Y262510D01*
X108070Y262400D01*
X107610Y262310D01*
X107140Y262250D01*
X106670Y262210D01*
X106200Y262200D01*
X81200D01*
Y280200D01*
X106200D01*
X106670Y280190D01*
D02*
G37*
G36*
X309000Y236800D02*
X284000D01*
X283530Y236810D01*
X283060Y236850D01*
X282590Y236910D01*
X282130Y237000D01*
X281670Y237110D01*
X281220Y237240D01*
X280770Y237400D01*
X280340Y237580D01*
X279910Y237780D01*
X279500Y238010D01*
X279100Y238250D01*
X278710Y238520D01*
X278340Y238810D01*
X277980Y239110D01*
X277640Y239440D01*
X277310Y239780D01*
X277010Y240140D01*
X276720Y240510D01*
X276450Y240900D01*
X276210Y241300D01*
X275980Y241710D01*
X275780Y242140D01*
X275600Y242570D01*
X275440Y243020D01*
X275310Y243470D01*
X275200Y243930D01*
X275110Y244390D01*
X275050Y244860D01*
X275010Y245330D01*
X275000Y245800D01*
X275010Y246270D01*
X275050Y246740D01*
X275110Y247210D01*
X275200Y247670D01*
X275310Y248130D01*
X275440Y248580D01*
X275600Y249030D01*
X275780Y249460D01*
X275980Y249890D01*
X276210Y250300D01*
X276450Y250700D01*
X276720Y251090D01*
X277010Y251460D01*
X277310Y251820D01*
X277640Y252160D01*
X277980Y252490D01*
X278340Y252790D01*
X278710Y253080D01*
X279100Y253350D01*
X279500Y253590D01*
X279910Y253820D01*
X280340Y254020D01*
X280770Y254200D01*
X281220Y254360D01*
X281670Y254490D01*
X282130Y254600D01*
X282590Y254690D01*
X283060Y254750D01*
X283530Y254790D01*
X284000Y254800D01*
X309000D01*
Y236800D01*
D02*
G37*
G36*
X106670Y254790D02*
X107140Y254750D01*
X107610Y254690D01*
X108070Y254600D01*
X108530Y254490D01*
X108980Y254360D01*
X109430Y254200D01*
X109860Y254020D01*
X110290Y253820D01*
X110700Y253590D01*
X111100Y253350D01*
X111490Y253080D01*
X111860Y252790D01*
X112220Y252490D01*
X112560Y252160D01*
X112890Y251820D01*
X113190Y251460D01*
X113480Y251090D01*
X113750Y250700D01*
X113990Y250300D01*
X114220Y249890D01*
X114420Y249460D01*
X114600Y249030D01*
X114760Y248580D01*
X114890Y248130D01*
X115000Y247670D01*
X115090Y247210D01*
X115150Y246740D01*
X115190Y246270D01*
X115200Y245800D01*
X115190Y245330D01*
X115150Y244860D01*
X115090Y244390D01*
X115000Y243930D01*
X114890Y243470D01*
X114760Y243020D01*
X114600Y242570D01*
X114420Y242140D01*
X114220Y241710D01*
X113990Y241300D01*
X113750Y240900D01*
X113480Y240510D01*
X113190Y240140D01*
X112890Y239780D01*
X112560Y239440D01*
X112220Y239110D01*
X111860Y238810D01*
X111490Y238520D01*
X111100Y238250D01*
X110700Y238010D01*
X110290Y237780D01*
X109860Y237580D01*
X109430Y237400D01*
X108980Y237240D01*
X108530Y237110D01*
X108070Y237000D01*
X107610Y236910D01*
X107140Y236850D01*
X106670Y236810D01*
X106200Y236800D01*
X81200D01*
Y254800D01*
X106200D01*
X106670Y254790D01*
D02*
G37*
G36*
X309000Y211400D02*
X284000D01*
X283530Y211410D01*
X283060Y211450D01*
X282590Y211510D01*
X282130Y211600D01*
X281670Y211710D01*
X281220Y211840D01*
X280770Y212000D01*
X280340Y212180D01*
X279910Y212380D01*
X279500Y212610D01*
X279100Y212850D01*
X278710Y213120D01*
X278340Y213410D01*
X277980Y213710D01*
X277640Y214040D01*
X277310Y214380D01*
X277010Y214740D01*
X276720Y215110D01*
X276450Y215500D01*
X276210Y215900D01*
X275980Y216310D01*
X275780Y216740D01*
X275600Y217170D01*
X275440Y217620D01*
X275310Y218070D01*
X275200Y218530D01*
X275110Y218990D01*
X275050Y219460D01*
X275010Y219930D01*
X275000Y220400D01*
X275010Y220870D01*
X275050Y221340D01*
X275110Y221810D01*
X275200Y222270D01*
X275310Y222730D01*
X275440Y223180D01*
X275600Y223630D01*
X275780Y224060D01*
X275980Y224490D01*
X276210Y224900D01*
X276450Y225300D01*
X276720Y225690D01*
X277010Y226060D01*
X277310Y226420D01*
X277640Y226760D01*
X277980Y227090D01*
X278340Y227390D01*
X278710Y227680D01*
X279100Y227950D01*
X279500Y228190D01*
X279910Y228420D01*
X280340Y228620D01*
X280770Y228800D01*
X281220Y228960D01*
X281670Y229090D01*
X282130Y229200D01*
X282590Y229290D01*
X283060Y229350D01*
X283530Y229390D01*
X284000Y229400D01*
X309000D01*
Y211400D01*
D02*
G37*
G36*
X106670Y229390D02*
X107140Y229350D01*
X107610Y229290D01*
X108070Y229200D01*
X108530Y229090D01*
X108980Y228960D01*
X109430Y228800D01*
X109860Y228620D01*
X110290Y228420D01*
X110700Y228190D01*
X111100Y227950D01*
X111490Y227680D01*
X111860Y227390D01*
X112220Y227090D01*
X112560Y226760D01*
X112890Y226420D01*
X113190Y226060D01*
X113480Y225690D01*
X113750Y225300D01*
X113990Y224900D01*
X114220Y224490D01*
X114420Y224060D01*
X114600Y223630D01*
X114760Y223180D01*
X114890Y222730D01*
X115000Y222270D01*
X115090Y221810D01*
X115150Y221340D01*
X115190Y220870D01*
X115200Y220400D01*
X115190Y219930D01*
X115150Y219460D01*
X115090Y218990D01*
X115000Y218530D01*
X114890Y218070D01*
X114760Y217620D01*
X114600Y217170D01*
X114420Y216740D01*
X114220Y216310D01*
X113990Y215900D01*
X113750Y215500D01*
X113480Y215110D01*
X113190Y214740D01*
X112890Y214380D01*
X112560Y214040D01*
X112220Y213710D01*
X111860Y213410D01*
X111490Y213120D01*
X111100Y212850D01*
X110700Y212610D01*
X110290Y212380D01*
X109860Y212180D01*
X109430Y212000D01*
X108980Y211840D01*
X108530Y211710D01*
X108070Y211600D01*
X107610Y211510D01*
X107140Y211450D01*
X106670Y211410D01*
X106200Y211400D01*
X81200D01*
Y229400D01*
X106200D01*
X106670Y229390D01*
D02*
G37*
G36*
X639398Y236010D02*
X639529Y235984D01*
X639655Y235941D01*
X639774Y235882D01*
X639885Y235808D01*
X639985Y235720D01*
X640073Y235620D01*
X640147Y235509D01*
X640206Y235390D01*
X640248Y235264D01*
X640274Y235133D01*
X640283Y235000D01*
Y222000D01*
X640274Y221867D01*
X640248Y221737D01*
X640206Y221610D01*
X640147Y221491D01*
X640073Y221380D01*
X639985Y221280D01*
X639885Y221192D01*
X639774Y221118D01*
X639655Y221059D01*
X639529Y221017D01*
X639398Y220991D01*
X639265Y220982D01*
X631783D01*
Y211000D01*
X631774Y210867D01*
X631748Y210737D01*
X631706Y210610D01*
X631647Y210491D01*
X631573Y210380D01*
X631485Y210280D01*
X631385Y210192D01*
X631274Y210118D01*
X631155Y210059D01*
X631029Y210016D01*
X630898Y209991D01*
X630765Y209982D01*
X608765D01*
X608632Y209991D01*
X608501Y210016D01*
X608375Y210059D01*
X608256Y210118D01*
X608145Y210192D01*
X608045Y210280D01*
X607957Y210380D01*
X607883Y210491D01*
X607824Y210610D01*
X607781Y210737D01*
X607756Y210867D01*
X607747Y211000D01*
Y235000D01*
X607756Y235133D01*
X607781Y235264D01*
X607824Y235390D01*
X607883Y235509D01*
X607957Y235620D01*
X608045Y235720D01*
X608145Y235808D01*
X608256Y235882D01*
X608375Y235941D01*
X608501Y235984D01*
X608632Y236010D01*
X608765Y236018D01*
X639265D01*
X639265Y236018D01*
X639398Y236010D01*
D02*
G37*
G36*
X309000Y186000D02*
X277840D01*
X277690Y186020D01*
X277530Y186040D01*
X277380Y186070D01*
X277220Y186100D01*
X277070Y186150D01*
X276920Y186200D01*
X276780Y186260D01*
X276640Y186330D01*
X276500Y186400D01*
X276370Y186480D01*
X276240Y186570D01*
X276110Y186670D01*
X275990Y186770D01*
X275880Y186880D01*
X275770Y186990D01*
X275670Y187110D01*
X275570Y187240D01*
X275480Y187370D01*
X275400Y187500D01*
X275330Y187640D01*
X275260Y187780D01*
X275200Y187920D01*
X275150Y188070D01*
X275100Y188220D01*
X275070Y188380D01*
X275040Y188530D01*
X275020Y188690D01*
X275000Y188840D01*
Y189000D01*
Y201000D01*
Y201160D01*
X275020Y201310D01*
X275040Y201470D01*
X275070Y201620D01*
X275100Y201780D01*
X275150Y201930D01*
X275200Y202080D01*
X275260Y202220D01*
X275330Y202360D01*
X275400Y202500D01*
X275480Y202630D01*
X275570Y202760D01*
X275670Y202890D01*
X275770Y203010D01*
X275880Y203120D01*
X275990Y203230D01*
X276110Y203330D01*
X276240Y203430D01*
X276370Y203520D01*
X276500Y203600D01*
X276640Y203670D01*
X276780Y203740D01*
X276920Y203800D01*
X277070Y203850D01*
X277220Y203900D01*
X277380Y203930D01*
X277530Y203960D01*
X277690Y203980D01*
X277840Y204000D01*
X309000D01*
Y186000D01*
D02*
G37*
G36*
X112510Y203980D02*
X112670Y203960D01*
X112820Y203930D01*
X112980Y203900D01*
X113130Y203850D01*
X113280Y203800D01*
X113420Y203740D01*
X113560Y203670D01*
X113700Y203600D01*
X113830Y203520D01*
X113960Y203430D01*
X114090Y203330D01*
X114210Y203230D01*
X114320Y203120D01*
X114430Y203010D01*
X114530Y202890D01*
X114630Y202760D01*
X114720Y202630D01*
X114800Y202500D01*
X114870Y202360D01*
X114940Y202220D01*
X115000Y202080D01*
X115050Y201930D01*
X115100Y201780D01*
X115130Y201620D01*
X115160Y201470D01*
X115180Y201310D01*
X115200Y201160D01*
Y201000D01*
Y189000D01*
Y188840D01*
X115180Y188690D01*
X115160Y188530D01*
X115130Y188380D01*
X115100Y188220D01*
X115050Y188070D01*
X115000Y187920D01*
X114940Y187780D01*
X114870Y187640D01*
X114800Y187500D01*
X114720Y187370D01*
X114630Y187240D01*
X114530Y187110D01*
X114430Y186990D01*
X114320Y186880D01*
X114210Y186770D01*
X114090Y186670D01*
X113960Y186570D01*
X113830Y186480D01*
X113700Y186400D01*
X113560Y186330D01*
X113420Y186260D01*
X113280Y186200D01*
X113130Y186150D01*
X112980Y186100D01*
X112820Y186070D01*
X112670Y186040D01*
X112510Y186020D01*
X112360Y186000D01*
X81200D01*
Y204000D01*
X112360D01*
X112510Y203980D01*
D02*
G37*
G36*
X309000Y160600D02*
X284000D01*
X283530Y160610D01*
X283060Y160650D01*
X282590Y160710D01*
X282130Y160800D01*
X281670Y160910D01*
X281220Y161040D01*
X280770Y161200D01*
X280340Y161380D01*
X279910Y161580D01*
X279500Y161810D01*
X279100Y162050D01*
X278710Y162320D01*
X278340Y162610D01*
X277980Y162910D01*
X277640Y163240D01*
X277310Y163580D01*
X277010Y163940D01*
X276720Y164310D01*
X276450Y164700D01*
X276210Y165100D01*
X275980Y165510D01*
X275780Y165940D01*
X275600Y166370D01*
X275440Y166820D01*
X275310Y167270D01*
X275200Y167730D01*
X275110Y168190D01*
X275050Y168660D01*
X275010Y169130D01*
X275000Y169600D01*
X275010Y170070D01*
X275050Y170540D01*
X275110Y171010D01*
X275200Y171470D01*
X275310Y171930D01*
X275440Y172380D01*
X275600Y172830D01*
X275780Y173260D01*
X275980Y173690D01*
X276210Y174100D01*
X276450Y174500D01*
X276720Y174890D01*
X277010Y175260D01*
X277310Y175620D01*
X277640Y175960D01*
X277980Y176290D01*
X278340Y176590D01*
X278710Y176880D01*
X279100Y177150D01*
X279500Y177390D01*
X279910Y177620D01*
X280340Y177820D01*
X280770Y178000D01*
X281220Y178160D01*
X281670Y178290D01*
X282130Y178400D01*
X282590Y178490D01*
X283060Y178550D01*
X283530Y178590D01*
X284000Y178600D01*
X309000D01*
Y160600D01*
D02*
G37*
G36*
X106670Y178590D02*
X107140Y178550D01*
X107610Y178490D01*
X108070Y178400D01*
X108530Y178290D01*
X108980Y178160D01*
X109430Y178000D01*
X109860Y177820D01*
X110290Y177620D01*
X110700Y177390D01*
X111100Y177150D01*
X111490Y176880D01*
X111860Y176590D01*
X112220Y176290D01*
X112560Y175960D01*
X112890Y175620D01*
X113190Y175260D01*
X113480Y174890D01*
X113750Y174500D01*
X113990Y174100D01*
X114220Y173690D01*
X114420Y173260D01*
X114600Y172830D01*
X114760Y172380D01*
X114890Y171930D01*
X115000Y171470D01*
X115090Y171010D01*
X115150Y170540D01*
X115190Y170070D01*
X115200Y169600D01*
X115190Y169130D01*
X115150Y168660D01*
X115090Y168190D01*
X115000Y167730D01*
X114890Y167270D01*
X114760Y166820D01*
X114600Y166370D01*
X114420Y165940D01*
X114220Y165510D01*
X113990Y165100D01*
X113750Y164700D01*
X113480Y164310D01*
X113190Y163940D01*
X112890Y163580D01*
X112560Y163240D01*
X112220Y162910D01*
X111860Y162610D01*
X111490Y162320D01*
X111100Y162050D01*
X110700Y161810D01*
X110290Y161580D01*
X109860Y161380D01*
X109430Y161200D01*
X108980Y161040D01*
X108530Y160910D01*
X108070Y160800D01*
X107610Y160710D01*
X107140Y160650D01*
X106670Y160610D01*
X106200Y160600D01*
X81200D01*
Y178600D01*
X106200D01*
X106670Y178590D01*
D02*
G37*
G36*
X919038Y148076D02*
X920473Y146641D01*
X921250Y144765D01*
X921250Y143750D01*
X921250Y143750D01*
X921250Y96252D01*
X921250Y95332D01*
X920547Y93633D01*
X919247Y92331D01*
X917549Y91625D01*
X916629Y91623D01*
X916629D01*
X773635Y91371D01*
X772859Y91370D01*
X771336Y91670D01*
X769901Y92262D01*
X768610Y93123D01*
X767511Y94220D01*
X766648Y95510D01*
X766053Y96944D01*
X765750Y98466D01*
X765750Y99242D01*
Y143250D01*
Y144364D01*
X766603Y146424D01*
X768179Y148000D01*
X770238Y148853D01*
X771353D01*
X771353Y148853D01*
X916147Y148853D01*
X917162Y148853D01*
X919038Y148076D01*
D02*
G37*
G36*
X749000Y148500D02*
X749895Y148500D01*
X751549Y147815D01*
X752815Y146549D01*
X753500Y144895D01*
X753500Y144000D01*
X753500Y144000D01*
X753500Y98506D01*
X753500Y97791D01*
X753221Y96388D01*
X752675Y95066D01*
X751881Y93876D01*
X750870Y92864D01*
X749682Y92068D01*
X748361Y91519D01*
X746959Y91238D01*
X746244Y91237D01*
X746244Y91237D01*
X616494Y91008D01*
X615551Y91007D01*
X613807Y91726D01*
X612473Y93059D01*
X611750Y94801D01*
X611750Y95744D01*
Y95744D01*
Y144250D01*
Y145095D01*
X612397Y146657D01*
X613592Y147853D01*
X615154Y148500D01*
X616000Y148500D01*
X616000Y148500D01*
X749000Y148500D01*
D02*
G37*
G36*
X309000Y135200D02*
X284000D01*
X283530Y135210D01*
X283060Y135250D01*
X282590Y135310D01*
X282130Y135400D01*
X281670Y135510D01*
X281220Y135640D01*
X280770Y135800D01*
X280340Y135980D01*
X279910Y136180D01*
X279500Y136410D01*
X279100Y136650D01*
X278710Y136920D01*
X278340Y137210D01*
X277980Y137510D01*
X277640Y137840D01*
X277310Y138180D01*
X277010Y138540D01*
X276720Y138910D01*
X276450Y139300D01*
X276210Y139700D01*
X275980Y140110D01*
X275780Y140540D01*
X275600Y140970D01*
X275440Y141420D01*
X275310Y141870D01*
X275200Y142330D01*
X275110Y142790D01*
X275050Y143260D01*
X275010Y143730D01*
X275000Y144200D01*
X275010Y144670D01*
X275050Y145140D01*
X275110Y145610D01*
X275200Y146070D01*
X275310Y146530D01*
X275440Y146980D01*
X275600Y147430D01*
X275780Y147860D01*
X275980Y148290D01*
X276210Y148700D01*
X276450Y149100D01*
X276720Y149490D01*
X277010Y149860D01*
X277310Y150220D01*
X277640Y150560D01*
X277980Y150890D01*
X278340Y151190D01*
X278710Y151480D01*
X279100Y151750D01*
X279500Y151990D01*
X279910Y152220D01*
X280340Y152420D01*
X280770Y152600D01*
X281220Y152760D01*
X281670Y152890D01*
X282130Y153000D01*
X282590Y153090D01*
X283060Y153150D01*
X283530Y153190D01*
X284000Y153200D01*
X309000D01*
Y135200D01*
D02*
G37*
G36*
X106670Y153190D02*
X107140Y153150D01*
X107610Y153090D01*
X108070Y153000D01*
X108530Y152890D01*
X108980Y152760D01*
X109430Y152600D01*
X109860Y152420D01*
X110290Y152220D01*
X110700Y151990D01*
X111100Y151750D01*
X111490Y151480D01*
X111860Y151190D01*
X112220Y150890D01*
X112560Y150560D01*
X112890Y150220D01*
X113190Y149860D01*
X113480Y149490D01*
X113750Y149100D01*
X113990Y148700D01*
X114220Y148290D01*
X114420Y147860D01*
X114600Y147430D01*
X114760Y146980D01*
X114890Y146530D01*
X115000Y146070D01*
X115090Y145610D01*
X115150Y145140D01*
X115190Y144670D01*
X115200Y144200D01*
X115190Y143730D01*
X115150Y143260D01*
X115090Y142790D01*
X115000Y142330D01*
X114890Y141870D01*
X114760Y141420D01*
X114600Y140970D01*
X114420Y140540D01*
X114220Y140110D01*
X113990Y139700D01*
X113750Y139300D01*
X113480Y138910D01*
X113190Y138540D01*
X112890Y138180D01*
X112560Y137840D01*
X112220Y137510D01*
X111860Y137210D01*
X111490Y136920D01*
X111100Y136650D01*
X110700Y136410D01*
X110290Y136180D01*
X109860Y135980D01*
X109430Y135800D01*
X108980Y135640D01*
X108530Y135510D01*
X108070Y135400D01*
X107610Y135310D01*
X107140Y135250D01*
X106670Y135210D01*
X106200Y135200D01*
X81200D01*
Y153200D01*
X106200D01*
X106670Y153190D01*
D02*
G37*
G36*
X309000Y109800D02*
X284000D01*
X283530Y109810D01*
X283060Y109850D01*
X282590Y109910D01*
X282130Y110000D01*
X281670Y110110D01*
X281220Y110240D01*
X280770Y110400D01*
X280340Y110580D01*
X279910Y110780D01*
X279500Y111010D01*
X279100Y111250D01*
X278710Y111520D01*
X278340Y111810D01*
X277980Y112110D01*
X277640Y112440D01*
X277310Y112780D01*
X277010Y113140D01*
X276720Y113510D01*
X276450Y113900D01*
X276210Y114300D01*
X275980Y114710D01*
X275780Y115140D01*
X275600Y115570D01*
X275440Y116020D01*
X275310Y116470D01*
X275200Y116930D01*
X275110Y117390D01*
X275050Y117860D01*
X275010Y118330D01*
X275000Y118800D01*
X275010Y119270D01*
X275050Y119740D01*
X275110Y120210D01*
X275200Y120670D01*
X275310Y121130D01*
X275440Y121580D01*
X275600Y122030D01*
X275780Y122460D01*
X275980Y122890D01*
X276210Y123300D01*
X276450Y123700D01*
X276720Y124090D01*
X277010Y124460D01*
X277310Y124820D01*
X277640Y125160D01*
X277980Y125490D01*
X278340Y125790D01*
X278710Y126080D01*
X279100Y126350D01*
X279500Y126590D01*
X279910Y126820D01*
X280340Y127020D01*
X280770Y127200D01*
X281220Y127360D01*
X281670Y127490D01*
X282130Y127600D01*
X282590Y127690D01*
X283060Y127750D01*
X283530Y127790D01*
X284000Y127800D01*
X309000D01*
Y109800D01*
D02*
G37*
G36*
X106670Y127790D02*
X107140Y127750D01*
X107610Y127690D01*
X108070Y127600D01*
X108530Y127490D01*
X108980Y127360D01*
X109430Y127200D01*
X109860Y127020D01*
X110290Y126820D01*
X110700Y126590D01*
X111100Y126350D01*
X111490Y126080D01*
X111860Y125790D01*
X112220Y125490D01*
X112560Y125160D01*
X112890Y124820D01*
X113190Y124460D01*
X113480Y124090D01*
X113750Y123700D01*
X113990Y123300D01*
X114220Y122890D01*
X114420Y122460D01*
X114600Y122030D01*
X114760Y121580D01*
X114890Y121130D01*
X115000Y120670D01*
X115090Y120210D01*
X115150Y119740D01*
X115190Y119270D01*
X115200Y118800D01*
X115190Y118330D01*
X115150Y117860D01*
X115090Y117390D01*
X115000Y116930D01*
X114890Y116470D01*
X114760Y116020D01*
X114600Y115570D01*
X114420Y115140D01*
X114220Y114710D01*
X113990Y114300D01*
X113750Y113900D01*
X113480Y113510D01*
X113190Y113140D01*
X112890Y112780D01*
X112560Y112440D01*
X112220Y112110D01*
X111860Y111810D01*
X111490Y111520D01*
X111100Y111250D01*
X110700Y111010D01*
X110290Y110780D01*
X109860Y110580D01*
X109430Y110400D01*
X108980Y110240D01*
X108530Y110110D01*
X108070Y110000D01*
X107610Y109910D01*
X107140Y109850D01*
X106670Y109810D01*
X106200Y109800D01*
X81200D01*
Y127800D01*
X106200D01*
X106670Y127790D01*
D02*
G37*
G36*
X309000Y84400D02*
X284000D01*
X283530Y84410D01*
X283060Y84450D01*
X282590Y84510D01*
X282130Y84600D01*
X281670Y84710D01*
X281220Y84840D01*
X280770Y85000D01*
X280340Y85180D01*
X279910Y85380D01*
X279500Y85610D01*
X279100Y85850D01*
X278710Y86120D01*
X278340Y86410D01*
X277980Y86710D01*
X277640Y87040D01*
X277310Y87380D01*
X277010Y87740D01*
X276720Y88110D01*
X276450Y88500D01*
X276210Y88900D01*
X275980Y89310D01*
X275780Y89740D01*
X275600Y90170D01*
X275440Y90620D01*
X275310Y91070D01*
X275200Y91530D01*
X275110Y91990D01*
X275050Y92460D01*
X275010Y92930D01*
X275000Y93400D01*
X275010Y93870D01*
X275050Y94340D01*
X275110Y94810D01*
X275200Y95270D01*
X275310Y95730D01*
X275440Y96180D01*
X275600Y96630D01*
X275780Y97060D01*
X275980Y97490D01*
X276210Y97900D01*
X276450Y98300D01*
X276720Y98690D01*
X277010Y99060D01*
X277310Y99420D01*
X277640Y99760D01*
X277980Y100090D01*
X278340Y100390D01*
X278710Y100680D01*
X279100Y100950D01*
X279500Y101190D01*
X279910Y101420D01*
X280340Y101620D01*
X280770Y101800D01*
X281220Y101960D01*
X281670Y102090D01*
X282130Y102200D01*
X282590Y102290D01*
X283060Y102350D01*
X283530Y102390D01*
X284000Y102400D01*
X309000D01*
Y84400D01*
D02*
G37*
G36*
X106670Y102390D02*
X107140Y102350D01*
X107610Y102290D01*
X108070Y102200D01*
X108530Y102090D01*
X108980Y101960D01*
X109430Y101800D01*
X109860Y101620D01*
X110290Y101420D01*
X110700Y101190D01*
X111100Y100950D01*
X111490Y100680D01*
X111860Y100390D01*
X112220Y100090D01*
X112560Y99760D01*
X112890Y99420D01*
X113190Y99060D01*
X113480Y98690D01*
X113750Y98300D01*
X113990Y97900D01*
X114220Y97490D01*
X114420Y97060D01*
X114600Y96630D01*
X114760Y96180D01*
X114890Y95730D01*
X115000Y95270D01*
X115090Y94810D01*
X115150Y94340D01*
X115190Y93870D01*
X115200Y93400D01*
X115190Y92930D01*
X115150Y92460D01*
X115090Y91990D01*
X115000Y91530D01*
X114890Y91070D01*
X114760Y90620D01*
X114600Y90170D01*
X114420Y89740D01*
X114220Y89310D01*
X113990Y88900D01*
X113750Y88500D01*
X113480Y88110D01*
X113190Y87740D01*
X112890Y87380D01*
X112560Y87040D01*
X112220Y86710D01*
X111860Y86410D01*
X111490Y86120D01*
X111100Y85850D01*
X110700Y85610D01*
X110290Y85380D01*
X109860Y85180D01*
X109430Y85000D01*
X108980Y84840D01*
X108530Y84710D01*
X108070Y84600D01*
X107610Y84510D01*
X107140Y84450D01*
X106670Y84410D01*
X106200Y84400D01*
X81200D01*
Y102400D01*
X106200D01*
X106670Y102390D01*
D02*
G37*
G36*
X309000Y59000D02*
X277840D01*
X277690Y59020D01*
X277530Y59040D01*
X277380Y59070D01*
X277220Y59100D01*
X277070Y59150D01*
X276920Y59200D01*
X276780Y59260D01*
X276640Y59330D01*
X276500Y59400D01*
X276370Y59480D01*
X276240Y59570D01*
X276110Y59670D01*
X275990Y59770D01*
X275880Y59880D01*
X275770Y59990D01*
X275670Y60110D01*
X275570Y60240D01*
X275480Y60370D01*
X275400Y60500D01*
X275330Y60640D01*
X275260Y60780D01*
X275200Y60920D01*
X275150Y61070D01*
X275100Y61220D01*
X275070Y61380D01*
X275040Y61530D01*
X275020Y61690D01*
X275000Y61840D01*
Y62000D01*
Y74000D01*
Y74160D01*
X275020Y74310D01*
X275040Y74470D01*
X275070Y74620D01*
X275100Y74780D01*
X275150Y74930D01*
X275200Y75080D01*
X275260Y75220D01*
X275330Y75360D01*
X275400Y75500D01*
X275480Y75630D01*
X275570Y75760D01*
X275670Y75890D01*
X275770Y76010D01*
X275880Y76120D01*
X275990Y76230D01*
X276110Y76330D01*
X276240Y76430D01*
X276370Y76520D01*
X276500Y76600D01*
X276640Y76670D01*
X276780Y76740D01*
X276920Y76800D01*
X277070Y76850D01*
X277220Y76900D01*
X277380Y76930D01*
X277530Y76960D01*
X277690Y76980D01*
X277840Y77000D01*
X309000D01*
Y59000D01*
D02*
G37*
G36*
X112510Y76980D02*
X112670Y76960D01*
X112820Y76930D01*
X112980Y76900D01*
X113130Y76850D01*
X113280Y76800D01*
X113420Y76740D01*
X113560Y76670D01*
X113700Y76600D01*
X113830Y76520D01*
X113960Y76430D01*
X114090Y76330D01*
X114210Y76230D01*
X114320Y76120D01*
X114430Y76010D01*
X114530Y75890D01*
X114630Y75760D01*
X114720Y75630D01*
X114800Y75500D01*
X114870Y75360D01*
X114940Y75220D01*
X115000Y75080D01*
X115050Y74930D01*
X115100Y74780D01*
X115130Y74620D01*
X115160Y74470D01*
X115180Y74310D01*
X115200Y74160D01*
Y74000D01*
Y62000D01*
Y61840D01*
X115180Y61690D01*
X115160Y61530D01*
X115130Y61380D01*
X115100Y61220D01*
X115050Y61070D01*
X115000Y60920D01*
X114940Y60780D01*
X114870Y60640D01*
X114800Y60500D01*
X114720Y60370D01*
X114630Y60240D01*
X114530Y60110D01*
X114430Y59990D01*
X114320Y59880D01*
X114210Y59770D01*
X114090Y59670D01*
X113960Y59570D01*
X113830Y59480D01*
X113700Y59400D01*
X113560Y59330D01*
X113420Y59260D01*
X113280Y59200D01*
X113130Y59150D01*
X112980Y59100D01*
X112820Y59070D01*
X112670Y59040D01*
X112510Y59020D01*
X112360Y59000D01*
X81200D01*
Y77000D01*
X112360D01*
X112510Y76980D01*
D02*
G37*
G36*
X309000Y33600D02*
X284000D01*
X283530Y33610D01*
X283060Y33650D01*
X282590Y33710D01*
X282130Y33800D01*
X281670Y33910D01*
X281220Y34040D01*
X280770Y34200D01*
X280340Y34380D01*
X279910Y34580D01*
X279500Y34810D01*
X279100Y35050D01*
X278710Y35320D01*
X278340Y35610D01*
X277980Y35910D01*
X277640Y36240D01*
X277310Y36580D01*
X277010Y36940D01*
X276720Y37310D01*
X276450Y37700D01*
X276210Y38100D01*
X275980Y38510D01*
X275780Y38940D01*
X275600Y39370D01*
X275440Y39820D01*
X275310Y40270D01*
X275200Y40730D01*
X275110Y41190D01*
X275050Y41660D01*
X275010Y42130D01*
X275000Y42600D01*
X275010Y43070D01*
X275050Y43540D01*
X275110Y44010D01*
X275200Y44470D01*
X275310Y44930D01*
X275440Y45380D01*
X275600Y45830D01*
X275780Y46260D01*
X275980Y46690D01*
X276210Y47100D01*
X276450Y47500D01*
X276720Y47890D01*
X277010Y48260D01*
X277310Y48620D01*
X277640Y48960D01*
X277980Y49290D01*
X278340Y49590D01*
X278710Y49880D01*
X279100Y50150D01*
X279500Y50390D01*
X279910Y50620D01*
X280340Y50820D01*
X280770Y51000D01*
X281220Y51160D01*
X281670Y51290D01*
X282130Y51400D01*
X282590Y51490D01*
X283060Y51550D01*
X283530Y51590D01*
X284000Y51600D01*
X309000D01*
Y33600D01*
D02*
G37*
G36*
X106670Y51590D02*
X107140Y51550D01*
X107610Y51490D01*
X108070Y51400D01*
X108530Y51290D01*
X108980Y51160D01*
X109430Y51000D01*
X109860Y50820D01*
X110290Y50620D01*
X110700Y50390D01*
X111100Y50150D01*
X111490Y49880D01*
X111860Y49590D01*
X112220Y49290D01*
X112560Y48960D01*
X112890Y48620D01*
X113190Y48260D01*
X113480Y47890D01*
X113750Y47500D01*
X113990Y47100D01*
X114220Y46690D01*
X114420Y46260D01*
X114600Y45830D01*
X114760Y45380D01*
X114890Y44930D01*
X115000Y44470D01*
X115090Y44010D01*
X115150Y43540D01*
X115190Y43070D01*
X115200Y42600D01*
X115190Y42130D01*
X115150Y41660D01*
X115090Y41190D01*
X115000Y40730D01*
X114890Y40270D01*
X114760Y39820D01*
X114600Y39370D01*
X114420Y38940D01*
X114220Y38510D01*
X113990Y38100D01*
X113750Y37700D01*
X113480Y37310D01*
X113190Y36940D01*
X112890Y36580D01*
X112560Y36240D01*
X112220Y35910D01*
X111860Y35610D01*
X111490Y35320D01*
X111100Y35050D01*
X110700Y34810D01*
X110290Y34580D01*
X109860Y34380D01*
X109430Y34200D01*
X108980Y34040D01*
X108530Y33910D01*
X108070Y33800D01*
X107610Y33710D01*
X107140Y33650D01*
X106670Y33610D01*
X106200Y33600D01*
X81200D01*
Y51600D01*
X106200D01*
X106670Y51590D01*
D02*
G37*
G36*
X309000Y8200D02*
X284000D01*
X283530Y8210D01*
X283060Y8250D01*
X282590Y8310D01*
X282130Y8400D01*
X281670Y8510D01*
X281220Y8640D01*
X280770Y8800D01*
X280340Y8980D01*
X279910Y9180D01*
X279500Y9410D01*
X279100Y9650D01*
X278710Y9920D01*
X278340Y10210D01*
X277980Y10510D01*
X277640Y10840D01*
X277310Y11180D01*
X277010Y11540D01*
X276720Y11910D01*
X276450Y12300D01*
X276210Y12700D01*
X275980Y13110D01*
X275780Y13540D01*
X275600Y13970D01*
X275440Y14420D01*
X275310Y14870D01*
X275200Y15330D01*
X275110Y15790D01*
X275050Y16260D01*
X275010Y16730D01*
X275000Y17200D01*
X275010Y17670D01*
X275050Y18140D01*
X275110Y18610D01*
X275200Y19070D01*
X275310Y19530D01*
X275440Y19980D01*
X275600Y20430D01*
X275780Y20860D01*
X275980Y21290D01*
X276210Y21700D01*
X276450Y22100D01*
X276720Y22490D01*
X277010Y22860D01*
X277310Y23220D01*
X277640Y23560D01*
X277980Y23890D01*
X278340Y24190D01*
X278710Y24480D01*
X279100Y24750D01*
X279500Y24990D01*
X279910Y25220D01*
X280340Y25420D01*
X280770Y25600D01*
X281220Y25760D01*
X281670Y25890D01*
X282130Y26000D01*
X282590Y26090D01*
X283060Y26150D01*
X283530Y26190D01*
X284000Y26200D01*
X309000D01*
Y8200D01*
D02*
G37*
G36*
X106670Y26190D02*
X107140Y26150D01*
X107610Y26090D01*
X108070Y26000D01*
X108530Y25890D01*
X108980Y25760D01*
X109430Y25600D01*
X109860Y25420D01*
X110290Y25220D01*
X110700Y24990D01*
X111100Y24750D01*
X111490Y24480D01*
X111860Y24190D01*
X112220Y23890D01*
X112560Y23560D01*
X112890Y23220D01*
X113190Y22860D01*
X113480Y22490D01*
X113750Y22100D01*
X113990Y21700D01*
X114220Y21290D01*
X114420Y20860D01*
X114600Y20430D01*
X114760Y19980D01*
X114890Y19530D01*
X115000Y19070D01*
X115090Y18610D01*
X115150Y18140D01*
X115190Y17670D01*
X115200Y17200D01*
X115190Y16730D01*
X115150Y16260D01*
X115090Y15790D01*
X115000Y15330D01*
X114890Y14870D01*
X114760Y14420D01*
X114600Y13970D01*
X114420Y13540D01*
X114220Y13110D01*
X113990Y12700D01*
X113750Y12300D01*
X113480Y11910D01*
X113190Y11540D01*
X112890Y11180D01*
X112560Y10840D01*
X112220Y10510D01*
X111860Y10210D01*
X111490Y9920D01*
X111100Y9650D01*
X110700Y9410D01*
X110290Y9180D01*
X109860Y8980D01*
X109430Y8800D01*
X108980Y8640D01*
X108530Y8510D01*
X108070Y8400D01*
X107610Y8310D01*
X107140Y8250D01*
X106670Y8210D01*
X106200Y8200D01*
X81200D01*
Y26200D01*
X106200D01*
X106670Y26190D01*
D02*
G37*
D15*
X376648Y389784D02*
D03*
X394852Y399284D02*
D03*
X393852Y287250D02*
D03*
X375648Y277750D02*
D03*
X374398Y334856D02*
D03*
X392602Y344356D02*
D03*
X377898Y126712D02*
D03*
X396102Y136212D02*
D03*
X377000Y171250D02*
D03*
X395204Y180750D02*
D03*
X393852Y234178D02*
D03*
X375648Y224678D02*
D03*
D16*
X394852Y380284D02*
D03*
X375648Y296750D02*
D03*
X392602Y325356D02*
D03*
X396102Y117212D02*
D03*
X395204Y161750D02*
D03*
X375648Y243678D02*
D03*
D19*
X972750Y166750D02*
D03*
X938750D02*
D03*
X940250Y107500D02*
D03*
X974250D02*
D03*
X450000Y34500D02*
D03*
X416000D02*
D03*
D20*
X417750Y308000D02*
D03*
X438750D02*
D03*
X47250Y142500D02*
D03*
X26250D02*
D03*
X439000Y243500D02*
D03*
X418000D02*
D03*
D21*
X34250Y219000D02*
D03*
Y185000D02*
D03*
D22*
X347500Y344706D02*
D03*
Y326206D02*
D03*
X349750Y399434D02*
D03*
Y380934D02*
D03*
X350102Y162000D02*
D03*
Y180500D02*
D03*
X351000Y117662D02*
D03*
Y136162D02*
D03*
X348750Y225728D02*
D03*
Y244228D02*
D03*
Y279000D02*
D03*
Y297500D02*
D03*
D23*
X379250Y32750D02*
D03*
X397750D02*
D03*
X419250Y193250D02*
D03*
X437750D02*
D03*
X419250Y222500D02*
D03*
X437750D02*
D03*
X419000Y287000D02*
D03*
X437500D02*
D03*
X45250Y119000D02*
D03*
X26750D02*
D03*
D24*
X604765Y282500D02*
D03*
Y267500D02*
D03*
Y302500D02*
D03*
Y277500D02*
D03*
Y257500D02*
D03*
Y247500D02*
D03*
Y252500D02*
D03*
Y292500D02*
D03*
Y297500D02*
D03*
Y272500D02*
D03*
Y262500D02*
D03*
Y287500D02*
D03*
D25*
X621235Y223655D02*
D03*
Y326345D02*
D03*
D26*
X681700Y38350D02*
D03*
X669000D02*
D03*
X681700Y25650D02*
D03*
X669000D02*
D03*
X656300Y38350D02*
D03*
X643600D02*
D03*
X656300Y25650D02*
D03*
X643600D02*
D03*
X630900Y38350D02*
D03*
Y25650D02*
D03*
D27*
X732200Y32000D02*
D03*
X757600D02*
D03*
X808400D02*
D03*
X783000D02*
D03*
X880000D02*
D03*
X356000Y52000D02*
D03*
Y26600D02*
D03*
X499300Y167500D02*
D03*
X500300Y86500D02*
D03*
X499300Y127500D02*
D03*
X577200Y32000D02*
D03*
X551800D02*
D03*
X526400D02*
D03*
X577500Y112850D02*
D03*
Y138250D02*
D03*
D28*
X833800Y32000D02*
D03*
X905400D02*
D03*
X524700Y167500D02*
D03*
X525700Y86500D02*
D03*
X524700Y127500D02*
D03*
X501000Y32000D02*
D03*
D29*
X960000Y40000D02*
D03*
Y510000D02*
D03*
X40000D02*
D03*
Y40000D02*
D03*
D30*
X356000Y77400D02*
D03*
X577500Y87450D02*
D03*
D31*
X524950Y256950D02*
D03*
X499550D02*
D03*
X524950Y333150D02*
D03*
X499550D02*
D03*
X524950Y358550D02*
D03*
X499550D02*
D03*
X524950Y409350D02*
D03*
X499550Y383950D02*
D03*
X524950D02*
D03*
X499550Y307750D02*
D03*
X524950D02*
D03*
X499550Y282350D02*
D03*
X524950D02*
D03*
X499550Y231550D02*
D03*
Y206150D02*
D03*
X524950Y231550D02*
D03*
Y206150D02*
D03*
D32*
X499550Y409350D02*
D03*
D33*
X404118Y518000D02*
D03*
X350897D02*
D03*
X776659D02*
D03*
X563778D02*
D03*
X616998D02*
D03*
X670219D02*
D03*
X510558D02*
D03*
X829879D02*
D03*
X883100D02*
D03*
X457338D02*
D03*
X723439D02*
D03*
D34*
X928000Y108000D02*
D03*
X47000Y104000D02*
D03*
X585500Y243250D02*
D03*
M02*
