G04*
G04 #@! TF.GenerationSoftware,Altium Limited,Altium Designer,22.8.2 (66)*
G04*
G04 Layer_Color=8388736*
%FSLAX44Y44*%
%MOMM*%
G71*
G04*
G04 #@! TF.SameCoordinates,4B26B776-EE7C-4811-823A-5E0DBC8C83DA*
G04*
G04*
G04 #@! TF.FilePolarity,Positive*
G04*
G01*
G75*
%ADD10C,0.2000*%
D10*
X392250Y375284D02*
Y404284D01*
X379250D02*
X392250D01*
X379250Y375284D02*
Y404284D01*
Y375284D02*
X392250D01*
X939750Y153250D02*
X971750D01*
X939750D02*
Y180250D01*
X971750D01*
Y153250D02*
Y180250D01*
X973250Y94000D02*
Y121000D01*
X941250D02*
X973250D01*
X941250Y94000D02*
Y121000D01*
Y94000D02*
X973250D01*
X378250Y272750D02*
Y301750D01*
Y272750D02*
X391250D01*
Y301750D01*
X378250D02*
X391250D01*
X417750Y314750D02*
X438750D01*
Y301250D02*
Y314750D01*
X417750Y301250D02*
X438750D01*
X417750D02*
Y314750D01*
X26250Y135750D02*
X47250D01*
X26250D02*
Y149250D01*
X47250D01*
Y135750D02*
Y149250D01*
X390000Y320356D02*
Y349356D01*
X377000D02*
X390000D01*
X377000Y320356D02*
Y349356D01*
Y320356D02*
X390000D01*
X393500Y112212D02*
Y141212D01*
X380500D02*
X393500D01*
X380500Y112212D02*
Y141212D01*
Y112212D02*
X393500D01*
X392602Y156750D02*
Y185750D01*
X379602D02*
X392602D01*
X379602Y156750D02*
Y185750D01*
Y156750D02*
X392602D01*
X378250Y219678D02*
Y248678D01*
Y219678D02*
X391250D01*
Y248678D01*
X378250D02*
X391250D01*
X418000Y236750D02*
Y250250D01*
Y236750D02*
X439000D01*
Y250250D01*
X418000D02*
X439000D01*
X417000Y21000D02*
Y48000D01*
Y21000D02*
X449000D01*
Y48000D01*
X417000D02*
X449000D01*
X20750Y186000D02*
X47750D01*
Y218000D01*
X20750D02*
X47750D01*
X20750Y186000D02*
Y218000D01*
M02*
