M48
;Layer_Color=9474304
;FILE_FORMAT=2:4
METRIC,LZ
;TYPE=PLATED
T1F00S00C0.3500
T2F00S00C0.7000
T3F00S00C1.1000
T4F00S00C1.6000
T5F00S00C3.2000
%
T01
X0765Y068
X047Y104
X319053Y068046
X388453Y053963
X4075Y10975
X415Y104
X416Y117
X47Y135
X47875Y03375
X337Y137
X704Y03
X857Y015
Y061
X928Y108
X9815Y16675
X93
X921Y435
X92975Y4505
X905Y474
X883Y481
X831Y474
X833835Y456375
X808462Y430215
X78349Y424729
X757485Y438373
X777Y4645
X723Y461722
X67Y457
X617Y449875
X601Y474722
X593Y48
X584322Y431873
X5805Y423725
X575375Y436725
X568703Y442765
X565Y451
X557Y457
X55Y466
X543Y473
X575375Y40925
X568187Y38395
X5625Y35855
X5589Y33315
X552325Y30775
X584565Y303925
X587Y291
X5765Y292
X576Y28
X566Y278
X56Y271
X553636Y264636
X543875Y263125
X5855Y24325
X599352Y310648
X5935Y318
X445Y364
X381549Y344309
X383799Y399237
X404Y4315
X456Y438
X484Y461
X511257Y442457
X536Y48
X361Y455
X351Y425
X319053Y449047
Y322047
X33575Y278
X386701Y277796
X407287Y277453
Y222453
X386701Y224725
X33525Y22525
X33575Y20575
X337Y181
X319053Y195047
X415Y161
X480219Y180243
X195054Y532553
X0765Y449
X039Y375
X077Y32175
X07325Y245
X063Y2196
X070336Y1955
X063Y1688
T02
X6309Y02565
X6436
Y03835
X6563
X669
X6817
Y02565
X669
X6563
X6309Y03835
T03
X356Y0266
Y052
Y0774
X5003Y0865
X5257
X5247Y1275
X4993
X501Y032
X5264
X5518
X5772
X5775Y08745
Y11285
Y13825
X7322Y032
X7576
X783
X8084
X8338
X88
X9054
X5247Y1675
X4993
X49955Y20615
Y23155
Y25695
X52495
Y28235
Y30775
Y33315
X49955
Y35855
X52495
Y38395
Y40935
X49955
Y38395
Y30775
Y28235
X52495Y23155
Y20615
T04
X563778Y518
X616998
X670219
X723439
X776659
X829879
X8831
X510558
X457338
X404118
X350897
T05
X04Y04
X96
Y51
X04
M30
