M48
;Layer_Color=9474304
;FILE_FORMAT=4:4
METRIC,LZ
;TYPE=PLATED
T1F00S00C0.1500
T2F00S00C2.0000
%
T01
X00126659Y000765
X00216409Y0007675
X00300159Y000775
X00359159Y00097
X00392409Y0009575
X00388659Y00092
X00388909Y0007625
X00416659Y00083
X00421284Y00079625
X00422409Y0009175
X00441159Y00092
X00442159Y0007625
X00436159Y0007975
X00448659Y00102
X00455659Y000955
X00465909Y0009125
X00467159Y00083
X00467659Y0007625
X00479659
X00481409Y0008925
X00482159Y0009575
X00481909Y0010075
X00490413Y0008325
X00494909Y00083063
X00499409Y00082992
X00507909Y00081
X00515159Y0008
X00508159Y000925
X00500909Y0007375
X00537159Y000895
X00509868Y00107052
X00498909Y00109035
X00485659Y0011625
X00479659Y00112
X00466159Y0010525
X00493341Y002265
X00493591Y0026325
X00500909Y0033375
X00499409Y00342992
X00494909Y00343063
X00490413Y0034325
X00481409Y0034925
X00482159Y0035575
X00481909Y0036075
X00479659Y00372
X00485659Y0037625
X00498909Y00369035
X00509868Y00367052
X00508159Y003525
X00507909Y00341
X00515159Y0034
X00537159Y003495
X00479659Y0033625
X00467659
X00467159Y00343
X00465909Y0035125
X00466159Y0036525
X00455659Y003555
X00493341Y004865
X00582841Y0048675
X00583341Y002635
X00582841Y0022675
X00409091
X00409841Y002625
X00350841Y00243
X00317591Y0024425
X00321341Y00248
X00321091Y0026375
X00293341Y00257
X00288716Y00260375
X00287591Y0024825
X00268841Y00248
X00267841Y0026375
X00273841Y0026025
X00272341Y0023375
X00274091Y0022425
X00261341Y00238
X00254341Y002445
X00244091Y0024875
X00242841Y00257
X00242341Y0026375
X00230341
X00228591Y0025075
X00227841Y0024425
X00228091Y0023925
X00230341Y00228
X00224341Y0022375
X00211091Y00230965
X00200132Y00232948
X00201841Y002475
X00202091Y00259
X00194841Y0026
X00210591Y00257008
X00215091Y00256937
X00219587Y0025675
X00209091Y0026625
X00172841Y002505
X00243841Y0023475
X00292091Y00233
X00307716Y002321
X00304591Y002235
X00304591Y00179
X00309591
X00314591
X00319591
X00324591
X00339591
X00299591
X00294591
X00289591
X00284591
X00279591
X00274591
X00300909Y0011325
X00216659Y001135
X00127159Y0011325
X00126659Y003365
X00127159Y0037325
X00216659Y003735
X00216409Y0033675
X00300159Y003375
X00300909Y0037325
X00299591Y00439
X00304591
X00309591
X00314591
X00319591
X00324591
X00339591
X00294591
X00289591
X00284591
X00279591
X00274591
X00274091Y0048425
X00272341Y0049375
X00261341Y00498
X00243841Y0049475
X00228091Y0049925
X00230341Y00488
X00224341Y0048375
X00211091Y00490965
X00200132Y00492948
X00292091Y00493
X00307716Y004921
X00304591Y004835
X00409091Y0048675
X00410409Y00421
X00405409
X00400409
X00395409
X00390409
X00385409
X00370409
X00415409
X00420409
X00425409
X00430409
X00435409
X00435909Y0037575
X00437659Y0036625
X00448659Y00362
X00441159Y00352
X00442159Y0033625
X00436159Y0033975
X00421284Y00339625
X00416659Y00343
X00422409Y0035175
X00417909Y00367
X00402284Y003679
X00405409Y003765
X00392409Y0035575
X00388659Y00352
X00388909Y0033625
X00359159Y00357
X00370409Y00161
X00385409
X00390409
X00395409
X00400409
X00405409
X00410409
X00415409
X00420409
X00425409
X00430409
X00435409
X00435909Y0011575
X00437659Y0010625
X00417909Y00107
X00402284Y001079
X00405409Y001165
X00409841Y005225
X00350841Y00503
X00317591Y0050425
X00321341Y00508
X00321091Y0052375
X00293341Y00517
X00288716Y00520375
X00287591Y0050825
X00268841Y00508
X00267841Y0052375
X00273841Y0052025
X00242841Y00517
X00242341Y0052375
X00230341
X00228591Y0051075
X00227841Y0050425
X00244091Y0050875
X00254341Y005045
X00219587Y0051675
X00215091Y00516937
X00210591Y00517008
X00202091Y00519
X00194841Y0052
X00201841Y005075
X00209091Y0052625
X00172841Y005105
X00493591Y0052325
X00583341Y005235
T02
X00025Y00025
X00694643
X00025357Y00585
X00695Y00584643
M30
