G04*
G04 #@! TF.GenerationSoftware,Altium Limited,Altium Designer,22.8.2 (66)*
G04*
G04 Layer_Color=39423*
%FSLAX44Y44*%
%MOMM*%
G71*
G04*
G04 #@! TF.SameCoordinates,FAA1CB19-FA28-413B-BED9-D0803A41280B*
G04*
G04*
G04 #@! TF.FilePolarity,Negative*
G04*
G01*
G75*
%ADD22R,0.3500X1.0000*%
%ADD23R,1.0000X0.3500*%
%ADD26R,0.3750X0.3500*%
%ADD27R,0.3500X0.3750*%
%ADD40R,0.5178X3.2500*%
%ADD41R,0.5020X3.0704*%
%ADD42R,6.3001X1.4761*%
%ADD43R,6.3752X1.4761*%
%ADD44R,3.0000X4.1000*%
%ADD45C,0.0000*%
%ADD46R,7.5000X4.0250*%
%ADD47R,2.2032X1.0032*%
%ADD48R,1.2032X1.1532*%
%ADD49R,0.8532X0.7532*%
%ADD50R,0.7532X0.8532*%
%ADD51R,0.9532X0.6532*%
%ADD52R,0.7532X0.8532*%
%ADD53R,0.7532X0.9532*%
G04:AMPARAMS|DCode=54|XSize=1.0432mm|YSize=0.5232mm|CornerRadius=0.1416mm|HoleSize=0mm|Usage=FLASHONLY|Rotation=90.000|XOffset=0mm|YOffset=0mm|HoleType=Round|Shape=RoundedRectangle|*
%AMROUNDEDRECTD54*
21,1,1.0432,0.2400,0,0,90.0*
21,1,0.7600,0.5232,0,0,90.0*
1,1,0.2832,0.1200,0.3800*
1,1,0.2832,0.1200,-0.3800*
1,1,0.2832,-0.1200,-0.3800*
1,1,0.2832,-0.1200,0.3800*
%
%ADD54ROUNDEDRECTD54*%
%ADD55R,0.5532X4.2032*%
%ADD56R,0.8832X0.8232*%
%ADD57C,0.3200*%
%ADD58C,3.7032*%
G36*
X313324Y471609D02*
X313611D01*
Y471561D01*
X314138D01*
Y471513D01*
X314186D01*
Y471465D01*
X314569D01*
Y471417D01*
X314856D01*
Y471369D01*
X314904D01*
Y471321D01*
X315144D01*
Y471273D01*
X315192D01*
Y471226D01*
X315287D01*
Y471273D01*
X315335D01*
Y471226D01*
X315431D01*
Y471178D01*
X315623D01*
Y471082D01*
X315814D01*
Y471034D01*
X315958D01*
Y470986D01*
X316006D01*
Y470938D01*
X316150D01*
Y470890D01*
X316245D01*
Y470842D01*
X316293D01*
Y470794D01*
X316437D01*
Y470699D01*
X316581D01*
Y470651D01*
X316677D01*
Y470603D01*
X316724D01*
Y470555D01*
X316820D01*
Y470507D01*
X316868D01*
Y470459D01*
X316916D01*
Y470411D01*
X317012D01*
Y470363D01*
X317060D01*
Y470315D01*
X317155D01*
Y470267D01*
X317203D01*
Y470172D01*
X317299D01*
Y470076D01*
X317395D01*
Y470028D01*
X317491D01*
Y469980D01*
X317443D01*
Y469932D01*
X317539D01*
Y469884D01*
X317586D01*
Y469837D01*
X317634D01*
Y469789D01*
X317682D01*
Y469693D01*
X317778D01*
Y469597D01*
X317874D01*
Y469501D01*
X317922D01*
Y469453D01*
X317970D01*
Y469405D01*
X318018D01*
Y469310D01*
X318065D01*
Y469262D01*
X318113D01*
Y469166D01*
X318161D01*
Y469070D01*
X318209D01*
Y469022D01*
X318257D01*
Y468879D01*
X318305D01*
Y468735D01*
X318401D01*
Y468543D01*
X318497D01*
Y468352D01*
X318545D01*
Y468160D01*
X318592D01*
Y468112D01*
X318640D01*
Y467873D01*
X318688D01*
Y467777D01*
X318736D01*
Y467681D01*
X318688D01*
Y467585D01*
X318736D01*
Y467441D01*
X318784D01*
Y466915D01*
X318832D01*
Y458101D01*
X318736D01*
Y458005D01*
X315335D01*
Y458053D01*
X315287D01*
Y458101D01*
X315240D01*
Y458005D01*
X315192D01*
Y466867D01*
X315144D01*
Y466963D01*
X315096D01*
Y467250D01*
X315048D01*
Y467346D01*
X315000D01*
Y467394D01*
X315048D01*
Y467441D01*
X315000D01*
Y467489D01*
X314952D01*
Y467681D01*
X314856D01*
Y467777D01*
X314904D01*
Y467825D01*
X314808D01*
Y467920D01*
X314760D01*
Y467968D01*
X314713D01*
Y468064D01*
X314665D01*
Y468112D01*
X314617D01*
Y468160D01*
X314569D01*
Y468256D01*
X314521D01*
Y468352D01*
X314425D01*
Y468400D01*
X314377D01*
Y468495D01*
X314282D01*
Y468543D01*
X314186D01*
Y468591D01*
X314138D01*
Y468639D01*
X314090D01*
Y468687D01*
X314042D01*
Y468735D01*
X313946D01*
Y468783D01*
X313850D01*
Y468831D01*
X313803D01*
Y468879D01*
X313659D01*
Y468926D01*
X313515D01*
Y468974D01*
X313467D01*
Y469022D01*
X313180D01*
Y469070D01*
X313132D01*
Y469118D01*
X312988D01*
Y469070D01*
X312845D01*
Y469118D01*
X312030D01*
Y469070D01*
X311839D01*
Y469118D01*
X311743D01*
Y469070D01*
X311647D01*
Y469022D01*
X311408D01*
Y468974D01*
X311360D01*
Y468926D01*
X311216D01*
Y468879D01*
X311072D01*
Y468831D01*
X311024D01*
Y468783D01*
X310929D01*
Y468735D01*
X310785D01*
Y468639D01*
X310689D01*
Y468591D01*
X310641D01*
Y468543D01*
X310593D01*
Y468495D01*
X310498D01*
Y468400D01*
X310402D01*
Y468304D01*
X310354D01*
Y468256D01*
X310306D01*
Y468160D01*
X310210D01*
Y468064D01*
X310162D01*
Y468016D01*
X310114D01*
Y467920D01*
X310067D01*
Y467825D01*
X310019D01*
Y467777D01*
X309971D01*
Y467633D01*
X309923D01*
Y467585D01*
X309875D01*
Y467537D01*
X309923D01*
Y467489D01*
X309875D01*
Y467441D01*
X309827D01*
Y467202D01*
X309779D01*
Y467154D01*
X309731D01*
Y466771D01*
X309683D01*
Y458101D01*
X309635D01*
Y458005D01*
X306091D01*
Y458101D01*
X306043D01*
Y467250D01*
X306091D01*
Y467394D01*
X306139D01*
Y467729D01*
X306187D01*
Y467825D01*
X306235D01*
Y467920D01*
X306187D01*
Y467968D01*
X306235D01*
Y468064D01*
X306283D01*
Y468304D01*
X306378D01*
Y468495D01*
X306426D01*
Y468687D01*
X306522D01*
Y468831D01*
X306618D01*
Y468879D01*
X306570D01*
Y468926D01*
X306618D01*
Y468974D01*
X306666D01*
Y469118D01*
X306714D01*
Y469166D01*
X306761D01*
Y469262D01*
X306809D01*
Y469357D01*
X306905D01*
Y469453D01*
X306953D01*
Y469549D01*
X307001D01*
Y469597D01*
X307049D01*
Y469645D01*
X307097D01*
Y469693D01*
X307145D01*
Y469741D01*
X307193D01*
Y469789D01*
X307241D01*
Y469837D01*
X307288D01*
Y469884D01*
X307336D01*
Y469932D01*
X307384D01*
Y469980D01*
X307432D01*
Y470028D01*
X307480D01*
Y470076D01*
X307528D01*
Y470124D01*
X307576D01*
Y470172D01*
X307624D01*
Y470220D01*
X307672D01*
Y470267D01*
X307719D01*
Y470315D01*
X307815D01*
Y470363D01*
X307863D01*
Y470411D01*
X307911D01*
Y470459D01*
X307959D01*
Y470507D01*
X308055D01*
Y470555D01*
X308151D01*
Y470603D01*
X308198D01*
Y470651D01*
X308294D01*
Y470699D01*
X308390D01*
Y470746D01*
X308438D01*
Y470794D01*
X308582D01*
Y470842D01*
X308677D01*
Y470890D01*
X308725D01*
Y470938D01*
X308869D01*
Y470986D01*
X308917D01*
Y471034D01*
X309061D01*
Y471082D01*
X309252D01*
Y471178D01*
X309444D01*
Y471226D01*
X309635D01*
Y471273D01*
X309731D01*
Y471321D01*
X309971D01*
Y471369D01*
X310019D01*
Y471417D01*
X310306D01*
Y471465D01*
X310689D01*
Y471513D01*
X310737D01*
Y471561D01*
X311264D01*
Y471609D01*
X311503D01*
Y471657D01*
X311647D01*
Y471609D01*
X313228D01*
Y471657D01*
X313324D01*
Y471609D01*
D02*
G37*
G36*
X293873Y471379D02*
X294074D01*
Y471350D01*
X294217D01*
Y471321D01*
X294303D01*
Y471292D01*
X294418D01*
Y471264D01*
X294504D01*
Y471235D01*
X294561D01*
Y471207D01*
X294647D01*
Y471178D01*
X294704D01*
Y471149D01*
X294762D01*
Y471121D01*
X294819D01*
Y471092D01*
X294848D01*
Y471063D01*
X294905D01*
Y471035D01*
X294934D01*
Y471006D01*
X294991D01*
Y470977D01*
X295048D01*
Y470949D01*
X295077D01*
Y470920D01*
X295106D01*
Y470891D01*
X295134D01*
Y470863D01*
X295163D01*
Y470834D01*
X295192D01*
Y470805D01*
X295220D01*
Y470777D01*
X295249D01*
Y470748D01*
X295278D01*
Y470719D01*
X295306D01*
Y470691D01*
X295335D01*
Y470662D01*
X295364D01*
Y470633D01*
X295392D01*
Y470605D01*
X295421D01*
Y470547D01*
X295450D01*
Y470519D01*
X295478D01*
Y470490D01*
X295507D01*
Y470433D01*
X295536D01*
Y470404D01*
X295564D01*
Y470347D01*
X295593D01*
Y470289D01*
X295621D01*
Y470261D01*
X295650D01*
Y470175D01*
X295679D01*
Y470118D01*
X295707D01*
Y470089D01*
X295736D01*
Y470003D01*
X295765D01*
Y469917D01*
X295793D01*
Y469860D01*
X295822D01*
Y469745D01*
X295851D01*
Y469659D01*
X295879D01*
Y469544D01*
X295908D01*
Y469401D01*
X295937D01*
Y469286D01*
X295965D01*
Y469000D01*
X295994D01*
Y467997D01*
X295965D01*
Y467739D01*
X295937D01*
Y467596D01*
X295908D01*
Y467481D01*
X295879D01*
Y467338D01*
X295851D01*
Y467281D01*
X295822D01*
Y467166D01*
X295793D01*
Y467080D01*
X295765D01*
Y467023D01*
X295736D01*
Y466937D01*
X295707D01*
Y466908D01*
X295679D01*
Y466822D01*
X295650D01*
Y466765D01*
X295621D01*
Y466736D01*
X295593D01*
Y466650D01*
X295564D01*
Y466621D01*
X295536D01*
Y466564D01*
X295507D01*
Y466535D01*
X295478D01*
Y466478D01*
X295450D01*
Y466449D01*
X295421D01*
Y466392D01*
X295392D01*
Y466363D01*
X295364D01*
Y466335D01*
X295335D01*
Y466306D01*
X295306D01*
Y466278D01*
X295278D01*
Y466220D01*
X295249D01*
Y466191D01*
X295220D01*
Y466163D01*
X295192D01*
Y466134D01*
X295163D01*
Y466105D01*
X295134D01*
Y466077D01*
X295106D01*
Y466048D01*
X295048D01*
Y466020D01*
X295020D01*
Y465991D01*
X294991D01*
Y465962D01*
X294962D01*
Y465934D01*
X294905D01*
Y465905D01*
X294876D01*
Y465876D01*
X294819D01*
Y465848D01*
X294790D01*
Y465819D01*
X294733D01*
Y465790D01*
X294676D01*
Y465762D01*
X294647D01*
Y465733D01*
X294590D01*
Y465704D01*
X294504D01*
Y465676D01*
X294447D01*
Y465647D01*
X294361D01*
Y465618D01*
X294275D01*
Y465590D01*
X294217D01*
Y465561D01*
X294074D01*
Y465532D01*
X293959D01*
Y465504D01*
X293759D01*
Y465475D01*
X293042D01*
Y465504D01*
X292842D01*
Y465532D01*
X292727D01*
Y465561D01*
X292584D01*
Y465590D01*
X292498D01*
Y465618D01*
X292440D01*
Y465647D01*
X292326D01*
Y465676D01*
X292297D01*
Y465704D01*
X292211D01*
Y465733D01*
X292154D01*
Y465762D01*
X292097D01*
Y465790D01*
X292039D01*
Y465819D01*
X292011D01*
Y465848D01*
X291953D01*
Y465876D01*
X291925D01*
Y465905D01*
X291896D01*
Y465934D01*
X291839D01*
Y465962D01*
X291810D01*
Y465991D01*
X291781D01*
Y466020D01*
X291753D01*
Y466048D01*
X291724D01*
Y466077D01*
X291667D01*
Y466105D01*
X291638D01*
Y466134D01*
X291609D01*
Y466191D01*
X291581D01*
Y466220D01*
X291552D01*
Y466249D01*
X291523D01*
Y466278D01*
X291495D01*
Y466306D01*
X291466D01*
Y466335D01*
X291437D01*
Y466392D01*
X291409D01*
Y466421D01*
X291380D01*
Y466478D01*
X291352D01*
Y466507D01*
X291323D01*
Y466564D01*
X291294D01*
Y466621D01*
X291266D01*
Y466650D01*
X291237D01*
Y466707D01*
X291208D01*
Y466765D01*
X291180D01*
Y466822D01*
X291151D01*
Y466908D01*
X291122D01*
Y466965D01*
X291094D01*
Y467051D01*
X291065D01*
Y467166D01*
X291036D01*
Y467252D01*
X291008D01*
Y467395D01*
X290979D01*
Y467538D01*
X290950D01*
Y467739D01*
X290922D01*
Y468627D01*
X290950D01*
Y468656D01*
X294905D01*
Y469115D01*
X294876D01*
Y469286D01*
X294848D01*
Y469401D01*
X294819D01*
Y469544D01*
X294790D01*
Y469630D01*
X294762D01*
Y469716D01*
X294733D01*
Y469802D01*
X294704D01*
Y469831D01*
X294676D01*
Y469917D01*
X294647D01*
Y469974D01*
X294618D01*
Y470003D01*
X294590D01*
Y470060D01*
X294561D01*
Y470089D01*
X294533D01*
Y470146D01*
X294504D01*
Y470175D01*
X294475D01*
Y470204D01*
X294447D01*
Y470232D01*
X294418D01*
Y470289D01*
X294361D01*
Y470318D01*
X294332D01*
Y470347D01*
X294303D01*
Y470376D01*
X294275D01*
Y470404D01*
X294217D01*
Y470433D01*
X294189D01*
Y470461D01*
X294131D01*
Y470490D01*
X294074D01*
Y470519D01*
X294017D01*
Y470547D01*
X293931D01*
Y470576D01*
X293845D01*
Y470605D01*
X293644D01*
Y470633D01*
X293272D01*
Y470605D01*
X293014D01*
Y470576D01*
X292928D01*
Y470547D01*
X292842D01*
Y470519D01*
X292756D01*
Y470490D01*
X292698D01*
Y470461D01*
X292641D01*
Y470433D01*
X292612D01*
Y470404D01*
X292584D01*
Y470376D01*
X292526D01*
Y470347D01*
X292498D01*
Y470318D01*
X292469D01*
Y470289D01*
X292440D01*
Y470261D01*
X292412D01*
Y470232D01*
X292383D01*
Y470175D01*
X292355D01*
Y470146D01*
X292326D01*
Y470089D01*
X292297D01*
Y470032D01*
X292269D01*
Y469974D01*
X292240D01*
Y469917D01*
X292211D01*
Y469831D01*
X292183D01*
Y469745D01*
X292154D01*
Y469602D01*
X292125D01*
Y469516D01*
X292097D01*
Y469487D01*
X291008D01*
Y469516D01*
X290979D01*
Y469544D01*
X291008D01*
Y469716D01*
X291036D01*
Y469802D01*
X291065D01*
Y469917D01*
X291094D01*
Y470003D01*
X291122D01*
Y470089D01*
X291151D01*
Y470146D01*
X291180D01*
Y470204D01*
X291208D01*
Y470261D01*
X291237D01*
Y470318D01*
X291266D01*
Y470376D01*
X291294D01*
Y470404D01*
X291323D01*
Y470461D01*
X291352D01*
Y470490D01*
X291380D01*
Y470547D01*
X291409D01*
Y470576D01*
X291437D01*
Y470605D01*
X291466D01*
Y470662D01*
X291523D01*
Y470691D01*
X291552D01*
Y470748D01*
X291609D01*
Y470805D01*
X291638D01*
Y470834D01*
X291695D01*
Y470863D01*
X291724D01*
Y470891D01*
X291753D01*
Y470920D01*
X291810D01*
Y470949D01*
X291839D01*
Y470977D01*
X291867D01*
Y471006D01*
X291925D01*
Y471035D01*
X291953D01*
Y471063D01*
X292011D01*
Y471092D01*
X292068D01*
Y471121D01*
X292125D01*
Y471149D01*
X292183D01*
Y471178D01*
X292240D01*
Y471207D01*
X292326D01*
Y471235D01*
X292412D01*
Y471264D01*
X292498D01*
Y471292D01*
X292612D01*
Y471321D01*
X292727D01*
Y471350D01*
X292870D01*
Y471379D01*
X293100D01*
Y471407D01*
X293873D01*
Y471379D01*
D02*
G37*
G36*
X280607D02*
X280837D01*
Y471350D01*
X280951D01*
Y471321D01*
X281066D01*
Y471292D01*
X281152D01*
Y471264D01*
X281209D01*
Y471235D01*
X281267D01*
Y471207D01*
X281324D01*
Y471178D01*
X281381D01*
Y471149D01*
X281410D01*
Y471121D01*
X281467D01*
Y471092D01*
X281496D01*
Y471063D01*
X281525D01*
Y471035D01*
X281553D01*
Y470977D01*
X281582D01*
Y470949D01*
X281611D01*
Y470891D01*
X281639D01*
Y470863D01*
X281668D01*
Y470805D01*
X281696D01*
Y470719D01*
X281725D01*
Y470633D01*
X281754D01*
Y470461D01*
X281782D01*
Y466421D01*
X281811D01*
Y466392D01*
X282757D01*
Y465647D01*
X281811D01*
Y465618D01*
X281782D01*
Y464443D01*
X281725D01*
Y464415D01*
X281639D01*
Y464386D01*
X281553D01*
Y464357D01*
X281467D01*
Y464329D01*
X281353D01*
Y464300D01*
X281267D01*
Y464272D01*
X281181D01*
Y464243D01*
X281095D01*
Y464214D01*
X281009D01*
Y464185D01*
X280894D01*
Y464157D01*
X280808D01*
Y464128D01*
X280722D01*
Y464185D01*
Y464214D01*
Y465618D01*
X280693D01*
Y465647D01*
X279404D01*
Y466363D01*
X279433D01*
Y466392D01*
X280722D01*
Y470089D01*
X280693D01*
Y470232D01*
X280665D01*
Y470289D01*
X280636D01*
Y470318D01*
X280607D01*
Y470376D01*
X280579D01*
Y470404D01*
X280550D01*
Y470433D01*
X280493D01*
Y470461D01*
X280464D01*
Y470490D01*
X280407D01*
Y470519D01*
X280350D01*
Y470547D01*
X280235D01*
Y470576D01*
X280063D01*
Y470605D01*
X279977D01*
Y470576D01*
X279690D01*
Y470547D01*
X279547D01*
Y470519D01*
X279461D01*
Y471350D01*
X279576D01*
Y471379D01*
X279805D01*
Y471407D01*
X280607D01*
Y471379D01*
D02*
G37*
G36*
X286336Y470805D02*
Y470777D01*
Y466392D01*
X287397D01*
Y465647D01*
X286365D01*
Y465618D01*
X286336D01*
Y464501D01*
X286308D01*
Y464272D01*
X286279D01*
Y464128D01*
X286250D01*
Y464014D01*
X286222D01*
Y463956D01*
X286193D01*
Y463870D01*
X286165D01*
Y463813D01*
X286136D01*
Y463784D01*
X286107D01*
Y463727D01*
X286079D01*
Y463670D01*
X286050D01*
Y463641D01*
X286021D01*
Y463584D01*
X285993D01*
Y463555D01*
X285964D01*
Y463526D01*
X285935D01*
Y463498D01*
X285907D01*
Y463469D01*
X285878D01*
Y463440D01*
X285849D01*
Y463412D01*
X285792D01*
Y463383D01*
X285763D01*
Y463354D01*
X285735D01*
Y463326D01*
X285677D01*
Y463297D01*
X285649D01*
Y463269D01*
X285591D01*
Y463240D01*
X285534D01*
Y463211D01*
X285477D01*
Y463182D01*
X285391D01*
Y463154D01*
X285333D01*
Y463125D01*
X285247D01*
Y463097D01*
X285133D01*
Y463068D01*
X285018D01*
Y463039D01*
X284158D01*
Y463068D01*
X284044D01*
Y463097D01*
X283901D01*
Y463125D01*
X283815D01*
Y463154D01*
X283786D01*
Y463985D01*
X283815D01*
Y464014D01*
X284130D01*
Y463985D01*
X284560D01*
Y464014D01*
X284760D01*
Y464042D01*
X284875D01*
Y464071D01*
X284932D01*
Y464100D01*
X284990D01*
Y464128D01*
X285047D01*
Y464157D01*
X285076D01*
Y464185D01*
X285104D01*
Y464243D01*
X285133D01*
Y464272D01*
X285162D01*
Y464329D01*
X285190D01*
Y464415D01*
X285219D01*
Y464529D01*
X285247D01*
Y465618D01*
X285219D01*
Y465647D01*
X283958D01*
Y466392D01*
X285247D01*
Y471235D01*
X286336D01*
Y470805D01*
D02*
G37*
G36*
X303617Y463182D02*
X300579D01*
Y463211D01*
X300178D01*
Y463240D01*
X300006D01*
Y463269D01*
X299805D01*
Y463297D01*
X299719D01*
Y463326D01*
X299605D01*
Y463354D01*
X299461D01*
Y463383D01*
X299404D01*
Y463412D01*
X299318D01*
Y463440D01*
X299232D01*
Y463469D01*
X299175D01*
Y463498D01*
X299089D01*
Y463526D01*
X299032D01*
Y463555D01*
X298974D01*
Y463584D01*
X298888D01*
Y463612D01*
X298860D01*
Y463641D01*
X298802D01*
Y463670D01*
X298745D01*
Y463698D01*
X298688D01*
Y463727D01*
X298630D01*
Y463756D01*
X298602D01*
Y463784D01*
X298573D01*
Y463813D01*
X298516D01*
Y463842D01*
X298487D01*
Y463870D01*
X298430D01*
Y463899D01*
X298401D01*
Y463928D01*
X298372D01*
Y463956D01*
X298344D01*
Y463985D01*
X298287D01*
Y464014D01*
X298258D01*
Y464042D01*
X298229D01*
Y464071D01*
X298201D01*
Y464100D01*
X298172D01*
Y464128D01*
X298143D01*
Y464157D01*
X298115D01*
Y464185D01*
X298086D01*
Y464214D01*
X298057D01*
Y464243D01*
X298029D01*
Y464272D01*
X298000D01*
Y464300D01*
X297971D01*
Y464329D01*
X297943D01*
Y464386D01*
X297914D01*
Y464415D01*
X297885D01*
Y464443D01*
X297857D01*
Y464472D01*
X297828D01*
Y464501D01*
X297799D01*
Y464558D01*
X297771D01*
Y464587D01*
X297742D01*
Y464644D01*
X297713D01*
Y464673D01*
X297685D01*
Y464730D01*
X297656D01*
Y464787D01*
X297627D01*
Y464816D01*
X297599D01*
Y464873D01*
X297570D01*
Y464931D01*
X297542D01*
Y464988D01*
X297513D01*
Y465045D01*
X297484D01*
Y465103D01*
X297456D01*
Y465131D01*
X297427D01*
Y465217D01*
X297398D01*
Y465303D01*
X297369D01*
Y465360D01*
X297341D01*
Y465446D01*
X297312D01*
Y465504D01*
X297284D01*
Y465590D01*
X297255D01*
Y465618D01*
Y465647D01*
Y465704D01*
X297226D01*
Y465790D01*
X297198D01*
Y465905D01*
X297169D01*
Y466020D01*
X297140D01*
Y466134D01*
X297112D01*
Y466306D01*
X297083D01*
Y466478D01*
X297054D01*
Y466736D01*
X297026D01*
Y466765D01*
X297054D01*
Y466822D01*
X297026D01*
Y467596D01*
X297054D01*
Y467653D01*
X297026D01*
Y467710D01*
X297054D01*
Y467940D01*
X297083D01*
Y468112D01*
X297112D01*
Y468312D01*
X297140D01*
Y468398D01*
X297169D01*
Y468541D01*
X297198D01*
Y468656D01*
X297226D01*
Y468742D01*
X297255D01*
Y468828D01*
X297284D01*
Y468914D01*
X297312D01*
Y469000D01*
X297341D01*
Y469086D01*
X297369D01*
Y469143D01*
X297398D01*
Y469201D01*
X297427D01*
Y469286D01*
X297456D01*
Y469344D01*
X297484D01*
Y469401D01*
X297513D01*
Y469458D01*
X297542D01*
Y469516D01*
X297570D01*
Y469573D01*
X297599D01*
Y469602D01*
X297627D01*
Y469659D01*
X297656D01*
Y469716D01*
X297685D01*
Y469745D01*
X297713D01*
Y469802D01*
X297742D01*
Y469831D01*
X297771D01*
Y469888D01*
X297799D01*
Y469917D01*
X297828D01*
Y469946D01*
X297857D01*
Y470003D01*
X297885D01*
Y470032D01*
X297914D01*
Y470060D01*
X297943D01*
Y470089D01*
X297971D01*
Y470118D01*
X298000D01*
Y470146D01*
X298029D01*
Y470204D01*
X298057D01*
Y470232D01*
X298086D01*
Y470261D01*
X298115D01*
Y470289D01*
X298143D01*
Y470318D01*
X298172D01*
Y470347D01*
X298201D01*
Y470376D01*
X298258D01*
Y470404D01*
X298287D01*
Y470433D01*
X298315D01*
Y470461D01*
X298344D01*
Y470490D01*
X298372D01*
Y470519D01*
X298430D01*
Y470547D01*
X298458D01*
Y470576D01*
X298487D01*
Y470605D01*
X298545D01*
Y470633D01*
X298573D01*
Y470662D01*
X298630D01*
Y470691D01*
X298688D01*
Y470719D01*
X298716D01*
Y470748D01*
X298774D01*
Y470777D01*
X298831D01*
Y470805D01*
X298860D01*
Y470834D01*
X298917D01*
Y470863D01*
X298974D01*
Y470891D01*
X299060D01*
Y470920D01*
X299118D01*
Y470949D01*
X299175D01*
Y470977D01*
X299261D01*
Y471006D01*
X299347D01*
Y471035D01*
X299433D01*
Y471063D01*
X299519D01*
Y471092D01*
X299633D01*
Y471121D01*
X299748D01*
Y471149D01*
X299920D01*
Y471178D01*
X300035D01*
Y471207D01*
X300350D01*
Y471235D01*
X303617D01*
Y463182D01*
D02*
G37*
G36*
X289632Y463641D02*
Y463612D01*
Y463182D01*
X288572D01*
Y471235D01*
X289632D01*
Y463641D01*
D02*
G37*
G36*
X328555Y466005D02*
Y465957D01*
Y460640D01*
X328603D01*
Y460592D01*
X332722D01*
Y460544D01*
X332770D01*
Y460448D01*
X332722D01*
Y458101D01*
X332770D01*
Y458053D01*
X332722D01*
Y457958D01*
X320652D01*
Y460592D01*
X324771D01*
Y460640D01*
X324819D01*
Y471417D01*
X328555D01*
Y466005D01*
D02*
G37*
G36*
X324867Y456221D02*
X324819D01*
Y456173D01*
X324723D01*
Y456125D01*
X324628D01*
Y456077D01*
X324484D01*
Y456029D01*
X324436D01*
Y455981D01*
X324292D01*
Y455933D01*
X324197D01*
Y455886D01*
X324101D01*
Y455838D01*
X324053D01*
Y455790D01*
X323957D01*
Y455742D01*
X323909D01*
Y455694D01*
X323861D01*
Y455646D01*
X323813D01*
Y455598D01*
X323717D01*
Y455550D01*
X323670D01*
Y455502D01*
X323622D01*
Y455454D01*
X323574D01*
Y455407D01*
X323526D01*
Y455359D01*
X323478D01*
Y455311D01*
X323430D01*
Y455263D01*
X323382D01*
Y455215D01*
X323334D01*
Y455167D01*
X323287D01*
Y455119D01*
X323238D01*
Y455071D01*
X323191D01*
Y454976D01*
X323143D01*
Y454928D01*
X323095D01*
Y454880D01*
X323047D01*
Y454784D01*
X322999D01*
Y454736D01*
X322951D01*
Y454640D01*
X322903D01*
Y454592D01*
X322855D01*
Y454496D01*
X322808D01*
Y454401D01*
X322760D01*
Y454305D01*
X322712D01*
Y454209D01*
X322664D01*
Y454113D01*
X322616D01*
Y454017D01*
X322568D01*
Y453874D01*
X322520D01*
Y453730D01*
X322472D01*
Y453634D01*
X322424D01*
Y453443D01*
X322376D01*
Y453299D01*
X322328D01*
Y453107D01*
X322281D01*
Y452820D01*
X322233D01*
Y452629D01*
X322185D01*
Y452341D01*
X322137D01*
Y451862D01*
X322185D01*
Y451814D01*
X322233D01*
Y451862D01*
X322281D01*
Y451910D01*
X322328D01*
Y452006D01*
X322376D01*
Y452054D01*
X322424D01*
Y452150D01*
X322472D01*
Y452245D01*
X322520D01*
Y452293D01*
X322568D01*
Y452389D01*
X322616D01*
Y452437D01*
X322664D01*
Y452485D01*
X322712D01*
Y452533D01*
X322760D01*
Y452581D01*
X322808D01*
Y452629D01*
X322855D01*
Y452676D01*
X322903D01*
Y452724D01*
X322951D01*
Y452772D01*
X322999D01*
Y452820D01*
X323047D01*
Y452868D01*
X323095D01*
Y452916D01*
X323191D01*
Y452964D01*
X323238D01*
Y453012D01*
X323287D01*
Y453060D01*
X323382D01*
Y453107D01*
X323430D01*
Y453155D01*
X323526D01*
Y453203D01*
X323622D01*
Y453251D01*
X323717D01*
Y453299D01*
X323861D01*
Y453347D01*
X324053D01*
Y453395D01*
X324580D01*
Y453347D01*
X324675D01*
Y453299D01*
X324771D01*
Y453251D01*
X324867D01*
Y453203D01*
X324915D01*
Y453155D01*
X324963D01*
Y453107D01*
X325011D01*
Y453060D01*
X325059D01*
Y453012D01*
X325107D01*
Y452916D01*
X325154D01*
Y452868D01*
X325202D01*
Y452724D01*
X325250D01*
Y452581D01*
X325298D01*
Y452054D01*
X325250D01*
Y451862D01*
X325202D01*
Y451718D01*
X325154D01*
Y451670D01*
X325107D01*
Y451527D01*
X325059D01*
Y451479D01*
X325011D01*
Y451383D01*
X324963D01*
Y451287D01*
X324915D01*
Y451239D01*
X324867D01*
Y451144D01*
X324819D01*
Y451096D01*
X324771D01*
Y451048D01*
X324723D01*
Y450952D01*
X324675D01*
Y450904D01*
X324628D01*
Y450808D01*
X324580D01*
Y450760D01*
X324532D01*
Y450665D01*
X324484D01*
Y450617D01*
X324436D01*
Y450521D01*
X324388D01*
Y450473D01*
X324340D01*
Y450377D01*
X324292D01*
Y450329D01*
X324244D01*
Y450234D01*
X324197D01*
Y450138D01*
X324149D01*
Y450090D01*
X324101D01*
Y449994D01*
X324053D01*
Y449898D01*
X324005D01*
Y449803D01*
X323957D01*
Y449659D01*
X323909D01*
Y449563D01*
X323861D01*
Y449419D01*
X323813D01*
Y449228D01*
X323765D01*
Y449036D01*
X323717D01*
Y448844D01*
X323765D01*
Y448797D01*
X323813D01*
Y448844D01*
X323861D01*
Y448892D01*
X323909D01*
Y448940D01*
X323957D01*
Y448988D01*
X324005D01*
Y449084D01*
X324053D01*
Y449132D01*
X324101D01*
Y449228D01*
X324149D01*
Y449276D01*
X324197D01*
Y449371D01*
X324244D01*
Y449419D01*
X324292D01*
Y449515D01*
X324340D01*
Y449563D01*
X324388D01*
Y449611D01*
X324436D01*
Y449659D01*
X324484D01*
Y449755D01*
X324532D01*
Y449803D01*
X324580D01*
Y449850D01*
X324628D01*
Y449898D01*
X324675D01*
Y449946D01*
X324723D01*
Y449994D01*
X324771D01*
Y450042D01*
X324819D01*
Y450090D01*
X324867D01*
Y450138D01*
X324963D01*
Y450186D01*
X325011D01*
Y450234D01*
X325059D01*
Y450281D01*
X325107D01*
Y450329D01*
X325154D01*
Y450377D01*
X325202D01*
Y450425D01*
X325298D01*
Y450473D01*
X325346D01*
Y450521D01*
X325394D01*
Y450569D01*
X325442D01*
Y450617D01*
X325538D01*
Y450665D01*
X325586D01*
Y450713D01*
X325634D01*
Y450760D01*
X325729D01*
Y450808D01*
X325777D01*
Y450856D01*
X325825D01*
Y450904D01*
X325921D01*
Y450952D01*
X325969D01*
Y451000D01*
X326017D01*
Y451048D01*
X326113D01*
Y451096D01*
X326160D01*
Y451144D01*
X326208D01*
Y451191D01*
X326304D01*
Y451239D01*
X326352D01*
Y451287D01*
X326400D01*
Y451335D01*
X326496D01*
Y451383D01*
X326544D01*
Y451431D01*
X326591D01*
Y451479D01*
X326639D01*
Y451527D01*
X326735D01*
Y451575D01*
X326783D01*
Y451623D01*
X326831D01*
Y451670D01*
X326879D01*
Y451718D01*
X326927D01*
Y451766D01*
X327023D01*
Y451814D01*
X327070D01*
Y451862D01*
X327118D01*
Y451910D01*
X327166D01*
Y451958D01*
X327214D01*
Y452006D01*
X327262D01*
Y452054D01*
X327310D01*
Y452102D01*
X327358D01*
Y452150D01*
X327406D01*
Y452197D01*
X327454D01*
Y452245D01*
X327501D01*
Y452293D01*
X327549D01*
Y452341D01*
X327597D01*
Y452389D01*
X327645D01*
Y452437D01*
X327693D01*
Y452533D01*
X327741D01*
Y452581D01*
X327789D01*
Y452629D01*
X327837D01*
Y452676D01*
X327885D01*
Y452772D01*
X327933D01*
Y452820D01*
X327980D01*
Y452916D01*
X328028D01*
Y453012D01*
X328076D01*
Y453060D01*
X328124D01*
Y453155D01*
X328172D01*
Y453299D01*
X328220D01*
Y453395D01*
X328268D01*
Y453491D01*
X328316D01*
Y453682D01*
X328364D01*
Y453826D01*
X328412D01*
Y454113D01*
X328460D01*
Y455311D01*
X328507D01*
Y455502D01*
X328555D01*
Y455550D01*
X328699D01*
Y455502D01*
X328747D01*
Y455407D01*
X328795D01*
Y455215D01*
X328843D01*
Y455023D01*
X328891D01*
Y454880D01*
X328938D01*
Y454544D01*
X328986D01*
Y454353D01*
X329034D01*
Y454065D01*
X329082D01*
Y452485D01*
X329034D01*
Y452197D01*
X328986D01*
Y452006D01*
X328938D01*
Y451766D01*
X328891D01*
Y451623D01*
X328843D01*
Y451527D01*
X328795D01*
Y451335D01*
X328747D01*
Y451287D01*
X328699D01*
Y451144D01*
X328651D01*
Y451000D01*
X328603D01*
Y450952D01*
X328555D01*
Y450808D01*
X328507D01*
Y450760D01*
X328460D01*
Y450665D01*
X328412D01*
Y450569D01*
X328364D01*
Y450521D01*
X328316D01*
Y450425D01*
X328268D01*
Y450329D01*
X328220D01*
Y450281D01*
X328172D01*
Y450186D01*
X328124D01*
Y450138D01*
X328076D01*
Y450090D01*
X328028D01*
Y449994D01*
X327980D01*
Y449946D01*
X327933D01*
Y449898D01*
X327885D01*
Y449850D01*
X327837D01*
Y449803D01*
X327789D01*
Y449707D01*
X327741D01*
Y449659D01*
X327693D01*
Y449611D01*
X327645D01*
Y449563D01*
X327597D01*
Y449515D01*
X327549D01*
Y449467D01*
X327501D01*
Y449419D01*
X327454D01*
Y449371D01*
X327406D01*
Y449324D01*
X327358D01*
Y449276D01*
X327310D01*
Y449228D01*
X327262D01*
Y449180D01*
X327214D01*
Y449132D01*
X327166D01*
Y449084D01*
X327118D01*
Y449036D01*
X327070D01*
Y448988D01*
X327023D01*
Y448940D01*
X326927D01*
Y448892D01*
X326879D01*
Y448844D01*
X326831D01*
Y448797D01*
X326783D01*
Y448749D01*
X326735D01*
Y448701D01*
X326639D01*
Y448653D01*
X326591D01*
Y448605D01*
X326544D01*
Y448557D01*
X326448D01*
Y448509D01*
X326400D01*
Y448461D01*
X326352D01*
Y448413D01*
X326256D01*
Y448366D01*
X326208D01*
Y448318D01*
X326113D01*
Y448270D01*
X326064D01*
Y448222D01*
X326017D01*
Y448174D01*
X325921D01*
Y448126D01*
X325825D01*
Y448078D01*
X325777D01*
Y448030D01*
X325681D01*
Y447982D01*
X325634D01*
Y447934D01*
X325538D01*
Y447887D01*
X325442D01*
Y447839D01*
X325346D01*
Y447791D01*
X325250D01*
Y447743D01*
X325202D01*
Y447695D01*
X325107D01*
Y447647D01*
X325011D01*
Y447599D01*
X324915D01*
Y447551D01*
X324819D01*
Y447503D01*
X324723D01*
Y447455D01*
X324628D01*
Y447407D01*
X324532D01*
Y447360D01*
X324436D01*
Y447312D01*
X324340D01*
Y447264D01*
X324197D01*
Y447216D01*
X324149D01*
Y447168D01*
X324005D01*
Y447120D01*
X323909D01*
Y447072D01*
X323813D01*
Y447024D01*
X323670D01*
Y446976D01*
X323574D01*
Y446929D01*
X323430D01*
Y446881D01*
X323287D01*
Y446833D01*
X323191D01*
Y446785D01*
X322999D01*
Y446737D01*
X322855D01*
Y446689D01*
X322712D01*
Y446641D01*
X322520D01*
Y446593D01*
X322376D01*
Y446545D01*
X322233D01*
Y446497D01*
X321993D01*
Y446450D01*
X321850D01*
Y446402D01*
X321658D01*
Y446354D01*
X321466D01*
Y446306D01*
X321323D01*
Y446258D01*
X321083D01*
Y446210D01*
X320891D01*
Y446162D01*
X320748D01*
Y446114D01*
X320508D01*
Y446066D01*
X320365D01*
Y446018D01*
X320173D01*
Y445971D01*
X320029D01*
Y445923D01*
X319886D01*
Y445875D01*
X319694D01*
Y445827D01*
X319550D01*
Y445779D01*
X319407D01*
Y445731D01*
X319263D01*
Y445683D01*
X319167D01*
Y445635D01*
X318976D01*
Y445587D01*
X318880D01*
Y445540D01*
X318784D01*
Y445492D01*
X318640D01*
Y445444D01*
X318545D01*
Y445396D01*
X318449D01*
Y445348D01*
X318305D01*
Y445300D01*
X318257D01*
Y445252D01*
X318113D01*
Y445204D01*
X318018D01*
Y445156D01*
X317970D01*
Y445108D01*
X317874D01*
Y445061D01*
X317778D01*
Y445013D01*
X317730D01*
Y444965D01*
X317634D01*
Y444917D01*
X317586D01*
Y444869D01*
X317491D01*
Y444821D01*
X317443D01*
Y444773D01*
X317347D01*
Y444725D01*
X317299D01*
Y444677D01*
X317251D01*
Y444629D01*
X317203D01*
Y444581D01*
X317108D01*
Y444534D01*
X317060D01*
Y444486D01*
X317012D01*
Y444438D01*
X316964D01*
Y444390D01*
X316916D01*
Y444342D01*
X316868D01*
Y444294D01*
X316820D01*
Y444246D01*
X316772D01*
Y444198D01*
X316724D01*
Y444150D01*
X316677D01*
Y444007D01*
X316629D01*
Y443911D01*
X316581D01*
Y443815D01*
X316389D01*
Y443863D01*
X316341D01*
Y444198D01*
X316389D01*
Y444390D01*
X316437D01*
Y444581D01*
X316485D01*
Y444629D01*
X316533D01*
Y444773D01*
X316581D01*
Y444821D01*
X316629D01*
Y444869D01*
X316677D01*
Y444965D01*
X316724D01*
Y445013D01*
X316772D01*
Y445108D01*
X316820D01*
Y445156D01*
X316868D01*
Y445204D01*
X316916D01*
Y445252D01*
X316964D01*
Y445300D01*
X317012D01*
Y445348D01*
X317060D01*
Y445396D01*
X317108D01*
Y445444D01*
X317155D01*
Y445492D01*
X317203D01*
Y445540D01*
X317251D01*
Y445587D01*
X317347D01*
Y445635D01*
X317395D01*
Y445683D01*
X317443D01*
Y445731D01*
X317491D01*
Y445779D01*
X317586D01*
Y445827D01*
X317634D01*
Y445875D01*
X317682D01*
Y445923D01*
X317730D01*
Y445971D01*
X317826D01*
Y446018D01*
X317874D01*
Y446066D01*
X317922D01*
Y446114D01*
X318018D01*
Y446162D01*
X318065D01*
Y446210D01*
X318113D01*
Y446258D01*
X318209D01*
Y446306D01*
X318257D01*
Y446354D01*
X318353D01*
Y446402D01*
X318401D01*
Y446450D01*
X318449D01*
Y446497D01*
X318545D01*
Y446545D01*
X318592D01*
Y446593D01*
X318688D01*
Y446641D01*
X318736D01*
Y446689D01*
X318832D01*
Y446737D01*
X318880D01*
Y446785D01*
X318976D01*
Y446833D01*
X319023D01*
Y446881D01*
X319071D01*
Y446929D01*
X319167D01*
Y446976D01*
X319215D01*
Y447024D01*
X319311D01*
Y447072D01*
X319359D01*
Y447120D01*
X319407D01*
Y447168D01*
X319503D01*
Y447216D01*
X319550D01*
Y447264D01*
X319646D01*
Y447312D01*
X319694D01*
Y447360D01*
X319742D01*
Y447407D01*
X319838D01*
Y447455D01*
X319886D01*
Y447503D01*
X319933D01*
Y447551D01*
X320029D01*
Y447599D01*
X320077D01*
Y447647D01*
X320125D01*
Y447695D01*
X320173D01*
Y447743D01*
X320221D01*
Y447791D01*
X320317D01*
Y447839D01*
X320365D01*
Y447887D01*
X320412D01*
Y447934D01*
X320460D01*
Y447982D01*
X320508D01*
Y448030D01*
X320556D01*
Y448078D01*
X320604D01*
Y448126D01*
X320652D01*
Y448174D01*
X320700D01*
Y448222D01*
X320748D01*
Y448270D01*
X320796D01*
Y448318D01*
X320844D01*
Y448366D01*
X320891D01*
Y448413D01*
X320939D01*
Y448461D01*
X320987D01*
Y448557D01*
X321035D01*
Y448605D01*
X321083D01*
Y448653D01*
X321131D01*
Y448749D01*
X321179D01*
Y448844D01*
X321227D01*
Y448892D01*
X321275D01*
Y449036D01*
X321323D01*
Y449132D01*
X321371D01*
Y449324D01*
X321418D01*
Y449898D01*
X321371D01*
Y450090D01*
X321323D01*
Y450186D01*
X321275D01*
Y450281D01*
X321227D01*
Y450329D01*
X321179D01*
Y450425D01*
X321131D01*
Y450473D01*
X321083D01*
Y450521D01*
X321035D01*
Y450569D01*
X320987D01*
Y450617D01*
X320891D01*
Y450665D01*
X320796D01*
Y450713D01*
X320700D01*
Y450760D01*
X320460D01*
Y450808D01*
X320029D01*
Y450760D01*
X319742D01*
Y450713D01*
X319550D01*
Y450665D01*
X319455D01*
Y450617D01*
X319311D01*
Y450569D01*
X319215D01*
Y450521D01*
X319119D01*
Y450473D01*
X319023D01*
Y450425D01*
X318976D01*
Y450377D01*
X318880D01*
Y450329D01*
X318832D01*
Y450281D01*
X318736D01*
Y450234D01*
X318688D01*
Y450186D01*
X318592D01*
Y450138D01*
X318545D01*
Y450090D01*
X318497D01*
Y450042D01*
X318401D01*
Y449994D01*
X318353D01*
Y449946D01*
X318305D01*
Y449898D01*
X318257D01*
Y449850D01*
X318209D01*
Y449803D01*
X318161D01*
Y449755D01*
X318113D01*
Y449707D01*
X318018D01*
Y449659D01*
X317922D01*
Y449707D01*
X317874D01*
Y449755D01*
X317826D01*
Y449946D01*
X317874D01*
Y450042D01*
X317922D01*
Y450186D01*
X317970D01*
Y450377D01*
X318018D01*
Y450473D01*
X318065D01*
Y450665D01*
X318113D01*
Y450760D01*
X318161D01*
Y450856D01*
X318209D01*
Y451000D01*
X318257D01*
Y451096D01*
X318305D01*
Y451191D01*
X318353D01*
Y451335D01*
X318401D01*
Y451383D01*
X318449D01*
Y451527D01*
X318497D01*
Y451623D01*
X318545D01*
Y451670D01*
X318592D01*
Y451814D01*
X318640D01*
Y451862D01*
X318688D01*
Y451958D01*
X318736D01*
Y452054D01*
X318784D01*
Y452102D01*
X318832D01*
Y452197D01*
X318880D01*
Y452293D01*
X318928D01*
Y452389D01*
X318976D01*
Y452437D01*
X319023D01*
Y452533D01*
X319071D01*
Y452581D01*
X319119D01*
Y452676D01*
X319167D01*
Y452772D01*
X319215D01*
Y452820D01*
X319263D01*
Y452916D01*
X319311D01*
Y452964D01*
X319359D01*
Y453060D01*
X319407D01*
Y453107D01*
X319455D01*
Y453155D01*
X319503D01*
Y453251D01*
X319550D01*
Y453299D01*
X319598D01*
Y453347D01*
X319646D01*
Y453443D01*
X319694D01*
Y453491D01*
X319742D01*
Y453539D01*
X319790D01*
Y453586D01*
X319838D01*
Y453634D01*
X319886D01*
Y453730D01*
X319933D01*
Y453778D01*
X319981D01*
Y453826D01*
X320029D01*
Y453874D01*
X320077D01*
Y453922D01*
X320125D01*
Y454017D01*
X320173D01*
Y454065D01*
X320221D01*
Y454113D01*
X320269D01*
Y454161D01*
X320317D01*
Y454209D01*
X320365D01*
Y454257D01*
X320412D01*
Y454305D01*
X320460D01*
Y454353D01*
X320508D01*
Y454401D01*
X320556D01*
Y454449D01*
X320604D01*
Y454496D01*
X320652D01*
Y454544D01*
X320700D01*
Y454592D01*
X320748D01*
Y454640D01*
X320796D01*
Y454688D01*
X320844D01*
Y454736D01*
X320891D01*
Y454784D01*
X320939D01*
Y454832D01*
X321035D01*
Y454880D01*
X321083D01*
Y454928D01*
X321131D01*
Y454976D01*
X321179D01*
Y455023D01*
X321227D01*
Y455071D01*
X321323D01*
Y455119D01*
X321371D01*
Y455167D01*
X321418D01*
Y455215D01*
X321514D01*
Y455263D01*
X321562D01*
Y455311D01*
X321610D01*
Y455359D01*
X321706D01*
Y455407D01*
X321754D01*
Y455454D01*
X321850D01*
Y455502D01*
X321897D01*
Y455550D01*
X321993D01*
Y455598D01*
X322041D01*
Y455646D01*
X322137D01*
Y455694D01*
X322233D01*
Y455742D01*
X322281D01*
Y455790D01*
X322376D01*
Y455838D01*
X322472D01*
Y455886D01*
X322568D01*
Y455933D01*
X322664D01*
Y455981D01*
X322808D01*
Y456029D01*
X322855D01*
Y456077D01*
X322999D01*
Y456125D01*
X323143D01*
Y456173D01*
X323287D01*
Y456221D01*
X323478D01*
Y456269D01*
X323622D01*
Y456317D01*
X323861D01*
Y456365D01*
X324244D01*
Y456412D01*
X324867D01*
Y456221D01*
D02*
G37*
G36*
X393611Y416137D02*
X393659D01*
Y415802D01*
X393611D01*
Y415610D01*
X393563D01*
Y415418D01*
X393515D01*
Y415370D01*
X393467D01*
Y415227D01*
X393419D01*
Y415179D01*
X393372D01*
Y415131D01*
X393324D01*
Y415035D01*
X393276D01*
Y414987D01*
X393228D01*
Y414892D01*
X393180D01*
Y414844D01*
X393132D01*
Y414796D01*
X393084D01*
Y414748D01*
X393036D01*
Y414700D01*
X392988D01*
Y414652D01*
X392940D01*
Y414604D01*
X392892D01*
Y414556D01*
X392845D01*
Y414508D01*
X392797D01*
Y414460D01*
X392749D01*
Y414413D01*
X392653D01*
Y414365D01*
X392605D01*
Y414317D01*
X392557D01*
Y414269D01*
X392509D01*
Y414221D01*
X392413D01*
Y414173D01*
X392366D01*
Y414125D01*
X392318D01*
Y414077D01*
X392270D01*
Y414029D01*
X392174D01*
Y413982D01*
X392126D01*
Y413934D01*
X392078D01*
Y413886D01*
X391982D01*
Y413838D01*
X391935D01*
Y413790D01*
X391887D01*
Y413742D01*
X391791D01*
Y413694D01*
X391743D01*
Y413646D01*
X391647D01*
Y413598D01*
X391599D01*
Y413550D01*
X391551D01*
Y413503D01*
X391455D01*
Y413455D01*
X391408D01*
Y413407D01*
X391312D01*
Y413359D01*
X391264D01*
Y413311D01*
X391168D01*
Y413263D01*
X391120D01*
Y413215D01*
X391024D01*
Y413167D01*
X390976D01*
Y413119D01*
X390929D01*
Y413071D01*
X390833D01*
Y413023D01*
X390785D01*
Y412976D01*
X390689D01*
Y412928D01*
X390641D01*
Y412880D01*
X390593D01*
Y412832D01*
X390498D01*
Y412784D01*
X390450D01*
Y412736D01*
X390354D01*
Y412688D01*
X390306D01*
Y412640D01*
X390258D01*
Y412592D01*
X390162D01*
Y412545D01*
X390114D01*
Y412497D01*
X390066D01*
Y412449D01*
X389971D01*
Y412401D01*
X389923D01*
Y412353D01*
X389875D01*
Y412305D01*
X389827D01*
Y412257D01*
X389779D01*
Y412209D01*
X389683D01*
Y412161D01*
X389635D01*
Y412113D01*
X389588D01*
Y412066D01*
X389540D01*
Y412018D01*
X389492D01*
Y411970D01*
X389444D01*
Y411922D01*
X389396D01*
Y411874D01*
X389348D01*
Y411826D01*
X389300D01*
Y411778D01*
X389252D01*
Y411730D01*
X389204D01*
Y411682D01*
X389156D01*
Y411634D01*
X389109D01*
Y411587D01*
X389061D01*
Y411539D01*
X389013D01*
Y411443D01*
X388965D01*
Y411395D01*
X388917D01*
Y411347D01*
X388869D01*
Y411251D01*
X388821D01*
Y411156D01*
X388773D01*
Y411108D01*
X388725D01*
Y410964D01*
X388677D01*
Y410868D01*
X388629D01*
Y410676D01*
X388582D01*
Y410102D01*
X388629D01*
Y409910D01*
X388677D01*
Y409814D01*
X388725D01*
Y409719D01*
X388773D01*
Y409671D01*
X388821D01*
Y409575D01*
X388869D01*
Y409527D01*
X388917D01*
Y409479D01*
X388965D01*
Y409431D01*
X389013D01*
Y409383D01*
X389109D01*
Y409335D01*
X389204D01*
Y409287D01*
X389300D01*
Y409240D01*
X389540D01*
Y409192D01*
X389971D01*
Y409240D01*
X390258D01*
Y409287D01*
X390450D01*
Y409335D01*
X390545D01*
Y409383D01*
X390689D01*
Y409431D01*
X390785D01*
Y409479D01*
X390881D01*
Y409527D01*
X390976D01*
Y409575D01*
X391024D01*
Y409623D01*
X391120D01*
Y409671D01*
X391168D01*
Y409719D01*
X391264D01*
Y409766D01*
X391312D01*
Y409814D01*
X391408D01*
Y409862D01*
X391455D01*
Y409910D01*
X391503D01*
Y409958D01*
X391599D01*
Y410006D01*
X391647D01*
Y410054D01*
X391695D01*
Y410102D01*
X391743D01*
Y410150D01*
X391791D01*
Y410197D01*
X391839D01*
Y410245D01*
X391887D01*
Y410293D01*
X391982D01*
Y410341D01*
X392078D01*
Y410293D01*
X392126D01*
Y410245D01*
X392174D01*
Y410054D01*
X392126D01*
Y409958D01*
X392078D01*
Y409814D01*
X392030D01*
Y409623D01*
X391982D01*
Y409527D01*
X391935D01*
Y409335D01*
X391887D01*
Y409240D01*
X391839D01*
Y409144D01*
X391791D01*
Y409000D01*
X391743D01*
Y408904D01*
X391695D01*
Y408809D01*
X391647D01*
Y408665D01*
X391599D01*
Y408617D01*
X391551D01*
Y408473D01*
X391503D01*
Y408377D01*
X391455D01*
Y408330D01*
X391408D01*
Y408186D01*
X391360D01*
Y408138D01*
X391312D01*
Y408042D01*
X391264D01*
Y407946D01*
X391216D01*
Y407898D01*
X391168D01*
Y407803D01*
X391120D01*
Y407707D01*
X391072D01*
Y407611D01*
X391024D01*
Y407563D01*
X390976D01*
Y407467D01*
X390929D01*
Y407419D01*
X390881D01*
Y407324D01*
X390833D01*
Y407228D01*
X390785D01*
Y407180D01*
X390737D01*
Y407084D01*
X390689D01*
Y407036D01*
X390641D01*
Y406940D01*
X390593D01*
Y406893D01*
X390545D01*
Y406845D01*
X390498D01*
Y406749D01*
X390450D01*
Y406701D01*
X390402D01*
Y406653D01*
X390354D01*
Y406557D01*
X390306D01*
Y406509D01*
X390258D01*
Y406461D01*
X390210D01*
Y406413D01*
X390162D01*
Y406366D01*
X390114D01*
Y406270D01*
X390066D01*
Y406222D01*
X390019D01*
Y406174D01*
X389971D01*
Y406126D01*
X389923D01*
Y406078D01*
X389875D01*
Y405982D01*
X389827D01*
Y405934D01*
X389779D01*
Y405887D01*
X389731D01*
Y405839D01*
X389683D01*
Y405791D01*
X389635D01*
Y405743D01*
X389588D01*
Y405695D01*
X389540D01*
Y405647D01*
X389492D01*
Y405599D01*
X389444D01*
Y405551D01*
X389396D01*
Y405504D01*
X389348D01*
Y405456D01*
X389300D01*
Y405408D01*
X389252D01*
Y405360D01*
X389204D01*
Y405312D01*
X389156D01*
Y405264D01*
X389109D01*
Y405216D01*
X389061D01*
Y405168D01*
X388965D01*
Y405120D01*
X388917D01*
Y405072D01*
X388869D01*
Y405024D01*
X388821D01*
Y404977D01*
X388773D01*
Y404929D01*
X388677D01*
Y404881D01*
X388629D01*
Y404833D01*
X388582D01*
Y404785D01*
X388486D01*
Y404737D01*
X388438D01*
Y404689D01*
X388390D01*
Y404641D01*
X388294D01*
Y404593D01*
X388246D01*
Y404546D01*
X388150D01*
Y404498D01*
X388103D01*
Y404450D01*
X388007D01*
Y404402D01*
X387959D01*
Y404354D01*
X387863D01*
Y404306D01*
X387767D01*
Y404258D01*
X387719D01*
Y404210D01*
X387624D01*
Y404162D01*
X387528D01*
Y404114D01*
X387432D01*
Y404067D01*
X387336D01*
Y404019D01*
X387192D01*
Y403971D01*
X387145D01*
Y403923D01*
X387001D01*
Y403875D01*
X386857D01*
Y403827D01*
X386714D01*
Y403779D01*
X386522D01*
Y403731D01*
X386378D01*
Y403683D01*
X386139D01*
Y403635D01*
X385756D01*
Y403587D01*
X385133D01*
Y403779D01*
X385181D01*
Y403827D01*
X385277D01*
Y403875D01*
X385372D01*
Y403923D01*
X385516D01*
Y403971D01*
X385564D01*
Y404019D01*
X385708D01*
Y404067D01*
X385803D01*
Y404114D01*
X385899D01*
Y404162D01*
X385947D01*
Y404210D01*
X386043D01*
Y404258D01*
X386091D01*
Y404306D01*
X386139D01*
Y404354D01*
X386187D01*
Y404402D01*
X386283D01*
Y404450D01*
X386330D01*
Y404498D01*
X386378D01*
Y404546D01*
X386426D01*
Y404593D01*
X386474D01*
Y404641D01*
X386522D01*
Y404689D01*
X386570D01*
Y404737D01*
X386618D01*
Y404785D01*
X386666D01*
Y404833D01*
X386714D01*
Y404881D01*
X386762D01*
Y404929D01*
X386809D01*
Y405024D01*
X386857D01*
Y405072D01*
X386905D01*
Y405120D01*
X386953D01*
Y405216D01*
X387001D01*
Y405264D01*
X387049D01*
Y405360D01*
X387097D01*
Y405408D01*
X387145D01*
Y405504D01*
X387192D01*
Y405599D01*
X387240D01*
Y405695D01*
X387288D01*
Y405791D01*
X387336D01*
Y405887D01*
X387384D01*
Y405982D01*
X387432D01*
Y406126D01*
X387480D01*
Y406270D01*
X387528D01*
Y406366D01*
X387576D01*
Y406557D01*
X387624D01*
Y406701D01*
X387672D01*
Y406893D01*
X387719D01*
Y407180D01*
X387767D01*
Y407371D01*
X387815D01*
Y407659D01*
X387863D01*
Y408138D01*
X387815D01*
Y408186D01*
X387767D01*
Y408138D01*
X387719D01*
Y408090D01*
X387672D01*
Y407994D01*
X387624D01*
Y407946D01*
X387576D01*
Y407850D01*
X387528D01*
Y407755D01*
X387480D01*
Y407707D01*
X387432D01*
Y407611D01*
X387384D01*
Y407563D01*
X387336D01*
Y407515D01*
X387288D01*
Y407467D01*
X387240D01*
Y407419D01*
X387192D01*
Y407371D01*
X387145D01*
Y407324D01*
X387097D01*
Y407276D01*
X387049D01*
Y407228D01*
X387001D01*
Y407180D01*
X386953D01*
Y407132D01*
X386905D01*
Y407084D01*
X386809D01*
Y407036D01*
X386762D01*
Y406988D01*
X386714D01*
Y406940D01*
X386618D01*
Y406893D01*
X386570D01*
Y406845D01*
X386474D01*
Y406797D01*
X386378D01*
Y406749D01*
X386283D01*
Y406701D01*
X386139D01*
Y406653D01*
X385947D01*
Y406605D01*
X385420D01*
Y406653D01*
X385325D01*
Y406701D01*
X385229D01*
Y406749D01*
X385133D01*
Y406797D01*
X385085D01*
Y406845D01*
X385037D01*
Y406893D01*
X384989D01*
Y406940D01*
X384941D01*
Y406988D01*
X384893D01*
Y407084D01*
X384846D01*
Y407132D01*
X384798D01*
Y407276D01*
X384750D01*
Y407419D01*
X384702D01*
Y407946D01*
X384750D01*
Y408138D01*
X384798D01*
Y408282D01*
X384846D01*
Y408330D01*
X384893D01*
Y408473D01*
X384941D01*
Y408521D01*
X384989D01*
Y408617D01*
X385037D01*
Y408713D01*
X385085D01*
Y408760D01*
X385133D01*
Y408856D01*
X385181D01*
Y408904D01*
X385229D01*
Y408952D01*
X385277D01*
Y409048D01*
X385325D01*
Y409096D01*
X385372D01*
Y409192D01*
X385420D01*
Y409240D01*
X385468D01*
Y409335D01*
X385516D01*
Y409383D01*
X385564D01*
Y409479D01*
X385612D01*
Y409527D01*
X385660D01*
Y409623D01*
X385708D01*
Y409671D01*
X385756D01*
Y409766D01*
X385803D01*
Y409862D01*
X385851D01*
Y409910D01*
X385899D01*
Y410006D01*
X385947D01*
Y410102D01*
X385995D01*
Y410197D01*
X386043D01*
Y410341D01*
X386091D01*
Y410437D01*
X386139D01*
Y410581D01*
X386187D01*
Y410772D01*
X386235D01*
Y410964D01*
X386283D01*
Y411156D01*
X386235D01*
Y411203D01*
X386187D01*
Y411156D01*
X386139D01*
Y411108D01*
X386091D01*
Y411060D01*
X386043D01*
Y411012D01*
X385995D01*
Y410916D01*
X385947D01*
Y410868D01*
X385899D01*
Y410772D01*
X385851D01*
Y410724D01*
X385803D01*
Y410629D01*
X385756D01*
Y410581D01*
X385708D01*
Y410485D01*
X385660D01*
Y410437D01*
X385612D01*
Y410389D01*
X385564D01*
Y410341D01*
X385516D01*
Y410245D01*
X385468D01*
Y410197D01*
X385420D01*
Y410150D01*
X385372D01*
Y410102D01*
X385325D01*
Y410054D01*
X385277D01*
Y410006D01*
X385229D01*
Y409958D01*
X385181D01*
Y409910D01*
X385133D01*
Y409862D01*
X385037D01*
Y409814D01*
X384989D01*
Y409766D01*
X384941D01*
Y409719D01*
X384893D01*
Y409671D01*
X384846D01*
Y409623D01*
X384798D01*
Y409575D01*
X384702D01*
Y409527D01*
X384654D01*
Y409479D01*
X384606D01*
Y409431D01*
X384558D01*
Y409383D01*
X384462D01*
Y409335D01*
X384414D01*
Y409287D01*
X384366D01*
Y409240D01*
X384271D01*
Y409192D01*
X384223D01*
Y409144D01*
X384175D01*
Y409096D01*
X384079D01*
Y409048D01*
X384031D01*
Y409000D01*
X383983D01*
Y408952D01*
X383887D01*
Y408904D01*
X383840D01*
Y408856D01*
X383792D01*
Y408809D01*
X383696D01*
Y408760D01*
X383648D01*
Y408713D01*
X383600D01*
Y408665D01*
X383504D01*
Y408617D01*
X383456D01*
Y408569D01*
X383409D01*
Y408521D01*
X383361D01*
Y408473D01*
X383265D01*
Y408425D01*
X383217D01*
Y408377D01*
X383169D01*
Y408330D01*
X383121D01*
Y408282D01*
X383073D01*
Y408234D01*
X382977D01*
Y408186D01*
X382930D01*
Y408138D01*
X382882D01*
Y408090D01*
X382834D01*
Y408042D01*
X382786D01*
Y407994D01*
X382738D01*
Y407946D01*
X382690D01*
Y407898D01*
X382642D01*
Y407850D01*
X382594D01*
Y407803D01*
X382546D01*
Y407755D01*
X382499D01*
Y407707D01*
X382451D01*
Y407659D01*
X382403D01*
Y407611D01*
X382355D01*
Y407563D01*
X382307D01*
Y407467D01*
X382259D01*
Y407419D01*
X382211D01*
Y407371D01*
X382163D01*
Y407324D01*
X382115D01*
Y407228D01*
X382067D01*
Y407180D01*
X382020D01*
Y407084D01*
X381972D01*
Y406988D01*
X381924D01*
Y406940D01*
X381876D01*
Y406845D01*
X381828D01*
Y406701D01*
X381780D01*
Y406605D01*
X381732D01*
Y406509D01*
X381684D01*
Y406318D01*
X381636D01*
Y406174D01*
X381588D01*
Y405887D01*
X381540D01*
Y404689D01*
X381493D01*
Y404498D01*
X381445D01*
Y404450D01*
X381301D01*
Y404498D01*
X381253D01*
Y404593D01*
X381205D01*
Y404785D01*
X381157D01*
Y404977D01*
X381109D01*
Y405120D01*
X381062D01*
Y405456D01*
X381014D01*
Y405647D01*
X380966D01*
Y405934D01*
X380918D01*
Y407515D01*
X380966D01*
Y407803D01*
X381014D01*
Y407994D01*
X381062D01*
Y408234D01*
X381109D01*
Y408377D01*
X381157D01*
Y408473D01*
X381205D01*
Y408665D01*
X381253D01*
Y408713D01*
X381301D01*
Y408856D01*
X381349D01*
Y409000D01*
X381397D01*
Y409048D01*
X381445D01*
Y409192D01*
X381493D01*
Y409240D01*
X381540D01*
Y409335D01*
X381588D01*
Y409431D01*
X381636D01*
Y409479D01*
X381684D01*
Y409575D01*
X381732D01*
Y409671D01*
X381780D01*
Y409719D01*
X381828D01*
Y409814D01*
X381876D01*
Y409862D01*
X381924D01*
Y409910D01*
X381972D01*
Y410006D01*
X382020D01*
Y410054D01*
X382067D01*
Y410102D01*
X382115D01*
Y410150D01*
X382163D01*
Y410197D01*
X382211D01*
Y410293D01*
X382259D01*
Y410341D01*
X382307D01*
Y410389D01*
X382355D01*
Y410437D01*
X382403D01*
Y410485D01*
X382451D01*
Y410533D01*
X382499D01*
Y410581D01*
X382546D01*
Y410629D01*
X382594D01*
Y410676D01*
X382642D01*
Y410724D01*
X382690D01*
Y410772D01*
X382738D01*
Y410820D01*
X382786D01*
Y410868D01*
X382834D01*
Y410916D01*
X382882D01*
Y410964D01*
X382930D01*
Y411012D01*
X382977D01*
Y411060D01*
X383073D01*
Y411108D01*
X383121D01*
Y411156D01*
X383169D01*
Y411203D01*
X383217D01*
Y411251D01*
X383265D01*
Y411299D01*
X383361D01*
Y411347D01*
X383409D01*
Y411395D01*
X383456D01*
Y411443D01*
X383552D01*
Y411491D01*
X383600D01*
Y411539D01*
X383648D01*
Y411587D01*
X383744D01*
Y411634D01*
X383792D01*
Y411682D01*
X383887D01*
Y411730D01*
X383936D01*
Y411778D01*
X383983D01*
Y411826D01*
X384079D01*
Y411874D01*
X384175D01*
Y411922D01*
X384223D01*
Y411970D01*
X384319D01*
Y412018D01*
X384366D01*
Y412066D01*
X384462D01*
Y412113D01*
X384558D01*
Y412161D01*
X384654D01*
Y412209D01*
X384750D01*
Y412257D01*
X384798D01*
Y412305D01*
X384893D01*
Y412353D01*
X384989D01*
Y412401D01*
X385085D01*
Y412449D01*
X385181D01*
Y412497D01*
X385277D01*
Y412545D01*
X385372D01*
Y412592D01*
X385468D01*
Y412640D01*
X385564D01*
Y412688D01*
X385660D01*
Y412736D01*
X385803D01*
Y412784D01*
X385851D01*
Y412832D01*
X385995D01*
Y412880D01*
X386091D01*
Y412928D01*
X386187D01*
Y412976D01*
X386330D01*
Y413023D01*
X386426D01*
Y413071D01*
X386570D01*
Y413119D01*
X386714D01*
Y413167D01*
X386809D01*
Y413215D01*
X387001D01*
Y413263D01*
X387145D01*
Y413311D01*
X387288D01*
Y413359D01*
X387480D01*
Y413407D01*
X387624D01*
Y413455D01*
X387767D01*
Y413503D01*
X388007D01*
Y413550D01*
X388150D01*
Y413598D01*
X388342D01*
Y413646D01*
X388534D01*
Y413694D01*
X388677D01*
Y413742D01*
X388917D01*
Y413790D01*
X389109D01*
Y413838D01*
X389252D01*
Y413886D01*
X389492D01*
Y413934D01*
X389635D01*
Y413982D01*
X389827D01*
Y414029D01*
X389971D01*
Y414077D01*
X390114D01*
Y414125D01*
X390306D01*
Y414173D01*
X390450D01*
Y414221D01*
X390593D01*
Y414269D01*
X390737D01*
Y414317D01*
X390833D01*
Y414365D01*
X391024D01*
Y414413D01*
X391120D01*
Y414460D01*
X391216D01*
Y414508D01*
X391360D01*
Y414556D01*
X391455D01*
Y414604D01*
X391551D01*
Y414652D01*
X391695D01*
Y414700D01*
X391743D01*
Y414748D01*
X391887D01*
Y414796D01*
X391982D01*
Y414844D01*
X392030D01*
Y414892D01*
X392126D01*
Y414939D01*
X392222D01*
Y414987D01*
X392270D01*
Y415035D01*
X392366D01*
Y415083D01*
X392413D01*
Y415131D01*
X392509D01*
Y415179D01*
X392557D01*
Y415227D01*
X392653D01*
Y415275D01*
X392701D01*
Y415323D01*
X392749D01*
Y415370D01*
X392797D01*
Y415418D01*
X392892D01*
Y415466D01*
X392940D01*
Y415514D01*
X392988D01*
Y415562D01*
X393036D01*
Y415610D01*
X393084D01*
Y415658D01*
X393132D01*
Y415706D01*
X393180D01*
Y415754D01*
X393228D01*
Y415802D01*
X393276D01*
Y415849D01*
X393324D01*
Y415993D01*
X393372D01*
Y416089D01*
X393419D01*
Y416185D01*
X393611D01*
Y416137D01*
D02*
G37*
G36*
X425841Y396932D02*
X425956D01*
Y396903D01*
X426099D01*
Y396875D01*
X426185D01*
Y396846D01*
X426214D01*
Y396015D01*
X426185D01*
Y395986D01*
X425870D01*
Y396015D01*
X425440D01*
Y395986D01*
X425240D01*
Y395958D01*
X425125D01*
Y395929D01*
X425068D01*
Y395900D01*
X425010D01*
Y395872D01*
X424953D01*
Y395843D01*
X424924D01*
Y395814D01*
X424896D01*
Y395757D01*
X424867D01*
Y395728D01*
X424838D01*
Y395671D01*
X424810D01*
Y395585D01*
X424781D01*
Y395471D01*
X424753D01*
Y394382D01*
X424781D01*
Y394353D01*
X426042D01*
Y393608D01*
X424753D01*
Y388765D01*
X423663D01*
Y389195D01*
Y389223D01*
Y393608D01*
X422603D01*
Y394353D01*
X423635D01*
Y394382D01*
X423663D01*
Y395499D01*
X423692D01*
Y395728D01*
X423721D01*
Y395872D01*
X423750D01*
Y395986D01*
X423778D01*
Y396044D01*
X423807D01*
Y396130D01*
X423835D01*
Y396187D01*
X423864D01*
Y396216D01*
X423893D01*
Y396273D01*
X423921D01*
Y396330D01*
X423950D01*
Y396359D01*
X423979D01*
Y396416D01*
X424007D01*
Y396445D01*
X424036D01*
Y396474D01*
X424065D01*
Y396502D01*
X424093D01*
Y396531D01*
X424122D01*
Y396560D01*
X424151D01*
Y396588D01*
X424208D01*
Y396617D01*
X424237D01*
Y396646D01*
X424265D01*
Y396674D01*
X424323D01*
Y396703D01*
X424351D01*
Y396731D01*
X424409D01*
Y396760D01*
X424466D01*
Y396789D01*
X424523D01*
Y396818D01*
X424609D01*
Y396846D01*
X424666D01*
Y396875D01*
X424753D01*
Y396903D01*
X424867D01*
Y396932D01*
X424982D01*
Y396961D01*
X425841D01*
Y396932D01*
D02*
G37*
G36*
X403909Y401899D02*
X403957D01*
Y392750D01*
X403909D01*
Y392606D01*
X403861D01*
Y392271D01*
X403813D01*
Y392175D01*
X403765D01*
Y392080D01*
X403813D01*
Y392032D01*
X403765D01*
Y391936D01*
X403717D01*
Y391696D01*
X403622D01*
Y391505D01*
X403574D01*
Y391313D01*
X403478D01*
Y391169D01*
X403382D01*
Y391121D01*
X403430D01*
Y391074D01*
X403382D01*
Y391026D01*
X403334D01*
Y390882D01*
X403286D01*
Y390834D01*
X403238D01*
Y390738D01*
X403191D01*
Y390643D01*
X403095D01*
Y390547D01*
X403047D01*
Y390451D01*
X402999D01*
Y390403D01*
X402951D01*
Y390355D01*
X402903D01*
Y390307D01*
X402855D01*
Y390259D01*
X402807D01*
Y390211D01*
X402760D01*
Y390163D01*
X402712D01*
Y390116D01*
X402664D01*
Y390068D01*
X402616D01*
Y390020D01*
X402568D01*
Y389972D01*
X402520D01*
Y389924D01*
X402472D01*
Y389876D01*
X402424D01*
Y389828D01*
X402376D01*
Y389780D01*
X402328D01*
Y389732D01*
X402281D01*
Y389684D01*
X402185D01*
Y389637D01*
X402137D01*
Y389589D01*
X402089D01*
Y389541D01*
X402041D01*
Y389493D01*
X401945D01*
Y389445D01*
X401850D01*
Y389397D01*
X401802D01*
Y389349D01*
X401706D01*
Y389301D01*
X401610D01*
Y389254D01*
X401562D01*
Y389206D01*
X401418D01*
Y389158D01*
X401323D01*
Y389110D01*
X401275D01*
Y389062D01*
X401131D01*
Y389014D01*
X401083D01*
Y388966D01*
X400939D01*
Y388918D01*
X400748D01*
Y388822D01*
X400556D01*
Y388774D01*
X400365D01*
Y388727D01*
X400269D01*
Y388679D01*
X400029D01*
Y388631D01*
X399981D01*
Y388583D01*
X399694D01*
Y388535D01*
X399311D01*
Y388487D01*
X399263D01*
Y388439D01*
X398736D01*
Y388391D01*
X398497D01*
Y388343D01*
X398353D01*
Y388391D01*
X396772D01*
Y388343D01*
X396676D01*
Y388391D01*
X396389D01*
Y388439D01*
X395862D01*
Y388487D01*
X395814D01*
Y388535D01*
X395431D01*
Y388583D01*
X395144D01*
Y388631D01*
X395096D01*
Y388679D01*
X394856D01*
Y388727D01*
X394808D01*
Y388774D01*
X394713D01*
Y388727D01*
X394665D01*
Y388774D01*
X394569D01*
Y388822D01*
X394377D01*
Y388918D01*
X394186D01*
Y388966D01*
X394042D01*
Y389014D01*
X393994D01*
Y389062D01*
X393850D01*
Y389110D01*
X393755D01*
Y389158D01*
X393707D01*
Y389206D01*
X393563D01*
Y389301D01*
X393419D01*
Y389349D01*
X393324D01*
Y389397D01*
X393276D01*
Y389445D01*
X393180D01*
Y389493D01*
X393132D01*
Y389541D01*
X393084D01*
Y389589D01*
X392988D01*
Y389637D01*
X392940D01*
Y389684D01*
X392845D01*
Y389732D01*
X392797D01*
Y389828D01*
X392701D01*
Y389924D01*
X392605D01*
Y389972D01*
X392509D01*
Y390020D01*
X392557D01*
Y390068D01*
X392461D01*
Y390116D01*
X392413D01*
Y390163D01*
X392366D01*
Y390211D01*
X392318D01*
Y390307D01*
X392222D01*
Y390403D01*
X392126D01*
Y390499D01*
X392078D01*
Y390547D01*
X392030D01*
Y390595D01*
X391982D01*
Y390690D01*
X391935D01*
Y390738D01*
X391887D01*
Y390834D01*
X391839D01*
Y390930D01*
X391791D01*
Y390978D01*
X391743D01*
Y391121D01*
X391695D01*
Y391265D01*
X391599D01*
Y391457D01*
X391503D01*
Y391648D01*
X391455D01*
Y391840D01*
X391408D01*
Y391888D01*
X391360D01*
Y392127D01*
X391312D01*
Y392223D01*
X391264D01*
Y392319D01*
X391312D01*
Y392415D01*
X391264D01*
Y392558D01*
X391216D01*
Y393085D01*
X391168D01*
Y401899D01*
X391264D01*
Y401994D01*
X394665D01*
Y401946D01*
X394713D01*
Y401899D01*
X394761D01*
Y401994D01*
X394808D01*
Y393133D01*
X394856D01*
Y393037D01*
X394904D01*
Y392750D01*
X394952D01*
Y392654D01*
X395000D01*
Y392606D01*
X394952D01*
Y392558D01*
X395000D01*
Y392510D01*
X395048D01*
Y392319D01*
X395144D01*
Y392223D01*
X395096D01*
Y392175D01*
X395192D01*
Y392080D01*
X395239D01*
Y392032D01*
X395287D01*
Y391936D01*
X395335D01*
Y391888D01*
X395383D01*
Y391840D01*
X395431D01*
Y391744D01*
X395479D01*
Y391648D01*
X395575D01*
Y391600D01*
X395623D01*
Y391505D01*
X395718D01*
Y391457D01*
X395814D01*
Y391409D01*
X395862D01*
Y391361D01*
X395910D01*
Y391313D01*
X395958D01*
Y391265D01*
X396054D01*
Y391217D01*
X396150D01*
Y391169D01*
X396198D01*
Y391121D01*
X396341D01*
Y391074D01*
X396485D01*
Y391026D01*
X396533D01*
Y390978D01*
X396820D01*
Y390930D01*
X396868D01*
Y390882D01*
X397012D01*
Y390930D01*
X397155D01*
Y390882D01*
X397970D01*
Y390930D01*
X398161D01*
Y390882D01*
X398257D01*
Y390930D01*
X398353D01*
Y390978D01*
X398592D01*
Y391026D01*
X398640D01*
Y391074D01*
X398784D01*
Y391121D01*
X398928D01*
Y391169D01*
X398976D01*
Y391217D01*
X399071D01*
Y391265D01*
X399215D01*
Y391361D01*
X399311D01*
Y391409D01*
X399359D01*
Y391457D01*
X399407D01*
Y391505D01*
X399502D01*
Y391600D01*
X399598D01*
Y391696D01*
X399646D01*
Y391744D01*
X399694D01*
Y391840D01*
X399790D01*
Y391936D01*
X399838D01*
Y391984D01*
X399886D01*
Y392080D01*
X399934D01*
Y392175D01*
X399981D01*
Y392223D01*
X400029D01*
Y392367D01*
X400077D01*
Y392415D01*
X400125D01*
Y392463D01*
X400077D01*
Y392510D01*
X400125D01*
Y392558D01*
X400173D01*
Y392798D01*
X400221D01*
Y392846D01*
X400269D01*
Y393229D01*
X400317D01*
Y401899D01*
X400365D01*
Y401994D01*
X403909D01*
Y401899D01*
D02*
G37*
G36*
X421428Y388765D02*
X420368D01*
Y396359D01*
Y396388D01*
Y396818D01*
X421428D01*
Y388765D01*
D02*
G37*
G36*
X409421Y396789D02*
X409822D01*
Y396760D01*
X409994D01*
Y396731D01*
X410195D01*
Y396703D01*
X410281D01*
Y396674D01*
X410395D01*
Y396646D01*
X410538D01*
Y396617D01*
X410596D01*
Y396588D01*
X410682D01*
Y396560D01*
X410768D01*
Y396531D01*
X410825D01*
Y396502D01*
X410911D01*
Y396474D01*
X410968D01*
Y396445D01*
X411026D01*
Y396416D01*
X411112D01*
Y396388D01*
X411140D01*
Y396359D01*
X411198D01*
Y396330D01*
X411255D01*
Y396302D01*
X411312D01*
Y396273D01*
X411370D01*
Y396244D01*
X411398D01*
Y396216D01*
X411427D01*
Y396187D01*
X411484D01*
Y396158D01*
X411513D01*
Y396130D01*
X411570D01*
Y396101D01*
X411599D01*
Y396072D01*
X411628D01*
Y396044D01*
X411656D01*
Y396015D01*
X411713D01*
Y395986D01*
X411742D01*
Y395958D01*
X411771D01*
Y395929D01*
X411799D01*
Y395900D01*
X411828D01*
Y395872D01*
X411857D01*
Y395843D01*
X411885D01*
Y395814D01*
X411914D01*
Y395786D01*
X411943D01*
Y395757D01*
X411971D01*
Y395728D01*
X412000D01*
Y395700D01*
X412029D01*
Y395671D01*
X412057D01*
Y395614D01*
X412086D01*
Y395585D01*
X412115D01*
Y395556D01*
X412143D01*
Y395528D01*
X412172D01*
Y395499D01*
X412201D01*
Y395442D01*
X412229D01*
Y395413D01*
X412258D01*
Y395356D01*
X412287D01*
Y395327D01*
X412315D01*
Y395270D01*
X412344D01*
Y395213D01*
X412373D01*
Y395184D01*
X412401D01*
Y395127D01*
X412430D01*
Y395069D01*
X412458D01*
Y395012D01*
X412487D01*
Y394955D01*
X412516D01*
Y394897D01*
X412545D01*
Y394869D01*
X412573D01*
Y394783D01*
X412602D01*
Y394697D01*
X412631D01*
Y394640D01*
X412659D01*
Y394553D01*
X412688D01*
Y394496D01*
X412716D01*
Y394410D01*
X412745D01*
Y394382D01*
Y394353D01*
Y394296D01*
X412774D01*
Y394210D01*
X412802D01*
Y394095D01*
X412831D01*
Y393980D01*
X412860D01*
Y393866D01*
X412888D01*
Y393694D01*
X412917D01*
Y393522D01*
X412946D01*
Y393264D01*
X412974D01*
Y393235D01*
X412946D01*
Y393178D01*
X412974D01*
Y392404D01*
X412946D01*
Y392347D01*
X412974D01*
Y392290D01*
X412946D01*
Y392060D01*
X412917D01*
Y391888D01*
X412888D01*
Y391688D01*
X412860D01*
Y391602D01*
X412831D01*
Y391459D01*
X412802D01*
Y391344D01*
X412774D01*
Y391258D01*
X412745D01*
Y391172D01*
X412716D01*
Y391086D01*
X412688D01*
Y391000D01*
X412659D01*
Y390914D01*
X412631D01*
Y390857D01*
X412602D01*
Y390799D01*
X412573D01*
Y390714D01*
X412545D01*
Y390656D01*
X412516D01*
Y390599D01*
X412487D01*
Y390541D01*
X412458D01*
Y390484D01*
X412430D01*
Y390427D01*
X412401D01*
Y390398D01*
X412373D01*
Y390341D01*
X412344D01*
Y390284D01*
X412315D01*
Y390255D01*
X412287D01*
Y390198D01*
X412258D01*
Y390169D01*
X412229D01*
Y390112D01*
X412201D01*
Y390083D01*
X412172D01*
Y390054D01*
X412143D01*
Y389997D01*
X412115D01*
Y389968D01*
X412086D01*
Y389940D01*
X412057D01*
Y389911D01*
X412029D01*
Y389882D01*
X412000D01*
Y389854D01*
X411971D01*
Y389796D01*
X411943D01*
Y389768D01*
X411914D01*
Y389739D01*
X411885D01*
Y389711D01*
X411857D01*
Y389682D01*
X411828D01*
Y389653D01*
X411799D01*
Y389624D01*
X411742D01*
Y389596D01*
X411713D01*
Y389567D01*
X411685D01*
Y389538D01*
X411656D01*
Y389510D01*
X411628D01*
Y389481D01*
X411570D01*
Y389453D01*
X411541D01*
Y389424D01*
X411513D01*
Y389395D01*
X411455D01*
Y389367D01*
X411427D01*
Y389338D01*
X411370D01*
Y389309D01*
X411312D01*
Y389281D01*
X411284D01*
Y389252D01*
X411226D01*
Y389223D01*
X411169D01*
Y389195D01*
X411140D01*
Y389166D01*
X411083D01*
Y389137D01*
X411026D01*
Y389109D01*
X410940D01*
Y389080D01*
X410882D01*
Y389051D01*
X410825D01*
Y389023D01*
X410739D01*
Y388994D01*
X410653D01*
Y388965D01*
X410567D01*
Y388937D01*
X410481D01*
Y388908D01*
X410367D01*
Y388879D01*
X410252D01*
Y388851D01*
X410080D01*
Y388822D01*
X409965D01*
Y388793D01*
X409650D01*
Y388765D01*
X406383D01*
Y396818D01*
X409421D01*
Y396789D01*
D02*
G37*
G36*
X429278Y395814D02*
Y395786D01*
Y394382D01*
X429306D01*
Y394353D01*
X430596D01*
Y393637D01*
X430568D01*
Y393608D01*
X429278D01*
Y389911D01*
X429306D01*
Y389768D01*
X429335D01*
Y389711D01*
X429364D01*
Y389682D01*
X429393D01*
Y389624D01*
X429421D01*
Y389596D01*
X429450D01*
Y389567D01*
X429507D01*
Y389538D01*
X429536D01*
Y389510D01*
X429593D01*
Y389481D01*
X429650D01*
Y389453D01*
X429765D01*
Y389424D01*
X429937D01*
Y389395D01*
X430023D01*
Y389424D01*
X430310D01*
Y389453D01*
X430453D01*
Y389481D01*
X430539D01*
Y388650D01*
X430424D01*
Y388621D01*
X430195D01*
Y388593D01*
X429393D01*
Y388621D01*
X429163D01*
Y388650D01*
X429049D01*
Y388679D01*
X428934D01*
Y388708D01*
X428848D01*
Y388736D01*
X428791D01*
Y388765D01*
X428733D01*
Y388793D01*
X428676D01*
Y388822D01*
X428619D01*
Y388851D01*
X428590D01*
Y388879D01*
X428533D01*
Y388908D01*
X428504D01*
Y388937D01*
X428475D01*
Y388965D01*
X428447D01*
Y389023D01*
X428418D01*
Y389051D01*
X428390D01*
Y389109D01*
X428361D01*
Y389137D01*
X428332D01*
Y389195D01*
X428303D01*
Y389281D01*
X428275D01*
Y389367D01*
X428246D01*
Y389538D01*
X428218D01*
Y393579D01*
X428189D01*
Y393608D01*
X427243D01*
Y394353D01*
X428189D01*
Y394382D01*
X428218D01*
Y395556D01*
X428275D01*
Y395585D01*
X428361D01*
Y395614D01*
X428447D01*
Y395643D01*
X428533D01*
Y395671D01*
X428647D01*
Y395700D01*
X428733D01*
Y395728D01*
X428819D01*
Y395757D01*
X428905D01*
Y395786D01*
X428991D01*
Y395814D01*
X429106D01*
Y395843D01*
X429192D01*
Y395872D01*
X429278D01*
Y395814D01*
D02*
G37*
G36*
X416958Y394496D02*
X417158D01*
Y394468D01*
X417273D01*
Y394439D01*
X417416D01*
Y394410D01*
X417502D01*
Y394382D01*
X417560D01*
Y394353D01*
X417674D01*
Y394324D01*
X417703D01*
Y394296D01*
X417789D01*
Y394267D01*
X417846D01*
Y394238D01*
X417903D01*
Y394210D01*
X417961D01*
Y394181D01*
X417989D01*
Y394152D01*
X418047D01*
Y394124D01*
X418075D01*
Y394095D01*
X418104D01*
Y394066D01*
X418161D01*
Y394038D01*
X418190D01*
Y394009D01*
X418219D01*
Y393980D01*
X418247D01*
Y393952D01*
X418276D01*
Y393923D01*
X418333D01*
Y393894D01*
X418362D01*
Y393866D01*
X418391D01*
Y393809D01*
X418419D01*
Y393780D01*
X418448D01*
Y393751D01*
X418477D01*
Y393722D01*
X418505D01*
Y393694D01*
X418534D01*
Y393665D01*
X418563D01*
Y393608D01*
X418591D01*
Y393579D01*
X418620D01*
Y393522D01*
X418648D01*
Y393493D01*
X418677D01*
Y393436D01*
X418706D01*
Y393379D01*
X418735D01*
Y393350D01*
X418763D01*
Y393293D01*
X418792D01*
Y393235D01*
X418820D01*
Y393178D01*
X418849D01*
Y393092D01*
X418878D01*
Y393035D01*
X418906D01*
Y392949D01*
X418935D01*
Y392834D01*
X418964D01*
Y392748D01*
X418992D01*
Y392605D01*
X419021D01*
Y392462D01*
X419050D01*
Y392261D01*
X419078D01*
Y391373D01*
X419050D01*
Y391344D01*
X415095D01*
Y390885D01*
X415124D01*
Y390714D01*
X415152D01*
Y390599D01*
X415181D01*
Y390456D01*
X415210D01*
Y390370D01*
X415238D01*
Y390284D01*
X415267D01*
Y390198D01*
X415296D01*
Y390169D01*
X415324D01*
Y390083D01*
X415353D01*
Y390026D01*
X415382D01*
Y389997D01*
X415410D01*
Y389940D01*
X415439D01*
Y389911D01*
X415467D01*
Y389854D01*
X415496D01*
Y389825D01*
X415525D01*
Y389796D01*
X415554D01*
Y389768D01*
X415582D01*
Y389711D01*
X415639D01*
Y389682D01*
X415668D01*
Y389653D01*
X415697D01*
Y389624D01*
X415726D01*
Y389596D01*
X415783D01*
Y389567D01*
X415811D01*
Y389538D01*
X415869D01*
Y389510D01*
X415926D01*
Y389481D01*
X415983D01*
Y389453D01*
X416069D01*
Y389424D01*
X416155D01*
Y389395D01*
X416356D01*
Y389367D01*
X416729D01*
Y389395D01*
X416986D01*
Y389424D01*
X417072D01*
Y389453D01*
X417158D01*
Y389481D01*
X417244D01*
Y389510D01*
X417302D01*
Y389538D01*
X417359D01*
Y389567D01*
X417388D01*
Y389596D01*
X417416D01*
Y389624D01*
X417474D01*
Y389653D01*
X417502D01*
Y389682D01*
X417531D01*
Y389711D01*
X417560D01*
Y389739D01*
X417588D01*
Y389768D01*
X417617D01*
Y389825D01*
X417645D01*
Y389854D01*
X417674D01*
Y389911D01*
X417703D01*
Y389968D01*
X417732D01*
Y390026D01*
X417760D01*
Y390083D01*
X417789D01*
Y390169D01*
X417817D01*
Y390255D01*
X417846D01*
Y390398D01*
X417875D01*
Y390484D01*
X417903D01*
Y390513D01*
X418992D01*
Y390484D01*
X419021D01*
Y390456D01*
X418992D01*
Y390284D01*
X418964D01*
Y390198D01*
X418935D01*
Y390083D01*
X418906D01*
Y389997D01*
X418878D01*
Y389911D01*
X418849D01*
Y389854D01*
X418820D01*
Y389796D01*
X418792D01*
Y389739D01*
X418763D01*
Y389682D01*
X418735D01*
Y389624D01*
X418706D01*
Y389596D01*
X418677D01*
Y389538D01*
X418648D01*
Y389510D01*
X418620D01*
Y389453D01*
X418591D01*
Y389424D01*
X418563D01*
Y389395D01*
X418534D01*
Y389338D01*
X418477D01*
Y389309D01*
X418448D01*
Y389252D01*
X418391D01*
Y389195D01*
X418362D01*
Y389166D01*
X418305D01*
Y389137D01*
X418276D01*
Y389109D01*
X418247D01*
Y389080D01*
X418190D01*
Y389051D01*
X418161D01*
Y389023D01*
X418133D01*
Y388994D01*
X418075D01*
Y388965D01*
X418047D01*
Y388937D01*
X417989D01*
Y388908D01*
X417932D01*
Y388879D01*
X417875D01*
Y388851D01*
X417817D01*
Y388822D01*
X417760D01*
Y388793D01*
X417674D01*
Y388765D01*
X417588D01*
Y388736D01*
X417502D01*
Y388708D01*
X417388D01*
Y388679D01*
X417273D01*
Y388650D01*
X417130D01*
Y388621D01*
X416900D01*
Y388593D01*
X416127D01*
Y388621D01*
X415926D01*
Y388650D01*
X415783D01*
Y388679D01*
X415697D01*
Y388708D01*
X415582D01*
Y388736D01*
X415496D01*
Y388765D01*
X415439D01*
Y388793D01*
X415353D01*
Y388822D01*
X415296D01*
Y388851D01*
X415238D01*
Y388879D01*
X415181D01*
Y388908D01*
X415152D01*
Y388937D01*
X415095D01*
Y388965D01*
X415066D01*
Y388994D01*
X415009D01*
Y389023D01*
X414952D01*
Y389051D01*
X414923D01*
Y389080D01*
X414894D01*
Y389109D01*
X414866D01*
Y389137D01*
X414837D01*
Y389166D01*
X414808D01*
Y389195D01*
X414780D01*
Y389223D01*
X414751D01*
Y389252D01*
X414723D01*
Y389281D01*
X414694D01*
Y389309D01*
X414665D01*
Y389338D01*
X414636D01*
Y389367D01*
X414608D01*
Y389395D01*
X414579D01*
Y389453D01*
X414551D01*
Y389481D01*
X414522D01*
Y389510D01*
X414493D01*
Y389567D01*
X414465D01*
Y389596D01*
X414436D01*
Y389653D01*
X414407D01*
Y389711D01*
X414379D01*
Y389739D01*
X414350D01*
Y389825D01*
X414321D01*
Y389882D01*
X414293D01*
Y389911D01*
X414264D01*
Y389997D01*
X414235D01*
Y390083D01*
X414207D01*
Y390140D01*
X414178D01*
Y390255D01*
X414149D01*
Y390341D01*
X414121D01*
Y390456D01*
X414092D01*
Y390599D01*
X414063D01*
Y390714D01*
X414035D01*
Y391000D01*
X414006D01*
Y392003D01*
X414035D01*
Y392261D01*
X414063D01*
Y392404D01*
X414092D01*
Y392519D01*
X414121D01*
Y392662D01*
X414149D01*
Y392719D01*
X414178D01*
Y392834D01*
X414207D01*
Y392920D01*
X414235D01*
Y392977D01*
X414264D01*
Y393063D01*
X414293D01*
Y393092D01*
X414321D01*
Y393178D01*
X414350D01*
Y393235D01*
X414379D01*
Y393264D01*
X414407D01*
Y393350D01*
X414436D01*
Y393379D01*
X414465D01*
Y393436D01*
X414493D01*
Y393465D01*
X414522D01*
Y393522D01*
X414551D01*
Y393550D01*
X414579D01*
Y393608D01*
X414608D01*
Y393637D01*
X414636D01*
Y393665D01*
X414665D01*
Y393694D01*
X414694D01*
Y393722D01*
X414723D01*
Y393780D01*
X414751D01*
Y393809D01*
X414780D01*
Y393837D01*
X414808D01*
Y393866D01*
X414837D01*
Y393894D01*
X414866D01*
Y393923D01*
X414894D01*
Y393952D01*
X414952D01*
Y393980D01*
X414980D01*
Y394009D01*
X415009D01*
Y394038D01*
X415038D01*
Y394066D01*
X415095D01*
Y394095D01*
X415124D01*
Y394124D01*
X415181D01*
Y394152D01*
X415210D01*
Y394181D01*
X415267D01*
Y394210D01*
X415324D01*
Y394238D01*
X415353D01*
Y394267D01*
X415410D01*
Y394296D01*
X415496D01*
Y394324D01*
X415554D01*
Y394353D01*
X415639D01*
Y394382D01*
X415726D01*
Y394410D01*
X415783D01*
Y394439D01*
X415926D01*
Y394468D01*
X416041D01*
Y394496D01*
X416241D01*
Y394525D01*
X416958D01*
Y394496D01*
D02*
G37*
G36*
X389348Y399408D02*
X385229D01*
Y399360D01*
X385181D01*
Y388583D01*
X381445D01*
Y393995D01*
Y394043D01*
Y399360D01*
X381397D01*
Y399408D01*
X377278D01*
Y399456D01*
X377230D01*
Y399552D01*
X377278D01*
Y401899D01*
X377230D01*
Y401946D01*
X377278D01*
Y402042D01*
X389348D01*
Y399408D01*
D02*
G37*
G36*
X313324Y211609D02*
X313611D01*
Y211561D01*
X314138D01*
Y211513D01*
X314186D01*
Y211465D01*
X314569D01*
Y211417D01*
X314856D01*
Y211369D01*
X314904D01*
Y211321D01*
X315144D01*
Y211273D01*
X315192D01*
Y211225D01*
X315287D01*
Y211273D01*
X315335D01*
Y211225D01*
X315431D01*
Y211178D01*
X315623D01*
Y211082D01*
X315814D01*
Y211034D01*
X315958D01*
Y210986D01*
X316006D01*
Y210938D01*
X316150D01*
Y210890D01*
X316245D01*
Y210842D01*
X316293D01*
Y210794D01*
X316437D01*
Y210699D01*
X316581D01*
Y210651D01*
X316677D01*
Y210603D01*
X316724D01*
Y210555D01*
X316820D01*
Y210507D01*
X316868D01*
Y210459D01*
X316916D01*
Y210411D01*
X317012D01*
Y210363D01*
X317060D01*
Y210315D01*
X317155D01*
Y210268D01*
X317203D01*
Y210172D01*
X317299D01*
Y210076D01*
X317395D01*
Y210028D01*
X317491D01*
Y209980D01*
X317443D01*
Y209932D01*
X317539D01*
Y209884D01*
X317586D01*
Y209837D01*
X317634D01*
Y209789D01*
X317682D01*
Y209693D01*
X317778D01*
Y209597D01*
X317874D01*
Y209501D01*
X317922D01*
Y209453D01*
X317970D01*
Y209405D01*
X318018D01*
Y209310D01*
X318065D01*
Y209262D01*
X318113D01*
Y209166D01*
X318161D01*
Y209070D01*
X318209D01*
Y209022D01*
X318257D01*
Y208878D01*
X318305D01*
Y208735D01*
X318401D01*
Y208543D01*
X318497D01*
Y208352D01*
X318545D01*
Y208160D01*
X318592D01*
Y208112D01*
X318640D01*
Y207873D01*
X318688D01*
Y207777D01*
X318736D01*
Y207681D01*
X318688D01*
Y207585D01*
X318736D01*
Y207442D01*
X318784D01*
Y206915D01*
X318832D01*
Y198101D01*
X318736D01*
Y198006D01*
X315335D01*
Y198053D01*
X315287D01*
Y198101D01*
X315240D01*
Y198006D01*
X315192D01*
Y206867D01*
X315144D01*
Y206963D01*
X315096D01*
Y207250D01*
X315048D01*
Y207346D01*
X315000D01*
Y207394D01*
X315048D01*
Y207442D01*
X315000D01*
Y207489D01*
X314952D01*
Y207681D01*
X314856D01*
Y207777D01*
X314904D01*
Y207825D01*
X314808D01*
Y207920D01*
X314760D01*
Y207968D01*
X314713D01*
Y208064D01*
X314665D01*
Y208112D01*
X314617D01*
Y208160D01*
X314569D01*
Y208256D01*
X314521D01*
Y208352D01*
X314425D01*
Y208400D01*
X314377D01*
Y208495D01*
X314282D01*
Y208543D01*
X314186D01*
Y208591D01*
X314138D01*
Y208639D01*
X314090D01*
Y208687D01*
X314042D01*
Y208735D01*
X313946D01*
Y208783D01*
X313850D01*
Y208831D01*
X313803D01*
Y208878D01*
X313659D01*
Y208926D01*
X313515D01*
Y208974D01*
X313467D01*
Y209022D01*
X313180D01*
Y209070D01*
X313132D01*
Y209118D01*
X312988D01*
Y209070D01*
X312845D01*
Y209118D01*
X312030D01*
Y209070D01*
X311839D01*
Y209118D01*
X311743D01*
Y209070D01*
X311647D01*
Y209022D01*
X311408D01*
Y208974D01*
X311360D01*
Y208926D01*
X311216D01*
Y208878D01*
X311072D01*
Y208831D01*
X311024D01*
Y208783D01*
X310929D01*
Y208735D01*
X310785D01*
Y208639D01*
X310689D01*
Y208591D01*
X310641D01*
Y208543D01*
X310593D01*
Y208495D01*
X310498D01*
Y208400D01*
X310402D01*
Y208304D01*
X310354D01*
Y208256D01*
X310306D01*
Y208160D01*
X310210D01*
Y208064D01*
X310162D01*
Y208016D01*
X310114D01*
Y207920D01*
X310067D01*
Y207825D01*
X310019D01*
Y207777D01*
X309971D01*
Y207633D01*
X309923D01*
Y207585D01*
X309875D01*
Y207537D01*
X309923D01*
Y207489D01*
X309875D01*
Y207442D01*
X309827D01*
Y207202D01*
X309779D01*
Y207154D01*
X309731D01*
Y206771D01*
X309683D01*
Y198101D01*
X309635D01*
Y198006D01*
X306091D01*
Y198101D01*
X306043D01*
Y207250D01*
X306091D01*
Y207394D01*
X306139D01*
Y207729D01*
X306187D01*
Y207825D01*
X306235D01*
Y207920D01*
X306187D01*
Y207968D01*
X306235D01*
Y208064D01*
X306283D01*
Y208304D01*
X306378D01*
Y208495D01*
X306426D01*
Y208687D01*
X306522D01*
Y208831D01*
X306618D01*
Y208878D01*
X306570D01*
Y208926D01*
X306618D01*
Y208974D01*
X306666D01*
Y209118D01*
X306714D01*
Y209166D01*
X306761D01*
Y209262D01*
X306809D01*
Y209357D01*
X306905D01*
Y209453D01*
X306953D01*
Y209549D01*
X307001D01*
Y209597D01*
X307049D01*
Y209645D01*
X307097D01*
Y209693D01*
X307145D01*
Y209741D01*
X307193D01*
Y209789D01*
X307241D01*
Y209837D01*
X307288D01*
Y209884D01*
X307336D01*
Y209932D01*
X307384D01*
Y209980D01*
X307432D01*
Y210028D01*
X307480D01*
Y210076D01*
X307528D01*
Y210124D01*
X307576D01*
Y210172D01*
X307624D01*
Y210220D01*
X307672D01*
Y210268D01*
X307719D01*
Y210315D01*
X307815D01*
Y210363D01*
X307863D01*
Y210411D01*
X307911D01*
Y210459D01*
X307959D01*
Y210507D01*
X308055D01*
Y210555D01*
X308151D01*
Y210603D01*
X308198D01*
Y210651D01*
X308294D01*
Y210699D01*
X308390D01*
Y210746D01*
X308438D01*
Y210794D01*
X308582D01*
Y210842D01*
X308677D01*
Y210890D01*
X308725D01*
Y210938D01*
X308869D01*
Y210986D01*
X308917D01*
Y211034D01*
X309061D01*
Y211082D01*
X309252D01*
Y211178D01*
X309444D01*
Y211225D01*
X309635D01*
Y211273D01*
X309731D01*
Y211321D01*
X309971D01*
Y211369D01*
X310019D01*
Y211417D01*
X310306D01*
Y211465D01*
X310689D01*
Y211513D01*
X310737D01*
Y211561D01*
X311264D01*
Y211609D01*
X311503D01*
Y211657D01*
X311647D01*
Y211609D01*
X313228D01*
Y211657D01*
X313324D01*
Y211609D01*
D02*
G37*
G36*
X293873Y211378D02*
X294074D01*
Y211350D01*
X294217D01*
Y211321D01*
X294303D01*
Y211292D01*
X294418D01*
Y211264D01*
X294504D01*
Y211235D01*
X294561D01*
Y211206D01*
X294647D01*
Y211178D01*
X294704D01*
Y211149D01*
X294762D01*
Y211121D01*
X294819D01*
Y211092D01*
X294848D01*
Y211063D01*
X294905D01*
Y211035D01*
X294934D01*
Y211006D01*
X294991D01*
Y210977D01*
X295048D01*
Y210949D01*
X295077D01*
Y210920D01*
X295106D01*
Y210891D01*
X295134D01*
Y210863D01*
X295163D01*
Y210834D01*
X295192D01*
Y210805D01*
X295220D01*
Y210777D01*
X295249D01*
Y210748D01*
X295278D01*
Y210719D01*
X295306D01*
Y210691D01*
X295335D01*
Y210662D01*
X295364D01*
Y210633D01*
X295392D01*
Y210605D01*
X295421D01*
Y210547D01*
X295450D01*
Y210519D01*
X295478D01*
Y210490D01*
X295507D01*
Y210433D01*
X295536D01*
Y210404D01*
X295564D01*
Y210347D01*
X295593D01*
Y210289D01*
X295621D01*
Y210261D01*
X295650D01*
Y210175D01*
X295679D01*
Y210118D01*
X295707D01*
Y210089D01*
X295736D01*
Y210003D01*
X295765D01*
Y209917D01*
X295793D01*
Y209860D01*
X295822D01*
Y209745D01*
X295851D01*
Y209659D01*
X295879D01*
Y209544D01*
X295908D01*
Y209401D01*
X295937D01*
Y209286D01*
X295965D01*
Y209000D01*
X295994D01*
Y207997D01*
X295965D01*
Y207739D01*
X295937D01*
Y207596D01*
X295908D01*
Y207481D01*
X295879D01*
Y207338D01*
X295851D01*
Y207281D01*
X295822D01*
Y207166D01*
X295793D01*
Y207080D01*
X295765D01*
Y207023D01*
X295736D01*
Y206937D01*
X295707D01*
Y206908D01*
X295679D01*
Y206822D01*
X295650D01*
Y206765D01*
X295621D01*
Y206736D01*
X295593D01*
Y206650D01*
X295564D01*
Y206621D01*
X295536D01*
Y206564D01*
X295507D01*
Y206535D01*
X295478D01*
Y206478D01*
X295450D01*
Y206449D01*
X295421D01*
Y206392D01*
X295392D01*
Y206364D01*
X295364D01*
Y206335D01*
X295335D01*
Y206306D01*
X295306D01*
Y206278D01*
X295278D01*
Y206220D01*
X295249D01*
Y206192D01*
X295220D01*
Y206163D01*
X295192D01*
Y206134D01*
X295163D01*
Y206106D01*
X295134D01*
Y206077D01*
X295106D01*
Y206048D01*
X295048D01*
Y206020D01*
X295020D01*
Y205991D01*
X294991D01*
Y205962D01*
X294962D01*
Y205934D01*
X294905D01*
Y205905D01*
X294876D01*
Y205876D01*
X294819D01*
Y205848D01*
X294790D01*
Y205819D01*
X294733D01*
Y205790D01*
X294676D01*
Y205762D01*
X294647D01*
Y205733D01*
X294590D01*
Y205704D01*
X294504D01*
Y205676D01*
X294447D01*
Y205647D01*
X294361D01*
Y205618D01*
X294275D01*
Y205590D01*
X294217D01*
Y205561D01*
X294074D01*
Y205532D01*
X293959D01*
Y205504D01*
X293759D01*
Y205475D01*
X293042D01*
Y205504D01*
X292842D01*
Y205532D01*
X292727D01*
Y205561D01*
X292584D01*
Y205590D01*
X292498D01*
Y205618D01*
X292440D01*
Y205647D01*
X292326D01*
Y205676D01*
X292297D01*
Y205704D01*
X292211D01*
Y205733D01*
X292154D01*
Y205762D01*
X292097D01*
Y205790D01*
X292039D01*
Y205819D01*
X292011D01*
Y205848D01*
X291953D01*
Y205876D01*
X291925D01*
Y205905D01*
X291896D01*
Y205934D01*
X291839D01*
Y205962D01*
X291810D01*
Y205991D01*
X291781D01*
Y206020D01*
X291753D01*
Y206048D01*
X291724D01*
Y206077D01*
X291667D01*
Y206106D01*
X291638D01*
Y206134D01*
X291609D01*
Y206192D01*
X291581D01*
Y206220D01*
X291552D01*
Y206249D01*
X291523D01*
Y206278D01*
X291495D01*
Y206306D01*
X291466D01*
Y206335D01*
X291437D01*
Y206392D01*
X291409D01*
Y206421D01*
X291380D01*
Y206478D01*
X291352D01*
Y206507D01*
X291323D01*
Y206564D01*
X291294D01*
Y206621D01*
X291266D01*
Y206650D01*
X291237D01*
Y206707D01*
X291208D01*
Y206765D01*
X291180D01*
Y206822D01*
X291151D01*
Y206908D01*
X291122D01*
Y206965D01*
X291094D01*
Y207051D01*
X291065D01*
Y207166D01*
X291036D01*
Y207252D01*
X291008D01*
Y207395D01*
X290979D01*
Y207538D01*
X290950D01*
Y207739D01*
X290922D01*
Y208627D01*
X290950D01*
Y208656D01*
X294905D01*
Y209115D01*
X294876D01*
Y209286D01*
X294848D01*
Y209401D01*
X294819D01*
Y209544D01*
X294790D01*
Y209630D01*
X294762D01*
Y209716D01*
X294733D01*
Y209802D01*
X294704D01*
Y209831D01*
X294676D01*
Y209917D01*
X294647D01*
Y209974D01*
X294618D01*
Y210003D01*
X294590D01*
Y210060D01*
X294561D01*
Y210089D01*
X294533D01*
Y210146D01*
X294504D01*
Y210175D01*
X294475D01*
Y210203D01*
X294447D01*
Y210232D01*
X294418D01*
Y210289D01*
X294361D01*
Y210318D01*
X294332D01*
Y210347D01*
X294303D01*
Y210375D01*
X294275D01*
Y210404D01*
X294217D01*
Y210433D01*
X294189D01*
Y210462D01*
X294131D01*
Y210490D01*
X294074D01*
Y210519D01*
X294017D01*
Y210547D01*
X293931D01*
Y210576D01*
X293845D01*
Y210605D01*
X293644D01*
Y210633D01*
X293272D01*
Y210605D01*
X293014D01*
Y210576D01*
X292928D01*
Y210547D01*
X292842D01*
Y210519D01*
X292756D01*
Y210490D01*
X292698D01*
Y210462D01*
X292641D01*
Y210433D01*
X292612D01*
Y210404D01*
X292584D01*
Y210375D01*
X292526D01*
Y210347D01*
X292498D01*
Y210318D01*
X292469D01*
Y210289D01*
X292440D01*
Y210261D01*
X292412D01*
Y210232D01*
X292383D01*
Y210175D01*
X292355D01*
Y210146D01*
X292326D01*
Y210089D01*
X292297D01*
Y210032D01*
X292269D01*
Y209974D01*
X292240D01*
Y209917D01*
X292211D01*
Y209831D01*
X292183D01*
Y209745D01*
X292154D01*
Y209602D01*
X292125D01*
Y209516D01*
X292097D01*
Y209487D01*
X291008D01*
Y209516D01*
X290979D01*
Y209544D01*
X291008D01*
Y209716D01*
X291036D01*
Y209802D01*
X291065D01*
Y209917D01*
X291094D01*
Y210003D01*
X291122D01*
Y210089D01*
X291151D01*
Y210146D01*
X291180D01*
Y210203D01*
X291208D01*
Y210261D01*
X291237D01*
Y210318D01*
X291266D01*
Y210375D01*
X291294D01*
Y210404D01*
X291323D01*
Y210462D01*
X291352D01*
Y210490D01*
X291380D01*
Y210547D01*
X291409D01*
Y210576D01*
X291437D01*
Y210605D01*
X291466D01*
Y210662D01*
X291523D01*
Y210691D01*
X291552D01*
Y210748D01*
X291609D01*
Y210805D01*
X291638D01*
Y210834D01*
X291695D01*
Y210863D01*
X291724D01*
Y210891D01*
X291753D01*
Y210920D01*
X291810D01*
Y210949D01*
X291839D01*
Y210977D01*
X291867D01*
Y211006D01*
X291925D01*
Y211035D01*
X291953D01*
Y211063D01*
X292011D01*
Y211092D01*
X292068D01*
Y211121D01*
X292125D01*
Y211149D01*
X292183D01*
Y211178D01*
X292240D01*
Y211206D01*
X292326D01*
Y211235D01*
X292412D01*
Y211264D01*
X292498D01*
Y211292D01*
X292612D01*
Y211321D01*
X292727D01*
Y211350D01*
X292870D01*
Y211378D01*
X293100D01*
Y211407D01*
X293873D01*
Y211378D01*
D02*
G37*
G36*
X280607D02*
X280837D01*
Y211350D01*
X280951D01*
Y211321D01*
X281066D01*
Y211292D01*
X281152D01*
Y211264D01*
X281209D01*
Y211235D01*
X281267D01*
Y211206D01*
X281324D01*
Y211178D01*
X281381D01*
Y211149D01*
X281410D01*
Y211121D01*
X281467D01*
Y211092D01*
X281496D01*
Y211063D01*
X281525D01*
Y211035D01*
X281553D01*
Y210977D01*
X281582D01*
Y210949D01*
X281611D01*
Y210891D01*
X281639D01*
Y210863D01*
X281668D01*
Y210805D01*
X281696D01*
Y210719D01*
X281725D01*
Y210633D01*
X281754D01*
Y210462D01*
X281782D01*
Y206421D01*
X281811D01*
Y206392D01*
X282757D01*
Y205647D01*
X281811D01*
Y205618D01*
X281782D01*
Y204443D01*
X281725D01*
Y204415D01*
X281639D01*
Y204386D01*
X281553D01*
Y204357D01*
X281467D01*
Y204329D01*
X281353D01*
Y204300D01*
X281267D01*
Y204272D01*
X281181D01*
Y204243D01*
X281095D01*
Y204214D01*
X281009D01*
Y204186D01*
X280894D01*
Y204157D01*
X280808D01*
Y204128D01*
X280722D01*
Y204186D01*
Y204214D01*
Y205618D01*
X280693D01*
Y205647D01*
X279404D01*
Y206364D01*
X279433D01*
Y206392D01*
X280722D01*
Y210089D01*
X280693D01*
Y210232D01*
X280665D01*
Y210289D01*
X280636D01*
Y210318D01*
X280607D01*
Y210375D01*
X280579D01*
Y210404D01*
X280550D01*
Y210433D01*
X280493D01*
Y210462D01*
X280464D01*
Y210490D01*
X280407D01*
Y210519D01*
X280350D01*
Y210547D01*
X280235D01*
Y210576D01*
X280063D01*
Y210605D01*
X279977D01*
Y210576D01*
X279690D01*
Y210547D01*
X279547D01*
Y210519D01*
X279461D01*
Y211350D01*
X279576D01*
Y211378D01*
X279805D01*
Y211407D01*
X280607D01*
Y211378D01*
D02*
G37*
G36*
X286336Y210805D02*
Y210777D01*
Y206392D01*
X287397D01*
Y205647D01*
X286365D01*
Y205618D01*
X286336D01*
Y204501D01*
X286308D01*
Y204272D01*
X286279D01*
Y204128D01*
X286250D01*
Y204014D01*
X286222D01*
Y203956D01*
X286193D01*
Y203870D01*
X286165D01*
Y203813D01*
X286136D01*
Y203784D01*
X286107D01*
Y203727D01*
X286079D01*
Y203670D01*
X286050D01*
Y203641D01*
X286021D01*
Y203584D01*
X285993D01*
Y203555D01*
X285964D01*
Y203526D01*
X285935D01*
Y203498D01*
X285907D01*
Y203469D01*
X285878D01*
Y203440D01*
X285849D01*
Y203412D01*
X285792D01*
Y203383D01*
X285763D01*
Y203354D01*
X285735D01*
Y203326D01*
X285677D01*
Y203297D01*
X285649D01*
Y203269D01*
X285591D01*
Y203240D01*
X285534D01*
Y203211D01*
X285477D01*
Y203183D01*
X285391D01*
Y203154D01*
X285333D01*
Y203125D01*
X285247D01*
Y203097D01*
X285133D01*
Y203068D01*
X285018D01*
Y203039D01*
X284158D01*
Y203068D01*
X284044D01*
Y203097D01*
X283901D01*
Y203125D01*
X283815D01*
Y203154D01*
X283786D01*
Y203985D01*
X283815D01*
Y204014D01*
X284130D01*
Y203985D01*
X284560D01*
Y204014D01*
X284760D01*
Y204042D01*
X284875D01*
Y204071D01*
X284932D01*
Y204100D01*
X284990D01*
Y204128D01*
X285047D01*
Y204157D01*
X285076D01*
Y204186D01*
X285104D01*
Y204243D01*
X285133D01*
Y204272D01*
X285162D01*
Y204329D01*
X285190D01*
Y204415D01*
X285219D01*
Y204529D01*
X285247D01*
Y205618D01*
X285219D01*
Y205647D01*
X283958D01*
Y206392D01*
X285247D01*
Y211235D01*
X286336D01*
Y210805D01*
D02*
G37*
G36*
X303617Y203183D02*
X300579D01*
Y203211D01*
X300178D01*
Y203240D01*
X300006D01*
Y203269D01*
X299805D01*
Y203297D01*
X299719D01*
Y203326D01*
X299605D01*
Y203354D01*
X299461D01*
Y203383D01*
X299404D01*
Y203412D01*
X299318D01*
Y203440D01*
X299232D01*
Y203469D01*
X299175D01*
Y203498D01*
X299089D01*
Y203526D01*
X299032D01*
Y203555D01*
X298974D01*
Y203584D01*
X298888D01*
Y203612D01*
X298860D01*
Y203641D01*
X298802D01*
Y203670D01*
X298745D01*
Y203698D01*
X298688D01*
Y203727D01*
X298630D01*
Y203756D01*
X298602D01*
Y203784D01*
X298573D01*
Y203813D01*
X298516D01*
Y203842D01*
X298487D01*
Y203870D01*
X298430D01*
Y203899D01*
X298401D01*
Y203928D01*
X298372D01*
Y203956D01*
X298344D01*
Y203985D01*
X298287D01*
Y204014D01*
X298258D01*
Y204042D01*
X298229D01*
Y204071D01*
X298201D01*
Y204100D01*
X298172D01*
Y204128D01*
X298143D01*
Y204157D01*
X298115D01*
Y204186D01*
X298086D01*
Y204214D01*
X298057D01*
Y204243D01*
X298029D01*
Y204272D01*
X298000D01*
Y204300D01*
X297971D01*
Y204329D01*
X297943D01*
Y204386D01*
X297914D01*
Y204415D01*
X297885D01*
Y204443D01*
X297857D01*
Y204472D01*
X297828D01*
Y204501D01*
X297799D01*
Y204558D01*
X297771D01*
Y204587D01*
X297742D01*
Y204644D01*
X297713D01*
Y204673D01*
X297685D01*
Y204730D01*
X297656D01*
Y204787D01*
X297627D01*
Y204816D01*
X297599D01*
Y204873D01*
X297570D01*
Y204931D01*
X297542D01*
Y204988D01*
X297513D01*
Y205045D01*
X297484D01*
Y205103D01*
X297456D01*
Y205131D01*
X297427D01*
Y205217D01*
X297398D01*
Y205303D01*
X297369D01*
Y205361D01*
X297341D01*
Y205446D01*
X297312D01*
Y205504D01*
X297284D01*
Y205590D01*
X297255D01*
Y205618D01*
Y205647D01*
Y205704D01*
X297226D01*
Y205790D01*
X297198D01*
Y205905D01*
X297169D01*
Y206020D01*
X297140D01*
Y206134D01*
X297112D01*
Y206306D01*
X297083D01*
Y206478D01*
X297054D01*
Y206736D01*
X297026D01*
Y206765D01*
X297054D01*
Y206822D01*
X297026D01*
Y207596D01*
X297054D01*
Y207653D01*
X297026D01*
Y207710D01*
X297054D01*
Y207940D01*
X297083D01*
Y208112D01*
X297112D01*
Y208312D01*
X297140D01*
Y208398D01*
X297169D01*
Y208541D01*
X297198D01*
Y208656D01*
X297226D01*
Y208742D01*
X297255D01*
Y208828D01*
X297284D01*
Y208914D01*
X297312D01*
Y209000D01*
X297341D01*
Y209086D01*
X297369D01*
Y209143D01*
X297398D01*
Y209200D01*
X297427D01*
Y209286D01*
X297456D01*
Y209344D01*
X297484D01*
Y209401D01*
X297513D01*
Y209459D01*
X297542D01*
Y209516D01*
X297570D01*
Y209573D01*
X297599D01*
Y209602D01*
X297627D01*
Y209659D01*
X297656D01*
Y209716D01*
X297685D01*
Y209745D01*
X297713D01*
Y209802D01*
X297742D01*
Y209831D01*
X297771D01*
Y209888D01*
X297799D01*
Y209917D01*
X297828D01*
Y209946D01*
X297857D01*
Y210003D01*
X297885D01*
Y210032D01*
X297914D01*
Y210060D01*
X297943D01*
Y210089D01*
X297971D01*
Y210118D01*
X298000D01*
Y210146D01*
X298029D01*
Y210203D01*
X298057D01*
Y210232D01*
X298086D01*
Y210261D01*
X298115D01*
Y210289D01*
X298143D01*
Y210318D01*
X298172D01*
Y210347D01*
X298201D01*
Y210375D01*
X298258D01*
Y210404D01*
X298287D01*
Y210433D01*
X298315D01*
Y210462D01*
X298344D01*
Y210490D01*
X298372D01*
Y210519D01*
X298430D01*
Y210547D01*
X298458D01*
Y210576D01*
X298487D01*
Y210605D01*
X298545D01*
Y210633D01*
X298573D01*
Y210662D01*
X298630D01*
Y210691D01*
X298688D01*
Y210719D01*
X298716D01*
Y210748D01*
X298774D01*
Y210777D01*
X298831D01*
Y210805D01*
X298860D01*
Y210834D01*
X298917D01*
Y210863D01*
X298974D01*
Y210891D01*
X299060D01*
Y210920D01*
X299118D01*
Y210949D01*
X299175D01*
Y210977D01*
X299261D01*
Y211006D01*
X299347D01*
Y211035D01*
X299433D01*
Y211063D01*
X299519D01*
Y211092D01*
X299633D01*
Y211121D01*
X299748D01*
Y211149D01*
X299920D01*
Y211178D01*
X300035D01*
Y211206D01*
X300350D01*
Y211235D01*
X303617D01*
Y203183D01*
D02*
G37*
G36*
X289632Y203641D02*
Y203612D01*
Y203183D01*
X288572D01*
Y211235D01*
X289632D01*
Y203641D01*
D02*
G37*
G36*
X328555Y206005D02*
Y205957D01*
Y200640D01*
X328603D01*
Y200592D01*
X332722D01*
Y200544D01*
X332770D01*
Y200448D01*
X332722D01*
Y198101D01*
X332770D01*
Y198053D01*
X332722D01*
Y197958D01*
X320652D01*
Y200592D01*
X324771D01*
Y200640D01*
X324819D01*
Y211417D01*
X328555D01*
Y206005D01*
D02*
G37*
G36*
X324867Y196221D02*
X324819D01*
Y196173D01*
X324723D01*
Y196125D01*
X324628D01*
Y196077D01*
X324484D01*
Y196029D01*
X324436D01*
Y195981D01*
X324292D01*
Y195933D01*
X324197D01*
Y195886D01*
X324101D01*
Y195838D01*
X324053D01*
Y195790D01*
X323957D01*
Y195742D01*
X323909D01*
Y195694D01*
X323861D01*
Y195646D01*
X323813D01*
Y195598D01*
X323717D01*
Y195550D01*
X323670D01*
Y195502D01*
X323622D01*
Y195455D01*
X323574D01*
Y195407D01*
X323526D01*
Y195359D01*
X323478D01*
Y195311D01*
X323430D01*
Y195263D01*
X323382D01*
Y195215D01*
X323334D01*
Y195167D01*
X323287D01*
Y195119D01*
X323238D01*
Y195071D01*
X323191D01*
Y194975D01*
X323143D01*
Y194928D01*
X323095D01*
Y194880D01*
X323047D01*
Y194784D01*
X322999D01*
Y194736D01*
X322951D01*
Y194640D01*
X322903D01*
Y194592D01*
X322855D01*
Y194496D01*
X322808D01*
Y194401D01*
X322760D01*
Y194305D01*
X322712D01*
Y194209D01*
X322664D01*
Y194113D01*
X322616D01*
Y194018D01*
X322568D01*
Y193874D01*
X322520D01*
Y193730D01*
X322472D01*
Y193634D01*
X322424D01*
Y193443D01*
X322376D01*
Y193299D01*
X322328D01*
Y193107D01*
X322281D01*
Y192820D01*
X322233D01*
Y192628D01*
X322185D01*
Y192341D01*
X322137D01*
Y191862D01*
X322185D01*
Y191814D01*
X322233D01*
Y191862D01*
X322281D01*
Y191910D01*
X322328D01*
Y192006D01*
X322376D01*
Y192054D01*
X322424D01*
Y192150D01*
X322472D01*
Y192245D01*
X322520D01*
Y192293D01*
X322568D01*
Y192389D01*
X322616D01*
Y192437D01*
X322664D01*
Y192485D01*
X322712D01*
Y192533D01*
X322760D01*
Y192581D01*
X322808D01*
Y192628D01*
X322855D01*
Y192676D01*
X322903D01*
Y192724D01*
X322951D01*
Y192772D01*
X322999D01*
Y192820D01*
X323047D01*
Y192868D01*
X323095D01*
Y192916D01*
X323191D01*
Y192964D01*
X323238D01*
Y193012D01*
X323287D01*
Y193060D01*
X323382D01*
Y193107D01*
X323430D01*
Y193155D01*
X323526D01*
Y193203D01*
X323622D01*
Y193251D01*
X323717D01*
Y193299D01*
X323861D01*
Y193347D01*
X324053D01*
Y193395D01*
X324580D01*
Y193347D01*
X324675D01*
Y193299D01*
X324771D01*
Y193251D01*
X324867D01*
Y193203D01*
X324915D01*
Y193155D01*
X324963D01*
Y193107D01*
X325011D01*
Y193060D01*
X325059D01*
Y193012D01*
X325107D01*
Y192916D01*
X325154D01*
Y192868D01*
X325202D01*
Y192724D01*
X325250D01*
Y192581D01*
X325298D01*
Y192054D01*
X325250D01*
Y191862D01*
X325202D01*
Y191718D01*
X325154D01*
Y191670D01*
X325107D01*
Y191527D01*
X325059D01*
Y191479D01*
X325011D01*
Y191383D01*
X324963D01*
Y191287D01*
X324915D01*
Y191239D01*
X324867D01*
Y191144D01*
X324819D01*
Y191096D01*
X324771D01*
Y191048D01*
X324723D01*
Y190952D01*
X324675D01*
Y190904D01*
X324628D01*
Y190808D01*
X324580D01*
Y190760D01*
X324532D01*
Y190665D01*
X324484D01*
Y190617D01*
X324436D01*
Y190521D01*
X324388D01*
Y190473D01*
X324340D01*
Y190377D01*
X324292D01*
Y190329D01*
X324244D01*
Y190234D01*
X324197D01*
Y190138D01*
X324149D01*
Y190090D01*
X324101D01*
Y189994D01*
X324053D01*
Y189898D01*
X324005D01*
Y189802D01*
X323957D01*
Y189659D01*
X323909D01*
Y189563D01*
X323861D01*
Y189419D01*
X323813D01*
Y189228D01*
X323765D01*
Y189036D01*
X323717D01*
Y188845D01*
X323765D01*
Y188797D01*
X323813D01*
Y188845D01*
X323861D01*
Y188892D01*
X323909D01*
Y188940D01*
X323957D01*
Y188988D01*
X324005D01*
Y189084D01*
X324053D01*
Y189132D01*
X324101D01*
Y189228D01*
X324149D01*
Y189276D01*
X324197D01*
Y189371D01*
X324244D01*
Y189419D01*
X324292D01*
Y189515D01*
X324340D01*
Y189563D01*
X324388D01*
Y189611D01*
X324436D01*
Y189659D01*
X324484D01*
Y189755D01*
X324532D01*
Y189802D01*
X324580D01*
Y189850D01*
X324628D01*
Y189898D01*
X324675D01*
Y189946D01*
X324723D01*
Y189994D01*
X324771D01*
Y190042D01*
X324819D01*
Y190090D01*
X324867D01*
Y190138D01*
X324963D01*
Y190186D01*
X325011D01*
Y190234D01*
X325059D01*
Y190282D01*
X325107D01*
Y190329D01*
X325154D01*
Y190377D01*
X325202D01*
Y190425D01*
X325298D01*
Y190473D01*
X325346D01*
Y190521D01*
X325394D01*
Y190569D01*
X325442D01*
Y190617D01*
X325538D01*
Y190665D01*
X325586D01*
Y190713D01*
X325634D01*
Y190760D01*
X325729D01*
Y190808D01*
X325777D01*
Y190856D01*
X325825D01*
Y190904D01*
X325921D01*
Y190952D01*
X325969D01*
Y191000D01*
X326017D01*
Y191048D01*
X326113D01*
Y191096D01*
X326160D01*
Y191144D01*
X326208D01*
Y191192D01*
X326304D01*
Y191239D01*
X326352D01*
Y191287D01*
X326400D01*
Y191335D01*
X326496D01*
Y191383D01*
X326544D01*
Y191431D01*
X326591D01*
Y191479D01*
X326639D01*
Y191527D01*
X326735D01*
Y191575D01*
X326783D01*
Y191623D01*
X326831D01*
Y191670D01*
X326879D01*
Y191718D01*
X326927D01*
Y191766D01*
X327023D01*
Y191814D01*
X327070D01*
Y191862D01*
X327118D01*
Y191910D01*
X327166D01*
Y191958D01*
X327214D01*
Y192006D01*
X327262D01*
Y192054D01*
X327310D01*
Y192102D01*
X327358D01*
Y192150D01*
X327406D01*
Y192197D01*
X327454D01*
Y192245D01*
X327501D01*
Y192293D01*
X327549D01*
Y192341D01*
X327597D01*
Y192389D01*
X327645D01*
Y192437D01*
X327693D01*
Y192533D01*
X327741D01*
Y192581D01*
X327789D01*
Y192628D01*
X327837D01*
Y192676D01*
X327885D01*
Y192772D01*
X327933D01*
Y192820D01*
X327980D01*
Y192916D01*
X328028D01*
Y193012D01*
X328076D01*
Y193060D01*
X328124D01*
Y193155D01*
X328172D01*
Y193299D01*
X328220D01*
Y193395D01*
X328268D01*
Y193491D01*
X328316D01*
Y193682D01*
X328364D01*
Y193826D01*
X328412D01*
Y194113D01*
X328460D01*
Y195311D01*
X328507D01*
Y195502D01*
X328555D01*
Y195550D01*
X328699D01*
Y195502D01*
X328747D01*
Y195407D01*
X328795D01*
Y195215D01*
X328843D01*
Y195023D01*
X328891D01*
Y194880D01*
X328938D01*
Y194544D01*
X328986D01*
Y194353D01*
X329034D01*
Y194065D01*
X329082D01*
Y192485D01*
X329034D01*
Y192197D01*
X328986D01*
Y192006D01*
X328938D01*
Y191766D01*
X328891D01*
Y191623D01*
X328843D01*
Y191527D01*
X328795D01*
Y191335D01*
X328747D01*
Y191287D01*
X328699D01*
Y191144D01*
X328651D01*
Y191000D01*
X328603D01*
Y190952D01*
X328555D01*
Y190808D01*
X328507D01*
Y190760D01*
X328460D01*
Y190665D01*
X328412D01*
Y190569D01*
X328364D01*
Y190521D01*
X328316D01*
Y190425D01*
X328268D01*
Y190329D01*
X328220D01*
Y190282D01*
X328172D01*
Y190186D01*
X328124D01*
Y190138D01*
X328076D01*
Y190090D01*
X328028D01*
Y189994D01*
X327980D01*
Y189946D01*
X327933D01*
Y189898D01*
X327885D01*
Y189850D01*
X327837D01*
Y189802D01*
X327789D01*
Y189707D01*
X327741D01*
Y189659D01*
X327693D01*
Y189611D01*
X327645D01*
Y189563D01*
X327597D01*
Y189515D01*
X327549D01*
Y189467D01*
X327501D01*
Y189419D01*
X327454D01*
Y189371D01*
X327406D01*
Y189324D01*
X327358D01*
Y189276D01*
X327310D01*
Y189228D01*
X327262D01*
Y189180D01*
X327214D01*
Y189132D01*
X327166D01*
Y189084D01*
X327118D01*
Y189036D01*
X327070D01*
Y188988D01*
X327023D01*
Y188940D01*
X326927D01*
Y188892D01*
X326879D01*
Y188845D01*
X326831D01*
Y188797D01*
X326783D01*
Y188749D01*
X326735D01*
Y188701D01*
X326639D01*
Y188653D01*
X326591D01*
Y188605D01*
X326544D01*
Y188557D01*
X326448D01*
Y188509D01*
X326400D01*
Y188461D01*
X326352D01*
Y188413D01*
X326256D01*
Y188365D01*
X326208D01*
Y188318D01*
X326113D01*
Y188270D01*
X326064D01*
Y188222D01*
X326017D01*
Y188174D01*
X325921D01*
Y188126D01*
X325825D01*
Y188078D01*
X325777D01*
Y188030D01*
X325681D01*
Y187982D01*
X325634D01*
Y187934D01*
X325538D01*
Y187887D01*
X325442D01*
Y187839D01*
X325346D01*
Y187791D01*
X325250D01*
Y187743D01*
X325202D01*
Y187695D01*
X325107D01*
Y187647D01*
X325011D01*
Y187599D01*
X324915D01*
Y187551D01*
X324819D01*
Y187503D01*
X324723D01*
Y187456D01*
X324628D01*
Y187408D01*
X324532D01*
Y187360D01*
X324436D01*
Y187312D01*
X324340D01*
Y187264D01*
X324197D01*
Y187216D01*
X324149D01*
Y187168D01*
X324005D01*
Y187120D01*
X323909D01*
Y187072D01*
X323813D01*
Y187024D01*
X323670D01*
Y186977D01*
X323574D01*
Y186929D01*
X323430D01*
Y186881D01*
X323287D01*
Y186833D01*
X323191D01*
Y186785D01*
X322999D01*
Y186737D01*
X322855D01*
Y186689D01*
X322712D01*
Y186641D01*
X322520D01*
Y186593D01*
X322376D01*
Y186545D01*
X322233D01*
Y186497D01*
X321993D01*
Y186450D01*
X321850D01*
Y186402D01*
X321658D01*
Y186354D01*
X321466D01*
Y186306D01*
X321323D01*
Y186258D01*
X321083D01*
Y186210D01*
X320891D01*
Y186162D01*
X320748D01*
Y186114D01*
X320508D01*
Y186066D01*
X320365D01*
Y186019D01*
X320173D01*
Y185971D01*
X320029D01*
Y185923D01*
X319886D01*
Y185875D01*
X319694D01*
Y185827D01*
X319550D01*
Y185779D01*
X319407D01*
Y185731D01*
X319263D01*
Y185683D01*
X319167D01*
Y185635D01*
X318976D01*
Y185587D01*
X318880D01*
Y185539D01*
X318784D01*
Y185492D01*
X318640D01*
Y185444D01*
X318545D01*
Y185396D01*
X318449D01*
Y185348D01*
X318305D01*
Y185300D01*
X318257D01*
Y185252D01*
X318113D01*
Y185204D01*
X318018D01*
Y185156D01*
X317970D01*
Y185108D01*
X317874D01*
Y185061D01*
X317778D01*
Y185013D01*
X317730D01*
Y184965D01*
X317634D01*
Y184917D01*
X317586D01*
Y184869D01*
X317491D01*
Y184821D01*
X317443D01*
Y184773D01*
X317347D01*
Y184725D01*
X317299D01*
Y184677D01*
X317251D01*
Y184629D01*
X317203D01*
Y184582D01*
X317108D01*
Y184534D01*
X317060D01*
Y184486D01*
X317012D01*
Y184438D01*
X316964D01*
Y184390D01*
X316916D01*
Y184342D01*
X316868D01*
Y184294D01*
X316820D01*
Y184246D01*
X316772D01*
Y184198D01*
X316724D01*
Y184151D01*
X316677D01*
Y184007D01*
X316629D01*
Y183911D01*
X316581D01*
Y183815D01*
X316389D01*
Y183863D01*
X316341D01*
Y184198D01*
X316389D01*
Y184390D01*
X316437D01*
Y184582D01*
X316485D01*
Y184629D01*
X316533D01*
Y184773D01*
X316581D01*
Y184821D01*
X316629D01*
Y184869D01*
X316677D01*
Y184965D01*
X316724D01*
Y185013D01*
X316772D01*
Y185108D01*
X316820D01*
Y185156D01*
X316868D01*
Y185204D01*
X316916D01*
Y185252D01*
X316964D01*
Y185300D01*
X317012D01*
Y185348D01*
X317060D01*
Y185396D01*
X317108D01*
Y185444D01*
X317155D01*
Y185492D01*
X317203D01*
Y185539D01*
X317251D01*
Y185587D01*
X317347D01*
Y185635D01*
X317395D01*
Y185683D01*
X317443D01*
Y185731D01*
X317491D01*
Y185779D01*
X317586D01*
Y185827D01*
X317634D01*
Y185875D01*
X317682D01*
Y185923D01*
X317730D01*
Y185971D01*
X317826D01*
Y186019D01*
X317874D01*
Y186066D01*
X317922D01*
Y186114D01*
X318018D01*
Y186162D01*
X318065D01*
Y186210D01*
X318113D01*
Y186258D01*
X318209D01*
Y186306D01*
X318257D01*
Y186354D01*
X318353D01*
Y186402D01*
X318401D01*
Y186450D01*
X318449D01*
Y186497D01*
X318545D01*
Y186545D01*
X318592D01*
Y186593D01*
X318688D01*
Y186641D01*
X318736D01*
Y186689D01*
X318832D01*
Y186737D01*
X318880D01*
Y186785D01*
X318976D01*
Y186833D01*
X319023D01*
Y186881D01*
X319071D01*
Y186929D01*
X319167D01*
Y186977D01*
X319215D01*
Y187024D01*
X319311D01*
Y187072D01*
X319359D01*
Y187120D01*
X319407D01*
Y187168D01*
X319503D01*
Y187216D01*
X319550D01*
Y187264D01*
X319646D01*
Y187312D01*
X319694D01*
Y187360D01*
X319742D01*
Y187408D01*
X319838D01*
Y187456D01*
X319886D01*
Y187503D01*
X319933D01*
Y187551D01*
X320029D01*
Y187599D01*
X320077D01*
Y187647D01*
X320125D01*
Y187695D01*
X320173D01*
Y187743D01*
X320221D01*
Y187791D01*
X320317D01*
Y187839D01*
X320365D01*
Y187887D01*
X320412D01*
Y187934D01*
X320460D01*
Y187982D01*
X320508D01*
Y188030D01*
X320556D01*
Y188078D01*
X320604D01*
Y188126D01*
X320652D01*
Y188174D01*
X320700D01*
Y188222D01*
X320748D01*
Y188270D01*
X320796D01*
Y188318D01*
X320844D01*
Y188365D01*
X320891D01*
Y188413D01*
X320939D01*
Y188461D01*
X320987D01*
Y188557D01*
X321035D01*
Y188605D01*
X321083D01*
Y188653D01*
X321131D01*
Y188749D01*
X321179D01*
Y188845D01*
X321227D01*
Y188892D01*
X321275D01*
Y189036D01*
X321323D01*
Y189132D01*
X321371D01*
Y189324D01*
X321418D01*
Y189898D01*
X321371D01*
Y190090D01*
X321323D01*
Y190186D01*
X321275D01*
Y190282D01*
X321227D01*
Y190329D01*
X321179D01*
Y190425D01*
X321131D01*
Y190473D01*
X321083D01*
Y190521D01*
X321035D01*
Y190569D01*
X320987D01*
Y190617D01*
X320891D01*
Y190665D01*
X320796D01*
Y190713D01*
X320700D01*
Y190760D01*
X320460D01*
Y190808D01*
X320029D01*
Y190760D01*
X319742D01*
Y190713D01*
X319550D01*
Y190665D01*
X319455D01*
Y190617D01*
X319311D01*
Y190569D01*
X319215D01*
Y190521D01*
X319119D01*
Y190473D01*
X319023D01*
Y190425D01*
X318976D01*
Y190377D01*
X318880D01*
Y190329D01*
X318832D01*
Y190282D01*
X318736D01*
Y190234D01*
X318688D01*
Y190186D01*
X318592D01*
Y190138D01*
X318545D01*
Y190090D01*
X318497D01*
Y190042D01*
X318401D01*
Y189994D01*
X318353D01*
Y189946D01*
X318305D01*
Y189898D01*
X318257D01*
Y189850D01*
X318209D01*
Y189802D01*
X318161D01*
Y189755D01*
X318113D01*
Y189707D01*
X318018D01*
Y189659D01*
X317922D01*
Y189707D01*
X317874D01*
Y189755D01*
X317826D01*
Y189946D01*
X317874D01*
Y190042D01*
X317922D01*
Y190186D01*
X317970D01*
Y190377D01*
X318018D01*
Y190473D01*
X318065D01*
Y190665D01*
X318113D01*
Y190760D01*
X318161D01*
Y190856D01*
X318209D01*
Y191000D01*
X318257D01*
Y191096D01*
X318305D01*
Y191192D01*
X318353D01*
Y191335D01*
X318401D01*
Y191383D01*
X318449D01*
Y191527D01*
X318497D01*
Y191623D01*
X318545D01*
Y191670D01*
X318592D01*
Y191814D01*
X318640D01*
Y191862D01*
X318688D01*
Y191958D01*
X318736D01*
Y192054D01*
X318784D01*
Y192102D01*
X318832D01*
Y192197D01*
X318880D01*
Y192293D01*
X318928D01*
Y192389D01*
X318976D01*
Y192437D01*
X319023D01*
Y192533D01*
X319071D01*
Y192581D01*
X319119D01*
Y192676D01*
X319167D01*
Y192772D01*
X319215D01*
Y192820D01*
X319263D01*
Y192916D01*
X319311D01*
Y192964D01*
X319359D01*
Y193060D01*
X319407D01*
Y193107D01*
X319455D01*
Y193155D01*
X319503D01*
Y193251D01*
X319550D01*
Y193299D01*
X319598D01*
Y193347D01*
X319646D01*
Y193443D01*
X319694D01*
Y193491D01*
X319742D01*
Y193539D01*
X319790D01*
Y193587D01*
X319838D01*
Y193634D01*
X319886D01*
Y193730D01*
X319933D01*
Y193778D01*
X319981D01*
Y193826D01*
X320029D01*
Y193874D01*
X320077D01*
Y193922D01*
X320125D01*
Y194018D01*
X320173D01*
Y194065D01*
X320221D01*
Y194113D01*
X320269D01*
Y194161D01*
X320317D01*
Y194209D01*
X320365D01*
Y194257D01*
X320412D01*
Y194305D01*
X320460D01*
Y194353D01*
X320508D01*
Y194401D01*
X320556D01*
Y194449D01*
X320604D01*
Y194496D01*
X320652D01*
Y194544D01*
X320700D01*
Y194592D01*
X320748D01*
Y194640D01*
X320796D01*
Y194688D01*
X320844D01*
Y194736D01*
X320891D01*
Y194784D01*
X320939D01*
Y194832D01*
X321035D01*
Y194880D01*
X321083D01*
Y194928D01*
X321131D01*
Y194975D01*
X321179D01*
Y195023D01*
X321227D01*
Y195071D01*
X321323D01*
Y195119D01*
X321371D01*
Y195167D01*
X321418D01*
Y195215D01*
X321514D01*
Y195263D01*
X321562D01*
Y195311D01*
X321610D01*
Y195359D01*
X321706D01*
Y195407D01*
X321754D01*
Y195455D01*
X321850D01*
Y195502D01*
X321897D01*
Y195550D01*
X321993D01*
Y195598D01*
X322041D01*
Y195646D01*
X322137D01*
Y195694D01*
X322233D01*
Y195742D01*
X322281D01*
Y195790D01*
X322376D01*
Y195838D01*
X322472D01*
Y195886D01*
X322568D01*
Y195933D01*
X322664D01*
Y195981D01*
X322808D01*
Y196029D01*
X322855D01*
Y196077D01*
X322999D01*
Y196125D01*
X323143D01*
Y196173D01*
X323287D01*
Y196221D01*
X323478D01*
Y196269D01*
X323622D01*
Y196317D01*
X323861D01*
Y196365D01*
X324244D01*
Y196413D01*
X324867D01*
Y196221D01*
D02*
G37*
G36*
X393611Y156137D02*
X393659D01*
Y155802D01*
X393611D01*
Y155610D01*
X393563D01*
Y155419D01*
X393515D01*
Y155371D01*
X393467D01*
Y155227D01*
X393419D01*
Y155179D01*
X393372D01*
Y155131D01*
X393324D01*
Y155035D01*
X393276D01*
Y154987D01*
X393228D01*
Y154892D01*
X393180D01*
Y154844D01*
X393132D01*
Y154796D01*
X393084D01*
Y154748D01*
X393036D01*
Y154700D01*
X392988D01*
Y154652D01*
X392940D01*
Y154604D01*
X392892D01*
Y154556D01*
X392845D01*
Y154508D01*
X392797D01*
Y154460D01*
X392749D01*
Y154413D01*
X392653D01*
Y154365D01*
X392605D01*
Y154317D01*
X392557D01*
Y154269D01*
X392509D01*
Y154221D01*
X392413D01*
Y154173D01*
X392366D01*
Y154125D01*
X392318D01*
Y154077D01*
X392270D01*
Y154029D01*
X392174D01*
Y153982D01*
X392126D01*
Y153934D01*
X392078D01*
Y153886D01*
X391982D01*
Y153838D01*
X391935D01*
Y153790D01*
X391887D01*
Y153742D01*
X391791D01*
Y153694D01*
X391743D01*
Y153646D01*
X391647D01*
Y153598D01*
X391599D01*
Y153550D01*
X391551D01*
Y153503D01*
X391455D01*
Y153455D01*
X391408D01*
Y153407D01*
X391312D01*
Y153359D01*
X391264D01*
Y153311D01*
X391168D01*
Y153263D01*
X391120D01*
Y153215D01*
X391024D01*
Y153167D01*
X390976D01*
Y153119D01*
X390929D01*
Y153071D01*
X390833D01*
Y153024D01*
X390785D01*
Y152976D01*
X390689D01*
Y152928D01*
X390641D01*
Y152880D01*
X390593D01*
Y152832D01*
X390498D01*
Y152784D01*
X390450D01*
Y152736D01*
X390354D01*
Y152688D01*
X390306D01*
Y152640D01*
X390258D01*
Y152592D01*
X390162D01*
Y152545D01*
X390114D01*
Y152497D01*
X390066D01*
Y152449D01*
X389971D01*
Y152401D01*
X389923D01*
Y152353D01*
X389875D01*
Y152305D01*
X389827D01*
Y152257D01*
X389779D01*
Y152209D01*
X389683D01*
Y152161D01*
X389635D01*
Y152114D01*
X389588D01*
Y152066D01*
X389540D01*
Y152018D01*
X389492D01*
Y151970D01*
X389444D01*
Y151922D01*
X389396D01*
Y151874D01*
X389348D01*
Y151826D01*
X389300D01*
Y151778D01*
X389252D01*
Y151730D01*
X389204D01*
Y151682D01*
X389156D01*
Y151635D01*
X389109D01*
Y151587D01*
X389061D01*
Y151539D01*
X389013D01*
Y151443D01*
X388965D01*
Y151395D01*
X388917D01*
Y151347D01*
X388869D01*
Y151251D01*
X388821D01*
Y151156D01*
X388773D01*
Y151108D01*
X388725D01*
Y150964D01*
X388677D01*
Y150868D01*
X388629D01*
Y150676D01*
X388582D01*
Y150102D01*
X388629D01*
Y149910D01*
X388677D01*
Y149814D01*
X388725D01*
Y149719D01*
X388773D01*
Y149671D01*
X388821D01*
Y149575D01*
X388869D01*
Y149527D01*
X388917D01*
Y149479D01*
X388965D01*
Y149431D01*
X389013D01*
Y149383D01*
X389109D01*
Y149335D01*
X389204D01*
Y149288D01*
X389300D01*
Y149240D01*
X389540D01*
Y149192D01*
X389971D01*
Y149240D01*
X390258D01*
Y149288D01*
X390450D01*
Y149335D01*
X390545D01*
Y149383D01*
X390689D01*
Y149431D01*
X390785D01*
Y149479D01*
X390881D01*
Y149527D01*
X390976D01*
Y149575D01*
X391024D01*
Y149623D01*
X391120D01*
Y149671D01*
X391168D01*
Y149719D01*
X391264D01*
Y149766D01*
X391312D01*
Y149814D01*
X391408D01*
Y149862D01*
X391455D01*
Y149910D01*
X391503D01*
Y149958D01*
X391599D01*
Y150006D01*
X391647D01*
Y150054D01*
X391695D01*
Y150102D01*
X391743D01*
Y150150D01*
X391791D01*
Y150197D01*
X391839D01*
Y150245D01*
X391887D01*
Y150293D01*
X391982D01*
Y150341D01*
X392078D01*
Y150293D01*
X392126D01*
Y150245D01*
X392174D01*
Y150054D01*
X392126D01*
Y149958D01*
X392078D01*
Y149814D01*
X392030D01*
Y149623D01*
X391982D01*
Y149527D01*
X391935D01*
Y149335D01*
X391887D01*
Y149240D01*
X391839D01*
Y149144D01*
X391791D01*
Y149000D01*
X391743D01*
Y148904D01*
X391695D01*
Y148808D01*
X391647D01*
Y148665D01*
X391599D01*
Y148617D01*
X391551D01*
Y148473D01*
X391503D01*
Y148377D01*
X391455D01*
Y148329D01*
X391408D01*
Y148186D01*
X391360D01*
Y148138D01*
X391312D01*
Y148042D01*
X391264D01*
Y147946D01*
X391216D01*
Y147898D01*
X391168D01*
Y147803D01*
X391120D01*
Y147707D01*
X391072D01*
Y147611D01*
X391024D01*
Y147563D01*
X390976D01*
Y147467D01*
X390929D01*
Y147419D01*
X390881D01*
Y147324D01*
X390833D01*
Y147228D01*
X390785D01*
Y147180D01*
X390737D01*
Y147084D01*
X390689D01*
Y147036D01*
X390641D01*
Y146940D01*
X390593D01*
Y146892D01*
X390545D01*
Y146845D01*
X390498D01*
Y146749D01*
X390450D01*
Y146701D01*
X390402D01*
Y146653D01*
X390354D01*
Y146557D01*
X390306D01*
Y146509D01*
X390258D01*
Y146461D01*
X390210D01*
Y146414D01*
X390162D01*
Y146366D01*
X390114D01*
Y146270D01*
X390066D01*
Y146222D01*
X390019D01*
Y146174D01*
X389971D01*
Y146126D01*
X389923D01*
Y146078D01*
X389875D01*
Y145983D01*
X389827D01*
Y145935D01*
X389779D01*
Y145887D01*
X389731D01*
Y145839D01*
X389683D01*
Y145791D01*
X389635D01*
Y145743D01*
X389588D01*
Y145695D01*
X389540D01*
Y145647D01*
X389492D01*
Y145599D01*
X389444D01*
Y145551D01*
X389396D01*
Y145504D01*
X389348D01*
Y145456D01*
X389300D01*
Y145408D01*
X389252D01*
Y145360D01*
X389204D01*
Y145312D01*
X389156D01*
Y145264D01*
X389109D01*
Y145216D01*
X389061D01*
Y145168D01*
X388965D01*
Y145120D01*
X388917D01*
Y145072D01*
X388869D01*
Y145024D01*
X388821D01*
Y144977D01*
X388773D01*
Y144929D01*
X388677D01*
Y144881D01*
X388629D01*
Y144833D01*
X388582D01*
Y144785D01*
X388486D01*
Y144737D01*
X388438D01*
Y144689D01*
X388390D01*
Y144641D01*
X388294D01*
Y144593D01*
X388246D01*
Y144545D01*
X388150D01*
Y144498D01*
X388103D01*
Y144450D01*
X388007D01*
Y144402D01*
X387959D01*
Y144354D01*
X387863D01*
Y144306D01*
X387767D01*
Y144258D01*
X387719D01*
Y144210D01*
X387624D01*
Y144162D01*
X387528D01*
Y144114D01*
X387432D01*
Y144066D01*
X387336D01*
Y144019D01*
X387192D01*
Y143971D01*
X387145D01*
Y143923D01*
X387001D01*
Y143875D01*
X386857D01*
Y143827D01*
X386714D01*
Y143779D01*
X386522D01*
Y143731D01*
X386378D01*
Y143683D01*
X386139D01*
Y143635D01*
X385756D01*
Y143588D01*
X385133D01*
Y143779D01*
X385181D01*
Y143827D01*
X385277D01*
Y143875D01*
X385372D01*
Y143923D01*
X385516D01*
Y143971D01*
X385564D01*
Y144019D01*
X385708D01*
Y144066D01*
X385803D01*
Y144114D01*
X385899D01*
Y144162D01*
X385947D01*
Y144210D01*
X386043D01*
Y144258D01*
X386091D01*
Y144306D01*
X386139D01*
Y144354D01*
X386187D01*
Y144402D01*
X386283D01*
Y144450D01*
X386330D01*
Y144498D01*
X386378D01*
Y144545D01*
X386426D01*
Y144593D01*
X386474D01*
Y144641D01*
X386522D01*
Y144689D01*
X386570D01*
Y144737D01*
X386618D01*
Y144785D01*
X386666D01*
Y144833D01*
X386714D01*
Y144881D01*
X386762D01*
Y144929D01*
X386809D01*
Y145024D01*
X386857D01*
Y145072D01*
X386905D01*
Y145120D01*
X386953D01*
Y145216D01*
X387001D01*
Y145264D01*
X387049D01*
Y145360D01*
X387097D01*
Y145408D01*
X387145D01*
Y145504D01*
X387192D01*
Y145599D01*
X387240D01*
Y145695D01*
X387288D01*
Y145791D01*
X387336D01*
Y145887D01*
X387384D01*
Y145983D01*
X387432D01*
Y146126D01*
X387480D01*
Y146270D01*
X387528D01*
Y146366D01*
X387576D01*
Y146557D01*
X387624D01*
Y146701D01*
X387672D01*
Y146892D01*
X387719D01*
Y147180D01*
X387767D01*
Y147372D01*
X387815D01*
Y147659D01*
X387863D01*
Y148138D01*
X387815D01*
Y148186D01*
X387767D01*
Y148138D01*
X387719D01*
Y148090D01*
X387672D01*
Y147994D01*
X387624D01*
Y147946D01*
X387576D01*
Y147851D01*
X387528D01*
Y147755D01*
X387480D01*
Y147707D01*
X387432D01*
Y147611D01*
X387384D01*
Y147563D01*
X387336D01*
Y147515D01*
X387288D01*
Y147467D01*
X387240D01*
Y147419D01*
X387192D01*
Y147372D01*
X387145D01*
Y147324D01*
X387097D01*
Y147276D01*
X387049D01*
Y147228D01*
X387001D01*
Y147180D01*
X386953D01*
Y147132D01*
X386905D01*
Y147084D01*
X386809D01*
Y147036D01*
X386762D01*
Y146988D01*
X386714D01*
Y146940D01*
X386618D01*
Y146892D01*
X386570D01*
Y146845D01*
X386474D01*
Y146797D01*
X386378D01*
Y146749D01*
X386283D01*
Y146701D01*
X386139D01*
Y146653D01*
X385947D01*
Y146605D01*
X385420D01*
Y146653D01*
X385325D01*
Y146701D01*
X385229D01*
Y146749D01*
X385133D01*
Y146797D01*
X385085D01*
Y146845D01*
X385037D01*
Y146892D01*
X384989D01*
Y146940D01*
X384941D01*
Y146988D01*
X384893D01*
Y147084D01*
X384846D01*
Y147132D01*
X384798D01*
Y147276D01*
X384750D01*
Y147419D01*
X384702D01*
Y147946D01*
X384750D01*
Y148138D01*
X384798D01*
Y148282D01*
X384846D01*
Y148329D01*
X384893D01*
Y148473D01*
X384941D01*
Y148521D01*
X384989D01*
Y148617D01*
X385037D01*
Y148713D01*
X385085D01*
Y148761D01*
X385133D01*
Y148856D01*
X385181D01*
Y148904D01*
X385229D01*
Y148952D01*
X385277D01*
Y149048D01*
X385325D01*
Y149096D01*
X385372D01*
Y149192D01*
X385420D01*
Y149240D01*
X385468D01*
Y149335D01*
X385516D01*
Y149383D01*
X385564D01*
Y149479D01*
X385612D01*
Y149527D01*
X385660D01*
Y149623D01*
X385708D01*
Y149671D01*
X385756D01*
Y149766D01*
X385803D01*
Y149862D01*
X385851D01*
Y149910D01*
X385899D01*
Y150006D01*
X385947D01*
Y150102D01*
X385995D01*
Y150197D01*
X386043D01*
Y150341D01*
X386091D01*
Y150437D01*
X386139D01*
Y150581D01*
X386187D01*
Y150772D01*
X386235D01*
Y150964D01*
X386283D01*
Y151156D01*
X386235D01*
Y151203D01*
X386187D01*
Y151156D01*
X386139D01*
Y151108D01*
X386091D01*
Y151060D01*
X386043D01*
Y151012D01*
X385995D01*
Y150916D01*
X385947D01*
Y150868D01*
X385899D01*
Y150772D01*
X385851D01*
Y150724D01*
X385803D01*
Y150629D01*
X385756D01*
Y150581D01*
X385708D01*
Y150485D01*
X385660D01*
Y150437D01*
X385612D01*
Y150389D01*
X385564D01*
Y150341D01*
X385516D01*
Y150245D01*
X385468D01*
Y150197D01*
X385420D01*
Y150150D01*
X385372D01*
Y150102D01*
X385325D01*
Y150054D01*
X385277D01*
Y150006D01*
X385229D01*
Y149958D01*
X385181D01*
Y149910D01*
X385133D01*
Y149862D01*
X385037D01*
Y149814D01*
X384989D01*
Y149766D01*
X384941D01*
Y149719D01*
X384893D01*
Y149671D01*
X384846D01*
Y149623D01*
X384798D01*
Y149575D01*
X384702D01*
Y149527D01*
X384654D01*
Y149479D01*
X384606D01*
Y149431D01*
X384558D01*
Y149383D01*
X384462D01*
Y149335D01*
X384414D01*
Y149288D01*
X384366D01*
Y149240D01*
X384271D01*
Y149192D01*
X384223D01*
Y149144D01*
X384175D01*
Y149096D01*
X384079D01*
Y149048D01*
X384031D01*
Y149000D01*
X383983D01*
Y148952D01*
X383887D01*
Y148904D01*
X383840D01*
Y148856D01*
X383792D01*
Y148808D01*
X383696D01*
Y148761D01*
X383648D01*
Y148713D01*
X383600D01*
Y148665D01*
X383504D01*
Y148617D01*
X383456D01*
Y148569D01*
X383409D01*
Y148521D01*
X383361D01*
Y148473D01*
X383265D01*
Y148425D01*
X383217D01*
Y148377D01*
X383169D01*
Y148329D01*
X383121D01*
Y148282D01*
X383073D01*
Y148234D01*
X382977D01*
Y148186D01*
X382930D01*
Y148138D01*
X382882D01*
Y148090D01*
X382834D01*
Y148042D01*
X382786D01*
Y147994D01*
X382738D01*
Y147946D01*
X382690D01*
Y147898D01*
X382642D01*
Y147851D01*
X382594D01*
Y147803D01*
X382546D01*
Y147755D01*
X382499D01*
Y147707D01*
X382451D01*
Y147659D01*
X382403D01*
Y147611D01*
X382355D01*
Y147563D01*
X382307D01*
Y147467D01*
X382259D01*
Y147419D01*
X382211D01*
Y147372D01*
X382163D01*
Y147324D01*
X382115D01*
Y147228D01*
X382067D01*
Y147180D01*
X382020D01*
Y147084D01*
X381972D01*
Y146988D01*
X381924D01*
Y146940D01*
X381876D01*
Y146845D01*
X381828D01*
Y146701D01*
X381780D01*
Y146605D01*
X381732D01*
Y146509D01*
X381684D01*
Y146318D01*
X381636D01*
Y146174D01*
X381588D01*
Y145887D01*
X381540D01*
Y144689D01*
X381493D01*
Y144498D01*
X381445D01*
Y144450D01*
X381301D01*
Y144498D01*
X381253D01*
Y144593D01*
X381205D01*
Y144785D01*
X381157D01*
Y144977D01*
X381109D01*
Y145120D01*
X381062D01*
Y145456D01*
X381014D01*
Y145647D01*
X380966D01*
Y145935D01*
X380918D01*
Y147515D01*
X380966D01*
Y147803D01*
X381014D01*
Y147994D01*
X381062D01*
Y148234D01*
X381109D01*
Y148377D01*
X381157D01*
Y148473D01*
X381205D01*
Y148665D01*
X381253D01*
Y148713D01*
X381301D01*
Y148856D01*
X381349D01*
Y149000D01*
X381397D01*
Y149048D01*
X381445D01*
Y149192D01*
X381493D01*
Y149240D01*
X381540D01*
Y149335D01*
X381588D01*
Y149431D01*
X381636D01*
Y149479D01*
X381684D01*
Y149575D01*
X381732D01*
Y149671D01*
X381780D01*
Y149719D01*
X381828D01*
Y149814D01*
X381876D01*
Y149862D01*
X381924D01*
Y149910D01*
X381972D01*
Y150006D01*
X382020D01*
Y150054D01*
X382067D01*
Y150102D01*
X382115D01*
Y150150D01*
X382163D01*
Y150197D01*
X382211D01*
Y150293D01*
X382259D01*
Y150341D01*
X382307D01*
Y150389D01*
X382355D01*
Y150437D01*
X382403D01*
Y150485D01*
X382451D01*
Y150533D01*
X382499D01*
Y150581D01*
X382546D01*
Y150629D01*
X382594D01*
Y150676D01*
X382642D01*
Y150724D01*
X382690D01*
Y150772D01*
X382738D01*
Y150820D01*
X382786D01*
Y150868D01*
X382834D01*
Y150916D01*
X382882D01*
Y150964D01*
X382930D01*
Y151012D01*
X382977D01*
Y151060D01*
X383073D01*
Y151108D01*
X383121D01*
Y151156D01*
X383169D01*
Y151203D01*
X383217D01*
Y151251D01*
X383265D01*
Y151299D01*
X383361D01*
Y151347D01*
X383409D01*
Y151395D01*
X383456D01*
Y151443D01*
X383552D01*
Y151491D01*
X383600D01*
Y151539D01*
X383648D01*
Y151587D01*
X383744D01*
Y151635D01*
X383792D01*
Y151682D01*
X383887D01*
Y151730D01*
X383936D01*
Y151778D01*
X383983D01*
Y151826D01*
X384079D01*
Y151874D01*
X384175D01*
Y151922D01*
X384223D01*
Y151970D01*
X384319D01*
Y152018D01*
X384366D01*
Y152066D01*
X384462D01*
Y152114D01*
X384558D01*
Y152161D01*
X384654D01*
Y152209D01*
X384750D01*
Y152257D01*
X384798D01*
Y152305D01*
X384893D01*
Y152353D01*
X384989D01*
Y152401D01*
X385085D01*
Y152449D01*
X385181D01*
Y152497D01*
X385277D01*
Y152545D01*
X385372D01*
Y152592D01*
X385468D01*
Y152640D01*
X385564D01*
Y152688D01*
X385660D01*
Y152736D01*
X385803D01*
Y152784D01*
X385851D01*
Y152832D01*
X385995D01*
Y152880D01*
X386091D01*
Y152928D01*
X386187D01*
Y152976D01*
X386330D01*
Y153024D01*
X386426D01*
Y153071D01*
X386570D01*
Y153119D01*
X386714D01*
Y153167D01*
X386809D01*
Y153215D01*
X387001D01*
Y153263D01*
X387145D01*
Y153311D01*
X387288D01*
Y153359D01*
X387480D01*
Y153407D01*
X387624D01*
Y153455D01*
X387767D01*
Y153503D01*
X388007D01*
Y153550D01*
X388150D01*
Y153598D01*
X388342D01*
Y153646D01*
X388534D01*
Y153694D01*
X388677D01*
Y153742D01*
X388917D01*
Y153790D01*
X389109D01*
Y153838D01*
X389252D01*
Y153886D01*
X389492D01*
Y153934D01*
X389635D01*
Y153982D01*
X389827D01*
Y154029D01*
X389971D01*
Y154077D01*
X390114D01*
Y154125D01*
X390306D01*
Y154173D01*
X390450D01*
Y154221D01*
X390593D01*
Y154269D01*
X390737D01*
Y154317D01*
X390833D01*
Y154365D01*
X391024D01*
Y154413D01*
X391120D01*
Y154460D01*
X391216D01*
Y154508D01*
X391360D01*
Y154556D01*
X391455D01*
Y154604D01*
X391551D01*
Y154652D01*
X391695D01*
Y154700D01*
X391743D01*
Y154748D01*
X391887D01*
Y154796D01*
X391982D01*
Y154844D01*
X392030D01*
Y154892D01*
X392126D01*
Y154939D01*
X392222D01*
Y154987D01*
X392270D01*
Y155035D01*
X392366D01*
Y155083D01*
X392413D01*
Y155131D01*
X392509D01*
Y155179D01*
X392557D01*
Y155227D01*
X392653D01*
Y155275D01*
X392701D01*
Y155323D01*
X392749D01*
Y155371D01*
X392797D01*
Y155419D01*
X392892D01*
Y155466D01*
X392940D01*
Y155514D01*
X392988D01*
Y155562D01*
X393036D01*
Y155610D01*
X393084D01*
Y155658D01*
X393132D01*
Y155706D01*
X393180D01*
Y155754D01*
X393228D01*
Y155802D01*
X393276D01*
Y155850D01*
X393324D01*
Y155993D01*
X393372D01*
Y156089D01*
X393419D01*
Y156185D01*
X393611D01*
Y156137D01*
D02*
G37*
G36*
X425841Y136932D02*
X425956D01*
Y136903D01*
X426099D01*
Y136875D01*
X426185D01*
Y136846D01*
X426214D01*
Y136015D01*
X426185D01*
Y135986D01*
X425870D01*
Y136015D01*
X425440D01*
Y135986D01*
X425240D01*
Y135958D01*
X425125D01*
Y135929D01*
X425068D01*
Y135900D01*
X425010D01*
Y135872D01*
X424953D01*
Y135843D01*
X424924D01*
Y135815D01*
X424896D01*
Y135757D01*
X424867D01*
Y135729D01*
X424838D01*
Y135671D01*
X424810D01*
Y135585D01*
X424781D01*
Y135471D01*
X424753D01*
Y134382D01*
X424781D01*
Y134353D01*
X426042D01*
Y133608D01*
X424753D01*
Y128765D01*
X423663D01*
Y129195D01*
Y129223D01*
Y133608D01*
X422603D01*
Y134353D01*
X423635D01*
Y134382D01*
X423663D01*
Y135499D01*
X423692D01*
Y135729D01*
X423721D01*
Y135872D01*
X423750D01*
Y135986D01*
X423778D01*
Y136044D01*
X423807D01*
Y136130D01*
X423835D01*
Y136187D01*
X423864D01*
Y136216D01*
X423893D01*
Y136273D01*
X423921D01*
Y136330D01*
X423950D01*
Y136359D01*
X423979D01*
Y136416D01*
X424007D01*
Y136445D01*
X424036D01*
Y136474D01*
X424065D01*
Y136502D01*
X424093D01*
Y136531D01*
X424122D01*
Y136560D01*
X424151D01*
Y136588D01*
X424208D01*
Y136617D01*
X424237D01*
Y136645D01*
X424265D01*
Y136674D01*
X424323D01*
Y136703D01*
X424351D01*
Y136732D01*
X424409D01*
Y136760D01*
X424466D01*
Y136789D01*
X424523D01*
Y136818D01*
X424609D01*
Y136846D01*
X424666D01*
Y136875D01*
X424753D01*
Y136903D01*
X424867D01*
Y136932D01*
X424982D01*
Y136961D01*
X425841D01*
Y136932D01*
D02*
G37*
G36*
X403909Y141899D02*
X403957D01*
Y132750D01*
X403909D01*
Y132606D01*
X403861D01*
Y132271D01*
X403813D01*
Y132175D01*
X403765D01*
Y132079D01*
X403813D01*
Y132032D01*
X403765D01*
Y131936D01*
X403717D01*
Y131696D01*
X403622D01*
Y131505D01*
X403574D01*
Y131313D01*
X403478D01*
Y131169D01*
X403382D01*
Y131122D01*
X403430D01*
Y131074D01*
X403382D01*
Y131026D01*
X403334D01*
Y130882D01*
X403286D01*
Y130834D01*
X403238D01*
Y130738D01*
X403191D01*
Y130642D01*
X403095D01*
Y130547D01*
X403047D01*
Y130451D01*
X402999D01*
Y130403D01*
X402951D01*
Y130355D01*
X402903D01*
Y130307D01*
X402855D01*
Y130259D01*
X402807D01*
Y130211D01*
X402760D01*
Y130163D01*
X402712D01*
Y130116D01*
X402664D01*
Y130068D01*
X402616D01*
Y130020D01*
X402568D01*
Y129972D01*
X402520D01*
Y129924D01*
X402472D01*
Y129876D01*
X402424D01*
Y129828D01*
X402376D01*
Y129780D01*
X402328D01*
Y129733D01*
X402281D01*
Y129685D01*
X402185D01*
Y129637D01*
X402137D01*
Y129589D01*
X402089D01*
Y129541D01*
X402041D01*
Y129493D01*
X401945D01*
Y129445D01*
X401850D01*
Y129397D01*
X401802D01*
Y129349D01*
X401706D01*
Y129301D01*
X401610D01*
Y129254D01*
X401562D01*
Y129206D01*
X401418D01*
Y129158D01*
X401323D01*
Y129110D01*
X401275D01*
Y129062D01*
X401131D01*
Y129014D01*
X401083D01*
Y128966D01*
X400939D01*
Y128918D01*
X400748D01*
Y128822D01*
X400556D01*
Y128774D01*
X400365D01*
Y128727D01*
X400269D01*
Y128679D01*
X400029D01*
Y128631D01*
X399981D01*
Y128583D01*
X399694D01*
Y128535D01*
X399311D01*
Y128487D01*
X399263D01*
Y128439D01*
X398736D01*
Y128391D01*
X398497D01*
Y128343D01*
X398353D01*
Y128391D01*
X396772D01*
Y128343D01*
X396676D01*
Y128391D01*
X396389D01*
Y128439D01*
X395862D01*
Y128487D01*
X395814D01*
Y128535D01*
X395431D01*
Y128583D01*
X395144D01*
Y128631D01*
X395096D01*
Y128679D01*
X394856D01*
Y128727D01*
X394808D01*
Y128774D01*
X394713D01*
Y128727D01*
X394665D01*
Y128774D01*
X394569D01*
Y128822D01*
X394377D01*
Y128918D01*
X394186D01*
Y128966D01*
X394042D01*
Y129014D01*
X393994D01*
Y129062D01*
X393850D01*
Y129110D01*
X393755D01*
Y129158D01*
X393707D01*
Y129206D01*
X393563D01*
Y129301D01*
X393419D01*
Y129349D01*
X393324D01*
Y129397D01*
X393276D01*
Y129445D01*
X393180D01*
Y129493D01*
X393132D01*
Y129541D01*
X393084D01*
Y129589D01*
X392988D01*
Y129637D01*
X392940D01*
Y129685D01*
X392845D01*
Y129733D01*
X392797D01*
Y129828D01*
X392701D01*
Y129924D01*
X392605D01*
Y129972D01*
X392509D01*
Y130020D01*
X392557D01*
Y130068D01*
X392461D01*
Y130116D01*
X392413D01*
Y130163D01*
X392366D01*
Y130211D01*
X392318D01*
Y130307D01*
X392222D01*
Y130403D01*
X392126D01*
Y130499D01*
X392078D01*
Y130547D01*
X392030D01*
Y130595D01*
X391982D01*
Y130690D01*
X391935D01*
Y130738D01*
X391887D01*
Y130834D01*
X391839D01*
Y130930D01*
X391791D01*
Y130978D01*
X391743D01*
Y131122D01*
X391695D01*
Y131265D01*
X391599D01*
Y131457D01*
X391503D01*
Y131648D01*
X391455D01*
Y131840D01*
X391408D01*
Y131888D01*
X391360D01*
Y132127D01*
X391312D01*
Y132223D01*
X391264D01*
Y132319D01*
X391312D01*
Y132415D01*
X391264D01*
Y132558D01*
X391216D01*
Y133085D01*
X391168D01*
Y141899D01*
X391264D01*
Y141994D01*
X394665D01*
Y141947D01*
X394713D01*
Y141899D01*
X394761D01*
Y141994D01*
X394808D01*
Y133133D01*
X394856D01*
Y133037D01*
X394904D01*
Y132750D01*
X394952D01*
Y132654D01*
X395000D01*
Y132606D01*
X394952D01*
Y132558D01*
X395000D01*
Y132511D01*
X395048D01*
Y132319D01*
X395144D01*
Y132223D01*
X395096D01*
Y132175D01*
X395192D01*
Y132079D01*
X395239D01*
Y132032D01*
X395287D01*
Y131936D01*
X395335D01*
Y131888D01*
X395383D01*
Y131840D01*
X395431D01*
Y131744D01*
X395479D01*
Y131648D01*
X395575D01*
Y131601D01*
X395623D01*
Y131505D01*
X395718D01*
Y131457D01*
X395814D01*
Y131409D01*
X395862D01*
Y131361D01*
X395910D01*
Y131313D01*
X395958D01*
Y131265D01*
X396054D01*
Y131217D01*
X396150D01*
Y131169D01*
X396198D01*
Y131122D01*
X396341D01*
Y131074D01*
X396485D01*
Y131026D01*
X396533D01*
Y130978D01*
X396820D01*
Y130930D01*
X396868D01*
Y130882D01*
X397012D01*
Y130930D01*
X397155D01*
Y130882D01*
X397970D01*
Y130930D01*
X398161D01*
Y130882D01*
X398257D01*
Y130930D01*
X398353D01*
Y130978D01*
X398592D01*
Y131026D01*
X398640D01*
Y131074D01*
X398784D01*
Y131122D01*
X398928D01*
Y131169D01*
X398976D01*
Y131217D01*
X399071D01*
Y131265D01*
X399215D01*
Y131361D01*
X399311D01*
Y131409D01*
X399359D01*
Y131457D01*
X399407D01*
Y131505D01*
X399502D01*
Y131601D01*
X399598D01*
Y131696D01*
X399646D01*
Y131744D01*
X399694D01*
Y131840D01*
X399790D01*
Y131936D01*
X399838D01*
Y131984D01*
X399886D01*
Y132079D01*
X399934D01*
Y132175D01*
X399981D01*
Y132223D01*
X400029D01*
Y132367D01*
X400077D01*
Y132415D01*
X400125D01*
Y132463D01*
X400077D01*
Y132511D01*
X400125D01*
Y132558D01*
X400173D01*
Y132798D01*
X400221D01*
Y132846D01*
X400269D01*
Y133229D01*
X400317D01*
Y141899D01*
X400365D01*
Y141994D01*
X403909D01*
Y141899D01*
D02*
G37*
G36*
X421428Y128765D02*
X420368D01*
Y136359D01*
Y136388D01*
Y136818D01*
X421428D01*
Y128765D01*
D02*
G37*
G36*
X409421Y136789D02*
X409822D01*
Y136760D01*
X409994D01*
Y136732D01*
X410195D01*
Y136703D01*
X410281D01*
Y136674D01*
X410395D01*
Y136645D01*
X410538D01*
Y136617D01*
X410596D01*
Y136588D01*
X410682D01*
Y136560D01*
X410768D01*
Y136531D01*
X410825D01*
Y136502D01*
X410911D01*
Y136474D01*
X410968D01*
Y136445D01*
X411026D01*
Y136416D01*
X411112D01*
Y136388D01*
X411140D01*
Y136359D01*
X411198D01*
Y136330D01*
X411255D01*
Y136302D01*
X411312D01*
Y136273D01*
X411370D01*
Y136244D01*
X411398D01*
Y136216D01*
X411427D01*
Y136187D01*
X411484D01*
Y136158D01*
X411513D01*
Y136130D01*
X411570D01*
Y136101D01*
X411599D01*
Y136072D01*
X411628D01*
Y136044D01*
X411656D01*
Y136015D01*
X411713D01*
Y135986D01*
X411742D01*
Y135958D01*
X411771D01*
Y135929D01*
X411799D01*
Y135900D01*
X411828D01*
Y135872D01*
X411857D01*
Y135843D01*
X411885D01*
Y135815D01*
X411914D01*
Y135786D01*
X411943D01*
Y135757D01*
X411971D01*
Y135729D01*
X412000D01*
Y135700D01*
X412029D01*
Y135671D01*
X412057D01*
Y135614D01*
X412086D01*
Y135585D01*
X412115D01*
Y135556D01*
X412143D01*
Y135528D01*
X412172D01*
Y135499D01*
X412201D01*
Y135442D01*
X412229D01*
Y135413D01*
X412258D01*
Y135356D01*
X412287D01*
Y135327D01*
X412315D01*
Y135270D01*
X412344D01*
Y135213D01*
X412373D01*
Y135184D01*
X412401D01*
Y135127D01*
X412430D01*
Y135069D01*
X412458D01*
Y135012D01*
X412487D01*
Y134955D01*
X412516D01*
Y134897D01*
X412545D01*
Y134869D01*
X412573D01*
Y134783D01*
X412602D01*
Y134697D01*
X412631D01*
Y134640D01*
X412659D01*
Y134554D01*
X412688D01*
Y134496D01*
X412716D01*
Y134410D01*
X412745D01*
Y134382D01*
Y134353D01*
Y134296D01*
X412774D01*
Y134210D01*
X412802D01*
Y134095D01*
X412831D01*
Y133980D01*
X412860D01*
Y133866D01*
X412888D01*
Y133694D01*
X412917D01*
Y133522D01*
X412946D01*
Y133264D01*
X412974D01*
Y133235D01*
X412946D01*
Y133178D01*
X412974D01*
Y132404D01*
X412946D01*
Y132347D01*
X412974D01*
Y132290D01*
X412946D01*
Y132060D01*
X412917D01*
Y131888D01*
X412888D01*
Y131688D01*
X412860D01*
Y131602D01*
X412831D01*
Y131459D01*
X412802D01*
Y131344D01*
X412774D01*
Y131258D01*
X412745D01*
Y131172D01*
X412716D01*
Y131086D01*
X412688D01*
Y131000D01*
X412659D01*
Y130914D01*
X412631D01*
Y130857D01*
X412602D01*
Y130800D01*
X412573D01*
Y130714D01*
X412545D01*
Y130656D01*
X412516D01*
Y130599D01*
X412487D01*
Y130541D01*
X412458D01*
Y130484D01*
X412430D01*
Y130427D01*
X412401D01*
Y130398D01*
X412373D01*
Y130341D01*
X412344D01*
Y130284D01*
X412315D01*
Y130255D01*
X412287D01*
Y130198D01*
X412258D01*
Y130169D01*
X412229D01*
Y130112D01*
X412201D01*
Y130083D01*
X412172D01*
Y130054D01*
X412143D01*
Y129997D01*
X412115D01*
Y129968D01*
X412086D01*
Y129940D01*
X412057D01*
Y129911D01*
X412029D01*
Y129882D01*
X412000D01*
Y129854D01*
X411971D01*
Y129796D01*
X411943D01*
Y129768D01*
X411914D01*
Y129739D01*
X411885D01*
Y129711D01*
X411857D01*
Y129682D01*
X411828D01*
Y129653D01*
X411799D01*
Y129625D01*
X411742D01*
Y129596D01*
X411713D01*
Y129567D01*
X411685D01*
Y129539D01*
X411656D01*
Y129510D01*
X411628D01*
Y129481D01*
X411570D01*
Y129453D01*
X411541D01*
Y129424D01*
X411513D01*
Y129395D01*
X411455D01*
Y129367D01*
X411427D01*
Y129338D01*
X411370D01*
Y129309D01*
X411312D01*
Y129281D01*
X411284D01*
Y129252D01*
X411226D01*
Y129223D01*
X411169D01*
Y129195D01*
X411140D01*
Y129166D01*
X411083D01*
Y129137D01*
X411026D01*
Y129109D01*
X410940D01*
Y129080D01*
X410882D01*
Y129051D01*
X410825D01*
Y129023D01*
X410739D01*
Y128994D01*
X410653D01*
Y128965D01*
X410567D01*
Y128937D01*
X410481D01*
Y128908D01*
X410367D01*
Y128879D01*
X410252D01*
Y128851D01*
X410080D01*
Y128822D01*
X409965D01*
Y128793D01*
X409650D01*
Y128765D01*
X406383D01*
Y136818D01*
X409421D01*
Y136789D01*
D02*
G37*
G36*
X429278Y135815D02*
Y135786D01*
Y134382D01*
X429306D01*
Y134353D01*
X430596D01*
Y133637D01*
X430568D01*
Y133608D01*
X429278D01*
Y129911D01*
X429306D01*
Y129768D01*
X429335D01*
Y129711D01*
X429364D01*
Y129682D01*
X429393D01*
Y129625D01*
X429421D01*
Y129596D01*
X429450D01*
Y129567D01*
X429507D01*
Y129539D01*
X429536D01*
Y129510D01*
X429593D01*
Y129481D01*
X429650D01*
Y129453D01*
X429765D01*
Y129424D01*
X429937D01*
Y129395D01*
X430023D01*
Y129424D01*
X430310D01*
Y129453D01*
X430453D01*
Y129481D01*
X430539D01*
Y128650D01*
X430424D01*
Y128622D01*
X430195D01*
Y128593D01*
X429393D01*
Y128622D01*
X429163D01*
Y128650D01*
X429049D01*
Y128679D01*
X428934D01*
Y128708D01*
X428848D01*
Y128736D01*
X428791D01*
Y128765D01*
X428733D01*
Y128793D01*
X428676D01*
Y128822D01*
X428619D01*
Y128851D01*
X428590D01*
Y128879D01*
X428533D01*
Y128908D01*
X428504D01*
Y128937D01*
X428475D01*
Y128965D01*
X428447D01*
Y129023D01*
X428418D01*
Y129051D01*
X428390D01*
Y129109D01*
X428361D01*
Y129137D01*
X428332D01*
Y129195D01*
X428303D01*
Y129281D01*
X428275D01*
Y129367D01*
X428246D01*
Y129539D01*
X428218D01*
Y133579D01*
X428189D01*
Y133608D01*
X427243D01*
Y134353D01*
X428189D01*
Y134382D01*
X428218D01*
Y135556D01*
X428275D01*
Y135585D01*
X428361D01*
Y135614D01*
X428447D01*
Y135642D01*
X428533D01*
Y135671D01*
X428647D01*
Y135700D01*
X428733D01*
Y135729D01*
X428819D01*
Y135757D01*
X428905D01*
Y135786D01*
X428991D01*
Y135815D01*
X429106D01*
Y135843D01*
X429192D01*
Y135872D01*
X429278D01*
Y135815D01*
D02*
G37*
G36*
X416958Y134496D02*
X417158D01*
Y134468D01*
X417273D01*
Y134439D01*
X417416D01*
Y134410D01*
X417502D01*
Y134382D01*
X417560D01*
Y134353D01*
X417674D01*
Y134324D01*
X417703D01*
Y134296D01*
X417789D01*
Y134267D01*
X417846D01*
Y134238D01*
X417903D01*
Y134210D01*
X417961D01*
Y134181D01*
X417989D01*
Y134152D01*
X418047D01*
Y134124D01*
X418075D01*
Y134095D01*
X418104D01*
Y134066D01*
X418161D01*
Y134038D01*
X418190D01*
Y134009D01*
X418219D01*
Y133980D01*
X418247D01*
Y133952D01*
X418276D01*
Y133923D01*
X418333D01*
Y133894D01*
X418362D01*
Y133866D01*
X418391D01*
Y133808D01*
X418419D01*
Y133780D01*
X418448D01*
Y133751D01*
X418477D01*
Y133722D01*
X418505D01*
Y133694D01*
X418534D01*
Y133665D01*
X418563D01*
Y133608D01*
X418591D01*
Y133579D01*
X418620D01*
Y133522D01*
X418648D01*
Y133493D01*
X418677D01*
Y133436D01*
X418706D01*
Y133379D01*
X418735D01*
Y133350D01*
X418763D01*
Y133293D01*
X418792D01*
Y133235D01*
X418820D01*
Y133178D01*
X418849D01*
Y133092D01*
X418878D01*
Y133035D01*
X418906D01*
Y132949D01*
X418935D01*
Y132834D01*
X418964D01*
Y132748D01*
X418992D01*
Y132605D01*
X419021D01*
Y132462D01*
X419050D01*
Y132261D01*
X419078D01*
Y131373D01*
X419050D01*
Y131344D01*
X415095D01*
Y130885D01*
X415124D01*
Y130714D01*
X415152D01*
Y130599D01*
X415181D01*
Y130456D01*
X415210D01*
Y130370D01*
X415238D01*
Y130284D01*
X415267D01*
Y130198D01*
X415296D01*
Y130169D01*
X415324D01*
Y130083D01*
X415353D01*
Y130026D01*
X415382D01*
Y129997D01*
X415410D01*
Y129940D01*
X415439D01*
Y129911D01*
X415467D01*
Y129854D01*
X415496D01*
Y129825D01*
X415525D01*
Y129796D01*
X415554D01*
Y129768D01*
X415582D01*
Y129711D01*
X415639D01*
Y129682D01*
X415668D01*
Y129653D01*
X415697D01*
Y129625D01*
X415726D01*
Y129596D01*
X415783D01*
Y129567D01*
X415811D01*
Y129539D01*
X415869D01*
Y129510D01*
X415926D01*
Y129481D01*
X415983D01*
Y129453D01*
X416069D01*
Y129424D01*
X416155D01*
Y129395D01*
X416356D01*
Y129367D01*
X416729D01*
Y129395D01*
X416986D01*
Y129424D01*
X417072D01*
Y129453D01*
X417158D01*
Y129481D01*
X417244D01*
Y129510D01*
X417302D01*
Y129539D01*
X417359D01*
Y129567D01*
X417388D01*
Y129596D01*
X417416D01*
Y129625D01*
X417474D01*
Y129653D01*
X417502D01*
Y129682D01*
X417531D01*
Y129711D01*
X417560D01*
Y129739D01*
X417588D01*
Y129768D01*
X417617D01*
Y129825D01*
X417645D01*
Y129854D01*
X417674D01*
Y129911D01*
X417703D01*
Y129968D01*
X417732D01*
Y130026D01*
X417760D01*
Y130083D01*
X417789D01*
Y130169D01*
X417817D01*
Y130255D01*
X417846D01*
Y130398D01*
X417875D01*
Y130484D01*
X417903D01*
Y130513D01*
X418992D01*
Y130484D01*
X419021D01*
Y130456D01*
X418992D01*
Y130284D01*
X418964D01*
Y130198D01*
X418935D01*
Y130083D01*
X418906D01*
Y129997D01*
X418878D01*
Y129911D01*
X418849D01*
Y129854D01*
X418820D01*
Y129796D01*
X418792D01*
Y129739D01*
X418763D01*
Y129682D01*
X418735D01*
Y129625D01*
X418706D01*
Y129596D01*
X418677D01*
Y129539D01*
X418648D01*
Y129510D01*
X418620D01*
Y129453D01*
X418591D01*
Y129424D01*
X418563D01*
Y129395D01*
X418534D01*
Y129338D01*
X418477D01*
Y129309D01*
X418448D01*
Y129252D01*
X418391D01*
Y129195D01*
X418362D01*
Y129166D01*
X418305D01*
Y129137D01*
X418276D01*
Y129109D01*
X418247D01*
Y129080D01*
X418190D01*
Y129051D01*
X418161D01*
Y129023D01*
X418133D01*
Y128994D01*
X418075D01*
Y128965D01*
X418047D01*
Y128937D01*
X417989D01*
Y128908D01*
X417932D01*
Y128879D01*
X417875D01*
Y128851D01*
X417817D01*
Y128822D01*
X417760D01*
Y128793D01*
X417674D01*
Y128765D01*
X417588D01*
Y128736D01*
X417502D01*
Y128708D01*
X417388D01*
Y128679D01*
X417273D01*
Y128650D01*
X417130D01*
Y128622D01*
X416900D01*
Y128593D01*
X416127D01*
Y128622D01*
X415926D01*
Y128650D01*
X415783D01*
Y128679D01*
X415697D01*
Y128708D01*
X415582D01*
Y128736D01*
X415496D01*
Y128765D01*
X415439D01*
Y128793D01*
X415353D01*
Y128822D01*
X415296D01*
Y128851D01*
X415238D01*
Y128879D01*
X415181D01*
Y128908D01*
X415152D01*
Y128937D01*
X415095D01*
Y128965D01*
X415066D01*
Y128994D01*
X415009D01*
Y129023D01*
X414952D01*
Y129051D01*
X414923D01*
Y129080D01*
X414894D01*
Y129109D01*
X414866D01*
Y129137D01*
X414837D01*
Y129166D01*
X414808D01*
Y129195D01*
X414780D01*
Y129223D01*
X414751D01*
Y129252D01*
X414723D01*
Y129281D01*
X414694D01*
Y129309D01*
X414665D01*
Y129338D01*
X414636D01*
Y129367D01*
X414608D01*
Y129395D01*
X414579D01*
Y129453D01*
X414551D01*
Y129481D01*
X414522D01*
Y129510D01*
X414493D01*
Y129567D01*
X414465D01*
Y129596D01*
X414436D01*
Y129653D01*
X414407D01*
Y129711D01*
X414379D01*
Y129739D01*
X414350D01*
Y129825D01*
X414321D01*
Y129882D01*
X414293D01*
Y129911D01*
X414264D01*
Y129997D01*
X414235D01*
Y130083D01*
X414207D01*
Y130140D01*
X414178D01*
Y130255D01*
X414149D01*
Y130341D01*
X414121D01*
Y130456D01*
X414092D01*
Y130599D01*
X414063D01*
Y130714D01*
X414035D01*
Y131000D01*
X414006D01*
Y132003D01*
X414035D01*
Y132261D01*
X414063D01*
Y132404D01*
X414092D01*
Y132519D01*
X414121D01*
Y132662D01*
X414149D01*
Y132719D01*
X414178D01*
Y132834D01*
X414207D01*
Y132920D01*
X414235D01*
Y132977D01*
X414264D01*
Y133063D01*
X414293D01*
Y133092D01*
X414321D01*
Y133178D01*
X414350D01*
Y133235D01*
X414379D01*
Y133264D01*
X414407D01*
Y133350D01*
X414436D01*
Y133379D01*
X414465D01*
Y133436D01*
X414493D01*
Y133465D01*
X414522D01*
Y133522D01*
X414551D01*
Y133551D01*
X414579D01*
Y133608D01*
X414608D01*
Y133637D01*
X414636D01*
Y133665D01*
X414665D01*
Y133694D01*
X414694D01*
Y133722D01*
X414723D01*
Y133780D01*
X414751D01*
Y133808D01*
X414780D01*
Y133837D01*
X414808D01*
Y133866D01*
X414837D01*
Y133894D01*
X414866D01*
Y133923D01*
X414894D01*
Y133952D01*
X414952D01*
Y133980D01*
X414980D01*
Y134009D01*
X415009D01*
Y134038D01*
X415038D01*
Y134066D01*
X415095D01*
Y134095D01*
X415124D01*
Y134124D01*
X415181D01*
Y134152D01*
X415210D01*
Y134181D01*
X415267D01*
Y134210D01*
X415324D01*
Y134238D01*
X415353D01*
Y134267D01*
X415410D01*
Y134296D01*
X415496D01*
Y134324D01*
X415554D01*
Y134353D01*
X415639D01*
Y134382D01*
X415726D01*
Y134410D01*
X415783D01*
Y134439D01*
X415926D01*
Y134468D01*
X416041D01*
Y134496D01*
X416241D01*
Y134525D01*
X416958D01*
Y134496D01*
D02*
G37*
G36*
X389348Y139408D02*
X385229D01*
Y139360D01*
X385181D01*
Y128583D01*
X381445D01*
Y133995D01*
Y134043D01*
Y139360D01*
X381397D01*
Y139408D01*
X377278D01*
Y139456D01*
X377230D01*
Y139552D01*
X377278D01*
Y141899D01*
X377230D01*
Y141947D01*
X377278D01*
Y142042D01*
X389348D01*
Y139408D01*
D02*
G37*
%LPC*%
G36*
X294876Y467911D02*
X292068D01*
Y467882D01*
X292039D01*
Y467854D01*
X292068D01*
Y467481D01*
X292097D01*
Y467338D01*
X292125D01*
Y467223D01*
X292154D01*
Y467137D01*
X292183D01*
Y467051D01*
X292211D01*
Y466994D01*
X292240D01*
Y466908D01*
X292269D01*
Y466879D01*
X292297D01*
Y466822D01*
X292326D01*
Y466793D01*
X292355D01*
Y466736D01*
X292383D01*
Y466707D01*
X292412D01*
Y466679D01*
X292440D01*
Y466621D01*
X292498D01*
Y466593D01*
X292526D01*
Y466564D01*
X292555D01*
Y466535D01*
X292584D01*
Y466507D01*
X292612D01*
Y466478D01*
X292670D01*
Y466449D01*
X292698D01*
Y466421D01*
X292756D01*
Y466392D01*
X292842D01*
Y466363D01*
X292899D01*
Y466335D01*
X292985D01*
Y466306D01*
X293100D01*
Y466278D01*
X293243D01*
Y466249D01*
X293673D01*
Y466278D01*
X293787D01*
Y466306D01*
X293902D01*
Y466335D01*
X293988D01*
Y466363D01*
X294045D01*
Y466392D01*
X294103D01*
Y466421D01*
X294160D01*
Y466449D01*
X294189D01*
Y466478D01*
X294246D01*
Y466507D01*
X294275D01*
Y466535D01*
X294303D01*
Y466564D01*
X294332D01*
Y466593D01*
X294361D01*
Y466621D01*
X294389D01*
Y466650D01*
X294418D01*
Y466679D01*
X294447D01*
Y466707D01*
X294475D01*
Y466736D01*
X294504D01*
Y466765D01*
X294533D01*
Y466793D01*
X294561D01*
Y466851D01*
X294590D01*
Y466879D01*
X294618D01*
Y466937D01*
X294647D01*
Y466994D01*
X294676D01*
Y467051D01*
X294704D01*
Y467109D01*
X294733D01*
Y467166D01*
X294762D01*
Y467252D01*
X294790D01*
Y467309D01*
X294819D01*
Y467453D01*
X294848D01*
Y467567D01*
X294876D01*
Y467796D01*
X294905D01*
Y467882D01*
X294876D01*
Y467911D01*
D02*
G37*
G36*
X302470Y470289D02*
X300665D01*
Y470261D01*
X300436D01*
Y470232D01*
X300235D01*
Y470204D01*
X300092D01*
Y470175D01*
X300006D01*
Y470146D01*
X299891D01*
Y470118D01*
X299834D01*
Y470089D01*
X299748D01*
Y470060D01*
X299662D01*
Y470032D01*
X299633D01*
Y470003D01*
X299548D01*
Y469974D01*
X299519D01*
Y469946D01*
X299461D01*
Y469917D01*
X299404D01*
Y469888D01*
X299375D01*
Y469860D01*
X299318D01*
Y469831D01*
X299289D01*
Y469802D01*
X299261D01*
Y469774D01*
X299204D01*
Y469745D01*
X299175D01*
Y469716D01*
X299146D01*
Y469688D01*
X299118D01*
Y469659D01*
X299089D01*
Y469630D01*
X299060D01*
Y469602D01*
X299032D01*
Y469573D01*
X299003D01*
Y469544D01*
X298974D01*
Y469516D01*
X298946D01*
Y469487D01*
X298917D01*
Y469458D01*
X298888D01*
Y469430D01*
X298860D01*
Y469372D01*
X298831D01*
Y469344D01*
X298802D01*
Y469315D01*
X298774D01*
Y469258D01*
X298745D01*
Y469229D01*
X298716D01*
Y469172D01*
X298688D01*
Y469143D01*
X298659D01*
Y469086D01*
X298630D01*
Y469029D01*
X298602D01*
Y469000D01*
X298573D01*
Y468914D01*
X298545D01*
Y468857D01*
X298516D01*
Y468799D01*
X298487D01*
Y468713D01*
X298458D01*
Y468656D01*
X298430D01*
Y468570D01*
X298401D01*
Y468484D01*
X298372D01*
Y468398D01*
X298344D01*
Y468284D01*
X298315D01*
Y468140D01*
X298287D01*
Y467997D01*
X298258D01*
Y467768D01*
X298229D01*
Y467309D01*
X298201D01*
Y467109D01*
X298229D01*
Y466679D01*
X298258D01*
Y466421D01*
X298287D01*
Y466306D01*
X298315D01*
Y466163D01*
X298344D01*
Y466048D01*
X298372D01*
Y465962D01*
X298401D01*
Y465848D01*
X298430D01*
Y465790D01*
X298458D01*
Y465704D01*
X298487D01*
Y465618D01*
X298516D01*
Y465590D01*
X298545D01*
Y465504D01*
X298573D01*
Y465446D01*
X298602D01*
Y465418D01*
X298630D01*
Y465332D01*
X298659D01*
Y465303D01*
X298688D01*
Y465246D01*
X298716D01*
Y465188D01*
X298745D01*
Y465160D01*
X298774D01*
Y465131D01*
X298802D01*
Y465074D01*
X298831D01*
Y465045D01*
X298860D01*
Y465017D01*
X298888D01*
Y464988D01*
X298917D01*
Y464931D01*
X298946D01*
Y464902D01*
X298974D01*
Y464873D01*
X299003D01*
Y464845D01*
X299032D01*
Y464816D01*
X299060D01*
Y464787D01*
X299089D01*
Y464759D01*
X299118D01*
Y464730D01*
X299175D01*
Y464701D01*
X299204D01*
Y464673D01*
X299232D01*
Y464644D01*
X299261D01*
Y464615D01*
X299318D01*
Y464587D01*
X299347D01*
Y464558D01*
X299404D01*
Y464529D01*
X299433D01*
Y464501D01*
X299490D01*
Y464472D01*
X299548D01*
Y464443D01*
X299605D01*
Y464415D01*
X299662D01*
Y464386D01*
X299719D01*
Y464357D01*
X299777D01*
Y464329D01*
X299863D01*
Y464300D01*
X299949D01*
Y464272D01*
X300063D01*
Y464243D01*
X300178D01*
Y464214D01*
X300292D01*
Y464185D01*
X300636D01*
Y464157D01*
X302470D01*
Y464185D01*
X302499D01*
Y470232D01*
X302470D01*
Y470289D01*
D02*
G37*
G36*
X409364Y395843D02*
X407529D01*
Y395814D01*
X407501D01*
Y389768D01*
X407529D01*
Y389711D01*
X409335D01*
Y389739D01*
X409564D01*
Y389768D01*
X409765D01*
Y389796D01*
X409908D01*
Y389825D01*
X409994D01*
Y389854D01*
X410109D01*
Y389882D01*
X410166D01*
Y389911D01*
X410252D01*
Y389940D01*
X410338D01*
Y389968D01*
X410367D01*
Y389997D01*
X410452D01*
Y390026D01*
X410481D01*
Y390054D01*
X410538D01*
Y390083D01*
X410596D01*
Y390112D01*
X410625D01*
Y390140D01*
X410682D01*
Y390169D01*
X410710D01*
Y390198D01*
X410739D01*
Y390226D01*
X410796D01*
Y390255D01*
X410825D01*
Y390284D01*
X410854D01*
Y390312D01*
X410882D01*
Y390341D01*
X410911D01*
Y390370D01*
X410940D01*
Y390398D01*
X410968D01*
Y390427D01*
X410997D01*
Y390456D01*
X411026D01*
Y390484D01*
X411054D01*
Y390513D01*
X411083D01*
Y390541D01*
X411112D01*
Y390570D01*
X411140D01*
Y390628D01*
X411169D01*
Y390656D01*
X411198D01*
Y390685D01*
X411226D01*
Y390742D01*
X411255D01*
Y390771D01*
X411284D01*
Y390828D01*
X411312D01*
Y390857D01*
X411341D01*
Y390914D01*
X411370D01*
Y390971D01*
X411398D01*
Y391000D01*
X411427D01*
Y391086D01*
X411455D01*
Y391143D01*
X411484D01*
Y391201D01*
X411513D01*
Y391287D01*
X411541D01*
Y391344D01*
X411570D01*
Y391430D01*
X411599D01*
Y391516D01*
X411628D01*
Y391602D01*
X411656D01*
Y391716D01*
X411685D01*
Y391860D01*
X411713D01*
Y392003D01*
X411742D01*
Y392232D01*
X411771D01*
Y392691D01*
X411799D01*
Y392891D01*
X411771D01*
Y393321D01*
X411742D01*
Y393579D01*
X411713D01*
Y393694D01*
X411685D01*
Y393837D01*
X411656D01*
Y393952D01*
X411628D01*
Y394038D01*
X411599D01*
Y394152D01*
X411570D01*
Y394210D01*
X411541D01*
Y394296D01*
X411513D01*
Y394382D01*
X411484D01*
Y394410D01*
X411455D01*
Y394496D01*
X411427D01*
Y394553D01*
X411398D01*
Y394582D01*
X411370D01*
Y394668D01*
X411341D01*
Y394697D01*
X411312D01*
Y394754D01*
X411284D01*
Y394812D01*
X411255D01*
Y394840D01*
X411226D01*
Y394869D01*
X411198D01*
Y394926D01*
X411169D01*
Y394955D01*
X411140D01*
Y394983D01*
X411112D01*
Y395012D01*
X411083D01*
Y395069D01*
X411054D01*
Y395098D01*
X411026D01*
Y395127D01*
X410997D01*
Y395155D01*
X410968D01*
Y395184D01*
X410940D01*
Y395213D01*
X410911D01*
Y395241D01*
X410882D01*
Y395270D01*
X410825D01*
Y395299D01*
X410796D01*
Y395327D01*
X410768D01*
Y395356D01*
X410739D01*
Y395385D01*
X410682D01*
Y395413D01*
X410653D01*
Y395442D01*
X410596D01*
Y395471D01*
X410567D01*
Y395499D01*
X410510D01*
Y395528D01*
X410452D01*
Y395556D01*
X410395D01*
Y395585D01*
X410338D01*
Y395614D01*
X410281D01*
Y395643D01*
X410223D01*
Y395671D01*
X410137D01*
Y395700D01*
X410051D01*
Y395728D01*
X409937D01*
Y395757D01*
X409822D01*
Y395786D01*
X409707D01*
Y395814D01*
X409364D01*
Y395843D01*
D02*
G37*
G36*
X416757Y393751D02*
X416327D01*
Y393722D01*
X416213D01*
Y393694D01*
X416098D01*
Y393665D01*
X416012D01*
Y393637D01*
X415955D01*
Y393608D01*
X415897D01*
Y393579D01*
X415840D01*
Y393550D01*
X415811D01*
Y393522D01*
X415754D01*
Y393493D01*
X415726D01*
Y393465D01*
X415697D01*
Y393436D01*
X415668D01*
Y393407D01*
X415639D01*
Y393379D01*
X415611D01*
Y393350D01*
X415582D01*
Y393321D01*
X415554D01*
Y393293D01*
X415525D01*
Y393264D01*
X415496D01*
Y393235D01*
X415467D01*
Y393207D01*
X415439D01*
Y393149D01*
X415410D01*
Y393121D01*
X415382D01*
Y393063D01*
X415353D01*
Y393006D01*
X415324D01*
Y392949D01*
X415296D01*
Y392891D01*
X415267D01*
Y392834D01*
X415238D01*
Y392748D01*
X415210D01*
Y392691D01*
X415181D01*
Y392547D01*
X415152D01*
Y392433D01*
X415124D01*
Y392204D01*
X415095D01*
Y392118D01*
X415124D01*
Y392089D01*
X417932D01*
Y392118D01*
X417961D01*
Y392146D01*
X417932D01*
Y392519D01*
X417903D01*
Y392662D01*
X417875D01*
Y392777D01*
X417846D01*
Y392863D01*
X417817D01*
Y392949D01*
X417789D01*
Y393006D01*
X417760D01*
Y393092D01*
X417732D01*
Y393121D01*
X417703D01*
Y393178D01*
X417674D01*
Y393207D01*
X417645D01*
Y393264D01*
X417617D01*
Y393293D01*
X417588D01*
Y393321D01*
X417560D01*
Y393379D01*
X417502D01*
Y393407D01*
X417474D01*
Y393436D01*
X417445D01*
Y393465D01*
X417416D01*
Y393493D01*
X417388D01*
Y393522D01*
X417330D01*
Y393550D01*
X417302D01*
Y393579D01*
X417244D01*
Y393608D01*
X417158D01*
Y393637D01*
X417101D01*
Y393665D01*
X417015D01*
Y393694D01*
X416900D01*
Y393722D01*
X416757D01*
Y393751D01*
D02*
G37*
G36*
X294876Y207911D02*
X292068D01*
Y207882D01*
X292039D01*
Y207854D01*
X292068D01*
Y207481D01*
X292097D01*
Y207338D01*
X292125D01*
Y207223D01*
X292154D01*
Y207137D01*
X292183D01*
Y207051D01*
X292211D01*
Y206994D01*
X292240D01*
Y206908D01*
X292269D01*
Y206879D01*
X292297D01*
Y206822D01*
X292326D01*
Y206793D01*
X292355D01*
Y206736D01*
X292383D01*
Y206707D01*
X292412D01*
Y206679D01*
X292440D01*
Y206621D01*
X292498D01*
Y206593D01*
X292526D01*
Y206564D01*
X292555D01*
Y206535D01*
X292584D01*
Y206507D01*
X292612D01*
Y206478D01*
X292670D01*
Y206449D01*
X292698D01*
Y206421D01*
X292756D01*
Y206392D01*
X292842D01*
Y206364D01*
X292899D01*
Y206335D01*
X292985D01*
Y206306D01*
X293100D01*
Y206278D01*
X293243D01*
Y206249D01*
X293673D01*
Y206278D01*
X293787D01*
Y206306D01*
X293902D01*
Y206335D01*
X293988D01*
Y206364D01*
X294045D01*
Y206392D01*
X294103D01*
Y206421D01*
X294160D01*
Y206449D01*
X294189D01*
Y206478D01*
X294246D01*
Y206507D01*
X294275D01*
Y206535D01*
X294303D01*
Y206564D01*
X294332D01*
Y206593D01*
X294361D01*
Y206621D01*
X294389D01*
Y206650D01*
X294418D01*
Y206679D01*
X294447D01*
Y206707D01*
X294475D01*
Y206736D01*
X294504D01*
Y206765D01*
X294533D01*
Y206793D01*
X294561D01*
Y206851D01*
X294590D01*
Y206879D01*
X294618D01*
Y206937D01*
X294647D01*
Y206994D01*
X294676D01*
Y207051D01*
X294704D01*
Y207109D01*
X294733D01*
Y207166D01*
X294762D01*
Y207252D01*
X294790D01*
Y207309D01*
X294819D01*
Y207453D01*
X294848D01*
Y207567D01*
X294876D01*
Y207796D01*
X294905D01*
Y207882D01*
X294876D01*
Y207911D01*
D02*
G37*
G36*
X302470Y210289D02*
X300665D01*
Y210261D01*
X300436D01*
Y210232D01*
X300235D01*
Y210203D01*
X300092D01*
Y210175D01*
X300006D01*
Y210146D01*
X299891D01*
Y210118D01*
X299834D01*
Y210089D01*
X299748D01*
Y210060D01*
X299662D01*
Y210032D01*
X299633D01*
Y210003D01*
X299548D01*
Y209974D01*
X299519D01*
Y209946D01*
X299461D01*
Y209917D01*
X299404D01*
Y209888D01*
X299375D01*
Y209860D01*
X299318D01*
Y209831D01*
X299289D01*
Y209802D01*
X299261D01*
Y209774D01*
X299204D01*
Y209745D01*
X299175D01*
Y209716D01*
X299146D01*
Y209688D01*
X299118D01*
Y209659D01*
X299089D01*
Y209630D01*
X299060D01*
Y209602D01*
X299032D01*
Y209573D01*
X299003D01*
Y209544D01*
X298974D01*
Y209516D01*
X298946D01*
Y209487D01*
X298917D01*
Y209459D01*
X298888D01*
Y209430D01*
X298860D01*
Y209373D01*
X298831D01*
Y209344D01*
X298802D01*
Y209315D01*
X298774D01*
Y209258D01*
X298745D01*
Y209229D01*
X298716D01*
Y209172D01*
X298688D01*
Y209143D01*
X298659D01*
Y209086D01*
X298630D01*
Y209029D01*
X298602D01*
Y209000D01*
X298573D01*
Y208914D01*
X298545D01*
Y208857D01*
X298516D01*
Y208799D01*
X298487D01*
Y208713D01*
X298458D01*
Y208656D01*
X298430D01*
Y208570D01*
X298401D01*
Y208484D01*
X298372D01*
Y208398D01*
X298344D01*
Y208284D01*
X298315D01*
Y208140D01*
X298287D01*
Y207997D01*
X298258D01*
Y207768D01*
X298229D01*
Y207309D01*
X298201D01*
Y207109D01*
X298229D01*
Y206679D01*
X298258D01*
Y206421D01*
X298287D01*
Y206306D01*
X298315D01*
Y206163D01*
X298344D01*
Y206048D01*
X298372D01*
Y205962D01*
X298401D01*
Y205848D01*
X298430D01*
Y205790D01*
X298458D01*
Y205704D01*
X298487D01*
Y205618D01*
X298516D01*
Y205590D01*
X298545D01*
Y205504D01*
X298573D01*
Y205446D01*
X298602D01*
Y205418D01*
X298630D01*
Y205332D01*
X298659D01*
Y205303D01*
X298688D01*
Y205246D01*
X298716D01*
Y205189D01*
X298745D01*
Y205160D01*
X298774D01*
Y205131D01*
X298802D01*
Y205074D01*
X298831D01*
Y205045D01*
X298860D01*
Y205017D01*
X298888D01*
Y204988D01*
X298917D01*
Y204931D01*
X298946D01*
Y204902D01*
X298974D01*
Y204873D01*
X299003D01*
Y204845D01*
X299032D01*
Y204816D01*
X299060D01*
Y204787D01*
X299089D01*
Y204759D01*
X299118D01*
Y204730D01*
X299175D01*
Y204701D01*
X299204D01*
Y204673D01*
X299232D01*
Y204644D01*
X299261D01*
Y204615D01*
X299318D01*
Y204587D01*
X299347D01*
Y204558D01*
X299404D01*
Y204529D01*
X299433D01*
Y204501D01*
X299490D01*
Y204472D01*
X299548D01*
Y204443D01*
X299605D01*
Y204415D01*
X299662D01*
Y204386D01*
X299719D01*
Y204357D01*
X299777D01*
Y204329D01*
X299863D01*
Y204300D01*
X299949D01*
Y204272D01*
X300063D01*
Y204243D01*
X300178D01*
Y204214D01*
X300292D01*
Y204186D01*
X300636D01*
Y204157D01*
X302470D01*
Y204186D01*
X302499D01*
Y210232D01*
X302470D01*
Y210289D01*
D02*
G37*
G36*
X409364Y135843D02*
X407529D01*
Y135815D01*
X407501D01*
Y129768D01*
X407529D01*
Y129711D01*
X409335D01*
Y129739D01*
X409564D01*
Y129768D01*
X409765D01*
Y129796D01*
X409908D01*
Y129825D01*
X409994D01*
Y129854D01*
X410109D01*
Y129882D01*
X410166D01*
Y129911D01*
X410252D01*
Y129940D01*
X410338D01*
Y129968D01*
X410367D01*
Y129997D01*
X410452D01*
Y130026D01*
X410481D01*
Y130054D01*
X410538D01*
Y130083D01*
X410596D01*
Y130112D01*
X410625D01*
Y130140D01*
X410682D01*
Y130169D01*
X410710D01*
Y130198D01*
X410739D01*
Y130226D01*
X410796D01*
Y130255D01*
X410825D01*
Y130284D01*
X410854D01*
Y130312D01*
X410882D01*
Y130341D01*
X410911D01*
Y130370D01*
X410940D01*
Y130398D01*
X410968D01*
Y130427D01*
X410997D01*
Y130456D01*
X411026D01*
Y130484D01*
X411054D01*
Y130513D01*
X411083D01*
Y130541D01*
X411112D01*
Y130570D01*
X411140D01*
Y130627D01*
X411169D01*
Y130656D01*
X411198D01*
Y130685D01*
X411226D01*
Y130742D01*
X411255D01*
Y130771D01*
X411284D01*
Y130828D01*
X411312D01*
Y130857D01*
X411341D01*
Y130914D01*
X411370D01*
Y130971D01*
X411398D01*
Y131000D01*
X411427D01*
Y131086D01*
X411455D01*
Y131143D01*
X411484D01*
Y131201D01*
X411513D01*
Y131287D01*
X411541D01*
Y131344D01*
X411570D01*
Y131430D01*
X411599D01*
Y131516D01*
X411628D01*
Y131602D01*
X411656D01*
Y131716D01*
X411685D01*
Y131860D01*
X411713D01*
Y132003D01*
X411742D01*
Y132232D01*
X411771D01*
Y132691D01*
X411799D01*
Y132891D01*
X411771D01*
Y133321D01*
X411742D01*
Y133579D01*
X411713D01*
Y133694D01*
X411685D01*
Y133837D01*
X411656D01*
Y133952D01*
X411628D01*
Y134038D01*
X411599D01*
Y134152D01*
X411570D01*
Y134210D01*
X411541D01*
Y134296D01*
X411513D01*
Y134382D01*
X411484D01*
Y134410D01*
X411455D01*
Y134496D01*
X411427D01*
Y134554D01*
X411398D01*
Y134582D01*
X411370D01*
Y134668D01*
X411341D01*
Y134697D01*
X411312D01*
Y134754D01*
X411284D01*
Y134811D01*
X411255D01*
Y134840D01*
X411226D01*
Y134869D01*
X411198D01*
Y134926D01*
X411169D01*
Y134955D01*
X411140D01*
Y134983D01*
X411112D01*
Y135012D01*
X411083D01*
Y135069D01*
X411054D01*
Y135098D01*
X411026D01*
Y135127D01*
X410997D01*
Y135155D01*
X410968D01*
Y135184D01*
X410940D01*
Y135213D01*
X410911D01*
Y135241D01*
X410882D01*
Y135270D01*
X410825D01*
Y135299D01*
X410796D01*
Y135327D01*
X410768D01*
Y135356D01*
X410739D01*
Y135385D01*
X410682D01*
Y135413D01*
X410653D01*
Y135442D01*
X410596D01*
Y135471D01*
X410567D01*
Y135499D01*
X410510D01*
Y135528D01*
X410452D01*
Y135556D01*
X410395D01*
Y135585D01*
X410338D01*
Y135614D01*
X410281D01*
Y135642D01*
X410223D01*
Y135671D01*
X410137D01*
Y135700D01*
X410051D01*
Y135729D01*
X409937D01*
Y135757D01*
X409822D01*
Y135786D01*
X409707D01*
Y135815D01*
X409364D01*
Y135843D01*
D02*
G37*
G36*
X416757Y133751D02*
X416327D01*
Y133722D01*
X416213D01*
Y133694D01*
X416098D01*
Y133665D01*
X416012D01*
Y133637D01*
X415955D01*
Y133608D01*
X415897D01*
Y133579D01*
X415840D01*
Y133551D01*
X415811D01*
Y133522D01*
X415754D01*
Y133493D01*
X415726D01*
Y133465D01*
X415697D01*
Y133436D01*
X415668D01*
Y133407D01*
X415639D01*
Y133379D01*
X415611D01*
Y133350D01*
X415582D01*
Y133321D01*
X415554D01*
Y133293D01*
X415525D01*
Y133264D01*
X415496D01*
Y133235D01*
X415467D01*
Y133207D01*
X415439D01*
Y133149D01*
X415410D01*
Y133121D01*
X415382D01*
Y133063D01*
X415353D01*
Y133006D01*
X415324D01*
Y132949D01*
X415296D01*
Y132891D01*
X415267D01*
Y132834D01*
X415238D01*
Y132748D01*
X415210D01*
Y132691D01*
X415181D01*
Y132548D01*
X415152D01*
Y132433D01*
X415124D01*
Y132204D01*
X415095D01*
Y132118D01*
X415124D01*
Y132089D01*
X417932D01*
Y132118D01*
X417961D01*
Y132146D01*
X417932D01*
Y132519D01*
X417903D01*
Y132662D01*
X417875D01*
Y132777D01*
X417846D01*
Y132863D01*
X417817D01*
Y132949D01*
X417789D01*
Y133006D01*
X417760D01*
Y133092D01*
X417732D01*
Y133121D01*
X417703D01*
Y133178D01*
X417674D01*
Y133207D01*
X417645D01*
Y133264D01*
X417617D01*
Y133293D01*
X417588D01*
Y133321D01*
X417560D01*
Y133379D01*
X417502D01*
Y133407D01*
X417474D01*
Y133436D01*
X417445D01*
Y133465D01*
X417416D01*
Y133493D01*
X417388D01*
Y133522D01*
X417330D01*
Y133551D01*
X417302D01*
Y133579D01*
X417244D01*
Y133608D01*
X417158D01*
Y133637D01*
X417101D01*
Y133665D01*
X417015D01*
Y133694D01*
X416900D01*
Y133722D01*
X416757D01*
Y133751D01*
D02*
G37*
%LPD*%
D22*
X402284Y339250D02*
D03*
X397284Y360875D02*
D03*
X402284D02*
D03*
X397284Y339250D02*
D03*
X407284Y339125D02*
D03*
X412284D02*
D03*
Y360875D02*
D03*
X407284D02*
D03*
X307716Y520750D02*
D03*
X312716Y499125D02*
D03*
X307716D02*
D03*
X312716Y520750D02*
D03*
X302716Y520875D02*
D03*
X297716D02*
D03*
Y499125D02*
D03*
X302716D02*
D03*
X402284Y79250D02*
D03*
X397284Y100875D02*
D03*
X402284D02*
D03*
X397284Y79250D02*
D03*
X407284Y79125D02*
D03*
X412284D02*
D03*
Y100875D02*
D03*
X407284D02*
D03*
X307716Y260750D02*
D03*
X312716Y239125D02*
D03*
X307716D02*
D03*
X312716Y260750D02*
D03*
X302716Y260875D02*
D03*
X297716D02*
D03*
Y239125D02*
D03*
X302716D02*
D03*
D23*
X415659Y347500D02*
D03*
Y352500D02*
D03*
X294341Y512500D02*
D03*
Y507500D02*
D03*
X415659Y87500D02*
D03*
Y92500D02*
D03*
X294341Y252500D02*
D03*
Y247500D02*
D03*
D26*
X397159Y347500D02*
D03*
Y352500D02*
D03*
X412409D02*
D03*
Y347500D02*
D03*
X312841Y512500D02*
D03*
Y507500D02*
D03*
X297591D02*
D03*
Y512500D02*
D03*
X397159Y87500D02*
D03*
Y92500D02*
D03*
X412409D02*
D03*
Y87500D02*
D03*
X312841Y252500D02*
D03*
Y247500D02*
D03*
X297591D02*
D03*
Y252500D02*
D03*
D27*
X407284Y357625D02*
D03*
X412284D02*
D03*
Y342375D02*
D03*
X407284D02*
D03*
X397284D02*
D03*
Y357625D02*
D03*
X402284D02*
D03*
Y342375D02*
D03*
X302716Y502375D02*
D03*
X297716D02*
D03*
Y517625D02*
D03*
X302716D02*
D03*
X312716D02*
D03*
Y502375D02*
D03*
X307716D02*
D03*
Y517625D02*
D03*
X407284Y97625D02*
D03*
X412284D02*
D03*
Y82375D02*
D03*
X407284D02*
D03*
X397284D02*
D03*
Y97625D02*
D03*
X402284D02*
D03*
Y82375D02*
D03*
X302716Y242375D02*
D03*
X297716D02*
D03*
Y257625D02*
D03*
X302716D02*
D03*
X312716D02*
D03*
Y242375D02*
D03*
X307716D02*
D03*
Y257625D02*
D03*
D40*
X663089Y355750D02*
D03*
Y95750D02*
D03*
D41*
X47082Y505352D02*
D03*
Y245352D02*
D03*
D42*
X309251Y387630D02*
D03*
Y127630D02*
D03*
D43*
X400374Y472368D02*
D03*
Y212368D02*
D03*
D44*
X90000Y353000D02*
D03*
X620000Y507000D02*
D03*
Y247000D02*
D03*
X90000Y93000D02*
D03*
D45*
X488359Y347000D02*
G03*
X488359Y347000I-1450J0D01*
G01*
X492359D02*
G03*
X492359Y347000I-1450J0D01*
G01*
X496359D02*
G03*
X496359Y347000I-1450J0D01*
G01*
X500359D02*
G03*
X500359Y347000I-1450J0D01*
G01*
X504359D02*
G03*
X504359Y347000I-1450J0D01*
G01*
X488359Y351000D02*
G03*
X488359Y351000I-1450J0D01*
G01*
X492359D02*
G03*
X492359Y351000I-1450J0D01*
G01*
X496359D02*
G03*
X496359Y351000I-1450J0D01*
G01*
X500359D02*
G03*
X500359Y351000I-1450J0D01*
G01*
X504359D02*
G03*
X504359Y351000I-1450J0D01*
G01*
X488359Y355000D02*
G03*
X488359Y355000I-1450J0D01*
G01*
X492359D02*
G03*
X492359Y355000I-1450J0D01*
G01*
X496359D02*
G03*
X496359Y355000I-1450J0D01*
G01*
X500359D02*
G03*
X500359Y355000I-1450J0D01*
G01*
X504359D02*
G03*
X504359Y355000I-1450J0D01*
G01*
X488359Y359000D02*
G03*
X488359Y359000I-1450J0D01*
G01*
X492359D02*
G03*
X492359Y359000I-1450J0D01*
G01*
X496359D02*
G03*
X496359Y359000I-1450J0D01*
G01*
X500359D02*
G03*
X500359Y359000I-1450J0D01*
G01*
X504359D02*
G03*
X504359Y359000I-1450J0D01*
G01*
X488359Y363000D02*
G03*
X488359Y363000I-1450J0D01*
G01*
X492359D02*
G03*
X492359Y363000I-1450J0D01*
G01*
X496359D02*
G03*
X496359Y363000I-1450J0D01*
G01*
X500359D02*
G03*
X500359Y363000I-1450J0D01*
G01*
X504359D02*
G03*
X504359Y363000I-1450J0D01*
G01*
X221641Y513000D02*
G03*
X221641Y513000I1450J0D01*
G01*
X217641D02*
G03*
X217641Y513000I1450J0D01*
G01*
X213641D02*
G03*
X213641Y513000I1450J0D01*
G01*
X209641D02*
G03*
X209641Y513000I1450J0D01*
G01*
X205641D02*
G03*
X205641Y513000I1450J0D01*
G01*
X221641Y509000D02*
G03*
X221641Y509000I1450J0D01*
G01*
X217641D02*
G03*
X217641Y509000I1450J0D01*
G01*
X213641D02*
G03*
X213641Y509000I1450J0D01*
G01*
X209641D02*
G03*
X209641Y509000I1450J0D01*
G01*
X205641D02*
G03*
X205641Y509000I1450J0D01*
G01*
X221641Y505000D02*
G03*
X221641Y505000I1450J0D01*
G01*
X217641D02*
G03*
X217641Y505000I1450J0D01*
G01*
X213641D02*
G03*
X213641Y505000I1450J0D01*
G01*
X209641D02*
G03*
X209641Y505000I1450J0D01*
G01*
X205641D02*
G03*
X205641Y505000I1450J0D01*
G01*
X221641Y501000D02*
G03*
X221641Y501000I1450J0D01*
G01*
X217641D02*
G03*
X217641Y501000I1450J0D01*
G01*
X213641D02*
G03*
X213641Y501000I1450J0D01*
G01*
X209641D02*
G03*
X209641Y501000I1450J0D01*
G01*
X205641D02*
G03*
X205641Y501000I1450J0D01*
G01*
X221641Y497000D02*
G03*
X221641Y497000I1450J0D01*
G01*
X217641D02*
G03*
X217641Y497000I1450J0D01*
G01*
X213641D02*
G03*
X213641Y497000I1450J0D01*
G01*
X209641D02*
G03*
X209641Y497000I1450J0D01*
G01*
X205641D02*
G03*
X205641Y497000I1450J0D01*
G01*
X488359Y87000D02*
G03*
X488359Y87000I-1450J0D01*
G01*
X492359D02*
G03*
X492359Y87000I-1450J0D01*
G01*
X496359D02*
G03*
X496359Y87000I-1450J0D01*
G01*
X500359D02*
G03*
X500359Y87000I-1450J0D01*
G01*
X504359D02*
G03*
X504359Y87000I-1450J0D01*
G01*
X488359Y91000D02*
G03*
X488359Y91000I-1450J0D01*
G01*
X492359D02*
G03*
X492359Y91000I-1450J0D01*
G01*
X496359D02*
G03*
X496359Y91000I-1450J0D01*
G01*
X500359D02*
G03*
X500359Y91000I-1450J0D01*
G01*
X504359D02*
G03*
X504359Y91000I-1450J0D01*
G01*
X488359Y95000D02*
G03*
X488359Y95000I-1450J0D01*
G01*
X492359D02*
G03*
X492359Y95000I-1450J0D01*
G01*
X496359D02*
G03*
X496359Y95000I-1450J0D01*
G01*
X500359D02*
G03*
X500359Y95000I-1450J0D01*
G01*
X504359D02*
G03*
X504359Y95000I-1450J0D01*
G01*
X488359Y99000D02*
G03*
X488359Y99000I-1450J0D01*
G01*
X492359D02*
G03*
X492359Y99000I-1450J0D01*
G01*
X496359D02*
G03*
X496359Y99000I-1450J0D01*
G01*
X500359D02*
G03*
X500359Y99000I-1450J0D01*
G01*
X504359D02*
G03*
X504359Y99000I-1450J0D01*
G01*
X488359Y103000D02*
G03*
X488359Y103000I-1450J0D01*
G01*
X492359D02*
G03*
X492359Y103000I-1450J0D01*
G01*
X496359D02*
G03*
X496359Y103000I-1450J0D01*
G01*
X500359D02*
G03*
X500359Y103000I-1450J0D01*
G01*
X504359D02*
G03*
X504359Y103000I-1450J0D01*
G01*
X221641Y253000D02*
G03*
X221641Y253000I1450J0D01*
G01*
X217641D02*
G03*
X217641Y253000I1450J0D01*
G01*
X213641D02*
G03*
X213641Y253000I1450J0D01*
G01*
X209641D02*
G03*
X209641Y253000I1450J0D01*
G01*
X205641D02*
G03*
X205641Y253000I1450J0D01*
G01*
X221641Y249000D02*
G03*
X221641Y249000I1450J0D01*
G01*
X217641D02*
G03*
X217641Y249000I1450J0D01*
G01*
X213641D02*
G03*
X213641Y249000I1450J0D01*
G01*
X209641D02*
G03*
X209641Y249000I1450J0D01*
G01*
X205641D02*
G03*
X205641Y249000I1450J0D01*
G01*
X221641Y245000D02*
G03*
X221641Y245000I1450J0D01*
G01*
X217641D02*
G03*
X217641Y245000I1450J0D01*
G01*
X213641D02*
G03*
X213641Y245000I1450J0D01*
G01*
X209641D02*
G03*
X209641Y245000I1450J0D01*
G01*
X205641D02*
G03*
X205641Y245000I1450J0D01*
G01*
X221641Y241000D02*
G03*
X221641Y241000I1450J0D01*
G01*
X217641D02*
G03*
X217641Y241000I1450J0D01*
G01*
X213641D02*
G03*
X213641Y241000I1450J0D01*
G01*
X209641D02*
G03*
X209641Y241000I1450J0D01*
G01*
X205641D02*
G03*
X205641Y241000I1450J0D01*
G01*
X221641Y237000D02*
G03*
X221641Y237000I1450J0D01*
G01*
X217641D02*
G03*
X217641Y237000I1450J0D01*
G01*
X213641D02*
G03*
X213641Y237000I1450J0D01*
G01*
X209641D02*
G03*
X209641Y237000I1450J0D01*
G01*
X205641D02*
G03*
X205641Y237000I1450J0D01*
G01*
D46*
X402909Y445129D02*
D03*
X307091Y414871D02*
D03*
X402909Y185129D02*
D03*
X307091Y154871D02*
D03*
D47*
X133409Y347500D02*
D03*
Y362500D02*
D03*
X216409Y347500D02*
D03*
Y362500D02*
D03*
X300409Y347500D02*
D03*
Y362500D02*
D03*
X576591Y512500D02*
D03*
Y497500D02*
D03*
X493591Y512500D02*
D03*
Y497500D02*
D03*
X409591Y512500D02*
D03*
Y497500D02*
D03*
X133409Y87500D02*
D03*
Y102500D02*
D03*
X216409Y87500D02*
D03*
Y102500D02*
D03*
X300409Y87500D02*
D03*
Y102500D02*
D03*
X576591Y252500D02*
D03*
Y237500D02*
D03*
X493591Y252500D02*
D03*
Y237500D02*
D03*
X409591Y252500D02*
D03*
Y237500D02*
D03*
D48*
X377409Y353000D02*
D03*
Y337000D02*
D03*
Y357000D02*
D03*
Y373000D02*
D03*
X332591Y507000D02*
D03*
Y523000D02*
D03*
Y503000D02*
D03*
Y487000D02*
D03*
X377409Y93000D02*
D03*
Y77000D02*
D03*
Y97000D02*
D03*
Y113000D02*
D03*
X332591Y247000D02*
D03*
Y263000D02*
D03*
Y243000D02*
D03*
Y227000D02*
D03*
D49*
X399909Y373750D02*
D03*
X391409D02*
D03*
X411659D02*
D03*
X420159D02*
D03*
X486559Y335250D02*
D03*
X495059D02*
D03*
X310091Y486250D02*
D03*
X318591D02*
D03*
X298341D02*
D03*
X289841D02*
D03*
X223441Y524750D02*
D03*
X214941D02*
D03*
X399909Y113750D02*
D03*
X391409D02*
D03*
X411659D02*
D03*
X420159D02*
D03*
X486559Y75250D02*
D03*
X495059D02*
D03*
X310091Y226250D02*
D03*
X318591D02*
D03*
X298341D02*
D03*
X289841D02*
D03*
X223441Y264750D02*
D03*
X214941D02*
D03*
D50*
X515159Y362750D02*
D03*
Y354250D02*
D03*
X194841Y497250D02*
D03*
Y505750D02*
D03*
X515159Y102750D02*
D03*
Y94250D02*
D03*
X194841Y237250D02*
D03*
Y245750D02*
D03*
D51*
X514909Y334500D02*
D03*
X195091Y525500D02*
D03*
X514909Y74500D02*
D03*
X195091Y265500D02*
D03*
D52*
X515159Y343750D02*
D03*
X194841Y516250D02*
D03*
X515159Y83750D02*
D03*
X194841Y256250D02*
D03*
D53*
X514909Y374000D02*
D03*
X195091Y486000D02*
D03*
X514909Y114000D02*
D03*
X195091Y226000D02*
D03*
D54*
X442159Y370950D02*
D03*
X448659D02*
D03*
X455159D02*
D03*
X461659D02*
D03*
Y340050D02*
D03*
X455159D02*
D03*
X448659D02*
D03*
X442159D02*
D03*
X267841Y489050D02*
D03*
X261341D02*
D03*
X254841D02*
D03*
X248341D02*
D03*
Y519950D02*
D03*
X254841D02*
D03*
X261341D02*
D03*
X267841D02*
D03*
X442159Y110950D02*
D03*
X448659D02*
D03*
X455159D02*
D03*
X461659D02*
D03*
Y80050D02*
D03*
X455159D02*
D03*
X448659D02*
D03*
X442159D02*
D03*
X267841Y229050D02*
D03*
X261341D02*
D03*
X254841D02*
D03*
X248341D02*
D03*
Y259950D02*
D03*
X254841D02*
D03*
X261341D02*
D03*
X267841D02*
D03*
D55*
X425409Y445000D02*
D03*
X370409D02*
D03*
X395409D02*
D03*
X390409D02*
D03*
X385409D02*
D03*
X380409D02*
D03*
X375409D02*
D03*
X400409D02*
D03*
X405409D02*
D03*
X410409D02*
D03*
X415409D02*
D03*
X420409D02*
D03*
X430409D02*
D03*
X435409D02*
D03*
X284591Y415000D02*
D03*
X339591D02*
D03*
X314591D02*
D03*
X319591D02*
D03*
X324591D02*
D03*
X329591D02*
D03*
X334591D02*
D03*
X309591D02*
D03*
X304591D02*
D03*
X299591D02*
D03*
X294591D02*
D03*
X289591D02*
D03*
X279591D02*
D03*
X274591D02*
D03*
X425409Y185000D02*
D03*
X370409D02*
D03*
X395409D02*
D03*
X390409D02*
D03*
X385409D02*
D03*
X380409D02*
D03*
X375409D02*
D03*
X400409D02*
D03*
X405409D02*
D03*
X410409D02*
D03*
X415409D02*
D03*
X420409D02*
D03*
X430409D02*
D03*
X435409D02*
D03*
X284591Y155000D02*
D03*
X339591D02*
D03*
X314591D02*
D03*
X319591D02*
D03*
X324591D02*
D03*
X329591D02*
D03*
X334591D02*
D03*
X309591D02*
D03*
X304591D02*
D03*
X299591D02*
D03*
X294591D02*
D03*
X289591D02*
D03*
X279591D02*
D03*
X274591D02*
D03*
D56*
X503159Y374750D02*
D03*
X493159D02*
D03*
X206841Y485250D02*
D03*
X216841D02*
D03*
X503159Y114750D02*
D03*
X493159D02*
D03*
X206841Y225250D02*
D03*
X216841D02*
D03*
D57*
X486909Y347000D02*
D03*
X490909D02*
D03*
X494909D02*
D03*
X498909D02*
D03*
X502909D02*
D03*
X486909Y351000D02*
D03*
X490909D02*
D03*
X494909D02*
D03*
X498909D02*
D03*
X502909D02*
D03*
X486909Y355000D02*
D03*
X490909D02*
D03*
X494909D02*
D03*
X498909D02*
D03*
X502909D02*
D03*
X498909Y359000D02*
D03*
X502909D02*
D03*
X490909Y363000D02*
D03*
X494909D02*
D03*
X502909D02*
D03*
X490909Y359000D02*
D03*
X494909D02*
D03*
X498909Y363000D02*
D03*
X486909D02*
D03*
Y359000D02*
D03*
X223091Y513000D02*
D03*
X219091D02*
D03*
X215091D02*
D03*
X211091D02*
D03*
X207091D02*
D03*
X223091Y509000D02*
D03*
X219091D02*
D03*
X215091D02*
D03*
X211091D02*
D03*
X207091D02*
D03*
X223091Y505000D02*
D03*
X219091D02*
D03*
X215091D02*
D03*
X211091D02*
D03*
X207091D02*
D03*
X211091Y501000D02*
D03*
X207091D02*
D03*
X219091Y497000D02*
D03*
X215091D02*
D03*
X207091D02*
D03*
X219091Y501000D02*
D03*
X215091D02*
D03*
X211091Y497000D02*
D03*
X223091D02*
D03*
Y501000D02*
D03*
X486909Y87000D02*
D03*
X490909D02*
D03*
X494909D02*
D03*
X498909D02*
D03*
X502909D02*
D03*
X486909Y91000D02*
D03*
X490909D02*
D03*
X494909D02*
D03*
X498909D02*
D03*
X502909D02*
D03*
X486909Y95000D02*
D03*
X490909D02*
D03*
X494909D02*
D03*
X498909D02*
D03*
X502909D02*
D03*
X498909Y99000D02*
D03*
X502909D02*
D03*
X490909Y103000D02*
D03*
X494909D02*
D03*
X502909D02*
D03*
X490909Y99000D02*
D03*
X494909D02*
D03*
X498909Y103000D02*
D03*
X486909D02*
D03*
Y99000D02*
D03*
X223091Y253000D02*
D03*
X219091D02*
D03*
X215091D02*
D03*
X211091D02*
D03*
X207091D02*
D03*
X223091Y249000D02*
D03*
X219091D02*
D03*
X215091D02*
D03*
X211091D02*
D03*
X207091D02*
D03*
X223091Y245000D02*
D03*
X219091D02*
D03*
X215091D02*
D03*
X211091D02*
D03*
X207091D02*
D03*
X211091Y241000D02*
D03*
X207091D02*
D03*
X219091Y237000D02*
D03*
X215091D02*
D03*
X207091D02*
D03*
X219091Y241000D02*
D03*
X215091D02*
D03*
X211091Y237000D02*
D03*
X223091D02*
D03*
Y241000D02*
D03*
D58*
X25357Y585000D02*
D03*
X695000Y584643D02*
D03*
X694643Y25000D02*
D03*
X25000D02*
D03*
M02*
