G04*
G04 #@! TF.GenerationSoftware,Altium Limited,Altium Designer,22.8.2 (66)*
G04*
G04 Layer_Color=8421504*
%FSLAX44Y44*%
%MOMM*%
G71*
G04*
G04 #@! TF.SameCoordinates,FAA1CB19-FA28-413B-BED9-D0803A41280B*
G04*
G04*
G04 #@! TF.FilePolarity,Positive*
G04*
G01*
G75*
%ADD13R,2.0000X0.8000*%
%ADD14R,1.0000X0.9500*%
%ADD15R,0.6500X0.5500*%
%ADD16R,0.5500X0.6500*%
G04:AMPARAMS|DCode=20|XSize=0.84mm|YSize=0.32mm|CornerRadius=0.04mm|HoleSize=0mm|Usage=FLASHONLY|Rotation=90.000|XOffset=0mm|YOffset=0mm|HoleType=Round|Shape=RoundedRectangle|*
%AMROUNDEDRECTD20*
21,1,0.8400,0.2400,0,0,90.0*
21,1,0.7600,0.3200,0,0,90.0*
1,1,0.0800,0.1200,0.3800*
1,1,0.0800,0.1200,-0.3800*
1,1,0.0800,-0.1200,-0.3800*
1,1,0.0800,-0.1200,0.3800*
%
%ADD20ROUNDEDRECTD20*%
%ADD24R,0.6800X0.6200*%
%ADD26R,0.3750X0.3500*%
%ADD27R,0.3500X0.3750*%
%ADD39C,0.2750*%
D13*
X133409Y347500D02*
D03*
Y362500D02*
D03*
X216409Y347500D02*
D03*
Y362500D02*
D03*
X300409Y347500D02*
D03*
Y362500D02*
D03*
X576591Y512500D02*
D03*
Y497500D02*
D03*
X493591Y512500D02*
D03*
Y497500D02*
D03*
X409591Y512500D02*
D03*
Y497500D02*
D03*
X133409Y87500D02*
D03*
Y102500D02*
D03*
X216409Y87500D02*
D03*
Y102500D02*
D03*
X300409Y87500D02*
D03*
Y102500D02*
D03*
X576591Y252500D02*
D03*
Y237500D02*
D03*
X493591Y252500D02*
D03*
Y237500D02*
D03*
X409591Y252500D02*
D03*
Y237500D02*
D03*
D14*
X377409Y353000D02*
D03*
Y337000D02*
D03*
Y357000D02*
D03*
Y373000D02*
D03*
X332591Y507000D02*
D03*
Y523000D02*
D03*
Y503000D02*
D03*
Y487000D02*
D03*
X377409Y93000D02*
D03*
Y77000D02*
D03*
Y97000D02*
D03*
Y113000D02*
D03*
X332591Y247000D02*
D03*
Y263000D02*
D03*
Y243000D02*
D03*
Y227000D02*
D03*
D15*
X399909Y373750D02*
D03*
X391409D02*
D03*
X411659D02*
D03*
X420159D02*
D03*
X486559Y335250D02*
D03*
X495059D02*
D03*
X310091Y486250D02*
D03*
X318591D02*
D03*
X298341D02*
D03*
X289841D02*
D03*
X223441Y524750D02*
D03*
X214941D02*
D03*
X399909Y113750D02*
D03*
X391409D02*
D03*
X411659D02*
D03*
X420159D02*
D03*
X486559Y75250D02*
D03*
X495059D02*
D03*
X310091Y226250D02*
D03*
X318591D02*
D03*
X298341D02*
D03*
X289841D02*
D03*
X223441Y264750D02*
D03*
X214941D02*
D03*
D16*
X515159Y362750D02*
D03*
Y354250D02*
D03*
X194841Y497250D02*
D03*
Y505750D02*
D03*
X515159Y102750D02*
D03*
Y94250D02*
D03*
X194841Y237250D02*
D03*
Y245750D02*
D03*
D20*
X442159Y370950D02*
D03*
X448659D02*
D03*
X455159D02*
D03*
X461659D02*
D03*
Y340050D02*
D03*
X455159D02*
D03*
X448659D02*
D03*
X442159D02*
D03*
X267841Y489050D02*
D03*
X261341D02*
D03*
X254841D02*
D03*
X248341D02*
D03*
Y519950D02*
D03*
X254841D02*
D03*
X261341D02*
D03*
X267841D02*
D03*
X442159Y110950D02*
D03*
X448659D02*
D03*
X455159D02*
D03*
X461659D02*
D03*
Y80050D02*
D03*
X455159D02*
D03*
X448659D02*
D03*
X442159D02*
D03*
X267841Y229050D02*
D03*
X261341D02*
D03*
X254841D02*
D03*
X248341D02*
D03*
Y259950D02*
D03*
X254841D02*
D03*
X261341D02*
D03*
X267841D02*
D03*
D24*
X503159Y374750D02*
D03*
X493159D02*
D03*
X206841Y485250D02*
D03*
X216841D02*
D03*
X503159Y114750D02*
D03*
X493159D02*
D03*
X206841Y225250D02*
D03*
X216841D02*
D03*
D26*
X397159Y347500D02*
D03*
Y352500D02*
D03*
X412409D02*
D03*
Y347500D02*
D03*
X312841Y512500D02*
D03*
Y507500D02*
D03*
X297591D02*
D03*
Y512500D02*
D03*
X397159Y87500D02*
D03*
Y92500D02*
D03*
X412409D02*
D03*
Y87500D02*
D03*
X312841Y252500D02*
D03*
Y247500D02*
D03*
X297591D02*
D03*
Y252500D02*
D03*
D27*
X407284Y357625D02*
D03*
X412284D02*
D03*
Y342375D02*
D03*
X407284D02*
D03*
X397284D02*
D03*
Y357625D02*
D03*
X402284D02*
D03*
Y342375D02*
D03*
X302716Y502375D02*
D03*
X297716D02*
D03*
Y517625D02*
D03*
X302716D02*
D03*
X312716D02*
D03*
Y502375D02*
D03*
X307716D02*
D03*
Y517625D02*
D03*
X407284Y97625D02*
D03*
X412284D02*
D03*
Y82375D02*
D03*
X407284D02*
D03*
X397284D02*
D03*
Y97625D02*
D03*
X402284D02*
D03*
Y82375D02*
D03*
X302716Y242375D02*
D03*
X297716D02*
D03*
Y257625D02*
D03*
X302716D02*
D03*
X312716D02*
D03*
Y242375D02*
D03*
X307716D02*
D03*
Y257625D02*
D03*
D39*
X486909Y347000D02*
D03*
X490909D02*
D03*
X494909D02*
D03*
X498909D02*
D03*
X502909D02*
D03*
X486909Y351000D02*
D03*
X490909D02*
D03*
X494909D02*
D03*
X498909D02*
D03*
X502909D02*
D03*
X486909Y355000D02*
D03*
X490909D02*
D03*
X494909D02*
D03*
X498909D02*
D03*
X502909D02*
D03*
X498909Y359000D02*
D03*
X502909D02*
D03*
X490909Y363000D02*
D03*
X494909D02*
D03*
X502909D02*
D03*
X490909Y359000D02*
D03*
X494909D02*
D03*
X498909Y363000D02*
D03*
X486909D02*
D03*
Y359000D02*
D03*
X223091Y513000D02*
D03*
X219091D02*
D03*
X215091D02*
D03*
X211091D02*
D03*
X207091D02*
D03*
X223091Y509000D02*
D03*
X219091D02*
D03*
X215091D02*
D03*
X211091D02*
D03*
X207091D02*
D03*
X223091Y505000D02*
D03*
X219091D02*
D03*
X215091D02*
D03*
X211091D02*
D03*
X207091D02*
D03*
X211091Y501000D02*
D03*
X207091D02*
D03*
X219091Y497000D02*
D03*
X215091D02*
D03*
X207091D02*
D03*
X219091Y501000D02*
D03*
X215091D02*
D03*
X211091Y497000D02*
D03*
X223091D02*
D03*
Y501000D02*
D03*
X486909Y87000D02*
D03*
X490909D02*
D03*
X494909D02*
D03*
X498909D02*
D03*
X502909D02*
D03*
X486909Y91000D02*
D03*
X490909D02*
D03*
X494909D02*
D03*
X498909D02*
D03*
X502909D02*
D03*
X486909Y95000D02*
D03*
X490909D02*
D03*
X494909D02*
D03*
X498909D02*
D03*
X502909D02*
D03*
X498909Y99000D02*
D03*
X502909D02*
D03*
X490909Y103000D02*
D03*
X494909D02*
D03*
X502909D02*
D03*
X490909Y99000D02*
D03*
X494909D02*
D03*
X498909Y103000D02*
D03*
X486909D02*
D03*
Y99000D02*
D03*
X223091Y253000D02*
D03*
X219091D02*
D03*
X215091D02*
D03*
X211091D02*
D03*
X207091D02*
D03*
X223091Y249000D02*
D03*
X219091D02*
D03*
X215091D02*
D03*
X211091D02*
D03*
X207091D02*
D03*
X223091Y245000D02*
D03*
X219091D02*
D03*
X215091D02*
D03*
X211091D02*
D03*
X207091D02*
D03*
X211091Y241000D02*
D03*
X207091D02*
D03*
X219091Y237000D02*
D03*
X215091D02*
D03*
X207091D02*
D03*
X219091Y241000D02*
D03*
X215091D02*
D03*
X211091Y237000D02*
D03*
X223091D02*
D03*
Y241000D02*
D03*
M02*
