M48
;Layer_Color=9474304
;FILE_FORMAT=4:4
METRIC,LZ
;TYPE=PLATED
T1F00S00C0.1500
T2F00S00C0.2000
T3F00S00C2.0000
%
T01
X00091753Y00075833
X0010167
X00111587
X00121503
Y0008575
X00111587
Y00095667
X0010167
Y0008575
X00091753
Y00095667
X00121503
X00177834Y000825
X00189982Y00070504
X00202753Y00082581
X00259003Y0009425
X00276168Y00078059
X00315917Y0007775
X00316753Y0008675
X00326414Y00095
X00346003Y0008175
X00370003Y00087
X00363753Y000975
X00392253Y0009575
X00388503Y00092
X00388753Y0007625
X00416503Y00083
X00421128Y00079625
X00422253Y0009175
X00441003Y00092
X00442003Y0007625
X00436003Y0007975
X00448503Y00102
X00455503Y000955
X00465753Y0009125
X00467003Y00083
X00467503Y0007625
X00479503
X00481253Y0008925
X00482003Y0009575
X00481753Y0010075
X00490257Y0008325
X00494753Y00083063
X00499253Y00082992
X00507753Y00081
X00515003Y0008
X00508003Y000925
X00500753Y0007375
X00537003Y000895
X00503753Y001085
X00494253Y0010875
X00486796Y00111771
X00486366Y0011625
X00481424Y00112
X00466003Y0010525
X00465747Y00227
X00450997Y0024575
X00504949Y00234879
X00507247Y00257419
X00520018Y00269496
X00532165Y002575
X00532247Y00232581
X00588497Y00234417
Y00244333
X00598413
Y0025425
Y00264167
X0060833
Y0025425
Y00244333
Y00234417
X00598413
Y002245
X00588497
X0060833
X00618247
Y00234417
Y00244333
Y0025425
Y00264167
X00588497
Y0025425
X00537003Y003595
X00515003Y0035
X00507753Y00351
X00499253Y00352992
X00494753Y00353063
X00490257Y0035325
X00481253Y0035925
X00482003Y0036575
X00481753Y0037075
X00481424Y00382
X00486796Y00381771
X00486366Y0038625
X00494253Y0037875
X00503753Y003785
X00508003Y003625
X00500753Y0034375
X00479503Y0034625
X00467503
X00467003Y00353
X00465753Y0036125
X00466003Y0037525
X00455503Y003655
X00465747Y00497
X00588497Y004945
X00598413
X0060833
X00618247
X00435253Y00431
X00430253
X00425253
X00420253
X00415253
X00410253
X00405253
X00400253
X00395253
X00390253
X00385253
X00380253
X00375253
X00370253
X00371253Y00398
X00371753Y003885
X00370003Y00374
X00363753Y003675
X00370003Y00357
X00388503Y00362
X00392253Y0036575
X00389253Y0037525
X00402128Y003779
X00405253Y003865
X00417753Y00377
X00422253Y0036175
X00421128Y00349625
X00416503Y00353
X00436003Y0034975
X00442003Y0034625
X00441003Y00362
X00448503Y00372
X00437503Y0037625
X00435753Y0038575
X00388753Y0034625
X00346003Y0035175
X00347003Y0037475
X00325253Y00378
X00312753Y0037775
X00316753Y0035675
X00315917Y0034775
X00326414Y00365
X00280753Y003785
X00276168Y00348059
X00259003Y0036425
X00244253Y00383
X00205051Y00375121
X00202753Y00352581
X00189982Y00340504
X00177834Y003525
X00177753Y00377419
X00121503Y00375583
Y00365667
X00111587
Y0035575
Y00345833
X0010167
Y0035575
Y00365667
Y00375583
X00111587
Y003855
X00121503
X0010167
X00091753
Y00375583
Y00365667
Y0035575
Y00345833
X00121503
Y0035575
X00172997Y002505
X00194997Y0026
X00202247Y00259
X00210747Y00257008
X00215247Y00256937
X00219743Y0025675
X00228747Y0025075
X00227997Y0024425
X00228247Y0023925
X00228576Y00228
X00223204Y00228229
X00223634Y0022375
X00215747Y0023125
X00206247Y002315
X00201997Y002475
X00209247Y0026625
X00230497Y0026375
X00242497
X00242997Y00257
X00244247Y0024875
X00243997Y0023475
X00254497Y002445
X00261497Y00238
X00272497Y0023375
X00274247Y0022425
X00292247Y00233
X00307872Y002321
X00304747Y002235
X00320747Y0023475
X00317747Y0024425
X00321497Y00248
X00321247Y0026375
X00339997Y00253
X00346247Y002425
X00339997Y00236
X00338247Y002215
X00338747Y00212
X00339747Y00179
X00334747
X00329747
X00324747
X00319747
X00314747
X00309747
X00304747
X00299747
X00294747
X00289747
X00284747
X00279747
X00274747
X00268997Y00248
X00267997Y0026375
X00273997Y0026025
X00288872Y00260375
X00293497Y00257
X00287747Y0024825
X00363997Y0025825
X00362997Y0023525
X00384747Y00232
X00397247Y0023225
X00393247Y0025325
X00394082Y0026225
X00383586Y00245
X00429247Y002315
X00433833Y00261941
X00435253Y00161
X00430253
X00425253
X00420253
X00415253
X00410253
X00405253
X00400253
X00395253
X00390253
X00385253
X00380253
X00375253
X00370253
X00371253Y00128
X00371753Y001185
X00370003Y00104
X00389253Y0010525
X00402128Y001079
X00405253Y001165
X00417753Y00107
X00437503Y0010625
X00435753Y0011575
X00347003Y0010475
X00325253Y00108
X00312753Y0010775
X00280753Y001085
X00244253Y00113
X00205051Y00105121
X00177753Y00107419
X00121503Y00105583
X00111587
X0010167
X00091753
Y001155
X0010167
X00111587
X00121503
X00223634Y0049375
X00223204Y00498229
X00228576Y00498
X00274247Y0049425
X00304747Y004935
X00338247Y004915
X00338747Y00482
X00339747Y00449
X00334747
X00329747
X00324747
X00319747
X00314747
X00309747
X00304747
X00299747
X00294747
X00289747
X00284747
X00279747
X00274747
X00272497Y0050375
X00261497Y00508
X00254497Y005145
X00244247Y0051875
X00242997Y00527
X00242497Y0053375
X00230497
X00228747Y0052075
X00227997Y0051425
X00228247Y0050925
X00243997Y0050475
X00215747Y0050125
X00206247Y005015
X00201997Y005175
X00202247Y00529
X00194997Y0053
X00210747Y00527008
X00215247Y00526937
X00219743Y0052675
X00209247Y0053625
X00172997Y005205
X00268997Y00518
X00267997Y0053375
X00273997Y0053025
X00288872Y00530375
X00293497Y00527
X00287747Y0051825
X00292247Y00503
X00307872Y005021
X00320747Y0050475
X00317747Y0051425
X00321497Y00518
X00321247Y0053375
X00339997Y00523
X00346247Y005125
X00339997Y00506
X00362997Y0050525
X00363997Y0052825
X00383586Y00515
X00384747Y00502
X00397247Y0050225
X00393247Y0052325
X00394082Y0053225
X00433833Y00531941
X00429247Y005015
X00450997Y0051575
X00504949Y00504879
X00507247Y00527419
X00520018Y00539496
X00532165Y005275
X00532247Y00502581
X00588497Y00504417
Y00514333
X00598413
Y0052425
Y00534167
X0060833
Y0052425
Y00514333
Y00504417
X00598413
X00618247
Y00514333
Y0052425
Y00534167
X00588497
Y0052425
T02
X00291253Y0008025
X00301253
Y0009025
X00291253
Y0010025
X00301253
X00408747Y0023975
Y0024975
Y0025975
X00418747
Y0024975
Y0023975
X00301253Y0035025
X00291253
Y0036025
X00301253
Y0037025
X00291253
X00408747Y0050975
Y0051975
Y0052975
X00418747
Y0051975
Y0050975
T03
X00025Y00025
X00694643
X00025357Y00585
X00695Y00584643
M30
