G04*
G04 #@! TF.GenerationSoftware,Altium Limited,Altium Designer,22.8.2 (66)*
G04*
G04 Layer_Color=16711935*
%FSLAX44Y44*%
%MOMM*%
G71*
G04*
G04 #@! TF.SameCoordinates,2FE0B69B-5364-48D5-AE08-4430375559E1*
G04*
G04*
G04 #@! TF.FilePolarity,Positive*
G04*
G01*
G75*
%ADD13C,0.2000*%
%ADD66C,0.0500*%
%ADD67C,0.0500*%
D13*
X25178Y610000D02*
G03*
X0Y584822I0J-25178D01*
G01*
X720000D02*
G03*
X694822Y610000I-25178J0D01*
G01*
X694822Y0D02*
G03*
X720000Y25178I0J25178D01*
G01*
X0D02*
G03*
X25178Y0I25178J0D01*
G01*
X694822D01*
X720000Y25178D02*
X720000Y584822D01*
X25178Y610000D02*
X694822D01*
X0Y387608D02*
Y584822D01*
Y25178D02*
Y387608D01*
X353835Y414832D02*
X352503Y413499D01*
Y410833D01*
X353835Y409500D01*
X359167D01*
X360500Y410833D01*
Y413499D01*
X359167Y414832D01*
X352503Y417497D02*
X359167D01*
X360500Y418830D01*
Y421496D01*
X359167Y422829D01*
X352503D01*
Y425495D02*
Y430826D01*
Y428161D01*
X360500D01*
X356501Y433492D02*
Y438824D01*
X352503Y445488D02*
Y442823D01*
X353835Y441490D01*
X359167D01*
X360500Y442823D01*
Y445488D01*
X359167Y446821D01*
X353835D01*
X352503Y445488D01*
Y449487D02*
X359167D01*
X360500Y450820D01*
Y453486D01*
X359167Y454819D01*
X352503D01*
Y457485D02*
Y462816D01*
Y460150D01*
X360500D01*
X313822Y333210D02*
X312489Y334543D01*
X309823D01*
X308490Y333210D01*
Y327879D01*
X309823Y326546D01*
X312489D01*
X313822Y327879D01*
X316487Y334543D02*
Y327879D01*
X317820Y326546D01*
X320486D01*
X321819Y327879D01*
Y334543D01*
X324485D02*
X329816D01*
X327151D01*
Y326546D01*
X332482Y330545D02*
X337814D01*
X344478Y334543D02*
X341813D01*
X340480Y333210D01*
Y327879D01*
X341813Y326546D01*
X344478D01*
X345811Y327879D01*
Y333210D01*
X344478Y334543D01*
X348477D02*
Y327879D01*
X349810Y326546D01*
X352476D01*
X353809Y327879D01*
Y334543D01*
X356474D02*
X361806D01*
X359140D01*
Y326546D01*
X313822Y553210D02*
X312489Y554543D01*
X309823D01*
X308490Y553210D01*
Y547879D01*
X309823Y546546D01*
X312489D01*
X313822Y547879D01*
X316487Y554543D02*
Y547879D01*
X317820Y546546D01*
X320486D01*
X321819Y547879D01*
Y554543D01*
X324485D02*
X329816D01*
X327151D01*
Y546546D01*
X332482Y550545D02*
X337814D01*
X344478Y554543D02*
X341813D01*
X340480Y553210D01*
Y547879D01*
X341813Y546546D01*
X344478D01*
X345811Y547879D01*
Y553210D01*
X344478Y554543D01*
X348477D02*
Y547879D01*
X349810Y546546D01*
X352476D01*
X353809Y547879D01*
Y554543D01*
X356474D02*
X361806D01*
X359140D01*
Y546546D01*
X114832Y438665D02*
X113499Y439997D01*
X110833D01*
X109500Y438665D01*
Y433333D01*
X110833Y432000D01*
X113499D01*
X114832Y433333D01*
X117497Y439997D02*
Y433333D01*
X118830Y432000D01*
X121496D01*
X122829Y433333D01*
Y439997D01*
X125495D02*
X130826D01*
X128161D01*
Y432000D01*
X133492Y435999D02*
X138824D01*
X145488Y439997D02*
X142823D01*
X141490Y438665D01*
Y433333D01*
X142823Y432000D01*
X145488D01*
X146821Y433333D01*
Y438665D01*
X145488Y439997D01*
X149487D02*
Y433333D01*
X150820Y432000D01*
X153486D01*
X154819Y433333D01*
Y439997D01*
X157485D02*
X162816D01*
X160150D01*
Y432000D01*
X517332Y438665D02*
X515999Y439997D01*
X513333D01*
X512000Y438665D01*
Y433333D01*
X513333Y432000D01*
X515999D01*
X517332Y433333D01*
X519997Y439997D02*
Y433333D01*
X521330Y432000D01*
X523996D01*
X525329Y433333D01*
Y439997D01*
X527995D02*
X533326D01*
X530661D01*
Y432000D01*
X535992Y435999D02*
X541324D01*
X547988Y439997D02*
X545323D01*
X543990Y438665D01*
Y433333D01*
X545323Y432000D01*
X547988D01*
X549321Y433333D01*
Y438665D01*
X547988Y439997D01*
X551987D02*
Y433333D01*
X553320Y432000D01*
X555986D01*
X557319Y433333D01*
Y439997D01*
X559985D02*
X565316D01*
X562650D01*
Y432000D01*
X353835Y144832D02*
X352503Y143499D01*
Y140833D01*
X353835Y139500D01*
X359167D01*
X360500Y140833D01*
Y143499D01*
X359167Y144832D01*
X352503Y147497D02*
X359167D01*
X360500Y148830D01*
Y151496D01*
X359167Y152829D01*
X352503D01*
Y155495D02*
Y160826D01*
Y158161D01*
X360500D01*
X356501Y163492D02*
Y168824D01*
X352503Y175488D02*
Y172823D01*
X353835Y171490D01*
X359167D01*
X360500Y172823D01*
Y175488D01*
X359167Y176821D01*
X353835D01*
X352503Y175488D01*
Y179487D02*
X359167D01*
X360500Y180820D01*
Y183486D01*
X359167Y184819D01*
X352503D01*
Y187484D02*
Y192816D01*
Y190150D01*
X360500D01*
X313822Y63211D02*
X312489Y64543D01*
X309823D01*
X308490Y63211D01*
Y57879D01*
X309823Y56546D01*
X312489D01*
X313822Y57879D01*
X316487Y64543D02*
Y57879D01*
X317820Y56546D01*
X320486D01*
X321819Y57879D01*
Y64543D01*
X324485D02*
X329816D01*
X327151D01*
Y56546D01*
X332482Y60545D02*
X337814D01*
X344478Y64543D02*
X341813D01*
X340480Y63211D01*
Y57879D01*
X341813Y56546D01*
X344478D01*
X345811Y57879D01*
Y63211D01*
X344478Y64543D01*
X348477D02*
Y57879D01*
X349810Y56546D01*
X352476D01*
X353809Y57879D01*
Y64543D01*
X356474D02*
X361806D01*
X359140D01*
Y56546D01*
X313822Y283211D02*
X312489Y284543D01*
X309823D01*
X308490Y283211D01*
Y277879D01*
X309823Y276546D01*
X312489D01*
X313822Y277879D01*
X316487Y284543D02*
Y277879D01*
X317820Y276546D01*
X320486D01*
X321819Y277879D01*
Y284543D01*
X324485D02*
X329816D01*
X327151D01*
Y276546D01*
X332482Y280545D02*
X337814D01*
X344478Y284543D02*
X341813D01*
X340480Y283211D01*
Y277879D01*
X341813Y276546D01*
X344478D01*
X345811Y277879D01*
Y283211D01*
X344478Y284543D01*
X348477D02*
Y277879D01*
X349810Y276546D01*
X352476D01*
X353809Y277879D01*
Y284543D01*
X356474D02*
X361806D01*
X359140D01*
Y276546D01*
X114832Y168664D02*
X113499Y169997D01*
X110833D01*
X109500Y168664D01*
Y163333D01*
X110833Y162000D01*
X113499D01*
X114832Y163333D01*
X117497Y169997D02*
Y163333D01*
X118830Y162000D01*
X121496D01*
X122829Y163333D01*
Y169997D01*
X125495D02*
X130826D01*
X128161D01*
Y162000D01*
X133492Y165999D02*
X138824D01*
X145488Y169997D02*
X142823D01*
X141490Y168664D01*
Y163333D01*
X142823Y162000D01*
X145488D01*
X146821Y163333D01*
Y168664D01*
X145488Y169997D01*
X149487D02*
Y163333D01*
X150820Y162000D01*
X153486D01*
X154819Y163333D01*
Y169997D01*
X157485D02*
X162816D01*
X160150D01*
Y162000D01*
X517332Y168664D02*
X515999Y169997D01*
X513333D01*
X512000Y168664D01*
Y163333D01*
X513333Y162000D01*
X515999D01*
X517332Y163333D01*
X519997Y169997D02*
Y163333D01*
X521330Y162000D01*
X523996D01*
X525329Y163333D01*
Y169997D01*
X527995D02*
X533326D01*
X530661D01*
Y162000D01*
X535992Y165999D02*
X541324D01*
X547988Y169997D02*
X545323D01*
X543990Y168664D01*
Y163333D01*
X545323Y162000D01*
X547988D01*
X549321Y163333D01*
Y168664D01*
X547988Y169997D01*
X551987D02*
Y163333D01*
X553320Y162000D01*
X555986D01*
X557319Y163333D01*
Y169997D01*
X559985D02*
X565316D01*
X562650D01*
Y162000D01*
D66*
X665408Y51000D02*
Y79296D01*
X75000Y51000D02*
X665408D01*
X75000D02*
Y72500D01*
X80000D01*
Y62970D02*
Y72500D01*
Y62970D02*
X80054Y62410D01*
X80485Y61346D01*
X81285Y60522D01*
X82335Y60058D01*
X82907Y59986D01*
X221408D01*
X222295Y60029D01*
X224036Y60375D01*
X225675Y61055D01*
X227151Y62041D01*
X227809Y62637D01*
X227809Y62637D01*
X233036Y67864D01*
X233541Y68369D01*
X234727Y69161D01*
X236045Y69707D01*
X237444Y69986D01*
X238158Y69985D01*
X238158Y69985D01*
X660408Y69985D01*
Y79296D01*
X665408D01*
X49592Y220011D02*
Y230000D01*
Y220011D02*
X265587D01*
X267425Y219249D01*
X268831Y217843D01*
X269592Y216005D01*
Y215011D02*
Y216005D01*
Y215011D02*
X269594Y138101D01*
Y138101D02*
Y138101D01*
Y138101D02*
X269633Y137514D01*
X270048Y136419D01*
X270850Y135566D01*
X271918Y135086D01*
X272501Y135010D01*
X281250Y135010D01*
Y120000D02*
Y135010D01*
X258250Y120000D02*
X281250D01*
X258250Y119990D02*
Y120000D01*
X238158Y119990D02*
X258250D01*
X237444Y119989D02*
X238158Y119990D01*
X236045Y120267D02*
X237444Y119989D01*
X234727Y120814D02*
X236045Y120267D01*
X233541Y121606D02*
X234727Y120814D01*
X233036Y122111D02*
X233541Y121606D01*
X227809Y127338D02*
X233036Y122111D01*
X227809Y127338D02*
X227809Y127338D01*
X227151Y127935D02*
X227809Y127338D01*
X225676Y128922D02*
X227151Y127935D01*
X224036Y129601D02*
X225676Y128922D01*
X222295Y129946D02*
X224036Y129601D01*
X221408Y129990D02*
X222295Y129946D01*
X82908Y129988D02*
X221408Y129990D01*
X82908Y129988D02*
X82908Y129988D01*
X82336Y129916D02*
X82908Y129988D01*
X81285Y129453D02*
X82336Y129916D01*
X80485Y128630D02*
X81285Y129453D01*
X80054Y127566D02*
X80485Y128630D01*
X80000Y127007D02*
X80054Y127566D01*
X80000Y113500D02*
Y127007D01*
X75000Y113500D02*
X80000D01*
X75000D02*
Y131900D01*
X52032Y154868D02*
X75000Y131900D01*
X52032Y154868D02*
X52032Y154868D01*
X50263Y156637D02*
X52032Y154868D01*
X47483Y160797D02*
X50263Y156637D01*
X45568Y165420D02*
X47483Y160797D01*
X44592Y170327D02*
X45568Y165420D01*
X44592Y170327D02*
X44592Y172829D01*
X44592Y213102D02*
X44592Y172829D01*
X44592Y213102D02*
X44592D01*
Y230000D01*
X49592D01*
X355170Y220000D02*
Y220011D01*
Y220000D02*
X377250D01*
Y204988D02*
Y220000D01*
X368499Y204988D02*
X377250D01*
X368498Y204988D02*
X368499Y204988D01*
X367912Y204948D02*
X368498Y204988D01*
X366817Y204534D02*
X367912Y204948D01*
X365964Y203731D02*
X366817Y204534D01*
X365483Y202664D02*
X365964Y203731D01*
X365408Y202080D02*
X365483Y202664D01*
X365408Y124990D02*
Y202080D01*
Y123995D02*
Y124990D01*
X364646Y122157D02*
X365408Y123995D01*
X363240Y120751D02*
X364646Y122157D01*
X361402Y119990D02*
X363240Y120751D01*
X354250Y119990D02*
X361402D01*
X354250D02*
Y120000D01*
X333920D02*
X354250D01*
X333920D02*
Y135012D01*
X341671D01*
X342258Y135051D01*
X343353Y135466D01*
X344206Y136269D01*
X344687Y137336D01*
X344762Y137920D01*
X344762Y215011D01*
Y216005D01*
X345523Y217843D01*
X346930Y219249D01*
X348768Y220011D01*
X355170D01*
X635000Y208100D02*
Y226500D01*
Y208100D02*
X657968Y185132D01*
X657968Y185132D02*
X657968Y185132D01*
X657968Y185132D02*
X659737Y183363D01*
X662517Y179203D01*
X664432Y174580D01*
X665408Y169673D01*
X665408Y167171D02*
X665408Y169673D01*
X665408Y167171D02*
X665408Y129300D01*
Y110000D02*
Y129300D01*
X660408Y110000D02*
X665408D01*
X660408D02*
Y119990D01*
X444413D02*
X660408D01*
X442575Y120751D02*
X444413Y119990D01*
X441169Y122157D02*
X442575Y120751D01*
X440408Y123995D02*
X441169Y122157D01*
X440408Y123995D02*
Y124990D01*
X440406Y201899D02*
X440408Y124990D01*
X440406Y201899D02*
X440406Y201899D01*
X440367Y202486D02*
X440406Y201899D01*
X439952Y203581D02*
X440367Y202486D01*
X439150Y204434D02*
X439952Y203581D01*
X438082Y204914D02*
X439150Y204434D01*
X437499Y204989D02*
X438082Y204914D01*
X429000Y204989D02*
X437499Y204989D01*
X429000Y204989D02*
Y220000D01*
X451750D01*
Y220011D01*
X471842D01*
X471842Y220010D02*
X471842Y220011D01*
X471842Y220010D02*
X472556Y220011D01*
X473955Y219732D01*
X475273Y219186D01*
X476459Y218394D01*
X476964Y217889D01*
X482191Y212662D01*
X482191D02*
X482191D01*
X482191D02*
X482849Y212065D01*
X484324Y211078D01*
X485964Y210399D01*
X487705Y210054D01*
X488592Y210011D01*
X627092Y210012D01*
X627092D02*
X627092D01*
X627092D02*
X627664Y210084D01*
X628715Y210547D01*
X629515Y211370D01*
X629946Y212434D01*
X630000Y212994D01*
Y226500D01*
X635000D01*
Y267500D02*
Y289000D01*
X630000Y267500D02*
X635000D01*
X630000D02*
Y276925D01*
X629960Y277512D02*
X630000Y276925D01*
X629545Y278606D02*
X629960Y277512D01*
X628743Y279459D02*
X629545Y278606D01*
X627676Y279939D02*
X628743Y279459D01*
X627093Y280014D02*
X627676Y279939D01*
X627092Y280014D02*
X627093Y280014D01*
X488592Y280014D02*
X627092D01*
X487705Y279971D02*
X488592Y280014D01*
X485964Y279625D02*
X487705Y279971D01*
X484324Y278945D02*
X485964Y279625D01*
X482849Y277959D02*
X484324Y278945D01*
X482191Y277363D02*
X482849Y277959D01*
X476964Y272136D02*
X482191Y277363D01*
X476459Y271631D02*
X476964Y272136D01*
X475273Y270839D02*
X476459Y271631D01*
X473955Y270293D02*
X475273Y270839D01*
X472556Y270015D02*
X473955Y270293D01*
X471843Y270015D02*
X472556Y270015D01*
X471842Y270014D02*
X471843Y270015D01*
X49592Y270014D02*
X471842Y270014D01*
X49592Y260704D02*
Y270014D01*
X44592Y260704D02*
X49592D01*
X44592D02*
Y289000D01*
X635000D01*
X665408Y321000D02*
Y349296D01*
X75000Y321000D02*
X665408D01*
X75000D02*
Y342500D01*
X80000D01*
Y332970D02*
Y342500D01*
Y332970D02*
X80054Y332410D01*
X80485Y331346D01*
X81285Y330522D01*
X82335Y330058D01*
X82907Y329986D01*
X221408D01*
X222295Y330029D01*
X224036Y330375D01*
X225675Y331054D01*
X227151Y332040D01*
X227809Y332637D01*
X227809Y332637D01*
X233036Y337864D01*
X233541Y338369D01*
X234727Y339161D01*
X236045Y339707D01*
X237444Y339986D01*
X238158Y339986D01*
X238158Y339986D01*
X660408Y339986D01*
Y349296D01*
X665408D01*
X355170Y490000D02*
Y490010D01*
Y490000D02*
X377250D01*
Y474988D02*
Y490000D01*
X368499Y474988D02*
X377250D01*
X368498Y474988D02*
X368499Y474988D01*
X367912Y474948D02*
X368498Y474988D01*
X366817Y474534D02*
X367912Y474948D01*
X365964Y473731D02*
X366817Y474534D01*
X365483Y472664D02*
X365964Y473731D01*
X365408Y472080D02*
X365483Y472664D01*
X365408Y394990D02*
Y472080D01*
Y393995D02*
Y394990D01*
X364646Y392157D02*
X365408Y393995D01*
X363240Y390751D02*
X364646Y392157D01*
X361402Y389990D02*
X363240Y390751D01*
X354250Y389990D02*
X361402D01*
X354250D02*
Y390000D01*
X333920D02*
X354250D01*
X333920D02*
Y405012D01*
X341671D01*
X342258Y405051D01*
X343353Y405466D01*
X344206Y406269D01*
X344687Y407336D01*
X344762Y407920D01*
X344762Y485010D01*
Y486005D01*
X345523Y487843D01*
X346930Y489249D01*
X348768Y490010D01*
X355170D01*
X635000Y478100D02*
Y496500D01*
Y478100D02*
X657968Y455132D01*
X657968Y455132D02*
X657968Y455132D01*
X657968Y455132D02*
X659737Y453363D01*
X662517Y449203D01*
X664432Y444580D01*
X665408Y439673D01*
X665408Y437171D02*
X665408Y439673D01*
X665408Y437171D02*
X665408Y399300D01*
Y380000D02*
Y399300D01*
X660408Y380000D02*
X665408D01*
X660408D02*
Y389990D01*
X444413D02*
X660408D01*
X442575Y390751D02*
X444413Y389990D01*
X441169Y392157D02*
X442575Y390751D01*
X440408Y393995D02*
X441169Y392157D01*
X440408Y393995D02*
Y394990D01*
X440406Y471899D02*
X440408Y394990D01*
X440406Y471899D02*
X440406Y471899D01*
X440367Y472486D02*
X440406Y471899D01*
X439952Y473581D02*
X440367Y472486D01*
X439150Y474434D02*
X439952Y473581D01*
X438082Y474914D02*
X439150Y474434D01*
X437499Y474989D02*
X438082Y474914D01*
X429000Y474989D02*
X437499Y474989D01*
X429000Y474989D02*
Y490000D01*
X451750D01*
Y490010D01*
X471842D01*
X471842Y490010D02*
X471842Y490010D01*
X471842Y490010D02*
X472556Y490011D01*
X473955Y489733D01*
X475273Y489187D01*
X476459Y488394D01*
X476964Y487889D01*
X482191Y482662D01*
X482191D02*
X482191D01*
X482191D02*
X482849Y482065D01*
X484324Y481078D01*
X485964Y480399D01*
X487705Y480053D01*
X488592Y480010D01*
X627092Y480011D01*
X627092D02*
X627092D01*
X627092D02*
X627664Y480084D01*
X628715Y480547D01*
X629515Y481370D01*
X629946Y482434D01*
X630000Y482994D01*
Y496500D01*
X635000D01*
X49592Y490010D02*
Y500000D01*
Y490010D02*
X265587D01*
X267425Y489249D01*
X268831Y487843D01*
X269592Y486005D01*
Y485010D02*
Y486005D01*
Y485010D02*
X269594Y408101D01*
Y408101D02*
Y408101D01*
Y408101D02*
X269633Y407514D01*
X270048Y406419D01*
X270850Y405566D01*
X271918Y405086D01*
X272501Y405010D01*
X281250Y405010D01*
Y390000D02*
Y405010D01*
X258250Y390000D02*
X281250D01*
X258250Y389990D02*
Y390000D01*
X238158Y389990D02*
X258250D01*
X237444Y389989D02*
X238158Y389990D01*
X236045Y390267D02*
X237444Y389989D01*
X234727Y390813D02*
X236045Y390267D01*
X233541Y391606D02*
X234727Y390813D01*
X233036Y392111D02*
X233541Y391606D01*
X227809Y397338D02*
X233036Y392111D01*
X227809Y397338D02*
X227809Y397338D01*
X227151Y397935D02*
X227809Y397338D01*
X225676Y398922D02*
X227151Y397935D01*
X224036Y399601D02*
X225676Y398922D01*
X222295Y399947D02*
X224036Y399601D01*
X221408Y399989D02*
X222295Y399947D01*
X82908Y399988D02*
X221408Y399989D01*
X82336Y399916D02*
X82908Y399988D01*
X81285Y399453D02*
X82336Y399916D01*
X80485Y398630D02*
X81285Y399453D01*
X80054Y397566D02*
X80485Y398630D01*
X80000Y397006D02*
X80054Y397566D01*
X80000Y383500D02*
Y397006D01*
X75000Y383500D02*
X80000D01*
X75000D02*
Y401900D01*
X52032Y424868D02*
X75000Y401900D01*
X52032Y424868D02*
X52032Y424868D01*
X50263Y426637D02*
X52032Y424868D01*
X47483Y430797D02*
X50263Y426637D01*
X45568Y435420D02*
X47483Y430797D01*
X44592Y440327D02*
X45568Y435420D01*
X44592Y440327D02*
X44592Y442829D01*
X44592Y483102D02*
X44592Y442829D01*
X44592Y483102D02*
X44592D01*
Y500000D01*
X49592D01*
X635000Y537500D02*
Y559000D01*
X630000Y537500D02*
X635000D01*
X630000D02*
Y546925D01*
X629960Y547512D02*
X630000Y546925D01*
X629545Y548606D02*
X629960Y547512D01*
X628743Y549459D02*
X629545Y548606D01*
X627676Y549939D02*
X628743Y549459D01*
X627093Y550014D02*
X627676Y549939D01*
X627092Y550014D02*
X627093Y550014D01*
X488592Y550014D02*
X627092D01*
X487705Y549971D02*
X488592Y550014D01*
X485964Y549625D02*
X487705Y549971D01*
X484324Y548945D02*
X485964Y549625D01*
X482849Y547960D02*
X484324Y548945D01*
X482191Y547363D02*
X482849Y547960D01*
X476964Y542136D02*
X482191Y547363D01*
X476459Y541631D02*
X476964Y542136D01*
X475273Y540839D02*
X476459Y541631D01*
X473955Y540293D02*
X475273Y540839D01*
X472556Y540015D02*
X473955Y540293D01*
X471843Y540015D02*
X472556Y540015D01*
X471842Y540014D02*
X471843Y540015D01*
X49592Y540014D02*
X471842Y540014D01*
X49592Y530704D02*
Y540014D01*
X44592Y530704D02*
X49592D01*
X44592D02*
Y559000D01*
X635000D01*
X25178Y610000D02*
X694822Y610000D01*
X22699D02*
X25178Y610000D01*
X17834Y609032D02*
X22699Y610000D01*
X13252Y607134D02*
X17834Y609032D01*
X9128Y604379D02*
X13252Y607134D01*
X5621Y600872D02*
X9128Y604379D01*
X2866Y596748D02*
X5621Y600872D01*
X968Y592166D02*
X2866Y596748D01*
X0Y587301D02*
X968Y592166D01*
X0Y584822D02*
Y587301D01*
X0Y25178D02*
X0Y584822D01*
X0Y25178D02*
X0Y22699D01*
X968Y17834D01*
X2866Y13252D01*
X5621Y9128D01*
X9128Y5621D01*
X13252Y2866D01*
X17834Y968D01*
X22699Y0D01*
X25178D01*
X694822Y0D01*
X697301D01*
X702166Y968D01*
X706748Y2866D01*
X710872Y5621D01*
X714379Y9128D01*
X717134Y13252D01*
X719032Y17834D01*
X720000Y22699D01*
X720000Y25178D02*
X720000Y22699D01*
X720000Y25178D02*
X720000Y584822D01*
X720000Y587301D02*
X720000Y584822D01*
X719032Y592166D02*
X720000Y587301D01*
X717134Y596748D02*
X719032Y592166D01*
X714379Y600872D02*
X717134Y596748D01*
X710872Y604379D02*
X714379Y600872D01*
X706748Y607134D02*
X710872Y604379D01*
X702166Y609032D02*
X706748Y607134D01*
X697301Y610000D02*
X702166Y609032D01*
X694822Y610000D02*
X697301D01*
X25178Y610000D02*
X694822Y610000D01*
X22699D02*
X25178Y610000D01*
X17834Y609032D02*
X22699Y610000D01*
X13252Y607134D02*
X17834Y609032D01*
X9128Y604379D02*
X13252Y607134D01*
X5621Y600872D02*
X9128Y604379D01*
X2866Y596748D02*
X5621Y600872D01*
X968Y592166D02*
X2866Y596748D01*
X0Y587301D02*
X968Y592166D01*
X0Y584822D02*
Y587301D01*
X0Y25178D02*
X0Y584822D01*
X0Y25178D02*
X0Y22699D01*
X968Y17834D01*
X2866Y13252D01*
X5621Y9128D01*
X9128Y5621D01*
X13252Y2866D01*
X17834Y968D01*
X22699Y0D01*
X25178D01*
X694822Y0D01*
X697301D01*
X702166Y968D01*
X706748Y2866D01*
X710872Y5621D01*
X714379Y9128D01*
X717134Y13252D01*
X719032Y17834D01*
X720000Y22699D01*
X720000Y25178D02*
X720000Y22699D01*
X720000Y25178D02*
X720000Y584822D01*
X720000Y587301D02*
X720000Y584822D01*
X719032Y592166D02*
X720000Y587301D01*
X717134Y596748D02*
X719032Y592166D01*
X714379Y600872D02*
X717134Y596748D01*
X710872Y604379D02*
X714379Y600872D01*
X706748Y607134D02*
X710872Y604379D01*
X702166Y609032D02*
X706748Y607134D01*
X697301Y610000D02*
X702166Y609032D01*
X694822Y610000D02*
X697301D01*
X25178Y610000D02*
X694822Y610000D01*
X22699D02*
X25178Y610000D01*
X17834Y609032D02*
X22699Y610000D01*
X13252Y607134D02*
X17834Y609032D01*
X9128Y604379D02*
X13252Y607134D01*
X5621Y600872D02*
X9128Y604379D01*
X2866Y596748D02*
X5621Y600872D01*
X968Y592166D02*
X2866Y596748D01*
X0Y587301D02*
X968Y592166D01*
X0Y584822D02*
Y587301D01*
X0Y25178D02*
X0Y584822D01*
X0Y25178D02*
X0Y22699D01*
X968Y17834D01*
X2866Y13252D01*
X5621Y9128D01*
X9128Y5621D01*
X13252Y2866D01*
X17834Y968D01*
X22699Y0D01*
X25178D01*
X694822Y0D01*
X697301D01*
X702166Y968D01*
X706748Y2866D01*
X710872Y5621D01*
X714379Y9128D01*
X717134Y13252D01*
X719032Y17834D01*
X720000Y22699D01*
X720000Y25178D02*
X720000Y22699D01*
X720000Y25178D02*
X720000Y584822D01*
X720000Y587301D02*
X720000Y584822D01*
X719032Y592166D02*
X720000Y587301D01*
X717134Y596748D02*
X719032Y592166D01*
X714379Y600872D02*
X717134Y596748D01*
X710872Y604379D02*
X714379Y600872D01*
X706748Y607134D02*
X710872Y604379D01*
X702166Y609032D02*
X706748Y607134D01*
X697301Y610000D02*
X702166Y609032D01*
X694822Y610000D02*
X697301D01*
X269748Y408091D02*
G03*
X272656Y405001I2999J-91D01*
G01*
X341656D02*
G03*
X344745Y407909I91J2999D01*
G01*
X488747Y550000D02*
G03*
X482345Y547348I0J-9053D01*
G01*
X627247Y480000D02*
G03*
X630154Y483089I-91J2999D01*
G01*
Y546911D02*
G03*
X627247Y550000I-2999J91D01*
G01*
X477118Y487879D02*
G03*
X471997Y490000I-5121J-5121D01*
G01*
X482345Y482652D02*
G03*
X488747Y480000I6402J6402D01*
G01*
X471997Y540000D02*
G03*
X477118Y542121I0J7243D01*
G01*
X269747Y485000D02*
G03*
X264747Y490000I-5000J0D01*
G01*
X349747D02*
G03*
X344747Y485000I0J-5000D01*
G01*
X482345Y547348D02*
X477118Y542121D01*
X471997Y490000D02*
X349747D01*
X49747Y540000D02*
Y490000D01*
X471997Y540000D02*
X49747Y540000D01*
X264747Y490000D02*
X49747D01*
X627247Y550000D02*
X554747D01*
X488747D01*
X341656Y405000D02*
X272656D01*
X269747Y485000D02*
Y408091D01*
X344747Y485000D02*
Y407909D01*
X630154Y546911D02*
Y483089D01*
X554747Y480000D02*
X488747D01*
X482345Y482652D02*
X477118Y487879D01*
X627247Y480000D02*
X554747D01*
X440252Y471909D02*
G03*
X437344Y474999I-2999J91D01*
G01*
X368344D02*
G03*
X365255Y472091I-91J-2999D01*
G01*
X221253Y330000D02*
G03*
X227655Y332652I0J9053D01*
G01*
X82753Y400000D02*
G03*
X79846Y396911I91J-2999D01*
G01*
Y333089D02*
G03*
X82753Y330000I2999J-91D01*
G01*
X232882Y392121D02*
G03*
X238003Y390000I5121J5121D01*
G01*
X227655Y397348D02*
G03*
X221253Y400000I-6402J-6402D01*
G01*
X238003Y340000D02*
G03*
X232882Y337879I0J-7243D01*
G01*
X440253Y395000D02*
G03*
X445253Y390000I5000J0D01*
G01*
X360253D02*
G03*
X365253Y395000I0J5000D01*
G01*
X227655Y332652D02*
X232882Y337879D01*
X238003Y390000D02*
X360253D01*
X660253Y340000D02*
Y390000D01*
X238003Y340000D02*
X660253Y340000D01*
X445253Y390000D02*
X660253D01*
X82753Y330000D02*
X155253D01*
X221253D01*
X368344Y475000D02*
X437344D01*
X440253Y395000D02*
Y471909D01*
X365253Y395000D02*
Y472091D01*
X79846Y333089D02*
Y396911D01*
X155253Y400000D02*
X221253D01*
X227655Y397348D02*
X232882Y392121D01*
X82753Y400000D02*
X155253D01*
X440252Y201909D02*
G03*
X437344Y204999I-2999J91D01*
G01*
X368344D02*
G03*
X365255Y202091I-91J-2999D01*
G01*
X221253Y60000D02*
G03*
X227655Y62652I0J9053D01*
G01*
X82753Y130000D02*
G03*
X79846Y126911I91J-2999D01*
G01*
Y63089D02*
G03*
X82753Y60000I2999J-91D01*
G01*
X232882Y122121D02*
G03*
X238003Y120000I5121J5121D01*
G01*
X227655Y127348D02*
G03*
X221253Y130000I-6402J-6402D01*
G01*
X238003Y70000D02*
G03*
X232882Y67879I0J-7243D01*
G01*
X440253Y125000D02*
G03*
X445253Y120000I5000J0D01*
G01*
X360253D02*
G03*
X365253Y125000I0J5000D01*
G01*
X227655Y62652D02*
X232882Y67879D01*
X238003Y120000D02*
X360253D01*
X660253Y70000D02*
Y120000D01*
X238003Y70000D02*
X660253Y70000D01*
X445253Y120000D02*
X660253D01*
X82753Y60000D02*
X155253D01*
X221253D01*
X368344Y205000D02*
X437344D01*
X440253Y125000D02*
Y201909D01*
X365253Y125000D02*
Y202091D01*
X79846Y63089D02*
Y126911D01*
X155253Y130000D02*
X221253D01*
X227655Y127348D02*
X232882Y122121D01*
X82753Y130000D02*
X155253D01*
X269748Y138091D02*
G03*
X272656Y135001I2999J-91D01*
G01*
X341656D02*
G03*
X344745Y137909I91J2999D01*
G01*
X488747Y280000D02*
G03*
X482345Y277348I0J-9053D01*
G01*
X627247Y210000D02*
G03*
X630154Y213089I-91J2999D01*
G01*
Y276910D02*
G03*
X627247Y280000I-2999J91D01*
G01*
X477118Y217879D02*
G03*
X471997Y220000I-5121J-5121D01*
G01*
X482345Y212652D02*
G03*
X488747Y210000I6402J6402D01*
G01*
X471997Y270000D02*
G03*
X477118Y272121I0J7243D01*
G01*
X269747Y215000D02*
G03*
X264747Y220000I-5000J0D01*
G01*
X349747D02*
G03*
X344747Y215000I0J-5000D01*
G01*
X482345Y277348D02*
X477118Y272121D01*
X471997Y220000D02*
X349747D01*
X49747Y270000D02*
Y220000D01*
X471997Y270000D02*
X49747Y270000D01*
X264747Y220000D02*
X49747D01*
X627247Y280000D02*
X554747D01*
X488747D01*
X341656Y135000D02*
X272656D01*
X269747Y215000D02*
Y138091D01*
X344747Y215000D02*
Y137909D01*
X630154Y276910D02*
Y213089D01*
X554747Y210000D02*
X488747D01*
X482345Y212652D02*
X477118Y217879D01*
X627247Y210000D02*
X554747D01*
D67*
X471997Y490000D02*
D03*
X49747Y490000D02*
D03*
X238003Y390000D02*
D03*
X660253Y390000D02*
D03*
X238003Y120000D02*
D03*
X660253Y120000D02*
D03*
X471997Y220000D02*
D03*
X49747Y220000D02*
D03*
M02*
