G04*
G04 #@! TF.GenerationSoftware,Altium Limited,Altium Designer,22.8.2 (66)*
G04*
G04 Layer_Color=39423*
%FSLAX44Y44*%
%MOMM*%
G71*
G04*
G04 #@! TF.SameCoordinates,2FE0B69B-5364-48D5-AE08-4430375559E1*
G04*
G04*
G04 #@! TF.FilePolarity,Negative*
G04*
G01*
G75*
%ADD24C,1.4131*%
%ADD29R,0.3500X1.0000*%
%ADD30R,1.0000X0.3500*%
%ADD32R,0.3750X0.3500*%
%ADD33R,0.3500X0.3750*%
%ADD42R,0.5178X3.2500*%
%ADD43R,0.5020X4.1000*%
%ADD44R,0.5020X3.0704*%
%ADD45R,6.3001X1.4761*%
%ADD46R,6.3752X1.4761*%
%ADD47C,0.0000*%
%ADD48R,4.5000X6.0000*%
%ADD49R,7.5000X4.0250*%
%ADD50R,0.8832X0.8232*%
%ADD51R,0.8232X0.8832*%
%ADD52R,1.5032X1.2032*%
%ADD53R,0.9532X0.6532*%
%ADD54R,0.7532X0.8532*%
%ADD55R,0.7532X0.9532*%
%ADD56R,1.2032X1.1532*%
%ADD57R,1.6032X1.6032*%
G04:AMPARAMS|DCode=58|XSize=1.0432mm|YSize=0.5232mm|CornerRadius=0.1416mm|HoleSize=0mm|Usage=FLASHONLY|Rotation=270.000|XOffset=0mm|YOffset=0mm|HoleType=Round|Shape=RoundedRectangle|*
%AMROUNDEDRECTD58*
21,1,1.0432,0.2400,0,0,270.0*
21,1,0.7600,0.5232,0,0,270.0*
1,1,0.2832,-0.1200,-0.3800*
1,1,0.2832,-0.1200,0.3800*
1,1,0.2832,0.1200,0.3800*
1,1,0.2832,0.1200,-0.3800*
%
%ADD58ROUNDEDRECTD58*%
%ADD59R,0.5532X4.2032*%
%ADD60R,1.2032X1.5032*%
%ADD61R,0.8100X0.4100*%
%ADD62R,1.8600X3.4600*%
%ADD63R,1.5032X1.4532*%
%ADD64C,0.3200*%
%ADD65C,3.7032*%
G36*
X552747Y535000D02*
Y525000D01*
X540747D01*
X529747Y536000D01*
Y548000D01*
X540997D01*
X552747Y535000D01*
D02*
G37*
G36*
X509747Y536000D02*
X498747Y525000D01*
X486747D01*
Y536250D01*
X499747Y548000D01*
X509747D01*
Y536000D01*
D02*
G37*
G36*
X552747Y493750D02*
X539747Y482000D01*
X529747D01*
Y494000D01*
X540747Y505000D01*
X552747D01*
Y493750D01*
D02*
G37*
G36*
X509747Y494000D02*
Y482000D01*
X499747D01*
X486747Y493750D01*
Y505000D01*
X498747D01*
X509747Y494000D01*
D02*
G37*
G36*
X313479Y481609D02*
X313767D01*
Y481561D01*
X314294D01*
Y481513D01*
X314342D01*
Y481465D01*
X314725D01*
Y481417D01*
X315012D01*
Y481369D01*
X315060D01*
Y481321D01*
X315299D01*
Y481273D01*
X315347D01*
Y481226D01*
X315443D01*
Y481273D01*
X315491D01*
Y481226D01*
X315587D01*
Y481178D01*
X315779D01*
Y481082D01*
X315970D01*
Y481034D01*
X316114D01*
Y480986D01*
X316162D01*
Y480938D01*
X316305D01*
Y480890D01*
X316401D01*
Y480842D01*
X316449D01*
Y480794D01*
X316593D01*
Y480699D01*
X316737D01*
Y480651D01*
X316832D01*
Y480603D01*
X316880D01*
Y480555D01*
X316976D01*
Y480507D01*
X317024D01*
Y480459D01*
X317072D01*
Y480411D01*
X317168D01*
Y480363D01*
X317215D01*
Y480316D01*
X317311D01*
Y480268D01*
X317359D01*
Y480172D01*
X317455D01*
Y480076D01*
X317551D01*
Y480028D01*
X317647D01*
Y479980D01*
X317599D01*
Y479932D01*
X317694D01*
Y479884D01*
X317742D01*
Y479837D01*
X317790D01*
Y479789D01*
X317838D01*
Y479693D01*
X317934D01*
Y479597D01*
X318030D01*
Y479501D01*
X318078D01*
Y479453D01*
X318125D01*
Y479405D01*
X318173D01*
Y479310D01*
X318221D01*
Y479262D01*
X318269D01*
Y479166D01*
X318317D01*
Y479070D01*
X318365D01*
Y479022D01*
X318413D01*
Y478879D01*
X318461D01*
Y478735D01*
X318557D01*
Y478543D01*
X318652D01*
Y478352D01*
X318700D01*
Y478160D01*
X318748D01*
Y478112D01*
X318796D01*
Y477873D01*
X318844D01*
Y477777D01*
X318892D01*
Y477681D01*
X318844D01*
Y477585D01*
X318892D01*
Y477442D01*
X318940D01*
Y476915D01*
X318988D01*
Y468101D01*
X318892D01*
Y468006D01*
X315491D01*
Y468054D01*
X315443D01*
Y468101D01*
X315395D01*
Y468006D01*
X315347D01*
Y476867D01*
X315299D01*
Y476963D01*
X315252D01*
Y477250D01*
X315204D01*
Y477346D01*
X315156D01*
Y477394D01*
X315204D01*
Y477442D01*
X315156D01*
Y477490D01*
X315108D01*
Y477681D01*
X315012D01*
Y477777D01*
X315060D01*
Y477825D01*
X314964D01*
Y477921D01*
X314916D01*
Y477968D01*
X314868D01*
Y478064D01*
X314821D01*
Y478112D01*
X314773D01*
Y478160D01*
X314725D01*
Y478256D01*
X314677D01*
Y478352D01*
X314581D01*
Y478400D01*
X314533D01*
Y478495D01*
X314437D01*
Y478543D01*
X314342D01*
Y478591D01*
X314294D01*
Y478639D01*
X314246D01*
Y478687D01*
X314198D01*
Y478735D01*
X314102D01*
Y478783D01*
X314006D01*
Y478831D01*
X313958D01*
Y478879D01*
X313815D01*
Y478926D01*
X313671D01*
Y478974D01*
X313623D01*
Y479022D01*
X313336D01*
Y479070D01*
X313288D01*
Y479118D01*
X313144D01*
Y479070D01*
X313000D01*
Y479118D01*
X312186D01*
Y479070D01*
X311994D01*
Y479118D01*
X311899D01*
Y479070D01*
X311803D01*
Y479022D01*
X311563D01*
Y478974D01*
X311516D01*
Y478926D01*
X311372D01*
Y478879D01*
X311228D01*
Y478831D01*
X311180D01*
Y478783D01*
X311084D01*
Y478735D01*
X310941D01*
Y478639D01*
X310845D01*
Y478591D01*
X310797D01*
Y478543D01*
X310749D01*
Y478495D01*
X310653D01*
Y478400D01*
X310558D01*
Y478304D01*
X310510D01*
Y478256D01*
X310462D01*
Y478160D01*
X310366D01*
Y478064D01*
X310318D01*
Y478016D01*
X310270D01*
Y477921D01*
X310222D01*
Y477825D01*
X310174D01*
Y477777D01*
X310126D01*
Y477633D01*
X310079D01*
Y477585D01*
X310031D01*
Y477537D01*
X310079D01*
Y477490D01*
X310031D01*
Y477442D01*
X309983D01*
Y477202D01*
X309935D01*
Y477154D01*
X309887D01*
Y476771D01*
X309839D01*
Y468101D01*
X309791D01*
Y468006D01*
X306247D01*
Y468101D01*
X306199D01*
Y477250D01*
X306247D01*
Y477394D01*
X306295D01*
Y477729D01*
X306343D01*
Y477825D01*
X306390D01*
Y477921D01*
X306343D01*
Y477968D01*
X306390D01*
Y478064D01*
X306438D01*
Y478304D01*
X306534D01*
Y478495D01*
X306582D01*
Y478687D01*
X306678D01*
Y478831D01*
X306774D01*
Y478879D01*
X306726D01*
Y478926D01*
X306774D01*
Y478974D01*
X306821D01*
Y479118D01*
X306869D01*
Y479166D01*
X306917D01*
Y479262D01*
X306965D01*
Y479357D01*
X307061D01*
Y479453D01*
X307109D01*
Y479549D01*
X307157D01*
Y479597D01*
X307205D01*
Y479645D01*
X307253D01*
Y479693D01*
X307300D01*
Y479741D01*
X307348D01*
Y479789D01*
X307396D01*
Y479837D01*
X307444D01*
Y479884D01*
X307492D01*
Y479932D01*
X307540D01*
Y479980D01*
X307588D01*
Y480028D01*
X307636D01*
Y480076D01*
X307684D01*
Y480124D01*
X307732D01*
Y480172D01*
X307780D01*
Y480220D01*
X307827D01*
Y480268D01*
X307875D01*
Y480316D01*
X307971D01*
Y480363D01*
X308019D01*
Y480411D01*
X308067D01*
Y480459D01*
X308115D01*
Y480507D01*
X308211D01*
Y480555D01*
X308306D01*
Y480603D01*
X308354D01*
Y480651D01*
X308450D01*
Y480699D01*
X308546D01*
Y480747D01*
X308594D01*
Y480794D01*
X308737D01*
Y480842D01*
X308833D01*
Y480890D01*
X308881D01*
Y480938D01*
X309025D01*
Y480986D01*
X309073D01*
Y481034D01*
X309216D01*
Y481082D01*
X309408D01*
Y481178D01*
X309600D01*
Y481226D01*
X309791D01*
Y481273D01*
X309887D01*
Y481321D01*
X310126D01*
Y481369D01*
X310174D01*
Y481417D01*
X310462D01*
Y481465D01*
X310845D01*
Y481513D01*
X310893D01*
Y481561D01*
X311420D01*
Y481609D01*
X311659D01*
Y481657D01*
X311803D01*
Y481609D01*
X313384D01*
Y481657D01*
X313479D01*
Y481609D01*
D02*
G37*
G36*
X294029Y481379D02*
X294230D01*
Y481350D01*
X294373D01*
Y481321D01*
X294459D01*
Y481293D01*
X294574D01*
Y481264D01*
X294660D01*
Y481235D01*
X294717D01*
Y481207D01*
X294803D01*
Y481178D01*
X294860D01*
Y481149D01*
X294918D01*
Y481121D01*
X294975D01*
Y481092D01*
X295004D01*
Y481063D01*
X295061D01*
Y481035D01*
X295089D01*
Y481006D01*
X295147D01*
Y480977D01*
X295204D01*
Y480949D01*
X295233D01*
Y480920D01*
X295261D01*
Y480891D01*
X295290D01*
Y480863D01*
X295319D01*
Y480834D01*
X295347D01*
Y480805D01*
X295376D01*
Y480777D01*
X295405D01*
Y480748D01*
X295433D01*
Y480719D01*
X295462D01*
Y480691D01*
X295491D01*
Y480662D01*
X295519D01*
Y480634D01*
X295548D01*
Y480605D01*
X295577D01*
Y480547D01*
X295605D01*
Y480519D01*
X295634D01*
Y480490D01*
X295663D01*
Y480433D01*
X295691D01*
Y480404D01*
X295720D01*
Y480347D01*
X295749D01*
Y480290D01*
X295777D01*
Y480261D01*
X295806D01*
Y480175D01*
X295835D01*
Y480118D01*
X295863D01*
Y480089D01*
X295892D01*
Y480003D01*
X295921D01*
Y479917D01*
X295949D01*
Y479860D01*
X295978D01*
Y479745D01*
X296007D01*
Y479659D01*
X296035D01*
Y479544D01*
X296064D01*
Y479401D01*
X296092D01*
Y479287D01*
X296121D01*
Y479000D01*
X296150D01*
Y477997D01*
X296121D01*
Y477739D01*
X296092D01*
Y477596D01*
X296064D01*
Y477481D01*
X296035D01*
Y477338D01*
X296007D01*
Y477281D01*
X295978D01*
Y477166D01*
X295949D01*
Y477080D01*
X295921D01*
Y477023D01*
X295892D01*
Y476937D01*
X295863D01*
Y476908D01*
X295835D01*
Y476822D01*
X295806D01*
Y476765D01*
X295777D01*
Y476736D01*
X295749D01*
Y476650D01*
X295720D01*
Y476621D01*
X295691D01*
Y476564D01*
X295663D01*
Y476535D01*
X295634D01*
Y476478D01*
X295605D01*
Y476450D01*
X295577D01*
Y476392D01*
X295548D01*
Y476363D01*
X295519D01*
Y476335D01*
X295491D01*
Y476306D01*
X295462D01*
Y476278D01*
X295433D01*
Y476220D01*
X295405D01*
Y476192D01*
X295376D01*
Y476163D01*
X295347D01*
Y476134D01*
X295319D01*
Y476106D01*
X295290D01*
Y476077D01*
X295261D01*
Y476048D01*
X295204D01*
Y476020D01*
X295175D01*
Y475991D01*
X295147D01*
Y475962D01*
X295118D01*
Y475934D01*
X295061D01*
Y475905D01*
X295032D01*
Y475876D01*
X294975D01*
Y475848D01*
X294946D01*
Y475819D01*
X294889D01*
Y475790D01*
X294832D01*
Y475762D01*
X294803D01*
Y475733D01*
X294746D01*
Y475704D01*
X294660D01*
Y475676D01*
X294602D01*
Y475647D01*
X294516D01*
Y475618D01*
X294430D01*
Y475590D01*
X294373D01*
Y475561D01*
X294230D01*
Y475532D01*
X294115D01*
Y475504D01*
X293915D01*
Y475475D01*
X293198D01*
Y475504D01*
X292997D01*
Y475532D01*
X292883D01*
Y475561D01*
X292740D01*
Y475590D01*
X292654D01*
Y475618D01*
X292596D01*
Y475647D01*
X292482D01*
Y475676D01*
X292453D01*
Y475704D01*
X292367D01*
Y475733D01*
X292310D01*
Y475762D01*
X292252D01*
Y475790D01*
X292195D01*
Y475819D01*
X292166D01*
Y475848D01*
X292109D01*
Y475876D01*
X292080D01*
Y475905D01*
X292052D01*
Y475934D01*
X291994D01*
Y475962D01*
X291966D01*
Y475991D01*
X291937D01*
Y476020D01*
X291908D01*
Y476048D01*
X291880D01*
Y476077D01*
X291823D01*
Y476106D01*
X291794D01*
Y476134D01*
X291765D01*
Y476192D01*
X291737D01*
Y476220D01*
X291708D01*
Y476249D01*
X291679D01*
Y476278D01*
X291651D01*
Y476306D01*
X291622D01*
Y476335D01*
X291593D01*
Y476392D01*
X291565D01*
Y476421D01*
X291536D01*
Y476478D01*
X291507D01*
Y476507D01*
X291479D01*
Y476564D01*
X291450D01*
Y476621D01*
X291421D01*
Y476650D01*
X291393D01*
Y476707D01*
X291364D01*
Y476765D01*
X291335D01*
Y476822D01*
X291307D01*
Y476908D01*
X291278D01*
Y476965D01*
X291249D01*
Y477051D01*
X291221D01*
Y477166D01*
X291192D01*
Y477252D01*
X291164D01*
Y477395D01*
X291135D01*
Y477538D01*
X291106D01*
Y477739D01*
X291077D01*
Y478627D01*
X291106D01*
Y478656D01*
X295061D01*
Y479115D01*
X295032D01*
Y479287D01*
X295004D01*
Y479401D01*
X294975D01*
Y479544D01*
X294946D01*
Y479630D01*
X294918D01*
Y479716D01*
X294889D01*
Y479802D01*
X294860D01*
Y479831D01*
X294832D01*
Y479917D01*
X294803D01*
Y479974D01*
X294774D01*
Y480003D01*
X294746D01*
Y480060D01*
X294717D01*
Y480089D01*
X294688D01*
Y480146D01*
X294660D01*
Y480175D01*
X294631D01*
Y480204D01*
X294602D01*
Y480232D01*
X294574D01*
Y480290D01*
X294516D01*
Y480318D01*
X294488D01*
Y480347D01*
X294459D01*
Y480376D01*
X294430D01*
Y480404D01*
X294373D01*
Y480433D01*
X294344D01*
Y480462D01*
X294287D01*
Y480490D01*
X294230D01*
Y480519D01*
X294172D01*
Y480547D01*
X294086D01*
Y480576D01*
X294000D01*
Y480605D01*
X293800D01*
Y480634D01*
X293427D01*
Y480605D01*
X293169D01*
Y480576D01*
X293083D01*
Y480547D01*
X292997D01*
Y480519D01*
X292911D01*
Y480490D01*
X292854D01*
Y480462D01*
X292797D01*
Y480433D01*
X292768D01*
Y480404D01*
X292740D01*
Y480376D01*
X292682D01*
Y480347D01*
X292654D01*
Y480318D01*
X292625D01*
Y480290D01*
X292596D01*
Y480261D01*
X292568D01*
Y480232D01*
X292539D01*
Y480175D01*
X292510D01*
Y480146D01*
X292482D01*
Y480089D01*
X292453D01*
Y480032D01*
X292424D01*
Y479974D01*
X292396D01*
Y479917D01*
X292367D01*
Y479831D01*
X292338D01*
Y479745D01*
X292310D01*
Y479602D01*
X292281D01*
Y479516D01*
X292252D01*
Y479487D01*
X291164D01*
Y479516D01*
X291135D01*
Y479544D01*
X291164D01*
Y479716D01*
X291192D01*
Y479802D01*
X291221D01*
Y479917D01*
X291249D01*
Y480003D01*
X291278D01*
Y480089D01*
X291307D01*
Y480146D01*
X291335D01*
Y480204D01*
X291364D01*
Y480261D01*
X291393D01*
Y480318D01*
X291421D01*
Y480376D01*
X291450D01*
Y480404D01*
X291479D01*
Y480462D01*
X291507D01*
Y480490D01*
X291536D01*
Y480547D01*
X291565D01*
Y480576D01*
X291593D01*
Y480605D01*
X291622D01*
Y480662D01*
X291679D01*
Y480691D01*
X291708D01*
Y480748D01*
X291765D01*
Y480805D01*
X291794D01*
Y480834D01*
X291851D01*
Y480863D01*
X291880D01*
Y480891D01*
X291908D01*
Y480920D01*
X291966D01*
Y480949D01*
X291994D01*
Y480977D01*
X292023D01*
Y481006D01*
X292080D01*
Y481035D01*
X292109D01*
Y481063D01*
X292166D01*
Y481092D01*
X292224D01*
Y481121D01*
X292281D01*
Y481149D01*
X292338D01*
Y481178D01*
X292396D01*
Y481207D01*
X292482D01*
Y481235D01*
X292568D01*
Y481264D01*
X292654D01*
Y481293D01*
X292768D01*
Y481321D01*
X292883D01*
Y481350D01*
X293026D01*
Y481379D01*
X293255D01*
Y481407D01*
X294029D01*
Y481379D01*
D02*
G37*
G36*
X280763D02*
X280993D01*
Y481350D01*
X281107D01*
Y481321D01*
X281222D01*
Y481293D01*
X281308D01*
Y481264D01*
X281365D01*
Y481235D01*
X281422D01*
Y481207D01*
X281480D01*
Y481178D01*
X281537D01*
Y481149D01*
X281566D01*
Y481121D01*
X281623D01*
Y481092D01*
X281652D01*
Y481063D01*
X281680D01*
Y481035D01*
X281709D01*
Y480977D01*
X281738D01*
Y480949D01*
X281766D01*
Y480891D01*
X281795D01*
Y480863D01*
X281824D01*
Y480805D01*
X281852D01*
Y480719D01*
X281881D01*
Y480634D01*
X281910D01*
Y480462D01*
X281938D01*
Y476421D01*
X281967D01*
Y476392D01*
X282913D01*
Y475647D01*
X281967D01*
Y475618D01*
X281938D01*
Y474444D01*
X281881D01*
Y474415D01*
X281795D01*
Y474386D01*
X281709D01*
Y474357D01*
X281623D01*
Y474329D01*
X281508D01*
Y474300D01*
X281422D01*
Y474272D01*
X281336D01*
Y474243D01*
X281250D01*
Y474214D01*
X281164D01*
Y474186D01*
X281050D01*
Y474157D01*
X280964D01*
Y474128D01*
X280878D01*
Y474186D01*
Y474214D01*
Y475618D01*
X280849D01*
Y475647D01*
X279560D01*
Y476363D01*
X279588D01*
Y476392D01*
X280878D01*
Y480089D01*
X280849D01*
Y480232D01*
X280821D01*
Y480290D01*
X280792D01*
Y480318D01*
X280763D01*
Y480376D01*
X280735D01*
Y480404D01*
X280706D01*
Y480433D01*
X280649D01*
Y480462D01*
X280620D01*
Y480490D01*
X280563D01*
Y480519D01*
X280505D01*
Y480547D01*
X280391D01*
Y480576D01*
X280219D01*
Y480605D01*
X280133D01*
Y480576D01*
X279846D01*
Y480547D01*
X279703D01*
Y480519D01*
X279617D01*
Y481350D01*
X279732D01*
Y481379D01*
X279961D01*
Y481407D01*
X280763D01*
Y481379D01*
D02*
G37*
G36*
X286492Y480805D02*
Y480777D01*
Y476392D01*
X287553D01*
Y475647D01*
X286521D01*
Y475618D01*
X286492D01*
Y474501D01*
X286464D01*
Y474272D01*
X286435D01*
Y474128D01*
X286406D01*
Y474014D01*
X286378D01*
Y473956D01*
X286349D01*
Y473870D01*
X286320D01*
Y473813D01*
X286292D01*
Y473784D01*
X286263D01*
Y473727D01*
X286234D01*
Y473670D01*
X286206D01*
Y473641D01*
X286177D01*
Y473584D01*
X286148D01*
Y473555D01*
X286120D01*
Y473526D01*
X286091D01*
Y473498D01*
X286063D01*
Y473469D01*
X286034D01*
Y473441D01*
X286005D01*
Y473412D01*
X285948D01*
Y473383D01*
X285919D01*
Y473354D01*
X285891D01*
Y473326D01*
X285833D01*
Y473297D01*
X285805D01*
Y473269D01*
X285747D01*
Y473240D01*
X285690D01*
Y473211D01*
X285633D01*
Y473183D01*
X285547D01*
Y473154D01*
X285489D01*
Y473125D01*
X285403D01*
Y473097D01*
X285289D01*
Y473068D01*
X285174D01*
Y473039D01*
X284314D01*
Y473068D01*
X284200D01*
Y473097D01*
X284056D01*
Y473125D01*
X283971D01*
Y473154D01*
X283942D01*
Y473985D01*
X283971D01*
Y474014D01*
X284286D01*
Y473985D01*
X284716D01*
Y474014D01*
X284916D01*
Y474042D01*
X285031D01*
Y474071D01*
X285088D01*
Y474100D01*
X285145D01*
Y474128D01*
X285203D01*
Y474157D01*
X285231D01*
Y474186D01*
X285260D01*
Y474243D01*
X285289D01*
Y474272D01*
X285317D01*
Y474329D01*
X285346D01*
Y474415D01*
X285375D01*
Y474529D01*
X285403D01*
Y475618D01*
X285375D01*
Y475647D01*
X284114D01*
Y476392D01*
X285403D01*
Y481235D01*
X286492D01*
Y480805D01*
D02*
G37*
G36*
X303773Y473183D02*
X300735D01*
Y473211D01*
X300334D01*
Y473240D01*
X300162D01*
Y473269D01*
X299961D01*
Y473297D01*
X299875D01*
Y473326D01*
X299761D01*
Y473354D01*
X299617D01*
Y473383D01*
X299560D01*
Y473412D01*
X299474D01*
Y473441D01*
X299388D01*
Y473469D01*
X299331D01*
Y473498D01*
X299245D01*
Y473526D01*
X299188D01*
Y473555D01*
X299130D01*
Y473584D01*
X299044D01*
Y473612D01*
X299016D01*
Y473641D01*
X298958D01*
Y473670D01*
X298901D01*
Y473698D01*
X298844D01*
Y473727D01*
X298786D01*
Y473756D01*
X298758D01*
Y473784D01*
X298729D01*
Y473813D01*
X298672D01*
Y473842D01*
X298643D01*
Y473870D01*
X298586D01*
Y473899D01*
X298557D01*
Y473928D01*
X298528D01*
Y473956D01*
X298500D01*
Y473985D01*
X298442D01*
Y474014D01*
X298414D01*
Y474042D01*
X298385D01*
Y474071D01*
X298356D01*
Y474100D01*
X298328D01*
Y474128D01*
X298299D01*
Y474157D01*
X298270D01*
Y474186D01*
X298242D01*
Y474214D01*
X298213D01*
Y474243D01*
X298185D01*
Y474272D01*
X298156D01*
Y474300D01*
X298127D01*
Y474329D01*
X298099D01*
Y474386D01*
X298070D01*
Y474415D01*
X298041D01*
Y474444D01*
X298013D01*
Y474472D01*
X297984D01*
Y474501D01*
X297955D01*
Y474558D01*
X297927D01*
Y474587D01*
X297898D01*
Y474644D01*
X297869D01*
Y474673D01*
X297841D01*
Y474730D01*
X297812D01*
Y474787D01*
X297783D01*
Y474816D01*
X297755D01*
Y474873D01*
X297726D01*
Y474931D01*
X297697D01*
Y474988D01*
X297669D01*
Y475045D01*
X297640D01*
Y475103D01*
X297611D01*
Y475131D01*
X297583D01*
Y475217D01*
X297554D01*
Y475303D01*
X297525D01*
Y475360D01*
X297497D01*
Y475447D01*
X297468D01*
Y475504D01*
X297439D01*
Y475590D01*
X297411D01*
Y475618D01*
Y475647D01*
Y475704D01*
X297382D01*
Y475790D01*
X297353D01*
Y475905D01*
X297325D01*
Y476020D01*
X297296D01*
Y476134D01*
X297267D01*
Y476306D01*
X297239D01*
Y476478D01*
X297210D01*
Y476736D01*
X297181D01*
Y476765D01*
X297210D01*
Y476822D01*
X297181D01*
Y477596D01*
X297210D01*
Y477653D01*
X297181D01*
Y477710D01*
X297210D01*
Y477940D01*
X297239D01*
Y478112D01*
X297267D01*
Y478312D01*
X297296D01*
Y478398D01*
X297325D01*
Y478541D01*
X297353D01*
Y478656D01*
X297382D01*
Y478742D01*
X297411D01*
Y478828D01*
X297439D01*
Y478914D01*
X297468D01*
Y479000D01*
X297497D01*
Y479086D01*
X297525D01*
Y479143D01*
X297554D01*
Y479201D01*
X297583D01*
Y479287D01*
X297611D01*
Y479344D01*
X297640D01*
Y479401D01*
X297669D01*
Y479459D01*
X297697D01*
Y479516D01*
X297726D01*
Y479573D01*
X297755D01*
Y479602D01*
X297783D01*
Y479659D01*
X297812D01*
Y479716D01*
X297841D01*
Y479745D01*
X297869D01*
Y479802D01*
X297898D01*
Y479831D01*
X297927D01*
Y479888D01*
X297955D01*
Y479917D01*
X297984D01*
Y479946D01*
X298013D01*
Y480003D01*
X298041D01*
Y480032D01*
X298070D01*
Y480060D01*
X298099D01*
Y480089D01*
X298127D01*
Y480118D01*
X298156D01*
Y480146D01*
X298185D01*
Y480204D01*
X298213D01*
Y480232D01*
X298242D01*
Y480261D01*
X298270D01*
Y480290D01*
X298299D01*
Y480318D01*
X298328D01*
Y480347D01*
X298356D01*
Y480376D01*
X298414D01*
Y480404D01*
X298442D01*
Y480433D01*
X298471D01*
Y480462D01*
X298500D01*
Y480490D01*
X298528D01*
Y480519D01*
X298586D01*
Y480547D01*
X298614D01*
Y480576D01*
X298643D01*
Y480605D01*
X298700D01*
Y480634D01*
X298729D01*
Y480662D01*
X298786D01*
Y480691D01*
X298844D01*
Y480719D01*
X298872D01*
Y480748D01*
X298930D01*
Y480777D01*
X298987D01*
Y480805D01*
X299016D01*
Y480834D01*
X299073D01*
Y480863D01*
X299130D01*
Y480891D01*
X299216D01*
Y480920D01*
X299273D01*
Y480949D01*
X299331D01*
Y480977D01*
X299417D01*
Y481006D01*
X299503D01*
Y481035D01*
X299589D01*
Y481063D01*
X299675D01*
Y481092D01*
X299789D01*
Y481121D01*
X299904D01*
Y481149D01*
X300076D01*
Y481178D01*
X300191D01*
Y481207D01*
X300506D01*
Y481235D01*
X303773D01*
Y473183D01*
D02*
G37*
G36*
X289788Y473641D02*
Y473612D01*
Y473183D01*
X288728D01*
Y481235D01*
X289788D01*
Y473641D01*
D02*
G37*
G36*
X328711Y476005D02*
Y475957D01*
Y470640D01*
X328759D01*
Y470592D01*
X332878D01*
Y470544D01*
X332926D01*
Y470448D01*
X332878D01*
Y468101D01*
X332926D01*
Y468054D01*
X332878D01*
Y467958D01*
X320808D01*
Y470592D01*
X324927D01*
Y470640D01*
X324975D01*
Y481417D01*
X328711D01*
Y476005D01*
D02*
G37*
G36*
X325023Y466221D02*
X324975D01*
Y466173D01*
X324879D01*
Y466125D01*
X324783D01*
Y466077D01*
X324640D01*
Y466029D01*
X324592D01*
Y465981D01*
X324448D01*
Y465933D01*
X324352D01*
Y465886D01*
X324257D01*
Y465838D01*
X324209D01*
Y465790D01*
X324113D01*
Y465742D01*
X324065D01*
Y465694D01*
X324017D01*
Y465646D01*
X323969D01*
Y465598D01*
X323873D01*
Y465550D01*
X323825D01*
Y465502D01*
X323778D01*
Y465454D01*
X323730D01*
Y465407D01*
X323682D01*
Y465359D01*
X323634D01*
Y465311D01*
X323586D01*
Y465263D01*
X323538D01*
Y465215D01*
X323490D01*
Y465167D01*
X323442D01*
Y465119D01*
X323394D01*
Y465071D01*
X323346D01*
Y464976D01*
X323299D01*
Y464928D01*
X323251D01*
Y464880D01*
X323203D01*
Y464784D01*
X323155D01*
Y464736D01*
X323107D01*
Y464640D01*
X323059D01*
Y464592D01*
X323011D01*
Y464497D01*
X322963D01*
Y464401D01*
X322915D01*
Y464305D01*
X322868D01*
Y464209D01*
X322820D01*
Y464113D01*
X322772D01*
Y464018D01*
X322724D01*
Y463874D01*
X322676D01*
Y463730D01*
X322628D01*
Y463634D01*
X322580D01*
Y463443D01*
X322532D01*
Y463299D01*
X322484D01*
Y463107D01*
X322436D01*
Y462820D01*
X322388D01*
Y462629D01*
X322341D01*
Y462341D01*
X322293D01*
Y461862D01*
X322341D01*
Y461814D01*
X322388D01*
Y461862D01*
X322436D01*
Y461910D01*
X322484D01*
Y462006D01*
X322532D01*
Y462054D01*
X322580D01*
Y462150D01*
X322628D01*
Y462245D01*
X322676D01*
Y462293D01*
X322724D01*
Y462389D01*
X322772D01*
Y462437D01*
X322820D01*
Y462485D01*
X322868D01*
Y462533D01*
X322915D01*
Y462581D01*
X322963D01*
Y462629D01*
X323011D01*
Y462676D01*
X323059D01*
Y462724D01*
X323107D01*
Y462772D01*
X323155D01*
Y462820D01*
X323203D01*
Y462868D01*
X323251D01*
Y462916D01*
X323346D01*
Y462964D01*
X323394D01*
Y463012D01*
X323442D01*
Y463060D01*
X323538D01*
Y463107D01*
X323586D01*
Y463155D01*
X323682D01*
Y463203D01*
X323778D01*
Y463251D01*
X323873D01*
Y463299D01*
X324017D01*
Y463347D01*
X324209D01*
Y463395D01*
X324735D01*
Y463347D01*
X324831D01*
Y463299D01*
X324927D01*
Y463251D01*
X325023D01*
Y463203D01*
X325071D01*
Y463155D01*
X325119D01*
Y463107D01*
X325167D01*
Y463060D01*
X325215D01*
Y463012D01*
X325262D01*
Y462916D01*
X325310D01*
Y462868D01*
X325358D01*
Y462724D01*
X325406D01*
Y462581D01*
X325454D01*
Y462054D01*
X325406D01*
Y461862D01*
X325358D01*
Y461718D01*
X325310D01*
Y461671D01*
X325262D01*
Y461527D01*
X325215D01*
Y461479D01*
X325167D01*
Y461383D01*
X325119D01*
Y461287D01*
X325071D01*
Y461240D01*
X325023D01*
Y461144D01*
X324975D01*
Y461096D01*
X324927D01*
Y461048D01*
X324879D01*
Y460952D01*
X324831D01*
Y460904D01*
X324783D01*
Y460808D01*
X324735D01*
Y460760D01*
X324688D01*
Y460665D01*
X324640D01*
Y460617D01*
X324592D01*
Y460521D01*
X324544D01*
Y460473D01*
X324496D01*
Y460377D01*
X324448D01*
Y460329D01*
X324400D01*
Y460234D01*
X324352D01*
Y460138D01*
X324304D01*
Y460090D01*
X324257D01*
Y459994D01*
X324209D01*
Y459898D01*
X324161D01*
Y459803D01*
X324113D01*
Y459659D01*
X324065D01*
Y459563D01*
X324017D01*
Y459419D01*
X323969D01*
Y459228D01*
X323921D01*
Y459036D01*
X323873D01*
Y458844D01*
X323921D01*
Y458797D01*
X323969D01*
Y458844D01*
X324017D01*
Y458893D01*
X324065D01*
Y458940D01*
X324113D01*
Y458988D01*
X324161D01*
Y459084D01*
X324209D01*
Y459132D01*
X324257D01*
Y459228D01*
X324304D01*
Y459276D01*
X324352D01*
Y459371D01*
X324400D01*
Y459419D01*
X324448D01*
Y459515D01*
X324496D01*
Y459563D01*
X324544D01*
Y459611D01*
X324592D01*
Y459659D01*
X324640D01*
Y459755D01*
X324688D01*
Y459803D01*
X324735D01*
Y459850D01*
X324783D01*
Y459898D01*
X324831D01*
Y459946D01*
X324879D01*
Y459994D01*
X324927D01*
Y460042D01*
X324975D01*
Y460090D01*
X325023D01*
Y460138D01*
X325119D01*
Y460186D01*
X325167D01*
Y460234D01*
X325215D01*
Y460281D01*
X325262D01*
Y460329D01*
X325310D01*
Y460377D01*
X325358D01*
Y460425D01*
X325454D01*
Y460473D01*
X325502D01*
Y460521D01*
X325550D01*
Y460569D01*
X325598D01*
Y460617D01*
X325694D01*
Y460665D01*
X325741D01*
Y460713D01*
X325789D01*
Y460760D01*
X325885D01*
Y460808D01*
X325933D01*
Y460856D01*
X325981D01*
Y460904D01*
X326077D01*
Y460952D01*
X326125D01*
Y461000D01*
X326172D01*
Y461048D01*
X326268D01*
Y461096D01*
X326316D01*
Y461144D01*
X326364D01*
Y461192D01*
X326460D01*
Y461240D01*
X326508D01*
Y461287D01*
X326556D01*
Y461335D01*
X326651D01*
Y461383D01*
X326699D01*
Y461431D01*
X326747D01*
Y461479D01*
X326795D01*
Y461527D01*
X326891D01*
Y461575D01*
X326939D01*
Y461623D01*
X326987D01*
Y461671D01*
X327035D01*
Y461718D01*
X327083D01*
Y461766D01*
X327178D01*
Y461814D01*
X327226D01*
Y461862D01*
X327274D01*
Y461910D01*
X327322D01*
Y461958D01*
X327370D01*
Y462006D01*
X327418D01*
Y462054D01*
X327466D01*
Y462102D01*
X327514D01*
Y462150D01*
X327561D01*
Y462197D01*
X327609D01*
Y462245D01*
X327657D01*
Y462293D01*
X327705D01*
Y462341D01*
X327753D01*
Y462389D01*
X327801D01*
Y462437D01*
X327849D01*
Y462533D01*
X327897D01*
Y462581D01*
X327945D01*
Y462629D01*
X327993D01*
Y462676D01*
X328041D01*
Y462772D01*
X328088D01*
Y462820D01*
X328136D01*
Y462916D01*
X328184D01*
Y463012D01*
X328232D01*
Y463060D01*
X328280D01*
Y463155D01*
X328328D01*
Y463299D01*
X328376D01*
Y463395D01*
X328424D01*
Y463491D01*
X328472D01*
Y463682D01*
X328520D01*
Y463826D01*
X328567D01*
Y464113D01*
X328615D01*
Y465311D01*
X328663D01*
Y465502D01*
X328711D01*
Y465550D01*
X328855D01*
Y465502D01*
X328903D01*
Y465407D01*
X328951D01*
Y465215D01*
X328998D01*
Y465023D01*
X329046D01*
Y464880D01*
X329094D01*
Y464544D01*
X329142D01*
Y464353D01*
X329190D01*
Y464066D01*
X329238D01*
Y462485D01*
X329190D01*
Y462197D01*
X329142D01*
Y462006D01*
X329094D01*
Y461766D01*
X329046D01*
Y461623D01*
X328998D01*
Y461527D01*
X328951D01*
Y461335D01*
X328903D01*
Y461287D01*
X328855D01*
Y461144D01*
X328807D01*
Y461000D01*
X328759D01*
Y460952D01*
X328711D01*
Y460808D01*
X328663D01*
Y460760D01*
X328615D01*
Y460665D01*
X328567D01*
Y460569D01*
X328520D01*
Y460521D01*
X328472D01*
Y460425D01*
X328424D01*
Y460329D01*
X328376D01*
Y460281D01*
X328328D01*
Y460186D01*
X328280D01*
Y460138D01*
X328232D01*
Y460090D01*
X328184D01*
Y459994D01*
X328136D01*
Y459946D01*
X328088D01*
Y459898D01*
X328041D01*
Y459850D01*
X327993D01*
Y459803D01*
X327945D01*
Y459707D01*
X327897D01*
Y459659D01*
X327849D01*
Y459611D01*
X327801D01*
Y459563D01*
X327753D01*
Y459515D01*
X327705D01*
Y459467D01*
X327657D01*
Y459419D01*
X327609D01*
Y459371D01*
X327561D01*
Y459324D01*
X327514D01*
Y459276D01*
X327466D01*
Y459228D01*
X327418D01*
Y459180D01*
X327370D01*
Y459132D01*
X327322D01*
Y459084D01*
X327274D01*
Y459036D01*
X327226D01*
Y458988D01*
X327178D01*
Y458940D01*
X327083D01*
Y458893D01*
X327035D01*
Y458844D01*
X326987D01*
Y458797D01*
X326939D01*
Y458749D01*
X326891D01*
Y458701D01*
X326795D01*
Y458653D01*
X326747D01*
Y458605D01*
X326699D01*
Y458557D01*
X326604D01*
Y458509D01*
X326556D01*
Y458461D01*
X326508D01*
Y458414D01*
X326412D01*
Y458366D01*
X326364D01*
Y458318D01*
X326268D01*
Y458270D01*
X326220D01*
Y458222D01*
X326172D01*
Y458174D01*
X326077D01*
Y458126D01*
X325981D01*
Y458078D01*
X325933D01*
Y458030D01*
X325837D01*
Y457982D01*
X325789D01*
Y457934D01*
X325694D01*
Y457887D01*
X325598D01*
Y457839D01*
X325502D01*
Y457791D01*
X325406D01*
Y457743D01*
X325358D01*
Y457695D01*
X325262D01*
Y457647D01*
X325167D01*
Y457599D01*
X325071D01*
Y457551D01*
X324975D01*
Y457503D01*
X324879D01*
Y457455D01*
X324783D01*
Y457408D01*
X324688D01*
Y457360D01*
X324592D01*
Y457312D01*
X324496D01*
Y457264D01*
X324352D01*
Y457216D01*
X324304D01*
Y457168D01*
X324161D01*
Y457120D01*
X324065D01*
Y457072D01*
X323969D01*
Y457024D01*
X323825D01*
Y456977D01*
X323730D01*
Y456929D01*
X323586D01*
Y456881D01*
X323442D01*
Y456833D01*
X323346D01*
Y456785D01*
X323155D01*
Y456737D01*
X323011D01*
Y456689D01*
X322868D01*
Y456641D01*
X322676D01*
Y456593D01*
X322532D01*
Y456545D01*
X322388D01*
Y456497D01*
X322149D01*
Y456450D01*
X322005D01*
Y456402D01*
X321814D01*
Y456354D01*
X321622D01*
Y456306D01*
X321478D01*
Y456258D01*
X321239D01*
Y456210D01*
X321047D01*
Y456162D01*
X320904D01*
Y456114D01*
X320664D01*
Y456066D01*
X320521D01*
Y456018D01*
X320329D01*
Y455971D01*
X320185D01*
Y455923D01*
X320042D01*
Y455875D01*
X319850D01*
Y455827D01*
X319706D01*
Y455779D01*
X319562D01*
Y455731D01*
X319419D01*
Y455683D01*
X319323D01*
Y455635D01*
X319131D01*
Y455588D01*
X319036D01*
Y455540D01*
X318940D01*
Y455492D01*
X318796D01*
Y455444D01*
X318700D01*
Y455396D01*
X318605D01*
Y455348D01*
X318461D01*
Y455300D01*
X318413D01*
Y455252D01*
X318269D01*
Y455204D01*
X318173D01*
Y455156D01*
X318125D01*
Y455108D01*
X318030D01*
Y455061D01*
X317934D01*
Y455013D01*
X317886D01*
Y454965D01*
X317790D01*
Y454917D01*
X317742D01*
Y454869D01*
X317647D01*
Y454821D01*
X317599D01*
Y454773D01*
X317503D01*
Y454725D01*
X317455D01*
Y454677D01*
X317407D01*
Y454630D01*
X317359D01*
Y454582D01*
X317263D01*
Y454534D01*
X317215D01*
Y454486D01*
X317168D01*
Y454438D01*
X317120D01*
Y454390D01*
X317072D01*
Y454342D01*
X317024D01*
Y454294D01*
X316976D01*
Y454246D01*
X316928D01*
Y454198D01*
X316880D01*
Y454151D01*
X316832D01*
Y454007D01*
X316784D01*
Y453911D01*
X316737D01*
Y453815D01*
X316545D01*
Y453863D01*
X316497D01*
Y454198D01*
X316545D01*
Y454390D01*
X316593D01*
Y454582D01*
X316641D01*
Y454630D01*
X316689D01*
Y454773D01*
X316737D01*
Y454821D01*
X316784D01*
Y454869D01*
X316832D01*
Y454965D01*
X316880D01*
Y455013D01*
X316928D01*
Y455108D01*
X316976D01*
Y455156D01*
X317024D01*
Y455204D01*
X317072D01*
Y455252D01*
X317120D01*
Y455300D01*
X317168D01*
Y455348D01*
X317215D01*
Y455396D01*
X317263D01*
Y455444D01*
X317311D01*
Y455492D01*
X317359D01*
Y455540D01*
X317407D01*
Y455588D01*
X317503D01*
Y455635D01*
X317551D01*
Y455683D01*
X317599D01*
Y455731D01*
X317647D01*
Y455779D01*
X317742D01*
Y455827D01*
X317790D01*
Y455875D01*
X317838D01*
Y455923D01*
X317886D01*
Y455971D01*
X317982D01*
Y456018D01*
X318030D01*
Y456066D01*
X318078D01*
Y456114D01*
X318173D01*
Y456162D01*
X318221D01*
Y456210D01*
X318269D01*
Y456258D01*
X318365D01*
Y456306D01*
X318413D01*
Y456354D01*
X318509D01*
Y456402D01*
X318557D01*
Y456450D01*
X318605D01*
Y456497D01*
X318700D01*
Y456545D01*
X318748D01*
Y456593D01*
X318844D01*
Y456641D01*
X318892D01*
Y456689D01*
X318988D01*
Y456737D01*
X319036D01*
Y456785D01*
X319131D01*
Y456833D01*
X319179D01*
Y456881D01*
X319227D01*
Y456929D01*
X319323D01*
Y456977D01*
X319371D01*
Y457024D01*
X319467D01*
Y457072D01*
X319515D01*
Y457120D01*
X319562D01*
Y457168D01*
X319658D01*
Y457216D01*
X319706D01*
Y457264D01*
X319802D01*
Y457312D01*
X319850D01*
Y457360D01*
X319898D01*
Y457408D01*
X319994D01*
Y457455D01*
X320042D01*
Y457503D01*
X320089D01*
Y457551D01*
X320185D01*
Y457599D01*
X320233D01*
Y457647D01*
X320281D01*
Y457695D01*
X320329D01*
Y457743D01*
X320377D01*
Y457791D01*
X320473D01*
Y457839D01*
X320521D01*
Y457887D01*
X320568D01*
Y457934D01*
X320616D01*
Y457982D01*
X320664D01*
Y458030D01*
X320712D01*
Y458078D01*
X320760D01*
Y458126D01*
X320808D01*
Y458174D01*
X320856D01*
Y458222D01*
X320904D01*
Y458270D01*
X320952D01*
Y458318D01*
X320999D01*
Y458366D01*
X321047D01*
Y458414D01*
X321095D01*
Y458461D01*
X321143D01*
Y458557D01*
X321191D01*
Y458605D01*
X321239D01*
Y458653D01*
X321287D01*
Y458749D01*
X321335D01*
Y458844D01*
X321383D01*
Y458893D01*
X321431D01*
Y459036D01*
X321478D01*
Y459132D01*
X321526D01*
Y459324D01*
X321574D01*
Y459898D01*
X321526D01*
Y460090D01*
X321478D01*
Y460186D01*
X321431D01*
Y460281D01*
X321383D01*
Y460329D01*
X321335D01*
Y460425D01*
X321287D01*
Y460473D01*
X321239D01*
Y460521D01*
X321191D01*
Y460569D01*
X321143D01*
Y460617D01*
X321047D01*
Y460665D01*
X320952D01*
Y460713D01*
X320856D01*
Y460760D01*
X320616D01*
Y460808D01*
X320185D01*
Y460760D01*
X319898D01*
Y460713D01*
X319706D01*
Y460665D01*
X319610D01*
Y460617D01*
X319467D01*
Y460569D01*
X319371D01*
Y460521D01*
X319275D01*
Y460473D01*
X319179D01*
Y460425D01*
X319131D01*
Y460377D01*
X319036D01*
Y460329D01*
X318988D01*
Y460281D01*
X318892D01*
Y460234D01*
X318844D01*
Y460186D01*
X318748D01*
Y460138D01*
X318700D01*
Y460090D01*
X318652D01*
Y460042D01*
X318557D01*
Y459994D01*
X318509D01*
Y459946D01*
X318461D01*
Y459898D01*
X318413D01*
Y459850D01*
X318365D01*
Y459803D01*
X318317D01*
Y459755D01*
X318269D01*
Y459707D01*
X318173D01*
Y459659D01*
X318078D01*
Y459707D01*
X318030D01*
Y459755D01*
X317982D01*
Y459946D01*
X318030D01*
Y460042D01*
X318078D01*
Y460186D01*
X318125D01*
Y460377D01*
X318173D01*
Y460473D01*
X318221D01*
Y460665D01*
X318269D01*
Y460760D01*
X318317D01*
Y460856D01*
X318365D01*
Y461000D01*
X318413D01*
Y461096D01*
X318461D01*
Y461192D01*
X318509D01*
Y461335D01*
X318557D01*
Y461383D01*
X318605D01*
Y461527D01*
X318652D01*
Y461623D01*
X318700D01*
Y461671D01*
X318748D01*
Y461814D01*
X318796D01*
Y461862D01*
X318844D01*
Y461958D01*
X318892D01*
Y462054D01*
X318940D01*
Y462102D01*
X318988D01*
Y462197D01*
X319036D01*
Y462293D01*
X319083D01*
Y462389D01*
X319131D01*
Y462437D01*
X319179D01*
Y462533D01*
X319227D01*
Y462581D01*
X319275D01*
Y462676D01*
X319323D01*
Y462772D01*
X319371D01*
Y462820D01*
X319419D01*
Y462916D01*
X319467D01*
Y462964D01*
X319515D01*
Y463060D01*
X319562D01*
Y463107D01*
X319610D01*
Y463155D01*
X319658D01*
Y463251D01*
X319706D01*
Y463299D01*
X319754D01*
Y463347D01*
X319802D01*
Y463443D01*
X319850D01*
Y463491D01*
X319898D01*
Y463539D01*
X319946D01*
Y463587D01*
X319994D01*
Y463634D01*
X320042D01*
Y463730D01*
X320089D01*
Y463778D01*
X320137D01*
Y463826D01*
X320185D01*
Y463874D01*
X320233D01*
Y463922D01*
X320281D01*
Y464018D01*
X320329D01*
Y464066D01*
X320377D01*
Y464113D01*
X320425D01*
Y464161D01*
X320473D01*
Y464209D01*
X320521D01*
Y464257D01*
X320568D01*
Y464305D01*
X320616D01*
Y464353D01*
X320664D01*
Y464401D01*
X320712D01*
Y464449D01*
X320760D01*
Y464497D01*
X320808D01*
Y464544D01*
X320856D01*
Y464592D01*
X320904D01*
Y464640D01*
X320952D01*
Y464688D01*
X320999D01*
Y464736D01*
X321047D01*
Y464784D01*
X321095D01*
Y464832D01*
X321191D01*
Y464880D01*
X321239D01*
Y464928D01*
X321287D01*
Y464976D01*
X321335D01*
Y465023D01*
X321383D01*
Y465071D01*
X321478D01*
Y465119D01*
X321526D01*
Y465167D01*
X321574D01*
Y465215D01*
X321670D01*
Y465263D01*
X321718D01*
Y465311D01*
X321766D01*
Y465359D01*
X321862D01*
Y465407D01*
X321909D01*
Y465454D01*
X322005D01*
Y465502D01*
X322053D01*
Y465550D01*
X322149D01*
Y465598D01*
X322197D01*
Y465646D01*
X322293D01*
Y465694D01*
X322388D01*
Y465742D01*
X322436D01*
Y465790D01*
X322532D01*
Y465838D01*
X322628D01*
Y465886D01*
X322724D01*
Y465933D01*
X322820D01*
Y465981D01*
X322963D01*
Y466029D01*
X323011D01*
Y466077D01*
X323155D01*
Y466125D01*
X323299D01*
Y466173D01*
X323442D01*
Y466221D01*
X323634D01*
Y466269D01*
X323778D01*
Y466317D01*
X324017D01*
Y466365D01*
X324400D01*
Y466413D01*
X325023D01*
Y466221D01*
D02*
G37*
G36*
X393455Y426137D02*
X393503D01*
Y425802D01*
X393455D01*
Y425610D01*
X393407D01*
Y425418D01*
X393359D01*
Y425370D01*
X393311D01*
Y425227D01*
X393264D01*
Y425179D01*
X393216D01*
Y425131D01*
X393168D01*
Y425035D01*
X393120D01*
Y424987D01*
X393072D01*
Y424892D01*
X393024D01*
Y424844D01*
X392976D01*
Y424796D01*
X392928D01*
Y424748D01*
X392880D01*
Y424700D01*
X392832D01*
Y424652D01*
X392785D01*
Y424604D01*
X392737D01*
Y424556D01*
X392689D01*
Y424508D01*
X392641D01*
Y424460D01*
X392593D01*
Y424412D01*
X392497D01*
Y424365D01*
X392449D01*
Y424317D01*
X392401D01*
Y424269D01*
X392353D01*
Y424221D01*
X392258D01*
Y424173D01*
X392210D01*
Y424125D01*
X392162D01*
Y424077D01*
X392114D01*
Y424029D01*
X392018D01*
Y423981D01*
X391970D01*
Y423933D01*
X391922D01*
Y423886D01*
X391827D01*
Y423838D01*
X391779D01*
Y423790D01*
X391731D01*
Y423742D01*
X391635D01*
Y423694D01*
X391587D01*
Y423646D01*
X391491D01*
Y423598D01*
X391443D01*
Y423550D01*
X391395D01*
Y423503D01*
X391300D01*
Y423455D01*
X391252D01*
Y423407D01*
X391156D01*
Y423359D01*
X391108D01*
Y423311D01*
X391012D01*
Y423263D01*
X390964D01*
Y423215D01*
X390869D01*
Y423167D01*
X390821D01*
Y423119D01*
X390773D01*
Y423071D01*
X390677D01*
Y423023D01*
X390629D01*
Y422976D01*
X390533D01*
Y422928D01*
X390485D01*
Y422880D01*
X390438D01*
Y422832D01*
X390342D01*
Y422784D01*
X390294D01*
Y422736D01*
X390198D01*
Y422688D01*
X390150D01*
Y422640D01*
X390102D01*
Y422592D01*
X390006D01*
Y422545D01*
X389958D01*
Y422497D01*
X389911D01*
Y422449D01*
X389815D01*
Y422401D01*
X389767D01*
Y422353D01*
X389719D01*
Y422305D01*
X389671D01*
Y422257D01*
X389623D01*
Y422209D01*
X389527D01*
Y422161D01*
X389479D01*
Y422113D01*
X389432D01*
Y422066D01*
X389384D01*
Y422018D01*
X389336D01*
Y421970D01*
X389288D01*
Y421922D01*
X389240D01*
Y421874D01*
X389192D01*
Y421826D01*
X389144D01*
Y421778D01*
X389096D01*
Y421730D01*
X389048D01*
Y421682D01*
X389001D01*
Y421634D01*
X388953D01*
Y421586D01*
X388905D01*
Y421539D01*
X388857D01*
Y421443D01*
X388809D01*
Y421395D01*
X388761D01*
Y421347D01*
X388713D01*
Y421251D01*
X388665D01*
Y421155D01*
X388617D01*
Y421107D01*
X388569D01*
Y420964D01*
X388522D01*
Y420868D01*
X388474D01*
Y420676D01*
X388426D01*
Y420102D01*
X388474D01*
Y419910D01*
X388522D01*
Y419814D01*
X388569D01*
Y419719D01*
X388617D01*
Y419671D01*
X388665D01*
Y419575D01*
X388713D01*
Y419527D01*
X388761D01*
Y419479D01*
X388809D01*
Y419431D01*
X388857D01*
Y419383D01*
X388953D01*
Y419335D01*
X389048D01*
Y419287D01*
X389144D01*
Y419240D01*
X389384D01*
Y419192D01*
X389815D01*
Y419240D01*
X390102D01*
Y419287D01*
X390294D01*
Y419335D01*
X390390D01*
Y419383D01*
X390533D01*
Y419431D01*
X390629D01*
Y419479D01*
X390725D01*
Y419527D01*
X390821D01*
Y419575D01*
X390869D01*
Y419623D01*
X390964D01*
Y419671D01*
X391012D01*
Y419719D01*
X391108D01*
Y419766D01*
X391156D01*
Y419814D01*
X391252D01*
Y419862D01*
X391300D01*
Y419910D01*
X391348D01*
Y419958D01*
X391443D01*
Y420006D01*
X391491D01*
Y420054D01*
X391539D01*
Y420102D01*
X391587D01*
Y420150D01*
X391635D01*
Y420197D01*
X391683D01*
Y420245D01*
X391731D01*
Y420293D01*
X391827D01*
Y420341D01*
X391922D01*
Y420293D01*
X391970D01*
Y420245D01*
X392018D01*
Y420054D01*
X391970D01*
Y419958D01*
X391922D01*
Y419814D01*
X391875D01*
Y419623D01*
X391827D01*
Y419527D01*
X391779D01*
Y419335D01*
X391731D01*
Y419240D01*
X391683D01*
Y419144D01*
X391635D01*
Y419000D01*
X391587D01*
Y418904D01*
X391539D01*
Y418808D01*
X391491D01*
Y418665D01*
X391443D01*
Y418617D01*
X391395D01*
Y418473D01*
X391348D01*
Y418377D01*
X391300D01*
Y418329D01*
X391252D01*
Y418186D01*
X391204D01*
Y418138D01*
X391156D01*
Y418042D01*
X391108D01*
Y417946D01*
X391060D01*
Y417898D01*
X391012D01*
Y417803D01*
X390964D01*
Y417707D01*
X390916D01*
Y417611D01*
X390869D01*
Y417563D01*
X390821D01*
Y417467D01*
X390773D01*
Y417419D01*
X390725D01*
Y417323D01*
X390677D01*
Y417228D01*
X390629D01*
Y417180D01*
X390581D01*
Y417084D01*
X390533D01*
Y417036D01*
X390485D01*
Y416940D01*
X390438D01*
Y416893D01*
X390390D01*
Y416845D01*
X390342D01*
Y416749D01*
X390294D01*
Y416701D01*
X390246D01*
Y416653D01*
X390198D01*
Y416557D01*
X390150D01*
Y416509D01*
X390102D01*
Y416461D01*
X390054D01*
Y416413D01*
X390006D01*
Y416366D01*
X389958D01*
Y416270D01*
X389911D01*
Y416222D01*
X389863D01*
Y416174D01*
X389815D01*
Y416126D01*
X389767D01*
Y416078D01*
X389719D01*
Y415982D01*
X389671D01*
Y415934D01*
X389623D01*
Y415887D01*
X389575D01*
Y415839D01*
X389527D01*
Y415791D01*
X389479D01*
Y415743D01*
X389432D01*
Y415695D01*
X389384D01*
Y415647D01*
X389336D01*
Y415599D01*
X389288D01*
Y415551D01*
X389240D01*
Y415503D01*
X389192D01*
Y415456D01*
X389144D01*
Y415408D01*
X389096D01*
Y415360D01*
X389048D01*
Y415312D01*
X389001D01*
Y415264D01*
X388953D01*
Y415216D01*
X388905D01*
Y415168D01*
X388809D01*
Y415120D01*
X388761D01*
Y415072D01*
X388713D01*
Y415024D01*
X388665D01*
Y414977D01*
X388617D01*
Y414929D01*
X388522D01*
Y414881D01*
X388474D01*
Y414833D01*
X388426D01*
Y414785D01*
X388330D01*
Y414737D01*
X388282D01*
Y414689D01*
X388234D01*
Y414641D01*
X388138D01*
Y414593D01*
X388091D01*
Y414545D01*
X387995D01*
Y414497D01*
X387947D01*
Y414450D01*
X387851D01*
Y414402D01*
X387803D01*
Y414354D01*
X387707D01*
Y414306D01*
X387612D01*
Y414258D01*
X387564D01*
Y414210D01*
X387468D01*
Y414162D01*
X387372D01*
Y414114D01*
X387276D01*
Y414067D01*
X387180D01*
Y414019D01*
X387037D01*
Y413971D01*
X386989D01*
Y413923D01*
X386845D01*
Y413875D01*
X386701D01*
Y413827D01*
X386558D01*
Y413779D01*
X386366D01*
Y413731D01*
X386222D01*
Y413683D01*
X385983D01*
Y413635D01*
X385600D01*
Y413587D01*
X384977D01*
Y413779D01*
X385025D01*
Y413827D01*
X385121D01*
Y413875D01*
X385217D01*
Y413923D01*
X385360D01*
Y413971D01*
X385408D01*
Y414019D01*
X385552D01*
Y414067D01*
X385648D01*
Y414114D01*
X385743D01*
Y414162D01*
X385791D01*
Y414210D01*
X385887D01*
Y414258D01*
X385935D01*
Y414306D01*
X385983D01*
Y414354D01*
X386031D01*
Y414402D01*
X386127D01*
Y414450D01*
X386175D01*
Y414497D01*
X386222D01*
Y414545D01*
X386270D01*
Y414593D01*
X386318D01*
Y414641D01*
X386366D01*
Y414689D01*
X386414D01*
Y414737D01*
X386462D01*
Y414785D01*
X386510D01*
Y414833D01*
X386558D01*
Y414881D01*
X386606D01*
Y414929D01*
X386654D01*
Y415024D01*
X386701D01*
Y415072D01*
X386749D01*
Y415120D01*
X386797D01*
Y415216D01*
X386845D01*
Y415264D01*
X386893D01*
Y415360D01*
X386941D01*
Y415408D01*
X386989D01*
Y415503D01*
X387037D01*
Y415599D01*
X387085D01*
Y415695D01*
X387132D01*
Y415791D01*
X387180D01*
Y415887D01*
X387228D01*
Y415982D01*
X387276D01*
Y416126D01*
X387324D01*
Y416270D01*
X387372D01*
Y416366D01*
X387420D01*
Y416557D01*
X387468D01*
Y416701D01*
X387516D01*
Y416893D01*
X387564D01*
Y417180D01*
X387612D01*
Y417371D01*
X387659D01*
Y417659D01*
X387707D01*
Y418138D01*
X387659D01*
Y418186D01*
X387612D01*
Y418138D01*
X387564D01*
Y418090D01*
X387516D01*
Y417994D01*
X387468D01*
Y417946D01*
X387420D01*
Y417850D01*
X387372D01*
Y417755D01*
X387324D01*
Y417707D01*
X387276D01*
Y417611D01*
X387228D01*
Y417563D01*
X387180D01*
Y417515D01*
X387132D01*
Y417467D01*
X387085D01*
Y417419D01*
X387037D01*
Y417371D01*
X386989D01*
Y417323D01*
X386941D01*
Y417276D01*
X386893D01*
Y417228D01*
X386845D01*
Y417180D01*
X386797D01*
Y417132D01*
X386749D01*
Y417084D01*
X386654D01*
Y417036D01*
X386606D01*
Y416988D01*
X386558D01*
Y416940D01*
X386462D01*
Y416893D01*
X386414D01*
Y416845D01*
X386318D01*
Y416797D01*
X386222D01*
Y416749D01*
X386127D01*
Y416701D01*
X385983D01*
Y416653D01*
X385791D01*
Y416605D01*
X385265D01*
Y416653D01*
X385169D01*
Y416701D01*
X385073D01*
Y416749D01*
X384977D01*
Y416797D01*
X384929D01*
Y416845D01*
X384881D01*
Y416893D01*
X384833D01*
Y416940D01*
X384785D01*
Y416988D01*
X384738D01*
Y417084D01*
X384690D01*
Y417132D01*
X384642D01*
Y417276D01*
X384594D01*
Y417419D01*
X384546D01*
Y417946D01*
X384594D01*
Y418138D01*
X384642D01*
Y418282D01*
X384690D01*
Y418329D01*
X384738D01*
Y418473D01*
X384785D01*
Y418521D01*
X384833D01*
Y418617D01*
X384881D01*
Y418713D01*
X384929D01*
Y418760D01*
X384977D01*
Y418856D01*
X385025D01*
Y418904D01*
X385073D01*
Y418952D01*
X385121D01*
Y419048D01*
X385169D01*
Y419096D01*
X385217D01*
Y419192D01*
X385265D01*
Y419240D01*
X385312D01*
Y419335D01*
X385360D01*
Y419383D01*
X385408D01*
Y419479D01*
X385456D01*
Y419527D01*
X385504D01*
Y419623D01*
X385552D01*
Y419671D01*
X385600D01*
Y419766D01*
X385648D01*
Y419862D01*
X385696D01*
Y419910D01*
X385743D01*
Y420006D01*
X385791D01*
Y420102D01*
X385839D01*
Y420197D01*
X385887D01*
Y420341D01*
X385935D01*
Y420437D01*
X385983D01*
Y420581D01*
X386031D01*
Y420772D01*
X386079D01*
Y420964D01*
X386127D01*
Y421155D01*
X386079D01*
Y421203D01*
X386031D01*
Y421155D01*
X385983D01*
Y421107D01*
X385935D01*
Y421060D01*
X385887D01*
Y421012D01*
X385839D01*
Y420916D01*
X385791D01*
Y420868D01*
X385743D01*
Y420772D01*
X385696D01*
Y420724D01*
X385648D01*
Y420629D01*
X385600D01*
Y420581D01*
X385552D01*
Y420485D01*
X385504D01*
Y420437D01*
X385456D01*
Y420389D01*
X385408D01*
Y420341D01*
X385360D01*
Y420245D01*
X385312D01*
Y420197D01*
X385265D01*
Y420150D01*
X385217D01*
Y420102D01*
X385169D01*
Y420054D01*
X385121D01*
Y420006D01*
X385073D01*
Y419958D01*
X385025D01*
Y419910D01*
X384977D01*
Y419862D01*
X384881D01*
Y419814D01*
X384833D01*
Y419766D01*
X384785D01*
Y419719D01*
X384738D01*
Y419671D01*
X384690D01*
Y419623D01*
X384642D01*
Y419575D01*
X384546D01*
Y419527D01*
X384498D01*
Y419479D01*
X384450D01*
Y419431D01*
X384402D01*
Y419383D01*
X384306D01*
Y419335D01*
X384259D01*
Y419287D01*
X384211D01*
Y419240D01*
X384115D01*
Y419192D01*
X384067D01*
Y419144D01*
X384019D01*
Y419096D01*
X383923D01*
Y419048D01*
X383875D01*
Y419000D01*
X383828D01*
Y418952D01*
X383732D01*
Y418904D01*
X383684D01*
Y418856D01*
X383636D01*
Y418808D01*
X383540D01*
Y418760D01*
X383492D01*
Y418713D01*
X383444D01*
Y418665D01*
X383349D01*
Y418617D01*
X383301D01*
Y418569D01*
X383253D01*
Y418521D01*
X383205D01*
Y418473D01*
X383109D01*
Y418425D01*
X383061D01*
Y418377D01*
X383013D01*
Y418329D01*
X382965D01*
Y418282D01*
X382917D01*
Y418234D01*
X382822D01*
Y418186D01*
X382774D01*
Y418138D01*
X382726D01*
Y418090D01*
X382678D01*
Y418042D01*
X382630D01*
Y417994D01*
X382582D01*
Y417946D01*
X382534D01*
Y417898D01*
X382486D01*
Y417850D01*
X382439D01*
Y417803D01*
X382391D01*
Y417755D01*
X382343D01*
Y417707D01*
X382295D01*
Y417659D01*
X382247D01*
Y417611D01*
X382199D01*
Y417563D01*
X382151D01*
Y417467D01*
X382103D01*
Y417419D01*
X382055D01*
Y417371D01*
X382007D01*
Y417323D01*
X381959D01*
Y417228D01*
X381912D01*
Y417180D01*
X381864D01*
Y417084D01*
X381816D01*
Y416988D01*
X381768D01*
Y416940D01*
X381720D01*
Y416845D01*
X381672D01*
Y416701D01*
X381624D01*
Y416605D01*
X381576D01*
Y416509D01*
X381528D01*
Y416318D01*
X381480D01*
Y416174D01*
X381433D01*
Y415887D01*
X381385D01*
Y414689D01*
X381337D01*
Y414497D01*
X381289D01*
Y414450D01*
X381145D01*
Y414497D01*
X381097D01*
Y414593D01*
X381049D01*
Y414785D01*
X381002D01*
Y414977D01*
X380954D01*
Y415120D01*
X380906D01*
Y415456D01*
X380858D01*
Y415647D01*
X380810D01*
Y415934D01*
X380762D01*
Y417515D01*
X380810D01*
Y417803D01*
X380858D01*
Y417994D01*
X380906D01*
Y418234D01*
X380954D01*
Y418377D01*
X381002D01*
Y418473D01*
X381049D01*
Y418665D01*
X381097D01*
Y418713D01*
X381145D01*
Y418856D01*
X381193D01*
Y419000D01*
X381241D01*
Y419048D01*
X381289D01*
Y419192D01*
X381337D01*
Y419240D01*
X381385D01*
Y419335D01*
X381433D01*
Y419431D01*
X381480D01*
Y419479D01*
X381528D01*
Y419575D01*
X381576D01*
Y419671D01*
X381624D01*
Y419719D01*
X381672D01*
Y419814D01*
X381720D01*
Y419862D01*
X381768D01*
Y419910D01*
X381816D01*
Y420006D01*
X381864D01*
Y420054D01*
X381912D01*
Y420102D01*
X381959D01*
Y420150D01*
X382007D01*
Y420197D01*
X382055D01*
Y420293D01*
X382103D01*
Y420341D01*
X382151D01*
Y420389D01*
X382199D01*
Y420437D01*
X382247D01*
Y420485D01*
X382295D01*
Y420533D01*
X382343D01*
Y420581D01*
X382391D01*
Y420629D01*
X382439D01*
Y420676D01*
X382486D01*
Y420724D01*
X382534D01*
Y420772D01*
X382582D01*
Y420820D01*
X382630D01*
Y420868D01*
X382678D01*
Y420916D01*
X382726D01*
Y420964D01*
X382774D01*
Y421012D01*
X382822D01*
Y421060D01*
X382917D01*
Y421107D01*
X382965D01*
Y421155D01*
X383013D01*
Y421203D01*
X383061D01*
Y421251D01*
X383109D01*
Y421299D01*
X383205D01*
Y421347D01*
X383253D01*
Y421395D01*
X383301D01*
Y421443D01*
X383396D01*
Y421491D01*
X383444D01*
Y421539D01*
X383492D01*
Y421586D01*
X383588D01*
Y421634D01*
X383636D01*
Y421682D01*
X383732D01*
Y421730D01*
X383780D01*
Y421778D01*
X383828D01*
Y421826D01*
X383923D01*
Y421874D01*
X384019D01*
Y421922D01*
X384067D01*
Y421970D01*
X384163D01*
Y422018D01*
X384211D01*
Y422066D01*
X384306D01*
Y422113D01*
X384402D01*
Y422161D01*
X384498D01*
Y422209D01*
X384594D01*
Y422257D01*
X384642D01*
Y422305D01*
X384738D01*
Y422353D01*
X384833D01*
Y422401D01*
X384929D01*
Y422449D01*
X385025D01*
Y422497D01*
X385121D01*
Y422545D01*
X385217D01*
Y422592D01*
X385312D01*
Y422640D01*
X385408D01*
Y422688D01*
X385504D01*
Y422736D01*
X385648D01*
Y422784D01*
X385696D01*
Y422832D01*
X385839D01*
Y422880D01*
X385935D01*
Y422928D01*
X386031D01*
Y422976D01*
X386175D01*
Y423023D01*
X386270D01*
Y423071D01*
X386414D01*
Y423119D01*
X386558D01*
Y423167D01*
X386654D01*
Y423215D01*
X386845D01*
Y423263D01*
X386989D01*
Y423311D01*
X387132D01*
Y423359D01*
X387324D01*
Y423407D01*
X387468D01*
Y423455D01*
X387612D01*
Y423503D01*
X387851D01*
Y423550D01*
X387995D01*
Y423598D01*
X388186D01*
Y423646D01*
X388378D01*
Y423694D01*
X388522D01*
Y423742D01*
X388761D01*
Y423790D01*
X388953D01*
Y423838D01*
X389096D01*
Y423886D01*
X389336D01*
Y423933D01*
X389479D01*
Y423981D01*
X389671D01*
Y424029D01*
X389815D01*
Y424077D01*
X389958D01*
Y424125D01*
X390150D01*
Y424173D01*
X390294D01*
Y424221D01*
X390438D01*
Y424269D01*
X390581D01*
Y424317D01*
X390677D01*
Y424365D01*
X390869D01*
Y424412D01*
X390964D01*
Y424460D01*
X391060D01*
Y424508D01*
X391204D01*
Y424556D01*
X391300D01*
Y424604D01*
X391395D01*
Y424652D01*
X391539D01*
Y424700D01*
X391587D01*
Y424748D01*
X391731D01*
Y424796D01*
X391827D01*
Y424844D01*
X391875D01*
Y424892D01*
X391970D01*
Y424939D01*
X392066D01*
Y424987D01*
X392114D01*
Y425035D01*
X392210D01*
Y425083D01*
X392258D01*
Y425131D01*
X392353D01*
Y425179D01*
X392401D01*
Y425227D01*
X392497D01*
Y425275D01*
X392545D01*
Y425323D01*
X392593D01*
Y425370D01*
X392641D01*
Y425418D01*
X392737D01*
Y425466D01*
X392785D01*
Y425514D01*
X392832D01*
Y425562D01*
X392880D01*
Y425610D01*
X392928D01*
Y425658D01*
X392976D01*
Y425706D01*
X393024D01*
Y425754D01*
X393072D01*
Y425802D01*
X393120D01*
Y425849D01*
X393168D01*
Y425993D01*
X393216D01*
Y426089D01*
X393264D01*
Y426185D01*
X393455D01*
Y426137D01*
D02*
G37*
G36*
X425686Y406932D02*
X425800D01*
Y406903D01*
X425943D01*
Y406875D01*
X426030D01*
Y406846D01*
X426058D01*
Y406015D01*
X426030D01*
Y405986D01*
X425714D01*
Y406015D01*
X425284D01*
Y405986D01*
X425084D01*
Y405958D01*
X424969D01*
Y405929D01*
X424912D01*
Y405900D01*
X424855D01*
Y405872D01*
X424797D01*
Y405843D01*
X424769D01*
Y405814D01*
X424740D01*
Y405757D01*
X424711D01*
Y405728D01*
X424683D01*
Y405671D01*
X424654D01*
Y405585D01*
X424625D01*
Y405471D01*
X424597D01*
Y404382D01*
X424625D01*
Y404353D01*
X425886D01*
Y403608D01*
X424597D01*
Y398765D01*
X423508D01*
Y399195D01*
Y399223D01*
Y403608D01*
X422447D01*
Y404353D01*
X423479D01*
Y404382D01*
X423508D01*
Y405499D01*
X423536D01*
Y405728D01*
X423565D01*
Y405872D01*
X423594D01*
Y405986D01*
X423622D01*
Y406044D01*
X423651D01*
Y406130D01*
X423680D01*
Y406187D01*
X423708D01*
Y406216D01*
X423737D01*
Y406273D01*
X423766D01*
Y406330D01*
X423794D01*
Y406359D01*
X423823D01*
Y406416D01*
X423852D01*
Y406445D01*
X423880D01*
Y406474D01*
X423909D01*
Y406502D01*
X423937D01*
Y406531D01*
X423966D01*
Y406559D01*
X423995D01*
Y406588D01*
X424052D01*
Y406617D01*
X424081D01*
Y406646D01*
X424109D01*
Y406674D01*
X424167D01*
Y406703D01*
X424195D01*
Y406731D01*
X424253D01*
Y406760D01*
X424310D01*
Y406789D01*
X424367D01*
Y406817D01*
X424453D01*
Y406846D01*
X424511D01*
Y406875D01*
X424597D01*
Y406903D01*
X424711D01*
Y406932D01*
X424826D01*
Y406961D01*
X425686D01*
Y406932D01*
D02*
G37*
G36*
X403753Y411899D02*
X403801D01*
Y402750D01*
X403753D01*
Y402606D01*
X403705D01*
Y402271D01*
X403657D01*
Y402175D01*
X403610D01*
Y402079D01*
X403657D01*
Y402032D01*
X403610D01*
Y401936D01*
X403562D01*
Y401696D01*
X403466D01*
Y401505D01*
X403418D01*
Y401313D01*
X403322D01*
Y401169D01*
X403226D01*
Y401121D01*
X403274D01*
Y401073D01*
X403226D01*
Y401026D01*
X403178D01*
Y400882D01*
X403131D01*
Y400834D01*
X403083D01*
Y400738D01*
X403035D01*
Y400643D01*
X402939D01*
Y400547D01*
X402891D01*
Y400451D01*
X402843D01*
Y400403D01*
X402795D01*
Y400355D01*
X402747D01*
Y400307D01*
X402700D01*
Y400259D01*
X402652D01*
Y400211D01*
X402604D01*
Y400163D01*
X402556D01*
Y400116D01*
X402508D01*
Y400068D01*
X402460D01*
Y400020D01*
X402412D01*
Y399972D01*
X402364D01*
Y399924D01*
X402316D01*
Y399876D01*
X402268D01*
Y399828D01*
X402220D01*
Y399780D01*
X402173D01*
Y399732D01*
X402125D01*
Y399684D01*
X402029D01*
Y399637D01*
X401981D01*
Y399589D01*
X401933D01*
Y399541D01*
X401885D01*
Y399493D01*
X401789D01*
Y399445D01*
X401694D01*
Y399397D01*
X401646D01*
Y399349D01*
X401550D01*
Y399301D01*
X401454D01*
Y399253D01*
X401406D01*
Y399206D01*
X401263D01*
Y399158D01*
X401167D01*
Y399110D01*
X401119D01*
Y399062D01*
X400975D01*
Y399014D01*
X400927D01*
Y398966D01*
X400784D01*
Y398918D01*
X400592D01*
Y398822D01*
X400400D01*
Y398774D01*
X400209D01*
Y398727D01*
X400113D01*
Y398679D01*
X399874D01*
Y398631D01*
X399826D01*
Y398583D01*
X399538D01*
Y398535D01*
X399155D01*
Y398487D01*
X399107D01*
Y398439D01*
X398580D01*
Y398391D01*
X398341D01*
Y398343D01*
X398197D01*
Y398391D01*
X396616D01*
Y398343D01*
X396521D01*
Y398391D01*
X396233D01*
Y398439D01*
X395706D01*
Y398487D01*
X395658D01*
Y398535D01*
X395275D01*
Y398583D01*
X394988D01*
Y398631D01*
X394940D01*
Y398679D01*
X394701D01*
Y398727D01*
X394653D01*
Y398774D01*
X394557D01*
Y398727D01*
X394509D01*
Y398774D01*
X394413D01*
Y398822D01*
X394221D01*
Y398918D01*
X394030D01*
Y398966D01*
X393886D01*
Y399014D01*
X393838D01*
Y399062D01*
X393695D01*
Y399110D01*
X393599D01*
Y399158D01*
X393551D01*
Y399206D01*
X393407D01*
Y399301D01*
X393264D01*
Y399349D01*
X393168D01*
Y399397D01*
X393120D01*
Y399445D01*
X393024D01*
Y399493D01*
X392976D01*
Y399541D01*
X392928D01*
Y399589D01*
X392832D01*
Y399637D01*
X392785D01*
Y399684D01*
X392689D01*
Y399732D01*
X392641D01*
Y399828D01*
X392545D01*
Y399924D01*
X392449D01*
Y399972D01*
X392353D01*
Y400020D01*
X392401D01*
Y400068D01*
X392305D01*
Y400116D01*
X392258D01*
Y400163D01*
X392210D01*
Y400211D01*
X392162D01*
Y400307D01*
X392066D01*
Y400403D01*
X391970D01*
Y400499D01*
X391922D01*
Y400547D01*
X391875D01*
Y400595D01*
X391827D01*
Y400690D01*
X391779D01*
Y400738D01*
X391731D01*
Y400834D01*
X391683D01*
Y400930D01*
X391635D01*
Y400978D01*
X391587D01*
Y401121D01*
X391539D01*
Y401265D01*
X391443D01*
Y401457D01*
X391348D01*
Y401648D01*
X391300D01*
Y401840D01*
X391252D01*
Y401888D01*
X391204D01*
Y402127D01*
X391156D01*
Y402223D01*
X391108D01*
Y402319D01*
X391156D01*
Y402415D01*
X391108D01*
Y402558D01*
X391060D01*
Y403085D01*
X391012D01*
Y411899D01*
X391108D01*
Y411994D01*
X394509D01*
Y411946D01*
X394557D01*
Y411899D01*
X394605D01*
Y411994D01*
X394653D01*
Y403133D01*
X394701D01*
Y403037D01*
X394748D01*
Y402750D01*
X394796D01*
Y402654D01*
X394844D01*
Y402606D01*
X394796D01*
Y402558D01*
X394844D01*
Y402510D01*
X394892D01*
Y402319D01*
X394988D01*
Y402223D01*
X394940D01*
Y402175D01*
X395036D01*
Y402079D01*
X395084D01*
Y402032D01*
X395132D01*
Y401936D01*
X395179D01*
Y401888D01*
X395227D01*
Y401840D01*
X395275D01*
Y401744D01*
X395323D01*
Y401648D01*
X395419D01*
Y401600D01*
X395467D01*
Y401505D01*
X395563D01*
Y401457D01*
X395658D01*
Y401409D01*
X395706D01*
Y401361D01*
X395754D01*
Y401313D01*
X395802D01*
Y401265D01*
X395898D01*
Y401217D01*
X395994D01*
Y401169D01*
X396042D01*
Y401121D01*
X396185D01*
Y401073D01*
X396329D01*
Y401026D01*
X396377D01*
Y400978D01*
X396664D01*
Y400930D01*
X396712D01*
Y400882D01*
X396856D01*
Y400930D01*
X397000D01*
Y400882D01*
X397814D01*
Y400930D01*
X398005D01*
Y400882D01*
X398101D01*
Y400930D01*
X398197D01*
Y400978D01*
X398437D01*
Y401026D01*
X398484D01*
Y401073D01*
X398628D01*
Y401121D01*
X398772D01*
Y401169D01*
X398820D01*
Y401217D01*
X398915D01*
Y401265D01*
X399059D01*
Y401361D01*
X399155D01*
Y401409D01*
X399203D01*
Y401457D01*
X399251D01*
Y401505D01*
X399347D01*
Y401600D01*
X399442D01*
Y401696D01*
X399490D01*
Y401744D01*
X399538D01*
Y401840D01*
X399634D01*
Y401936D01*
X399682D01*
Y401984D01*
X399730D01*
Y402079D01*
X399778D01*
Y402175D01*
X399826D01*
Y402223D01*
X399874D01*
Y402367D01*
X399921D01*
Y402415D01*
X399969D01*
Y402463D01*
X399921D01*
Y402510D01*
X399969D01*
Y402558D01*
X400017D01*
Y402798D01*
X400065D01*
Y402846D01*
X400113D01*
Y403229D01*
X400161D01*
Y411899D01*
X400209D01*
Y411994D01*
X403753D01*
Y411899D01*
D02*
G37*
G36*
X421272Y398765D02*
X420212D01*
Y406359D01*
Y406388D01*
Y406817D01*
X421272D01*
Y398765D01*
D02*
G37*
G36*
X409265Y406789D02*
X409666D01*
Y406760D01*
X409838D01*
Y406731D01*
X410039D01*
Y406703D01*
X410125D01*
Y406674D01*
X410239D01*
Y406646D01*
X410383D01*
Y406617D01*
X410440D01*
Y406588D01*
X410526D01*
Y406559D01*
X410612D01*
Y406531D01*
X410669D01*
Y406502D01*
X410755D01*
Y406474D01*
X410812D01*
Y406445D01*
X410870D01*
Y406416D01*
X410956D01*
Y406388D01*
X410984D01*
Y406359D01*
X411042D01*
Y406330D01*
X411099D01*
Y406302D01*
X411156D01*
Y406273D01*
X411214D01*
Y406244D01*
X411242D01*
Y406216D01*
X411271D01*
Y406187D01*
X411328D01*
Y406158D01*
X411357D01*
Y406130D01*
X411414D01*
Y406101D01*
X411443D01*
Y406072D01*
X411472D01*
Y406044D01*
X411500D01*
Y406015D01*
X411558D01*
Y405986D01*
X411586D01*
Y405958D01*
X411615D01*
Y405929D01*
X411644D01*
Y405900D01*
X411672D01*
Y405872D01*
X411701D01*
Y405843D01*
X411730D01*
Y405814D01*
X411758D01*
Y405786D01*
X411787D01*
Y405757D01*
X411815D01*
Y405728D01*
X411844D01*
Y405700D01*
X411873D01*
Y405671D01*
X411902D01*
Y405614D01*
X411930D01*
Y405585D01*
X411959D01*
Y405556D01*
X411987D01*
Y405528D01*
X412016D01*
Y405499D01*
X412045D01*
Y405442D01*
X412073D01*
Y405413D01*
X412102D01*
Y405356D01*
X412131D01*
Y405327D01*
X412159D01*
Y405270D01*
X412188D01*
Y405213D01*
X412217D01*
Y405184D01*
X412245D01*
Y405127D01*
X412274D01*
Y405069D01*
X412303D01*
Y405012D01*
X412331D01*
Y404955D01*
X412360D01*
Y404897D01*
X412389D01*
Y404869D01*
X412417D01*
Y404783D01*
X412446D01*
Y404697D01*
X412475D01*
Y404640D01*
X412503D01*
Y404553D01*
X412532D01*
Y404496D01*
X412561D01*
Y404410D01*
X412589D01*
Y404382D01*
Y404353D01*
Y404296D01*
X412618D01*
Y404210D01*
X412647D01*
Y404095D01*
X412675D01*
Y403980D01*
X412704D01*
Y403866D01*
X412733D01*
Y403694D01*
X412761D01*
Y403522D01*
X412790D01*
Y403264D01*
X412819D01*
Y403235D01*
X412790D01*
Y403178D01*
X412819D01*
Y402404D01*
X412790D01*
Y402347D01*
X412819D01*
Y402290D01*
X412790D01*
Y402060D01*
X412761D01*
Y401888D01*
X412733D01*
Y401688D01*
X412704D01*
Y401602D01*
X412675D01*
Y401459D01*
X412647D01*
Y401344D01*
X412618D01*
Y401258D01*
X412589D01*
Y401172D01*
X412561D01*
Y401086D01*
X412532D01*
Y401000D01*
X412503D01*
Y400914D01*
X412475D01*
Y400857D01*
X412446D01*
Y400799D01*
X412417D01*
Y400713D01*
X412389D01*
Y400656D01*
X412360D01*
Y400599D01*
X412331D01*
Y400541D01*
X412303D01*
Y400484D01*
X412274D01*
Y400427D01*
X412245D01*
Y400398D01*
X412217D01*
Y400341D01*
X412188D01*
Y400284D01*
X412159D01*
Y400255D01*
X412131D01*
Y400198D01*
X412102D01*
Y400169D01*
X412073D01*
Y400112D01*
X412045D01*
Y400083D01*
X412016D01*
Y400054D01*
X411987D01*
Y399997D01*
X411959D01*
Y399968D01*
X411930D01*
Y399940D01*
X411902D01*
Y399911D01*
X411873D01*
Y399882D01*
X411844D01*
Y399854D01*
X411815D01*
Y399796D01*
X411787D01*
Y399768D01*
X411758D01*
Y399739D01*
X411730D01*
Y399710D01*
X411701D01*
Y399682D01*
X411672D01*
Y399653D01*
X411644D01*
Y399624D01*
X411586D01*
Y399596D01*
X411558D01*
Y399567D01*
X411529D01*
Y399538D01*
X411500D01*
Y399510D01*
X411472D01*
Y399481D01*
X411414D01*
Y399453D01*
X411386D01*
Y399424D01*
X411357D01*
Y399395D01*
X411300D01*
Y399366D01*
X411271D01*
Y399338D01*
X411214D01*
Y399309D01*
X411156D01*
Y399281D01*
X411128D01*
Y399252D01*
X411071D01*
Y399223D01*
X411013D01*
Y399195D01*
X410984D01*
Y399166D01*
X410927D01*
Y399137D01*
X410870D01*
Y399109D01*
X410784D01*
Y399080D01*
X410727D01*
Y399051D01*
X410669D01*
Y399023D01*
X410583D01*
Y398994D01*
X410497D01*
Y398965D01*
X410411D01*
Y398937D01*
X410325D01*
Y398908D01*
X410211D01*
Y398879D01*
X410096D01*
Y398851D01*
X409924D01*
Y398822D01*
X409809D01*
Y398793D01*
X409494D01*
Y398765D01*
X406227D01*
Y406817D01*
X409265D01*
Y406789D01*
D02*
G37*
G36*
X429122Y405814D02*
Y405786D01*
Y404382D01*
X429151D01*
Y404353D01*
X430440D01*
Y403637D01*
X430412D01*
Y403608D01*
X429122D01*
Y399911D01*
X429151D01*
Y399768D01*
X429179D01*
Y399710D01*
X429208D01*
Y399682D01*
X429237D01*
Y399624D01*
X429265D01*
Y399596D01*
X429294D01*
Y399567D01*
X429351D01*
Y399538D01*
X429380D01*
Y399510D01*
X429437D01*
Y399481D01*
X429495D01*
Y399453D01*
X429609D01*
Y399424D01*
X429781D01*
Y399395D01*
X429867D01*
Y399424D01*
X430154D01*
Y399453D01*
X430297D01*
Y399481D01*
X430383D01*
Y398650D01*
X430268D01*
Y398621D01*
X430039D01*
Y398593D01*
X429237D01*
Y398621D01*
X429007D01*
Y398650D01*
X428893D01*
Y398679D01*
X428778D01*
Y398707D01*
X428692D01*
Y398736D01*
X428635D01*
Y398765D01*
X428578D01*
Y398793D01*
X428520D01*
Y398822D01*
X428463D01*
Y398851D01*
X428434D01*
Y398879D01*
X428377D01*
Y398908D01*
X428348D01*
Y398937D01*
X428320D01*
Y398965D01*
X428291D01*
Y399023D01*
X428262D01*
Y399051D01*
X428234D01*
Y399109D01*
X428205D01*
Y399137D01*
X428176D01*
Y399195D01*
X428148D01*
Y399281D01*
X428119D01*
Y399366D01*
X428090D01*
Y399538D01*
X428062D01*
Y403579D01*
X428033D01*
Y403608D01*
X427087D01*
Y404353D01*
X428033D01*
Y404382D01*
X428062D01*
Y405556D01*
X428119D01*
Y405585D01*
X428205D01*
Y405614D01*
X428291D01*
Y405643D01*
X428377D01*
Y405671D01*
X428492D01*
Y405700D01*
X428578D01*
Y405728D01*
X428663D01*
Y405757D01*
X428750D01*
Y405786D01*
X428835D01*
Y405814D01*
X428950D01*
Y405843D01*
X429036D01*
Y405872D01*
X429122D01*
Y405814D01*
D02*
G37*
G36*
X416802Y404496D02*
X417002D01*
Y404468D01*
X417117D01*
Y404439D01*
X417260D01*
Y404410D01*
X417346D01*
Y404382D01*
X417404D01*
Y404353D01*
X417518D01*
Y404324D01*
X417547D01*
Y404296D01*
X417633D01*
Y404267D01*
X417690D01*
Y404238D01*
X417748D01*
Y404210D01*
X417805D01*
Y404181D01*
X417834D01*
Y404152D01*
X417891D01*
Y404124D01*
X417920D01*
Y404095D01*
X417948D01*
Y404066D01*
X418005D01*
Y404038D01*
X418034D01*
Y404009D01*
X418063D01*
Y403980D01*
X418092D01*
Y403952D01*
X418120D01*
Y403923D01*
X418177D01*
Y403894D01*
X418206D01*
Y403866D01*
X418235D01*
Y403808D01*
X418263D01*
Y403780D01*
X418292D01*
Y403751D01*
X418321D01*
Y403722D01*
X418349D01*
Y403694D01*
X418378D01*
Y403665D01*
X418407D01*
Y403608D01*
X418435D01*
Y403579D01*
X418464D01*
Y403522D01*
X418493D01*
Y403493D01*
X418521D01*
Y403436D01*
X418550D01*
Y403378D01*
X418579D01*
Y403350D01*
X418607D01*
Y403293D01*
X418636D01*
Y403235D01*
X418665D01*
Y403178D01*
X418693D01*
Y403092D01*
X418722D01*
Y403035D01*
X418751D01*
Y402949D01*
X418779D01*
Y402834D01*
X418808D01*
Y402748D01*
X418837D01*
Y402605D01*
X418865D01*
Y402462D01*
X418894D01*
Y402261D01*
X418923D01*
Y401373D01*
X418894D01*
Y401344D01*
X414939D01*
Y400885D01*
X414968D01*
Y400713D01*
X414996D01*
Y400599D01*
X415025D01*
Y400456D01*
X415054D01*
Y400370D01*
X415083D01*
Y400284D01*
X415111D01*
Y400198D01*
X415140D01*
Y400169D01*
X415168D01*
Y400083D01*
X415197D01*
Y400026D01*
X415226D01*
Y399997D01*
X415254D01*
Y399940D01*
X415283D01*
Y399911D01*
X415312D01*
Y399854D01*
X415340D01*
Y399825D01*
X415369D01*
Y399796D01*
X415398D01*
Y399768D01*
X415426D01*
Y399710D01*
X415484D01*
Y399682D01*
X415512D01*
Y399653D01*
X415541D01*
Y399624D01*
X415570D01*
Y399596D01*
X415627D01*
Y399567D01*
X415656D01*
Y399538D01*
X415713D01*
Y399510D01*
X415770D01*
Y399481D01*
X415827D01*
Y399453D01*
X415914D01*
Y399424D01*
X415999D01*
Y399395D01*
X416200D01*
Y399366D01*
X416573D01*
Y399395D01*
X416831D01*
Y399424D01*
X416917D01*
Y399453D01*
X417002D01*
Y399481D01*
X417089D01*
Y399510D01*
X417146D01*
Y399538D01*
X417203D01*
Y399567D01*
X417232D01*
Y399596D01*
X417260D01*
Y399624D01*
X417318D01*
Y399653D01*
X417346D01*
Y399682D01*
X417375D01*
Y399710D01*
X417404D01*
Y399739D01*
X417432D01*
Y399768D01*
X417461D01*
Y399825D01*
X417490D01*
Y399854D01*
X417518D01*
Y399911D01*
X417547D01*
Y399968D01*
X417576D01*
Y400026D01*
X417604D01*
Y400083D01*
X417633D01*
Y400169D01*
X417662D01*
Y400255D01*
X417690D01*
Y400398D01*
X417719D01*
Y400484D01*
X417748D01*
Y400513D01*
X418837D01*
Y400484D01*
X418865D01*
Y400456D01*
X418837D01*
Y400284D01*
X418808D01*
Y400198D01*
X418779D01*
Y400083D01*
X418751D01*
Y399997D01*
X418722D01*
Y399911D01*
X418693D01*
Y399854D01*
X418665D01*
Y399796D01*
X418636D01*
Y399739D01*
X418607D01*
Y399682D01*
X418579D01*
Y399624D01*
X418550D01*
Y399596D01*
X418521D01*
Y399538D01*
X418493D01*
Y399510D01*
X418464D01*
Y399453D01*
X418435D01*
Y399424D01*
X418407D01*
Y399395D01*
X418378D01*
Y399338D01*
X418321D01*
Y399309D01*
X418292D01*
Y399252D01*
X418235D01*
Y399195D01*
X418206D01*
Y399166D01*
X418149D01*
Y399137D01*
X418120D01*
Y399109D01*
X418092D01*
Y399080D01*
X418034D01*
Y399051D01*
X418005D01*
Y399023D01*
X417977D01*
Y398994D01*
X417920D01*
Y398965D01*
X417891D01*
Y398937D01*
X417834D01*
Y398908D01*
X417776D01*
Y398879D01*
X417719D01*
Y398851D01*
X417662D01*
Y398822D01*
X417604D01*
Y398793D01*
X417518D01*
Y398765D01*
X417432D01*
Y398736D01*
X417346D01*
Y398707D01*
X417232D01*
Y398679D01*
X417117D01*
Y398650D01*
X416974D01*
Y398621D01*
X416745D01*
Y398593D01*
X415971D01*
Y398621D01*
X415770D01*
Y398650D01*
X415627D01*
Y398679D01*
X415541D01*
Y398707D01*
X415426D01*
Y398736D01*
X415340D01*
Y398765D01*
X415283D01*
Y398793D01*
X415197D01*
Y398822D01*
X415140D01*
Y398851D01*
X415083D01*
Y398879D01*
X415025D01*
Y398908D01*
X414996D01*
Y398937D01*
X414939D01*
Y398965D01*
X414911D01*
Y398994D01*
X414853D01*
Y399023D01*
X414796D01*
Y399051D01*
X414767D01*
Y399080D01*
X414739D01*
Y399109D01*
X414710D01*
Y399137D01*
X414681D01*
Y399166D01*
X414653D01*
Y399195D01*
X414624D01*
Y399223D01*
X414595D01*
Y399252D01*
X414567D01*
Y399281D01*
X414538D01*
Y399309D01*
X414509D01*
Y399338D01*
X414481D01*
Y399366D01*
X414452D01*
Y399395D01*
X414423D01*
Y399453D01*
X414395D01*
Y399481D01*
X414366D01*
Y399510D01*
X414337D01*
Y399567D01*
X414309D01*
Y399596D01*
X414280D01*
Y399653D01*
X414251D01*
Y399710D01*
X414223D01*
Y399739D01*
X414194D01*
Y399825D01*
X414165D01*
Y399882D01*
X414137D01*
Y399911D01*
X414108D01*
Y399997D01*
X414080D01*
Y400083D01*
X414051D01*
Y400140D01*
X414022D01*
Y400255D01*
X413993D01*
Y400341D01*
X413965D01*
Y400456D01*
X413936D01*
Y400599D01*
X413908D01*
Y400713D01*
X413879D01*
Y401000D01*
X413850D01*
Y402003D01*
X413879D01*
Y402261D01*
X413908D01*
Y402404D01*
X413936D01*
Y402519D01*
X413965D01*
Y402662D01*
X413993D01*
Y402719D01*
X414022D01*
Y402834D01*
X414051D01*
Y402920D01*
X414080D01*
Y402977D01*
X414108D01*
Y403063D01*
X414137D01*
Y403092D01*
X414165D01*
Y403178D01*
X414194D01*
Y403235D01*
X414223D01*
Y403264D01*
X414251D01*
Y403350D01*
X414280D01*
Y403378D01*
X414309D01*
Y403436D01*
X414337D01*
Y403465D01*
X414366D01*
Y403522D01*
X414395D01*
Y403550D01*
X414423D01*
Y403608D01*
X414452D01*
Y403637D01*
X414481D01*
Y403665D01*
X414509D01*
Y403694D01*
X414538D01*
Y403722D01*
X414567D01*
Y403780D01*
X414595D01*
Y403808D01*
X414624D01*
Y403837D01*
X414653D01*
Y403866D01*
X414681D01*
Y403894D01*
X414710D01*
Y403923D01*
X414739D01*
Y403952D01*
X414796D01*
Y403980D01*
X414824D01*
Y404009D01*
X414853D01*
Y404038D01*
X414882D01*
Y404066D01*
X414939D01*
Y404095D01*
X414968D01*
Y404124D01*
X415025D01*
Y404152D01*
X415054D01*
Y404181D01*
X415111D01*
Y404210D01*
X415168D01*
Y404238D01*
X415197D01*
Y404267D01*
X415254D01*
Y404296D01*
X415340D01*
Y404324D01*
X415398D01*
Y404353D01*
X415484D01*
Y404382D01*
X415570D01*
Y404410D01*
X415627D01*
Y404439D01*
X415770D01*
Y404468D01*
X415885D01*
Y404496D01*
X416086D01*
Y404525D01*
X416802D01*
Y404496D01*
D02*
G37*
G36*
X389192Y409408D02*
X385073D01*
Y409360D01*
X385025D01*
Y398583D01*
X381289D01*
Y403995D01*
Y404043D01*
Y409360D01*
X381241D01*
Y409408D01*
X377122D01*
Y409456D01*
X377074D01*
Y409552D01*
X377122D01*
Y411899D01*
X377074D01*
Y411946D01*
X377122D01*
Y412042D01*
X389192D01*
Y409408D01*
D02*
G37*
G36*
X223253Y386250D02*
Y375000D01*
X211253D01*
X200253Y386000D01*
Y398000D01*
X210253D01*
X223253Y386250D01*
D02*
G37*
G36*
X180253Y386000D02*
X169253Y375000D01*
X157253D01*
Y386250D01*
X170253Y398000D01*
X180253D01*
Y386000D01*
D02*
G37*
G36*
X223253Y343750D02*
X210253Y332000D01*
X200253D01*
Y344000D01*
X211253Y355000D01*
X223253D01*
Y343750D01*
D02*
G37*
G36*
X180253Y344000D02*
Y332000D01*
X169003D01*
X157253Y345000D01*
Y355000D01*
X169253D01*
X180253Y344000D01*
D02*
G37*
G36*
X552747Y265000D02*
Y255000D01*
X540747D01*
X529747Y266000D01*
Y278000D01*
X540997D01*
X552747Y265000D01*
D02*
G37*
G36*
X509747Y266000D02*
X498747Y255000D01*
X486747D01*
Y266250D01*
X499747Y278000D01*
X509747D01*
Y266000D01*
D02*
G37*
G36*
X552747Y223750D02*
X539747Y212000D01*
X529747D01*
Y224000D01*
X540747Y235000D01*
X552747D01*
Y223750D01*
D02*
G37*
G36*
X509747Y224000D02*
Y212000D01*
X499747D01*
X486747Y223750D01*
Y235000D01*
X498747D01*
X509747Y224000D01*
D02*
G37*
G36*
X313479Y211609D02*
X313767D01*
Y211561D01*
X314294D01*
Y211513D01*
X314342D01*
Y211465D01*
X314725D01*
Y211417D01*
X315012D01*
Y211369D01*
X315060D01*
Y211321D01*
X315299D01*
Y211273D01*
X315347D01*
Y211226D01*
X315443D01*
Y211273D01*
X315491D01*
Y211226D01*
X315587D01*
Y211178D01*
X315779D01*
Y211082D01*
X315970D01*
Y211034D01*
X316114D01*
Y210986D01*
X316162D01*
Y210938D01*
X316305D01*
Y210890D01*
X316401D01*
Y210842D01*
X316449D01*
Y210795D01*
X316593D01*
Y210699D01*
X316737D01*
Y210651D01*
X316832D01*
Y210603D01*
X316880D01*
Y210555D01*
X316976D01*
Y210507D01*
X317024D01*
Y210459D01*
X317072D01*
Y210411D01*
X317168D01*
Y210363D01*
X317215D01*
Y210315D01*
X317311D01*
Y210268D01*
X317359D01*
Y210172D01*
X317455D01*
Y210076D01*
X317551D01*
Y210028D01*
X317647D01*
Y209980D01*
X317599D01*
Y209932D01*
X317694D01*
Y209884D01*
X317742D01*
Y209837D01*
X317790D01*
Y209789D01*
X317838D01*
Y209693D01*
X317934D01*
Y209597D01*
X318030D01*
Y209501D01*
X318078D01*
Y209453D01*
X318125D01*
Y209405D01*
X318173D01*
Y209310D01*
X318221D01*
Y209262D01*
X318269D01*
Y209166D01*
X318317D01*
Y209070D01*
X318365D01*
Y209022D01*
X318413D01*
Y208879D01*
X318461D01*
Y208735D01*
X318557D01*
Y208543D01*
X318652D01*
Y208352D01*
X318700D01*
Y208160D01*
X318748D01*
Y208112D01*
X318796D01*
Y207873D01*
X318844D01*
Y207777D01*
X318892D01*
Y207681D01*
X318844D01*
Y207585D01*
X318892D01*
Y207442D01*
X318940D01*
Y206915D01*
X318988D01*
Y198101D01*
X318892D01*
Y198006D01*
X315491D01*
Y198053D01*
X315443D01*
Y198101D01*
X315395D01*
Y198006D01*
X315347D01*
Y206867D01*
X315299D01*
Y206963D01*
X315252D01*
Y207250D01*
X315204D01*
Y207346D01*
X315156D01*
Y207394D01*
X315204D01*
Y207442D01*
X315156D01*
Y207489D01*
X315108D01*
Y207681D01*
X315012D01*
Y207777D01*
X315060D01*
Y207825D01*
X314964D01*
Y207921D01*
X314916D01*
Y207969D01*
X314868D01*
Y208064D01*
X314821D01*
Y208112D01*
X314773D01*
Y208160D01*
X314725D01*
Y208256D01*
X314677D01*
Y208352D01*
X314581D01*
Y208400D01*
X314533D01*
Y208495D01*
X314437D01*
Y208543D01*
X314342D01*
Y208591D01*
X314294D01*
Y208639D01*
X314246D01*
Y208687D01*
X314198D01*
Y208735D01*
X314102D01*
Y208783D01*
X314006D01*
Y208831D01*
X313958D01*
Y208879D01*
X313815D01*
Y208927D01*
X313671D01*
Y208974D01*
X313623D01*
Y209022D01*
X313336D01*
Y209070D01*
X313288D01*
Y209118D01*
X313144D01*
Y209070D01*
X313000D01*
Y209118D01*
X312186D01*
Y209070D01*
X311994D01*
Y209118D01*
X311899D01*
Y209070D01*
X311803D01*
Y209022D01*
X311563D01*
Y208974D01*
X311516D01*
Y208927D01*
X311372D01*
Y208879D01*
X311228D01*
Y208831D01*
X311180D01*
Y208783D01*
X311084D01*
Y208735D01*
X310941D01*
Y208639D01*
X310845D01*
Y208591D01*
X310797D01*
Y208543D01*
X310749D01*
Y208495D01*
X310653D01*
Y208400D01*
X310558D01*
Y208304D01*
X310510D01*
Y208256D01*
X310462D01*
Y208160D01*
X310366D01*
Y208064D01*
X310318D01*
Y208016D01*
X310270D01*
Y207921D01*
X310222D01*
Y207825D01*
X310174D01*
Y207777D01*
X310126D01*
Y207633D01*
X310079D01*
Y207585D01*
X310031D01*
Y207537D01*
X310079D01*
Y207489D01*
X310031D01*
Y207442D01*
X309983D01*
Y207202D01*
X309935D01*
Y207154D01*
X309887D01*
Y206771D01*
X309839D01*
Y198101D01*
X309791D01*
Y198006D01*
X306247D01*
Y198101D01*
X306199D01*
Y207250D01*
X306247D01*
Y207394D01*
X306295D01*
Y207729D01*
X306343D01*
Y207825D01*
X306390D01*
Y207921D01*
X306343D01*
Y207969D01*
X306390D01*
Y208064D01*
X306438D01*
Y208304D01*
X306534D01*
Y208495D01*
X306582D01*
Y208687D01*
X306678D01*
Y208831D01*
X306774D01*
Y208879D01*
X306726D01*
Y208927D01*
X306774D01*
Y208974D01*
X306821D01*
Y209118D01*
X306869D01*
Y209166D01*
X306917D01*
Y209262D01*
X306965D01*
Y209357D01*
X307061D01*
Y209453D01*
X307109D01*
Y209549D01*
X307157D01*
Y209597D01*
X307205D01*
Y209645D01*
X307253D01*
Y209693D01*
X307300D01*
Y209741D01*
X307348D01*
Y209789D01*
X307396D01*
Y209837D01*
X307444D01*
Y209884D01*
X307492D01*
Y209932D01*
X307540D01*
Y209980D01*
X307588D01*
Y210028D01*
X307636D01*
Y210076D01*
X307684D01*
Y210124D01*
X307732D01*
Y210172D01*
X307780D01*
Y210220D01*
X307827D01*
Y210268D01*
X307875D01*
Y210315D01*
X307971D01*
Y210363D01*
X308019D01*
Y210411D01*
X308067D01*
Y210459D01*
X308115D01*
Y210507D01*
X308211D01*
Y210555D01*
X308306D01*
Y210603D01*
X308354D01*
Y210651D01*
X308450D01*
Y210699D01*
X308546D01*
Y210747D01*
X308594D01*
Y210795D01*
X308737D01*
Y210842D01*
X308833D01*
Y210890D01*
X308881D01*
Y210938D01*
X309025D01*
Y210986D01*
X309073D01*
Y211034D01*
X309216D01*
Y211082D01*
X309408D01*
Y211178D01*
X309600D01*
Y211226D01*
X309791D01*
Y211273D01*
X309887D01*
Y211321D01*
X310126D01*
Y211369D01*
X310174D01*
Y211417D01*
X310462D01*
Y211465D01*
X310845D01*
Y211513D01*
X310893D01*
Y211561D01*
X311420D01*
Y211609D01*
X311659D01*
Y211657D01*
X311803D01*
Y211609D01*
X313384D01*
Y211657D01*
X313479D01*
Y211609D01*
D02*
G37*
G36*
X294029Y211378D02*
X294230D01*
Y211350D01*
X294373D01*
Y211321D01*
X294459D01*
Y211293D01*
X294574D01*
Y211264D01*
X294660D01*
Y211235D01*
X294717D01*
Y211207D01*
X294803D01*
Y211178D01*
X294860D01*
Y211149D01*
X294918D01*
Y211121D01*
X294975D01*
Y211092D01*
X295004D01*
Y211063D01*
X295061D01*
Y211035D01*
X295089D01*
Y211006D01*
X295147D01*
Y210977D01*
X295204D01*
Y210949D01*
X295233D01*
Y210920D01*
X295261D01*
Y210891D01*
X295290D01*
Y210863D01*
X295319D01*
Y210834D01*
X295347D01*
Y210805D01*
X295376D01*
Y210777D01*
X295405D01*
Y210748D01*
X295433D01*
Y210719D01*
X295462D01*
Y210691D01*
X295491D01*
Y210662D01*
X295519D01*
Y210634D01*
X295548D01*
Y210605D01*
X295577D01*
Y210548D01*
X295605D01*
Y210519D01*
X295634D01*
Y210490D01*
X295663D01*
Y210433D01*
X295691D01*
Y210404D01*
X295720D01*
Y210347D01*
X295749D01*
Y210290D01*
X295777D01*
Y210261D01*
X295806D01*
Y210175D01*
X295835D01*
Y210118D01*
X295863D01*
Y210089D01*
X295892D01*
Y210003D01*
X295921D01*
Y209917D01*
X295949D01*
Y209860D01*
X295978D01*
Y209745D01*
X296007D01*
Y209659D01*
X296035D01*
Y209545D01*
X296064D01*
Y209401D01*
X296092D01*
Y209287D01*
X296121D01*
Y209000D01*
X296150D01*
Y207997D01*
X296121D01*
Y207739D01*
X296092D01*
Y207596D01*
X296064D01*
Y207481D01*
X296035D01*
Y207338D01*
X296007D01*
Y207281D01*
X295978D01*
Y207166D01*
X295949D01*
Y207080D01*
X295921D01*
Y207023D01*
X295892D01*
Y206937D01*
X295863D01*
Y206908D01*
X295835D01*
Y206822D01*
X295806D01*
Y206765D01*
X295777D01*
Y206736D01*
X295749D01*
Y206650D01*
X295720D01*
Y206621D01*
X295691D01*
Y206564D01*
X295663D01*
Y206535D01*
X295634D01*
Y206478D01*
X295605D01*
Y206450D01*
X295577D01*
Y206392D01*
X295548D01*
Y206364D01*
X295519D01*
Y206335D01*
X295491D01*
Y206306D01*
X295462D01*
Y206278D01*
X295433D01*
Y206220D01*
X295405D01*
Y206192D01*
X295376D01*
Y206163D01*
X295347D01*
Y206134D01*
X295319D01*
Y206106D01*
X295290D01*
Y206077D01*
X295261D01*
Y206048D01*
X295204D01*
Y206020D01*
X295175D01*
Y205991D01*
X295147D01*
Y205962D01*
X295118D01*
Y205934D01*
X295061D01*
Y205905D01*
X295032D01*
Y205876D01*
X294975D01*
Y205848D01*
X294946D01*
Y205819D01*
X294889D01*
Y205790D01*
X294832D01*
Y205762D01*
X294803D01*
Y205733D01*
X294746D01*
Y205704D01*
X294660D01*
Y205676D01*
X294602D01*
Y205647D01*
X294516D01*
Y205618D01*
X294430D01*
Y205590D01*
X294373D01*
Y205561D01*
X294230D01*
Y205532D01*
X294115D01*
Y205504D01*
X293915D01*
Y205475D01*
X293198D01*
Y205504D01*
X292997D01*
Y205532D01*
X292883D01*
Y205561D01*
X292740D01*
Y205590D01*
X292654D01*
Y205618D01*
X292596D01*
Y205647D01*
X292482D01*
Y205676D01*
X292453D01*
Y205704D01*
X292367D01*
Y205733D01*
X292310D01*
Y205762D01*
X292252D01*
Y205790D01*
X292195D01*
Y205819D01*
X292166D01*
Y205848D01*
X292109D01*
Y205876D01*
X292080D01*
Y205905D01*
X292052D01*
Y205934D01*
X291994D01*
Y205962D01*
X291966D01*
Y205991D01*
X291937D01*
Y206020D01*
X291908D01*
Y206048D01*
X291880D01*
Y206077D01*
X291823D01*
Y206106D01*
X291794D01*
Y206134D01*
X291765D01*
Y206192D01*
X291737D01*
Y206220D01*
X291708D01*
Y206249D01*
X291679D01*
Y206278D01*
X291651D01*
Y206306D01*
X291622D01*
Y206335D01*
X291593D01*
Y206392D01*
X291565D01*
Y206421D01*
X291536D01*
Y206478D01*
X291507D01*
Y206507D01*
X291479D01*
Y206564D01*
X291450D01*
Y206621D01*
X291421D01*
Y206650D01*
X291393D01*
Y206707D01*
X291364D01*
Y206765D01*
X291335D01*
Y206822D01*
X291307D01*
Y206908D01*
X291278D01*
Y206965D01*
X291249D01*
Y207051D01*
X291221D01*
Y207166D01*
X291192D01*
Y207252D01*
X291164D01*
Y207395D01*
X291135D01*
Y207539D01*
X291106D01*
Y207739D01*
X291077D01*
Y208627D01*
X291106D01*
Y208656D01*
X295061D01*
Y209115D01*
X295032D01*
Y209287D01*
X295004D01*
Y209401D01*
X294975D01*
Y209545D01*
X294946D01*
Y209630D01*
X294918D01*
Y209716D01*
X294889D01*
Y209802D01*
X294860D01*
Y209831D01*
X294832D01*
Y209917D01*
X294803D01*
Y209974D01*
X294774D01*
Y210003D01*
X294746D01*
Y210060D01*
X294717D01*
Y210089D01*
X294688D01*
Y210146D01*
X294660D01*
Y210175D01*
X294631D01*
Y210204D01*
X294602D01*
Y210232D01*
X294574D01*
Y210290D01*
X294516D01*
Y210318D01*
X294488D01*
Y210347D01*
X294459D01*
Y210376D01*
X294430D01*
Y210404D01*
X294373D01*
Y210433D01*
X294344D01*
Y210462D01*
X294287D01*
Y210490D01*
X294230D01*
Y210519D01*
X294172D01*
Y210548D01*
X294086D01*
Y210576D01*
X294000D01*
Y210605D01*
X293800D01*
Y210634D01*
X293427D01*
Y210605D01*
X293169D01*
Y210576D01*
X293083D01*
Y210548D01*
X292997D01*
Y210519D01*
X292911D01*
Y210490D01*
X292854D01*
Y210462D01*
X292797D01*
Y210433D01*
X292768D01*
Y210404D01*
X292740D01*
Y210376D01*
X292682D01*
Y210347D01*
X292654D01*
Y210318D01*
X292625D01*
Y210290D01*
X292596D01*
Y210261D01*
X292568D01*
Y210232D01*
X292539D01*
Y210175D01*
X292510D01*
Y210146D01*
X292482D01*
Y210089D01*
X292453D01*
Y210032D01*
X292424D01*
Y209974D01*
X292396D01*
Y209917D01*
X292367D01*
Y209831D01*
X292338D01*
Y209745D01*
X292310D01*
Y209602D01*
X292281D01*
Y209516D01*
X292252D01*
Y209487D01*
X291164D01*
Y209516D01*
X291135D01*
Y209545D01*
X291164D01*
Y209716D01*
X291192D01*
Y209802D01*
X291221D01*
Y209917D01*
X291249D01*
Y210003D01*
X291278D01*
Y210089D01*
X291307D01*
Y210146D01*
X291335D01*
Y210204D01*
X291364D01*
Y210261D01*
X291393D01*
Y210318D01*
X291421D01*
Y210376D01*
X291450D01*
Y210404D01*
X291479D01*
Y210462D01*
X291507D01*
Y210490D01*
X291536D01*
Y210548D01*
X291565D01*
Y210576D01*
X291593D01*
Y210605D01*
X291622D01*
Y210662D01*
X291679D01*
Y210691D01*
X291708D01*
Y210748D01*
X291765D01*
Y210805D01*
X291794D01*
Y210834D01*
X291851D01*
Y210863D01*
X291880D01*
Y210891D01*
X291908D01*
Y210920D01*
X291966D01*
Y210949D01*
X291994D01*
Y210977D01*
X292023D01*
Y211006D01*
X292080D01*
Y211035D01*
X292109D01*
Y211063D01*
X292166D01*
Y211092D01*
X292224D01*
Y211121D01*
X292281D01*
Y211149D01*
X292338D01*
Y211178D01*
X292396D01*
Y211207D01*
X292482D01*
Y211235D01*
X292568D01*
Y211264D01*
X292654D01*
Y211293D01*
X292768D01*
Y211321D01*
X292883D01*
Y211350D01*
X293026D01*
Y211378D01*
X293255D01*
Y211407D01*
X294029D01*
Y211378D01*
D02*
G37*
G36*
X280763D02*
X280993D01*
Y211350D01*
X281107D01*
Y211321D01*
X281222D01*
Y211293D01*
X281308D01*
Y211264D01*
X281365D01*
Y211235D01*
X281422D01*
Y211207D01*
X281480D01*
Y211178D01*
X281537D01*
Y211149D01*
X281566D01*
Y211121D01*
X281623D01*
Y211092D01*
X281652D01*
Y211063D01*
X281680D01*
Y211035D01*
X281709D01*
Y210977D01*
X281738D01*
Y210949D01*
X281766D01*
Y210891D01*
X281795D01*
Y210863D01*
X281824D01*
Y210805D01*
X281852D01*
Y210719D01*
X281881D01*
Y210634D01*
X281910D01*
Y210462D01*
X281938D01*
Y206421D01*
X281967D01*
Y206392D01*
X282913D01*
Y205647D01*
X281967D01*
Y205618D01*
X281938D01*
Y204443D01*
X281881D01*
Y204415D01*
X281795D01*
Y204386D01*
X281709D01*
Y204357D01*
X281623D01*
Y204329D01*
X281508D01*
Y204300D01*
X281422D01*
Y204272D01*
X281336D01*
Y204243D01*
X281250D01*
Y204214D01*
X281164D01*
Y204186D01*
X281050D01*
Y204157D01*
X280964D01*
Y204128D01*
X280878D01*
Y204186D01*
Y204214D01*
Y205618D01*
X280849D01*
Y205647D01*
X279560D01*
Y206364D01*
X279588D01*
Y206392D01*
X280878D01*
Y210089D01*
X280849D01*
Y210232D01*
X280821D01*
Y210290D01*
X280792D01*
Y210318D01*
X280763D01*
Y210376D01*
X280735D01*
Y210404D01*
X280706D01*
Y210433D01*
X280649D01*
Y210462D01*
X280620D01*
Y210490D01*
X280563D01*
Y210519D01*
X280505D01*
Y210548D01*
X280391D01*
Y210576D01*
X280219D01*
Y210605D01*
X280133D01*
Y210576D01*
X279846D01*
Y210548D01*
X279703D01*
Y210519D01*
X279617D01*
Y211350D01*
X279732D01*
Y211378D01*
X279961D01*
Y211407D01*
X280763D01*
Y211378D01*
D02*
G37*
G36*
X286492Y210805D02*
Y210777D01*
Y206392D01*
X287553D01*
Y205647D01*
X286521D01*
Y205618D01*
X286492D01*
Y204501D01*
X286464D01*
Y204272D01*
X286435D01*
Y204128D01*
X286406D01*
Y204014D01*
X286378D01*
Y203956D01*
X286349D01*
Y203870D01*
X286320D01*
Y203813D01*
X286292D01*
Y203784D01*
X286263D01*
Y203727D01*
X286234D01*
Y203670D01*
X286206D01*
Y203641D01*
X286177D01*
Y203584D01*
X286148D01*
Y203555D01*
X286120D01*
Y203526D01*
X286091D01*
Y203498D01*
X286063D01*
Y203469D01*
X286034D01*
Y203440D01*
X286005D01*
Y203412D01*
X285948D01*
Y203383D01*
X285919D01*
Y203354D01*
X285891D01*
Y203326D01*
X285833D01*
Y203297D01*
X285805D01*
Y203269D01*
X285747D01*
Y203240D01*
X285690D01*
Y203211D01*
X285633D01*
Y203183D01*
X285547D01*
Y203154D01*
X285489D01*
Y203125D01*
X285403D01*
Y203097D01*
X285289D01*
Y203068D01*
X285174D01*
Y203039D01*
X284314D01*
Y203068D01*
X284200D01*
Y203097D01*
X284056D01*
Y203125D01*
X283971D01*
Y203154D01*
X283942D01*
Y203985D01*
X283971D01*
Y204014D01*
X284286D01*
Y203985D01*
X284716D01*
Y204014D01*
X284916D01*
Y204042D01*
X285031D01*
Y204071D01*
X285088D01*
Y204100D01*
X285145D01*
Y204128D01*
X285203D01*
Y204157D01*
X285231D01*
Y204186D01*
X285260D01*
Y204243D01*
X285289D01*
Y204272D01*
X285317D01*
Y204329D01*
X285346D01*
Y204415D01*
X285375D01*
Y204529D01*
X285403D01*
Y205618D01*
X285375D01*
Y205647D01*
X284114D01*
Y206392D01*
X285403D01*
Y211235D01*
X286492D01*
Y210805D01*
D02*
G37*
G36*
X303773Y203183D02*
X300735D01*
Y203211D01*
X300334D01*
Y203240D01*
X300162D01*
Y203269D01*
X299961D01*
Y203297D01*
X299875D01*
Y203326D01*
X299761D01*
Y203354D01*
X299617D01*
Y203383D01*
X299560D01*
Y203412D01*
X299474D01*
Y203440D01*
X299388D01*
Y203469D01*
X299331D01*
Y203498D01*
X299245D01*
Y203526D01*
X299188D01*
Y203555D01*
X299130D01*
Y203584D01*
X299044D01*
Y203612D01*
X299016D01*
Y203641D01*
X298958D01*
Y203670D01*
X298901D01*
Y203698D01*
X298844D01*
Y203727D01*
X298786D01*
Y203756D01*
X298758D01*
Y203784D01*
X298729D01*
Y203813D01*
X298672D01*
Y203842D01*
X298643D01*
Y203870D01*
X298586D01*
Y203899D01*
X298557D01*
Y203928D01*
X298528D01*
Y203956D01*
X298500D01*
Y203985D01*
X298442D01*
Y204014D01*
X298414D01*
Y204042D01*
X298385D01*
Y204071D01*
X298356D01*
Y204100D01*
X298328D01*
Y204128D01*
X298299D01*
Y204157D01*
X298270D01*
Y204186D01*
X298242D01*
Y204214D01*
X298213D01*
Y204243D01*
X298185D01*
Y204272D01*
X298156D01*
Y204300D01*
X298127D01*
Y204329D01*
X298099D01*
Y204386D01*
X298070D01*
Y204415D01*
X298041D01*
Y204443D01*
X298013D01*
Y204472D01*
X297984D01*
Y204501D01*
X297955D01*
Y204558D01*
X297927D01*
Y204587D01*
X297898D01*
Y204644D01*
X297869D01*
Y204673D01*
X297841D01*
Y204730D01*
X297812D01*
Y204787D01*
X297783D01*
Y204816D01*
X297755D01*
Y204873D01*
X297726D01*
Y204931D01*
X297697D01*
Y204988D01*
X297669D01*
Y205045D01*
X297640D01*
Y205103D01*
X297611D01*
Y205131D01*
X297583D01*
Y205217D01*
X297554D01*
Y205303D01*
X297525D01*
Y205361D01*
X297497D01*
Y205446D01*
X297468D01*
Y205504D01*
X297439D01*
Y205590D01*
X297411D01*
Y205618D01*
Y205647D01*
Y205704D01*
X297382D01*
Y205790D01*
X297353D01*
Y205905D01*
X297325D01*
Y206020D01*
X297296D01*
Y206134D01*
X297267D01*
Y206306D01*
X297239D01*
Y206478D01*
X297210D01*
Y206736D01*
X297181D01*
Y206765D01*
X297210D01*
Y206822D01*
X297181D01*
Y207596D01*
X297210D01*
Y207653D01*
X297181D01*
Y207710D01*
X297210D01*
Y207940D01*
X297239D01*
Y208112D01*
X297267D01*
Y208312D01*
X297296D01*
Y208398D01*
X297325D01*
Y208542D01*
X297353D01*
Y208656D01*
X297382D01*
Y208742D01*
X297411D01*
Y208828D01*
X297439D01*
Y208914D01*
X297468D01*
Y209000D01*
X297497D01*
Y209086D01*
X297525D01*
Y209143D01*
X297554D01*
Y209201D01*
X297583D01*
Y209287D01*
X297611D01*
Y209344D01*
X297640D01*
Y209401D01*
X297669D01*
Y209459D01*
X297697D01*
Y209516D01*
X297726D01*
Y209573D01*
X297755D01*
Y209602D01*
X297783D01*
Y209659D01*
X297812D01*
Y209716D01*
X297841D01*
Y209745D01*
X297869D01*
Y209802D01*
X297898D01*
Y209831D01*
X297927D01*
Y209888D01*
X297955D01*
Y209917D01*
X297984D01*
Y209946D01*
X298013D01*
Y210003D01*
X298041D01*
Y210032D01*
X298070D01*
Y210060D01*
X298099D01*
Y210089D01*
X298127D01*
Y210118D01*
X298156D01*
Y210146D01*
X298185D01*
Y210204D01*
X298213D01*
Y210232D01*
X298242D01*
Y210261D01*
X298270D01*
Y210290D01*
X298299D01*
Y210318D01*
X298328D01*
Y210347D01*
X298356D01*
Y210376D01*
X298414D01*
Y210404D01*
X298442D01*
Y210433D01*
X298471D01*
Y210462D01*
X298500D01*
Y210490D01*
X298528D01*
Y210519D01*
X298586D01*
Y210548D01*
X298614D01*
Y210576D01*
X298643D01*
Y210605D01*
X298700D01*
Y210634D01*
X298729D01*
Y210662D01*
X298786D01*
Y210691D01*
X298844D01*
Y210719D01*
X298872D01*
Y210748D01*
X298930D01*
Y210777D01*
X298987D01*
Y210805D01*
X299016D01*
Y210834D01*
X299073D01*
Y210863D01*
X299130D01*
Y210891D01*
X299216D01*
Y210920D01*
X299273D01*
Y210949D01*
X299331D01*
Y210977D01*
X299417D01*
Y211006D01*
X299503D01*
Y211035D01*
X299589D01*
Y211063D01*
X299675D01*
Y211092D01*
X299789D01*
Y211121D01*
X299904D01*
Y211149D01*
X300076D01*
Y211178D01*
X300191D01*
Y211207D01*
X300506D01*
Y211235D01*
X303773D01*
Y203183D01*
D02*
G37*
G36*
X289788Y203641D02*
Y203612D01*
Y203183D01*
X288728D01*
Y211235D01*
X289788D01*
Y203641D01*
D02*
G37*
G36*
X328711Y206005D02*
Y205957D01*
Y200640D01*
X328759D01*
Y200592D01*
X332878D01*
Y200544D01*
X332926D01*
Y200448D01*
X332878D01*
Y198101D01*
X332926D01*
Y198053D01*
X332878D01*
Y197958D01*
X320808D01*
Y200592D01*
X324927D01*
Y200640D01*
X324975D01*
Y211417D01*
X328711D01*
Y206005D01*
D02*
G37*
G36*
X325023Y196221D02*
X324975D01*
Y196173D01*
X324879D01*
Y196125D01*
X324783D01*
Y196077D01*
X324640D01*
Y196029D01*
X324592D01*
Y195981D01*
X324448D01*
Y195933D01*
X324352D01*
Y195886D01*
X324257D01*
Y195838D01*
X324209D01*
Y195790D01*
X324113D01*
Y195742D01*
X324065D01*
Y195694D01*
X324017D01*
Y195646D01*
X323969D01*
Y195598D01*
X323873D01*
Y195550D01*
X323825D01*
Y195502D01*
X323778D01*
Y195455D01*
X323730D01*
Y195407D01*
X323682D01*
Y195359D01*
X323634D01*
Y195311D01*
X323586D01*
Y195263D01*
X323538D01*
Y195215D01*
X323490D01*
Y195167D01*
X323442D01*
Y195119D01*
X323394D01*
Y195071D01*
X323346D01*
Y194976D01*
X323299D01*
Y194928D01*
X323251D01*
Y194880D01*
X323203D01*
Y194784D01*
X323155D01*
Y194736D01*
X323107D01*
Y194640D01*
X323059D01*
Y194592D01*
X323011D01*
Y194497D01*
X322963D01*
Y194401D01*
X322915D01*
Y194305D01*
X322868D01*
Y194209D01*
X322820D01*
Y194113D01*
X322772D01*
Y194018D01*
X322724D01*
Y193874D01*
X322676D01*
Y193730D01*
X322628D01*
Y193634D01*
X322580D01*
Y193443D01*
X322532D01*
Y193299D01*
X322484D01*
Y193107D01*
X322436D01*
Y192820D01*
X322388D01*
Y192628D01*
X322341D01*
Y192341D01*
X322293D01*
Y191862D01*
X322341D01*
Y191814D01*
X322388D01*
Y191862D01*
X322436D01*
Y191910D01*
X322484D01*
Y192006D01*
X322532D01*
Y192054D01*
X322580D01*
Y192150D01*
X322628D01*
Y192245D01*
X322676D01*
Y192293D01*
X322724D01*
Y192389D01*
X322772D01*
Y192437D01*
X322820D01*
Y192485D01*
X322868D01*
Y192533D01*
X322915D01*
Y192581D01*
X322963D01*
Y192628D01*
X323011D01*
Y192676D01*
X323059D01*
Y192724D01*
X323107D01*
Y192772D01*
X323155D01*
Y192820D01*
X323203D01*
Y192868D01*
X323251D01*
Y192916D01*
X323346D01*
Y192964D01*
X323394D01*
Y193012D01*
X323442D01*
Y193060D01*
X323538D01*
Y193107D01*
X323586D01*
Y193155D01*
X323682D01*
Y193203D01*
X323778D01*
Y193251D01*
X323873D01*
Y193299D01*
X324017D01*
Y193347D01*
X324209D01*
Y193395D01*
X324735D01*
Y193347D01*
X324831D01*
Y193299D01*
X324927D01*
Y193251D01*
X325023D01*
Y193203D01*
X325071D01*
Y193155D01*
X325119D01*
Y193107D01*
X325167D01*
Y193060D01*
X325215D01*
Y193012D01*
X325262D01*
Y192916D01*
X325310D01*
Y192868D01*
X325358D01*
Y192724D01*
X325406D01*
Y192581D01*
X325454D01*
Y192054D01*
X325406D01*
Y191862D01*
X325358D01*
Y191719D01*
X325310D01*
Y191671D01*
X325262D01*
Y191527D01*
X325215D01*
Y191479D01*
X325167D01*
Y191383D01*
X325119D01*
Y191287D01*
X325071D01*
Y191239D01*
X325023D01*
Y191144D01*
X324975D01*
Y191096D01*
X324927D01*
Y191048D01*
X324879D01*
Y190952D01*
X324831D01*
Y190904D01*
X324783D01*
Y190808D01*
X324735D01*
Y190760D01*
X324688D01*
Y190665D01*
X324640D01*
Y190617D01*
X324592D01*
Y190521D01*
X324544D01*
Y190473D01*
X324496D01*
Y190377D01*
X324448D01*
Y190329D01*
X324400D01*
Y190234D01*
X324352D01*
Y190138D01*
X324304D01*
Y190090D01*
X324257D01*
Y189994D01*
X324209D01*
Y189898D01*
X324161D01*
Y189802D01*
X324113D01*
Y189659D01*
X324065D01*
Y189563D01*
X324017D01*
Y189419D01*
X323969D01*
Y189228D01*
X323921D01*
Y189036D01*
X323873D01*
Y188845D01*
X323921D01*
Y188797D01*
X323969D01*
Y188845D01*
X324017D01*
Y188892D01*
X324065D01*
Y188940D01*
X324113D01*
Y188988D01*
X324161D01*
Y189084D01*
X324209D01*
Y189132D01*
X324257D01*
Y189228D01*
X324304D01*
Y189276D01*
X324352D01*
Y189371D01*
X324400D01*
Y189419D01*
X324448D01*
Y189515D01*
X324496D01*
Y189563D01*
X324544D01*
Y189611D01*
X324592D01*
Y189659D01*
X324640D01*
Y189755D01*
X324688D01*
Y189802D01*
X324735D01*
Y189850D01*
X324783D01*
Y189898D01*
X324831D01*
Y189946D01*
X324879D01*
Y189994D01*
X324927D01*
Y190042D01*
X324975D01*
Y190090D01*
X325023D01*
Y190138D01*
X325119D01*
Y190186D01*
X325167D01*
Y190234D01*
X325215D01*
Y190282D01*
X325262D01*
Y190329D01*
X325310D01*
Y190377D01*
X325358D01*
Y190425D01*
X325454D01*
Y190473D01*
X325502D01*
Y190521D01*
X325550D01*
Y190569D01*
X325598D01*
Y190617D01*
X325694D01*
Y190665D01*
X325741D01*
Y190713D01*
X325789D01*
Y190760D01*
X325885D01*
Y190808D01*
X325933D01*
Y190856D01*
X325981D01*
Y190904D01*
X326077D01*
Y190952D01*
X326125D01*
Y191000D01*
X326172D01*
Y191048D01*
X326268D01*
Y191096D01*
X326316D01*
Y191144D01*
X326364D01*
Y191192D01*
X326460D01*
Y191239D01*
X326508D01*
Y191287D01*
X326556D01*
Y191335D01*
X326651D01*
Y191383D01*
X326699D01*
Y191431D01*
X326747D01*
Y191479D01*
X326795D01*
Y191527D01*
X326891D01*
Y191575D01*
X326939D01*
Y191623D01*
X326987D01*
Y191671D01*
X327035D01*
Y191719D01*
X327083D01*
Y191766D01*
X327178D01*
Y191814D01*
X327226D01*
Y191862D01*
X327274D01*
Y191910D01*
X327322D01*
Y191958D01*
X327370D01*
Y192006D01*
X327418D01*
Y192054D01*
X327466D01*
Y192102D01*
X327514D01*
Y192150D01*
X327561D01*
Y192197D01*
X327609D01*
Y192245D01*
X327657D01*
Y192293D01*
X327705D01*
Y192341D01*
X327753D01*
Y192389D01*
X327801D01*
Y192437D01*
X327849D01*
Y192533D01*
X327897D01*
Y192581D01*
X327945D01*
Y192628D01*
X327993D01*
Y192676D01*
X328041D01*
Y192772D01*
X328088D01*
Y192820D01*
X328136D01*
Y192916D01*
X328184D01*
Y193012D01*
X328232D01*
Y193060D01*
X328280D01*
Y193155D01*
X328328D01*
Y193299D01*
X328376D01*
Y193395D01*
X328424D01*
Y193491D01*
X328472D01*
Y193682D01*
X328520D01*
Y193826D01*
X328567D01*
Y194113D01*
X328615D01*
Y195311D01*
X328663D01*
Y195502D01*
X328711D01*
Y195550D01*
X328855D01*
Y195502D01*
X328903D01*
Y195407D01*
X328951D01*
Y195215D01*
X328998D01*
Y195023D01*
X329046D01*
Y194880D01*
X329094D01*
Y194545D01*
X329142D01*
Y194353D01*
X329190D01*
Y194065D01*
X329238D01*
Y192485D01*
X329190D01*
Y192197D01*
X329142D01*
Y192006D01*
X329094D01*
Y191766D01*
X329046D01*
Y191623D01*
X328998D01*
Y191527D01*
X328951D01*
Y191335D01*
X328903D01*
Y191287D01*
X328855D01*
Y191144D01*
X328807D01*
Y191000D01*
X328759D01*
Y190952D01*
X328711D01*
Y190808D01*
X328663D01*
Y190760D01*
X328615D01*
Y190665D01*
X328567D01*
Y190569D01*
X328520D01*
Y190521D01*
X328472D01*
Y190425D01*
X328424D01*
Y190329D01*
X328376D01*
Y190282D01*
X328328D01*
Y190186D01*
X328280D01*
Y190138D01*
X328232D01*
Y190090D01*
X328184D01*
Y189994D01*
X328136D01*
Y189946D01*
X328088D01*
Y189898D01*
X328041D01*
Y189850D01*
X327993D01*
Y189802D01*
X327945D01*
Y189707D01*
X327897D01*
Y189659D01*
X327849D01*
Y189611D01*
X327801D01*
Y189563D01*
X327753D01*
Y189515D01*
X327705D01*
Y189467D01*
X327657D01*
Y189419D01*
X327609D01*
Y189371D01*
X327561D01*
Y189324D01*
X327514D01*
Y189276D01*
X327466D01*
Y189228D01*
X327418D01*
Y189180D01*
X327370D01*
Y189132D01*
X327322D01*
Y189084D01*
X327274D01*
Y189036D01*
X327226D01*
Y188988D01*
X327178D01*
Y188940D01*
X327083D01*
Y188892D01*
X327035D01*
Y188845D01*
X326987D01*
Y188797D01*
X326939D01*
Y188749D01*
X326891D01*
Y188701D01*
X326795D01*
Y188653D01*
X326747D01*
Y188605D01*
X326699D01*
Y188557D01*
X326604D01*
Y188509D01*
X326556D01*
Y188461D01*
X326508D01*
Y188414D01*
X326412D01*
Y188366D01*
X326364D01*
Y188318D01*
X326268D01*
Y188270D01*
X326220D01*
Y188222D01*
X326172D01*
Y188174D01*
X326077D01*
Y188126D01*
X325981D01*
Y188078D01*
X325933D01*
Y188030D01*
X325837D01*
Y187982D01*
X325789D01*
Y187934D01*
X325694D01*
Y187887D01*
X325598D01*
Y187839D01*
X325502D01*
Y187791D01*
X325406D01*
Y187743D01*
X325358D01*
Y187695D01*
X325262D01*
Y187647D01*
X325167D01*
Y187599D01*
X325071D01*
Y187551D01*
X324975D01*
Y187503D01*
X324879D01*
Y187456D01*
X324783D01*
Y187408D01*
X324688D01*
Y187360D01*
X324592D01*
Y187312D01*
X324496D01*
Y187264D01*
X324352D01*
Y187216D01*
X324304D01*
Y187168D01*
X324161D01*
Y187120D01*
X324065D01*
Y187072D01*
X323969D01*
Y187024D01*
X323825D01*
Y186977D01*
X323730D01*
Y186929D01*
X323586D01*
Y186881D01*
X323442D01*
Y186833D01*
X323346D01*
Y186785D01*
X323155D01*
Y186737D01*
X323011D01*
Y186689D01*
X322868D01*
Y186641D01*
X322676D01*
Y186593D01*
X322532D01*
Y186545D01*
X322388D01*
Y186497D01*
X322149D01*
Y186450D01*
X322005D01*
Y186402D01*
X321814D01*
Y186354D01*
X321622D01*
Y186306D01*
X321478D01*
Y186258D01*
X321239D01*
Y186210D01*
X321047D01*
Y186162D01*
X320904D01*
Y186114D01*
X320664D01*
Y186066D01*
X320521D01*
Y186019D01*
X320329D01*
Y185971D01*
X320185D01*
Y185923D01*
X320042D01*
Y185875D01*
X319850D01*
Y185827D01*
X319706D01*
Y185779D01*
X319562D01*
Y185731D01*
X319419D01*
Y185683D01*
X319323D01*
Y185635D01*
X319131D01*
Y185588D01*
X319036D01*
Y185540D01*
X318940D01*
Y185492D01*
X318796D01*
Y185444D01*
X318700D01*
Y185396D01*
X318605D01*
Y185348D01*
X318461D01*
Y185300D01*
X318413D01*
Y185252D01*
X318269D01*
Y185204D01*
X318173D01*
Y185156D01*
X318125D01*
Y185109D01*
X318030D01*
Y185061D01*
X317934D01*
Y185013D01*
X317886D01*
Y184965D01*
X317790D01*
Y184917D01*
X317742D01*
Y184869D01*
X317647D01*
Y184821D01*
X317599D01*
Y184773D01*
X317503D01*
Y184725D01*
X317455D01*
Y184677D01*
X317407D01*
Y184629D01*
X317359D01*
Y184582D01*
X317263D01*
Y184534D01*
X317215D01*
Y184486D01*
X317168D01*
Y184438D01*
X317120D01*
Y184390D01*
X317072D01*
Y184342D01*
X317024D01*
Y184294D01*
X316976D01*
Y184246D01*
X316928D01*
Y184198D01*
X316880D01*
Y184151D01*
X316832D01*
Y184007D01*
X316784D01*
Y183911D01*
X316737D01*
Y183815D01*
X316545D01*
Y183863D01*
X316497D01*
Y184198D01*
X316545D01*
Y184390D01*
X316593D01*
Y184582D01*
X316641D01*
Y184629D01*
X316689D01*
Y184773D01*
X316737D01*
Y184821D01*
X316784D01*
Y184869D01*
X316832D01*
Y184965D01*
X316880D01*
Y185013D01*
X316928D01*
Y185109D01*
X316976D01*
Y185156D01*
X317024D01*
Y185204D01*
X317072D01*
Y185252D01*
X317120D01*
Y185300D01*
X317168D01*
Y185348D01*
X317215D01*
Y185396D01*
X317263D01*
Y185444D01*
X317311D01*
Y185492D01*
X317359D01*
Y185540D01*
X317407D01*
Y185588D01*
X317503D01*
Y185635D01*
X317551D01*
Y185683D01*
X317599D01*
Y185731D01*
X317647D01*
Y185779D01*
X317742D01*
Y185827D01*
X317790D01*
Y185875D01*
X317838D01*
Y185923D01*
X317886D01*
Y185971D01*
X317982D01*
Y186019D01*
X318030D01*
Y186066D01*
X318078D01*
Y186114D01*
X318173D01*
Y186162D01*
X318221D01*
Y186210D01*
X318269D01*
Y186258D01*
X318365D01*
Y186306D01*
X318413D01*
Y186354D01*
X318509D01*
Y186402D01*
X318557D01*
Y186450D01*
X318605D01*
Y186497D01*
X318700D01*
Y186545D01*
X318748D01*
Y186593D01*
X318844D01*
Y186641D01*
X318892D01*
Y186689D01*
X318988D01*
Y186737D01*
X319036D01*
Y186785D01*
X319131D01*
Y186833D01*
X319179D01*
Y186881D01*
X319227D01*
Y186929D01*
X319323D01*
Y186977D01*
X319371D01*
Y187024D01*
X319467D01*
Y187072D01*
X319515D01*
Y187120D01*
X319562D01*
Y187168D01*
X319658D01*
Y187216D01*
X319706D01*
Y187264D01*
X319802D01*
Y187312D01*
X319850D01*
Y187360D01*
X319898D01*
Y187408D01*
X319994D01*
Y187456D01*
X320042D01*
Y187503D01*
X320089D01*
Y187551D01*
X320185D01*
Y187599D01*
X320233D01*
Y187647D01*
X320281D01*
Y187695D01*
X320329D01*
Y187743D01*
X320377D01*
Y187791D01*
X320473D01*
Y187839D01*
X320521D01*
Y187887D01*
X320568D01*
Y187934D01*
X320616D01*
Y187982D01*
X320664D01*
Y188030D01*
X320712D01*
Y188078D01*
X320760D01*
Y188126D01*
X320808D01*
Y188174D01*
X320856D01*
Y188222D01*
X320904D01*
Y188270D01*
X320952D01*
Y188318D01*
X320999D01*
Y188366D01*
X321047D01*
Y188414D01*
X321095D01*
Y188461D01*
X321143D01*
Y188557D01*
X321191D01*
Y188605D01*
X321239D01*
Y188653D01*
X321287D01*
Y188749D01*
X321335D01*
Y188845D01*
X321383D01*
Y188892D01*
X321431D01*
Y189036D01*
X321478D01*
Y189132D01*
X321526D01*
Y189324D01*
X321574D01*
Y189898D01*
X321526D01*
Y190090D01*
X321478D01*
Y190186D01*
X321431D01*
Y190282D01*
X321383D01*
Y190329D01*
X321335D01*
Y190425D01*
X321287D01*
Y190473D01*
X321239D01*
Y190521D01*
X321191D01*
Y190569D01*
X321143D01*
Y190617D01*
X321047D01*
Y190665D01*
X320952D01*
Y190713D01*
X320856D01*
Y190760D01*
X320616D01*
Y190808D01*
X320185D01*
Y190760D01*
X319898D01*
Y190713D01*
X319706D01*
Y190665D01*
X319610D01*
Y190617D01*
X319467D01*
Y190569D01*
X319371D01*
Y190521D01*
X319275D01*
Y190473D01*
X319179D01*
Y190425D01*
X319131D01*
Y190377D01*
X319036D01*
Y190329D01*
X318988D01*
Y190282D01*
X318892D01*
Y190234D01*
X318844D01*
Y190186D01*
X318748D01*
Y190138D01*
X318700D01*
Y190090D01*
X318652D01*
Y190042D01*
X318557D01*
Y189994D01*
X318509D01*
Y189946D01*
X318461D01*
Y189898D01*
X318413D01*
Y189850D01*
X318365D01*
Y189802D01*
X318317D01*
Y189755D01*
X318269D01*
Y189707D01*
X318173D01*
Y189659D01*
X318078D01*
Y189707D01*
X318030D01*
Y189755D01*
X317982D01*
Y189946D01*
X318030D01*
Y190042D01*
X318078D01*
Y190186D01*
X318125D01*
Y190377D01*
X318173D01*
Y190473D01*
X318221D01*
Y190665D01*
X318269D01*
Y190760D01*
X318317D01*
Y190856D01*
X318365D01*
Y191000D01*
X318413D01*
Y191096D01*
X318461D01*
Y191192D01*
X318509D01*
Y191335D01*
X318557D01*
Y191383D01*
X318605D01*
Y191527D01*
X318652D01*
Y191623D01*
X318700D01*
Y191671D01*
X318748D01*
Y191814D01*
X318796D01*
Y191862D01*
X318844D01*
Y191958D01*
X318892D01*
Y192054D01*
X318940D01*
Y192102D01*
X318988D01*
Y192197D01*
X319036D01*
Y192293D01*
X319083D01*
Y192389D01*
X319131D01*
Y192437D01*
X319179D01*
Y192533D01*
X319227D01*
Y192581D01*
X319275D01*
Y192676D01*
X319323D01*
Y192772D01*
X319371D01*
Y192820D01*
X319419D01*
Y192916D01*
X319467D01*
Y192964D01*
X319515D01*
Y193060D01*
X319562D01*
Y193107D01*
X319610D01*
Y193155D01*
X319658D01*
Y193251D01*
X319706D01*
Y193299D01*
X319754D01*
Y193347D01*
X319802D01*
Y193443D01*
X319850D01*
Y193491D01*
X319898D01*
Y193539D01*
X319946D01*
Y193587D01*
X319994D01*
Y193634D01*
X320042D01*
Y193730D01*
X320089D01*
Y193778D01*
X320137D01*
Y193826D01*
X320185D01*
Y193874D01*
X320233D01*
Y193922D01*
X320281D01*
Y194018D01*
X320329D01*
Y194065D01*
X320377D01*
Y194113D01*
X320425D01*
Y194161D01*
X320473D01*
Y194209D01*
X320521D01*
Y194257D01*
X320568D01*
Y194305D01*
X320616D01*
Y194353D01*
X320664D01*
Y194401D01*
X320712D01*
Y194449D01*
X320760D01*
Y194497D01*
X320808D01*
Y194545D01*
X320856D01*
Y194592D01*
X320904D01*
Y194640D01*
X320952D01*
Y194688D01*
X320999D01*
Y194736D01*
X321047D01*
Y194784D01*
X321095D01*
Y194832D01*
X321191D01*
Y194880D01*
X321239D01*
Y194928D01*
X321287D01*
Y194976D01*
X321335D01*
Y195023D01*
X321383D01*
Y195071D01*
X321478D01*
Y195119D01*
X321526D01*
Y195167D01*
X321574D01*
Y195215D01*
X321670D01*
Y195263D01*
X321718D01*
Y195311D01*
X321766D01*
Y195359D01*
X321862D01*
Y195407D01*
X321909D01*
Y195455D01*
X322005D01*
Y195502D01*
X322053D01*
Y195550D01*
X322149D01*
Y195598D01*
X322197D01*
Y195646D01*
X322293D01*
Y195694D01*
X322388D01*
Y195742D01*
X322436D01*
Y195790D01*
X322532D01*
Y195838D01*
X322628D01*
Y195886D01*
X322724D01*
Y195933D01*
X322820D01*
Y195981D01*
X322963D01*
Y196029D01*
X323011D01*
Y196077D01*
X323155D01*
Y196125D01*
X323299D01*
Y196173D01*
X323442D01*
Y196221D01*
X323634D01*
Y196269D01*
X323778D01*
Y196317D01*
X324017D01*
Y196365D01*
X324400D01*
Y196413D01*
X325023D01*
Y196221D01*
D02*
G37*
G36*
X393455Y156137D02*
X393503D01*
Y155802D01*
X393455D01*
Y155610D01*
X393407D01*
Y155418D01*
X393359D01*
Y155371D01*
X393311D01*
Y155227D01*
X393264D01*
Y155179D01*
X393216D01*
Y155131D01*
X393168D01*
Y155035D01*
X393120D01*
Y154987D01*
X393072D01*
Y154892D01*
X393024D01*
Y154844D01*
X392976D01*
Y154796D01*
X392928D01*
Y154748D01*
X392880D01*
Y154700D01*
X392832D01*
Y154652D01*
X392785D01*
Y154604D01*
X392737D01*
Y154556D01*
X392689D01*
Y154508D01*
X392641D01*
Y154460D01*
X392593D01*
Y154412D01*
X392497D01*
Y154365D01*
X392449D01*
Y154317D01*
X392401D01*
Y154269D01*
X392353D01*
Y154221D01*
X392258D01*
Y154173D01*
X392210D01*
Y154125D01*
X392162D01*
Y154077D01*
X392114D01*
Y154029D01*
X392018D01*
Y153982D01*
X391970D01*
Y153934D01*
X391922D01*
Y153886D01*
X391827D01*
Y153838D01*
X391779D01*
Y153790D01*
X391731D01*
Y153742D01*
X391635D01*
Y153694D01*
X391587D01*
Y153646D01*
X391491D01*
Y153598D01*
X391443D01*
Y153550D01*
X391395D01*
Y153503D01*
X391300D01*
Y153455D01*
X391252D01*
Y153407D01*
X391156D01*
Y153359D01*
X391108D01*
Y153311D01*
X391012D01*
Y153263D01*
X390964D01*
Y153215D01*
X390869D01*
Y153167D01*
X390821D01*
Y153119D01*
X390773D01*
Y153071D01*
X390677D01*
Y153024D01*
X390629D01*
Y152976D01*
X390533D01*
Y152928D01*
X390485D01*
Y152880D01*
X390438D01*
Y152832D01*
X390342D01*
Y152784D01*
X390294D01*
Y152736D01*
X390198D01*
Y152688D01*
X390150D01*
Y152640D01*
X390102D01*
Y152592D01*
X390006D01*
Y152544D01*
X389958D01*
Y152497D01*
X389911D01*
Y152449D01*
X389815D01*
Y152401D01*
X389767D01*
Y152353D01*
X389719D01*
Y152305D01*
X389671D01*
Y152257D01*
X389623D01*
Y152209D01*
X389527D01*
Y152161D01*
X389479D01*
Y152113D01*
X389432D01*
Y152065D01*
X389384D01*
Y152018D01*
X389336D01*
Y151970D01*
X389288D01*
Y151922D01*
X389240D01*
Y151874D01*
X389192D01*
Y151826D01*
X389144D01*
Y151778D01*
X389096D01*
Y151730D01*
X389048D01*
Y151682D01*
X389001D01*
Y151634D01*
X388953D01*
Y151587D01*
X388905D01*
Y151539D01*
X388857D01*
Y151443D01*
X388809D01*
Y151395D01*
X388761D01*
Y151347D01*
X388713D01*
Y151251D01*
X388665D01*
Y151156D01*
X388617D01*
Y151108D01*
X388569D01*
Y150964D01*
X388522D01*
Y150868D01*
X388474D01*
Y150676D01*
X388426D01*
Y150102D01*
X388474D01*
Y149910D01*
X388522D01*
Y149814D01*
X388569D01*
Y149719D01*
X388617D01*
Y149671D01*
X388665D01*
Y149575D01*
X388713D01*
Y149527D01*
X388761D01*
Y149479D01*
X388809D01*
Y149431D01*
X388857D01*
Y149383D01*
X388953D01*
Y149335D01*
X389048D01*
Y149287D01*
X389144D01*
Y149240D01*
X389384D01*
Y149192D01*
X389815D01*
Y149240D01*
X390102D01*
Y149287D01*
X390294D01*
Y149335D01*
X390390D01*
Y149383D01*
X390533D01*
Y149431D01*
X390629D01*
Y149479D01*
X390725D01*
Y149527D01*
X390821D01*
Y149575D01*
X390869D01*
Y149623D01*
X390964D01*
Y149671D01*
X391012D01*
Y149719D01*
X391108D01*
Y149766D01*
X391156D01*
Y149814D01*
X391252D01*
Y149862D01*
X391300D01*
Y149910D01*
X391348D01*
Y149958D01*
X391443D01*
Y150006D01*
X391491D01*
Y150054D01*
X391539D01*
Y150102D01*
X391587D01*
Y150150D01*
X391635D01*
Y150197D01*
X391683D01*
Y150245D01*
X391731D01*
Y150293D01*
X391827D01*
Y150341D01*
X391922D01*
Y150293D01*
X391970D01*
Y150245D01*
X392018D01*
Y150054D01*
X391970D01*
Y149958D01*
X391922D01*
Y149814D01*
X391875D01*
Y149623D01*
X391827D01*
Y149527D01*
X391779D01*
Y149335D01*
X391731D01*
Y149240D01*
X391683D01*
Y149144D01*
X391635D01*
Y149000D01*
X391587D01*
Y148904D01*
X391539D01*
Y148808D01*
X391491D01*
Y148665D01*
X391443D01*
Y148617D01*
X391395D01*
Y148473D01*
X391348D01*
Y148377D01*
X391300D01*
Y148329D01*
X391252D01*
Y148186D01*
X391204D01*
Y148138D01*
X391156D01*
Y148042D01*
X391108D01*
Y147946D01*
X391060D01*
Y147898D01*
X391012D01*
Y147802D01*
X390964D01*
Y147707D01*
X390916D01*
Y147611D01*
X390869D01*
Y147563D01*
X390821D01*
Y147467D01*
X390773D01*
Y147419D01*
X390725D01*
Y147324D01*
X390677D01*
Y147228D01*
X390629D01*
Y147180D01*
X390581D01*
Y147084D01*
X390533D01*
Y147036D01*
X390485D01*
Y146940D01*
X390438D01*
Y146892D01*
X390390D01*
Y146845D01*
X390342D01*
Y146749D01*
X390294D01*
Y146701D01*
X390246D01*
Y146653D01*
X390198D01*
Y146557D01*
X390150D01*
Y146509D01*
X390102D01*
Y146461D01*
X390054D01*
Y146413D01*
X390006D01*
Y146366D01*
X389958D01*
Y146270D01*
X389911D01*
Y146222D01*
X389863D01*
Y146174D01*
X389815D01*
Y146126D01*
X389767D01*
Y146078D01*
X389719D01*
Y145982D01*
X389671D01*
Y145934D01*
X389623D01*
Y145887D01*
X389575D01*
Y145839D01*
X389527D01*
Y145791D01*
X389479D01*
Y145743D01*
X389432D01*
Y145695D01*
X389384D01*
Y145647D01*
X389336D01*
Y145599D01*
X389288D01*
Y145551D01*
X389240D01*
Y145503D01*
X389192D01*
Y145456D01*
X389144D01*
Y145408D01*
X389096D01*
Y145360D01*
X389048D01*
Y145312D01*
X389001D01*
Y145264D01*
X388953D01*
Y145216D01*
X388905D01*
Y145168D01*
X388809D01*
Y145120D01*
X388761D01*
Y145072D01*
X388713D01*
Y145024D01*
X388665D01*
Y144977D01*
X388617D01*
Y144929D01*
X388522D01*
Y144881D01*
X388474D01*
Y144833D01*
X388426D01*
Y144785D01*
X388330D01*
Y144737D01*
X388282D01*
Y144689D01*
X388234D01*
Y144641D01*
X388138D01*
Y144593D01*
X388091D01*
Y144545D01*
X387995D01*
Y144498D01*
X387947D01*
Y144450D01*
X387851D01*
Y144402D01*
X387803D01*
Y144354D01*
X387707D01*
Y144306D01*
X387612D01*
Y144258D01*
X387564D01*
Y144210D01*
X387468D01*
Y144162D01*
X387372D01*
Y144114D01*
X387276D01*
Y144066D01*
X387180D01*
Y144019D01*
X387037D01*
Y143971D01*
X386989D01*
Y143923D01*
X386845D01*
Y143875D01*
X386701D01*
Y143827D01*
X386558D01*
Y143779D01*
X386366D01*
Y143731D01*
X386222D01*
Y143683D01*
X385983D01*
Y143635D01*
X385600D01*
Y143588D01*
X384977D01*
Y143779D01*
X385025D01*
Y143827D01*
X385121D01*
Y143875D01*
X385217D01*
Y143923D01*
X385360D01*
Y143971D01*
X385408D01*
Y144019D01*
X385552D01*
Y144066D01*
X385648D01*
Y144114D01*
X385743D01*
Y144162D01*
X385791D01*
Y144210D01*
X385887D01*
Y144258D01*
X385935D01*
Y144306D01*
X385983D01*
Y144354D01*
X386031D01*
Y144402D01*
X386127D01*
Y144450D01*
X386175D01*
Y144498D01*
X386222D01*
Y144545D01*
X386270D01*
Y144593D01*
X386318D01*
Y144641D01*
X386366D01*
Y144689D01*
X386414D01*
Y144737D01*
X386462D01*
Y144785D01*
X386510D01*
Y144833D01*
X386558D01*
Y144881D01*
X386606D01*
Y144929D01*
X386654D01*
Y145024D01*
X386701D01*
Y145072D01*
X386749D01*
Y145120D01*
X386797D01*
Y145216D01*
X386845D01*
Y145264D01*
X386893D01*
Y145360D01*
X386941D01*
Y145408D01*
X386989D01*
Y145503D01*
X387037D01*
Y145599D01*
X387085D01*
Y145695D01*
X387132D01*
Y145791D01*
X387180D01*
Y145887D01*
X387228D01*
Y145982D01*
X387276D01*
Y146126D01*
X387324D01*
Y146270D01*
X387372D01*
Y146366D01*
X387420D01*
Y146557D01*
X387468D01*
Y146701D01*
X387516D01*
Y146892D01*
X387564D01*
Y147180D01*
X387612D01*
Y147372D01*
X387659D01*
Y147659D01*
X387707D01*
Y148138D01*
X387659D01*
Y148186D01*
X387612D01*
Y148138D01*
X387564D01*
Y148090D01*
X387516D01*
Y147994D01*
X387468D01*
Y147946D01*
X387420D01*
Y147851D01*
X387372D01*
Y147755D01*
X387324D01*
Y147707D01*
X387276D01*
Y147611D01*
X387228D01*
Y147563D01*
X387180D01*
Y147515D01*
X387132D01*
Y147467D01*
X387085D01*
Y147419D01*
X387037D01*
Y147372D01*
X386989D01*
Y147324D01*
X386941D01*
Y147276D01*
X386893D01*
Y147228D01*
X386845D01*
Y147180D01*
X386797D01*
Y147132D01*
X386749D01*
Y147084D01*
X386654D01*
Y147036D01*
X386606D01*
Y146988D01*
X386558D01*
Y146940D01*
X386462D01*
Y146892D01*
X386414D01*
Y146845D01*
X386318D01*
Y146797D01*
X386222D01*
Y146749D01*
X386127D01*
Y146701D01*
X385983D01*
Y146653D01*
X385791D01*
Y146605D01*
X385265D01*
Y146653D01*
X385169D01*
Y146701D01*
X385073D01*
Y146749D01*
X384977D01*
Y146797D01*
X384929D01*
Y146845D01*
X384881D01*
Y146892D01*
X384833D01*
Y146940D01*
X384785D01*
Y146988D01*
X384738D01*
Y147084D01*
X384690D01*
Y147132D01*
X384642D01*
Y147276D01*
X384594D01*
Y147419D01*
X384546D01*
Y147946D01*
X384594D01*
Y148138D01*
X384642D01*
Y148281D01*
X384690D01*
Y148329D01*
X384738D01*
Y148473D01*
X384785D01*
Y148521D01*
X384833D01*
Y148617D01*
X384881D01*
Y148713D01*
X384929D01*
Y148760D01*
X384977D01*
Y148856D01*
X385025D01*
Y148904D01*
X385073D01*
Y148952D01*
X385121D01*
Y149048D01*
X385169D01*
Y149096D01*
X385217D01*
Y149192D01*
X385265D01*
Y149240D01*
X385312D01*
Y149335D01*
X385360D01*
Y149383D01*
X385408D01*
Y149479D01*
X385456D01*
Y149527D01*
X385504D01*
Y149623D01*
X385552D01*
Y149671D01*
X385600D01*
Y149766D01*
X385648D01*
Y149862D01*
X385696D01*
Y149910D01*
X385743D01*
Y150006D01*
X385791D01*
Y150102D01*
X385839D01*
Y150197D01*
X385887D01*
Y150341D01*
X385935D01*
Y150437D01*
X385983D01*
Y150581D01*
X386031D01*
Y150772D01*
X386079D01*
Y150964D01*
X386127D01*
Y151156D01*
X386079D01*
Y151203D01*
X386031D01*
Y151156D01*
X385983D01*
Y151108D01*
X385935D01*
Y151060D01*
X385887D01*
Y151012D01*
X385839D01*
Y150916D01*
X385791D01*
Y150868D01*
X385743D01*
Y150772D01*
X385696D01*
Y150724D01*
X385648D01*
Y150629D01*
X385600D01*
Y150581D01*
X385552D01*
Y150485D01*
X385504D01*
Y150437D01*
X385456D01*
Y150389D01*
X385408D01*
Y150341D01*
X385360D01*
Y150245D01*
X385312D01*
Y150197D01*
X385265D01*
Y150150D01*
X385217D01*
Y150102D01*
X385169D01*
Y150054D01*
X385121D01*
Y150006D01*
X385073D01*
Y149958D01*
X385025D01*
Y149910D01*
X384977D01*
Y149862D01*
X384881D01*
Y149814D01*
X384833D01*
Y149766D01*
X384785D01*
Y149719D01*
X384738D01*
Y149671D01*
X384690D01*
Y149623D01*
X384642D01*
Y149575D01*
X384546D01*
Y149527D01*
X384498D01*
Y149479D01*
X384450D01*
Y149431D01*
X384402D01*
Y149383D01*
X384306D01*
Y149335D01*
X384259D01*
Y149287D01*
X384211D01*
Y149240D01*
X384115D01*
Y149192D01*
X384067D01*
Y149144D01*
X384019D01*
Y149096D01*
X383923D01*
Y149048D01*
X383875D01*
Y149000D01*
X383828D01*
Y148952D01*
X383732D01*
Y148904D01*
X383684D01*
Y148856D01*
X383636D01*
Y148808D01*
X383540D01*
Y148760D01*
X383492D01*
Y148713D01*
X383444D01*
Y148665D01*
X383349D01*
Y148617D01*
X383301D01*
Y148569D01*
X383253D01*
Y148521D01*
X383205D01*
Y148473D01*
X383109D01*
Y148425D01*
X383061D01*
Y148377D01*
X383013D01*
Y148329D01*
X382965D01*
Y148281D01*
X382917D01*
Y148234D01*
X382822D01*
Y148186D01*
X382774D01*
Y148138D01*
X382726D01*
Y148090D01*
X382678D01*
Y148042D01*
X382630D01*
Y147994D01*
X382582D01*
Y147946D01*
X382534D01*
Y147898D01*
X382486D01*
Y147851D01*
X382439D01*
Y147802D01*
X382391D01*
Y147755D01*
X382343D01*
Y147707D01*
X382295D01*
Y147659D01*
X382247D01*
Y147611D01*
X382199D01*
Y147563D01*
X382151D01*
Y147467D01*
X382103D01*
Y147419D01*
X382055D01*
Y147372D01*
X382007D01*
Y147324D01*
X381959D01*
Y147228D01*
X381912D01*
Y147180D01*
X381864D01*
Y147084D01*
X381816D01*
Y146988D01*
X381768D01*
Y146940D01*
X381720D01*
Y146845D01*
X381672D01*
Y146701D01*
X381624D01*
Y146605D01*
X381576D01*
Y146509D01*
X381528D01*
Y146318D01*
X381480D01*
Y146174D01*
X381433D01*
Y145887D01*
X381385D01*
Y144689D01*
X381337D01*
Y144498D01*
X381289D01*
Y144450D01*
X381145D01*
Y144498D01*
X381097D01*
Y144593D01*
X381049D01*
Y144785D01*
X381002D01*
Y144977D01*
X380954D01*
Y145120D01*
X380906D01*
Y145456D01*
X380858D01*
Y145647D01*
X380810D01*
Y145934D01*
X380762D01*
Y147515D01*
X380810D01*
Y147802D01*
X380858D01*
Y147994D01*
X380906D01*
Y148234D01*
X380954D01*
Y148377D01*
X381002D01*
Y148473D01*
X381049D01*
Y148665D01*
X381097D01*
Y148713D01*
X381145D01*
Y148856D01*
X381193D01*
Y149000D01*
X381241D01*
Y149048D01*
X381289D01*
Y149192D01*
X381337D01*
Y149240D01*
X381385D01*
Y149335D01*
X381433D01*
Y149431D01*
X381480D01*
Y149479D01*
X381528D01*
Y149575D01*
X381576D01*
Y149671D01*
X381624D01*
Y149719D01*
X381672D01*
Y149814D01*
X381720D01*
Y149862D01*
X381768D01*
Y149910D01*
X381816D01*
Y150006D01*
X381864D01*
Y150054D01*
X381912D01*
Y150102D01*
X381959D01*
Y150150D01*
X382007D01*
Y150197D01*
X382055D01*
Y150293D01*
X382103D01*
Y150341D01*
X382151D01*
Y150389D01*
X382199D01*
Y150437D01*
X382247D01*
Y150485D01*
X382295D01*
Y150533D01*
X382343D01*
Y150581D01*
X382391D01*
Y150629D01*
X382439D01*
Y150676D01*
X382486D01*
Y150724D01*
X382534D01*
Y150772D01*
X382582D01*
Y150820D01*
X382630D01*
Y150868D01*
X382678D01*
Y150916D01*
X382726D01*
Y150964D01*
X382774D01*
Y151012D01*
X382822D01*
Y151060D01*
X382917D01*
Y151108D01*
X382965D01*
Y151156D01*
X383013D01*
Y151203D01*
X383061D01*
Y151251D01*
X383109D01*
Y151299D01*
X383205D01*
Y151347D01*
X383253D01*
Y151395D01*
X383301D01*
Y151443D01*
X383396D01*
Y151491D01*
X383444D01*
Y151539D01*
X383492D01*
Y151587D01*
X383588D01*
Y151634D01*
X383636D01*
Y151682D01*
X383732D01*
Y151730D01*
X383780D01*
Y151778D01*
X383828D01*
Y151826D01*
X383923D01*
Y151874D01*
X384019D01*
Y151922D01*
X384067D01*
Y151970D01*
X384163D01*
Y152018D01*
X384211D01*
Y152065D01*
X384306D01*
Y152113D01*
X384402D01*
Y152161D01*
X384498D01*
Y152209D01*
X384594D01*
Y152257D01*
X384642D01*
Y152305D01*
X384738D01*
Y152353D01*
X384833D01*
Y152401D01*
X384929D01*
Y152449D01*
X385025D01*
Y152497D01*
X385121D01*
Y152544D01*
X385217D01*
Y152592D01*
X385312D01*
Y152640D01*
X385408D01*
Y152688D01*
X385504D01*
Y152736D01*
X385648D01*
Y152784D01*
X385696D01*
Y152832D01*
X385839D01*
Y152880D01*
X385935D01*
Y152928D01*
X386031D01*
Y152976D01*
X386175D01*
Y153024D01*
X386270D01*
Y153071D01*
X386414D01*
Y153119D01*
X386558D01*
Y153167D01*
X386654D01*
Y153215D01*
X386845D01*
Y153263D01*
X386989D01*
Y153311D01*
X387132D01*
Y153359D01*
X387324D01*
Y153407D01*
X387468D01*
Y153455D01*
X387612D01*
Y153503D01*
X387851D01*
Y153550D01*
X387995D01*
Y153598D01*
X388186D01*
Y153646D01*
X388378D01*
Y153694D01*
X388522D01*
Y153742D01*
X388761D01*
Y153790D01*
X388953D01*
Y153838D01*
X389096D01*
Y153886D01*
X389336D01*
Y153934D01*
X389479D01*
Y153982D01*
X389671D01*
Y154029D01*
X389815D01*
Y154077D01*
X389958D01*
Y154125D01*
X390150D01*
Y154173D01*
X390294D01*
Y154221D01*
X390438D01*
Y154269D01*
X390581D01*
Y154317D01*
X390677D01*
Y154365D01*
X390869D01*
Y154412D01*
X390964D01*
Y154460D01*
X391060D01*
Y154508D01*
X391204D01*
Y154556D01*
X391300D01*
Y154604D01*
X391395D01*
Y154652D01*
X391539D01*
Y154700D01*
X391587D01*
Y154748D01*
X391731D01*
Y154796D01*
X391827D01*
Y154844D01*
X391875D01*
Y154892D01*
X391970D01*
Y154939D01*
X392066D01*
Y154987D01*
X392114D01*
Y155035D01*
X392210D01*
Y155083D01*
X392258D01*
Y155131D01*
X392353D01*
Y155179D01*
X392401D01*
Y155227D01*
X392497D01*
Y155275D01*
X392545D01*
Y155323D01*
X392593D01*
Y155371D01*
X392641D01*
Y155418D01*
X392737D01*
Y155466D01*
X392785D01*
Y155514D01*
X392832D01*
Y155562D01*
X392880D01*
Y155610D01*
X392928D01*
Y155658D01*
X392976D01*
Y155706D01*
X393024D01*
Y155754D01*
X393072D01*
Y155802D01*
X393120D01*
Y155850D01*
X393168D01*
Y155993D01*
X393216D01*
Y156089D01*
X393264D01*
Y156185D01*
X393455D01*
Y156137D01*
D02*
G37*
G36*
X425686Y136932D02*
X425800D01*
Y136903D01*
X425943D01*
Y136875D01*
X426030D01*
Y136846D01*
X426058D01*
Y136015D01*
X426030D01*
Y135986D01*
X425714D01*
Y136015D01*
X425284D01*
Y135986D01*
X425084D01*
Y135958D01*
X424969D01*
Y135929D01*
X424912D01*
Y135900D01*
X424855D01*
Y135872D01*
X424797D01*
Y135843D01*
X424769D01*
Y135814D01*
X424740D01*
Y135757D01*
X424711D01*
Y135729D01*
X424683D01*
Y135671D01*
X424654D01*
Y135585D01*
X424625D01*
Y135471D01*
X424597D01*
Y134382D01*
X424625D01*
Y134353D01*
X425886D01*
Y133608D01*
X424597D01*
Y128765D01*
X423508D01*
Y129195D01*
Y129223D01*
Y133608D01*
X422447D01*
Y134353D01*
X423479D01*
Y134382D01*
X423508D01*
Y135499D01*
X423536D01*
Y135729D01*
X423565D01*
Y135872D01*
X423594D01*
Y135986D01*
X423622D01*
Y136044D01*
X423651D01*
Y136130D01*
X423680D01*
Y136187D01*
X423708D01*
Y136216D01*
X423737D01*
Y136273D01*
X423766D01*
Y136330D01*
X423794D01*
Y136359D01*
X423823D01*
Y136416D01*
X423852D01*
Y136445D01*
X423880D01*
Y136474D01*
X423909D01*
Y136502D01*
X423937D01*
Y136531D01*
X423966D01*
Y136559D01*
X423995D01*
Y136588D01*
X424052D01*
Y136617D01*
X424081D01*
Y136645D01*
X424109D01*
Y136674D01*
X424167D01*
Y136703D01*
X424195D01*
Y136732D01*
X424253D01*
Y136760D01*
X424310D01*
Y136789D01*
X424367D01*
Y136817D01*
X424453D01*
Y136846D01*
X424511D01*
Y136875D01*
X424597D01*
Y136903D01*
X424711D01*
Y136932D01*
X424826D01*
Y136961D01*
X425686D01*
Y136932D01*
D02*
G37*
G36*
X403753Y141899D02*
X403801D01*
Y132750D01*
X403753D01*
Y132606D01*
X403705D01*
Y132271D01*
X403657D01*
Y132175D01*
X403610D01*
Y132079D01*
X403657D01*
Y132031D01*
X403610D01*
Y131936D01*
X403562D01*
Y131696D01*
X403466D01*
Y131505D01*
X403418D01*
Y131313D01*
X403322D01*
Y131169D01*
X403226D01*
Y131122D01*
X403274D01*
Y131074D01*
X403226D01*
Y131026D01*
X403178D01*
Y130882D01*
X403131D01*
Y130834D01*
X403083D01*
Y130738D01*
X403035D01*
Y130642D01*
X402939D01*
Y130547D01*
X402891D01*
Y130451D01*
X402843D01*
Y130403D01*
X402795D01*
Y130355D01*
X402747D01*
Y130307D01*
X402700D01*
Y130259D01*
X402652D01*
Y130211D01*
X402604D01*
Y130163D01*
X402556D01*
Y130116D01*
X402508D01*
Y130068D01*
X402460D01*
Y130020D01*
X402412D01*
Y129972D01*
X402364D01*
Y129924D01*
X402316D01*
Y129876D01*
X402268D01*
Y129828D01*
X402220D01*
Y129780D01*
X402173D01*
Y129732D01*
X402125D01*
Y129684D01*
X402029D01*
Y129637D01*
X401981D01*
Y129589D01*
X401933D01*
Y129541D01*
X401885D01*
Y129493D01*
X401789D01*
Y129445D01*
X401694D01*
Y129397D01*
X401646D01*
Y129349D01*
X401550D01*
Y129301D01*
X401454D01*
Y129253D01*
X401406D01*
Y129206D01*
X401263D01*
Y129158D01*
X401167D01*
Y129110D01*
X401119D01*
Y129062D01*
X400975D01*
Y129014D01*
X400927D01*
Y128966D01*
X400784D01*
Y128918D01*
X400592D01*
Y128822D01*
X400400D01*
Y128774D01*
X400209D01*
Y128727D01*
X400113D01*
Y128679D01*
X399874D01*
Y128631D01*
X399826D01*
Y128583D01*
X399538D01*
Y128535D01*
X399155D01*
Y128487D01*
X399107D01*
Y128439D01*
X398580D01*
Y128391D01*
X398341D01*
Y128343D01*
X398197D01*
Y128391D01*
X396616D01*
Y128343D01*
X396521D01*
Y128391D01*
X396233D01*
Y128439D01*
X395706D01*
Y128487D01*
X395658D01*
Y128535D01*
X395275D01*
Y128583D01*
X394988D01*
Y128631D01*
X394940D01*
Y128679D01*
X394701D01*
Y128727D01*
X394653D01*
Y128774D01*
X394557D01*
Y128727D01*
X394509D01*
Y128774D01*
X394413D01*
Y128822D01*
X394221D01*
Y128918D01*
X394030D01*
Y128966D01*
X393886D01*
Y129014D01*
X393838D01*
Y129062D01*
X393695D01*
Y129110D01*
X393599D01*
Y129158D01*
X393551D01*
Y129206D01*
X393407D01*
Y129301D01*
X393264D01*
Y129349D01*
X393168D01*
Y129397D01*
X393120D01*
Y129445D01*
X393024D01*
Y129493D01*
X392976D01*
Y129541D01*
X392928D01*
Y129589D01*
X392832D01*
Y129637D01*
X392785D01*
Y129684D01*
X392689D01*
Y129732D01*
X392641D01*
Y129828D01*
X392545D01*
Y129924D01*
X392449D01*
Y129972D01*
X392353D01*
Y130020D01*
X392401D01*
Y130068D01*
X392305D01*
Y130116D01*
X392258D01*
Y130163D01*
X392210D01*
Y130211D01*
X392162D01*
Y130307D01*
X392066D01*
Y130403D01*
X391970D01*
Y130499D01*
X391922D01*
Y130547D01*
X391875D01*
Y130595D01*
X391827D01*
Y130690D01*
X391779D01*
Y130738D01*
X391731D01*
Y130834D01*
X391683D01*
Y130930D01*
X391635D01*
Y130978D01*
X391587D01*
Y131122D01*
X391539D01*
Y131265D01*
X391443D01*
Y131457D01*
X391348D01*
Y131648D01*
X391300D01*
Y131840D01*
X391252D01*
Y131888D01*
X391204D01*
Y132127D01*
X391156D01*
Y132223D01*
X391108D01*
Y132319D01*
X391156D01*
Y132415D01*
X391108D01*
Y132558D01*
X391060D01*
Y133085D01*
X391012D01*
Y141899D01*
X391108D01*
Y141994D01*
X394509D01*
Y141946D01*
X394557D01*
Y141899D01*
X394605D01*
Y141994D01*
X394653D01*
Y133133D01*
X394701D01*
Y133037D01*
X394748D01*
Y132750D01*
X394796D01*
Y132654D01*
X394844D01*
Y132606D01*
X394796D01*
Y132558D01*
X394844D01*
Y132510D01*
X394892D01*
Y132319D01*
X394988D01*
Y132223D01*
X394940D01*
Y132175D01*
X395036D01*
Y132079D01*
X395084D01*
Y132031D01*
X395132D01*
Y131936D01*
X395179D01*
Y131888D01*
X395227D01*
Y131840D01*
X395275D01*
Y131744D01*
X395323D01*
Y131648D01*
X395419D01*
Y131600D01*
X395467D01*
Y131505D01*
X395563D01*
Y131457D01*
X395658D01*
Y131409D01*
X395706D01*
Y131361D01*
X395754D01*
Y131313D01*
X395802D01*
Y131265D01*
X395898D01*
Y131217D01*
X395994D01*
Y131169D01*
X396042D01*
Y131122D01*
X396185D01*
Y131074D01*
X396329D01*
Y131026D01*
X396377D01*
Y130978D01*
X396664D01*
Y130930D01*
X396712D01*
Y130882D01*
X396856D01*
Y130930D01*
X397000D01*
Y130882D01*
X397814D01*
Y130930D01*
X398005D01*
Y130882D01*
X398101D01*
Y130930D01*
X398197D01*
Y130978D01*
X398437D01*
Y131026D01*
X398484D01*
Y131074D01*
X398628D01*
Y131122D01*
X398772D01*
Y131169D01*
X398820D01*
Y131217D01*
X398915D01*
Y131265D01*
X399059D01*
Y131361D01*
X399155D01*
Y131409D01*
X399203D01*
Y131457D01*
X399251D01*
Y131505D01*
X399347D01*
Y131600D01*
X399442D01*
Y131696D01*
X399490D01*
Y131744D01*
X399538D01*
Y131840D01*
X399634D01*
Y131936D01*
X399682D01*
Y131984D01*
X399730D01*
Y132079D01*
X399778D01*
Y132175D01*
X399826D01*
Y132223D01*
X399874D01*
Y132367D01*
X399921D01*
Y132415D01*
X399969D01*
Y132463D01*
X399921D01*
Y132510D01*
X399969D01*
Y132558D01*
X400017D01*
Y132798D01*
X400065D01*
Y132846D01*
X400113D01*
Y133229D01*
X400161D01*
Y141899D01*
X400209D01*
Y141994D01*
X403753D01*
Y141899D01*
D02*
G37*
G36*
X421272Y128765D02*
X420212D01*
Y136359D01*
Y136388D01*
Y136817D01*
X421272D01*
Y128765D01*
D02*
G37*
G36*
X409265Y136789D02*
X409666D01*
Y136760D01*
X409838D01*
Y136732D01*
X410039D01*
Y136703D01*
X410125D01*
Y136674D01*
X410239D01*
Y136645D01*
X410383D01*
Y136617D01*
X410440D01*
Y136588D01*
X410526D01*
Y136559D01*
X410612D01*
Y136531D01*
X410669D01*
Y136502D01*
X410755D01*
Y136474D01*
X410812D01*
Y136445D01*
X410870D01*
Y136416D01*
X410956D01*
Y136388D01*
X410984D01*
Y136359D01*
X411042D01*
Y136330D01*
X411099D01*
Y136302D01*
X411156D01*
Y136273D01*
X411214D01*
Y136244D01*
X411242D01*
Y136216D01*
X411271D01*
Y136187D01*
X411328D01*
Y136158D01*
X411357D01*
Y136130D01*
X411414D01*
Y136101D01*
X411443D01*
Y136072D01*
X411472D01*
Y136044D01*
X411500D01*
Y136015D01*
X411558D01*
Y135986D01*
X411586D01*
Y135958D01*
X411615D01*
Y135929D01*
X411644D01*
Y135900D01*
X411672D01*
Y135872D01*
X411701D01*
Y135843D01*
X411730D01*
Y135814D01*
X411758D01*
Y135786D01*
X411787D01*
Y135757D01*
X411815D01*
Y135729D01*
X411844D01*
Y135700D01*
X411873D01*
Y135671D01*
X411902D01*
Y135614D01*
X411930D01*
Y135585D01*
X411959D01*
Y135556D01*
X411987D01*
Y135528D01*
X412016D01*
Y135499D01*
X412045D01*
Y135442D01*
X412073D01*
Y135413D01*
X412102D01*
Y135356D01*
X412131D01*
Y135327D01*
X412159D01*
Y135270D01*
X412188D01*
Y135213D01*
X412217D01*
Y135184D01*
X412245D01*
Y135127D01*
X412274D01*
Y135069D01*
X412303D01*
Y135012D01*
X412331D01*
Y134955D01*
X412360D01*
Y134897D01*
X412389D01*
Y134869D01*
X412417D01*
Y134783D01*
X412446D01*
Y134697D01*
X412475D01*
Y134640D01*
X412503D01*
Y134553D01*
X412532D01*
Y134496D01*
X412561D01*
Y134410D01*
X412589D01*
Y134382D01*
Y134353D01*
Y134296D01*
X412618D01*
Y134210D01*
X412647D01*
Y134095D01*
X412675D01*
Y133980D01*
X412704D01*
Y133866D01*
X412733D01*
Y133694D01*
X412761D01*
Y133522D01*
X412790D01*
Y133264D01*
X412819D01*
Y133235D01*
X412790D01*
Y133178D01*
X412819D01*
Y132404D01*
X412790D01*
Y132347D01*
X412819D01*
Y132290D01*
X412790D01*
Y132060D01*
X412761D01*
Y131888D01*
X412733D01*
Y131688D01*
X412704D01*
Y131602D01*
X412675D01*
Y131459D01*
X412647D01*
Y131344D01*
X412618D01*
Y131258D01*
X412589D01*
Y131172D01*
X412561D01*
Y131086D01*
X412532D01*
Y131000D01*
X412503D01*
Y130914D01*
X412475D01*
Y130857D01*
X412446D01*
Y130799D01*
X412417D01*
Y130713D01*
X412389D01*
Y130656D01*
X412360D01*
Y130599D01*
X412331D01*
Y130541D01*
X412303D01*
Y130484D01*
X412274D01*
Y130427D01*
X412245D01*
Y130398D01*
X412217D01*
Y130341D01*
X412188D01*
Y130284D01*
X412159D01*
Y130255D01*
X412131D01*
Y130198D01*
X412102D01*
Y130169D01*
X412073D01*
Y130112D01*
X412045D01*
Y130083D01*
X412016D01*
Y130054D01*
X411987D01*
Y129997D01*
X411959D01*
Y129968D01*
X411930D01*
Y129940D01*
X411902D01*
Y129911D01*
X411873D01*
Y129882D01*
X411844D01*
Y129854D01*
X411815D01*
Y129796D01*
X411787D01*
Y129768D01*
X411758D01*
Y129739D01*
X411730D01*
Y129710D01*
X411701D01*
Y129682D01*
X411672D01*
Y129653D01*
X411644D01*
Y129625D01*
X411586D01*
Y129596D01*
X411558D01*
Y129567D01*
X411529D01*
Y129538D01*
X411500D01*
Y129510D01*
X411472D01*
Y129481D01*
X411414D01*
Y129452D01*
X411386D01*
Y129424D01*
X411357D01*
Y129395D01*
X411300D01*
Y129367D01*
X411271D01*
Y129338D01*
X411214D01*
Y129309D01*
X411156D01*
Y129281D01*
X411128D01*
Y129252D01*
X411071D01*
Y129223D01*
X411013D01*
Y129195D01*
X410984D01*
Y129166D01*
X410927D01*
Y129137D01*
X410870D01*
Y129109D01*
X410784D01*
Y129080D01*
X410727D01*
Y129051D01*
X410669D01*
Y129023D01*
X410583D01*
Y128994D01*
X410497D01*
Y128965D01*
X410411D01*
Y128937D01*
X410325D01*
Y128908D01*
X410211D01*
Y128879D01*
X410096D01*
Y128851D01*
X409924D01*
Y128822D01*
X409809D01*
Y128793D01*
X409494D01*
Y128765D01*
X406227D01*
Y136817D01*
X409265D01*
Y136789D01*
D02*
G37*
G36*
X429122Y135814D02*
Y135786D01*
Y134382D01*
X429151D01*
Y134353D01*
X430440D01*
Y133637D01*
X430412D01*
Y133608D01*
X429122D01*
Y129911D01*
X429151D01*
Y129768D01*
X429179D01*
Y129710D01*
X429208D01*
Y129682D01*
X429237D01*
Y129625D01*
X429265D01*
Y129596D01*
X429294D01*
Y129567D01*
X429351D01*
Y129538D01*
X429380D01*
Y129510D01*
X429437D01*
Y129481D01*
X429495D01*
Y129452D01*
X429609D01*
Y129424D01*
X429781D01*
Y129395D01*
X429867D01*
Y129424D01*
X430154D01*
Y129452D01*
X430297D01*
Y129481D01*
X430383D01*
Y128650D01*
X430268D01*
Y128622D01*
X430039D01*
Y128593D01*
X429237D01*
Y128622D01*
X429007D01*
Y128650D01*
X428893D01*
Y128679D01*
X428778D01*
Y128707D01*
X428692D01*
Y128736D01*
X428635D01*
Y128765D01*
X428578D01*
Y128793D01*
X428520D01*
Y128822D01*
X428463D01*
Y128851D01*
X428434D01*
Y128879D01*
X428377D01*
Y128908D01*
X428348D01*
Y128937D01*
X428320D01*
Y128965D01*
X428291D01*
Y129023D01*
X428262D01*
Y129051D01*
X428234D01*
Y129109D01*
X428205D01*
Y129137D01*
X428176D01*
Y129195D01*
X428148D01*
Y129281D01*
X428119D01*
Y129367D01*
X428090D01*
Y129538D01*
X428062D01*
Y133579D01*
X428033D01*
Y133608D01*
X427087D01*
Y134353D01*
X428033D01*
Y134382D01*
X428062D01*
Y135556D01*
X428119D01*
Y135585D01*
X428205D01*
Y135614D01*
X428291D01*
Y135642D01*
X428377D01*
Y135671D01*
X428492D01*
Y135700D01*
X428578D01*
Y135729D01*
X428663D01*
Y135757D01*
X428750D01*
Y135786D01*
X428835D01*
Y135814D01*
X428950D01*
Y135843D01*
X429036D01*
Y135872D01*
X429122D01*
Y135814D01*
D02*
G37*
G36*
X416802Y134496D02*
X417002D01*
Y134467D01*
X417117D01*
Y134439D01*
X417260D01*
Y134410D01*
X417346D01*
Y134382D01*
X417404D01*
Y134353D01*
X417518D01*
Y134324D01*
X417547D01*
Y134296D01*
X417633D01*
Y134267D01*
X417690D01*
Y134238D01*
X417748D01*
Y134210D01*
X417805D01*
Y134181D01*
X417834D01*
Y134152D01*
X417891D01*
Y134124D01*
X417920D01*
Y134095D01*
X417948D01*
Y134066D01*
X418005D01*
Y134038D01*
X418034D01*
Y134009D01*
X418063D01*
Y133980D01*
X418092D01*
Y133952D01*
X418120D01*
Y133923D01*
X418177D01*
Y133894D01*
X418206D01*
Y133866D01*
X418235D01*
Y133808D01*
X418263D01*
Y133780D01*
X418292D01*
Y133751D01*
X418321D01*
Y133722D01*
X418349D01*
Y133694D01*
X418378D01*
Y133665D01*
X418407D01*
Y133608D01*
X418435D01*
Y133579D01*
X418464D01*
Y133522D01*
X418493D01*
Y133493D01*
X418521D01*
Y133436D01*
X418550D01*
Y133378D01*
X418579D01*
Y133350D01*
X418607D01*
Y133293D01*
X418636D01*
Y133235D01*
X418665D01*
Y133178D01*
X418693D01*
Y133092D01*
X418722D01*
Y133035D01*
X418751D01*
Y132949D01*
X418779D01*
Y132834D01*
X418808D01*
Y132748D01*
X418837D01*
Y132605D01*
X418865D01*
Y132462D01*
X418894D01*
Y132261D01*
X418923D01*
Y131373D01*
X418894D01*
Y131344D01*
X414939D01*
Y130885D01*
X414968D01*
Y130713D01*
X414996D01*
Y130599D01*
X415025D01*
Y130456D01*
X415054D01*
Y130370D01*
X415083D01*
Y130284D01*
X415111D01*
Y130198D01*
X415140D01*
Y130169D01*
X415168D01*
Y130083D01*
X415197D01*
Y130026D01*
X415226D01*
Y129997D01*
X415254D01*
Y129940D01*
X415283D01*
Y129911D01*
X415312D01*
Y129854D01*
X415340D01*
Y129825D01*
X415369D01*
Y129796D01*
X415398D01*
Y129768D01*
X415426D01*
Y129710D01*
X415484D01*
Y129682D01*
X415512D01*
Y129653D01*
X415541D01*
Y129625D01*
X415570D01*
Y129596D01*
X415627D01*
Y129567D01*
X415656D01*
Y129538D01*
X415713D01*
Y129510D01*
X415770D01*
Y129481D01*
X415827D01*
Y129452D01*
X415914D01*
Y129424D01*
X415999D01*
Y129395D01*
X416200D01*
Y129367D01*
X416573D01*
Y129395D01*
X416831D01*
Y129424D01*
X416917D01*
Y129452D01*
X417002D01*
Y129481D01*
X417089D01*
Y129510D01*
X417146D01*
Y129538D01*
X417203D01*
Y129567D01*
X417232D01*
Y129596D01*
X417260D01*
Y129625D01*
X417318D01*
Y129653D01*
X417346D01*
Y129682D01*
X417375D01*
Y129710D01*
X417404D01*
Y129739D01*
X417432D01*
Y129768D01*
X417461D01*
Y129825D01*
X417490D01*
Y129854D01*
X417518D01*
Y129911D01*
X417547D01*
Y129968D01*
X417576D01*
Y130026D01*
X417604D01*
Y130083D01*
X417633D01*
Y130169D01*
X417662D01*
Y130255D01*
X417690D01*
Y130398D01*
X417719D01*
Y130484D01*
X417748D01*
Y130513D01*
X418837D01*
Y130484D01*
X418865D01*
Y130456D01*
X418837D01*
Y130284D01*
X418808D01*
Y130198D01*
X418779D01*
Y130083D01*
X418751D01*
Y129997D01*
X418722D01*
Y129911D01*
X418693D01*
Y129854D01*
X418665D01*
Y129796D01*
X418636D01*
Y129739D01*
X418607D01*
Y129682D01*
X418579D01*
Y129625D01*
X418550D01*
Y129596D01*
X418521D01*
Y129538D01*
X418493D01*
Y129510D01*
X418464D01*
Y129452D01*
X418435D01*
Y129424D01*
X418407D01*
Y129395D01*
X418378D01*
Y129338D01*
X418321D01*
Y129309D01*
X418292D01*
Y129252D01*
X418235D01*
Y129195D01*
X418206D01*
Y129166D01*
X418149D01*
Y129137D01*
X418120D01*
Y129109D01*
X418092D01*
Y129080D01*
X418034D01*
Y129051D01*
X418005D01*
Y129023D01*
X417977D01*
Y128994D01*
X417920D01*
Y128965D01*
X417891D01*
Y128937D01*
X417834D01*
Y128908D01*
X417776D01*
Y128879D01*
X417719D01*
Y128851D01*
X417662D01*
Y128822D01*
X417604D01*
Y128793D01*
X417518D01*
Y128765D01*
X417432D01*
Y128736D01*
X417346D01*
Y128707D01*
X417232D01*
Y128679D01*
X417117D01*
Y128650D01*
X416974D01*
Y128622D01*
X416745D01*
Y128593D01*
X415971D01*
Y128622D01*
X415770D01*
Y128650D01*
X415627D01*
Y128679D01*
X415541D01*
Y128707D01*
X415426D01*
Y128736D01*
X415340D01*
Y128765D01*
X415283D01*
Y128793D01*
X415197D01*
Y128822D01*
X415140D01*
Y128851D01*
X415083D01*
Y128879D01*
X415025D01*
Y128908D01*
X414996D01*
Y128937D01*
X414939D01*
Y128965D01*
X414911D01*
Y128994D01*
X414853D01*
Y129023D01*
X414796D01*
Y129051D01*
X414767D01*
Y129080D01*
X414739D01*
Y129109D01*
X414710D01*
Y129137D01*
X414681D01*
Y129166D01*
X414653D01*
Y129195D01*
X414624D01*
Y129223D01*
X414595D01*
Y129252D01*
X414567D01*
Y129281D01*
X414538D01*
Y129309D01*
X414509D01*
Y129338D01*
X414481D01*
Y129367D01*
X414452D01*
Y129395D01*
X414423D01*
Y129452D01*
X414395D01*
Y129481D01*
X414366D01*
Y129510D01*
X414337D01*
Y129567D01*
X414309D01*
Y129596D01*
X414280D01*
Y129653D01*
X414251D01*
Y129710D01*
X414223D01*
Y129739D01*
X414194D01*
Y129825D01*
X414165D01*
Y129882D01*
X414137D01*
Y129911D01*
X414108D01*
Y129997D01*
X414080D01*
Y130083D01*
X414051D01*
Y130140D01*
X414022D01*
Y130255D01*
X413993D01*
Y130341D01*
X413965D01*
Y130456D01*
X413936D01*
Y130599D01*
X413908D01*
Y130713D01*
X413879D01*
Y131000D01*
X413850D01*
Y132003D01*
X413879D01*
Y132261D01*
X413908D01*
Y132404D01*
X413936D01*
Y132519D01*
X413965D01*
Y132662D01*
X413993D01*
Y132719D01*
X414022D01*
Y132834D01*
X414051D01*
Y132920D01*
X414080D01*
Y132977D01*
X414108D01*
Y133063D01*
X414137D01*
Y133092D01*
X414165D01*
Y133178D01*
X414194D01*
Y133235D01*
X414223D01*
Y133264D01*
X414251D01*
Y133350D01*
X414280D01*
Y133378D01*
X414309D01*
Y133436D01*
X414337D01*
Y133464D01*
X414366D01*
Y133522D01*
X414395D01*
Y133551D01*
X414423D01*
Y133608D01*
X414452D01*
Y133637D01*
X414481D01*
Y133665D01*
X414509D01*
Y133694D01*
X414538D01*
Y133722D01*
X414567D01*
Y133780D01*
X414595D01*
Y133808D01*
X414624D01*
Y133837D01*
X414653D01*
Y133866D01*
X414681D01*
Y133894D01*
X414710D01*
Y133923D01*
X414739D01*
Y133952D01*
X414796D01*
Y133980D01*
X414824D01*
Y134009D01*
X414853D01*
Y134038D01*
X414882D01*
Y134066D01*
X414939D01*
Y134095D01*
X414968D01*
Y134124D01*
X415025D01*
Y134152D01*
X415054D01*
Y134181D01*
X415111D01*
Y134210D01*
X415168D01*
Y134238D01*
X415197D01*
Y134267D01*
X415254D01*
Y134296D01*
X415340D01*
Y134324D01*
X415398D01*
Y134353D01*
X415484D01*
Y134382D01*
X415570D01*
Y134410D01*
X415627D01*
Y134439D01*
X415770D01*
Y134467D01*
X415885D01*
Y134496D01*
X416086D01*
Y134525D01*
X416802D01*
Y134496D01*
D02*
G37*
G36*
X389192Y139408D02*
X385073D01*
Y139360D01*
X385025D01*
Y128583D01*
X381289D01*
Y133995D01*
Y134043D01*
Y139360D01*
X381241D01*
Y139408D01*
X377122D01*
Y139456D01*
X377074D01*
Y139552D01*
X377122D01*
Y141899D01*
X377074D01*
Y141946D01*
X377122D01*
Y142042D01*
X389192D01*
Y139408D01*
D02*
G37*
G36*
X223253Y116250D02*
Y105000D01*
X211253D01*
X200253Y116000D01*
Y128000D01*
X210253D01*
X223253Y116250D01*
D02*
G37*
G36*
X180253Y116000D02*
X169253Y105000D01*
X157253D01*
Y116250D01*
X170253Y128000D01*
X180253D01*
Y116000D01*
D02*
G37*
G36*
X223253Y73750D02*
X210253Y62000D01*
X200253D01*
Y74000D01*
X211253Y85000D01*
X223253D01*
Y73750D01*
D02*
G37*
G36*
X180253Y74000D02*
Y62000D01*
X169003D01*
X157253Y75000D01*
Y85000D01*
X169253D01*
X180253Y74000D01*
D02*
G37*
%LPC*%
G36*
X295032Y477911D02*
X292224D01*
Y477882D01*
X292195D01*
Y477854D01*
X292224D01*
Y477481D01*
X292252D01*
Y477338D01*
X292281D01*
Y477223D01*
X292310D01*
Y477137D01*
X292338D01*
Y477051D01*
X292367D01*
Y476994D01*
X292396D01*
Y476908D01*
X292424D01*
Y476879D01*
X292453D01*
Y476822D01*
X292482D01*
Y476793D01*
X292510D01*
Y476736D01*
X292539D01*
Y476707D01*
X292568D01*
Y476679D01*
X292596D01*
Y476621D01*
X292654D01*
Y476593D01*
X292682D01*
Y476564D01*
X292711D01*
Y476535D01*
X292740D01*
Y476507D01*
X292768D01*
Y476478D01*
X292826D01*
Y476450D01*
X292854D01*
Y476421D01*
X292911D01*
Y476392D01*
X292997D01*
Y476363D01*
X293055D01*
Y476335D01*
X293141D01*
Y476306D01*
X293255D01*
Y476278D01*
X293399D01*
Y476249D01*
X293829D01*
Y476278D01*
X293943D01*
Y476306D01*
X294058D01*
Y476335D01*
X294144D01*
Y476363D01*
X294201D01*
Y476392D01*
X294258D01*
Y476421D01*
X294316D01*
Y476450D01*
X294344D01*
Y476478D01*
X294402D01*
Y476507D01*
X294430D01*
Y476535D01*
X294459D01*
Y476564D01*
X294488D01*
Y476593D01*
X294516D01*
Y476621D01*
X294545D01*
Y476650D01*
X294574D01*
Y476679D01*
X294602D01*
Y476707D01*
X294631D01*
Y476736D01*
X294660D01*
Y476765D01*
X294688D01*
Y476793D01*
X294717D01*
Y476851D01*
X294746D01*
Y476879D01*
X294774D01*
Y476937D01*
X294803D01*
Y476994D01*
X294832D01*
Y477051D01*
X294860D01*
Y477109D01*
X294889D01*
Y477166D01*
X294918D01*
Y477252D01*
X294946D01*
Y477309D01*
X294975D01*
Y477453D01*
X295004D01*
Y477567D01*
X295032D01*
Y477796D01*
X295061D01*
Y477882D01*
X295032D01*
Y477911D01*
D02*
G37*
G36*
X302626Y480290D02*
X300821D01*
Y480261D01*
X300592D01*
Y480232D01*
X300391D01*
Y480204D01*
X300248D01*
Y480175D01*
X300162D01*
Y480146D01*
X300047D01*
Y480118D01*
X299990D01*
Y480089D01*
X299904D01*
Y480060D01*
X299818D01*
Y480032D01*
X299789D01*
Y480003D01*
X299703D01*
Y479974D01*
X299675D01*
Y479946D01*
X299617D01*
Y479917D01*
X299560D01*
Y479888D01*
X299531D01*
Y479860D01*
X299474D01*
Y479831D01*
X299445D01*
Y479802D01*
X299417D01*
Y479774D01*
X299359D01*
Y479745D01*
X299331D01*
Y479716D01*
X299302D01*
Y479688D01*
X299273D01*
Y479659D01*
X299245D01*
Y479630D01*
X299216D01*
Y479602D01*
X299188D01*
Y479573D01*
X299159D01*
Y479544D01*
X299130D01*
Y479516D01*
X299102D01*
Y479487D01*
X299073D01*
Y479459D01*
X299044D01*
Y479430D01*
X299016D01*
Y479372D01*
X298987D01*
Y479344D01*
X298958D01*
Y479315D01*
X298930D01*
Y479258D01*
X298901D01*
Y479229D01*
X298872D01*
Y479172D01*
X298844D01*
Y479143D01*
X298815D01*
Y479086D01*
X298786D01*
Y479029D01*
X298758D01*
Y479000D01*
X298729D01*
Y478914D01*
X298700D01*
Y478857D01*
X298672D01*
Y478799D01*
X298643D01*
Y478713D01*
X298614D01*
Y478656D01*
X298586D01*
Y478570D01*
X298557D01*
Y478484D01*
X298528D01*
Y478398D01*
X298500D01*
Y478284D01*
X298471D01*
Y478140D01*
X298442D01*
Y477997D01*
X298414D01*
Y477768D01*
X298385D01*
Y477309D01*
X298356D01*
Y477109D01*
X298385D01*
Y476679D01*
X298414D01*
Y476421D01*
X298442D01*
Y476306D01*
X298471D01*
Y476163D01*
X298500D01*
Y476048D01*
X298528D01*
Y475962D01*
X298557D01*
Y475848D01*
X298586D01*
Y475790D01*
X298614D01*
Y475704D01*
X298643D01*
Y475618D01*
X298672D01*
Y475590D01*
X298700D01*
Y475504D01*
X298729D01*
Y475447D01*
X298758D01*
Y475418D01*
X298786D01*
Y475332D01*
X298815D01*
Y475303D01*
X298844D01*
Y475246D01*
X298872D01*
Y475189D01*
X298901D01*
Y475160D01*
X298930D01*
Y475131D01*
X298958D01*
Y475074D01*
X298987D01*
Y475045D01*
X299016D01*
Y475017D01*
X299044D01*
Y474988D01*
X299073D01*
Y474931D01*
X299102D01*
Y474902D01*
X299130D01*
Y474873D01*
X299159D01*
Y474845D01*
X299188D01*
Y474816D01*
X299216D01*
Y474787D01*
X299245D01*
Y474759D01*
X299273D01*
Y474730D01*
X299331D01*
Y474701D01*
X299359D01*
Y474673D01*
X299388D01*
Y474644D01*
X299417D01*
Y474615D01*
X299474D01*
Y474587D01*
X299503D01*
Y474558D01*
X299560D01*
Y474529D01*
X299589D01*
Y474501D01*
X299646D01*
Y474472D01*
X299703D01*
Y474444D01*
X299761D01*
Y474415D01*
X299818D01*
Y474386D01*
X299875D01*
Y474357D01*
X299932D01*
Y474329D01*
X300019D01*
Y474300D01*
X300105D01*
Y474272D01*
X300219D01*
Y474243D01*
X300334D01*
Y474214D01*
X300448D01*
Y474186D01*
X300792D01*
Y474157D01*
X302626D01*
Y474186D01*
X302655D01*
Y480232D01*
X302626D01*
Y480290D01*
D02*
G37*
G36*
X409208Y405843D02*
X407374D01*
Y405814D01*
X407345D01*
Y399768D01*
X407374D01*
Y399710D01*
X409179D01*
Y399739D01*
X409408D01*
Y399768D01*
X409609D01*
Y399796D01*
X409752D01*
Y399825D01*
X409838D01*
Y399854D01*
X409953D01*
Y399882D01*
X410010D01*
Y399911D01*
X410096D01*
Y399940D01*
X410182D01*
Y399968D01*
X410211D01*
Y399997D01*
X410297D01*
Y400026D01*
X410325D01*
Y400054D01*
X410383D01*
Y400083D01*
X410440D01*
Y400112D01*
X410469D01*
Y400140D01*
X410526D01*
Y400169D01*
X410555D01*
Y400198D01*
X410583D01*
Y400226D01*
X410641D01*
Y400255D01*
X410669D01*
Y400284D01*
X410698D01*
Y400312D01*
X410727D01*
Y400341D01*
X410755D01*
Y400370D01*
X410784D01*
Y400398D01*
X410812D01*
Y400427D01*
X410841D01*
Y400456D01*
X410870D01*
Y400484D01*
X410899D01*
Y400513D01*
X410927D01*
Y400541D01*
X410956D01*
Y400570D01*
X410984D01*
Y400628D01*
X411013D01*
Y400656D01*
X411042D01*
Y400685D01*
X411071D01*
Y400742D01*
X411099D01*
Y400771D01*
X411128D01*
Y400828D01*
X411156D01*
Y400857D01*
X411185D01*
Y400914D01*
X411214D01*
Y400971D01*
X411242D01*
Y401000D01*
X411271D01*
Y401086D01*
X411300D01*
Y401143D01*
X411328D01*
Y401201D01*
X411357D01*
Y401287D01*
X411386D01*
Y401344D01*
X411414D01*
Y401430D01*
X411443D01*
Y401516D01*
X411472D01*
Y401602D01*
X411500D01*
Y401716D01*
X411529D01*
Y401860D01*
X411558D01*
Y402003D01*
X411586D01*
Y402232D01*
X411615D01*
Y402691D01*
X411644D01*
Y402891D01*
X411615D01*
Y403321D01*
X411586D01*
Y403579D01*
X411558D01*
Y403694D01*
X411529D01*
Y403837D01*
X411500D01*
Y403952D01*
X411472D01*
Y404038D01*
X411443D01*
Y404152D01*
X411414D01*
Y404210D01*
X411386D01*
Y404296D01*
X411357D01*
Y404382D01*
X411328D01*
Y404410D01*
X411300D01*
Y404496D01*
X411271D01*
Y404553D01*
X411242D01*
Y404582D01*
X411214D01*
Y404668D01*
X411185D01*
Y404697D01*
X411156D01*
Y404754D01*
X411128D01*
Y404811D01*
X411099D01*
Y404840D01*
X411071D01*
Y404869D01*
X411042D01*
Y404926D01*
X411013D01*
Y404955D01*
X410984D01*
Y404983D01*
X410956D01*
Y405012D01*
X410927D01*
Y405069D01*
X410899D01*
Y405098D01*
X410870D01*
Y405127D01*
X410841D01*
Y405155D01*
X410812D01*
Y405184D01*
X410784D01*
Y405213D01*
X410755D01*
Y405241D01*
X410727D01*
Y405270D01*
X410669D01*
Y405299D01*
X410641D01*
Y405327D01*
X410612D01*
Y405356D01*
X410583D01*
Y405385D01*
X410526D01*
Y405413D01*
X410497D01*
Y405442D01*
X410440D01*
Y405471D01*
X410411D01*
Y405499D01*
X410354D01*
Y405528D01*
X410297D01*
Y405556D01*
X410239D01*
Y405585D01*
X410182D01*
Y405614D01*
X410125D01*
Y405643D01*
X410067D01*
Y405671D01*
X409981D01*
Y405700D01*
X409896D01*
Y405728D01*
X409781D01*
Y405757D01*
X409666D01*
Y405786D01*
X409552D01*
Y405814D01*
X409208D01*
Y405843D01*
D02*
G37*
G36*
X416601Y403751D02*
X416171D01*
Y403722D01*
X416057D01*
Y403694D01*
X415942D01*
Y403665D01*
X415856D01*
Y403637D01*
X415799D01*
Y403608D01*
X415742D01*
Y403579D01*
X415684D01*
Y403550D01*
X415656D01*
Y403522D01*
X415598D01*
Y403493D01*
X415570D01*
Y403465D01*
X415541D01*
Y403436D01*
X415512D01*
Y403407D01*
X415484D01*
Y403378D01*
X415455D01*
Y403350D01*
X415426D01*
Y403321D01*
X415398D01*
Y403293D01*
X415369D01*
Y403264D01*
X415340D01*
Y403235D01*
X415312D01*
Y403207D01*
X415283D01*
Y403149D01*
X415254D01*
Y403121D01*
X415226D01*
Y403063D01*
X415197D01*
Y403006D01*
X415168D01*
Y402949D01*
X415140D01*
Y402891D01*
X415111D01*
Y402834D01*
X415083D01*
Y402748D01*
X415054D01*
Y402691D01*
X415025D01*
Y402547D01*
X414996D01*
Y402433D01*
X414968D01*
Y402204D01*
X414939D01*
Y402118D01*
X414968D01*
Y402089D01*
X417776D01*
Y402118D01*
X417805D01*
Y402146D01*
X417776D01*
Y402519D01*
X417748D01*
Y402662D01*
X417719D01*
Y402777D01*
X417690D01*
Y402863D01*
X417662D01*
Y402949D01*
X417633D01*
Y403006D01*
X417604D01*
Y403092D01*
X417576D01*
Y403121D01*
X417547D01*
Y403178D01*
X417518D01*
Y403207D01*
X417490D01*
Y403264D01*
X417461D01*
Y403293D01*
X417432D01*
Y403321D01*
X417404D01*
Y403378D01*
X417346D01*
Y403407D01*
X417318D01*
Y403436D01*
X417289D01*
Y403465D01*
X417260D01*
Y403493D01*
X417232D01*
Y403522D01*
X417174D01*
Y403550D01*
X417146D01*
Y403579D01*
X417089D01*
Y403608D01*
X417002D01*
Y403637D01*
X416945D01*
Y403665D01*
X416859D01*
Y403694D01*
X416745D01*
Y403722D01*
X416601D01*
Y403751D01*
D02*
G37*
G36*
X295032Y207911D02*
X292224D01*
Y207882D01*
X292195D01*
Y207854D01*
X292224D01*
Y207481D01*
X292252D01*
Y207338D01*
X292281D01*
Y207223D01*
X292310D01*
Y207137D01*
X292338D01*
Y207051D01*
X292367D01*
Y206994D01*
X292396D01*
Y206908D01*
X292424D01*
Y206879D01*
X292453D01*
Y206822D01*
X292482D01*
Y206793D01*
X292510D01*
Y206736D01*
X292539D01*
Y206707D01*
X292568D01*
Y206679D01*
X292596D01*
Y206621D01*
X292654D01*
Y206593D01*
X292682D01*
Y206564D01*
X292711D01*
Y206535D01*
X292740D01*
Y206507D01*
X292768D01*
Y206478D01*
X292826D01*
Y206450D01*
X292854D01*
Y206421D01*
X292911D01*
Y206392D01*
X292997D01*
Y206364D01*
X293055D01*
Y206335D01*
X293141D01*
Y206306D01*
X293255D01*
Y206278D01*
X293399D01*
Y206249D01*
X293829D01*
Y206278D01*
X293943D01*
Y206306D01*
X294058D01*
Y206335D01*
X294144D01*
Y206364D01*
X294201D01*
Y206392D01*
X294258D01*
Y206421D01*
X294316D01*
Y206450D01*
X294344D01*
Y206478D01*
X294402D01*
Y206507D01*
X294430D01*
Y206535D01*
X294459D01*
Y206564D01*
X294488D01*
Y206593D01*
X294516D01*
Y206621D01*
X294545D01*
Y206650D01*
X294574D01*
Y206679D01*
X294602D01*
Y206707D01*
X294631D01*
Y206736D01*
X294660D01*
Y206765D01*
X294688D01*
Y206793D01*
X294717D01*
Y206851D01*
X294746D01*
Y206879D01*
X294774D01*
Y206937D01*
X294803D01*
Y206994D01*
X294832D01*
Y207051D01*
X294860D01*
Y207109D01*
X294889D01*
Y207166D01*
X294918D01*
Y207252D01*
X294946D01*
Y207309D01*
X294975D01*
Y207453D01*
X295004D01*
Y207567D01*
X295032D01*
Y207796D01*
X295061D01*
Y207882D01*
X295032D01*
Y207911D01*
D02*
G37*
G36*
X302626Y210290D02*
X300821D01*
Y210261D01*
X300592D01*
Y210232D01*
X300391D01*
Y210204D01*
X300248D01*
Y210175D01*
X300162D01*
Y210146D01*
X300047D01*
Y210118D01*
X299990D01*
Y210089D01*
X299904D01*
Y210060D01*
X299818D01*
Y210032D01*
X299789D01*
Y210003D01*
X299703D01*
Y209974D01*
X299675D01*
Y209946D01*
X299617D01*
Y209917D01*
X299560D01*
Y209888D01*
X299531D01*
Y209860D01*
X299474D01*
Y209831D01*
X299445D01*
Y209802D01*
X299417D01*
Y209774D01*
X299359D01*
Y209745D01*
X299331D01*
Y209716D01*
X299302D01*
Y209688D01*
X299273D01*
Y209659D01*
X299245D01*
Y209630D01*
X299216D01*
Y209602D01*
X299188D01*
Y209573D01*
X299159D01*
Y209545D01*
X299130D01*
Y209516D01*
X299102D01*
Y209487D01*
X299073D01*
Y209459D01*
X299044D01*
Y209430D01*
X299016D01*
Y209373D01*
X298987D01*
Y209344D01*
X298958D01*
Y209315D01*
X298930D01*
Y209258D01*
X298901D01*
Y209229D01*
X298872D01*
Y209172D01*
X298844D01*
Y209143D01*
X298815D01*
Y209086D01*
X298786D01*
Y209029D01*
X298758D01*
Y209000D01*
X298729D01*
Y208914D01*
X298700D01*
Y208857D01*
X298672D01*
Y208799D01*
X298643D01*
Y208713D01*
X298614D01*
Y208656D01*
X298586D01*
Y208570D01*
X298557D01*
Y208484D01*
X298528D01*
Y208398D01*
X298500D01*
Y208284D01*
X298471D01*
Y208140D01*
X298442D01*
Y207997D01*
X298414D01*
Y207768D01*
X298385D01*
Y207309D01*
X298356D01*
Y207109D01*
X298385D01*
Y206679D01*
X298414D01*
Y206421D01*
X298442D01*
Y206306D01*
X298471D01*
Y206163D01*
X298500D01*
Y206048D01*
X298528D01*
Y205962D01*
X298557D01*
Y205848D01*
X298586D01*
Y205790D01*
X298614D01*
Y205704D01*
X298643D01*
Y205618D01*
X298672D01*
Y205590D01*
X298700D01*
Y205504D01*
X298729D01*
Y205446D01*
X298758D01*
Y205418D01*
X298786D01*
Y205332D01*
X298815D01*
Y205303D01*
X298844D01*
Y205246D01*
X298872D01*
Y205189D01*
X298901D01*
Y205160D01*
X298930D01*
Y205131D01*
X298958D01*
Y205074D01*
X298987D01*
Y205045D01*
X299016D01*
Y205017D01*
X299044D01*
Y204988D01*
X299073D01*
Y204931D01*
X299102D01*
Y204902D01*
X299130D01*
Y204873D01*
X299159D01*
Y204845D01*
X299188D01*
Y204816D01*
X299216D01*
Y204787D01*
X299245D01*
Y204759D01*
X299273D01*
Y204730D01*
X299331D01*
Y204701D01*
X299359D01*
Y204673D01*
X299388D01*
Y204644D01*
X299417D01*
Y204615D01*
X299474D01*
Y204587D01*
X299503D01*
Y204558D01*
X299560D01*
Y204529D01*
X299589D01*
Y204501D01*
X299646D01*
Y204472D01*
X299703D01*
Y204443D01*
X299761D01*
Y204415D01*
X299818D01*
Y204386D01*
X299875D01*
Y204357D01*
X299932D01*
Y204329D01*
X300019D01*
Y204300D01*
X300105D01*
Y204272D01*
X300219D01*
Y204243D01*
X300334D01*
Y204214D01*
X300448D01*
Y204186D01*
X300792D01*
Y204157D01*
X302626D01*
Y204186D01*
X302655D01*
Y210232D01*
X302626D01*
Y210290D01*
D02*
G37*
G36*
X409208Y135843D02*
X407374D01*
Y135814D01*
X407345D01*
Y129768D01*
X407374D01*
Y129710D01*
X409179D01*
Y129739D01*
X409408D01*
Y129768D01*
X409609D01*
Y129796D01*
X409752D01*
Y129825D01*
X409838D01*
Y129854D01*
X409953D01*
Y129882D01*
X410010D01*
Y129911D01*
X410096D01*
Y129940D01*
X410182D01*
Y129968D01*
X410211D01*
Y129997D01*
X410297D01*
Y130026D01*
X410325D01*
Y130054D01*
X410383D01*
Y130083D01*
X410440D01*
Y130112D01*
X410469D01*
Y130140D01*
X410526D01*
Y130169D01*
X410555D01*
Y130198D01*
X410583D01*
Y130226D01*
X410641D01*
Y130255D01*
X410669D01*
Y130284D01*
X410698D01*
Y130312D01*
X410727D01*
Y130341D01*
X410755D01*
Y130370D01*
X410784D01*
Y130398D01*
X410812D01*
Y130427D01*
X410841D01*
Y130456D01*
X410870D01*
Y130484D01*
X410899D01*
Y130513D01*
X410927D01*
Y130541D01*
X410956D01*
Y130570D01*
X410984D01*
Y130627D01*
X411013D01*
Y130656D01*
X411042D01*
Y130685D01*
X411071D01*
Y130742D01*
X411099D01*
Y130771D01*
X411128D01*
Y130828D01*
X411156D01*
Y130857D01*
X411185D01*
Y130914D01*
X411214D01*
Y130971D01*
X411242D01*
Y131000D01*
X411271D01*
Y131086D01*
X411300D01*
Y131143D01*
X411328D01*
Y131201D01*
X411357D01*
Y131287D01*
X411386D01*
Y131344D01*
X411414D01*
Y131430D01*
X411443D01*
Y131516D01*
X411472D01*
Y131602D01*
X411500D01*
Y131716D01*
X411529D01*
Y131860D01*
X411558D01*
Y132003D01*
X411586D01*
Y132232D01*
X411615D01*
Y132691D01*
X411644D01*
Y132891D01*
X411615D01*
Y133321D01*
X411586D01*
Y133579D01*
X411558D01*
Y133694D01*
X411529D01*
Y133837D01*
X411500D01*
Y133952D01*
X411472D01*
Y134038D01*
X411443D01*
Y134152D01*
X411414D01*
Y134210D01*
X411386D01*
Y134296D01*
X411357D01*
Y134382D01*
X411328D01*
Y134410D01*
X411300D01*
Y134496D01*
X411271D01*
Y134553D01*
X411242D01*
Y134582D01*
X411214D01*
Y134668D01*
X411185D01*
Y134697D01*
X411156D01*
Y134754D01*
X411128D01*
Y134811D01*
X411099D01*
Y134840D01*
X411071D01*
Y134869D01*
X411042D01*
Y134926D01*
X411013D01*
Y134955D01*
X410984D01*
Y134983D01*
X410956D01*
Y135012D01*
X410927D01*
Y135069D01*
X410899D01*
Y135098D01*
X410870D01*
Y135127D01*
X410841D01*
Y135155D01*
X410812D01*
Y135184D01*
X410784D01*
Y135213D01*
X410755D01*
Y135241D01*
X410727D01*
Y135270D01*
X410669D01*
Y135299D01*
X410641D01*
Y135327D01*
X410612D01*
Y135356D01*
X410583D01*
Y135385D01*
X410526D01*
Y135413D01*
X410497D01*
Y135442D01*
X410440D01*
Y135471D01*
X410411D01*
Y135499D01*
X410354D01*
Y135528D01*
X410297D01*
Y135556D01*
X410239D01*
Y135585D01*
X410182D01*
Y135614D01*
X410125D01*
Y135642D01*
X410067D01*
Y135671D01*
X409981D01*
Y135700D01*
X409896D01*
Y135729D01*
X409781D01*
Y135757D01*
X409666D01*
Y135786D01*
X409552D01*
Y135814D01*
X409208D01*
Y135843D01*
D02*
G37*
G36*
X416601Y133751D02*
X416171D01*
Y133722D01*
X416057D01*
Y133694D01*
X415942D01*
Y133665D01*
X415856D01*
Y133637D01*
X415799D01*
Y133608D01*
X415742D01*
Y133579D01*
X415684D01*
Y133551D01*
X415656D01*
Y133522D01*
X415598D01*
Y133493D01*
X415570D01*
Y133464D01*
X415541D01*
Y133436D01*
X415512D01*
Y133407D01*
X415484D01*
Y133378D01*
X415455D01*
Y133350D01*
X415426D01*
Y133321D01*
X415398D01*
Y133293D01*
X415369D01*
Y133264D01*
X415340D01*
Y133235D01*
X415312D01*
Y133207D01*
X415283D01*
Y133149D01*
X415254D01*
Y133121D01*
X415226D01*
Y133063D01*
X415197D01*
Y133006D01*
X415168D01*
Y132949D01*
X415140D01*
Y132891D01*
X415111D01*
Y132834D01*
X415083D01*
Y132748D01*
X415054D01*
Y132691D01*
X415025D01*
Y132548D01*
X414996D01*
Y132433D01*
X414968D01*
Y132204D01*
X414939D01*
Y132118D01*
X414968D01*
Y132089D01*
X417776D01*
Y132118D01*
X417805D01*
Y132146D01*
X417776D01*
Y132519D01*
X417748D01*
Y132662D01*
X417719D01*
Y132777D01*
X417690D01*
Y132863D01*
X417662D01*
Y132949D01*
X417633D01*
Y133006D01*
X417604D01*
Y133092D01*
X417576D01*
Y133121D01*
X417547D01*
Y133178D01*
X417518D01*
Y133207D01*
X417490D01*
Y133264D01*
X417461D01*
Y133293D01*
X417432D01*
Y133321D01*
X417404D01*
Y133378D01*
X417346D01*
Y133407D01*
X417318D01*
Y133436D01*
X417289D01*
Y133464D01*
X417260D01*
Y133493D01*
X417232D01*
Y133522D01*
X417174D01*
Y133551D01*
X417146D01*
Y133579D01*
X417089D01*
Y133608D01*
X417002D01*
Y133637D01*
X416945D01*
Y133665D01*
X416859D01*
Y133694D01*
X416745D01*
Y133722D01*
X416601D01*
Y133751D01*
D02*
G37*
%LPD*%
D24*
X498434Y536231D02*
D03*
Y493768D02*
D03*
X541059D02*
D03*
X540978Y536313D02*
D03*
X211566Y343769D02*
D03*
Y386232D02*
D03*
X168941D02*
D03*
X169022Y343687D02*
D03*
X211566Y73769D02*
D03*
Y116232D02*
D03*
X168941D02*
D03*
X169022Y73687D02*
D03*
X498434Y266231D02*
D03*
Y223768D02*
D03*
X541059D02*
D03*
X540978Y266313D02*
D03*
D29*
X307872Y530750D02*
D03*
X312872Y509125D02*
D03*
X307872D02*
D03*
X312872Y530750D02*
D03*
X302872Y530875D02*
D03*
X297872D02*
D03*
Y509125D02*
D03*
X302872D02*
D03*
X402128Y349250D02*
D03*
X397128Y370875D02*
D03*
X402128D02*
D03*
X397128Y349250D02*
D03*
X407128Y349125D02*
D03*
X412128D02*
D03*
Y370875D02*
D03*
X407128D02*
D03*
X402128Y79250D02*
D03*
X397128Y100875D02*
D03*
X402128D02*
D03*
X397128Y79250D02*
D03*
X407128Y79125D02*
D03*
X412128D02*
D03*
Y100875D02*
D03*
X407128D02*
D03*
X307872Y260750D02*
D03*
X312872Y239125D02*
D03*
X307872D02*
D03*
X312872Y260750D02*
D03*
X302872Y260875D02*
D03*
X297872D02*
D03*
Y239125D02*
D03*
X302872D02*
D03*
D30*
X294497Y522500D02*
D03*
Y517500D02*
D03*
X415503Y357500D02*
D03*
Y362500D02*
D03*
Y87500D02*
D03*
Y92500D02*
D03*
X294497Y252500D02*
D03*
Y247500D02*
D03*
D32*
X312997Y522500D02*
D03*
Y517500D02*
D03*
X297747D02*
D03*
Y522500D02*
D03*
X397003Y357500D02*
D03*
Y362500D02*
D03*
X412253D02*
D03*
Y357500D02*
D03*
X397003Y87500D02*
D03*
Y92500D02*
D03*
X412253D02*
D03*
Y87500D02*
D03*
X312997Y252500D02*
D03*
Y247500D02*
D03*
X297747D02*
D03*
Y252500D02*
D03*
D33*
X302872Y512375D02*
D03*
X297872D02*
D03*
Y527625D02*
D03*
X302872D02*
D03*
X312872D02*
D03*
Y512375D02*
D03*
X307872D02*
D03*
Y527625D02*
D03*
X407128Y367625D02*
D03*
X412128D02*
D03*
Y352375D02*
D03*
X407128D02*
D03*
X397128D02*
D03*
Y367625D02*
D03*
X402128D02*
D03*
Y352375D02*
D03*
X407128Y97625D02*
D03*
X412128D02*
D03*
Y82375D02*
D03*
X407128D02*
D03*
X397128D02*
D03*
Y97625D02*
D03*
X402128D02*
D03*
Y82375D02*
D03*
X302872Y242375D02*
D03*
X297872D02*
D03*
Y257625D02*
D03*
X302872D02*
D03*
X312872D02*
D03*
Y242375D02*
D03*
X307872D02*
D03*
Y257625D02*
D03*
D42*
X663089Y365750D02*
D03*
Y95750D02*
D03*
D43*
X632510Y517000D02*
D03*
X77510Y363000D02*
D03*
Y93000D02*
D03*
X632510Y247000D02*
D03*
D44*
X47082Y515352D02*
D03*
Y245352D02*
D03*
D45*
X309251Y397630D02*
D03*
Y127630D02*
D03*
D46*
X400374Y482368D02*
D03*
Y212368D02*
D03*
D47*
X221797Y523000D02*
G03*
X221797Y523000I1450J0D01*
G01*
X217797D02*
G03*
X217797Y523000I1450J0D01*
G01*
X213797D02*
G03*
X213797Y523000I1450J0D01*
G01*
X209797D02*
G03*
X209797Y523000I1450J0D01*
G01*
X205797D02*
G03*
X205797Y523000I1450J0D01*
G01*
X221797Y519000D02*
G03*
X221797Y519000I1450J0D01*
G01*
X217797D02*
G03*
X217797Y519000I1450J0D01*
G01*
X213797D02*
G03*
X213797Y519000I1450J0D01*
G01*
X209797D02*
G03*
X209797Y519000I1450J0D01*
G01*
X205797D02*
G03*
X205797Y519000I1450J0D01*
G01*
X221797Y515000D02*
G03*
X221797Y515000I1450J0D01*
G01*
X217797D02*
G03*
X217797Y515000I1450J0D01*
G01*
X213797D02*
G03*
X213797Y515000I1450J0D01*
G01*
X209797D02*
G03*
X209797Y515000I1450J0D01*
G01*
X205797D02*
G03*
X205797Y515000I1450J0D01*
G01*
X221797Y511000D02*
G03*
X221797Y511000I1450J0D01*
G01*
X217797D02*
G03*
X217797Y511000I1450J0D01*
G01*
X213797D02*
G03*
X213797Y511000I1450J0D01*
G01*
X209797D02*
G03*
X209797Y511000I1450J0D01*
G01*
X205797D02*
G03*
X205797Y511000I1450J0D01*
G01*
X221797Y507000D02*
G03*
X221797Y507000I1450J0D01*
G01*
X217797D02*
G03*
X217797Y507000I1450J0D01*
G01*
X213797D02*
G03*
X213797Y507000I1450J0D01*
G01*
X209797D02*
G03*
X209797Y507000I1450J0D01*
G01*
X205797D02*
G03*
X205797Y507000I1450J0D01*
G01*
X488203Y357000D02*
G03*
X488203Y357000I-1450J0D01*
G01*
X492203D02*
G03*
X492203Y357000I-1450J0D01*
G01*
X496203D02*
G03*
X496203Y357000I-1450J0D01*
G01*
X500203D02*
G03*
X500203Y357000I-1450J0D01*
G01*
X504203D02*
G03*
X504203Y357000I-1450J0D01*
G01*
X488203Y361000D02*
G03*
X488203Y361000I-1450J0D01*
G01*
X492203D02*
G03*
X492203Y361000I-1450J0D01*
G01*
X496203D02*
G03*
X496203Y361000I-1450J0D01*
G01*
X500203D02*
G03*
X500203Y361000I-1450J0D01*
G01*
X504203D02*
G03*
X504203Y361000I-1450J0D01*
G01*
X488203Y365000D02*
G03*
X488203Y365000I-1450J0D01*
G01*
X492203D02*
G03*
X492203Y365000I-1450J0D01*
G01*
X496203D02*
G03*
X496203Y365000I-1450J0D01*
G01*
X500203D02*
G03*
X500203Y365000I-1450J0D01*
G01*
X504203D02*
G03*
X504203Y365000I-1450J0D01*
G01*
X488203Y369000D02*
G03*
X488203Y369000I-1450J0D01*
G01*
X492203D02*
G03*
X492203Y369000I-1450J0D01*
G01*
X496203D02*
G03*
X496203Y369000I-1450J0D01*
G01*
X500203D02*
G03*
X500203Y369000I-1450J0D01*
G01*
X504203D02*
G03*
X504203Y369000I-1450J0D01*
G01*
X488203Y373000D02*
G03*
X488203Y373000I-1450J0D01*
G01*
X492203D02*
G03*
X492203Y373000I-1450J0D01*
G01*
X496203D02*
G03*
X496203Y373000I-1450J0D01*
G01*
X500203D02*
G03*
X500203Y373000I-1450J0D01*
G01*
X504203D02*
G03*
X504203Y373000I-1450J0D01*
G01*
X488203Y87000D02*
G03*
X488203Y87000I-1450J0D01*
G01*
X492203D02*
G03*
X492203Y87000I-1450J0D01*
G01*
X496203D02*
G03*
X496203Y87000I-1450J0D01*
G01*
X500203D02*
G03*
X500203Y87000I-1450J0D01*
G01*
X504203D02*
G03*
X504203Y87000I-1450J0D01*
G01*
X488203Y91000D02*
G03*
X488203Y91000I-1450J0D01*
G01*
X492203D02*
G03*
X492203Y91000I-1450J0D01*
G01*
X496203D02*
G03*
X496203Y91000I-1450J0D01*
G01*
X500203D02*
G03*
X500203Y91000I-1450J0D01*
G01*
X504203D02*
G03*
X504203Y91000I-1450J0D01*
G01*
X488203Y95000D02*
G03*
X488203Y95000I-1450J0D01*
G01*
X492203D02*
G03*
X492203Y95000I-1450J0D01*
G01*
X496203D02*
G03*
X496203Y95000I-1450J0D01*
G01*
X500203D02*
G03*
X500203Y95000I-1450J0D01*
G01*
X504203D02*
G03*
X504203Y95000I-1450J0D01*
G01*
X488203Y99000D02*
G03*
X488203Y99000I-1450J0D01*
G01*
X492203D02*
G03*
X492203Y99000I-1450J0D01*
G01*
X496203D02*
G03*
X496203Y99000I-1450J0D01*
G01*
X500203D02*
G03*
X500203Y99000I-1450J0D01*
G01*
X504203D02*
G03*
X504203Y99000I-1450J0D01*
G01*
X488203Y103000D02*
G03*
X488203Y103000I-1450J0D01*
G01*
X492203D02*
G03*
X492203Y103000I-1450J0D01*
G01*
X496203D02*
G03*
X496203Y103000I-1450J0D01*
G01*
X500203D02*
G03*
X500203Y103000I-1450J0D01*
G01*
X504203D02*
G03*
X504203Y103000I-1450J0D01*
G01*
X221797Y253000D02*
G03*
X221797Y253000I1450J0D01*
G01*
X217797D02*
G03*
X217797Y253000I1450J0D01*
G01*
X213797D02*
G03*
X213797Y253000I1450J0D01*
G01*
X209797D02*
G03*
X209797Y253000I1450J0D01*
G01*
X205797D02*
G03*
X205797Y253000I1450J0D01*
G01*
X221797Y249000D02*
G03*
X221797Y249000I1450J0D01*
G01*
X217797D02*
G03*
X217797Y249000I1450J0D01*
G01*
X213797D02*
G03*
X213797Y249000I1450J0D01*
G01*
X209797D02*
G03*
X209797Y249000I1450J0D01*
G01*
X205797D02*
G03*
X205797Y249000I1450J0D01*
G01*
X221797Y245000D02*
G03*
X221797Y245000I1450J0D01*
G01*
X217797D02*
G03*
X217797Y245000I1450J0D01*
G01*
X213797D02*
G03*
X213797Y245000I1450J0D01*
G01*
X209797D02*
G03*
X209797Y245000I1450J0D01*
G01*
X205797D02*
G03*
X205797Y245000I1450J0D01*
G01*
X221797Y241000D02*
G03*
X221797Y241000I1450J0D01*
G01*
X217797D02*
G03*
X217797Y241000I1450J0D01*
G01*
X213797D02*
G03*
X213797Y241000I1450J0D01*
G01*
X209797D02*
G03*
X209797Y241000I1450J0D01*
G01*
X205797D02*
G03*
X205797Y241000I1450J0D01*
G01*
X221797Y237000D02*
G03*
X221797Y237000I1450J0D01*
G01*
X217797D02*
G03*
X217797Y237000I1450J0D01*
G01*
X213797D02*
G03*
X213797Y237000I1450J0D01*
G01*
X209797D02*
G03*
X209797Y237000I1450J0D01*
G01*
X205797D02*
G03*
X205797Y237000I1450J0D01*
G01*
D48*
X603497Y515000D02*
D03*
X106503Y365000D02*
D03*
Y95000D02*
D03*
X603497Y245000D02*
D03*
D49*
X307247Y424871D02*
D03*
X402753Y455129D02*
D03*
Y185129D02*
D03*
X307247Y154871D02*
D03*
D50*
X214347Y534750D02*
D03*
X224347D02*
D03*
X319497Y496250D02*
D03*
X309497D02*
D03*
X289247D02*
D03*
X299247D02*
D03*
X406747Y495250D02*
D03*
X396747D02*
D03*
X429247D02*
D03*
X419247D02*
D03*
X206997D02*
D03*
X216997D02*
D03*
X495653Y345250D02*
D03*
X485653D02*
D03*
X390503Y383750D02*
D03*
X400503D02*
D03*
X420753D02*
D03*
X410753D02*
D03*
X303253Y384750D02*
D03*
X313253D02*
D03*
X280753D02*
D03*
X290753D02*
D03*
X503003D02*
D03*
X493003D02*
D03*
X495653Y75250D02*
D03*
X485653D02*
D03*
X390503Y113750D02*
D03*
X400503D02*
D03*
X420753D02*
D03*
X410753D02*
D03*
X303253Y114750D02*
D03*
X313253D02*
D03*
X280753D02*
D03*
X290753D02*
D03*
X503003D02*
D03*
X493003D02*
D03*
X214347Y264750D02*
D03*
X224347D02*
D03*
X319497Y226250D02*
D03*
X309497D02*
D03*
X289247D02*
D03*
X299247D02*
D03*
X406747Y225250D02*
D03*
X396747D02*
D03*
X429247D02*
D03*
X419247D02*
D03*
X206997D02*
D03*
X216997D02*
D03*
D51*
X194997Y516500D02*
D03*
Y506500D02*
D03*
X450997Y509000D02*
D03*
Y499000D02*
D03*
Y522000D02*
D03*
Y532000D02*
D03*
X515003Y363500D02*
D03*
Y373500D02*
D03*
X259003Y371000D02*
D03*
Y381000D02*
D03*
Y358000D02*
D03*
Y348000D02*
D03*
X515003Y93500D02*
D03*
Y103500D02*
D03*
X259003Y101000D02*
D03*
Y111000D02*
D03*
Y88000D02*
D03*
Y78000D02*
D03*
X194997Y246500D02*
D03*
Y236500D02*
D03*
X450997Y239000D02*
D03*
Y229000D02*
D03*
Y252000D02*
D03*
Y262000D02*
D03*
D52*
X465747Y532250D02*
D03*
Y497000D02*
D03*
X244253Y347750D02*
D03*
Y383000D02*
D03*
Y77750D02*
D03*
Y113000D02*
D03*
X465747Y262250D02*
D03*
Y227000D02*
D03*
D53*
X195247Y535500D02*
D03*
X514753Y344500D02*
D03*
Y74500D02*
D03*
X195247Y265500D02*
D03*
D54*
X194997Y526250D02*
D03*
X515003Y353750D02*
D03*
Y83750D02*
D03*
X194997Y256250D02*
D03*
D55*
X195247Y496000D02*
D03*
X514753Y384000D02*
D03*
Y114000D02*
D03*
X195247Y226000D02*
D03*
D56*
X385247Y512750D02*
D03*
Y496750D02*
D03*
Y517250D02*
D03*
Y533250D02*
D03*
X324753Y367250D02*
D03*
Y383250D02*
D03*
Y362750D02*
D03*
Y346750D02*
D03*
Y97250D02*
D03*
Y113250D02*
D03*
Y92750D02*
D03*
Y76750D02*
D03*
X385247Y242750D02*
D03*
Y226750D02*
D03*
Y247250D02*
D03*
Y263250D02*
D03*
D57*
X341747Y528300D02*
D03*
X363747D02*
D03*
X341747Y501700D02*
D03*
X363747D02*
D03*
X368253Y351700D02*
D03*
X346253D02*
D03*
X368253Y378300D02*
D03*
X346253D02*
D03*
X368253Y81700D02*
D03*
X346253D02*
D03*
X368253Y108300D02*
D03*
X346253D02*
D03*
X341747Y258300D02*
D03*
X363747D02*
D03*
X341747Y231700D02*
D03*
X363747D02*
D03*
D58*
X267997Y499050D02*
D03*
X261497D02*
D03*
X254997D02*
D03*
X248497D02*
D03*
Y529950D02*
D03*
X254997D02*
D03*
X261497D02*
D03*
X267997D02*
D03*
X442003Y380950D02*
D03*
X448503D02*
D03*
X455003D02*
D03*
X461503D02*
D03*
Y350050D02*
D03*
X455003D02*
D03*
X448503D02*
D03*
X442003D02*
D03*
Y110950D02*
D03*
X448503D02*
D03*
X455003D02*
D03*
X461503D02*
D03*
Y80050D02*
D03*
X455003D02*
D03*
X448503D02*
D03*
X442003D02*
D03*
X267997Y229050D02*
D03*
X261497D02*
D03*
X254997D02*
D03*
X248497D02*
D03*
Y259950D02*
D03*
X254997D02*
D03*
X261497D02*
D03*
X267997D02*
D03*
D59*
X284747Y425000D02*
D03*
X339747D02*
D03*
X314747D02*
D03*
X319747D02*
D03*
X324747D02*
D03*
X329747D02*
D03*
X334747D02*
D03*
X309747D02*
D03*
X304747D02*
D03*
X299747D02*
D03*
X294747D02*
D03*
X289747D02*
D03*
X279747D02*
D03*
X274747D02*
D03*
X425253Y455000D02*
D03*
X370253D02*
D03*
X395253D02*
D03*
X390253D02*
D03*
X385253D02*
D03*
X380253D02*
D03*
X375253D02*
D03*
X400253D02*
D03*
X405253D02*
D03*
X410253D02*
D03*
X415253D02*
D03*
X420253D02*
D03*
X430253D02*
D03*
X435253D02*
D03*
X425253Y185000D02*
D03*
X370253D02*
D03*
X395253D02*
D03*
X390253D02*
D03*
X385253D02*
D03*
X380253D02*
D03*
X375253D02*
D03*
X400253D02*
D03*
X405253D02*
D03*
X410253D02*
D03*
X415253D02*
D03*
X420253D02*
D03*
X430253D02*
D03*
X435253D02*
D03*
X284747Y155000D02*
D03*
X339747D02*
D03*
X314747D02*
D03*
X319747D02*
D03*
X324747D02*
D03*
X329747D02*
D03*
X334747D02*
D03*
X309747D02*
D03*
X304747D02*
D03*
X299747D02*
D03*
X294747D02*
D03*
X289747D02*
D03*
X279747D02*
D03*
X274747D02*
D03*
D60*
X572247Y490000D02*
D03*
Y540000D02*
D03*
X137753Y390000D02*
D03*
Y340000D02*
D03*
Y120000D02*
D03*
Y70000D02*
D03*
X572247Y220000D02*
D03*
Y270000D02*
D03*
D61*
X399497Y532250D02*
D03*
Y527250D02*
D03*
Y522250D02*
D03*
Y517250D02*
D03*
Y512250D02*
D03*
Y507250D02*
D03*
X427997Y532250D02*
D03*
Y527250D02*
D03*
Y522250D02*
D03*
Y517250D02*
D03*
Y512250D02*
D03*
Y507250D02*
D03*
X310503Y347750D02*
D03*
Y352750D02*
D03*
Y357750D02*
D03*
Y362750D02*
D03*
Y367750D02*
D03*
Y372750D02*
D03*
X282003Y347750D02*
D03*
Y352750D02*
D03*
Y357750D02*
D03*
Y362750D02*
D03*
Y367750D02*
D03*
Y372750D02*
D03*
X310503Y77750D02*
D03*
Y82750D02*
D03*
Y87750D02*
D03*
Y92750D02*
D03*
Y97750D02*
D03*
Y102750D02*
D03*
X282003Y77750D02*
D03*
Y82750D02*
D03*
Y87750D02*
D03*
Y92750D02*
D03*
Y97750D02*
D03*
Y102750D02*
D03*
X399497Y262250D02*
D03*
Y257250D02*
D03*
Y252250D02*
D03*
Y247250D02*
D03*
Y242250D02*
D03*
Y237250D02*
D03*
X427997Y262250D02*
D03*
Y257250D02*
D03*
Y252250D02*
D03*
Y247250D02*
D03*
Y242250D02*
D03*
Y237250D02*
D03*
D62*
X413747Y519750D02*
D03*
X296253Y360250D02*
D03*
Y90250D02*
D03*
X413747Y249750D02*
D03*
D63*
X465747Y522500D02*
D03*
Y506000D02*
D03*
X244253Y357500D02*
D03*
Y374000D02*
D03*
Y87500D02*
D03*
Y104000D02*
D03*
X465747Y252500D02*
D03*
Y236000D02*
D03*
D64*
X223247Y523000D02*
D03*
X219247D02*
D03*
X215247D02*
D03*
X211247D02*
D03*
X207247D02*
D03*
X223247Y519000D02*
D03*
X219247D02*
D03*
X215247D02*
D03*
X211247D02*
D03*
X207247D02*
D03*
X223247Y515000D02*
D03*
X219247D02*
D03*
X215247D02*
D03*
X211247D02*
D03*
X207247D02*
D03*
X211247Y511000D02*
D03*
X207247D02*
D03*
X219247Y507000D02*
D03*
X215247D02*
D03*
X207247D02*
D03*
X219247Y511000D02*
D03*
X215247D02*
D03*
X211247Y507000D02*
D03*
X223247D02*
D03*
Y511000D02*
D03*
X486753Y357000D02*
D03*
X490753D02*
D03*
X494753D02*
D03*
X498753D02*
D03*
X502753D02*
D03*
X486753Y361000D02*
D03*
X490753D02*
D03*
X494753D02*
D03*
X498753D02*
D03*
X502753D02*
D03*
X486753Y365000D02*
D03*
X490753D02*
D03*
X494753D02*
D03*
X498753D02*
D03*
X502753D02*
D03*
X498753Y369000D02*
D03*
X502753D02*
D03*
X490753Y373000D02*
D03*
X494753D02*
D03*
X502753D02*
D03*
X490753Y369000D02*
D03*
X494753D02*
D03*
X498753Y373000D02*
D03*
X486753D02*
D03*
Y369000D02*
D03*
Y87000D02*
D03*
X490753D02*
D03*
X494753D02*
D03*
X498753D02*
D03*
X502753D02*
D03*
X486753Y91000D02*
D03*
X490753D02*
D03*
X494753D02*
D03*
X498753D02*
D03*
X502753D02*
D03*
X486753Y95000D02*
D03*
X490753D02*
D03*
X494753D02*
D03*
X498753D02*
D03*
X502753D02*
D03*
X498753Y99000D02*
D03*
X502753D02*
D03*
X490753Y103000D02*
D03*
X494753D02*
D03*
X502753D02*
D03*
X490753Y99000D02*
D03*
X494753D02*
D03*
X498753Y103000D02*
D03*
X486753D02*
D03*
Y99000D02*
D03*
X223247Y253000D02*
D03*
X219247D02*
D03*
X215247D02*
D03*
X211247D02*
D03*
X207247D02*
D03*
X223247Y249000D02*
D03*
X219247D02*
D03*
X215247D02*
D03*
X211247D02*
D03*
X207247D02*
D03*
X223247Y245000D02*
D03*
X219247D02*
D03*
X215247D02*
D03*
X211247D02*
D03*
X207247D02*
D03*
X211247Y241000D02*
D03*
X207247D02*
D03*
X219247Y237000D02*
D03*
X215247D02*
D03*
X207247D02*
D03*
X219247Y241000D02*
D03*
X215247D02*
D03*
X211247Y237000D02*
D03*
X223247D02*
D03*
Y241000D02*
D03*
D65*
X25357Y585000D02*
D03*
X695000Y584643D02*
D03*
X694643Y25000D02*
D03*
X25000D02*
D03*
M02*
