G04*
G04 #@! TF.GenerationSoftware,Altium Limited,Altium Designer,22.8.2 (66)*
G04*
G04 Layer_Physical_Order=2*
G04 Layer_Color=16711680*
%FSLAX44Y44*%
%MOMM*%
G71*
G04*
G04 #@! TF.SameCoordinates,3F1CDDAE-498F-410C-A07E-9CE41E262C2E*
G04*
G04*
G04 #@! TF.FilePolarity,Positive*
G04*
G01*
G75*
%ADD10C,0.2000*%
%ADD29R,1.2900X1.2900*%
%ADD30C,1.2900*%
%ADD35C,1.1200*%
%ADD38R,1.1200X1.1200*%
%ADD41C,1.6000*%
%ADD42R,1.6000X1.6000*%
%ADD43C,1.6500*%
%ADD44R,1.6500X1.6500*%
%ADD45R,1.6000X1.6000*%
%ADD46C,2.1000*%
%ADD47C,6.0000*%
%ADD48C,0.7000*%
G36*
X842265Y332761D02*
X844103Y332000D01*
X846092D01*
X846164Y332030D01*
X847220Y331324D01*
Y330503D01*
X847981Y328665D01*
X849388Y327259D01*
X851225Y326498D01*
X853214D01*
X855052Y327259D01*
X855856Y328063D01*
X857126Y327537D01*
X857126Y238945D01*
X857085Y237256D01*
X856752Y233876D01*
X856093Y230564D01*
X855113Y227334D01*
X853821Y224214D01*
X852229Y221236D01*
X850354Y218429D01*
X848199Y215804D01*
X847033Y214579D01*
X841722Y209268D01*
X840549Y209754D01*
Y229576D01*
X841819Y229828D01*
X842130Y229079D01*
X843829Y227379D01*
X845980Y226488D01*
Y232500D01*
Y238512D01*
X843829Y237621D01*
X842130Y235921D01*
X841819Y235172D01*
X840549Y235424D01*
Y261750D01*
X840923Y261950D01*
X841819Y262139D01*
X843329Y260630D01*
X845480Y259738D01*
Y265750D01*
Y271762D01*
X843329Y270870D01*
X841819Y269361D01*
X840923Y269550D01*
X840549Y269750D01*
X840549Y332682D01*
X841819Y333208D01*
X842265Y332761D01*
D02*
G37*
G36*
X42000Y620922D02*
X779626D01*
Y513382D01*
Y511053D01*
X779659Y510975D01*
X779634Y510894D01*
X780091Y506260D01*
X780130Y506185D01*
X780114Y506102D01*
X781022Y501535D01*
X781069Y501465D01*
X781061Y501380D01*
X782413Y496924D01*
X782467Y496859D01*
Y496774D01*
X784249Y492472D01*
X784309Y492412D01*
X784317Y492328D01*
X786512Y488221D01*
X786577Y488167D01*
X786594Y488084D01*
X789181Y484212D01*
X789251Y484165D01*
X789276Y484084D01*
X792230Y480485D01*
X792305Y480445D01*
X792337Y480367D01*
X793984Y478720D01*
X827451Y445253D01*
Y381356D01*
X827168Y381239D01*
X825761Y379832D01*
X825000Y377995D01*
Y376005D01*
X825761Y374168D01*
X827168Y372761D01*
X827451Y372644D01*
X827451Y194997D01*
X787314Y154860D01*
X785599Y153145D01*
X785536Y152992D01*
X785397Y152899D01*
X782702Y148866D01*
X782670Y148703D01*
X782552Y148586D01*
X780696Y144104D01*
Y143938D01*
X780604Y143800D01*
X779658Y139042D01*
X779690Y138879D01*
X779626Y138726D01*
X779626Y136300D01*
Y97549D01*
X717500D01*
X716525Y97355D01*
X715698Y96802D01*
X691444Y72549D01*
X584356D01*
X584239Y72832D01*
X583390Y73681D01*
X583916Y74951D01*
X622100D01*
X623075Y75145D01*
X623902Y75698D01*
X634165Y85961D01*
X634631Y85692D01*
X636653Y85150D01*
X638747D01*
X640769Y85692D01*
X642581Y86738D01*
X644062Y88219D01*
X645108Y90031D01*
X645650Y92053D01*
Y94147D01*
X645108Y96169D01*
X644062Y97981D01*
X642581Y99462D01*
X640769Y100508D01*
X638747Y101050D01*
X636653D01*
X634631Y100508D01*
X632819Y99462D01*
X631338Y97981D01*
X630292Y96169D01*
X629750Y94147D01*
Y92053D01*
X630292Y90031D01*
X630561Y89565D01*
X621044Y80049D01*
X403899D01*
Y82500D01*
X410850D01*
Y101500D01*
X391850D01*
Y82500D01*
X398801D01*
Y78672D01*
X398995Y77696D01*
X399548Y76869D01*
X400719Y75698D01*
X401546Y75145D01*
X402522Y74951D01*
X576084D01*
X576610Y73681D01*
X575761Y72832D01*
X575000Y70995D01*
Y69005D01*
X575761Y67168D01*
X577168Y65761D01*
X579005Y65000D01*
X580995D01*
X582832Y65761D01*
X584239Y67168D01*
X584356Y67451D01*
X588584D01*
X589110Y66181D01*
X588261Y65332D01*
X587500Y63495D01*
Y61505D01*
X588261Y59668D01*
X589668Y58261D01*
X591124Y57658D01*
X590872Y56388D01*
X548183D01*
X547832Y56739D01*
X545995Y57500D01*
X544005D01*
X542168Y56739D01*
X540761Y55332D01*
X540000Y53495D01*
Y51505D01*
X540761Y49668D01*
X542168Y48261D01*
X544005Y47500D01*
X545995D01*
X547832Y48261D01*
X549239Y49668D01*
X549911Y51290D01*
X779626Y51290D01*
Y47549D01*
X667022D01*
X665932Y48639D01*
X664095Y49400D01*
X662105D01*
X660268Y48639D01*
X658861Y47232D01*
X658744Y46949D01*
X574605D01*
X574239Y47832D01*
X572832Y49239D01*
X570995Y50000D01*
X569005D01*
X567168Y49239D01*
X565761Y47832D01*
X565000Y45995D01*
Y44005D01*
X565761Y42168D01*
X566610Y41319D01*
X566084Y40049D01*
X501056D01*
X484302Y56802D01*
X483475Y57355D01*
X482500Y57549D01*
X439000D01*
X438024Y57355D01*
X437198Y56802D01*
X435198Y54802D01*
X434645Y53976D01*
X434451Y53000D01*
Y50867D01*
X434259Y50816D01*
X432640Y49881D01*
X431401Y48642D01*
X431065Y48501D01*
X430235D01*
X429899Y48642D01*
X428660Y49881D01*
X427040Y50816D01*
X425235Y51300D01*
X423365D01*
X421559Y50816D01*
X419940Y49881D01*
X418619Y48559D01*
X417684Y46940D01*
X417200Y45135D01*
Y43265D01*
X417684Y41459D01*
X418619Y39841D01*
X418686Y39773D01*
X418200Y38600D01*
X417200D01*
Y24400D01*
X431400D01*
X431400Y24400D01*
Y24400D01*
X432670Y24601D01*
X433858Y23915D01*
X435730Y23413D01*
Y31500D01*
X438270D01*
Y23413D01*
X440142Y23915D01*
X441998Y24986D01*
X443350Y26338D01*
X444702Y24986D01*
X446558Y23915D01*
X448430Y23413D01*
Y31500D01*
X450970D01*
Y23413D01*
X452842Y23915D01*
X454698Y24986D01*
X456214Y26502D01*
X457562Y26297D01*
X458041Y25819D01*
X459660Y24884D01*
X461465Y24400D01*
X463335D01*
X465140Y24884D01*
X466759Y25819D01*
X467238Y26297D01*
X468586Y26502D01*
X470102Y24986D01*
X471958Y23915D01*
X473830Y23413D01*
Y31500D01*
X475100D01*
Y32770D01*
X483187D01*
X482685Y34642D01*
X481614Y36498D01*
X480098Y38014D01*
X480303Y39362D01*
X480781Y39841D01*
X481467Y41028D01*
X482763Y41132D01*
X518644Y5252D01*
X518158Y4078D01*
X40128Y4078D01*
X37765D01*
X33080Y4695D01*
X28515Y5918D01*
X24149Y7727D01*
X20057Y10089D01*
X16308Y12966D01*
X12966Y16308D01*
X10089Y20057D01*
X7727Y24150D01*
X5918Y28515D01*
X4695Y33080D01*
X4078Y37765D01*
Y40128D01*
X4078Y584000D01*
X4078Y584872D01*
X4078Y584872D01*
X4078Y584872D01*
X4078Y587235D01*
X4695Y591920D01*
X5918Y596485D01*
X7727Y600850D01*
X10089Y604943D01*
X12966Y608692D01*
X16308Y612034D01*
X20057Y614911D01*
X24150Y617273D01*
X28515Y619082D01*
X33080Y620305D01*
X37765Y620922D01*
X42000Y620922D01*
D02*
G37*
G36*
X779626Y56388D02*
X710682D01*
X710429Y57658D01*
X712171Y58380D01*
X713870Y60079D01*
X714762Y62230D01*
X702738D01*
X703630Y60079D01*
X705329Y58380D01*
X707071Y57658D01*
X706818Y56388D01*
X594128Y56388D01*
X593876Y57658D01*
X595332Y58261D01*
X596739Y59668D01*
X596856Y59951D01*
X693250D01*
X694225Y60145D01*
X695052Y60698D01*
X719306Y84951D01*
X745157D01*
X745324Y83681D01*
X743168Y83103D01*
X740432Y81523D01*
X738198Y79289D01*
X736618Y76553D01*
X735800Y73501D01*
Y70341D01*
X736618Y67289D01*
X738198Y64553D01*
X740432Y62319D01*
X743168Y60739D01*
X746220Y59921D01*
X749380D01*
X752432Y60739D01*
X755168Y62319D01*
X757402Y64553D01*
X758982Y67289D01*
X759800Y70341D01*
Y73501D01*
X758982Y76553D01*
X757402Y79289D01*
X755168Y81523D01*
X752432Y83103D01*
X750275Y83681D01*
X750443Y84951D01*
X779626D01*
Y56388D01*
D02*
G37*
G36*
X498198Y35698D02*
X499025Y35145D01*
X500000Y34951D01*
X590644D01*
X605161Y20435D01*
X604892Y19969D01*
X604350Y17947D01*
Y15853D01*
X604892Y13831D01*
X605938Y12019D01*
X607419Y10538D01*
X609231Y9492D01*
X611253Y8950D01*
X613347D01*
X615369Y9492D01*
X617181Y10538D01*
X618662Y12019D01*
X619708Y13831D01*
X620250Y15853D01*
Y17947D01*
X619708Y19969D01*
X618662Y21781D01*
X617181Y23262D01*
X615369Y24308D01*
X613347Y24850D01*
X611253D01*
X609231Y24308D01*
X608765Y24039D01*
X593502Y39302D01*
X592675Y39855D01*
X591700Y40049D01*
X574753D01*
X574118Y41319D01*
X574517Y41851D01*
X658744D01*
X658861Y41568D01*
X660268Y40161D01*
X662105Y39400D01*
X664095D01*
X665932Y40161D01*
X667339Y41568D01*
X667705Y42451D01*
X779626D01*
Y4078D01*
X686842D01*
X686356Y5252D01*
X688570Y7466D01*
X689123Y8292D01*
X689254Y8950D01*
X689547D01*
X691569Y9492D01*
X693381Y10538D01*
X694862Y12019D01*
X695908Y13831D01*
X696450Y15853D01*
Y17947D01*
X695908Y19969D01*
X694862Y21781D01*
X693381Y23262D01*
X691569Y24308D01*
X689547Y24850D01*
X687453D01*
X685431Y24308D01*
X683619Y23262D01*
X682138Y21781D01*
X681092Y19969D01*
X680550Y17947D01*
Y15853D01*
X681092Y13831D01*
X682138Y12019D01*
X683618Y10538D01*
X683713Y9818D01*
X681444Y7549D01*
X523556D01*
X485502Y45602D01*
X484675Y46155D01*
X483700Y46349D01*
X481875D01*
X481716Y46940D01*
X480781Y48559D01*
X479459Y49881D01*
X477840Y50816D01*
X476479Y51181D01*
X476646Y52451D01*
X481444D01*
X498198Y35698D01*
D02*
G37*
%LPC*%
G36*
X848020Y271762D02*
Y267020D01*
X852762D01*
X851870Y269171D01*
X850171Y270870D01*
X848020Y271762D01*
D02*
G37*
G36*
X852762Y264480D02*
X848020D01*
Y259738D01*
X850171Y260630D01*
X851870Y262329D01*
X852762Y264480D01*
D02*
G37*
G36*
X848520Y238512D02*
Y233770D01*
X853262D01*
X852371Y235921D01*
X850671Y237621D01*
X848520Y238512D01*
D02*
G37*
G36*
X853262Y231230D02*
X848520D01*
Y226488D01*
X850671Y227379D01*
X852371Y229079D01*
X853262Y231230D01*
D02*
G37*
G36*
X436170Y600512D02*
Y595770D01*
X440912D01*
X440020Y597921D01*
X438321Y599621D01*
X436170Y600512D01*
D02*
G37*
G36*
X433630D02*
X431479Y599621D01*
X429780Y597921D01*
X428888Y595770D01*
X433630D01*
Y600512D01*
D02*
G37*
G36*
X637434Y611200D02*
X634866D01*
X632387Y610535D01*
X630163Y609252D01*
X628348Y607436D01*
X627065Y605213D01*
X626400Y602733D01*
Y600166D01*
X627065Y597687D01*
X628348Y595463D01*
X630163Y593648D01*
X632387Y592364D01*
X634866Y591700D01*
X637434D01*
X639913Y592364D01*
X642137Y593648D01*
X643952Y595463D01*
X645236Y597687D01*
X645900Y600166D01*
Y602733D01*
X645236Y605213D01*
X643952Y607436D01*
X642137Y609252D01*
X639913Y610535D01*
X637434Y611200D01*
D02*
G37*
G36*
X620500D02*
X601000D01*
Y591700D01*
X620500D01*
Y611200D01*
D02*
G37*
G36*
X560770Y593262D02*
Y588520D01*
X565512D01*
X564621Y590671D01*
X562921Y592370D01*
X560770Y593262D01*
D02*
G37*
G36*
X558230D02*
X556079Y592370D01*
X554380Y590671D01*
X553488Y588520D01*
X558230D01*
Y593262D01*
D02*
G37*
G36*
X440912Y593230D02*
X436170D01*
Y588488D01*
X438321Y589380D01*
X440020Y591079D01*
X440912Y593230D01*
D02*
G37*
G36*
X433630D02*
X428888D01*
X429780Y591079D01*
X431479Y589380D01*
X433630Y588488D01*
Y593230D01*
D02*
G37*
G36*
X42561Y617540D02*
X41270D01*
Y586270D01*
X72540D01*
Y587561D01*
X71739Y592620D01*
X70156Y597491D01*
X67831Y602055D01*
X64820Y606198D01*
X61198Y609820D01*
X57055Y612831D01*
X52491Y615156D01*
X47620Y616739D01*
X42561Y617540D01*
D02*
G37*
G36*
X38730D02*
X37439D01*
X32380Y616739D01*
X27509Y615156D01*
X22945Y612831D01*
X18802Y609820D01*
X15180Y606198D01*
X12169Y602055D01*
X9844Y597491D01*
X8261Y592620D01*
X7460Y587561D01*
Y586270D01*
X38730D01*
Y617540D01*
D02*
G37*
G36*
X749380Y610000D02*
X746220D01*
X743168Y609182D01*
X740432Y607602D01*
X738198Y605368D01*
X736618Y602632D01*
X735800Y599580D01*
Y596420D01*
X736618Y593368D01*
X738198Y590632D01*
X740432Y588397D01*
X743168Y586818D01*
X746220Y586000D01*
X749380D01*
X752432Y586818D01*
X755168Y588397D01*
X757402Y590632D01*
X758982Y593368D01*
X759800Y596420D01*
Y599580D01*
X758982Y602632D01*
X757402Y605368D01*
X755168Y607602D01*
X752432Y609182D01*
X749380Y610000D01*
D02*
G37*
G36*
X565512Y585980D02*
X560770D01*
Y581238D01*
X562921Y582130D01*
X564621Y583829D01*
X565512Y585980D01*
D02*
G37*
G36*
X558230D02*
X553488D01*
X554380Y583829D01*
X556079Y582130D01*
X558230Y581238D01*
Y585980D01*
D02*
G37*
G36*
X298520Y575512D02*
Y570770D01*
X303262D01*
X302370Y572921D01*
X300671Y574621D01*
X298520Y575512D01*
D02*
G37*
G36*
X295980D02*
X293829Y574621D01*
X292129Y572921D01*
X291238Y570770D01*
X295980D01*
Y575512D01*
D02*
G37*
G36*
X86770Y574262D02*
Y569520D01*
X91512D01*
X90620Y571671D01*
X88921Y573371D01*
X86770Y574262D01*
D02*
G37*
G36*
X84230D02*
X82079Y573371D01*
X80379Y571671D01*
X79488Y569520D01*
X84230D01*
Y574262D01*
D02*
G37*
G36*
X637434Y585800D02*
X634866D01*
X632387Y585135D01*
X630163Y583852D01*
X628348Y582037D01*
X627065Y579813D01*
X626400Y577333D01*
Y574766D01*
X627065Y572286D01*
X628348Y570063D01*
X630163Y568248D01*
X632387Y566964D01*
X634866Y566300D01*
X637434D01*
X639913Y566964D01*
X642137Y568248D01*
X643952Y570063D01*
X645236Y572286D01*
X645900Y574766D01*
Y577333D01*
X645236Y579813D01*
X643952Y582037D01*
X642137Y583852D01*
X639913Y585135D01*
X637434Y585800D01*
D02*
G37*
G36*
X612034D02*
X609466D01*
X606987Y585135D01*
X604763Y583852D01*
X602948Y582037D01*
X601665Y579813D01*
X601000Y577333D01*
Y574766D01*
X601665Y572286D01*
X602948Y570063D01*
X604763Y568248D01*
X606987Y566964D01*
X609466Y566300D01*
X612034D01*
X614513Y566964D01*
X616737Y568248D01*
X618552Y570063D01*
X619836Y572286D01*
X620500Y574766D01*
Y577333D01*
X619836Y579813D01*
X618552Y582037D01*
X616737Y583852D01*
X614513Y585135D01*
X612034Y585800D01*
D02*
G37*
G36*
X303262Y568230D02*
X298520D01*
Y563488D01*
X300671Y564380D01*
X302370Y566079D01*
X303262Y568230D01*
D02*
G37*
G36*
X295980D02*
X291238D01*
X292129Y566079D01*
X293829Y564380D01*
X295980Y563488D01*
Y568230D01*
D02*
G37*
G36*
X91512Y566980D02*
X86770D01*
Y562238D01*
X88921Y563130D01*
X90620Y564829D01*
X91512Y566980D01*
D02*
G37*
G36*
X84230D02*
X79488D01*
X80379Y564829D01*
X82079Y563130D01*
X84230Y562238D01*
Y566980D01*
D02*
G37*
G36*
X72540Y583730D02*
X41270D01*
Y552460D01*
X42561D01*
X47620Y553261D01*
X52491Y554844D01*
X57055Y557169D01*
X61198Y560180D01*
X64820Y563802D01*
X67831Y567945D01*
X70156Y572509D01*
X71739Y577380D01*
X72540Y582439D01*
Y583730D01*
D02*
G37*
G36*
X38730D02*
X7460D01*
Y582439D01*
X8261Y577380D01*
X9844Y572509D01*
X12169Y567945D01*
X15180Y563802D01*
X18802Y560180D01*
X22945Y557169D01*
X27509Y554844D01*
X32380Y553261D01*
X37439Y552460D01*
X38730D01*
Y583730D01*
D02*
G37*
G36*
X436170Y554682D02*
Y549940D01*
X440912D01*
X440020Y552091D01*
X438321Y553791D01*
X436170Y554682D01*
D02*
G37*
G36*
X433630D02*
X431479Y553791D01*
X429780Y552091D01*
X428888Y549940D01*
X433630D01*
Y554682D01*
D02*
G37*
G36*
X440912Y547400D02*
X436170D01*
Y542658D01*
X438321Y543549D01*
X440020Y545249D01*
X440912Y547400D01*
D02*
G37*
G36*
X433630D02*
X428888D01*
X429780Y545249D01*
X431479Y543549D01*
X433630Y542658D01*
Y547400D01*
D02*
G37*
G36*
X749380Y566079D02*
X746220D01*
X743168Y565261D01*
X740432Y563681D01*
X738198Y561447D01*
X736618Y558711D01*
X735800Y555659D01*
Y552499D01*
X736618Y549447D01*
X738198Y546711D01*
X740432Y544476D01*
X743168Y542897D01*
X746220Y542079D01*
X749380D01*
X752432Y542897D01*
X755168Y544476D01*
X757402Y546711D01*
X758982Y549447D01*
X759800Y552499D01*
Y555659D01*
X758982Y558711D01*
X757402Y561447D01*
X755168Y563681D01*
X752432Y565261D01*
X749380Y566079D01*
D02*
G37*
G36*
X637434Y560400D02*
X634866D01*
X632387Y559735D01*
X630163Y558452D01*
X628348Y556637D01*
X627065Y554413D01*
X626400Y551934D01*
Y549366D01*
X627065Y546886D01*
X628348Y544663D01*
X630163Y542848D01*
X632387Y541564D01*
X634866Y540900D01*
X637434D01*
X639913Y541564D01*
X642137Y542848D01*
X643952Y544663D01*
X645236Y546886D01*
X645900Y549366D01*
Y551934D01*
X645236Y554413D01*
X643952Y556637D01*
X642137Y558452D01*
X639913Y559735D01*
X637434Y560400D01*
D02*
G37*
G36*
X612034D02*
X609466D01*
X606987Y559735D01*
X604763Y558452D01*
X602948Y556637D01*
X601665Y554413D01*
X601000Y551934D01*
Y549366D01*
X601665Y546886D01*
X602948Y544663D01*
X604763Y542848D01*
X606987Y541564D01*
X609466Y540900D01*
X612034D01*
X614513Y541564D01*
X616737Y542848D01*
X618552Y544663D01*
X619836Y546886D01*
X620500Y549366D01*
Y551934D01*
X619836Y554413D01*
X618552Y556637D01*
X616737Y558452D01*
X614513Y559735D01*
X612034Y560400D01*
D02*
G37*
G36*
X561020Y542262D02*
Y537520D01*
X565762D01*
X564870Y539671D01*
X563171Y541371D01*
X561020Y542262D01*
D02*
G37*
G36*
X558480D02*
X556329Y541371D01*
X554630Y539671D01*
X553738Y537520D01*
X558480D01*
Y542262D01*
D02*
G37*
G36*
X196324Y538564D02*
Y533823D01*
X201065D01*
X200174Y535974D01*
X198475Y537673D01*
X196324Y538564D01*
D02*
G37*
G36*
X193783D02*
X191632Y537673D01*
X189933Y535974D01*
X189042Y533823D01*
X193783D01*
Y538564D01*
D02*
G37*
G36*
X565762Y534980D02*
X561020D01*
Y530238D01*
X563171Y531129D01*
X564870Y532829D01*
X565762Y534980D01*
D02*
G37*
G36*
X558480D02*
X553738D01*
X554630Y532829D01*
X556329Y531129D01*
X558480Y530238D01*
Y534980D01*
D02*
G37*
G36*
X201065Y531283D02*
X196324D01*
Y526541D01*
X198475Y527432D01*
X200174Y529131D01*
X201065Y531283D01*
D02*
G37*
G36*
X193783D02*
X189042D01*
X189933Y529131D01*
X191632Y527432D01*
X193783Y526541D01*
Y531283D01*
D02*
G37*
G36*
X637434Y535000D02*
X634866D01*
X632387Y534335D01*
X630163Y533052D01*
X628348Y531236D01*
X627065Y529013D01*
X626400Y526534D01*
Y523966D01*
X627065Y521487D01*
X628348Y519263D01*
X630163Y517448D01*
X632387Y516164D01*
X634866Y515500D01*
X637434D01*
X639913Y516164D01*
X642137Y517448D01*
X643952Y519263D01*
X645236Y521487D01*
X645900Y523966D01*
Y526534D01*
X645236Y529013D01*
X643952Y531236D01*
X642137Y533052D01*
X639913Y534335D01*
X637434Y535000D01*
D02*
G37*
G36*
X612034D02*
X609466D01*
X606987Y534335D01*
X604763Y533052D01*
X602948Y531236D01*
X601665Y529013D01*
X601000Y526534D01*
Y523966D01*
X601665Y521487D01*
X602948Y519263D01*
X604763Y517448D01*
X606987Y516164D01*
X609466Y515500D01*
X612034D01*
X614513Y516164D01*
X616737Y517448D01*
X618552Y519263D01*
X619836Y521487D01*
X620500Y523966D01*
Y526534D01*
X619836Y529013D01*
X618552Y531236D01*
X616737Y533052D01*
X614513Y534335D01*
X612034Y535000D01*
D02*
G37*
G36*
X436170Y508842D02*
Y504100D01*
X440912D01*
X440020Y506251D01*
X438321Y507951D01*
X436170Y508842D01*
D02*
G37*
G36*
X433630D02*
X431479Y507951D01*
X429780Y506251D01*
X428888Y504100D01*
X433630D01*
Y508842D01*
D02*
G37*
G36*
X749380Y522158D02*
X746220D01*
X743168Y521340D01*
X740432Y519760D01*
X738198Y517526D01*
X736618Y514790D01*
X735800Y511738D01*
Y508578D01*
X736618Y505526D01*
X738198Y502790D01*
X740432Y500555D01*
X743168Y498976D01*
X746220Y498158D01*
X749380D01*
X752432Y498976D01*
X755168Y500555D01*
X757402Y502790D01*
X758982Y505526D01*
X759800Y508578D01*
Y511738D01*
X758982Y514790D01*
X757402Y517526D01*
X755168Y519760D01*
X752432Y521340D01*
X749380Y522158D01*
D02*
G37*
G36*
X440912Y501560D02*
X436170D01*
Y496818D01*
X438321Y497710D01*
X440020Y499409D01*
X440912Y501560D01*
D02*
G37*
G36*
X433630D02*
X428888D01*
X429780Y499409D01*
X431479Y497710D01*
X433630Y496818D01*
Y501560D01*
D02*
G37*
G36*
X637434Y509600D02*
X634866D01*
X632387Y508935D01*
X630163Y507652D01*
X628348Y505836D01*
X627065Y503613D01*
X626400Y501133D01*
Y498566D01*
X627065Y496087D01*
X628348Y493863D01*
X630163Y492048D01*
X632387Y490764D01*
X634866Y490100D01*
X637434D01*
X639913Y490764D01*
X642137Y492048D01*
X643952Y493863D01*
X645236Y496087D01*
X645900Y498566D01*
Y501133D01*
X645236Y503613D01*
X643952Y505836D01*
X642137Y507652D01*
X639913Y508935D01*
X637434Y509600D01*
D02*
G37*
G36*
X612034D02*
X609466D01*
X606987Y508935D01*
X604763Y507652D01*
X602948Y505836D01*
X601665Y503613D01*
X601000Y501133D01*
Y498566D01*
X601665Y496087D01*
X602948Y493863D01*
X604763Y492048D01*
X606987Y490764D01*
X609466Y490100D01*
X612034D01*
X614513Y490764D01*
X616737Y492048D01*
X618552Y493863D01*
X619836Y496087D01*
X620500Y498566D01*
Y501133D01*
X619836Y503613D01*
X618552Y505836D01*
X616737Y507652D01*
X614513Y508935D01*
X612034Y509600D01*
D02*
G37*
G36*
X563020Y490512D02*
Y485770D01*
X567762D01*
X566870Y487921D01*
X565171Y489621D01*
X563020Y490512D01*
D02*
G37*
G36*
X560480D02*
X558329Y489621D01*
X556629Y487921D01*
X555738Y485770D01*
X560480D01*
Y490512D01*
D02*
G37*
G36*
X763270Y483512D02*
Y478770D01*
X768012D01*
X767121Y480921D01*
X765421Y482621D01*
X763270Y483512D01*
D02*
G37*
G36*
X760730D02*
X758579Y482621D01*
X756880Y480921D01*
X755988Y478770D01*
X760730D01*
Y483512D01*
D02*
G37*
G36*
X567762Y483230D02*
X563020D01*
Y478488D01*
X565171Y479380D01*
X566870Y481079D01*
X567762Y483230D01*
D02*
G37*
G36*
X560480D02*
X555738D01*
X556629Y481079D01*
X558329Y479380D01*
X560480Y478488D01*
Y483230D01*
D02*
G37*
G36*
X768012Y476230D02*
X763270D01*
Y471488D01*
X765421Y472379D01*
X767121Y474079D01*
X768012Y476230D01*
D02*
G37*
G36*
X749380Y478237D02*
X746220D01*
X743168Y477419D01*
X740432Y475839D01*
X738198Y473605D01*
X736618Y470869D01*
X735800Y467817D01*
Y464657D01*
X736618Y461605D01*
X738198Y458869D01*
X740432Y456634D01*
X743168Y455055D01*
X746220Y454237D01*
X749380D01*
X752432Y455055D01*
X755168Y456634D01*
X757402Y458869D01*
X758982Y461605D01*
X759800Y464657D01*
Y467817D01*
X758991Y470834D01*
X759061Y470953D01*
X759890Y471836D01*
X760730Y471488D01*
Y476230D01*
X755088D01*
X754796Y476061D01*
X754787Y476059D01*
X752432Y477419D01*
X749380Y478237D01*
D02*
G37*
G36*
X637434Y484200D02*
X634866D01*
X632387Y483535D01*
X630163Y482252D01*
X628348Y480437D01*
X627065Y478213D01*
X626400Y475733D01*
Y473166D01*
X627065Y470686D01*
X628348Y468463D01*
X630163Y466648D01*
X632387Y465364D01*
X634866Y464700D01*
X637434D01*
X639913Y465364D01*
X642137Y466648D01*
X643952Y468463D01*
X645236Y470686D01*
X645900Y473166D01*
Y475733D01*
X645236Y478213D01*
X643952Y480437D01*
X642137Y482252D01*
X639913Y483535D01*
X637434Y484200D01*
D02*
G37*
G36*
X612034D02*
X609466D01*
X606987Y483535D01*
X604763Y482252D01*
X602948Y480437D01*
X601665Y478213D01*
X601000Y475733D01*
Y473166D01*
X601665Y470686D01*
X602948Y468463D01*
X604763Y466648D01*
X606987Y465364D01*
X609466Y464700D01*
X612034D01*
X614513Y465364D01*
X616737Y466648D01*
X618552Y468463D01*
X619836Y470686D01*
X620500Y473166D01*
Y475733D01*
X619836Y478213D01*
X618552Y480437D01*
X616737Y482252D01*
X614513Y483535D01*
X612034Y484200D01*
D02*
G37*
G36*
X436170Y463012D02*
Y458270D01*
X440912D01*
X440020Y460421D01*
X438321Y462121D01*
X436170Y463012D01*
D02*
G37*
G36*
X433630D02*
X431479Y462121D01*
X429780Y460421D01*
X428888Y458270D01*
X433630D01*
Y463012D01*
D02*
G37*
G36*
X440912Y455730D02*
X436170D01*
Y450988D01*
X438321Y451880D01*
X440020Y453579D01*
X440912Y455730D01*
D02*
G37*
G36*
X433630D02*
X428888D01*
X429780Y453579D01*
X431479Y451880D01*
X433630Y450988D01*
Y455730D01*
D02*
G37*
G36*
X77770Y455012D02*
Y450270D01*
X82512D01*
X81621Y452421D01*
X79921Y454120D01*
X77770Y455012D01*
D02*
G37*
G36*
X75230D02*
X73079Y454120D01*
X71379Y452421D01*
X70488Y450270D01*
X75230D01*
Y455012D01*
D02*
G37*
G36*
X798270Y451262D02*
Y446520D01*
X803012D01*
X802121Y448671D01*
X800421Y450370D01*
X798270Y451262D01*
D02*
G37*
G36*
X795730D02*
X793579Y450370D01*
X791880Y448671D01*
X790988Y446520D01*
X795730D01*
Y451262D01*
D02*
G37*
G36*
X82512Y447730D02*
X77770D01*
Y442988D01*
X79921Y443880D01*
X81621Y445579D01*
X82512Y447730D01*
D02*
G37*
G36*
X75230D02*
X70488D01*
X71379Y445579D01*
X73079Y443880D01*
X75230Y442988D01*
Y447730D01*
D02*
G37*
G36*
X637434Y458800D02*
X634866D01*
X632387Y458135D01*
X630163Y456852D01*
X628348Y455037D01*
X627065Y452813D01*
X626400Y450334D01*
Y447766D01*
X627065Y445286D01*
X628348Y443063D01*
X630163Y441248D01*
X632387Y439964D01*
X634866Y439300D01*
X637434D01*
X639913Y439964D01*
X642137Y441248D01*
X643952Y443063D01*
X645236Y445286D01*
X645900Y447766D01*
Y450334D01*
X645236Y452813D01*
X643952Y455037D01*
X642137Y456852D01*
X639913Y458135D01*
X637434Y458800D01*
D02*
G37*
G36*
X612034D02*
X609466D01*
X606987Y458135D01*
X604763Y456852D01*
X602948Y455037D01*
X601665Y452813D01*
X601000Y450334D01*
Y447766D01*
X601665Y445286D01*
X602948Y443063D01*
X604763Y441248D01*
X606987Y439964D01*
X609466Y439300D01*
X612034D01*
X614513Y439964D01*
X616737Y441248D01*
X618552Y443063D01*
X619836Y445286D01*
X620500Y447766D01*
Y450334D01*
X619836Y452813D01*
X618552Y455037D01*
X616737Y456852D01*
X614513Y458135D01*
X612034Y458800D01*
D02*
G37*
G36*
X803012Y443980D02*
X798270D01*
Y439238D01*
X800421Y440130D01*
X802121Y441829D01*
X803012Y443980D01*
D02*
G37*
G36*
X795730D02*
X790988D01*
X791880Y441829D01*
X793579Y440130D01*
X795730Y439238D01*
Y443980D01*
D02*
G37*
G36*
X762770Y440262D02*
Y435520D01*
X767512D01*
X766620Y437671D01*
X764921Y439370D01*
X762770Y440262D01*
D02*
G37*
G36*
X760230D02*
X758079Y439370D01*
X756379Y437671D01*
X755488Y435520D01*
X760230D01*
Y440262D01*
D02*
G37*
G36*
X767512Y432980D02*
X762770D01*
Y428238D01*
X764921Y429129D01*
X766620Y430829D01*
X767512Y432980D01*
D02*
G37*
G36*
X749380Y434316D02*
X746220D01*
X743168Y433498D01*
X740432Y431918D01*
X738198Y429684D01*
X736618Y426948D01*
X735800Y423896D01*
Y420736D01*
X736618Y417684D01*
X738198Y414948D01*
X740432Y412713D01*
X743168Y411134D01*
X746220Y410316D01*
X749380D01*
X752432Y411134D01*
X755168Y412713D01*
X757402Y414948D01*
X758982Y417684D01*
X759800Y420736D01*
Y423896D01*
X758982Y426948D01*
X758654Y427517D01*
X759538Y428525D01*
X760230Y428238D01*
Y432980D01*
X755211D01*
X754971Y432754D01*
X754360Y432385D01*
X752432Y433498D01*
X749380Y434316D01*
D02*
G37*
G36*
X637434Y433400D02*
X634866D01*
X632387Y432735D01*
X630163Y431452D01*
X628348Y429636D01*
X627065Y427413D01*
X626400Y424934D01*
Y422366D01*
X627065Y419887D01*
X628348Y417663D01*
X630163Y415848D01*
X632387Y414564D01*
X634866Y413900D01*
X637434D01*
X639913Y414564D01*
X642137Y415848D01*
X643952Y417663D01*
X645236Y419887D01*
X645900Y422366D01*
Y424934D01*
X645236Y427413D01*
X643952Y429636D01*
X642137Y431452D01*
X639913Y432735D01*
X637434Y433400D01*
D02*
G37*
G36*
X612034D02*
X609466D01*
X606987Y432735D01*
X604763Y431452D01*
X602948Y429636D01*
X601665Y427413D01*
X601000Y424934D01*
Y422366D01*
X601665Y419887D01*
X602948Y417663D01*
X604763Y415848D01*
X606987Y414564D01*
X609466Y413900D01*
X612034D01*
X614513Y414564D01*
X616737Y415848D01*
X618552Y417663D01*
X619836Y419887D01*
X620500Y422366D01*
Y424934D01*
X619836Y427413D01*
X618552Y429636D01*
X616737Y431452D01*
X614513Y432735D01*
X612034Y433400D01*
D02*
G37*
G36*
X434270Y416012D02*
Y411270D01*
X439012D01*
X438120Y413421D01*
X436421Y415121D01*
X434270Y416012D01*
D02*
G37*
G36*
X431730D02*
X429579Y415121D01*
X427879Y413421D01*
X426988Y411270D01*
X431730D01*
Y416012D01*
D02*
G37*
G36*
X564270Y415012D02*
Y410270D01*
X569012D01*
X568120Y412421D01*
X566421Y414120D01*
X564270Y415012D01*
D02*
G37*
G36*
X561730D02*
X559579Y414120D01*
X557879Y412421D01*
X556988Y410270D01*
X561730D01*
Y415012D01*
D02*
G37*
G36*
X762770Y412762D02*
Y408020D01*
X767512D01*
X766620Y410171D01*
X764921Y411870D01*
X762770Y412762D01*
D02*
G37*
G36*
X760230D02*
X758079Y411870D01*
X756379Y410171D01*
X755488Y408020D01*
X760230D01*
Y412762D01*
D02*
G37*
G36*
X439012Y408730D02*
X434270D01*
Y403988D01*
X436421Y404879D01*
X438120Y406579D01*
X439012Y408730D01*
D02*
G37*
G36*
X431730D02*
X426988D01*
X427879Y406579D01*
X429579Y404879D01*
X431730Y403988D01*
Y408730D01*
D02*
G37*
G36*
X569012Y407730D02*
X564270D01*
Y402988D01*
X566421Y403880D01*
X568120Y405579D01*
X569012Y407730D01*
D02*
G37*
G36*
X561730D02*
X556988D01*
X557879Y405579D01*
X559579Y403880D01*
X561730Y402988D01*
Y407730D01*
D02*
G37*
G36*
X767512Y405480D02*
X762770D01*
Y400738D01*
X764921Y401629D01*
X766620Y403329D01*
X767512Y405480D01*
D02*
G37*
G36*
X760230D02*
X755488D01*
X756379Y403329D01*
X758079Y401629D01*
X760230Y400738D01*
Y405480D01*
D02*
G37*
G36*
X612034Y408000D02*
X609466D01*
X606987Y407335D01*
X604763Y406052D01*
X602948Y404236D01*
X601665Y402013D01*
X601000Y399534D01*
Y396966D01*
X601665Y394487D01*
X602948Y392263D01*
X604763Y390448D01*
X606987Y389164D01*
X609466Y388500D01*
X612034D01*
X614513Y389164D01*
X616737Y390448D01*
X618552Y392263D01*
X619836Y394487D01*
X620500Y396966D01*
Y399534D01*
X619836Y402013D01*
X618552Y404236D01*
X616737Y406052D01*
X614513Y407335D01*
X612034Y408000D01*
D02*
G37*
G36*
X799270Y392762D02*
Y388020D01*
X804012D01*
X803120Y390171D01*
X801421Y391870D01*
X799270Y392762D01*
D02*
G37*
G36*
X796730D02*
X794579Y391870D01*
X792879Y390171D01*
X791988Y388020D01*
X796730D01*
Y392762D01*
D02*
G37*
G36*
X804012Y385480D02*
X799270D01*
Y380738D01*
X801421Y381629D01*
X803120Y383329D01*
X804012Y385480D01*
D02*
G37*
G36*
X796730D02*
X791988D01*
X792879Y383329D01*
X794579Y381629D01*
X796730Y380738D01*
Y385480D01*
D02*
G37*
G36*
X32270Y376012D02*
Y371270D01*
X37012D01*
X36121Y373421D01*
X34421Y375121D01*
X32270Y376012D01*
D02*
G37*
G36*
X29730D02*
X27579Y375121D01*
X25879Y373421D01*
X24988Y371270D01*
X29730D01*
Y376012D01*
D02*
G37*
G36*
X470995Y606450D02*
X469005D01*
X467168Y605689D01*
X465761Y604282D01*
X465000Y602444D01*
Y600455D01*
X465761Y598618D01*
X467168Y597211D01*
X467451Y597094D01*
Y394210D01*
X466918Y393989D01*
X465511Y392582D01*
X464750Y390745D01*
Y388755D01*
X465511Y386918D01*
X466918Y385511D01*
X468755Y384750D01*
X470745D01*
X472582Y385511D01*
X473681Y386610D01*
X474951Y386175D01*
Y346710D01*
X474418Y346489D01*
X473011Y345082D01*
X472250Y343245D01*
Y341255D01*
X473011Y339418D01*
X474418Y338011D01*
X476255Y337250D01*
X478245D01*
X480082Y338011D01*
X481181Y339110D01*
X482451Y338675D01*
Y301736D01*
X481384Y300669D01*
X480623Y298832D01*
Y296842D01*
X481384Y295005D01*
X482790Y293598D01*
X484628Y292837D01*
X486617D01*
X488455Y293598D01*
X488681Y293824D01*
X489951Y293298D01*
Y259063D01*
X489168Y258739D01*
X487761Y257332D01*
X487000Y255494D01*
Y253505D01*
X487761Y251668D01*
X489168Y250261D01*
X491005Y249500D01*
X492994D01*
X494832Y250261D01*
X496181Y251610D01*
X496476Y251591D01*
X497451Y251276D01*
Y149356D01*
X497168Y149239D01*
X495761Y147832D01*
X495000Y145995D01*
Y144005D01*
X495761Y142168D01*
X497168Y140761D01*
X499005Y140000D01*
X500995D01*
X502832Y140761D01*
X504239Y142168D01*
X505000Y144005D01*
Y145995D01*
X504239Y147832D01*
X502832Y149239D01*
X502549Y149356D01*
Y191084D01*
X503819Y191610D01*
X504668Y190761D01*
X506505Y190000D01*
X508495D01*
X510332Y190761D01*
X511739Y192168D01*
X512500Y194005D01*
Y195995D01*
X511739Y197832D01*
X510332Y199239D01*
X510049Y199356D01*
Y445134D01*
X511319Y445660D01*
X512168Y444811D01*
X514005Y444050D01*
X515995D01*
X517832Y444811D01*
X518681Y445660D01*
X519951Y445134D01*
Y428006D01*
X519668Y427889D01*
X518261Y426482D01*
X517500Y424645D01*
Y422655D01*
X518261Y420818D01*
X519668Y419411D01*
X521505Y418650D01*
X523495D01*
X525332Y419411D01*
X526181Y420260D01*
X527451Y419734D01*
Y402606D01*
X527168Y402489D01*
X525761Y401082D01*
X525000Y399244D01*
Y397255D01*
X525761Y395418D01*
X527168Y394011D01*
X529005Y393250D01*
X530995D01*
X532832Y394011D01*
X533681Y394860D01*
X534951Y394334D01*
Y377206D01*
X534668Y377089D01*
X533261Y375682D01*
X532500Y373844D01*
Y371855D01*
X533261Y370018D01*
X534668Y368611D01*
X536505Y367850D01*
X538495D01*
X540332Y368611D01*
X541739Y370018D01*
X542500Y371855D01*
Y373844D01*
X541739Y375682D01*
X540332Y377089D01*
X540049Y377206D01*
Y452394D01*
X540332Y452511D01*
X541739Y453918D01*
X542500Y455755D01*
Y457745D01*
X541739Y459582D01*
X540332Y460989D01*
X538495Y461750D01*
X536505D01*
X534668Y460989D01*
X533819Y460140D01*
X532549Y460666D01*
Y485644D01*
X532832Y485761D01*
X534239Y487168D01*
X535000Y489005D01*
Y490995D01*
X534239Y492832D01*
X532832Y494239D01*
X530995Y495000D01*
X529005D01*
X527168Y494239D01*
X526319Y493390D01*
X525049Y493916D01*
Y538144D01*
X525332Y538261D01*
X526739Y539668D01*
X527500Y541505D01*
Y543495D01*
X526739Y545332D01*
X525332Y546739D01*
X523495Y547500D01*
X521505D01*
X519668Y546739D01*
X518819Y545890D01*
X517549Y546416D01*
Y589894D01*
X517832Y590011D01*
X519239Y591418D01*
X520000Y593255D01*
Y595245D01*
X519239Y597082D01*
X517832Y598489D01*
X515995Y599250D01*
X514005D01*
X512168Y598489D01*
X510761Y597082D01*
X510000Y595245D01*
Y593255D01*
X510761Y591418D01*
X512168Y590011D01*
X512451Y589894D01*
Y478366D01*
X511181Y477840D01*
X510332Y478689D01*
X508495Y479450D01*
X506505D01*
X504668Y478689D01*
X503819Y477840D01*
X502549Y478366D01*
Y495494D01*
X502832Y495611D01*
X504239Y497018D01*
X505000Y498855D01*
Y500844D01*
X504239Y502682D01*
X502832Y504089D01*
X500995Y504850D01*
X499005D01*
X497168Y504089D01*
X496319Y503240D01*
X495049Y503766D01*
Y520894D01*
X495332Y521011D01*
X496739Y522418D01*
X497500Y524255D01*
Y526245D01*
X496739Y528082D01*
X495332Y529489D01*
X493495Y530250D01*
X491505D01*
X489668Y529489D01*
X488819Y528640D01*
X487549Y529166D01*
Y546294D01*
X487832Y546411D01*
X489239Y547818D01*
X490000Y549655D01*
Y551645D01*
X489239Y553482D01*
X487832Y554889D01*
X485995Y555650D01*
X484005D01*
X482168Y554889D01*
X481319Y554040D01*
X480049Y554566D01*
Y571694D01*
X480332Y571811D01*
X481739Y573218D01*
X482500Y575055D01*
Y577044D01*
X481739Y578882D01*
X480332Y580289D01*
X478495Y581050D01*
X476505D01*
X474668Y580289D01*
X473819Y579440D01*
X472549Y579966D01*
Y597094D01*
X472832Y597211D01*
X474239Y598618D01*
X475000Y600455D01*
Y602444D01*
X474239Y604282D01*
X472832Y605689D01*
X470995Y606450D01*
D02*
G37*
G36*
X749380Y390395D02*
X746220D01*
X743168Y389577D01*
X740432Y387997D01*
X738198Y385763D01*
X736618Y383027D01*
X735800Y379975D01*
Y376815D01*
X736618Y373763D01*
X738198Y371027D01*
X740432Y368792D01*
X743168Y367213D01*
X746220Y366395D01*
X749380D01*
X752432Y367213D01*
X755168Y368792D01*
X757402Y371027D01*
X758982Y373763D01*
X759800Y376815D01*
Y379975D01*
X758982Y383027D01*
X757402Y385763D01*
X755168Y387997D01*
X752432Y389577D01*
X749380Y390395D01*
D02*
G37*
G36*
X37012Y368730D02*
X32270D01*
Y363988D01*
X34421Y364879D01*
X36121Y366579D01*
X37012Y368730D01*
D02*
G37*
G36*
X29730D02*
X24988D01*
X25879Y366579D01*
X27579Y364879D01*
X29730Y363988D01*
Y368730D01*
D02*
G37*
G36*
X637434Y382600D02*
X634866D01*
X632387Y381935D01*
X630163Y380652D01*
X628348Y378837D01*
X627065Y376613D01*
X626400Y374133D01*
Y371566D01*
X627065Y369086D01*
X628348Y366863D01*
X630163Y365048D01*
X632387Y363764D01*
X634866Y363100D01*
X637434D01*
X639913Y363764D01*
X642137Y365048D01*
X643952Y366863D01*
X645236Y369086D01*
X645900Y371566D01*
Y374133D01*
X645236Y376613D01*
X643952Y378837D01*
X642137Y380652D01*
X639913Y381935D01*
X637434Y382600D01*
D02*
G37*
G36*
X612034D02*
X609466D01*
X606987Y381935D01*
X604763Y380652D01*
X602948Y378837D01*
X601665Y376613D01*
X601000Y374133D01*
Y371566D01*
X601665Y369086D01*
X602948Y366863D01*
X604763Y365048D01*
X606987Y363764D01*
X609466Y363100D01*
X612034D01*
X614513Y363764D01*
X616737Y365048D01*
X618552Y366863D01*
X619836Y369086D01*
X620500Y371566D01*
Y374133D01*
X619836Y376613D01*
X618552Y378837D01*
X616737Y380652D01*
X614513Y381935D01*
X612034Y382600D01*
D02*
G37*
G36*
X637434Y408000D02*
X634866D01*
X632387Y407335D01*
X630163Y406052D01*
X628348Y404236D01*
X627065Y402013D01*
X626400Y399534D01*
Y396966D01*
X627065Y394487D01*
X628348Y392263D01*
X630163Y390448D01*
X632387Y389164D01*
X634866Y388500D01*
X637434D01*
X639913Y389164D01*
X642137Y390448D01*
X643952Y392263D01*
X645236Y394487D01*
X645264Y394593D01*
X646605Y394791D01*
X652451Y388944D01*
Y356056D01*
X646774Y350379D01*
X645389Y350639D01*
X645236Y351213D01*
X643952Y353437D01*
X642137Y355252D01*
X639913Y356535D01*
X637434Y357200D01*
X634866D01*
X632387Y356535D01*
X630163Y355252D01*
X628348Y353437D01*
X627065Y351213D01*
X626400Y348733D01*
Y346166D01*
X627065Y343686D01*
X628348Y341463D01*
X630163Y339648D01*
X632387Y338364D01*
X633601Y338039D01*
Y316766D01*
X628119Y311284D01*
X627117Y311863D01*
X624701Y312510D01*
X622199D01*
X619783Y311863D01*
X617617Y310612D01*
X615848Y308843D01*
X614597Y306677D01*
X613950Y304261D01*
Y301759D01*
X614597Y299343D01*
X615848Y297177D01*
X617617Y295408D01*
X619783Y294157D01*
X622199Y293510D01*
X624701D01*
X627117Y294157D01*
X629283Y295408D01*
X631052Y297177D01*
X632303Y299343D01*
X632950Y301759D01*
Y304261D01*
X632303Y306677D01*
X631724Y307679D01*
X637952Y313908D01*
X638505Y314734D01*
X638699Y315710D01*
Y338039D01*
X639913Y338364D01*
X642137Y339648D01*
X643952Y341463D01*
X645236Y343686D01*
X645561Y344901D01*
X647450D01*
X648425Y345095D01*
X649252Y345648D01*
X656802Y353198D01*
X657355Y354025D01*
X657549Y355000D01*
Y390000D01*
X657355Y390975D01*
X656802Y391802D01*
X649202Y399402D01*
X648375Y399955D01*
X647400Y400149D01*
X645735D01*
X645236Y402013D01*
X643952Y404236D01*
X642137Y406052D01*
X639913Y407335D01*
X637434Y408000D01*
D02*
G37*
G36*
X612034Y357200D02*
X609466D01*
X606987Y356535D01*
X604763Y355252D01*
X602948Y353437D01*
X601665Y351213D01*
X601000Y348733D01*
Y346166D01*
X601665Y343686D01*
X602948Y341463D01*
X604763Y339648D01*
X606987Y338364D01*
X609466Y337700D01*
X612034D01*
X614513Y338364D01*
X616737Y339648D01*
X618552Y341463D01*
X619836Y343686D01*
X620500Y346166D01*
Y348733D01*
X619836Y351213D01*
X618552Y353437D01*
X616737Y355252D01*
X614513Y356535D01*
X612034Y357200D01*
D02*
G37*
G36*
X78270Y327762D02*
Y323020D01*
X83012D01*
X82121Y325171D01*
X80421Y326870D01*
X78270Y327762D01*
D02*
G37*
G36*
X75730D02*
X73579Y326870D01*
X71880Y325171D01*
X70988Y323020D01*
X75730D01*
Y327762D01*
D02*
G37*
G36*
X749380Y346474D02*
X746220D01*
X743168Y345656D01*
X740432Y344076D01*
X738198Y341842D01*
X736618Y339106D01*
X735800Y336054D01*
Y332894D01*
X736618Y329842D01*
X738198Y327106D01*
X740432Y324871D01*
X743168Y323292D01*
X746220Y322474D01*
X749380D01*
X752432Y323292D01*
X755168Y324871D01*
X757402Y327106D01*
X758982Y329842D01*
X759800Y332894D01*
Y336054D01*
X758982Y339106D01*
X757402Y341842D01*
X755168Y344076D01*
X752432Y345656D01*
X749380Y346474D01*
D02*
G37*
G36*
X83012Y320480D02*
X78270D01*
Y315738D01*
X80421Y316630D01*
X82121Y318329D01*
X83012Y320480D01*
D02*
G37*
G36*
X75730D02*
X70988D01*
X71880Y318329D01*
X73579Y316630D01*
X75730Y315738D01*
Y320480D01*
D02*
G37*
G36*
X808137Y312512D02*
Y307770D01*
X812878D01*
X811987Y309921D01*
X810288Y311621D01*
X808137Y312512D01*
D02*
G37*
G36*
X805597D02*
X803445Y311621D01*
X801746Y309921D01*
X800855Y307770D01*
X805597D01*
Y312512D01*
D02*
G37*
G36*
X650238Y313550D02*
X650120D01*
Y304280D01*
X659390D01*
Y304398D01*
X658672Y307078D01*
X657284Y309482D01*
X655322Y311444D01*
X652918Y312832D01*
X650238Y313550D01*
D02*
G37*
G36*
X647580D02*
X647462D01*
X644782Y312832D01*
X642378Y311444D01*
X640416Y309482D01*
X639028Y307078D01*
X638310Y304398D01*
Y304280D01*
X647580D01*
Y313550D01*
D02*
G37*
G36*
X812878Y305230D02*
X808137D01*
Y300488D01*
X810288Y301380D01*
X811987Y303079D01*
X812878Y305230D01*
D02*
G37*
G36*
X805597D02*
X800855D01*
X801746Y303079D01*
X803445Y301380D01*
X805597Y300488D01*
Y305230D01*
D02*
G37*
G36*
X607550Y312510D02*
X588550D01*
Y293510D01*
X607550D01*
Y312510D01*
D02*
G37*
G36*
X659390Y301740D02*
X650120D01*
Y292470D01*
X650238D01*
X652918Y293188D01*
X655322Y294576D01*
X657284Y296538D01*
X658672Y298942D01*
X659390Y301622D01*
Y301740D01*
D02*
G37*
G36*
X647580D02*
X638310D01*
Y301622D01*
X639028Y298942D01*
X640416Y296538D01*
X642378Y294576D01*
X644782Y293188D01*
X647462Y292470D01*
X647580D01*
Y301740D01*
D02*
G37*
G36*
X797270Y284512D02*
Y279770D01*
X802012D01*
X801121Y281921D01*
X799421Y283620D01*
X797270Y284512D01*
D02*
G37*
G36*
X794730D02*
X792579Y283620D01*
X790880Y281921D01*
X789988Y279770D01*
X794730D01*
Y284512D01*
D02*
G37*
G36*
X749380Y302553D02*
X746220D01*
X743168Y301735D01*
X740432Y300155D01*
X738198Y297921D01*
X736618Y295185D01*
X735800Y292133D01*
Y288973D01*
X736618Y285921D01*
X738198Y283185D01*
X740432Y280950D01*
X743168Y279371D01*
X746220Y278553D01*
X749380D01*
X752432Y279371D01*
X755168Y280950D01*
X757402Y283185D01*
X758982Y285921D01*
X759800Y288973D01*
Y292133D01*
X758982Y295185D01*
X757402Y297921D01*
X755168Y300155D01*
X752432Y301735D01*
X749380Y302553D01*
D02*
G37*
G36*
X802012Y277230D02*
X797270D01*
Y272488D01*
X799421Y273379D01*
X801121Y275079D01*
X802012Y277230D01*
D02*
G37*
G36*
X794730D02*
X789988D01*
X790880Y275079D01*
X792579Y273379D01*
X794730Y272488D01*
Y277230D01*
D02*
G37*
G36*
X612138Y269860D02*
X612020D01*
Y260590D01*
X621290D01*
Y260708D01*
X620572Y263388D01*
X619184Y265792D01*
X617222Y267754D01*
X614818Y269142D01*
X612138Y269860D01*
D02*
G37*
G36*
X609480D02*
X609362D01*
X606682Y269142D01*
X604278Y267754D01*
X602316Y265792D01*
X600928Y263388D01*
X600210Y260708D01*
Y260590D01*
X609480D01*
Y269860D01*
D02*
G37*
G36*
X38500Y276900D02*
X19500D01*
Y257900D01*
X38500D01*
Y276900D01*
D02*
G37*
G36*
X621290Y258050D02*
X612020D01*
Y248780D01*
X612138D01*
X614818Y249498D01*
X617222Y250886D01*
X619184Y252848D01*
X620572Y255252D01*
X621290Y257932D01*
Y258050D01*
D02*
G37*
G36*
X609480D02*
X600210D01*
Y257932D01*
X600928Y255252D01*
X602316Y252848D01*
X604278Y250886D01*
X606682Y249498D01*
X609362Y248780D01*
X609480D01*
Y258050D01*
D02*
G37*
G36*
X545995Y367500D02*
X544005D01*
X542168Y366739D01*
X540761Y365332D01*
X540000Y363495D01*
Y361505D01*
X540761Y359668D01*
X542168Y358261D01*
X542451Y358144D01*
Y351856D01*
X542168Y351739D01*
X540761Y350332D01*
X540000Y348495D01*
Y346505D01*
X540761Y344668D01*
X542168Y343261D01*
X542451Y343144D01*
Y328106D01*
X542168Y327989D01*
X540761Y326582D01*
X540000Y324744D01*
Y322755D01*
X540761Y320918D01*
X542168Y319511D01*
X542451Y319394D01*
Y284063D01*
X541668Y283739D01*
X540261Y282332D01*
X539500Y280495D01*
Y278505D01*
X540261Y276668D01*
X541668Y275261D01*
X542451Y274937D01*
Y250022D01*
X541261Y248832D01*
X540500Y246995D01*
Y245005D01*
X541261Y243168D01*
X542668Y241761D01*
X544505Y241000D01*
X546495D01*
X548332Y241761D01*
X549739Y243168D01*
X550500Y245005D01*
Y246995D01*
X549739Y248832D01*
X548332Y250239D01*
X547549Y250563D01*
Y275478D01*
X548739Y276668D01*
X549500Y278505D01*
Y280495D01*
X548739Y282332D01*
X547549Y283522D01*
Y319394D01*
X547832Y319511D01*
X549239Y320918D01*
X550000Y322755D01*
Y324744D01*
X549239Y326582D01*
X547832Y327989D01*
X547549Y328106D01*
Y343144D01*
X547832Y343261D01*
X549239Y344668D01*
X550000Y346505D01*
Y348495D01*
X549239Y350332D01*
X547832Y351739D01*
X547549Y351856D01*
Y358144D01*
X547832Y358261D01*
X549239Y359668D01*
X550000Y361505D01*
Y363495D01*
X549239Y365332D01*
X547832Y366739D01*
X545995Y367500D01*
D02*
G37*
G36*
X645650Y268820D02*
X626650D01*
Y249820D01*
X645650D01*
Y256771D01*
X734052D01*
X737696Y253127D01*
X736618Y251260D01*
X735800Y248208D01*
Y245048D01*
X736618Y241996D01*
X738198Y239260D01*
X740432Y237025D01*
X743168Y235445D01*
X746220Y234628D01*
X749380D01*
X752432Y235445D01*
X755168Y237025D01*
X757402Y239260D01*
X758982Y241996D01*
X759800Y245048D01*
Y248208D01*
X758982Y251260D01*
X757402Y253996D01*
X755168Y256230D01*
X752432Y257810D01*
X749380Y258628D01*
X746220D01*
X743168Y257810D01*
X741301Y256732D01*
X736910Y261122D01*
X736083Y261675D01*
X735108Y261869D01*
X645650D01*
Y268820D01*
D02*
G37*
G36*
X30251Y251500D02*
X27749D01*
X25333Y250853D01*
X23167Y249602D01*
X21398Y247833D01*
X20147Y245667D01*
X19500Y243251D01*
Y240749D01*
X20147Y238333D01*
X21398Y236167D01*
X23167Y234398D01*
X25333Y233147D01*
X27749Y232500D01*
X30251D01*
X32667Y233147D01*
X34833Y234398D01*
X36602Y236167D01*
X37853Y238333D01*
X38500Y240749D01*
Y243251D01*
X37853Y245667D01*
X36602Y247833D01*
X34833Y249602D01*
X32667Y250853D01*
X30251Y251500D01*
D02*
G37*
G36*
X812020Y230762D02*
Y226020D01*
X816762D01*
X815871Y228171D01*
X814171Y229870D01*
X812020Y230762D01*
D02*
G37*
G36*
X809480D02*
X807329Y229870D01*
X805630Y228171D01*
X804738Y226020D01*
X809480D01*
Y230762D01*
D02*
G37*
G36*
X816762Y223480D02*
X812020D01*
Y218738D01*
X814171Y219629D01*
X815871Y221329D01*
X816762Y223480D01*
D02*
G37*
G36*
X809480D02*
X804738D01*
X805630Y221329D01*
X807329Y219629D01*
X809480Y218738D01*
Y223480D01*
D02*
G37*
G36*
X612138Y226170D02*
X612020D01*
Y216900D01*
X621290D01*
Y217018D01*
X620572Y219698D01*
X619184Y222102D01*
X617222Y224064D01*
X614818Y225452D01*
X612138Y226170D01*
D02*
G37*
G36*
X609480D02*
X609362D01*
X606682Y225452D01*
X604278Y224064D01*
X602316Y222102D01*
X600928Y219698D01*
X600210Y217018D01*
Y216900D01*
X609480D01*
Y226170D01*
D02*
G37*
G36*
X331096Y599250D02*
X329107D01*
X327270Y598489D01*
X325863Y597082D01*
X325102Y595245D01*
Y593255D01*
X325863Y591418D01*
X327270Y590011D01*
X327553Y589894D01*
Y552776D01*
X327270Y552659D01*
X325863Y551252D01*
X325102Y549414D01*
Y547425D01*
X325863Y545588D01*
X327270Y544181D01*
X327553Y544064D01*
Y506936D01*
X327270Y506819D01*
X325863Y505412D01*
X325102Y503575D01*
Y501585D01*
X325863Y499748D01*
X327270Y498341D01*
X327553Y498224D01*
Y461106D01*
X327270Y460989D01*
X325863Y459582D01*
X325102Y457745D01*
Y455755D01*
X325863Y453918D01*
X327270Y452511D01*
X327553Y452394D01*
Y384750D01*
X327747Y383774D01*
X328299Y382948D01*
X353617Y357630D01*
X353500Y357346D01*
Y355357D01*
X354261Y353520D01*
X355668Y352113D01*
X355701Y352099D01*
Y315562D01*
X355168Y315341D01*
X353761Y313934D01*
X353000Y312096D01*
Y310107D01*
X353761Y308270D01*
X355168Y306863D01*
X355701Y306642D01*
Y271562D01*
X355168Y271341D01*
X353761Y269934D01*
X353000Y268096D01*
Y266107D01*
X353761Y264270D01*
X355168Y262863D01*
X355701Y262642D01*
Y225354D01*
X355668Y225341D01*
X354261Y223934D01*
X353500Y222096D01*
Y220107D01*
X353617Y219824D01*
X255342Y121549D01*
X63356D01*
X63239Y121832D01*
X61832Y123239D01*
X59995Y124000D01*
X58005D01*
X56168Y123239D01*
X54761Y121832D01*
X54000Y119995D01*
Y118005D01*
X54761Y116168D01*
X56168Y114761D01*
X58005Y114000D01*
X59995D01*
X61832Y114761D01*
X63239Y116168D01*
X63356Y116451D01*
X256398D01*
X257374Y116645D01*
X258200Y117198D01*
X357222Y216219D01*
X357505Y216102D01*
X359495D01*
X361332Y216863D01*
X362739Y218270D01*
X363500Y220107D01*
Y222096D01*
X362739Y223934D01*
X361332Y225341D01*
X360799Y225562D01*
Y262849D01*
X360832Y262863D01*
X362239Y264270D01*
X363000Y266107D01*
Y268096D01*
X362239Y269934D01*
X360832Y271341D01*
X360799Y271354D01*
Y306849D01*
X360832Y306863D01*
X362239Y308270D01*
X363000Y310107D01*
Y312096D01*
X362239Y313934D01*
X360832Y315341D01*
X360799Y315354D01*
Y351892D01*
X361332Y352113D01*
X362739Y353520D01*
X363500Y355357D01*
Y357346D01*
X362739Y359184D01*
X361332Y360591D01*
X359495Y361352D01*
X357505D01*
X357222Y361235D01*
X332651Y385806D01*
Y452394D01*
X332934Y452511D01*
X334341Y453918D01*
X335102Y455755D01*
Y457745D01*
X334341Y459582D01*
X332934Y460989D01*
X332651Y461106D01*
Y498224D01*
X332934Y498341D01*
X334341Y499748D01*
X335102Y501585D01*
Y503575D01*
X334341Y505412D01*
X332934Y506819D01*
X332651Y506936D01*
Y544064D01*
X332934Y544181D01*
X334341Y545588D01*
X335102Y547425D01*
Y549414D01*
X334341Y551252D01*
X332934Y552659D01*
X332651Y552776D01*
Y589894D01*
X332934Y590011D01*
X334341Y591418D01*
X335102Y593255D01*
Y595245D01*
X334341Y597082D01*
X332934Y598489D01*
X331096Y599250D01*
D02*
G37*
G36*
X30251Y226100D02*
X27749D01*
X25333Y225453D01*
X23167Y224202D01*
X21398Y222433D01*
X20147Y220267D01*
X19500Y217851D01*
Y215349D01*
X20147Y212933D01*
X21398Y210767D01*
X23167Y208998D01*
X25333Y207747D01*
X27749Y207100D01*
X30251D01*
X32667Y207747D01*
X34833Y208998D01*
X36602Y210767D01*
X37853Y212933D01*
X38500Y215349D01*
Y217851D01*
X37853Y220267D01*
X36602Y222433D01*
X34833Y224202D01*
X32667Y225453D01*
X30251Y226100D01*
D02*
G37*
G36*
X417770Y210512D02*
Y205770D01*
X422512D01*
X421620Y207921D01*
X419921Y209620D01*
X417770Y210512D01*
D02*
G37*
G36*
X415230D02*
X413079Y209620D01*
X411380Y207921D01*
X410488Y205770D01*
X415230D01*
Y210512D01*
D02*
G37*
G36*
X621290Y214360D02*
X612020D01*
Y205090D01*
X612138D01*
X614818Y205808D01*
X617222Y207196D01*
X619184Y209158D01*
X620572Y211562D01*
X621290Y214242D01*
Y214360D01*
D02*
G37*
G36*
X609480D02*
X600210D01*
Y214242D01*
X600928Y211562D01*
X602316Y209158D01*
X604278Y207196D01*
X606682Y205808D01*
X609362Y205090D01*
X609480D01*
Y214360D01*
D02*
G37*
G36*
X422512Y203230D02*
X417770D01*
Y198488D01*
X419921Y199380D01*
X421620Y201079D01*
X422512Y203230D01*
D02*
G37*
G36*
X415230D02*
X410488D01*
X411380Y201079D01*
X413079Y199380D01*
X415230Y198488D01*
Y203230D01*
D02*
G37*
G36*
X645650Y225130D02*
X626650D01*
Y206130D01*
X645650D01*
Y213081D01*
X733821D01*
X737696Y209206D01*
X736618Y207339D01*
X735800Y204287D01*
Y201127D01*
X736618Y198075D01*
X738198Y195339D01*
X740432Y193104D01*
X743168Y191525D01*
X746220Y190707D01*
X749380D01*
X752432Y191525D01*
X755168Y193104D01*
X757402Y195339D01*
X758982Y198075D01*
X759800Y201127D01*
Y204287D01*
X758982Y207339D01*
X757402Y210075D01*
X755168Y212309D01*
X752432Y213889D01*
X749380Y214707D01*
X746220D01*
X743168Y213889D01*
X741301Y212811D01*
X736679Y217432D01*
X735852Y217985D01*
X734877Y218179D01*
X645650D01*
Y225130D01*
D02*
G37*
G36*
X800020Y188762D02*
Y184020D01*
X804762D01*
X803870Y186171D01*
X802171Y187871D01*
X800020Y188762D01*
D02*
G37*
G36*
X797480D02*
X795329Y187871D01*
X793630Y186171D01*
X792738Y184020D01*
X797480D01*
Y188762D01*
D02*
G37*
G36*
X804762Y181480D02*
X800020D01*
Y176738D01*
X802171Y177630D01*
X803870Y179329D01*
X804762Y181480D01*
D02*
G37*
G36*
X797480D02*
X792738D01*
X793630Y179329D01*
X795329Y177630D01*
X797480Y176738D01*
Y181480D01*
D02*
G37*
G36*
X612138Y182480D02*
X612020D01*
Y173210D01*
X621290D01*
Y173328D01*
X620572Y176008D01*
X619184Y178412D01*
X617222Y180374D01*
X614818Y181762D01*
X612138Y182480D01*
D02*
G37*
G36*
X609480D02*
X609362D01*
X606682Y181762D01*
X604278Y180374D01*
X602316Y178412D01*
X600928Y176008D01*
X600210Y173328D01*
Y173210D01*
X609480D01*
Y182480D01*
D02*
G37*
G36*
X645650Y181440D02*
X626650D01*
Y162440D01*
X645650D01*
Y181440D01*
D02*
G37*
G36*
X621290Y170670D02*
X612020D01*
Y161400D01*
X612138D01*
X614818Y162118D01*
X617222Y163506D01*
X619184Y165468D01*
X620572Y167872D01*
X621290Y170552D01*
Y170670D01*
D02*
G37*
G36*
X609480D02*
X600210D01*
Y170552D01*
X600928Y167872D01*
X602316Y165468D01*
X604278Y163506D01*
X606682Y162118D01*
X609362Y161400D01*
X609480D01*
Y170670D01*
D02*
G37*
G36*
X417770Y160512D02*
Y155770D01*
X422512D01*
X421620Y157921D01*
X419921Y159621D01*
X417770Y160512D01*
D02*
G37*
G36*
X415230D02*
X413079Y159621D01*
X411380Y157921D01*
X410488Y155770D01*
X415230D01*
Y160512D01*
D02*
G37*
G36*
X422512Y153230D02*
X417770D01*
Y148488D01*
X419921Y149380D01*
X421620Y151079D01*
X422512Y153230D01*
D02*
G37*
G36*
X415230D02*
X410488D01*
X411380Y151079D01*
X413079Y149380D01*
X415230Y148488D01*
Y153230D01*
D02*
G37*
G36*
X749380Y170786D02*
X746220D01*
X743168Y169968D01*
X740432Y168388D01*
X738198Y166154D01*
X736618Y163418D01*
X736060Y161335D01*
X728786D01*
X727810Y161141D01*
X726983Y160588D01*
X666635Y100239D01*
X666169Y100508D01*
X664147Y101050D01*
X662053D01*
X660031Y100508D01*
X658219Y99462D01*
X656738Y97981D01*
X655692Y96169D01*
X655150Y94147D01*
Y92053D01*
X655692Y90031D01*
X656738Y88219D01*
X658219Y86738D01*
X660031Y85692D01*
X662053Y85150D01*
X664147D01*
X666169Y85692D01*
X667981Y86738D01*
X669462Y88219D01*
X670508Y90031D01*
X671050Y92053D01*
Y94147D01*
X670508Y96169D01*
X670239Y96635D01*
X729842Y156237D01*
X736060D01*
X736618Y154154D01*
X738198Y151418D01*
X740432Y149183D01*
X743168Y147604D01*
X746220Y146786D01*
X749380D01*
X752432Y147604D01*
X755168Y149183D01*
X757402Y151418D01*
X758982Y154154D01*
X759800Y157206D01*
Y160366D01*
X758982Y163418D01*
X757402Y166154D01*
X755168Y168388D01*
X752432Y169968D01*
X749380Y170786D01*
D02*
G37*
G36*
X61270Y148512D02*
Y143770D01*
X66012D01*
X65121Y145921D01*
X63421Y147620D01*
X61270Y148512D01*
D02*
G37*
G36*
X58730D02*
X56579Y147620D01*
X54879Y145921D01*
X53988Y143770D01*
X58730D01*
Y148512D01*
D02*
G37*
G36*
X66012Y141230D02*
X61270D01*
Y136488D01*
X63421Y137380D01*
X65121Y139079D01*
X66012Y141230D01*
D02*
G37*
G36*
X58730D02*
X53988D01*
X54879Y139079D01*
X56579Y137380D01*
X58730Y136488D01*
Y141230D01*
D02*
G37*
G36*
X612138Y138790D02*
X612020D01*
Y129520D01*
X621290D01*
Y129638D01*
X620572Y132318D01*
X619184Y134722D01*
X617222Y136684D01*
X614818Y138072D01*
X612138Y138790D01*
D02*
G37*
G36*
X609480D02*
X609362D01*
X606682Y138072D01*
X604278Y136684D01*
X602316Y134722D01*
X600928Y132318D01*
X600210Y129638D01*
Y129520D01*
X609480D01*
Y138790D01*
D02*
G37*
G36*
X645650Y137750D02*
X626650D01*
Y118750D01*
X645650D01*
Y137750D01*
D02*
G37*
G36*
X621290Y126980D02*
X612020D01*
Y117710D01*
X612138D01*
X614818Y118428D01*
X617222Y119816D01*
X619184Y121778D01*
X620572Y124182D01*
X621290Y126862D01*
Y126980D01*
D02*
G37*
G36*
X609480D02*
X600210D01*
Y126862D01*
X600928Y124182D01*
X602316Y121778D01*
X604278Y119816D01*
X606682Y118428D01*
X609362Y117710D01*
X609480D01*
Y126980D01*
D02*
G37*
G36*
X749380Y127842D02*
X746220D01*
X743168Y127024D01*
X740432Y125444D01*
X738198Y123210D01*
X736618Y120474D01*
X735800Y117422D01*
Y114262D01*
X736618Y111210D01*
X738198Y108474D01*
X740432Y106240D01*
X743168Y104660D01*
X746220Y103842D01*
X749380D01*
X752432Y104660D01*
X755168Y106240D01*
X757402Y108474D01*
X758982Y111210D01*
X759800Y114262D01*
Y117422D01*
X758982Y120474D01*
X757402Y123210D01*
X755168Y125444D01*
X752432Y127024D01*
X749380Y127842D01*
D02*
G37*
G36*
X504338Y102540D02*
X504220D01*
Y93270D01*
X513490D01*
Y93388D01*
X512772Y96068D01*
X511384Y98472D01*
X509422Y100434D01*
X507018Y101822D01*
X504338Y102540D01*
D02*
G37*
G36*
X501680D02*
X501562D01*
X498882Y101822D01*
X496478Y100434D01*
X494516Y98472D01*
X493128Y96068D01*
X492410Y93388D01*
Y93270D01*
X501680D01*
Y102540D01*
D02*
G37*
G36*
X696450Y101050D02*
X680550D01*
Y85150D01*
X696450D01*
Y101050D01*
D02*
G37*
G36*
X613347D02*
X611253D01*
X609231Y100508D01*
X607419Y99462D01*
X605938Y97981D01*
X604892Y96169D01*
X604350Y94147D01*
Y92053D01*
X604892Y90031D01*
X605938Y88219D01*
X607419Y86738D01*
X609231Y85692D01*
X611253Y85150D01*
X613347D01*
X615369Y85692D01*
X617181Y86738D01*
X618662Y88219D01*
X619708Y90031D01*
X620250Y92053D01*
Y94147D01*
X619708Y96169D01*
X618662Y97981D01*
X617181Y99462D01*
X615369Y100508D01*
X613347Y101050D01*
D02*
G37*
G36*
X587947D02*
X585853D01*
X583831Y100508D01*
X582019Y99462D01*
X580538Y97981D01*
X579492Y96169D01*
X578950Y94147D01*
Y92053D01*
X579492Y90031D01*
X580538Y88219D01*
X582019Y86738D01*
X583831Y85692D01*
X585853Y85150D01*
X587947D01*
X589969Y85692D01*
X591781Y86738D01*
X593262Y88219D01*
X594308Y90031D01*
X594850Y92053D01*
Y94147D01*
X594308Y96169D01*
X593262Y97981D01*
X591781Y99462D01*
X589969Y100508D01*
X587947Y101050D01*
D02*
G37*
G36*
X552500Y112549D02*
X444750D01*
X443775Y112355D01*
X442948Y111802D01*
X431419Y100274D01*
X430417Y100853D01*
X428001Y101500D01*
X425499D01*
X423083Y100853D01*
X420917Y99602D01*
X419148Y97833D01*
X417897Y95667D01*
X417250Y93251D01*
Y90749D01*
X417897Y88333D01*
X419148Y86167D01*
X420917Y84398D01*
X423083Y83147D01*
X425499Y82500D01*
X428001D01*
X430417Y83147D01*
X432583Y84398D01*
X434352Y86167D01*
X435603Y88333D01*
X436250Y90749D01*
Y93251D01*
X435603Y95667D01*
X435024Y96669D01*
X445806Y107451D01*
X551444D01*
X557401Y101494D01*
Y99913D01*
X556619Y99462D01*
X555138Y97981D01*
X554092Y96169D01*
X553550Y94147D01*
Y92053D01*
X554092Y90031D01*
X555138Y88219D01*
X556619Y86738D01*
X558431Y85692D01*
X560453Y85150D01*
X562547D01*
X564569Y85692D01*
X566381Y86738D01*
X567862Y88219D01*
X568908Y90031D01*
X569450Y92053D01*
Y94147D01*
X568908Y96169D01*
X567862Y97981D01*
X566381Y99462D01*
X564569Y100508D01*
X562547Y101050D01*
X562499D01*
Y102550D01*
X562305Y103525D01*
X561752Y104352D01*
X554302Y111802D01*
X553475Y112355D01*
X552500Y112549D01*
D02*
G37*
G36*
X478801Y101500D02*
X476299D01*
X473883Y100853D01*
X471717Y99602D01*
X469948Y97833D01*
X468697Y95667D01*
X468050Y93251D01*
Y90749D01*
X468697Y88333D01*
X469948Y86167D01*
X471717Y84398D01*
X473883Y83147D01*
X476299Y82500D01*
X478801D01*
X481217Y83147D01*
X483383Y84398D01*
X485152Y86167D01*
X486403Y88333D01*
X487050Y90749D01*
Y93251D01*
X486403Y95667D01*
X485152Y97833D01*
X483383Y99602D01*
X481217Y100853D01*
X478801Y101500D01*
D02*
G37*
G36*
X453401D02*
X450899D01*
X448483Y100853D01*
X446317Y99602D01*
X444548Y97833D01*
X443297Y95667D01*
X442650Y93251D01*
Y90749D01*
X443297Y88333D01*
X444548Y86167D01*
X446317Y84398D01*
X448483Y83147D01*
X450899Y82500D01*
X453401D01*
X455817Y83147D01*
X457983Y84398D01*
X459752Y86167D01*
X461003Y88333D01*
X461650Y90749D01*
Y93251D01*
X461003Y95667D01*
X459752Y97833D01*
X457983Y99602D01*
X455817Y100853D01*
X453401Y101500D01*
D02*
G37*
G36*
X513490Y90730D02*
X504220D01*
Y81460D01*
X504338D01*
X507018Y82178D01*
X509422Y83566D01*
X511384Y85528D01*
X512772Y87932D01*
X513490Y90612D01*
Y90730D01*
D02*
G37*
G36*
X501680D02*
X492410D01*
Y90612D01*
X493128Y87932D01*
X494516Y85528D01*
X496478Y83566D01*
X498882Y82178D01*
X501562Y81460D01*
X501680D01*
Y90730D01*
D02*
G37*
G36*
X77770Y74012D02*
Y69270D01*
X82512D01*
X81621Y71421D01*
X79921Y73120D01*
X77770Y74012D01*
D02*
G37*
G36*
X75230D02*
X73079Y73120D01*
X71379Y71421D01*
X70488Y69270D01*
X75230D01*
Y74012D01*
D02*
G37*
G36*
X82512Y66730D02*
X77770D01*
Y61988D01*
X79921Y62880D01*
X81621Y64579D01*
X82512Y66730D01*
D02*
G37*
G36*
X75230D02*
X70488D01*
X71379Y64579D01*
X73079Y62880D01*
X75230Y61988D01*
Y66730D01*
D02*
G37*
G36*
X352250Y79150D02*
X333250D01*
Y60150D01*
X352250D01*
Y79150D01*
D02*
G37*
G36*
X344138Y54790D02*
X344020D01*
Y45520D01*
X353290D01*
Y45638D01*
X352572Y48318D01*
X351184Y50722D01*
X349222Y52684D01*
X346818Y54072D01*
X344138Y54790D01*
D02*
G37*
G36*
X341480D02*
X341362D01*
X338682Y54072D01*
X336278Y52684D01*
X334316Y50722D01*
X332928Y48318D01*
X332210Y45638D01*
Y45520D01*
X341480D01*
Y54790D01*
D02*
G37*
G36*
X42561Y72540D02*
X41270D01*
Y41270D01*
X72540D01*
Y42561D01*
X71739Y47620D01*
X70156Y52491D01*
X67831Y57055D01*
X64820Y61198D01*
X61198Y64820D01*
X57055Y67831D01*
X52491Y70156D01*
X47620Y71739D01*
X42561Y72540D01*
D02*
G37*
G36*
X38730D02*
X37439D01*
X32380Y71739D01*
X27509Y70156D01*
X22945Y67831D01*
X18802Y64820D01*
X15180Y61198D01*
X12169Y57055D01*
X9844Y52491D01*
X8261Y47620D01*
X7460Y42561D01*
Y41270D01*
X38730D01*
Y72540D01*
D02*
G37*
G36*
X353290Y42980D02*
X344020D01*
Y33710D01*
X344138D01*
X346818Y34428D01*
X349222Y35816D01*
X351184Y37778D01*
X352572Y40182D01*
X353290Y42862D01*
Y42980D01*
D02*
G37*
G36*
X341480D02*
X332210D01*
Y42862D01*
X332928Y40182D01*
X334316Y37778D01*
X336278Y35816D01*
X338682Y34428D01*
X341362Y33710D01*
X341480D01*
Y42980D01*
D02*
G37*
G36*
X483187Y30230D02*
X476370D01*
Y23413D01*
X478242Y23915D01*
X480098Y24986D01*
X481614Y26502D01*
X482685Y28358D01*
X483187Y30230D01*
D02*
G37*
G36*
X344001Y28350D02*
X341499D01*
X339083Y27703D01*
X336917Y26452D01*
X335148Y24683D01*
X333897Y22517D01*
X333250Y20101D01*
Y17599D01*
X333897Y15183D01*
X335148Y13017D01*
X336917Y11248D01*
X339083Y9997D01*
X341499Y9350D01*
X344001D01*
X346417Y9997D01*
X348583Y11248D01*
X350352Y13017D01*
X351603Y15183D01*
X352250Y17599D01*
Y20101D01*
X351603Y22517D01*
X350352Y24683D01*
X348583Y26452D01*
X346417Y27703D01*
X344001Y28350D01*
D02*
G37*
G36*
X72540Y38730D02*
X41270D01*
Y7460D01*
X42561D01*
X47620Y8261D01*
X52491Y9844D01*
X57055Y12169D01*
X61198Y15180D01*
X64820Y18802D01*
X67831Y22945D01*
X70156Y27509D01*
X71739Y32380D01*
X72540Y37439D01*
Y38730D01*
D02*
G37*
G36*
X38730D02*
X7460D01*
Y37439D01*
X8261Y32380D01*
X9844Y27509D01*
X12169Y22945D01*
X15180Y18802D01*
X18802Y15180D01*
X22945Y12169D01*
X27509Y9844D01*
X32380Y8261D01*
X37439Y7460D01*
X38730D01*
Y38730D01*
D02*
G37*
G36*
X710020Y69512D02*
Y64770D01*
X714762D01*
X713870Y66921D01*
X712171Y68621D01*
X710020Y69512D01*
D02*
G37*
G36*
X707480D02*
X705329Y68621D01*
X703630Y66921D01*
X702738Y64770D01*
X707480D01*
Y69512D01*
D02*
G37*
G36*
X749517Y41040D02*
X749070D01*
Y29270D01*
X760840D01*
Y29717D01*
X759951Y33033D01*
X758235Y36007D01*
X755807Y38435D01*
X752833Y40151D01*
X749517Y41040D01*
D02*
G37*
G36*
X746530D02*
X746083D01*
X742767Y40151D01*
X739793Y38435D01*
X737365Y36007D01*
X735649Y33033D01*
X734760Y29717D01*
Y29270D01*
X746530D01*
Y41040D01*
D02*
G37*
G36*
X760840Y26730D02*
X749070D01*
Y14960D01*
X749517D01*
X752833Y15849D01*
X755807Y17565D01*
X758235Y19993D01*
X759951Y22967D01*
X760840Y26283D01*
Y26730D01*
D02*
G37*
G36*
X746530D02*
X734760D01*
Y26283D01*
X735649Y22967D01*
X737365Y19993D01*
X739793Y17565D01*
X742767Y15849D01*
X746083Y14960D01*
X746530D01*
Y26730D01*
D02*
G37*
G36*
X664147Y24850D02*
X662053D01*
X660031Y24308D01*
X658219Y23262D01*
X656738Y21781D01*
X655692Y19969D01*
X655150Y17947D01*
Y15853D01*
X655692Y13831D01*
X656738Y12019D01*
X658219Y10538D01*
X660031Y9492D01*
X662053Y8950D01*
X664147D01*
X666169Y9492D01*
X667981Y10538D01*
X669462Y12019D01*
X670508Y13831D01*
X671050Y15853D01*
Y17947D01*
X670508Y19969D01*
X669462Y21781D01*
X667981Y23262D01*
X666169Y24308D01*
X664147Y24850D01*
D02*
G37*
G36*
X638747D02*
X636653D01*
X634631Y24308D01*
X632819Y23262D01*
X631338Y21781D01*
X630292Y19969D01*
X629750Y17947D01*
Y15853D01*
X630292Y13831D01*
X631338Y12019D01*
X632819Y10538D01*
X634631Y9492D01*
X636653Y8950D01*
X638747D01*
X640769Y9492D01*
X642581Y10538D01*
X644062Y12019D01*
X645108Y13831D01*
X645650Y15853D01*
Y17947D01*
X645108Y19969D01*
X644062Y21781D01*
X642581Y23262D01*
X640769Y24308D01*
X638747Y24850D01*
D02*
G37*
G36*
X587947D02*
X585853D01*
X583831Y24308D01*
X582019Y23262D01*
X580538Y21781D01*
X579492Y19969D01*
X578950Y17947D01*
Y15853D01*
X579492Y13831D01*
X580538Y12019D01*
X582019Y10538D01*
X583831Y9492D01*
X585853Y8950D01*
X587947D01*
X589969Y9492D01*
X591781Y10538D01*
X593262Y12019D01*
X594308Y13831D01*
X594850Y15853D01*
Y17947D01*
X594308Y19969D01*
X593262Y21781D01*
X591781Y23262D01*
X589969Y24308D01*
X587947Y24850D01*
D02*
G37*
G36*
X562547D02*
X560453D01*
X558431Y24308D01*
X556619Y23262D01*
X555138Y21781D01*
X554092Y19969D01*
X553550Y17947D01*
Y15853D01*
X554092Y13831D01*
X555138Y12019D01*
X556619Y10538D01*
X558431Y9492D01*
X560453Y8950D01*
X562547D01*
X564569Y9492D01*
X566381Y10538D01*
X567862Y12019D01*
X568908Y13831D01*
X569450Y15853D01*
Y17947D01*
X568908Y19969D01*
X567862Y21781D01*
X566381Y23262D01*
X564569Y24308D01*
X562547Y24850D01*
D02*
G37*
%LPD*%
D10*
X545000Y246500D02*
X545500Y246000D01*
X545000Y246500D02*
Y323750D01*
X718250Y87500D02*
X827500D01*
X693250Y62500D02*
X718250Y87500D01*
X592500Y62500D02*
X693250D01*
X492500Y254500D02*
Y525250D01*
X485000Y550650D02*
X485000Y297837D01*
X477500Y342250D02*
Y576050D01*
X470000Y389750D02*
Y601450D01*
X545000Y347500D02*
Y358144D01*
Y323750D02*
Y347500D01*
X515000Y449050D02*
Y592500D01*
X636150Y347450D02*
X647450D01*
X655000Y355000D02*
Y390000D01*
X647450Y347450D02*
X655000Y355000D01*
X647400Y397600D02*
X655000Y390000D01*
X636800Y397600D02*
X647400D01*
X636150Y398250D02*
X636800Y397600D01*
X892500Y82500D02*
X905000Y95000D01*
Y305000D01*
X885000Y115000D02*
X897500Y127500D01*
Y312500D01*
X890000Y170000D02*
Y320000D01*
X880000Y160000D02*
X890000Y170000D01*
X875000Y202500D02*
X882500Y210000D01*
Y365000D01*
X875000Y247500D02*
Y372500D01*
X663100Y43828D02*
X664272Y45000D01*
X867500Y105000D02*
Y352500D01*
X664272Y45000D02*
X807500D01*
X867500Y105000D01*
X860543Y341872D02*
Y344043D01*
X862500Y357500D02*
X867500Y352500D01*
X860000Y341328D02*
X860543Y341872D01*
Y344043D02*
X861500Y345000D01*
X860000Y110000D02*
Y341328D01*
X803839Y53839D02*
X860000Y110000D01*
X867500Y397500D02*
X895000Y370000D01*
Y337500D02*
Y370000D01*
X867500Y397500D02*
Y497500D01*
X855000Y510000D02*
X867500Y497500D01*
X852000Y331498D02*
Y466237D01*
X545000Y53839D02*
X803839Y53839D01*
X358250Y221352D02*
Y310852D01*
Y311352D02*
Y356102D01*
X358500Y356352D01*
X358000Y311102D02*
X358250Y311352D01*
X330102Y384750D02*
X358500Y356352D01*
X330102Y384750D02*
Y456750D01*
Y548420D02*
Y594250D01*
Y502580D02*
Y548420D01*
Y456750D02*
Y502580D01*
X358000Y311102D02*
X358250Y310852D01*
Y221352D02*
X358500Y221102D01*
X59000Y119000D02*
X256398D01*
X358500Y221102D01*
X663100Y93100D02*
X728786Y158786D01*
X747800D01*
X570000Y44400D02*
X663100D01*
X522500Y423650D02*
Y542500D01*
X636150Y259320D02*
X735108D01*
X747800Y246628D01*
X636150Y215630D02*
X734877D01*
X747800Y202707D01*
X545000Y358144D02*
Y362500D01*
X500000Y145000D02*
X500000Y499850D01*
X507500Y195000D02*
Y474450D01*
X401350Y78672D02*
Y92000D01*
X402522Y77500D02*
X622100D01*
X637700Y93100D01*
X401350Y78672D02*
X402522Y77500D01*
X482500Y55000D02*
X500000Y37500D01*
X591700D01*
X439000Y55000D02*
X482500D01*
X437000Y53000D02*
X439000Y55000D01*
X682500Y5000D02*
X686768Y9268D01*
X522500Y5000D02*
X682500D01*
X686768Y15168D02*
X688500Y16900D01*
X686768Y9268D02*
Y15168D01*
X483700Y43800D02*
X522500Y5000D01*
X475100Y44200D02*
X475500Y43800D01*
X483700D01*
X591700Y37500D02*
X612300Y16900D01*
X830000Y377000D02*
Y547000D01*
X838000Y369000D02*
Y524000D01*
X580000Y70000D02*
X692500D01*
X717500Y95000D01*
X845000Y338000D02*
Y422316D01*
X717500Y95000D02*
X817500D01*
X827500Y87500D02*
X838000Y98000D01*
X817500Y95000D02*
X830000Y107500D01*
X437000Y44200D02*
Y53000D01*
X444750Y110000D02*
X552500D01*
X426750Y92000D02*
X444750Y110000D01*
X552500D02*
X559950Y102550D01*
Y94650D02*
Y102550D01*
Y94650D02*
X561500Y93100D01*
X537500Y372850D02*
Y456750D01*
X530000Y398250D02*
Y490000D01*
X608600Y375000D02*
X610750Y372850D01*
X623450Y303010D02*
X636150Y315710D01*
Y347450D01*
X852000Y331278D02*
X852220Y331498D01*
X845000Y336902D02*
X845098Y337000D01*
X838000Y98000D02*
X838000Y369000D01*
X837904Y369096D02*
X838000Y369000D01*
X830000Y107500D02*
X830000Y377000D01*
D29*
X688500Y93100D02*
D03*
D30*
X663100D02*
D03*
X637700D02*
D03*
X612300D02*
D03*
X586900D02*
D03*
X561500D02*
D03*
Y16900D02*
D03*
X586900D02*
D03*
X612300D02*
D03*
X637700D02*
D03*
X663100D02*
D03*
X688500D02*
D03*
D35*
X437000Y44200D02*
D03*
X475100D02*
D03*
X462400D02*
D03*
X449700D02*
D03*
X424300D02*
D03*
X475100Y31500D02*
D03*
X462400D02*
D03*
X449700D02*
D03*
X437000D02*
D03*
D38*
X424300D02*
D03*
D41*
X610750Y215630D02*
D03*
Y171940D02*
D03*
Y128250D02*
D03*
Y259320D02*
D03*
X648850Y303010D02*
D03*
X623450D02*
D03*
X29000Y242000D02*
D03*
Y216600D02*
D03*
X342750Y44250D02*
D03*
Y18850D02*
D03*
X502950Y92000D02*
D03*
X477550D02*
D03*
X426750D02*
D03*
X452150D02*
D03*
D42*
X636150Y215630D02*
D03*
Y171940D02*
D03*
Y128250D02*
D03*
Y259320D02*
D03*
X598050Y303010D02*
D03*
X401350Y92000D02*
D03*
D43*
X636150Y398250D02*
D03*
X610750D02*
D03*
X636150Y449050D02*
D03*
X610750D02*
D03*
X636150Y525250D02*
D03*
X610750D02*
D03*
X636150Y550650D02*
D03*
X610750D02*
D03*
X636150Y601450D02*
D03*
X610750Y576050D02*
D03*
X636150D02*
D03*
X610750Y499850D02*
D03*
X636150D02*
D03*
X610750Y474450D02*
D03*
X636150D02*
D03*
X610750Y423650D02*
D03*
X636150D02*
D03*
X610750Y372850D02*
D03*
Y347450D02*
D03*
X636150Y372850D02*
D03*
Y347450D02*
D03*
D44*
X610750Y601450D02*
D03*
D45*
X29000Y267400D02*
D03*
X342750Y69650D02*
D03*
D46*
X747800Y28000D02*
D03*
Y246628D02*
D03*
Y115842D02*
D03*
Y202707D02*
D03*
Y158786D02*
D03*
Y71921D02*
D03*
Y510158D02*
D03*
Y554079D02*
D03*
Y598000D02*
D03*
Y422316D02*
D03*
Y378395D02*
D03*
Y334474D02*
D03*
Y290553D02*
D03*
Y466237D02*
D03*
D47*
X855000Y40000D02*
D03*
Y585000D02*
D03*
X40000D02*
D03*
Y40000D02*
D03*
D48*
X847250Y232500D02*
D03*
X846750Y265750D02*
D03*
X798750Y182750D02*
D03*
X810750Y224750D02*
D03*
X796000Y278500D02*
D03*
X797000Y445250D02*
D03*
X798000Y386750D02*
D03*
X545500Y246000D02*
D03*
X708750Y63500D02*
D03*
X762000Y477500D02*
D03*
X761500Y434250D02*
D03*
Y406750D02*
D03*
X433000Y410000D02*
D03*
X563000Y409000D02*
D03*
X561750Y484500D02*
D03*
X559750Y536250D02*
D03*
X559500Y587250D02*
D03*
X297250Y569500D02*
D03*
X85500Y568250D02*
D03*
X892500Y82500D02*
D03*
X885000Y115000D02*
D03*
X905000Y305000D02*
D03*
X897500Y312500D02*
D03*
X890000Y320000D02*
D03*
X880000Y160000D02*
D03*
X875000Y202500D02*
D03*
X882500Y365000D02*
D03*
X875000Y372500D02*
D03*
Y247500D02*
D03*
X867500Y257500D02*
D03*
X861500Y345000D02*
D03*
X862500Y357500D02*
D03*
X895000Y337500D02*
D03*
X852250Y466237D02*
D03*
X855000Y510000D02*
D03*
X330102Y594250D02*
D03*
Y548420D02*
D03*
Y502580D02*
D03*
Y456750D02*
D03*
X358500Y356352D02*
D03*
X358000Y311102D02*
D03*
Y267102D02*
D03*
X358500Y221102D02*
D03*
X545000Y52500D02*
D03*
X570000Y45000D02*
D03*
X806867Y306500D02*
D03*
X434900Y594500D02*
D03*
Y548670D02*
D03*
Y502830D02*
D03*
Y457000D02*
D03*
X416500Y204500D02*
D03*
Y154500D02*
D03*
X31000Y370000D02*
D03*
X77000Y321750D02*
D03*
X76500Y449000D02*
D03*
X59000Y119000D02*
D03*
X60000Y142500D02*
D03*
X485623Y297837D02*
D03*
X500000Y145000D02*
D03*
X492000Y254500D02*
D03*
X507500Y195000D02*
D03*
X544500Y279500D02*
D03*
X545000Y323750D02*
D03*
X477250Y342250D02*
D03*
X545000Y362500D02*
D03*
X469750Y389750D02*
D03*
X537500Y456750D02*
D03*
X530000Y490000D02*
D03*
X522500Y542500D02*
D03*
X515000Y594250D02*
D03*
X580000Y70000D02*
D03*
X592500Y62500D02*
D03*
X663100Y44400D02*
D03*
X545000Y347500D02*
D03*
X537500Y372850D02*
D03*
X530000Y398250D02*
D03*
X522500Y423650D02*
D03*
X515000Y449050D02*
D03*
X507500Y474450D02*
D03*
X500000Y499850D02*
D03*
X492500Y525250D02*
D03*
X485000Y550650D02*
D03*
X477500Y576050D02*
D03*
X470000Y601450D02*
D03*
X845000Y422316D02*
D03*
X838000Y524000D02*
D03*
X830250Y544000D02*
D03*
X845098Y337000D02*
D03*
X852220Y331498D02*
D03*
X837904Y369096D02*
D03*
X830000Y377000D02*
D03*
X76500Y68000D02*
D03*
X195054Y532553D02*
D03*
M02*
