G04*
G04 #@! TF.GenerationSoftware,Altium Limited,Altium Designer,22.8.2 (66)*
G04*
G04 Layer_Color=2752767*
%FSLAX44Y44*%
%MOMM*%
G71*
G04*
G04 #@! TF.SameCoordinates,3F1CDDAE-498F-410C-A07E-9CE41E262C2E*
G04*
G04*
G04 #@! TF.FilePolarity,Positive*
G04*
G01*
G75*
%ADD14C,0.2540*%
%ADD50C,0.0508*%
%ADD51C,0.3810*%
%ADD52C,0.4064*%
D14*
X1070025Y338902D02*
G03*
X1070025Y338902I-8467J0D01*
G01*
X1053092Y525168D02*
X1057325D01*
X1053092D02*
Y533635D01*
X1057325D01*
Y537868D01*
X1065792D01*
Y533635D02*
Y537868D01*
Y533635D02*
X1070025D01*
Y525168D02*
Y533635D01*
X1065792Y525168D02*
X1070025D01*
X1065792Y520935D02*
Y525168D01*
X1057325Y520935D02*
X1065792D01*
X1057325D02*
Y525168D01*
X1053092Y482835D02*
X1061559Y487068D01*
X1070025Y482835D01*
X1065792Y491302D02*
X1070025Y482835D01*
X1065792Y491302D02*
X1070025Y499768D01*
X1061559Y495535D02*
X1070025Y499768D01*
X1053092D02*
X1061559Y495535D01*
X1053092Y499768D02*
X1057325Y491302D01*
X1053092Y482835D02*
X1057325Y491302D01*
X1061559Y444735D02*
X1070025Y461668D01*
X1053092D02*
X1070025D01*
X1053092D02*
X1061559Y444735D01*
X1057325Y410868D02*
X1061559Y406635D01*
X1053092Y410868D02*
X1057325D01*
X1053092D02*
X1057325Y415102D01*
X1053092Y419335D02*
X1057325Y415102D01*
X1053092Y419335D02*
X1057325D01*
X1061559Y423568D01*
X1065792Y419335D01*
X1070025D01*
X1065792Y415102D02*
X1070025Y419335D01*
X1065792Y415102D02*
X1070025Y410868D01*
X1065792D02*
X1070025D01*
X1061559Y406635D02*
X1065792Y410868D01*
X1053092Y368535D02*
X1070025D01*
Y385468D01*
X1053092D02*
X1070025D01*
X1053092Y368535D02*
Y385468D01*
X2481756Y520935D02*
Y536170D01*
X2489374D01*
X2491913Y533631D01*
Y528553D01*
X2489374Y526013D01*
X2481756D01*
X2486835D02*
X2491913Y520935D01*
X2499531D02*
X2504609D01*
X2507148Y523474D01*
Y528553D01*
X2504609Y531092D01*
X2499531D01*
X2496991Y528553D01*
Y523474D01*
X2499531Y520935D01*
X2512227Y531092D02*
Y523474D01*
X2514766Y520935D01*
X2522383D01*
Y531092D01*
X2527462Y520935D02*
Y531092D01*
X2535079D01*
X2537618Y528553D01*
Y520935D01*
X2552853Y536170D02*
Y520935D01*
X2545236D01*
X2542697Y523474D01*
Y528553D01*
X2545236Y531092D01*
X2552853D01*
X2565549Y520935D02*
X2560471D01*
X2557932Y523474D01*
Y528553D01*
X2560471Y531092D01*
X2565549D01*
X2568088Y528553D01*
Y526013D01*
X2557932D01*
X2583324Y536170D02*
Y520935D01*
X2575706D01*
X2573167Y523474D01*
Y528553D01*
X2575706Y531092D01*
X2583324D01*
X2486835Y482835D02*
X2481756Y487913D01*
Y492992D01*
X2486835Y498070D01*
X2494452Y482835D02*
Y498070D01*
X2499531Y492992D01*
X2504609Y498070D01*
Y482835D01*
X2509687D02*
X2514766D01*
X2512227D01*
Y492992D01*
X2509687D01*
X2522383D02*
X2532540Y482835D01*
X2527462Y487913D01*
X2532540Y492992D01*
X2522383Y482835D01*
X2545236D02*
X2540157D01*
X2537618Y485374D01*
Y490452D01*
X2540157Y492992D01*
X2545236D01*
X2547775Y490452D01*
Y487913D01*
X2537618D01*
X2563010Y498070D02*
Y482835D01*
X2555393D01*
X2552853Y485374D01*
Y490452D01*
X2555393Y492992D01*
X2563010D01*
X2568088Y482835D02*
X2573167Y487913D01*
Y492992D01*
X2568088Y498070D01*
X2486835Y444735D02*
X2481756Y449813D01*
Y454892D01*
X2486835Y459970D01*
X2494452Y444735D02*
Y459970D01*
X2499531Y454892D01*
X2504609Y459970D01*
Y444735D01*
X2509687D02*
X2514766D01*
X2512227D01*
Y454892D01*
X2509687D01*
X2522383D02*
X2532540Y444735D01*
X2527462Y449813D01*
X2532540Y454892D01*
X2522383Y444735D01*
X2545236D02*
X2540157D01*
X2537618Y447274D01*
Y452352D01*
X2540157Y454892D01*
X2545236D01*
X2547775Y452352D01*
Y449813D01*
X2537618D01*
X2563010Y459970D02*
Y444735D01*
X2555393D01*
X2552853Y447274D01*
Y452352D01*
X2555393Y454892D01*
X2563010D01*
X2568088Y444735D02*
X2573167Y449813D01*
Y454892D01*
X2568088Y459970D01*
X2481756Y406635D02*
Y421870D01*
X2489374D01*
X2491913Y419331D01*
Y414253D01*
X2489374Y411713D01*
X2481756D01*
X2486835D02*
X2491913Y406635D01*
X2499531D02*
X2504609D01*
X2507148Y409174D01*
Y414253D01*
X2504609Y416792D01*
X2499531D01*
X2496991Y414253D01*
Y409174D01*
X2499531Y406635D01*
X2512227Y416792D02*
Y409174D01*
X2514766Y406635D01*
X2522383D01*
Y416792D01*
X2527462Y406635D02*
Y416792D01*
X2535079D01*
X2537618Y414253D01*
Y406635D01*
X2552853Y421870D02*
Y406635D01*
X2545236D01*
X2542697Y409174D01*
Y414253D01*
X2545236Y416792D01*
X2552853D01*
X2565549Y406635D02*
X2560471D01*
X2557932Y409174D01*
Y414253D01*
X2560471Y416792D01*
X2565549D01*
X2568088Y414253D01*
Y411713D01*
X2557932D01*
X2583324Y421870D02*
Y406635D01*
X2575706D01*
X2573167Y409174D01*
Y414253D01*
X2575706Y416792D01*
X2583324D01*
X2486835Y368535D02*
X2481756Y373613D01*
Y378692D01*
X2486835Y383770D01*
X2494452Y368535D02*
Y383770D01*
X2499531Y378692D01*
X2504609Y383770D01*
Y368535D01*
X2509687D02*
X2514766D01*
X2512227D01*
Y378692D01*
X2509687D01*
X2522383D02*
X2532540Y368535D01*
X2527462Y373613D01*
X2532540Y378692D01*
X2522383Y368535D01*
X2545236D02*
X2540157D01*
X2537618Y371074D01*
Y376152D01*
X2540157Y378692D01*
X2545236D01*
X2547775Y376152D01*
Y373613D01*
X2537618D01*
X2563010Y383770D02*
Y368535D01*
X2555393D01*
X2552853Y371074D01*
Y376152D01*
X2555393Y378692D01*
X2563010D01*
X2568088Y368535D02*
X2573167Y373613D01*
Y378692D01*
X2568088Y383770D01*
X2481756Y330435D02*
Y345670D01*
X2489374D01*
X2491913Y343131D01*
Y338052D01*
X2489374Y335513D01*
X2481756D01*
X2486835D02*
X2491913Y330435D01*
X2499531D02*
X2504609D01*
X2507148Y332974D01*
Y338052D01*
X2504609Y340592D01*
X2499531D01*
X2496991Y338052D01*
Y332974D01*
X2499531Y330435D01*
X2512227Y340592D02*
Y332974D01*
X2514766Y330435D01*
X2522383D01*
Y340592D01*
X2527462Y330435D02*
Y340592D01*
X2535079D01*
X2537618Y338052D01*
Y330435D01*
X2552853Y345670D02*
Y330435D01*
X2545236D01*
X2542697Y332974D01*
Y338052D01*
X2545236Y340592D01*
X2552853D01*
X2565549Y330435D02*
X2560471D01*
X2557932Y332974D01*
Y338052D01*
X2560471Y340592D01*
X2565549D01*
X2568088Y338052D01*
Y335513D01*
X2557932D01*
X2583324Y345670D02*
Y330435D01*
X2575706D01*
X2573167Y332974D01*
Y338052D01*
X2575706Y340592D01*
X2583324D01*
X2331935Y520935D02*
Y536170D01*
X2339552D01*
X2342092Y533631D01*
Y528553D01*
X2339552Y526013D01*
X2331935D01*
X2349709Y531092D02*
X2354787D01*
X2357327Y528553D01*
Y520935D01*
X2349709D01*
X2347170Y523474D01*
X2349709Y526013D01*
X2357327D01*
X2372562Y536170D02*
Y520935D01*
X2364944D01*
X2362405Y523474D01*
Y528553D01*
X2364944Y531092D01*
X2372562D01*
X2331935Y482835D02*
Y498070D01*
X2339552D01*
X2342092Y495531D01*
Y490452D01*
X2339552Y487913D01*
X2331935D01*
X2349709Y492992D02*
X2354787D01*
X2357327Y490452D01*
Y482835D01*
X2349709D01*
X2347170Y485374D01*
X2349709Y487913D01*
X2357327D01*
X2372562Y498070D02*
Y482835D01*
X2364944D01*
X2362405Y485374D01*
Y490452D01*
X2364944Y492992D01*
X2372562D01*
X2331935Y444735D02*
Y459970D01*
X2339552D01*
X2342092Y457431D01*
Y452352D01*
X2339552Y449813D01*
X2331935D01*
X2349709Y454892D02*
X2354787D01*
X2357327Y452352D01*
Y444735D01*
X2349709D01*
X2347170Y447274D01*
X2349709Y449813D01*
X2357327D01*
X2372562Y459970D02*
Y444735D01*
X2364944D01*
X2362405Y447274D01*
Y452352D01*
X2364944Y454892D01*
X2372562D01*
X2331935Y406635D02*
Y421870D01*
X2339552D01*
X2342092Y419331D01*
Y414253D01*
X2339552Y411713D01*
X2331935D01*
X2349709Y416792D02*
X2354787D01*
X2357327Y414253D01*
Y406635D01*
X2349709D01*
X2347170Y409174D01*
X2349709Y411713D01*
X2357327D01*
X2372562Y421870D02*
Y406635D01*
X2364944D01*
X2362405Y409174D01*
Y414253D01*
X2364944Y416792D01*
X2372562D01*
X2331935Y368535D02*
Y383770D01*
X2339552D01*
X2342092Y381231D01*
Y376152D01*
X2339552Y373613D01*
X2331935D01*
X2349709Y378692D02*
X2354787D01*
X2357327Y376152D01*
Y368535D01*
X2349709D01*
X2347170Y371074D01*
X2349709Y373613D01*
X2357327D01*
X2372562Y383770D02*
Y368535D01*
X2364944D01*
X2362405Y371074D01*
Y376152D01*
X2364944Y378692D01*
X2372562D01*
X2331935Y345670D02*
Y335513D01*
X2337013Y330435D01*
X2342092Y335513D01*
Y345670D01*
X2347170Y330435D02*
X2352248D01*
X2349709D01*
Y340592D01*
X2347170D01*
X2362405D02*
X2367483D01*
X2370023Y338052D01*
Y330435D01*
X2362405D01*
X2359866Y332974D01*
X2362405Y335513D01*
X2370023D01*
X1951049Y536170D02*
X1961206D01*
X1956127D01*
Y520935D01*
X1968823D02*
X1973902D01*
X1976441Y523474D01*
Y528553D01*
X1973902Y531092D01*
X1968823D01*
X1966284Y528553D01*
Y523474D01*
X1968823Y520935D01*
X1981519Y515857D02*
Y531092D01*
X1989137D01*
X1991676Y528553D01*
Y523474D01*
X1989137Y520935D01*
X1981519D01*
X2011989Y536170D02*
Y520935D01*
X2022146D01*
X2029764Y531092D02*
X2034842D01*
X2037381Y528553D01*
Y520935D01*
X2029764D01*
X2027224Y523474D01*
X2029764Y526013D01*
X2037381D01*
X2042460Y531092D02*
Y523474D01*
X2044999Y520935D01*
X2052616D01*
Y518396D01*
X2050077Y515857D01*
X2047538D01*
X2052616Y520935D02*
Y531092D01*
X2065312Y520935D02*
X2060234D01*
X2057695Y523474D01*
Y528553D01*
X2060234Y531092D01*
X2065312D01*
X2067851Y528553D01*
Y526013D01*
X2057695D01*
X2072930Y531092D02*
Y520935D01*
Y526013D01*
X2075469Y528553D01*
X2078008Y531092D01*
X2080547D01*
X2103400Y528553D02*
X2113557D01*
X2133870Y536170D02*
Y520935D01*
X2141487D01*
X2144027Y523474D01*
Y526013D01*
X2141487Y528553D01*
X2133870D01*
X2141487D01*
X2144027Y531092D01*
Y533631D01*
X2141487Y536170D01*
X2133870D01*
X2151644Y520935D02*
X2156723D01*
X2159262Y523474D01*
Y528553D01*
X2156723Y531092D01*
X2151644D01*
X2149105Y528553D01*
Y523474D01*
X2151644Y520935D01*
X2166879Y533631D02*
Y531092D01*
X2164340D01*
X2169418D01*
X2166879D01*
Y523474D01*
X2169418Y520935D01*
X2179575Y533631D02*
Y531092D01*
X2177036D01*
X2182114D01*
X2179575D01*
Y523474D01*
X2182114Y520935D01*
X2192271D02*
X2197349D01*
X2199889Y523474D01*
Y528553D01*
X2197349Y531092D01*
X2192271D01*
X2189732Y528553D01*
Y523474D01*
X2192271Y520935D01*
X2204967D02*
Y531092D01*
X2207506D01*
X2210045Y528553D01*
Y520935D01*
Y528553D01*
X2212584Y531092D01*
X2215124Y528553D01*
Y520935D01*
X2235437Y536170D02*
Y520935D01*
X2245594D01*
X2253211Y531092D02*
X2258290D01*
X2260829Y528553D01*
Y520935D01*
X2253211D01*
X2250672Y523474D01*
X2253211Y526013D01*
X2260829D01*
X2265907Y531092D02*
Y523474D01*
X2268446Y520935D01*
X2276064D01*
Y518396D01*
X2273525Y515857D01*
X2270986D01*
X2276064Y520935D02*
Y531092D01*
X2288760Y520935D02*
X2283681D01*
X2281142Y523474D01*
Y528553D01*
X2283681Y531092D01*
X2288760D01*
X2291299Y528553D01*
Y526013D01*
X2281142D01*
X2296377Y531092D02*
Y520935D01*
Y526013D01*
X2298916Y528553D01*
X2301456Y531092D01*
X2303995D01*
X1951049Y498070D02*
X1961206D01*
X1956127D01*
Y482835D01*
X1968823D02*
X1973902D01*
X1976441Y485374D01*
Y490452D01*
X1973902Y492992D01*
X1968823D01*
X1966284Y490452D01*
Y485374D01*
X1968823Y482835D01*
X1981519Y477757D02*
Y492992D01*
X1989137D01*
X1991676Y490452D01*
Y485374D01*
X1989137Y482835D01*
X1981519D01*
X2011989Y498070D02*
Y482835D01*
X2022146D01*
X2029764Y492992D02*
X2034842D01*
X2037381Y490452D01*
Y482835D01*
X2029764D01*
X2027224Y485374D01*
X2029764Y487913D01*
X2037381D01*
X2042460Y492992D02*
Y485374D01*
X2044999Y482835D01*
X2052616D01*
Y480296D01*
X2050077Y477757D01*
X2047538D01*
X2052616Y482835D02*
Y492992D01*
X2065312Y482835D02*
X2060234D01*
X2057695Y485374D01*
Y490452D01*
X2060234Y492992D01*
X2065312D01*
X2067851Y490452D01*
Y487913D01*
X2057695D01*
X2072930Y492992D02*
Y482835D01*
Y487913D01*
X2075469Y490452D01*
X2078008Y492992D01*
X2080547D01*
X2103400Y490452D02*
X2113557D01*
X2133870Y498070D02*
Y482835D01*
X2141487D01*
X2144027Y485374D01*
Y487913D01*
X2141487Y490452D01*
X2133870D01*
X2141487D01*
X2144027Y492992D01*
Y495531D01*
X2141487Y498070D01*
X2133870D01*
X2151644Y482835D02*
X2156723D01*
X2159262Y485374D01*
Y490452D01*
X2156723Y492992D01*
X2151644D01*
X2149105Y490452D01*
Y485374D01*
X2151644Y482835D01*
X2166879Y495531D02*
Y492992D01*
X2164340D01*
X2169418D01*
X2166879D01*
Y485374D01*
X2169418Y482835D01*
X2179575Y495531D02*
Y492992D01*
X2177036D01*
X2182114D01*
X2179575D01*
Y485374D01*
X2182114Y482835D01*
X2192271D02*
X2197349D01*
X2199889Y485374D01*
Y490452D01*
X2197349Y492992D01*
X2192271D01*
X2189732Y490452D01*
Y485374D01*
X2192271Y482835D01*
X2204967D02*
Y492992D01*
X2207506D01*
X2210045Y490452D01*
Y482835D01*
Y490452D01*
X2212584Y492992D01*
X2215124Y490452D01*
Y482835D01*
X2235437Y498070D02*
Y482835D01*
X2245594D01*
X2253211Y492992D02*
X2258290D01*
X2260829Y490452D01*
Y482835D01*
X2253211D01*
X2250672Y485374D01*
X2253211Y487913D01*
X2260829D01*
X2265907Y492992D02*
Y485374D01*
X2268446Y482835D01*
X2276064D01*
Y480296D01*
X2273525Y477757D01*
X2270986D01*
X2276064Y482835D02*
Y492992D01*
X2288760Y482835D02*
X2283681D01*
X2281142Y485374D01*
Y490452D01*
X2283681Y492992D01*
X2288760D01*
X2291299Y490452D01*
Y487913D01*
X2281142D01*
X2296377Y492992D02*
Y482835D01*
Y487913D01*
X2298916Y490452D01*
X2301456Y492992D01*
X2303995D01*
X1951049Y459970D02*
X1961206D01*
X1956127D01*
Y444735D01*
X1968823D02*
X1973902D01*
X1976441Y447274D01*
Y452352D01*
X1973902Y454892D01*
X1968823D01*
X1966284Y452352D01*
Y447274D01*
X1968823Y444735D01*
X1981519Y439657D02*
Y454892D01*
X1989137D01*
X1991676Y452352D01*
Y447274D01*
X1989137Y444735D01*
X1981519D01*
X2011989Y459970D02*
Y444735D01*
X2022146D01*
X2029764Y454892D02*
X2034842D01*
X2037381Y452352D01*
Y444735D01*
X2029764D01*
X2027224Y447274D01*
X2029764Y449813D01*
X2037381D01*
X2042460Y454892D02*
Y447274D01*
X2044999Y444735D01*
X2052616D01*
Y442196D01*
X2050077Y439657D01*
X2047538D01*
X2052616Y444735D02*
Y454892D01*
X2065312Y444735D02*
X2060234D01*
X2057695Y447274D01*
Y452352D01*
X2060234Y454892D01*
X2065312D01*
X2067851Y452352D01*
Y449813D01*
X2057695D01*
X2072930Y454892D02*
Y444735D01*
Y449813D01*
X2075469Y452352D01*
X2078008Y454892D01*
X2080547D01*
X2103400Y452352D02*
X2113557D01*
X2133870Y459970D02*
Y444735D01*
X2141487D01*
X2144027Y447274D01*
Y449813D01*
X2141487Y452352D01*
X2133870D01*
X2141487D01*
X2144027Y454892D01*
Y457431D01*
X2141487Y459970D01*
X2133870D01*
X2151644Y444735D02*
X2156723D01*
X2159262Y447274D01*
Y452352D01*
X2156723Y454892D01*
X2151644D01*
X2149105Y452352D01*
Y447274D01*
X2151644Y444735D01*
X2166879Y457431D02*
Y454892D01*
X2164340D01*
X2169418D01*
X2166879D01*
Y447274D01*
X2169418Y444735D01*
X2179575Y457431D02*
Y454892D01*
X2177036D01*
X2182114D01*
X2179575D01*
Y447274D01*
X2182114Y444735D01*
X2192271D02*
X2197349D01*
X2199889Y447274D01*
Y452352D01*
X2197349Y454892D01*
X2192271D01*
X2189732Y452352D01*
Y447274D01*
X2192271Y444735D01*
X2204967D02*
Y454892D01*
X2207506D01*
X2210045Y452352D01*
Y444735D01*
Y452352D01*
X2212584Y454892D01*
X2215124Y452352D01*
Y444735D01*
X2235437Y459970D02*
Y444735D01*
X2245594D01*
X2253211Y454892D02*
X2258290D01*
X2260829Y452352D01*
Y444735D01*
X2253211D01*
X2250672Y447274D01*
X2253211Y449813D01*
X2260829D01*
X2265907Y454892D02*
Y447274D01*
X2268446Y444735D01*
X2276064D01*
Y442196D01*
X2273525Y439657D01*
X2270986D01*
X2276064Y444735D02*
Y454892D01*
X2288760Y444735D02*
X2283681D01*
X2281142Y447274D01*
Y452352D01*
X2283681Y454892D01*
X2288760D01*
X2291299Y452352D01*
Y449813D01*
X2281142D01*
X2296377Y454892D02*
Y444735D01*
Y449813D01*
X2298916Y452352D01*
X2301456Y454892D01*
X2303995D01*
X1951049Y421870D02*
X1961206D01*
X1956127D01*
Y406635D01*
X1968823D02*
X1973902D01*
X1976441Y409174D01*
Y414253D01*
X1973902Y416792D01*
X1968823D01*
X1966284Y414253D01*
Y409174D01*
X1968823Y406635D01*
X1981519Y401557D02*
Y416792D01*
X1989137D01*
X1991676Y414253D01*
Y409174D01*
X1989137Y406635D01*
X1981519D01*
X2011989Y421870D02*
Y406635D01*
X2022146D01*
X2029764Y416792D02*
X2034842D01*
X2037381Y414253D01*
Y406635D01*
X2029764D01*
X2027224Y409174D01*
X2029764Y411713D01*
X2037381D01*
X2042460Y416792D02*
Y409174D01*
X2044999Y406635D01*
X2052616D01*
Y404096D01*
X2050077Y401557D01*
X2047538D01*
X2052616Y406635D02*
Y416792D01*
X2065312Y406635D02*
X2060234D01*
X2057695Y409174D01*
Y414253D01*
X2060234Y416792D01*
X2065312D01*
X2067851Y414253D01*
Y411713D01*
X2057695D01*
X2072930Y416792D02*
Y406635D01*
Y411713D01*
X2075469Y414253D01*
X2078008Y416792D01*
X2080547D01*
X2103400Y414253D02*
X2113557D01*
X2133870Y421870D02*
Y406635D01*
X2141487D01*
X2144027Y409174D01*
Y411713D01*
X2141487Y414253D01*
X2133870D01*
X2141487D01*
X2144027Y416792D01*
Y419331D01*
X2141487Y421870D01*
X2133870D01*
X2151644Y406635D02*
X2156723D01*
X2159262Y409174D01*
Y414253D01*
X2156723Y416792D01*
X2151644D01*
X2149105Y414253D01*
Y409174D01*
X2151644Y406635D01*
X2166879Y419331D02*
Y416792D01*
X2164340D01*
X2169418D01*
X2166879D01*
Y409174D01*
X2169418Y406635D01*
X2179575Y419331D02*
Y416792D01*
X2177036D01*
X2182114D01*
X2179575D01*
Y409174D01*
X2182114Y406635D01*
X2192271D02*
X2197349D01*
X2199889Y409174D01*
Y414253D01*
X2197349Y416792D01*
X2192271D01*
X2189732Y414253D01*
Y409174D01*
X2192271Y406635D01*
X2204967D02*
Y416792D01*
X2207506D01*
X2210045Y414253D01*
Y406635D01*
Y414253D01*
X2212584Y416792D01*
X2215124Y414253D01*
Y406635D01*
X2235437Y421870D02*
Y406635D01*
X2245594D01*
X2253211Y416792D02*
X2258290D01*
X2260829Y414253D01*
Y406635D01*
X2253211D01*
X2250672Y409174D01*
X2253211Y411713D01*
X2260829D01*
X2265907Y416792D02*
Y409174D01*
X2268446Y406635D01*
X2276064D01*
Y404096D01*
X2273525Y401557D01*
X2270986D01*
X2276064Y406635D02*
Y416792D01*
X2288760Y406635D02*
X2283681D01*
X2281142Y409174D01*
Y414253D01*
X2283681Y416792D01*
X2288760D01*
X2291299Y414253D01*
Y411713D01*
X2281142D01*
X2296377Y416792D02*
Y406635D01*
Y411713D01*
X2298916Y414253D01*
X2301456Y416792D01*
X2303995D01*
X1951049Y383770D02*
X1961206D01*
X1956127D01*
Y368535D01*
X1968823D02*
X1973902D01*
X1976441Y371074D01*
Y376152D01*
X1973902Y378692D01*
X1968823D01*
X1966284Y376152D01*
Y371074D01*
X1968823Y368535D01*
X1981519Y363457D02*
Y378692D01*
X1989137D01*
X1991676Y376152D01*
Y371074D01*
X1989137Y368535D01*
X1981519D01*
X2011989Y383770D02*
Y368535D01*
X2022146D01*
X2029764Y378692D02*
X2034842D01*
X2037381Y376152D01*
Y368535D01*
X2029764D01*
X2027224Y371074D01*
X2029764Y373613D01*
X2037381D01*
X2042460Y378692D02*
Y371074D01*
X2044999Y368535D01*
X2052616D01*
Y365996D01*
X2050077Y363457D01*
X2047538D01*
X2052616Y368535D02*
Y378692D01*
X2065312Y368535D02*
X2060234D01*
X2057695Y371074D01*
Y376152D01*
X2060234Y378692D01*
X2065312D01*
X2067851Y376152D01*
Y373613D01*
X2057695D01*
X2072930Y378692D02*
Y368535D01*
Y373613D01*
X2075469Y376152D01*
X2078008Y378692D01*
X2080547D01*
X2103400Y376152D02*
X2113557D01*
X2133870Y383770D02*
Y368535D01*
X2141487D01*
X2144027Y371074D01*
Y373613D01*
X2141487Y376152D01*
X2133870D01*
X2141487D01*
X2144027Y378692D01*
Y381231D01*
X2141487Y383770D01*
X2133870D01*
X2151644Y368535D02*
X2156723D01*
X2159262Y371074D01*
Y376152D01*
X2156723Y378692D01*
X2151644D01*
X2149105Y376152D01*
Y371074D01*
X2151644Y368535D01*
X2166879Y381231D02*
Y378692D01*
X2164340D01*
X2169418D01*
X2166879D01*
Y371074D01*
X2169418Y368535D01*
X2179575Y381231D02*
Y378692D01*
X2177036D01*
X2182114D01*
X2179575D01*
Y371074D01*
X2182114Y368535D01*
X2192271D02*
X2197349D01*
X2199889Y371074D01*
Y376152D01*
X2197349Y378692D01*
X2192271D01*
X2189732Y376152D01*
Y371074D01*
X2192271Y368535D01*
X2204967D02*
Y378692D01*
X2207506D01*
X2210045Y376152D01*
Y368535D01*
Y376152D01*
X2212584Y378692D01*
X2215124Y376152D01*
Y368535D01*
X2235437Y383770D02*
Y368535D01*
X2245594D01*
X2253211Y378692D02*
X2258290D01*
X2260829Y376152D01*
Y368535D01*
X2253211D01*
X2250672Y371074D01*
X2253211Y373613D01*
X2260829D01*
X2265907Y378692D02*
Y371074D01*
X2268446Y368535D01*
X2276064D01*
Y365996D01*
X2273525Y363457D01*
X2270986D01*
X2276064Y368535D02*
Y378692D01*
X2288760Y368535D02*
X2283681D01*
X2281142Y371074D01*
Y376152D01*
X2283681Y378692D01*
X2288760D01*
X2291299Y376152D01*
Y373613D01*
X2281142D01*
X2296377Y378692D02*
Y368535D01*
Y373613D01*
X2298916Y376152D01*
X2301456Y378692D01*
X2303995D01*
X1951049Y345670D02*
X1961206D01*
X1956127D01*
Y330435D01*
X1968823D02*
X1973902D01*
X1976441Y332974D01*
Y338052D01*
X1973902Y340592D01*
X1968823D01*
X1966284Y338052D01*
Y332974D01*
X1968823Y330435D01*
X1981519Y325357D02*
Y340592D01*
X1989137D01*
X1991676Y338052D01*
Y332974D01*
X1989137Y330435D01*
X1981519D01*
X2011989Y345670D02*
Y330435D01*
X2022146D01*
X2029764Y340592D02*
X2034842D01*
X2037381Y338052D01*
Y330435D01*
X2029764D01*
X2027224Y332974D01*
X2029764Y335513D01*
X2037381D01*
X2042460Y340592D02*
Y332974D01*
X2044999Y330435D01*
X2052616D01*
Y327896D01*
X2050077Y325357D01*
X2047538D01*
X2052616Y330435D02*
Y340592D01*
X2065312Y330435D02*
X2060234D01*
X2057695Y332974D01*
Y338052D01*
X2060234Y340592D01*
X2065312D01*
X2067851Y338052D01*
Y335513D01*
X2057695D01*
X2072930Y340592D02*
Y330435D01*
Y335513D01*
X2075469Y338052D01*
X2078008Y340592D01*
X2080547D01*
X2103400Y338052D02*
X2113557D01*
X2133870Y345670D02*
Y330435D01*
X2141487D01*
X2144027Y332974D01*
Y335513D01*
X2141487Y338052D01*
X2133870D01*
X2141487D01*
X2144027Y340592D01*
Y343131D01*
X2141487Y345670D01*
X2133870D01*
X2151644Y330435D02*
X2156723D01*
X2159262Y332974D01*
Y338052D01*
X2156723Y340592D01*
X2151644D01*
X2149105Y338052D01*
Y332974D01*
X2151644Y330435D01*
X2166879Y343131D02*
Y340592D01*
X2164340D01*
X2169418D01*
X2166879D01*
Y332974D01*
X2169418Y330435D01*
X2179575Y343131D02*
Y340592D01*
X2177036D01*
X2182114D01*
X2179575D01*
Y332974D01*
X2182114Y330435D01*
X2192271D02*
X2197349D01*
X2199889Y332974D01*
Y338052D01*
X2197349Y340592D01*
X2192271D01*
X2189732Y338052D01*
Y332974D01*
X2192271Y330435D01*
X2204967D02*
Y340592D01*
X2207506D01*
X2210045Y338052D01*
Y330435D01*
Y338052D01*
X2212584Y340592D01*
X2215124Y338052D01*
Y330435D01*
X2235437Y345670D02*
Y330435D01*
X2245594D01*
X2253211Y340592D02*
X2258290D01*
X2260829Y338052D01*
Y330435D01*
X2253211D01*
X2250672Y332974D01*
X2253211Y335513D01*
X2260829D01*
X2265907Y340592D02*
Y332974D01*
X2268446Y330435D01*
X2276064D01*
Y327896D01*
X2273525Y325357D01*
X2270986D01*
X2276064Y330435D02*
Y340592D01*
X2288760Y330435D02*
X2283681D01*
X2281142Y332974D01*
Y338052D01*
X2283681Y340592D01*
X2288760D01*
X2291299Y338052D01*
Y335513D01*
X2281142D01*
X2296377Y340592D02*
Y330435D01*
Y335513D01*
X2298916Y338052D01*
X2301456Y340592D01*
X2303995D01*
X1764663Y520935D02*
Y536170D01*
X1772281D01*
X1774820Y533631D01*
Y528553D01*
X1772281Y526013D01*
X1764663D01*
X1769742D02*
X1774820Y520935D01*
X1782438D02*
X1787516D01*
X1790055Y523474D01*
Y528553D01*
X1787516Y531092D01*
X1782438D01*
X1779898Y528553D01*
Y523474D01*
X1782438Y520935D01*
X1795134Y531092D02*
Y523474D01*
X1797673Y520935D01*
X1805290D01*
Y531092D01*
X1810369Y520935D02*
Y531092D01*
X1817986D01*
X1820525Y528553D01*
Y520935D01*
X1835760Y536170D02*
Y520935D01*
X1828143D01*
X1825604Y523474D01*
Y528553D01*
X1828143Y531092D01*
X1835760D01*
X1764663Y482835D02*
Y498070D01*
X1772281D01*
X1774820Y495531D01*
Y490452D01*
X1772281Y487913D01*
X1764663D01*
X1769742D02*
X1774820Y482835D01*
X1782438D02*
X1787516D01*
X1790055Y485374D01*
Y490452D01*
X1787516Y492992D01*
X1782438D01*
X1779898Y490452D01*
Y485374D01*
X1782438Y482835D01*
X1795134Y492992D02*
Y485374D01*
X1797673Y482835D01*
X1805290D01*
Y492992D01*
X1810369Y482835D02*
Y492992D01*
X1817986D01*
X1820525Y490452D01*
Y482835D01*
X1835760Y498070D02*
Y482835D01*
X1828143D01*
X1825604Y485374D01*
Y490452D01*
X1828143Y492992D01*
X1835760D01*
X1764663Y444735D02*
Y459970D01*
X1772281D01*
X1774820Y457431D01*
Y452352D01*
X1772281Y449813D01*
X1764663D01*
X1769742D02*
X1774820Y444735D01*
X1782438D02*
X1787516D01*
X1790055Y447274D01*
Y452352D01*
X1787516Y454892D01*
X1782438D01*
X1779898Y452352D01*
Y447274D01*
X1782438Y444735D01*
X1795134Y454892D02*
Y447274D01*
X1797673Y444735D01*
X1805290D01*
Y454892D01*
X1810369Y444735D02*
Y454892D01*
X1817986D01*
X1820525Y452352D01*
Y444735D01*
X1835760Y459970D02*
Y444735D01*
X1828143D01*
X1825604Y447274D01*
Y452352D01*
X1828143Y454892D01*
X1835760D01*
X1764663Y406635D02*
Y421870D01*
X1772281D01*
X1774820Y419331D01*
Y414253D01*
X1772281Y411713D01*
X1764663D01*
X1769742D02*
X1774820Y406635D01*
X1782438D02*
X1787516D01*
X1790055Y409174D01*
Y414253D01*
X1787516Y416792D01*
X1782438D01*
X1779898Y414253D01*
Y409174D01*
X1782438Y406635D01*
X1795134Y416792D02*
Y409174D01*
X1797673Y406635D01*
X1805290D01*
Y416792D01*
X1810369Y406635D02*
Y416792D01*
X1817986D01*
X1820525Y414253D01*
Y406635D01*
X1835760Y421870D02*
Y406635D01*
X1828143D01*
X1825604Y409174D01*
Y414253D01*
X1828143Y416792D01*
X1835760D01*
X1764663Y368535D02*
Y383770D01*
X1772281D01*
X1774820Y381231D01*
Y376152D01*
X1772281Y373613D01*
X1764663D01*
X1769742D02*
X1774820Y368535D01*
X1782438D02*
X1787516D01*
X1790055Y371074D01*
Y376152D01*
X1787516Y378692D01*
X1782438D01*
X1779898Y376152D01*
Y371074D01*
X1782438Y368535D01*
X1795134Y378692D02*
Y371074D01*
X1797673Y368535D01*
X1805290D01*
Y378692D01*
X1810369Y368535D02*
Y378692D01*
X1817986D01*
X1820525Y376152D01*
Y368535D01*
X1835760Y383770D02*
Y368535D01*
X1828143D01*
X1825604Y371074D01*
Y376152D01*
X1828143Y378692D01*
X1835760D01*
X1764663Y330435D02*
Y345670D01*
X1772281D01*
X1774820Y343131D01*
Y338052D01*
X1772281Y335513D01*
X1764663D01*
X1769742D02*
X1774820Y330435D01*
X1782438D02*
X1787516D01*
X1790055Y332974D01*
Y338052D01*
X1787516Y340592D01*
X1782438D01*
X1779898Y338052D01*
Y332974D01*
X1782438Y330435D01*
X1795134Y340592D02*
Y332974D01*
X1797673Y330435D01*
X1805290D01*
Y340592D01*
X1810369Y330435D02*
Y340592D01*
X1817986D01*
X1820525Y338052D01*
Y330435D01*
X1835760Y345670D02*
Y330435D01*
X1828143D01*
X1825604Y332974D01*
Y338052D01*
X1828143Y340592D01*
X1835760D01*
X1636171Y520935D02*
Y536170D01*
X1643788D01*
X1646328Y533631D01*
Y528553D01*
X1643788Y526013D01*
X1636171D01*
X1651406Y536170D02*
X1661563D01*
X1656484D01*
Y520935D01*
X1666641Y536170D02*
Y520935D01*
Y528553D01*
X1676798D01*
Y536170D01*
Y520935D01*
X1636171Y482835D02*
Y498070D01*
X1643788D01*
X1646328Y495531D01*
Y490452D01*
X1643788Y487913D01*
X1636171D01*
X1651406Y498070D02*
X1661563D01*
X1656484D01*
Y482835D01*
X1666641Y498070D02*
Y482835D01*
Y490452D01*
X1676798D01*
Y498070D01*
Y482835D01*
X1636171Y444735D02*
Y459970D01*
X1643788D01*
X1646328Y457431D01*
Y452352D01*
X1643788Y449813D01*
X1636171D01*
X1651406Y459970D02*
X1661563D01*
X1656484D01*
Y444735D01*
X1666641Y459970D02*
Y444735D01*
Y452352D01*
X1676798D01*
Y459970D01*
Y444735D01*
X1636171Y406635D02*
Y421870D01*
X1643788D01*
X1646328Y419331D01*
Y414253D01*
X1643788Y411713D01*
X1636171D01*
X1651406Y421870D02*
X1661563D01*
X1656484D01*
Y406635D01*
X1666641Y421870D02*
Y406635D01*
Y414253D01*
X1676798D01*
Y421870D01*
Y406635D01*
X1636171Y368535D02*
Y383770D01*
X1643788D01*
X1646328Y381231D01*
Y376152D01*
X1643788Y373613D01*
X1636171D01*
X1651406Y383770D02*
X1661563D01*
X1656484D01*
Y368535D01*
X1666641Y383770D02*
Y368535D01*
Y376152D01*
X1676798D01*
Y383770D01*
Y368535D01*
X1636171Y330435D02*
Y345670D01*
X1643788D01*
X1646328Y343131D01*
Y338052D01*
X1643788Y335513D01*
X1636171D01*
X1651406Y345670D02*
X1661563D01*
X1656484D01*
Y330435D01*
X1666641Y345670D02*
Y330435D01*
Y338052D01*
X1676798D01*
Y345670D01*
Y330435D01*
X1339078Y533631D02*
X1341617Y536170D01*
X1346696D01*
X1349235Y533631D01*
Y531092D01*
X1346696Y528553D01*
X1344156D01*
X1346696D01*
X1349235Y526013D01*
Y523474D01*
X1346696Y520935D01*
X1341617D01*
X1339078Y523474D01*
X1356852Y518396D02*
X1359391Y520935D01*
Y523474D01*
X1356852D01*
Y520935D01*
X1359391D01*
X1356852Y518396D01*
X1354313Y515857D01*
X1379705Y520935D02*
X1369548D01*
X1379705Y531092D01*
Y533631D01*
X1377166Y536170D01*
X1372087D01*
X1369548Y533631D01*
X1384783D02*
X1387322Y536170D01*
X1392401D01*
X1394940Y533631D01*
Y523474D01*
X1392401Y520935D01*
X1387322D01*
X1384783Y523474D01*
Y533631D01*
X1400018D02*
X1402558Y536170D01*
X1407636D01*
X1410175Y533631D01*
Y523474D01*
X1407636Y520935D01*
X1402558D01*
X1400018Y523474D01*
Y533631D01*
X1415253Y520935D02*
Y531092D01*
X1417793D01*
X1420332Y528553D01*
Y520935D01*
Y528553D01*
X1422871Y531092D01*
X1425410Y528553D01*
Y520935D01*
X1430488D02*
Y531092D01*
X1433028D01*
X1435567Y528553D01*
Y520935D01*
Y528553D01*
X1438106Y531092D01*
X1440645Y528553D01*
Y520935D01*
X1466037D02*
X1460959Y526013D01*
Y531092D01*
X1466037Y536170D01*
X1473654Y520935D02*
X1478733D01*
X1476194D01*
Y536170D01*
X1473654Y533631D01*
X1496507Y520935D02*
X1486350D01*
X1496507Y531092D01*
Y533631D01*
X1493968Y536170D01*
X1488889D01*
X1486350Y533631D01*
X1511742Y536170D02*
X1501585D01*
Y528553D01*
X1506664Y531092D01*
X1509203D01*
X1511742Y528553D01*
Y523474D01*
X1509203Y520935D01*
X1504125D01*
X1501585Y523474D01*
X1519360Y518396D02*
X1521899Y520935D01*
Y523474D01*
X1519360D01*
Y520935D01*
X1521899D01*
X1519360Y518396D01*
X1516821Y515857D01*
X1532056Y523474D02*
X1534595Y520935D01*
X1539673D01*
X1542212Y523474D01*
Y533631D01*
X1539673Y536170D01*
X1534595D01*
X1532056Y533631D01*
Y531092D01*
X1534595Y528553D01*
X1542212D01*
X1547291Y533631D02*
X1549830Y536170D01*
X1554908D01*
X1557447Y533631D01*
Y531092D01*
X1554908Y528553D01*
X1557447Y526013D01*
Y523474D01*
X1554908Y520935D01*
X1549830D01*
X1547291Y523474D01*
Y526013D01*
X1549830Y528553D01*
X1547291Y531092D01*
Y533631D01*
X1549830Y528553D02*
X1554908D01*
X1562526Y520935D02*
Y531092D01*
X1565065D01*
X1567604Y528553D01*
Y520935D01*
Y528553D01*
X1570143Y531092D01*
X1572682Y528553D01*
Y520935D01*
X1577761D02*
X1582839D01*
X1580300D01*
Y531092D01*
X1577761D01*
X1590457Y520935D02*
X1595535D01*
X1592996D01*
Y536170D01*
X1590457D01*
X1603152Y520935D02*
X1608231Y526013D01*
Y531092D01*
X1603152Y536170D01*
X1339078Y495531D02*
X1341617Y498070D01*
X1346696D01*
X1349235Y495531D01*
Y485374D01*
X1346696Y482835D01*
X1341617D01*
X1339078Y485374D01*
Y495531D01*
X1356852Y480296D02*
X1359391Y482835D01*
Y485374D01*
X1356852D01*
Y482835D01*
X1359391D01*
X1356852Y480296D01*
X1354313Y477757D01*
X1369548Y498070D02*
X1379705D01*
Y495531D01*
X1369548Y485374D01*
Y482835D01*
X1392401D02*
Y498070D01*
X1384783Y490452D01*
X1394940D01*
X1400018Y495531D02*
X1402558Y498070D01*
X1407636D01*
X1410175Y495531D01*
Y485374D01*
X1407636Y482835D01*
X1402558D01*
X1400018Y485374D01*
Y495531D01*
X1415253Y482835D02*
Y492992D01*
X1417793D01*
X1420332Y490452D01*
Y482835D01*
Y490452D01*
X1422871Y492992D01*
X1425410Y490452D01*
Y482835D01*
X1430488D02*
Y492992D01*
X1433028D01*
X1435567Y490452D01*
Y482835D01*
Y490452D01*
X1438106Y492992D01*
X1440645Y490452D01*
Y482835D01*
X1466037D02*
X1460959Y487913D01*
Y492992D01*
X1466037Y498070D01*
X1483811Y482835D02*
X1473654D01*
X1483811Y492992D01*
Y495531D01*
X1481272Y498070D01*
X1476194D01*
X1473654Y495531D01*
X1488889Y485374D02*
X1491429Y482835D01*
X1496507D01*
X1499046Y485374D01*
Y495531D01*
X1496507Y498070D01*
X1491429D01*
X1488889Y495531D01*
Y492992D01*
X1491429Y490452D01*
X1499046D01*
X1506664Y480296D02*
X1509203Y482835D01*
Y485374D01*
X1506664D01*
Y482835D01*
X1509203D01*
X1506664Y480296D01*
X1504125Y477757D01*
X1519360Y482835D02*
X1524438D01*
X1521899D01*
Y498070D01*
X1519360Y495531D01*
X1532056D02*
X1534595Y498070D01*
X1539673D01*
X1542212Y495531D01*
Y492992D01*
X1539673Y490452D01*
X1537134D01*
X1539673D01*
X1542212Y487913D01*
Y485374D01*
X1539673Y482835D01*
X1534595D01*
X1532056Y485374D01*
X1547291Y482835D02*
Y492992D01*
X1549830D01*
X1552369Y490452D01*
Y482835D01*
Y490452D01*
X1554908Y492992D01*
X1557447Y490452D01*
Y482835D01*
X1562526D02*
X1567604D01*
X1565065D01*
Y492992D01*
X1562526D01*
X1575222Y482835D02*
X1580300D01*
X1577761D01*
Y498070D01*
X1575222D01*
X1587917Y482835D02*
X1592996Y487913D01*
Y492992D01*
X1587917Y498070D01*
X1339078Y457431D02*
X1341617Y459970D01*
X1346696D01*
X1349235Y457431D01*
Y447274D01*
X1346696Y444735D01*
X1341617D01*
X1339078Y447274D01*
Y457431D01*
X1356852Y442196D02*
X1359391Y444735D01*
Y447274D01*
X1356852D01*
Y444735D01*
X1359391D01*
X1356852Y442196D01*
X1354313Y439657D01*
X1369548Y459970D02*
X1379705D01*
Y457431D01*
X1369548Y447274D01*
Y444735D01*
X1384783Y447274D02*
X1387322Y444735D01*
X1392401D01*
X1394940Y447274D01*
Y457431D01*
X1392401Y459970D01*
X1387322D01*
X1384783Y457431D01*
Y454892D01*
X1387322Y452352D01*
X1394940D01*
X1400018Y457431D02*
X1402558Y459970D01*
X1407636D01*
X1410175Y457431D01*
Y447274D01*
X1407636Y444735D01*
X1402558D01*
X1400018Y447274D01*
Y457431D01*
X1415253Y444735D02*
Y454892D01*
X1417793D01*
X1420332Y452352D01*
Y444735D01*
Y452352D01*
X1422871Y454892D01*
X1425410Y452352D01*
Y444735D01*
X1430488D02*
Y454892D01*
X1433028D01*
X1435567Y452352D01*
Y444735D01*
Y452352D01*
X1438106Y454892D01*
X1440645Y452352D01*
Y444735D01*
X1466037D02*
X1460959Y449813D01*
Y454892D01*
X1466037Y459970D01*
X1473654Y457431D02*
X1476194Y459970D01*
X1481272D01*
X1483811Y457431D01*
Y454892D01*
X1481272Y452352D01*
X1478733D01*
X1481272D01*
X1483811Y449813D01*
Y447274D01*
X1481272Y444735D01*
X1476194D01*
X1473654Y447274D01*
X1488889Y444735D02*
X1493968D01*
X1491429D01*
Y459970D01*
X1488889Y457431D01*
X1504125Y442196D02*
X1506664Y444735D01*
Y447274D01*
X1504125D01*
Y444735D01*
X1506664D01*
X1504125Y442196D01*
X1501585Y439657D01*
X1516821Y444735D02*
X1521899D01*
X1519360D01*
Y459970D01*
X1516821Y457431D01*
X1529516D02*
X1532056Y459970D01*
X1537134D01*
X1539673Y457431D01*
Y447274D01*
X1537134Y444735D01*
X1532056D01*
X1529516Y447274D01*
Y457431D01*
X1544751Y444735D02*
Y454892D01*
X1547291D01*
X1549830Y452352D01*
Y444735D01*
Y452352D01*
X1552369Y454892D01*
X1554908Y452352D01*
Y444735D01*
X1559987D02*
X1565065D01*
X1562526D01*
Y454892D01*
X1559987D01*
X1572682Y444735D02*
X1577761D01*
X1575222D01*
Y459970D01*
X1572682D01*
X1585378Y444735D02*
X1590457Y449813D01*
Y454892D01*
X1585378Y459970D01*
X1339078Y406635D02*
X1344156D01*
X1341617D01*
Y421870D01*
X1339078Y419331D01*
X1354313Y404096D02*
X1356852Y406635D01*
Y409174D01*
X1354313D01*
Y406635D01*
X1356852D01*
X1354313Y404096D01*
X1351774Y401557D01*
X1377166Y421870D02*
X1372087Y419331D01*
X1367009Y414253D01*
Y409174D01*
X1369548Y406635D01*
X1374626D01*
X1377166Y409174D01*
Y411713D01*
X1374626Y414253D01*
X1367009D01*
X1382244Y419331D02*
X1384783Y421870D01*
X1389862D01*
X1392401Y419331D01*
Y409174D01*
X1389862Y406635D01*
X1384783D01*
X1382244Y409174D01*
Y419331D01*
X1397479D02*
X1400018Y421870D01*
X1405097D01*
X1407636Y419331D01*
Y409174D01*
X1405097Y406635D01*
X1400018D01*
X1397479Y409174D01*
Y419331D01*
X1412714Y406635D02*
Y416792D01*
X1415253D01*
X1417793Y414253D01*
Y406635D01*
Y414253D01*
X1420332Y416792D01*
X1422871Y414253D01*
Y406635D01*
X1427949D02*
Y416792D01*
X1430488D01*
X1433028Y414253D01*
Y406635D01*
Y414253D01*
X1435567Y416792D01*
X1438106Y414253D01*
Y406635D01*
X1463498D02*
X1458419Y411713D01*
Y416792D01*
X1463498Y421870D01*
X1481272D02*
X1476194Y419331D01*
X1471115Y414253D01*
Y409174D01*
X1473654Y406635D01*
X1478733D01*
X1481272Y409174D01*
Y411713D01*
X1478733Y414253D01*
X1471115D01*
X1496507Y406635D02*
X1486350D01*
X1496507Y416792D01*
Y419331D01*
X1493968Y421870D01*
X1488889D01*
X1486350Y419331D01*
X1504125Y404096D02*
X1506664Y406635D01*
Y409174D01*
X1504125D01*
Y406635D01*
X1506664D01*
X1504125Y404096D01*
X1501585Y401557D01*
X1516821Y409174D02*
X1519360Y406635D01*
X1524438D01*
X1526977Y409174D01*
Y419331D01*
X1524438Y421870D01*
X1519360D01*
X1516821Y419331D01*
Y416792D01*
X1519360Y414253D01*
X1526977D01*
X1532056Y409174D02*
X1534595Y406635D01*
X1539673D01*
X1542212Y409174D01*
Y419331D01*
X1539673Y421870D01*
X1534595D01*
X1532056Y419331D01*
Y416792D01*
X1534595Y414253D01*
X1542212D01*
X1547291Y406635D02*
Y416792D01*
X1549830D01*
X1552369Y414253D01*
Y406635D01*
Y414253D01*
X1554908Y416792D01*
X1557447Y414253D01*
Y406635D01*
X1562526D02*
X1567604D01*
X1565065D01*
Y416792D01*
X1562526D01*
X1575222Y406635D02*
X1580300D01*
X1577761D01*
Y421870D01*
X1575222D01*
X1587917Y406635D02*
X1592996Y411713D01*
Y416792D01*
X1587917Y421870D01*
X1339078Y368535D02*
X1344156D01*
X1341617D01*
Y383770D01*
X1339078Y381231D01*
X1354313Y365996D02*
X1356852Y368535D01*
Y371074D01*
X1354313D01*
Y368535D01*
X1356852D01*
X1354313Y365996D01*
X1351774Y363457D01*
X1367009Y368535D02*
X1372087D01*
X1369548D01*
Y383770D01*
X1367009Y381231D01*
X1379705D02*
X1382244Y383770D01*
X1387322D01*
X1389862Y381231D01*
Y371074D01*
X1387322Y368535D01*
X1382244D01*
X1379705Y371074D01*
Y381231D01*
X1394940D02*
X1397479Y383770D01*
X1402557D01*
X1405097Y381231D01*
Y371074D01*
X1402557Y368535D01*
X1397479D01*
X1394940Y371074D01*
Y381231D01*
X1410175Y368535D02*
Y378692D01*
X1412714D01*
X1415253Y376152D01*
Y368535D01*
Y376152D01*
X1417793Y378692D01*
X1420332Y376152D01*
Y368535D01*
X1425410D02*
Y378692D01*
X1427949D01*
X1430488Y376152D01*
Y368535D01*
Y376152D01*
X1433028Y378692D01*
X1435567Y376152D01*
Y368535D01*
X1460959D02*
X1455880Y373613D01*
Y378692D01*
X1460959Y383770D01*
X1476194Y368535D02*
Y383770D01*
X1468576Y376152D01*
X1478733D01*
X1483811Y381231D02*
X1486350Y383770D01*
X1491429D01*
X1493968Y381231D01*
Y378692D01*
X1491429Y376152D01*
X1488889D01*
X1491429D01*
X1493968Y373613D01*
Y371074D01*
X1491429Y368535D01*
X1486350D01*
X1483811Y371074D01*
X1501585Y365996D02*
X1504125Y368535D01*
Y371074D01*
X1501585D01*
Y368535D01*
X1504125D01*
X1501585Y365996D01*
X1499046Y363457D01*
X1514281Y381231D02*
X1516821Y383770D01*
X1521899D01*
X1524438Y381231D01*
Y378692D01*
X1521899Y376152D01*
X1519360D01*
X1521899D01*
X1524438Y373613D01*
Y371074D01*
X1521899Y368535D01*
X1516821D01*
X1514281Y371074D01*
X1529516Y368535D02*
X1534595D01*
X1532056D01*
Y383770D01*
X1529516Y381231D01*
X1542212Y368535D02*
Y378692D01*
X1544751D01*
X1547291Y376152D01*
Y368535D01*
Y376152D01*
X1549830Y378692D01*
X1552369Y376152D01*
Y368535D01*
X1557447D02*
X1562526D01*
X1559987D01*
Y378692D01*
X1557447D01*
X1570143Y368535D02*
X1575222D01*
X1572682D01*
Y383770D01*
X1570143D01*
X1582839Y368535D02*
X1587917Y373613D01*
Y378692D01*
X1582839Y383770D01*
X1339078Y343131D02*
X1341617Y345670D01*
X1346696D01*
X1349235Y343131D01*
Y332974D01*
X1346696Y330435D01*
X1341617D01*
X1339078Y332974D01*
Y343131D01*
X1356852Y327896D02*
X1359391Y330435D01*
Y332974D01*
X1356852D01*
Y330435D01*
X1359391D01*
X1356852Y327896D01*
X1354313Y325357D01*
X1369548Y343131D02*
X1372087Y345670D01*
X1377166D01*
X1379705Y343131D01*
Y340592D01*
X1377166Y338052D01*
X1374626D01*
X1377166D01*
X1379705Y335513D01*
Y332974D01*
X1377166Y330435D01*
X1372087D01*
X1369548Y332974D01*
X1394940Y345670D02*
X1384783D01*
Y338052D01*
X1389862Y340592D01*
X1392401D01*
X1394940Y338052D01*
Y332974D01*
X1392401Y330435D01*
X1387322D01*
X1384783Y332974D01*
X1400018Y343131D02*
X1402558Y345670D01*
X1407636D01*
X1410175Y343131D01*
Y332974D01*
X1407636Y330435D01*
X1402558D01*
X1400018Y332974D01*
Y343131D01*
X1415253Y330435D02*
Y340592D01*
X1417793D01*
X1420332Y338052D01*
Y330435D01*
Y338052D01*
X1422871Y340592D01*
X1425410Y338052D01*
Y330435D01*
X1430488D02*
Y340592D01*
X1433028D01*
X1435567Y338052D01*
Y330435D01*
Y338052D01*
X1438106Y340592D01*
X1440645Y338052D01*
Y330435D01*
X1466037D02*
X1460959Y335513D01*
Y340592D01*
X1466037Y345670D01*
X1473654Y330435D02*
X1478733D01*
X1476194D01*
Y345670D01*
X1473654Y343131D01*
X1486350D02*
X1488889Y345670D01*
X1493968D01*
X1496507Y343131D01*
Y340592D01*
X1493968Y338052D01*
X1491429D01*
X1493968D01*
X1496507Y335513D01*
Y332974D01*
X1493968Y330435D01*
X1488889D01*
X1486350Y332974D01*
X1504125Y327896D02*
X1506664Y330435D01*
Y332974D01*
X1504125D01*
Y330435D01*
X1506664D01*
X1504125Y327896D01*
X1501585Y325357D01*
X1516821Y345670D02*
X1526977D01*
Y343131D01*
X1516821Y332974D01*
Y330435D01*
X1532056Y343131D02*
X1534595Y345670D01*
X1539673D01*
X1542212Y343131D01*
Y340592D01*
X1539673Y338052D01*
X1542212Y335513D01*
Y332974D01*
X1539673Y330435D01*
X1534595D01*
X1532056Y332974D01*
Y335513D01*
X1534595Y338052D01*
X1532056Y340592D01*
Y343131D01*
X1534595Y338052D02*
X1539673D01*
X1547291Y330435D02*
Y340592D01*
X1549830D01*
X1552369Y338052D01*
Y330435D01*
Y338052D01*
X1554908Y340592D01*
X1557447Y338052D01*
Y330435D01*
X1562526D02*
X1567604D01*
X1565065D01*
Y340592D01*
X1562526D01*
X1575222Y330435D02*
X1580300D01*
X1577761D01*
Y345670D01*
X1575222D01*
X1587917Y330435D02*
X1592996Y335513D01*
Y340592D01*
X1587917Y345670D01*
X1189257Y292335D02*
X1194336D01*
X1191797D01*
Y307570D01*
X1189257Y305031D01*
X1201953Y307570D02*
X1212110D01*
Y305031D01*
X1201953Y294874D01*
Y292335D01*
X1217188Y307570D02*
X1227345D01*
Y305031D01*
X1217188Y294874D01*
Y292335D01*
X1247658Y307570D02*
X1257815D01*
X1252737D01*
Y292335D01*
X1265433D02*
X1270511D01*
X1273050Y294874D01*
Y299953D01*
X1270511Y302492D01*
X1265433D01*
X1262894Y299953D01*
Y294874D01*
X1265433Y292335D01*
X1280668Y305031D02*
Y302492D01*
X1278129D01*
X1283207D01*
X1280668D01*
Y294874D01*
X1283207Y292335D01*
X1293364Y302492D02*
X1298442D01*
X1300981Y299953D01*
Y292335D01*
X1293364D01*
X1290825Y294874D01*
X1293364Y297413D01*
X1300981D01*
X1306060Y292335D02*
X1311138D01*
X1308599D01*
Y307570D01*
X1306060D01*
X1196875Y520935D02*
Y536170D01*
X1189257Y528553D01*
X1199414D01*
X1189257Y482835D02*
X1194336D01*
X1191797D01*
Y498070D01*
X1189257Y495531D01*
X1201953D02*
X1204492Y498070D01*
X1209571D01*
X1212110Y495531D01*
Y485374D01*
X1209571Y482835D01*
X1204492D01*
X1201953Y485374D01*
Y495531D01*
X1189257Y444735D02*
X1194336D01*
X1191797D01*
Y459970D01*
X1189257Y457431D01*
X1212110Y444735D02*
X1201953D01*
X1212110Y454892D01*
Y457431D01*
X1209571Y459970D01*
X1204492D01*
X1201953Y457431D01*
X1189257Y406635D02*
X1194336D01*
X1191797D01*
Y421870D01*
X1189257Y419331D01*
X1209571Y406635D02*
Y421870D01*
X1201953Y414253D01*
X1212110D01*
X1196875Y368535D02*
Y383770D01*
X1189257Y376152D01*
X1199414D01*
X1212110Y368535D02*
Y383770D01*
X1204492Y376152D01*
X1214649D01*
X1189257Y332974D02*
X1191797Y330435D01*
X1196875D01*
X1199414Y332974D01*
Y343131D01*
X1196875Y345670D01*
X1191797D01*
X1189257Y343131D01*
Y340592D01*
X1191797Y338052D01*
X1199414D01*
X1204492Y343131D02*
X1207032Y345670D01*
X1212110D01*
X1214649Y343131D01*
Y340592D01*
X1212110Y338052D01*
X1209571D01*
X1212110D01*
X1214649Y335513D01*
Y332974D01*
X1212110Y330435D01*
X1207032D01*
X1204492Y332974D01*
D50*
X197593Y532553D02*
G03*
X197593Y532553I-2540J0D01*
G01*
X79040Y68000D02*
G03*
X79040Y68000I-2540J0D01*
G01*
X832540Y377000D02*
G03*
X832540Y377000I-2540J0D01*
G01*
X840444Y369096D02*
G03*
X840444Y369096I-2540J0D01*
G01*
X854760Y331498D02*
G03*
X854760Y331498I-2540J0D01*
G01*
X847638Y337000D02*
G03*
X847638Y337000I-2540J0D01*
G01*
X832790Y544000D02*
G03*
X832790Y544000I-2540J0D01*
G01*
X840540Y524000D02*
G03*
X840540Y524000I-2540J0D01*
G01*
X847540Y422316D02*
G03*
X847540Y422316I-2540J0D01*
G01*
X472540Y601450D02*
G03*
X472540Y601450I-2540J0D01*
G01*
X480040Y576050D02*
G03*
X480040Y576050I-2540J0D01*
G01*
X487540Y550650D02*
G03*
X487540Y550650I-2540J0D01*
G01*
X495040Y525250D02*
G03*
X495040Y525250I-2540J0D01*
G01*
X502540Y499850D02*
G03*
X502540Y499850I-2540J0D01*
G01*
X510040Y474450D02*
G03*
X510040Y474450I-2540J0D01*
G01*
X517540Y449050D02*
G03*
X517540Y449050I-2540J0D01*
G01*
X525040Y423650D02*
G03*
X525040Y423650I-2540J0D01*
G01*
X532540Y398250D02*
G03*
X532540Y398250I-2540J0D01*
G01*
X540040Y372850D02*
G03*
X540040Y372850I-2540J0D01*
G01*
X547540Y347500D02*
G03*
X547540Y347500I-2540J0D01*
G01*
X665640Y44400D02*
G03*
X665640Y44400I-2540J0D01*
G01*
X595040Y62500D02*
G03*
X595040Y62500I-2540J0D01*
G01*
X582540Y70000D02*
G03*
X582540Y70000I-2540J0D01*
G01*
X517540Y594250D02*
G03*
X517540Y594250I-2540J0D01*
G01*
X525040Y542500D02*
G03*
X525040Y542500I-2540J0D01*
G01*
X532540Y490000D02*
G03*
X532540Y490000I-2540J0D01*
G01*
X540040Y456750D02*
G03*
X540040Y456750I-2540J0D01*
G01*
X472290Y389750D02*
G03*
X472290Y389750I-2540J0D01*
G01*
X547540Y362500D02*
G03*
X547540Y362500I-2540J0D01*
G01*
X479790Y342250D02*
G03*
X479790Y342250I-2540J0D01*
G01*
X547540Y323750D02*
G03*
X547540Y323750I-2540J0D01*
G01*
X547040Y279500D02*
G03*
X547040Y279500I-2540J0D01*
G01*
X510040Y195000D02*
G03*
X510040Y195000I-2540J0D01*
G01*
X494540Y254500D02*
G03*
X494540Y254500I-2540J0D01*
G01*
X502540Y145000D02*
G03*
X502540Y145000I-2540J0D01*
G01*
X488163Y297837D02*
G03*
X488163Y297837I-2540J0D01*
G01*
X62540Y142500D02*
G03*
X62540Y142500I-2540J0D01*
G01*
X61540Y119000D02*
G03*
X61540Y119000I-2540J0D01*
G01*
X79040Y449000D02*
G03*
X79040Y449000I-2540J0D01*
G01*
X79540Y321750D02*
G03*
X79540Y321750I-2540J0D01*
G01*
X33540Y370000D02*
G03*
X33540Y370000I-2540J0D01*
G01*
X419040Y154500D02*
G03*
X419040Y154500I-2540J0D01*
G01*
Y204500D02*
G03*
X419040Y204500I-2540J0D01*
G01*
X437440Y457000D02*
G03*
X437440Y457000I-2540J0D01*
G01*
Y502830D02*
G03*
X437440Y502830I-2540J0D01*
G01*
Y548670D02*
G03*
X437440Y548670I-2540J0D01*
G01*
Y594500D02*
G03*
X437440Y594500I-2540J0D01*
G01*
X809407Y306500D02*
G03*
X809407Y306500I-2540J0D01*
G01*
X572540Y45000D02*
G03*
X572540Y45000I-2540J0D01*
G01*
X547540Y52500D02*
G03*
X547540Y52500I-2540J0D01*
G01*
X361040Y221102D02*
G03*
X361040Y221102I-2540J0D01*
G01*
X360540Y267102D02*
G03*
X360540Y267102I-2540J0D01*
G01*
Y311102D02*
G03*
X360540Y311102I-2540J0D01*
G01*
X361040Y356352D02*
G03*
X361040Y356352I-2540J0D01*
G01*
X332642Y456750D02*
G03*
X332642Y456750I-2540J0D01*
G01*
Y502580D02*
G03*
X332642Y502580I-2540J0D01*
G01*
Y548420D02*
G03*
X332642Y548420I-2540J0D01*
G01*
Y594250D02*
G03*
X332642Y594250I-2540J0D01*
G01*
X857540Y510000D02*
G03*
X857540Y510000I-2540J0D01*
G01*
X854790Y466237D02*
G03*
X854790Y466237I-2540J0D01*
G01*
X897540Y337500D02*
G03*
X897540Y337500I-2540J0D01*
G01*
X865040Y357500D02*
G03*
X865040Y357500I-2540J0D01*
G01*
X864040Y345000D02*
G03*
X864040Y345000I-2540J0D01*
G01*
X870040Y257500D02*
G03*
X870040Y257500I-2540J0D01*
G01*
X877540Y247500D02*
G03*
X877540Y247500I-2540J0D01*
G01*
Y372500D02*
G03*
X877540Y372500I-2540J0D01*
G01*
X885040Y365000D02*
G03*
X885040Y365000I-2540J0D01*
G01*
X877540Y202500D02*
G03*
X877540Y202500I-2540J0D01*
G01*
X882540Y160000D02*
G03*
X882540Y160000I-2540J0D01*
G01*
X892540Y320000D02*
G03*
X892540Y320000I-2540J0D01*
G01*
X900040Y312500D02*
G03*
X900040Y312500I-2540J0D01*
G01*
X907540Y305000D02*
G03*
X907540Y305000I-2540J0D01*
G01*
X887540Y115000D02*
G03*
X887540Y115000I-2540J0D01*
G01*
X895040Y82500D02*
G03*
X895040Y82500I-2540J0D01*
G01*
X88040Y568250D02*
G03*
X88040Y568250I-2540J0D01*
G01*
X299790Y569500D02*
G03*
X299790Y569500I-2540J0D01*
G01*
X562040Y587250D02*
G03*
X562040Y587250I-2540J0D01*
G01*
X562290Y536250D02*
G03*
X562290Y536250I-2540J0D01*
G01*
X564290Y484500D02*
G03*
X564290Y484500I-2540J0D01*
G01*
X565540Y409000D02*
G03*
X565540Y409000I-2540J0D01*
G01*
X435540Y410000D02*
G03*
X435540Y410000I-2540J0D01*
G01*
X764040Y406750D02*
G03*
X764040Y406750I-2540J0D01*
G01*
Y434250D02*
G03*
X764040Y434250I-2540J0D01*
G01*
X764540Y477500D02*
G03*
X764540Y477500I-2540J0D01*
G01*
X711290Y63500D02*
G03*
X711290Y63500I-2540J0D01*
G01*
X548040Y246000D02*
G03*
X548040Y246000I-2540J0D01*
G01*
X800540Y386750D02*
G03*
X800540Y386750I-2540J0D01*
G01*
X799540Y445250D02*
G03*
X799540Y445250I-2540J0D01*
G01*
X798540Y278500D02*
G03*
X798540Y278500I-2540J0D01*
G01*
X813290Y224750D02*
G03*
X813290Y224750I-2540J0D01*
G01*
X801290Y182750D02*
G03*
X801290Y182750I-2540J0D01*
G01*
X849290Y265750D02*
G03*
X849290Y265750I-2540J0D01*
G01*
X849790Y232500D02*
G03*
X849790Y232500I-2540J0D01*
G01*
X37460Y38730D02*
X38730D01*
X37460D02*
Y41270D01*
X38730D01*
Y42540D01*
X41270D01*
Y41270D02*
Y42540D01*
Y41270D02*
X42540D01*
Y38730D02*
Y41270D01*
X41270Y38730D02*
X42540D01*
X41270Y37460D02*
Y38730D01*
X38730Y37460D02*
X41270D01*
X38730D02*
Y38730D01*
X37460Y583730D02*
X38730D01*
X37460D02*
Y586270D01*
X38730D01*
Y587540D01*
X41270D01*
Y586270D02*
Y587540D01*
Y586270D02*
X42540D01*
Y583730D02*
Y586270D01*
X41270Y583730D02*
X42540D01*
X41270Y582460D02*
Y583730D01*
X38730Y582460D02*
X41270D01*
X38730D02*
Y583730D01*
X852460D02*
X853730D01*
X852460D02*
Y586270D01*
X853730D01*
Y587540D01*
X856270D01*
Y586270D02*
Y587540D01*
Y586270D02*
X857540D01*
Y583730D02*
Y586270D01*
X856270Y583730D02*
X857540D01*
X856270Y582460D02*
Y583730D01*
X853730Y582460D02*
X856270D01*
X853730D02*
Y583730D01*
X852460Y38730D02*
X853730D01*
X852460D02*
Y41270D01*
X853730D01*
Y42540D01*
X856270D01*
Y41270D02*
Y42540D01*
Y41270D02*
X857540D01*
Y38730D02*
Y41270D01*
X856270Y38730D02*
X857540D01*
X856270Y37460D02*
Y38730D01*
X853730Y37460D02*
X856270D01*
X853730D02*
Y38730D01*
X449610Y89460D02*
X454690D01*
Y94540D01*
X449610D02*
X454690D01*
X449610Y89460D02*
Y94540D01*
X398810Y89460D02*
X403890D01*
Y94540D01*
X398810D02*
X403890D01*
X398810Y89460D02*
Y94540D01*
X424210Y89460D02*
X429290D01*
Y94540D01*
X424210D02*
X429290D01*
X424210Y89460D02*
Y94540D01*
X475010Y89460D02*
X480090D01*
Y94540D01*
X475010D02*
X480090D01*
X475010Y89460D02*
Y94540D01*
X500410Y89460D02*
X505490D01*
Y94540D01*
X500410D02*
X505490D01*
X500410Y89460D02*
Y94540D01*
X340210Y16310D02*
X345290D01*
Y21390D01*
X340210D02*
X345290D01*
X340210Y16310D02*
Y21390D01*
Y41710D02*
X345290D01*
Y46790D01*
X340210D02*
X345290D01*
X340210Y41710D02*
Y46790D01*
Y67110D02*
X345290D01*
Y72190D01*
X340210D02*
X345290D01*
X340210Y67110D02*
Y72190D01*
X421760Y28960D02*
X424300Y30230D01*
X426840Y28960D01*
X425570Y31500D02*
X426840Y28960D01*
X425570Y31500D02*
X426840Y34040D01*
X424300Y32770D02*
X426840Y34040D01*
X421760D02*
X424300Y32770D01*
X421760Y34040D02*
X423030Y31500D01*
X421760Y28960D02*
X423030Y31500D01*
X434460Y28960D02*
X437000Y30230D01*
X439540Y28960D01*
X438270Y31500D02*
X439540Y28960D01*
X438270Y31500D02*
X439540Y34040D01*
X437000Y32770D02*
X439540Y34040D01*
X434460D02*
X437000Y32770D01*
X434460Y34040D02*
X435730Y31500D01*
X434460Y28960D02*
X435730Y31500D01*
X447160Y28960D02*
X449700Y30230D01*
X452240Y28960D01*
X450970Y31500D02*
X452240Y28960D01*
X450970Y31500D02*
X452240Y34040D01*
X449700Y32770D02*
X452240Y34040D01*
X447160D02*
X449700Y32770D01*
X447160Y34040D02*
X448430Y31500D01*
X447160Y28960D02*
X448430Y31500D01*
X459860Y28960D02*
X462400Y30230D01*
X464940Y28960D01*
X463670Y31500D02*
X464940Y28960D01*
X463670Y31500D02*
X464940Y34040D01*
X462400Y32770D02*
X464940Y34040D01*
X459860D02*
X462400Y32770D01*
X459860Y34040D02*
X461130Y31500D01*
X459860Y28960D02*
X461130Y31500D01*
X472560Y28960D02*
X475100Y30230D01*
X477640Y28960D01*
X476370Y31500D02*
X477640Y28960D01*
X476370Y31500D02*
X477640Y34040D01*
X475100Y32770D02*
X477640Y34040D01*
X472560D02*
X475100Y32770D01*
X472560Y34040D02*
X473830Y31500D01*
X472560Y28960D02*
X473830Y31500D01*
X421760Y41660D02*
X424300Y42930D01*
X426840Y41660D01*
X425570Y44200D02*
X426840Y41660D01*
X425570Y44200D02*
X426840Y46740D01*
X424300Y45470D02*
X426840Y46740D01*
X421760D02*
X424300Y45470D01*
X421760Y46740D02*
X423030Y44200D01*
X421760Y41660D02*
X423030Y44200D01*
X447160Y41660D02*
X449700Y42930D01*
X452240Y41660D01*
X450970Y44200D02*
X452240Y41660D01*
X450970Y44200D02*
X452240Y46740D01*
X449700Y45470D02*
X452240Y46740D01*
X447160D02*
X449700Y45470D01*
X447160Y46740D02*
X448430Y44200D01*
X447160Y41660D02*
X448430Y44200D01*
X459860Y41660D02*
X462400Y42930D01*
X464940Y41660D01*
X463670Y44200D02*
X464940Y41660D01*
X463670Y44200D02*
X464940Y46740D01*
X462400Y45470D02*
X464940Y46740D01*
X459860D02*
X462400Y45470D01*
X459860Y46740D02*
X461130Y44200D01*
X459860Y41660D02*
X461130Y44200D01*
X472560Y41660D02*
X475100Y42930D01*
X477640Y41660D01*
X476370Y44200D02*
X477640Y41660D01*
X476370Y44200D02*
X477640Y46740D01*
X475100Y45470D02*
X477640Y46740D01*
X472560D02*
X475100Y45470D01*
X472560Y46740D02*
X473830Y44200D01*
X472560Y41660D02*
X473830Y44200D01*
X746530Y464967D02*
X747800Y463697D01*
X745260Y464967D02*
X746530D01*
X745260D02*
X746530Y466237D01*
X745260Y467507D02*
X746530Y466237D01*
X745260Y467507D02*
X746530D01*
X747800Y468777D01*
X749070Y467507D01*
X750340D01*
X749070Y466237D02*
X750340Y467507D01*
X749070Y466237D02*
X750340Y464967D01*
X749070D02*
X750340D01*
X747800Y463697D02*
X749070Y464967D01*
X746530Y289283D02*
X747800Y288013D01*
X745260Y289283D02*
X746530D01*
X745260D02*
X746530Y290553D01*
X745260Y291823D02*
X746530Y290553D01*
X745260Y291823D02*
X746530D01*
X747800Y293093D01*
X749070Y291823D01*
X750340D01*
X749070Y290553D02*
X750340Y291823D01*
X749070Y290553D02*
X750340Y289283D01*
X749070D02*
X750340D01*
X747800Y288013D02*
X749070Y289283D01*
X746530Y333204D02*
X747800Y331934D01*
X745260Y333204D02*
X746530D01*
X745260D02*
X746530Y334474D01*
X745260Y335744D02*
X746530Y334474D01*
X745260Y335744D02*
X746530D01*
X747800Y337014D01*
X749070Y335744D01*
X750340D01*
X749070Y334474D02*
X750340Y335744D01*
X749070Y334474D02*
X750340Y333204D01*
X749070D02*
X750340D01*
X747800Y331934D02*
X749070Y333204D01*
X746530Y377125D02*
X747800Y375855D01*
X745260Y377125D02*
X746530D01*
X745260D02*
X746530Y378395D01*
X745260Y379665D02*
X746530Y378395D01*
X745260Y379665D02*
X746530D01*
X747800Y380935D01*
X749070Y379665D01*
X750340D01*
X749070Y378395D02*
X750340Y379665D01*
X749070Y378395D02*
X750340Y377125D01*
X749070D02*
X750340D01*
X747800Y375855D02*
X749070Y377125D01*
X746530Y421046D02*
X747800Y419776D01*
X745260Y421046D02*
X746530D01*
X745260D02*
X746530Y422316D01*
X745260Y423586D02*
X746530Y422316D01*
X745260Y423586D02*
X746530D01*
X747800Y424856D01*
X749070Y423586D01*
X750340D01*
X749070Y422316D02*
X750340Y423586D01*
X749070Y422316D02*
X750340Y421046D01*
X749070D02*
X750340D01*
X747800Y419776D02*
X749070Y421046D01*
X746530Y596730D02*
X747800Y595460D01*
X745260Y596730D02*
X746530D01*
X745260D02*
X746530Y598000D01*
X745260Y599270D02*
X746530Y598000D01*
X745260Y599270D02*
X746530D01*
X747800Y600540D01*
X749070Y599270D01*
X750340D01*
X749070Y598000D02*
X750340Y599270D01*
X749070Y598000D02*
X750340Y596730D01*
X749070D02*
X750340D01*
X747800Y595460D02*
X749070Y596730D01*
X746530Y552809D02*
X747800Y551539D01*
X745260Y552809D02*
X746530D01*
X745260D02*
X746530Y554079D01*
X745260Y555349D02*
X746530Y554079D01*
X745260Y555349D02*
X746530D01*
X747800Y556619D01*
X749070Y555349D01*
X750340D01*
X749070Y554079D02*
X750340Y555349D01*
X749070Y554079D02*
X750340Y552809D01*
X749070D02*
X750340D01*
X747800Y551539D02*
X749070Y552809D01*
X746530Y508888D02*
X747800Y507618D01*
X745260Y508888D02*
X746530D01*
X745260D02*
X746530Y510158D01*
X745260Y511428D02*
X746530Y510158D01*
X745260Y511428D02*
X746530D01*
X747800Y512698D01*
X749070Y511428D01*
X750340D01*
X749070Y510158D02*
X750340Y511428D01*
X749070Y510158D02*
X750340Y508888D01*
X749070D02*
X750340D01*
X747800Y507618D02*
X749070Y508888D01*
X746530Y70651D02*
X747800Y69381D01*
X745260Y70651D02*
X746530D01*
X745260D02*
X746530Y71921D01*
X745260Y73191D02*
X746530Y71921D01*
X745260Y73191D02*
X746530D01*
X747800Y74461D01*
X749070Y73191D01*
X750340D01*
X749070Y71921D02*
X750340Y73191D01*
X749070Y71921D02*
X750340Y70651D01*
X749070D02*
X750340D01*
X747800Y69381D02*
X749070Y70651D01*
X746530Y157516D02*
X747800Y156246D01*
X745260Y157516D02*
X746530D01*
X745260D02*
X746530Y158786D01*
X745260Y160056D02*
X746530Y158786D01*
X745260Y160056D02*
X746530D01*
X747800Y161326D01*
X749070Y160056D01*
X750340D01*
X749070Y158786D02*
X750340Y160056D01*
X749070Y158786D02*
X750340Y157516D01*
X749070D02*
X750340D01*
X747800Y156246D02*
X749070Y157516D01*
X746530Y201437D02*
X747800Y200167D01*
X745260Y201437D02*
X746530D01*
X745260D02*
X746530Y202707D01*
X745260Y203977D02*
X746530Y202707D01*
X745260Y203977D02*
X746530D01*
X747800Y205247D01*
X749070Y203977D01*
X750340D01*
X749070Y202707D02*
X750340Y203977D01*
X749070Y202707D02*
X750340Y201437D01*
X749070D02*
X750340D01*
X747800Y200167D02*
X749070Y201437D01*
X746530Y114572D02*
X747800Y113302D01*
X745260Y114572D02*
X746530D01*
X745260D02*
X746530Y115842D01*
X745260Y117112D02*
X746530Y115842D01*
X745260Y117112D02*
X746530D01*
X747800Y118382D01*
X749070Y117112D01*
X750340D01*
X749070Y115842D02*
X750340Y117112D01*
X749070Y115842D02*
X750340Y114572D01*
X749070D02*
X750340D01*
X747800Y113302D02*
X749070Y114572D01*
X746530Y245358D02*
X747800Y244088D01*
X745260Y245358D02*
X746530D01*
X745260D02*
X746530Y246628D01*
X745260Y247898D02*
X746530Y246628D01*
X745260Y247898D02*
X746530D01*
X747800Y249168D01*
X749070Y247898D01*
X750340D01*
X749070Y246628D02*
X750340Y247898D01*
X749070Y246628D02*
X750340Y245358D01*
X749070D02*
X750340D01*
X747800Y244088D02*
X749070Y245358D01*
X746530Y26730D02*
X747800Y25460D01*
X745260Y26730D02*
X746530D01*
X745260D02*
X746530Y28000D01*
X745260Y29270D02*
X746530Y28000D01*
X745260Y29270D02*
X746530D01*
X747800Y30540D01*
X749070Y29270D01*
X750340D01*
X749070Y28000D02*
X750340Y29270D01*
X749070Y28000D02*
X750340Y26730D01*
X749070D02*
X750340D01*
X747800Y25460D02*
X749070Y26730D01*
X26460Y214060D02*
X31540D01*
Y219140D01*
X26460D02*
X31540D01*
X26460Y214060D02*
Y219140D01*
Y239460D02*
X31540D01*
Y244540D01*
X26460D02*
X31540D01*
X26460Y239460D02*
Y244540D01*
Y264860D02*
X31540D01*
Y269940D01*
X26460D02*
X31540D01*
X26460Y264860D02*
Y269940D01*
X434460Y41660D02*
X437000Y42930D01*
X439540Y41660D01*
X438270Y44200D02*
X439540Y41660D01*
X438270Y44200D02*
X439540Y46740D01*
X437000Y45470D02*
X439540Y46740D01*
X434460D02*
X437000Y45470D01*
X434460Y46740D02*
X435730Y44200D01*
X434460Y41660D02*
X435730Y44200D01*
X595510Y300470D02*
X600590D01*
Y305550D01*
X595510D02*
X600590D01*
X595510Y300470D02*
Y305550D01*
X620910Y300470D02*
X625990D01*
Y305550D01*
X620910D02*
X625990D01*
X620910Y300470D02*
Y305550D01*
X646310Y300470D02*
X651390D01*
Y305550D01*
X646310D02*
X651390D01*
X646310Y300470D02*
Y305550D01*
X633610Y344910D02*
X638690D01*
Y349990D01*
X633610D02*
X638690D01*
X633610Y344910D02*
Y349990D01*
Y370310D02*
X638690D01*
Y375390D01*
X633610D02*
X638690D01*
X633610Y370310D02*
Y375390D01*
X608210Y344910D02*
X613290D01*
Y349990D01*
X608210D02*
X613290D01*
X608210Y344910D02*
Y349990D01*
Y370310D02*
X613290D01*
Y375390D01*
X608210D02*
X613290D01*
X608210Y370310D02*
Y375390D01*
X633610Y421110D02*
X638690D01*
Y426190D01*
X633610D02*
X638690D01*
X633610Y421110D02*
Y426190D01*
X608210Y421110D02*
X613290D01*
Y426190D01*
X608210D02*
X613290D01*
X608210Y421110D02*
Y426190D01*
X633610Y471910D02*
X638690D01*
Y476990D01*
X633610D02*
X638690D01*
X633610Y471910D02*
Y476990D01*
X608210Y471910D02*
X613290D01*
Y476990D01*
X608210D02*
X613290D01*
X608210Y471910D02*
Y476990D01*
X633610Y497310D02*
X638690D01*
Y502390D01*
X633610D02*
X638690D01*
X633610Y497310D02*
Y502390D01*
X608210Y497310D02*
X613290D01*
Y502390D01*
X608210D02*
X613290D01*
X608210Y497310D02*
Y502390D01*
X633610Y573510D02*
X638690D01*
Y578590D01*
X633610D02*
X638690D01*
X633610Y573510D02*
Y578590D01*
X608210Y573510D02*
X613290D01*
Y578590D01*
X608210D02*
X613290D01*
X608210Y573510D02*
Y578590D01*
X633610Y598910D02*
X638690D01*
Y603990D01*
X633610D02*
X638690D01*
X633610Y598910D02*
Y603990D01*
X608210Y598910D02*
X613290D01*
Y603990D01*
X608210D02*
X613290D01*
X608210Y598910D02*
Y603990D01*
Y548110D02*
X613290D01*
Y553190D01*
X608210D02*
X613290D01*
X608210Y548110D02*
Y553190D01*
X633610Y548110D02*
X638690D01*
Y553190D01*
X633610D02*
X638690D01*
X633610Y548110D02*
Y553190D01*
X608210Y522710D02*
X613290D01*
Y527790D01*
X608210D02*
X613290D01*
X608210Y522710D02*
Y527790D01*
X633610Y522710D02*
X638690D01*
Y527790D01*
X633610D02*
X638690D01*
X633610Y522710D02*
Y527790D01*
X608210Y446510D02*
X613290D01*
Y451590D01*
X608210D02*
X613290D01*
X608210Y446510D02*
Y451590D01*
X633610Y446510D02*
X638690D01*
Y451590D01*
X633610D02*
X638690D01*
X633610Y446510D02*
Y451590D01*
X608210Y395710D02*
X613290D01*
Y400790D01*
X608210D02*
X613290D01*
X608210Y395710D02*
Y400790D01*
X633610Y395710D02*
X638690D01*
Y400790D01*
X633610D02*
X638690D01*
X633610Y395710D02*
Y400790D01*
Y256780D02*
X638690D01*
Y261860D01*
X633610D02*
X638690D01*
X633610Y256780D02*
Y261860D01*
X608210Y256780D02*
X613290D01*
Y261860D01*
X608210D02*
X613290D01*
X608210Y256780D02*
Y261860D01*
X633610Y125710D02*
X638690D01*
Y130790D01*
X633610D02*
X638690D01*
X633610Y125710D02*
Y130790D01*
X608210Y125710D02*
X613290D01*
Y130790D01*
X608210D02*
X613290D01*
X608210Y125710D02*
Y130790D01*
X633610Y169400D02*
X638690D01*
Y174480D01*
X633610D02*
X638690D01*
X633610Y169400D02*
Y174480D01*
X608210Y169400D02*
X613290D01*
Y174480D01*
X608210D02*
X613290D01*
X608210Y169400D02*
Y174480D01*
X633610Y213090D02*
X638690D01*
Y218170D01*
X633610D02*
X638690D01*
X633610Y213090D02*
Y218170D01*
X608210Y213090D02*
X613290D01*
Y218170D01*
X608210D02*
X613290D01*
X608210Y213090D02*
Y218170D01*
X688500Y14360D02*
X691040Y19440D01*
X685960D02*
X691040D01*
X685960D02*
X688500Y14360D01*
X663100D02*
X665640Y19440D01*
X660560D02*
X665640D01*
X660560D02*
X663100Y14360D01*
X637700D02*
X640240Y19440D01*
X635160D02*
X640240D01*
X635160D02*
X637700Y14360D01*
X612300D02*
X614840Y19440D01*
X609760D02*
X614840D01*
X609760D02*
X612300Y14360D01*
X586900D02*
X589440Y19440D01*
X584360D02*
X589440D01*
X584360D02*
X586900Y14360D01*
X561500D02*
X564040Y19440D01*
X558960D02*
X564040D01*
X558960D02*
X561500Y14360D01*
Y90560D02*
X564040Y95640D01*
X558960D02*
X564040D01*
X558960D02*
X561500Y90560D01*
X586900D02*
X589440Y95640D01*
X584360D02*
X589440D01*
X584360D02*
X586900Y90560D01*
X612300D02*
X614840Y95640D01*
X609760D02*
X614840D01*
X609760D02*
X612300Y90560D01*
X637700D02*
X640240Y95640D01*
X635160D02*
X640240D01*
X635160D02*
X637700Y90560D01*
X663100D02*
X665640Y95640D01*
X660560D02*
X665640D01*
X660560D02*
X663100Y90560D01*
X688500D02*
X691040Y95640D01*
X685960D02*
X691040D01*
X685960D02*
X688500Y90560D01*
D51*
X1037905Y547605D02*
X2671189D01*
X1037905Y319005D02*
X2671189D01*
X1037905Y280905D02*
X2671189D01*
Y585705D01*
X1037905D02*
X2671189D01*
X1037905Y280905D02*
Y585705D01*
X2470326Y280905D02*
Y585705D01*
X2320505Y280905D02*
Y585705D01*
X1939619Y280905D02*
Y585705D01*
X1753233Y280905D02*
Y585705D01*
X1624741Y280905D02*
Y585705D01*
X1327648Y280905D02*
Y585705D01*
X1177827Y280905D02*
Y585705D01*
D52*
X2481756Y559035D02*
Y577317D01*
X2490898D01*
X2493945Y574270D01*
Y568176D01*
X2490898Y565129D01*
X2481756D01*
X2503085Y571223D02*
X2509180D01*
X2512227Y568176D01*
Y559035D01*
X2503085D01*
X2500038Y562082D01*
X2503085Y565129D01*
X2512227D01*
X2530509Y577317D02*
Y559035D01*
X2521368D01*
X2518321Y562082D01*
Y568176D01*
X2521368Y571223D01*
X2530509D01*
X2567073Y574270D02*
X2564026Y577317D01*
X2557932D01*
X2554885Y574270D01*
Y571223D01*
X2557932Y568176D01*
X2564026D01*
X2567073Y565129D01*
Y562082D01*
X2564026Y559035D01*
X2557932D01*
X2554885Y562082D01*
X2573167Y577317D02*
Y559035D01*
Y568176D01*
X2576214Y571223D01*
X2582308D01*
X2585355Y568176D01*
Y559035D01*
X2594496Y571223D02*
X2600590D01*
X2603637Y568176D01*
Y559035D01*
X2594496D01*
X2591449Y562082D01*
X2594496Y565129D01*
X2603637D01*
X2609731Y552941D02*
Y571223D01*
X2618872D01*
X2621919Y568176D01*
Y562082D01*
X2618872Y559035D01*
X2609731D01*
X2637154D02*
X2631060D01*
X2628013Y562082D01*
Y568176D01*
X2631060Y571223D01*
X2637154D01*
X2640201Y568176D01*
Y565129D01*
X2628013D01*
X2331935Y577317D02*
Y565129D01*
X2338029Y559035D01*
X2344123Y565129D01*
Y577317D01*
X2350217Y559035D02*
X2356311D01*
X2353264D01*
Y571223D01*
X2350217D01*
X2368499D02*
X2374593D01*
X2377640Y568176D01*
Y559035D01*
X2368499D01*
X2365452Y562082D01*
X2368499Y565129D01*
X2377640D01*
X2383734Y559035D02*
X2395922Y571223D01*
X2402016Y559035D02*
Y577317D01*
X2411157D01*
X2414204Y574270D01*
Y568176D01*
X2411157Y565129D01*
X2402016D01*
X2423345Y571223D02*
X2429439D01*
X2432486Y568176D01*
Y559035D01*
X2423345D01*
X2420298Y562082D01*
X2423345Y565129D01*
X2432486D01*
X2450768Y577317D02*
Y559035D01*
X2441627D01*
X2438580Y562082D01*
Y568176D01*
X2441627Y571223D01*
X2450768D01*
X1951049Y577317D02*
Y559035D01*
X1960190D01*
X1963237Y562082D01*
Y574270D01*
X1960190Y577317D01*
X1951049D01*
X1969331Y571223D02*
Y559035D01*
Y565129D01*
X1972378Y568176D01*
X1975425Y571223D01*
X1978472D01*
X1987613Y559035D02*
X1993707D01*
X1990660D01*
Y571223D01*
X1987613D01*
X2002848Y559035D02*
X2008942D01*
X2005895D01*
Y577317D01*
X2002848D01*
X2018083Y559035D02*
X2024177D01*
X2021130D01*
Y577317D01*
X2018083D01*
X2051600D02*
Y559035D01*
X2063789D01*
X2072930Y571223D02*
X2079024D01*
X2082071Y568176D01*
Y559035D01*
X2072930D01*
X2069883Y562082D01*
X2072930Y565129D01*
X2082071D01*
X2088165Y571223D02*
Y562082D01*
X2091212Y559035D01*
X2100353D01*
Y555988D01*
X2097306Y552941D01*
X2094259D01*
X2100353Y559035D02*
Y571223D01*
X2115588Y559035D02*
X2109494D01*
X2106447Y562082D01*
Y568176D01*
X2109494Y571223D01*
X2115588D01*
X2118635Y568176D01*
Y565129D01*
X2106447D01*
X2124729Y571223D02*
Y559035D01*
Y565129D01*
X2127776Y568176D01*
X2130823Y571223D01*
X2133870D01*
X2161293Y559035D02*
Y577317D01*
X2170434D01*
X2173481Y574270D01*
Y568176D01*
X2170434Y565129D01*
X2161293D01*
X2182622Y571223D02*
X2188716D01*
X2191763Y568176D01*
Y559035D01*
X2182622D01*
X2179575Y562082D01*
X2182622Y565129D01*
X2191763D01*
X2197857Y559035D02*
X2203951D01*
X2200904D01*
Y571223D01*
X2197857D01*
X2213092D02*
Y559035D01*
Y565129D01*
X2216139Y568176D01*
X2219186Y571223D01*
X2222233D01*
X1764663Y577317D02*
Y559035D01*
Y568176D01*
X1776851D01*
Y577317D01*
Y559035D01*
X1785992D02*
X1792086D01*
X1795134Y562082D01*
Y568176D01*
X1792086Y571223D01*
X1785992D01*
X1782945Y568176D01*
Y562082D01*
X1785992Y559035D01*
X1801228D02*
X1807321D01*
X1804274D01*
Y577317D01*
X1801228D01*
X1825604Y559035D02*
X1819510D01*
X1816463Y562082D01*
Y568176D01*
X1819510Y571223D01*
X1825604D01*
X1828651Y568176D01*
Y565129D01*
X1816463D01*
X1853027Y577317D02*
X1865215D01*
X1859121D01*
Y559035D01*
X1871309Y571223D02*
Y562082D01*
X1874356Y559035D01*
X1883497D01*
Y555988D01*
X1880450Y552941D01*
X1877403D01*
X1883497Y559035D02*
Y571223D01*
X1889591Y552941D02*
Y571223D01*
X1898732D01*
X1901779Y568176D01*
Y562082D01*
X1898732Y559035D01*
X1889591D01*
X1917014D02*
X1910920D01*
X1907873Y562082D01*
Y568176D01*
X1910920Y571223D01*
X1917014D01*
X1920061Y568176D01*
Y565129D01*
X1907873D01*
X1636171Y559035D02*
Y577317D01*
X1645312D01*
X1648359Y574270D01*
Y568176D01*
X1645312Y565129D01*
X1636171D01*
X1654453Y559035D02*
X1660547D01*
X1657500D01*
Y577317D01*
X1654453D01*
X1672735Y571223D02*
X1678829D01*
X1681876Y568176D01*
Y559035D01*
X1672735D01*
X1669688Y562082D01*
X1672735Y565129D01*
X1681876D01*
X1691017Y574270D02*
Y571223D01*
X1687970D01*
X1694064D01*
X1691017D01*
Y562082D01*
X1694064Y559035D01*
X1712346D02*
X1706252D01*
X1703205Y562082D01*
Y568176D01*
X1706252Y571223D01*
X1712346D01*
X1715393Y568176D01*
Y565129D01*
X1703205D01*
X1733675Y577317D02*
Y559035D01*
X1724534D01*
X1721487Y562082D01*
Y568176D01*
X1724534Y571223D01*
X1733675D01*
X1339078Y577317D02*
Y559035D01*
Y568176D01*
X1351266D01*
Y577317D01*
Y559035D01*
X1360407D02*
X1366501D01*
X1369548Y562082D01*
Y568176D01*
X1366501Y571223D01*
X1360407D01*
X1357360Y568176D01*
Y562082D01*
X1360407Y559035D01*
X1375642D02*
X1381736D01*
X1378689D01*
Y577317D01*
X1375642D01*
X1400018Y559035D02*
X1393924D01*
X1390877Y562082D01*
Y568176D01*
X1393924Y571223D01*
X1400018D01*
X1403065Y568176D01*
Y565129D01*
X1390877D01*
X1439630Y574270D02*
X1436582Y577317D01*
X1430488D01*
X1427441Y574270D01*
Y571223D01*
X1430488Y568176D01*
X1436582D01*
X1439630Y565129D01*
Y562082D01*
X1436582Y559035D01*
X1430488D01*
X1427441Y562082D01*
X1445724Y559035D02*
X1451817D01*
X1448770D01*
Y571223D01*
X1445724D01*
X1460959D02*
X1473147D01*
X1460959Y559035D01*
X1473147D01*
X1488382D02*
X1482288D01*
X1479241Y562082D01*
Y568176D01*
X1482288Y571223D01*
X1488382D01*
X1491429Y568176D01*
Y565129D01*
X1479241D01*
X1201445Y574270D02*
X1198399Y577317D01*
X1192304D01*
X1189257Y574270D01*
Y562082D01*
X1192304Y559035D01*
X1198399D01*
X1201445Y562082D01*
X1210586Y559035D02*
X1216681D01*
X1219728Y562082D01*
Y568176D01*
X1216681Y571223D01*
X1210586D01*
X1207540Y568176D01*
Y562082D01*
X1210586Y559035D01*
X1225822Y571223D02*
Y562082D01*
X1228869Y559035D01*
X1238010D01*
Y571223D01*
X1244104Y559035D02*
Y571223D01*
X1253245D01*
X1256292Y568176D01*
Y559035D01*
X1265433Y574270D02*
Y571223D01*
X1262386D01*
X1268480D01*
X1265433D01*
Y562082D01*
X1268480Y559035D01*
X1072953Y574270D02*
X1069906Y577317D01*
X1063812D01*
X1060765Y574270D01*
Y571223D01*
X1063812Y568176D01*
X1069906D01*
X1072953Y565129D01*
Y562082D01*
X1069906Y559035D01*
X1063812D01*
X1060765Y562082D01*
X1079047Y571223D02*
Y562082D01*
X1082094Y559035D01*
X1091235D01*
Y555988D01*
X1088188Y552941D01*
X1085141D01*
X1091235Y559035D02*
Y571223D01*
X1097329Y559035D02*
Y571223D01*
X1100376D01*
X1103423Y568176D01*
Y559035D01*
Y568176D01*
X1106470Y571223D01*
X1109517Y568176D01*
Y559035D01*
X1115611Y577317D02*
Y559035D01*
X1124752D01*
X1127799Y562082D01*
Y565129D01*
Y568176D01*
X1124752Y571223D01*
X1115611D01*
X1136940Y559035D02*
X1143034D01*
X1146081Y562082D01*
Y568176D01*
X1143034Y571223D01*
X1136940D01*
X1133893Y568176D01*
Y562082D01*
X1136940Y559035D01*
X1152175D02*
X1158269D01*
X1155222D01*
Y577317D01*
X1152175D01*
M02*
