M48
;Layer_Color=9474304
;FILE_FORMAT=4:4
METRIC,LZ
;TYPE=PLATED
T1F00S00C0.3500
T2F00S00C0.7400
T3F00S00C0.7900
T4F00S00C1.1000
T5F00S00C1.6000
T6F00S00C3.2000
%
T01
X000765Y00068
X00059Y00119
X0006Y001425
X00545Y000525
X0057Y00045
X0058Y0007
X005925Y000625
X006631Y000444
X0070875Y000635
X008925Y000825
X00885Y00115
X0088Y0016
X00875Y002025
Y002475
X008675Y002575
X0084675Y0026575
X0084725Y002325
X0081075Y0022475
X0079875Y0018275
X00796Y002785
X00806867Y003065
X00845098Y00337
X0085222Y00331498
X008615Y00345
X008625Y003575
X008825Y00365
X00875Y003725
X00837904Y00369096
X0083Y00377
X00798Y0038675
X007615Y0040675
Y0043425
X00762Y004775
X00797Y0044525
X00845Y00422316
X0085225Y00466237
X00855Y0051
X00838Y00524
X00895Y003375
X0089Y0032
X008975Y003125
X00905Y00305
X00545Y0032375
Y003475
Y003625
X00563Y00409
X0056175Y004845
X0055975Y0053625
X005445Y002795
X005455Y00246
X00492Y002545
X00485623Y00297837
X0047725Y0034225
X0046975Y0038975
X00433Y0041
X004349Y00457
Y0050283
X005Y0049985
X004925Y0052525
X005075Y0047445
X00515Y0044905
X005375Y0045675
X0053Y0049
X005225Y0042365
X0053Y0039825
X005375Y0037285
X003585Y00356352
X00358Y00311102
Y00267102
X003585Y00221102
X004165Y002045
Y001545
X005Y00145
X005075Y00195
X00330102Y0045675
Y0050258
X00195054Y00532553
X000765Y00449
X00031Y0037
X00077Y0032175
X000855Y0056825
X0029725Y005695
X00330102Y0054842
Y0059425
X004349Y005945
X0047Y0060145
X004775Y0057605
X00485Y0055065
X005225Y005425
X00515Y0059425
X004349Y0054867
X005595Y0058725
X0083025Y00544
T02
X004243Y000315
Y000442
X00437
X004497
X004624
X004751
Y000315
X004624
X004497
X00437
T03
X005615Y000169
X005869
X006123
X006377
X006631
X006885
Y000931
X006631
X006377
X006123
X005869
X005615
T04
X0034275Y0001885
Y0004425
Y0006965
X0040135Y00092
X0042675
X0045215
X0047755
X0050295
X0061075Y0012825
X0063615
Y0017194
X0061075
Y0021563
X0063615
Y0025932
X0061075
X0062345Y0030301
X0064885
X0059805
X0061075Y0034745
Y0037285
Y0039825
X0063615
Y0042365
Y0044905
X0061075
Y0047445
Y0049985
Y0052525
X0063615
Y0049985
Y0047445
X0061075Y0042365
X0063615Y0037285
Y0034745
X00029Y002674
Y00242
Y002166
X0061075Y0055065
X0063615
Y0057605
Y0060145
X0061075
Y0057605
T05
X007478Y00028
Y00071921
Y00115842
Y00158786
Y00202707
Y00246628
Y00290553
Y00334474
Y00378395
Y00422316
Y00466237
Y00510158
Y00554079
Y00598
T06
X0004Y0004
X00855
X0004Y00585
X00855
M30
