G04*
G04 #@! TF.GenerationSoftware,Altium Limited,Altium Designer,22.8.2 (66)*
G04*
G04 Layer_Color=8421504*
%FSLAX44Y44*%
%MOMM*%
G71*
G04*
G04 #@! TF.SameCoordinates,3F1CDDAE-498F-410C-A07E-9CE41E262C2E*
G04*
G04*
G04 #@! TF.FilePolarity,Positive*
G04*
G01*
G75*
%ADD15R,0.8000X1.7000*%
%ADD16R,1.5242X0.5780*%
G04:AMPARAMS|DCode=17|XSize=1.5242mm|YSize=0.578mm|CornerRadius=0.289mm|HoleSize=0mm|Usage=FLASHONLY|Rotation=180.000|XOffset=0mm|YOffset=0mm|HoleType=Round|Shape=RoundedRectangle|*
%AMROUNDEDRECTD17*
21,1,1.5242,0.0000,0,0,180.0*
21,1,0.9463,0.5780,0,0,180.0*
1,1,0.5780,-0.4731,0.0000*
1,1,0.5780,0.4731,0.0000*
1,1,0.5780,0.4731,0.0000*
1,1,0.5780,-0.4731,0.0000*
%
%ADD17ROUNDEDRECTD17*%
%ADD18R,1.4000X0.9500*%
%ADD19R,1.2000X1.1000*%
%ADD20R,0.9500X1.4000*%
%ADD21R,1.1000X1.2000*%
%ADD22R,0.8000X0.3000*%
%ADD23R,1.0000X1.0000*%
%ADD24R,1.7000X0.8000*%
G36*
X308000Y491800D02*
X284000D01*
X283580Y491810D01*
X283160Y491840D01*
X282750Y491900D01*
X282340Y491970D01*
X281930Y492070D01*
X281530Y492190D01*
X281130Y492330D01*
X280750Y492490D01*
X280370Y492670D01*
X280000Y492870D01*
X279640Y493090D01*
X279300Y493330D01*
X278970Y493580D01*
X278650Y493850D01*
X278340Y494140D01*
X278050Y494450D01*
X277780Y494770D01*
X277530Y495100D01*
X277290Y495440D01*
X277070Y495800D01*
X276870Y496170D01*
X276690Y496550D01*
X276530Y496930D01*
X276390Y497330D01*
X276270Y497730D01*
X276170Y498140D01*
X276100Y498550D01*
X276040Y498960D01*
X276010Y499380D01*
X276000Y499800D01*
X276010Y500220D01*
X276040Y500640D01*
X276100Y501050D01*
X276170Y501460D01*
X276270Y501870D01*
X276390Y502270D01*
X276530Y502670D01*
X276690Y503050D01*
X276870Y503430D01*
X277070Y503800D01*
X277290Y504160D01*
X277530Y504500D01*
X277780Y504830D01*
X278050Y505150D01*
X278340Y505460D01*
X278650Y505750D01*
X278970Y506020D01*
X279300Y506270D01*
X279640Y506510D01*
X280000Y506730D01*
X280370Y506930D01*
X280750Y507110D01*
X281130Y507270D01*
X281530Y507410D01*
X281930Y507530D01*
X282340Y507630D01*
X282750Y507700D01*
X283160Y507760D01*
X283580Y507790D01*
X284000Y507800D01*
X308000D01*
Y491800D01*
D02*
G37*
G36*
X106620Y507790D02*
X107040Y507760D01*
X107450Y507700D01*
X107860Y507630D01*
X108270Y507530D01*
X108670Y507410D01*
X109070Y507270D01*
X109450Y507110D01*
X109830Y506930D01*
X110200Y506730D01*
X110560Y506510D01*
X110900Y506270D01*
X111230Y506020D01*
X111550Y505750D01*
X111860Y505460D01*
X112150Y505150D01*
X112420Y504830D01*
X112670Y504500D01*
X112910Y504160D01*
X113130Y503800D01*
X113330Y503430D01*
X113510Y503050D01*
X113670Y502670D01*
X113810Y502270D01*
X113930Y501870D01*
X114030Y501460D01*
X114100Y501050D01*
X114160Y500640D01*
X114190Y500220D01*
X114200Y499800D01*
X114190Y499380D01*
X114160Y498960D01*
X114100Y498550D01*
X114030Y498140D01*
X113930Y497730D01*
X113810Y497330D01*
X113670Y496930D01*
X113510Y496550D01*
X113330Y496170D01*
X113130Y495800D01*
X112910Y495440D01*
X112670Y495100D01*
X112420Y494770D01*
X112150Y494450D01*
X111860Y494140D01*
X111550Y493850D01*
X111230Y493580D01*
X110900Y493330D01*
X110560Y493090D01*
X110200Y492870D01*
X109830Y492670D01*
X109450Y492490D01*
X109070Y492330D01*
X108670Y492190D01*
X108270Y492070D01*
X107860Y491970D01*
X107450Y491900D01*
X107040Y491840D01*
X106620Y491810D01*
X106200Y491800D01*
X82200D01*
Y507800D01*
X106200D01*
X106620Y507790D01*
D02*
G37*
G36*
X228500Y497500D02*
X228490Y497080D01*
X228460Y496660D01*
X228400Y496250D01*
X228330Y495840D01*
X228230Y495430D01*
X228110Y495030D01*
X227970Y494630D01*
X227810Y494250D01*
X227630Y493870D01*
X227430Y493500D01*
X227210Y493140D01*
X226970Y492800D01*
X226720Y492470D01*
X226450Y492150D01*
X226160Y491840D01*
X225850Y491550D01*
X225530Y491280D01*
X225200Y491030D01*
X224860Y490790D01*
X224500Y490570D01*
X224130Y490370D01*
X223750Y490190D01*
X223370Y490030D01*
X222970Y489890D01*
X222570Y489770D01*
X222160Y489670D01*
X221750Y489600D01*
X221340Y489540D01*
X220920Y489510D01*
X220500Y489500D01*
X220080Y489510D01*
X219660Y489540D01*
X219250Y489600D01*
X218840Y489670D01*
X218430Y489770D01*
X218030Y489890D01*
X217630Y490030D01*
X217250Y490190D01*
X216870Y490370D01*
X216500Y490570D01*
X216140Y490790D01*
X215800Y491030D01*
X215470Y491280D01*
X215150Y491550D01*
X214840Y491840D01*
X214550Y492150D01*
X214280Y492470D01*
X214030Y492800D01*
X213790Y493140D01*
X213570Y493500D01*
X213370Y493870D01*
X213190Y494250D01*
X213030Y494630D01*
X212890Y495030D01*
X212770Y495430D01*
X212670Y495840D01*
X212600Y496250D01*
X212540Y496660D01*
X212510Y497080D01*
X212500Y497500D01*
Y521500D01*
X228500D01*
Y497500D01*
D02*
G37*
G36*
X203100Y491500D02*
Y491400D01*
X203090Y491290D01*
X203080Y491190D01*
X203060Y491080D01*
X203030Y490980D01*
X203000Y490880D01*
X202970Y490780D01*
X202930Y490690D01*
X202880Y490590D01*
X202830Y490500D01*
X202780Y490410D01*
X202720Y490320D01*
X202650Y490240D01*
X202590Y490160D01*
X202510Y490090D01*
X202440Y490010D01*
X202360Y489950D01*
X202280Y489880D01*
X202190Y489820D01*
X202100Y489770D01*
X202010Y489720D01*
X201910Y489670D01*
X201820Y489630D01*
X201720Y489600D01*
X201620Y489570D01*
X201520Y489540D01*
X201410Y489520D01*
X201310Y489510D01*
X201200Y489500D01*
X189000D01*
X188890Y489510D01*
X188790Y489520D01*
X188680Y489540D01*
X188580Y489570D01*
X188480Y489600D01*
X188380Y489630D01*
X188290Y489670D01*
X188190Y489720D01*
X188100Y489770D01*
X188010Y489820D01*
X187920Y489880D01*
X187840Y489950D01*
X187760Y490010D01*
X187690Y490090D01*
X187610Y490160D01*
X187550Y490240D01*
X187480Y490320D01*
X187420Y490410D01*
X187370Y490500D01*
X187320Y490590D01*
X187270Y490690D01*
X187230Y490780D01*
X187200Y490880D01*
X187170Y490980D01*
X187140Y491080D01*
X187120Y491190D01*
X187110Y491290D01*
X187100Y491400D01*
Y491500D01*
Y521500D01*
X203100D01*
Y491500D01*
D02*
G37*
G36*
X177700Y497500D02*
X177690Y497080D01*
X177660Y496660D01*
X177600Y496250D01*
X177530Y495840D01*
X177430Y495430D01*
X177310Y495030D01*
X177170Y494630D01*
X177010Y494250D01*
X176830Y493870D01*
X176630Y493500D01*
X176410Y493140D01*
X176170Y492800D01*
X175920Y492470D01*
X175650Y492150D01*
X175360Y491840D01*
X175050Y491550D01*
X174730Y491280D01*
X174400Y491030D01*
X174060Y490790D01*
X173700Y490570D01*
X173330Y490370D01*
X172950Y490190D01*
X172570Y490030D01*
X172170Y489890D01*
X171770Y489770D01*
X171360Y489670D01*
X170950Y489600D01*
X170540Y489540D01*
X170120Y489510D01*
X169700Y489500D01*
X169280Y489510D01*
X168860Y489540D01*
X168450Y489600D01*
X168040Y489670D01*
X167630Y489770D01*
X167230Y489890D01*
X166830Y490030D01*
X166450Y490190D01*
X166070Y490370D01*
X165700Y490570D01*
X165340Y490790D01*
X165000Y491030D01*
X164670Y491280D01*
X164350Y491550D01*
X164040Y491840D01*
X163750Y492150D01*
X163480Y492470D01*
X163230Y492800D01*
X162990Y493140D01*
X162770Y493500D01*
X162570Y493870D01*
X162390Y494250D01*
X162230Y494630D01*
X162090Y495030D01*
X161970Y495430D01*
X161870Y495840D01*
X161800Y496250D01*
X161740Y496660D01*
X161710Y497080D01*
X161700Y497500D01*
Y521500D01*
X177700D01*
Y497500D01*
D02*
G37*
G36*
X308000Y466400D02*
X284000D01*
X283580Y466410D01*
X283160Y466440D01*
X282750Y466500D01*
X282340Y466570D01*
X281930Y466670D01*
X281530Y466790D01*
X281130Y466930D01*
X280750Y467090D01*
X280370Y467270D01*
X280000Y467470D01*
X279640Y467690D01*
X279300Y467930D01*
X278970Y468180D01*
X278650Y468450D01*
X278340Y468740D01*
X278050Y469050D01*
X277780Y469370D01*
X277530Y469700D01*
X277290Y470040D01*
X277070Y470400D01*
X276870Y470770D01*
X276690Y471150D01*
X276530Y471530D01*
X276390Y471930D01*
X276270Y472330D01*
X276170Y472740D01*
X276100Y473150D01*
X276040Y473560D01*
X276010Y473980D01*
X276000Y474400D01*
X276010Y474820D01*
X276040Y475240D01*
X276100Y475650D01*
X276170Y476060D01*
X276270Y476470D01*
X276390Y476870D01*
X276530Y477270D01*
X276690Y477650D01*
X276870Y478030D01*
X277070Y478400D01*
X277290Y478760D01*
X277530Y479100D01*
X277780Y479430D01*
X278050Y479750D01*
X278340Y480060D01*
X278650Y480350D01*
X278970Y480620D01*
X279300Y480870D01*
X279640Y481110D01*
X280000Y481330D01*
X280370Y481530D01*
X280750Y481710D01*
X281130Y481870D01*
X281530Y482010D01*
X281930Y482130D01*
X282340Y482230D01*
X282750Y482300D01*
X283160Y482360D01*
X283580Y482390D01*
X284000Y482400D01*
X308000D01*
Y466400D01*
D02*
G37*
G36*
X106620Y482390D02*
X107040Y482360D01*
X107450Y482300D01*
X107860Y482230D01*
X108270Y482130D01*
X108670Y482010D01*
X109070Y481870D01*
X109450Y481710D01*
X109830Y481530D01*
X110200Y481330D01*
X110560Y481110D01*
X110900Y480870D01*
X111230Y480620D01*
X111550Y480350D01*
X111860Y480060D01*
X112150Y479750D01*
X112420Y479430D01*
X112670Y479100D01*
X112910Y478760D01*
X113130Y478400D01*
X113330Y478030D01*
X113510Y477650D01*
X113670Y477270D01*
X113810Y476870D01*
X113930Y476470D01*
X114030Y476060D01*
X114100Y475650D01*
X114160Y475240D01*
X114190Y474820D01*
X114200Y474400D01*
X114190Y473980D01*
X114160Y473560D01*
X114100Y473150D01*
X114030Y472740D01*
X113930Y472330D01*
X113810Y471930D01*
X113670Y471530D01*
X113510Y471150D01*
X113330Y470770D01*
X113130Y470400D01*
X112910Y470040D01*
X112670Y469700D01*
X112420Y469370D01*
X112150Y469050D01*
X111860Y468740D01*
X111550Y468450D01*
X111230Y468180D01*
X110900Y467930D01*
X110560Y467690D01*
X110200Y467470D01*
X109830Y467270D01*
X109450Y467090D01*
X109070Y466930D01*
X108670Y466790D01*
X108270Y466670D01*
X107860Y466570D01*
X107450Y466500D01*
X107040Y466440D01*
X106620Y466410D01*
X106200Y466400D01*
X82200D01*
Y482400D01*
X106200D01*
X106620Y482390D01*
D02*
G37*
G36*
X308000Y441000D02*
X277900D01*
X277790Y441010D01*
X277690Y441020D01*
X277580Y441040D01*
X277480Y441070D01*
X277380Y441100D01*
X277280Y441130D01*
X277190Y441170D01*
X277090Y441220D01*
X277000Y441270D01*
X276910Y441320D01*
X276820Y441380D01*
X276740Y441450D01*
X276660Y441510D01*
X276590Y441590D01*
X276510Y441660D01*
X276450Y441740D01*
X276380Y441820D01*
X276320Y441910D01*
X276270Y442000D01*
X276220Y442090D01*
X276170Y442190D01*
X276130Y442280D01*
X276100Y442380D01*
X276070Y442480D01*
X276040Y442580D01*
X276020Y442690D01*
X276010Y442790D01*
X276000Y442900D01*
Y443000D01*
Y455000D01*
Y455100D01*
X276010Y455210D01*
X276020Y455310D01*
X276040Y455420D01*
X276070Y455520D01*
X276100Y455620D01*
X276130Y455720D01*
X276170Y455810D01*
X276220Y455910D01*
X276270Y456000D01*
X276320Y456090D01*
X276380Y456180D01*
X276450Y456260D01*
X276510Y456340D01*
X276590Y456410D01*
X276660Y456490D01*
X276740Y456550D01*
X276820Y456620D01*
X276910Y456680D01*
X277000Y456730D01*
X277090Y456780D01*
X277190Y456830D01*
X277280Y456870D01*
X277380Y456900D01*
X277480Y456930D01*
X277580Y456960D01*
X277690Y456980D01*
X277790Y456990D01*
X277900Y457000D01*
X308000D01*
Y441000D01*
D02*
G37*
G36*
X112410Y456990D02*
X112510Y456980D01*
X112620Y456960D01*
X112720Y456930D01*
X112820Y456900D01*
X112920Y456870D01*
X113010Y456830D01*
X113110Y456780D01*
X113200Y456730D01*
X113290Y456680D01*
X113380Y456620D01*
X113460Y456550D01*
X113540Y456490D01*
X113610Y456410D01*
X113690Y456340D01*
X113750Y456260D01*
X113820Y456180D01*
X113880Y456090D01*
X113930Y456000D01*
X113980Y455910D01*
X114030Y455810D01*
X114070Y455720D01*
X114100Y455620D01*
X114130Y455520D01*
X114160Y455420D01*
X114180Y455310D01*
X114190Y455210D01*
X114200Y455100D01*
Y455000D01*
Y443000D01*
Y442900D01*
X114190Y442790D01*
X114180Y442690D01*
X114160Y442580D01*
X114130Y442480D01*
X114100Y442380D01*
X114070Y442280D01*
X114030Y442190D01*
X113980Y442090D01*
X113930Y442000D01*
X113880Y441910D01*
X113820Y441820D01*
X113750Y441740D01*
X113690Y441660D01*
X113610Y441590D01*
X113540Y441510D01*
X113460Y441450D01*
X113380Y441380D01*
X113290Y441320D01*
X113200Y441270D01*
X113110Y441220D01*
X113010Y441170D01*
X112920Y441130D01*
X112820Y441100D01*
X112720Y441070D01*
X112620Y441040D01*
X112510Y441020D01*
X112410Y441010D01*
X112300Y441000D01*
X82200D01*
Y457000D01*
X112300D01*
X112410Y456990D01*
D02*
G37*
G36*
X308000Y415600D02*
X284000D01*
X283580Y415610D01*
X283160Y415640D01*
X282750Y415700D01*
X282340Y415770D01*
X281930Y415870D01*
X281530Y415990D01*
X281130Y416130D01*
X280750Y416290D01*
X280370Y416470D01*
X280000Y416670D01*
X279640Y416890D01*
X279300Y417130D01*
X278970Y417380D01*
X278650Y417650D01*
X278340Y417940D01*
X278050Y418250D01*
X277780Y418570D01*
X277530Y418900D01*
X277290Y419240D01*
X277070Y419600D01*
X276870Y419970D01*
X276690Y420350D01*
X276530Y420730D01*
X276390Y421130D01*
X276270Y421530D01*
X276170Y421940D01*
X276100Y422350D01*
X276040Y422760D01*
X276010Y423180D01*
X276000Y423600D01*
X276010Y424020D01*
X276040Y424440D01*
X276100Y424850D01*
X276170Y425260D01*
X276270Y425670D01*
X276390Y426070D01*
X276530Y426470D01*
X276690Y426850D01*
X276870Y427230D01*
X277070Y427600D01*
X277290Y427960D01*
X277530Y428300D01*
X277780Y428630D01*
X278050Y428950D01*
X278340Y429260D01*
X278650Y429550D01*
X278970Y429820D01*
X279300Y430070D01*
X279640Y430310D01*
X280000Y430530D01*
X280370Y430730D01*
X280750Y430910D01*
X281130Y431070D01*
X281530Y431210D01*
X281930Y431330D01*
X282340Y431430D01*
X282750Y431500D01*
X283160Y431560D01*
X283580Y431590D01*
X284000Y431600D01*
X308000D01*
Y415600D01*
D02*
G37*
G36*
X106620Y431590D02*
X107040Y431560D01*
X107450Y431500D01*
X107860Y431430D01*
X108270Y431330D01*
X108670Y431210D01*
X109070Y431070D01*
X109450Y430910D01*
X109830Y430730D01*
X110200Y430530D01*
X110560Y430310D01*
X110900Y430070D01*
X111230Y429820D01*
X111550Y429550D01*
X111860Y429260D01*
X112150Y428950D01*
X112420Y428630D01*
X112670Y428300D01*
X112910Y427960D01*
X113130Y427600D01*
X113330Y427230D01*
X113510Y426850D01*
X113670Y426470D01*
X113810Y426070D01*
X113930Y425670D01*
X114030Y425260D01*
X114100Y424850D01*
X114160Y424440D01*
X114190Y424020D01*
X114200Y423600D01*
X114190Y423180D01*
X114160Y422760D01*
X114100Y422350D01*
X114030Y421940D01*
X113930Y421530D01*
X113810Y421130D01*
X113670Y420730D01*
X113510Y420350D01*
X113330Y419970D01*
X113130Y419600D01*
X112910Y419240D01*
X112670Y418900D01*
X112420Y418570D01*
X112150Y418250D01*
X111860Y417940D01*
X111550Y417650D01*
X111230Y417380D01*
X110900Y417130D01*
X110560Y416890D01*
X110200Y416670D01*
X109830Y416470D01*
X109450Y416290D01*
X109070Y416130D01*
X108670Y415990D01*
X108270Y415870D01*
X107860Y415770D01*
X107450Y415700D01*
X107040Y415640D01*
X106620Y415610D01*
X106200Y415600D01*
X82200D01*
Y431600D01*
X106200D01*
X106620Y431590D01*
D02*
G37*
G36*
X308000Y390200D02*
X284000D01*
X283580Y390210D01*
X283160Y390240D01*
X282750Y390300D01*
X282340Y390370D01*
X281930Y390470D01*
X281530Y390590D01*
X281130Y390730D01*
X280750Y390890D01*
X280370Y391070D01*
X280000Y391270D01*
X279640Y391490D01*
X279300Y391730D01*
X278970Y391980D01*
X278650Y392250D01*
X278340Y392540D01*
X278050Y392850D01*
X277780Y393170D01*
X277530Y393500D01*
X277290Y393840D01*
X277070Y394200D01*
X276870Y394570D01*
X276690Y394950D01*
X276530Y395330D01*
X276390Y395730D01*
X276270Y396130D01*
X276170Y396540D01*
X276100Y396950D01*
X276040Y397360D01*
X276010Y397780D01*
X276000Y398200D01*
X276010Y398620D01*
X276040Y399040D01*
X276100Y399450D01*
X276170Y399860D01*
X276270Y400270D01*
X276390Y400670D01*
X276530Y401070D01*
X276690Y401450D01*
X276870Y401830D01*
X277070Y402200D01*
X277290Y402560D01*
X277530Y402900D01*
X277780Y403230D01*
X278050Y403550D01*
X278340Y403860D01*
X278650Y404150D01*
X278970Y404420D01*
X279300Y404670D01*
X279640Y404910D01*
X280000Y405130D01*
X280370Y405330D01*
X280750Y405510D01*
X281130Y405670D01*
X281530Y405810D01*
X281930Y405930D01*
X282340Y406030D01*
X282750Y406100D01*
X283160Y406160D01*
X283580Y406190D01*
X284000Y406200D01*
X308000D01*
Y390200D01*
D02*
G37*
G36*
X106620Y406190D02*
X107040Y406160D01*
X107450Y406100D01*
X107860Y406030D01*
X108270Y405930D01*
X108670Y405810D01*
X109070Y405670D01*
X109450Y405510D01*
X109830Y405330D01*
X110200Y405130D01*
X110560Y404910D01*
X110900Y404670D01*
X111230Y404420D01*
X111550Y404150D01*
X111860Y403860D01*
X112150Y403550D01*
X112420Y403230D01*
X112670Y402900D01*
X112910Y402560D01*
X113130Y402200D01*
X113330Y401830D01*
X113510Y401450D01*
X113670Y401070D01*
X113810Y400670D01*
X113930Y400270D01*
X114030Y399860D01*
X114100Y399450D01*
X114160Y399040D01*
X114190Y398620D01*
X114200Y398200D01*
X114190Y397780D01*
X114160Y397360D01*
X114100Y396950D01*
X114030Y396540D01*
X113930Y396130D01*
X113810Y395730D01*
X113670Y395330D01*
X113510Y394950D01*
X113330Y394570D01*
X113130Y394200D01*
X112910Y393840D01*
X112670Y393500D01*
X112420Y393170D01*
X112150Y392850D01*
X111860Y392540D01*
X111550Y392250D01*
X111230Y391980D01*
X110900Y391730D01*
X110560Y391490D01*
X110200Y391270D01*
X109830Y391070D01*
X109450Y390890D01*
X109070Y390730D01*
X108670Y390590D01*
X108270Y390470D01*
X107860Y390370D01*
X107450Y390300D01*
X107040Y390240D01*
X106620Y390210D01*
X106200Y390200D01*
X82200D01*
Y406200D01*
X106200D01*
X106620Y406190D01*
D02*
G37*
G36*
X847765Y408000D02*
Y397000D01*
X856265D01*
X856265Y397000D01*
Y384000D01*
X825765D01*
X825765Y384000D01*
Y408000D01*
X847765D01*
X847765Y408000D01*
D02*
G37*
G36*
X308000Y364800D02*
X284000D01*
X283580Y364810D01*
X283160Y364840D01*
X282750Y364900D01*
X282340Y364970D01*
X281930Y365070D01*
X281530Y365190D01*
X281130Y365330D01*
X280750Y365490D01*
X280370Y365670D01*
X280000Y365870D01*
X279640Y366090D01*
X279300Y366330D01*
X278970Y366580D01*
X278650Y366850D01*
X278340Y367140D01*
X278050Y367450D01*
X277780Y367770D01*
X277530Y368100D01*
X277290Y368440D01*
X277070Y368800D01*
X276870Y369170D01*
X276690Y369550D01*
X276530Y369930D01*
X276390Y370330D01*
X276270Y370730D01*
X276170Y371140D01*
X276100Y371550D01*
X276040Y371960D01*
X276010Y372380D01*
X276000Y372800D01*
X276010Y373220D01*
X276040Y373640D01*
X276100Y374050D01*
X276170Y374460D01*
X276270Y374870D01*
X276390Y375270D01*
X276530Y375670D01*
X276690Y376050D01*
X276870Y376430D01*
X277070Y376800D01*
X277290Y377160D01*
X277530Y377500D01*
X277780Y377830D01*
X278050Y378150D01*
X278340Y378460D01*
X278650Y378750D01*
X278970Y379020D01*
X279300Y379270D01*
X279640Y379510D01*
X280000Y379730D01*
X280370Y379930D01*
X280750Y380110D01*
X281130Y380270D01*
X281530Y380410D01*
X281930Y380530D01*
X282340Y380630D01*
X282750Y380700D01*
X283160Y380760D01*
X283580Y380790D01*
X284000Y380800D01*
X308000D01*
Y364800D01*
D02*
G37*
G36*
X106620Y380790D02*
X107040Y380760D01*
X107450Y380700D01*
X107860Y380630D01*
X108270Y380530D01*
X108670Y380410D01*
X109070Y380270D01*
X109450Y380110D01*
X109830Y379930D01*
X110200Y379730D01*
X110560Y379510D01*
X110900Y379270D01*
X111230Y379020D01*
X111550Y378750D01*
X111860Y378460D01*
X112150Y378150D01*
X112420Y377830D01*
X112670Y377500D01*
X112910Y377160D01*
X113130Y376800D01*
X113330Y376430D01*
X113510Y376050D01*
X113670Y375670D01*
X113810Y375270D01*
X113930Y374870D01*
X114030Y374460D01*
X114100Y374050D01*
X114160Y373640D01*
X114190Y373220D01*
X114200Y372800D01*
X114190Y372380D01*
X114160Y371960D01*
X114100Y371550D01*
X114030Y371140D01*
X113930Y370730D01*
X113810Y370330D01*
X113670Y369930D01*
X113510Y369550D01*
X113330Y369170D01*
X113130Y368800D01*
X112910Y368440D01*
X112670Y368100D01*
X112420Y367770D01*
X112150Y367450D01*
X111860Y367140D01*
X111550Y366850D01*
X111230Y366580D01*
X110900Y366330D01*
X110560Y366090D01*
X110200Y365870D01*
X109830Y365670D01*
X109450Y365490D01*
X109070Y365330D01*
X108670Y365190D01*
X108270Y365070D01*
X107860Y364970D01*
X107450Y364900D01*
X107040Y364840D01*
X106620Y364810D01*
X106200Y364800D01*
X82200D01*
Y380800D01*
X106200D01*
X106620Y380790D01*
D02*
G37*
G36*
X308000Y339400D02*
X284000D01*
X283580Y339410D01*
X283160Y339440D01*
X282750Y339500D01*
X282340Y339570D01*
X281930Y339670D01*
X281530Y339790D01*
X281130Y339930D01*
X280750Y340090D01*
X280370Y340270D01*
X280000Y340470D01*
X279640Y340690D01*
X279300Y340930D01*
X278970Y341180D01*
X278650Y341450D01*
X278340Y341740D01*
X278050Y342050D01*
X277780Y342370D01*
X277530Y342700D01*
X277290Y343040D01*
X277070Y343400D01*
X276870Y343770D01*
X276690Y344150D01*
X276530Y344530D01*
X276390Y344930D01*
X276270Y345330D01*
X276170Y345740D01*
X276100Y346150D01*
X276040Y346560D01*
X276010Y346980D01*
X276000Y347400D01*
X276010Y347820D01*
X276040Y348240D01*
X276100Y348650D01*
X276170Y349060D01*
X276270Y349470D01*
X276390Y349870D01*
X276530Y350270D01*
X276690Y350650D01*
X276870Y351030D01*
X277070Y351400D01*
X277290Y351760D01*
X277530Y352100D01*
X277780Y352430D01*
X278050Y352750D01*
X278340Y353060D01*
X278650Y353350D01*
X278970Y353620D01*
X279300Y353870D01*
X279640Y354110D01*
X280000Y354330D01*
X280370Y354530D01*
X280750Y354710D01*
X281130Y354870D01*
X281530Y355010D01*
X281930Y355130D01*
X282340Y355230D01*
X282750Y355300D01*
X283160Y355360D01*
X283580Y355390D01*
X284000Y355400D01*
X308000D01*
Y339400D01*
D02*
G37*
G36*
X106620Y355390D02*
X107040Y355360D01*
X107450Y355300D01*
X107860Y355230D01*
X108270Y355130D01*
X108670Y355010D01*
X109070Y354870D01*
X109450Y354710D01*
X109830Y354530D01*
X110200Y354330D01*
X110560Y354110D01*
X110900Y353870D01*
X111230Y353620D01*
X111550Y353350D01*
X111860Y353060D01*
X112150Y352750D01*
X112420Y352430D01*
X112670Y352100D01*
X112910Y351760D01*
X113130Y351400D01*
X113330Y351030D01*
X113510Y350650D01*
X113670Y350270D01*
X113810Y349870D01*
X113930Y349470D01*
X114030Y349060D01*
X114100Y348650D01*
X114160Y348240D01*
X114190Y347820D01*
X114200Y347400D01*
X114190Y346980D01*
X114160Y346560D01*
X114100Y346150D01*
X114030Y345740D01*
X113930Y345330D01*
X113810Y344930D01*
X113670Y344530D01*
X113510Y344150D01*
X113330Y343770D01*
X113130Y343400D01*
X112910Y343040D01*
X112670Y342700D01*
X112420Y342370D01*
X112150Y342050D01*
X111860Y341740D01*
X111550Y341450D01*
X111230Y341180D01*
X110900Y340930D01*
X110560Y340690D01*
X110200Y340470D01*
X109830Y340270D01*
X109450Y340090D01*
X109070Y339930D01*
X108670Y339790D01*
X108270Y339670D01*
X107860Y339570D01*
X107450Y339500D01*
X107040Y339440D01*
X106620Y339410D01*
X106200Y339400D01*
X82200D01*
Y355400D01*
X106200D01*
X106620Y355390D01*
D02*
G37*
G36*
X308000Y314000D02*
X277900D01*
X277790Y314010D01*
X277690Y314020D01*
X277580Y314040D01*
X277480Y314070D01*
X277380Y314100D01*
X277280Y314130D01*
X277190Y314170D01*
X277090Y314220D01*
X277000Y314270D01*
X276910Y314320D01*
X276820Y314380D01*
X276740Y314450D01*
X276660Y314510D01*
X276590Y314590D01*
X276510Y314660D01*
X276450Y314740D01*
X276380Y314820D01*
X276320Y314910D01*
X276270Y315000D01*
X276220Y315090D01*
X276170Y315190D01*
X276130Y315280D01*
X276100Y315380D01*
X276070Y315480D01*
X276040Y315580D01*
X276020Y315690D01*
X276010Y315790D01*
X276000Y315900D01*
Y316000D01*
Y328000D01*
Y328100D01*
X276010Y328210D01*
X276020Y328310D01*
X276040Y328420D01*
X276070Y328520D01*
X276100Y328620D01*
X276130Y328720D01*
X276170Y328810D01*
X276220Y328910D01*
X276270Y329000D01*
X276320Y329090D01*
X276380Y329180D01*
X276450Y329260D01*
X276510Y329340D01*
X276590Y329410D01*
X276660Y329490D01*
X276740Y329550D01*
X276820Y329620D01*
X276910Y329680D01*
X277000Y329730D01*
X277090Y329780D01*
X277190Y329830D01*
X277280Y329870D01*
X277380Y329900D01*
X277480Y329930D01*
X277580Y329960D01*
X277690Y329980D01*
X277790Y329990D01*
X277900Y330000D01*
X308000D01*
Y314000D01*
D02*
G37*
G36*
X112410Y329990D02*
X112510Y329980D01*
X112620Y329960D01*
X112720Y329930D01*
X112820Y329900D01*
X112920Y329870D01*
X113010Y329830D01*
X113110Y329780D01*
X113200Y329730D01*
X113290Y329680D01*
X113380Y329620D01*
X113460Y329550D01*
X113540Y329490D01*
X113610Y329410D01*
X113690Y329340D01*
X113750Y329260D01*
X113820Y329180D01*
X113880Y329090D01*
X113930Y329000D01*
X113980Y328910D01*
X114030Y328810D01*
X114070Y328720D01*
X114100Y328620D01*
X114130Y328520D01*
X114160Y328420D01*
X114180Y328310D01*
X114190Y328210D01*
X114200Y328100D01*
Y328000D01*
Y316000D01*
Y315900D01*
X114190Y315790D01*
X114180Y315690D01*
X114160Y315580D01*
X114130Y315480D01*
X114100Y315380D01*
X114070Y315280D01*
X114030Y315190D01*
X113980Y315090D01*
X113930Y315000D01*
X113880Y314910D01*
X113820Y314820D01*
X113750Y314740D01*
X113690Y314660D01*
X113610Y314590D01*
X113540Y314510D01*
X113460Y314450D01*
X113380Y314380D01*
X113290Y314320D01*
X113200Y314270D01*
X113110Y314220D01*
X113010Y314170D01*
X112920Y314130D01*
X112820Y314100D01*
X112720Y314070D01*
X112620Y314040D01*
X112510Y314020D01*
X112410Y314010D01*
X112300Y314000D01*
X82200D01*
Y330000D01*
X112300D01*
X112410Y329990D01*
D02*
G37*
G36*
X308000Y288600D02*
X284000D01*
X283580Y288610D01*
X283160Y288640D01*
X282750Y288700D01*
X282340Y288770D01*
X281930Y288870D01*
X281530Y288990D01*
X281130Y289130D01*
X280750Y289290D01*
X280370Y289470D01*
X280000Y289670D01*
X279640Y289890D01*
X279300Y290130D01*
X278970Y290380D01*
X278650Y290650D01*
X278340Y290940D01*
X278050Y291250D01*
X277780Y291570D01*
X277530Y291900D01*
X277290Y292240D01*
X277070Y292600D01*
X276870Y292970D01*
X276690Y293350D01*
X276530Y293730D01*
X276390Y294130D01*
X276270Y294530D01*
X276170Y294940D01*
X276100Y295350D01*
X276040Y295760D01*
X276010Y296180D01*
X276000Y296600D01*
X276010Y297020D01*
X276040Y297440D01*
X276100Y297850D01*
X276170Y298260D01*
X276270Y298670D01*
X276390Y299070D01*
X276530Y299470D01*
X276690Y299850D01*
X276870Y300230D01*
X277070Y300600D01*
X277290Y300960D01*
X277530Y301300D01*
X277780Y301630D01*
X278050Y301950D01*
X278340Y302260D01*
X278650Y302550D01*
X278970Y302820D01*
X279300Y303070D01*
X279640Y303310D01*
X280000Y303530D01*
X280370Y303730D01*
X280750Y303910D01*
X281130Y304070D01*
X281530Y304210D01*
X281930Y304330D01*
X282340Y304430D01*
X282750Y304500D01*
X283160Y304560D01*
X283580Y304590D01*
X284000Y304600D01*
X308000D01*
Y288600D01*
D02*
G37*
G36*
X106620Y304590D02*
X107040Y304560D01*
X107450Y304500D01*
X107860Y304430D01*
X108270Y304330D01*
X108670Y304210D01*
X109070Y304070D01*
X109450Y303910D01*
X109830Y303730D01*
X110200Y303530D01*
X110560Y303310D01*
X110900Y303070D01*
X111230Y302820D01*
X111550Y302550D01*
X111860Y302260D01*
X112150Y301950D01*
X112420Y301630D01*
X112670Y301300D01*
X112910Y300960D01*
X113130Y300600D01*
X113330Y300230D01*
X113510Y299850D01*
X113670Y299470D01*
X113810Y299070D01*
X113930Y298670D01*
X114030Y298260D01*
X114100Y297850D01*
X114160Y297440D01*
X114190Y297020D01*
X114200Y296600D01*
X114190Y296180D01*
X114160Y295760D01*
X114100Y295350D01*
X114030Y294940D01*
X113930Y294530D01*
X113810Y294130D01*
X113670Y293730D01*
X113510Y293350D01*
X113330Y292970D01*
X113130Y292600D01*
X112910Y292240D01*
X112670Y291900D01*
X112420Y291570D01*
X112150Y291250D01*
X111860Y290940D01*
X111550Y290650D01*
X111230Y290380D01*
X110900Y290130D01*
X110560Y289890D01*
X110200Y289670D01*
X109830Y289470D01*
X109450Y289290D01*
X109070Y289130D01*
X108670Y288990D01*
X108270Y288870D01*
X107860Y288770D01*
X107450Y288700D01*
X107040Y288640D01*
X106620Y288610D01*
X106200Y288600D01*
X82200D01*
Y304600D01*
X106200D01*
X106620Y304590D01*
D02*
G37*
G36*
X856265Y281000D02*
X847765D01*
X847765Y281000D01*
Y270000D01*
X825765D01*
Y294000D01*
X856265D01*
X856265Y294000D01*
Y281000D01*
D02*
G37*
G36*
X308000Y263200D02*
X284000D01*
X283580Y263210D01*
X283160Y263240D01*
X282750Y263300D01*
X282340Y263370D01*
X281930Y263470D01*
X281530Y263590D01*
X281130Y263730D01*
X280750Y263890D01*
X280370Y264070D01*
X280000Y264270D01*
X279640Y264490D01*
X279300Y264730D01*
X278970Y264980D01*
X278650Y265250D01*
X278340Y265540D01*
X278050Y265850D01*
X277780Y266170D01*
X277530Y266500D01*
X277290Y266840D01*
X277070Y267200D01*
X276870Y267570D01*
X276690Y267950D01*
X276530Y268330D01*
X276390Y268730D01*
X276270Y269130D01*
X276170Y269540D01*
X276100Y269950D01*
X276040Y270360D01*
X276010Y270780D01*
X276000Y271200D01*
X276010Y271620D01*
X276040Y272040D01*
X276100Y272450D01*
X276170Y272860D01*
X276270Y273270D01*
X276390Y273670D01*
X276530Y274070D01*
X276690Y274450D01*
X276870Y274830D01*
X277070Y275200D01*
X277290Y275560D01*
X277530Y275900D01*
X277780Y276230D01*
X278050Y276550D01*
X278340Y276860D01*
X278650Y277150D01*
X278970Y277420D01*
X279300Y277670D01*
X279640Y277910D01*
X280000Y278130D01*
X280370Y278330D01*
X280750Y278510D01*
X281130Y278670D01*
X281530Y278810D01*
X281930Y278930D01*
X282340Y279030D01*
X282750Y279100D01*
X283160Y279160D01*
X283580Y279190D01*
X284000Y279200D01*
X308000D01*
Y263200D01*
D02*
G37*
G36*
X106620Y279190D02*
X107040Y279160D01*
X107450Y279100D01*
X107860Y279030D01*
X108270Y278930D01*
X108670Y278810D01*
X109070Y278670D01*
X109450Y278510D01*
X109830Y278330D01*
X110200Y278130D01*
X110560Y277910D01*
X110900Y277670D01*
X111230Y277420D01*
X111550Y277150D01*
X111860Y276860D01*
X112150Y276550D01*
X112420Y276230D01*
X112670Y275900D01*
X112910Y275560D01*
X113130Y275200D01*
X113330Y274830D01*
X113510Y274450D01*
X113670Y274070D01*
X113810Y273670D01*
X113930Y273270D01*
X114030Y272860D01*
X114100Y272450D01*
X114160Y272040D01*
X114190Y271620D01*
X114200Y271200D01*
X114190Y270780D01*
X114160Y270360D01*
X114100Y269950D01*
X114030Y269540D01*
X113930Y269130D01*
X113810Y268730D01*
X113670Y268330D01*
X113510Y267950D01*
X113330Y267570D01*
X113130Y267200D01*
X112910Y266840D01*
X112670Y266500D01*
X112420Y266170D01*
X112150Y265850D01*
X111860Y265540D01*
X111550Y265250D01*
X111230Y264980D01*
X110900Y264730D01*
X110560Y264490D01*
X110200Y264270D01*
X109830Y264070D01*
X109450Y263890D01*
X109070Y263730D01*
X108670Y263590D01*
X108270Y263470D01*
X107860Y263370D01*
X107450Y263300D01*
X107040Y263240D01*
X106620Y263210D01*
X106200Y263200D01*
X82200D01*
Y279200D01*
X106200D01*
X106620Y279190D01*
D02*
G37*
G36*
X308000Y237800D02*
X284000D01*
X283580Y237810D01*
X283160Y237840D01*
X282750Y237900D01*
X282340Y237970D01*
X281930Y238070D01*
X281530Y238190D01*
X281130Y238330D01*
X280750Y238490D01*
X280370Y238670D01*
X280000Y238870D01*
X279640Y239090D01*
X279300Y239330D01*
X278970Y239580D01*
X278650Y239850D01*
X278340Y240140D01*
X278050Y240450D01*
X277780Y240770D01*
X277530Y241100D01*
X277290Y241440D01*
X277070Y241800D01*
X276870Y242170D01*
X276690Y242550D01*
X276530Y242930D01*
X276390Y243330D01*
X276270Y243730D01*
X276170Y244140D01*
X276100Y244550D01*
X276040Y244960D01*
X276010Y245380D01*
X276000Y245800D01*
X276010Y246220D01*
X276040Y246640D01*
X276100Y247050D01*
X276170Y247460D01*
X276270Y247870D01*
X276390Y248270D01*
X276530Y248670D01*
X276690Y249050D01*
X276870Y249430D01*
X277070Y249800D01*
X277290Y250160D01*
X277530Y250500D01*
X277780Y250830D01*
X278050Y251150D01*
X278340Y251460D01*
X278650Y251750D01*
X278970Y252020D01*
X279300Y252270D01*
X279640Y252510D01*
X280000Y252730D01*
X280370Y252930D01*
X280750Y253110D01*
X281130Y253270D01*
X281530Y253410D01*
X281930Y253530D01*
X282340Y253630D01*
X282750Y253700D01*
X283160Y253760D01*
X283580Y253790D01*
X284000Y253800D01*
X308000D01*
Y237800D01*
D02*
G37*
G36*
X106620Y253790D02*
X107040Y253760D01*
X107450Y253700D01*
X107860Y253630D01*
X108270Y253530D01*
X108670Y253410D01*
X109070Y253270D01*
X109450Y253110D01*
X109830Y252930D01*
X110200Y252730D01*
X110560Y252510D01*
X110900Y252270D01*
X111230Y252020D01*
X111550Y251750D01*
X111860Y251460D01*
X112150Y251150D01*
X112420Y250830D01*
X112670Y250500D01*
X112910Y250160D01*
X113130Y249800D01*
X113330Y249430D01*
X113510Y249050D01*
X113670Y248670D01*
X113810Y248270D01*
X113930Y247870D01*
X114030Y247460D01*
X114100Y247050D01*
X114160Y246640D01*
X114190Y246220D01*
X114200Y245800D01*
X114190Y245380D01*
X114160Y244960D01*
X114100Y244550D01*
X114030Y244140D01*
X113930Y243730D01*
X113810Y243330D01*
X113670Y242930D01*
X113510Y242550D01*
X113330Y242170D01*
X113130Y241800D01*
X112910Y241440D01*
X112670Y241100D01*
X112420Y240770D01*
X112150Y240450D01*
X111860Y240140D01*
X111550Y239850D01*
X111230Y239580D01*
X110900Y239330D01*
X110560Y239090D01*
X110200Y238870D01*
X109830Y238670D01*
X109450Y238490D01*
X109070Y238330D01*
X108670Y238190D01*
X108270Y238070D01*
X107860Y237970D01*
X107450Y237900D01*
X107040Y237840D01*
X106620Y237810D01*
X106200Y237800D01*
X82200D01*
Y253800D01*
X106200D01*
X106620Y253790D01*
D02*
G37*
G36*
X308000Y212400D02*
X284000D01*
X283580Y212410D01*
X283160Y212440D01*
X282750Y212500D01*
X282340Y212570D01*
X281930Y212670D01*
X281530Y212790D01*
X281130Y212930D01*
X280750Y213090D01*
X280370Y213270D01*
X280000Y213470D01*
X279640Y213690D01*
X279300Y213930D01*
X278970Y214180D01*
X278650Y214450D01*
X278340Y214740D01*
X278050Y215050D01*
X277780Y215370D01*
X277530Y215700D01*
X277290Y216040D01*
X277070Y216400D01*
X276870Y216770D01*
X276690Y217150D01*
X276530Y217530D01*
X276390Y217930D01*
X276270Y218330D01*
X276170Y218740D01*
X276100Y219150D01*
X276040Y219560D01*
X276010Y219980D01*
X276000Y220400D01*
X276010Y220820D01*
X276040Y221240D01*
X276100Y221650D01*
X276170Y222060D01*
X276270Y222470D01*
X276390Y222870D01*
X276530Y223270D01*
X276690Y223650D01*
X276870Y224030D01*
X277070Y224400D01*
X277290Y224760D01*
X277530Y225100D01*
X277780Y225430D01*
X278050Y225750D01*
X278340Y226060D01*
X278650Y226350D01*
X278970Y226620D01*
X279300Y226870D01*
X279640Y227110D01*
X280000Y227330D01*
X280370Y227530D01*
X280750Y227710D01*
X281130Y227870D01*
X281530Y228010D01*
X281930Y228130D01*
X282340Y228230D01*
X282750Y228300D01*
X283160Y228360D01*
X283580Y228390D01*
X284000Y228400D01*
X308000D01*
Y212400D01*
D02*
G37*
G36*
X106620Y228390D02*
X107040Y228360D01*
X107450Y228300D01*
X107860Y228230D01*
X108270Y228130D01*
X108670Y228010D01*
X109070Y227870D01*
X109450Y227710D01*
X109830Y227530D01*
X110200Y227330D01*
X110560Y227110D01*
X110900Y226870D01*
X111230Y226620D01*
X111550Y226350D01*
X111860Y226060D01*
X112150Y225750D01*
X112420Y225430D01*
X112670Y225100D01*
X112910Y224760D01*
X113130Y224400D01*
X113330Y224030D01*
X113510Y223650D01*
X113670Y223270D01*
X113810Y222870D01*
X113930Y222470D01*
X114030Y222060D01*
X114100Y221650D01*
X114160Y221240D01*
X114190Y220820D01*
X114200Y220400D01*
X114190Y219980D01*
X114160Y219560D01*
X114100Y219150D01*
X114030Y218740D01*
X113930Y218330D01*
X113810Y217930D01*
X113670Y217530D01*
X113510Y217150D01*
X113330Y216770D01*
X113130Y216400D01*
X112910Y216040D01*
X112670Y215700D01*
X112420Y215370D01*
X112150Y215050D01*
X111860Y214740D01*
X111550Y214450D01*
X111230Y214180D01*
X110900Y213930D01*
X110560Y213690D01*
X110200Y213470D01*
X109830Y213270D01*
X109450Y213090D01*
X109070Y212930D01*
X108670Y212790D01*
X108270Y212670D01*
X107860Y212570D01*
X107450Y212500D01*
X107040Y212440D01*
X106620Y212410D01*
X106200Y212400D01*
X82200D01*
Y228400D01*
X106200D01*
X106620Y228390D01*
D02*
G37*
G36*
X308000Y187000D02*
X277900D01*
X277790Y187010D01*
X277690Y187020D01*
X277580Y187040D01*
X277480Y187070D01*
X277380Y187100D01*
X277280Y187130D01*
X277190Y187170D01*
X277090Y187220D01*
X277000Y187270D01*
X276910Y187320D01*
X276820Y187380D01*
X276740Y187450D01*
X276660Y187510D01*
X276590Y187590D01*
X276510Y187660D01*
X276450Y187740D01*
X276380Y187820D01*
X276320Y187910D01*
X276270Y188000D01*
X276220Y188090D01*
X276170Y188190D01*
X276130Y188280D01*
X276100Y188380D01*
X276070Y188480D01*
X276040Y188580D01*
X276020Y188690D01*
X276010Y188790D01*
X276000Y188900D01*
Y189000D01*
Y201000D01*
Y201100D01*
X276010Y201210D01*
X276020Y201310D01*
X276040Y201420D01*
X276070Y201520D01*
X276100Y201620D01*
X276130Y201720D01*
X276170Y201810D01*
X276220Y201910D01*
X276270Y202000D01*
X276320Y202090D01*
X276380Y202180D01*
X276450Y202260D01*
X276510Y202340D01*
X276590Y202410D01*
X276660Y202490D01*
X276740Y202550D01*
X276820Y202620D01*
X276910Y202680D01*
X277000Y202730D01*
X277090Y202780D01*
X277190Y202830D01*
X277280Y202870D01*
X277380Y202900D01*
X277480Y202930D01*
X277580Y202960D01*
X277690Y202980D01*
X277790Y202990D01*
X277900Y203000D01*
X308000D01*
Y187000D01*
D02*
G37*
G36*
X112410Y202990D02*
X112510Y202980D01*
X112620Y202960D01*
X112720Y202930D01*
X112820Y202900D01*
X112920Y202870D01*
X113010Y202830D01*
X113110Y202780D01*
X113200Y202730D01*
X113290Y202680D01*
X113380Y202620D01*
X113460Y202550D01*
X113540Y202490D01*
X113610Y202410D01*
X113690Y202340D01*
X113750Y202260D01*
X113820Y202180D01*
X113880Y202090D01*
X113930Y202000D01*
X113980Y201910D01*
X114030Y201810D01*
X114070Y201720D01*
X114100Y201620D01*
X114130Y201520D01*
X114160Y201420D01*
X114180Y201310D01*
X114190Y201210D01*
X114200Y201100D01*
Y201000D01*
Y189000D01*
Y188900D01*
X114190Y188790D01*
X114180Y188690D01*
X114160Y188580D01*
X114130Y188480D01*
X114100Y188380D01*
X114070Y188280D01*
X114030Y188190D01*
X113980Y188090D01*
X113930Y188000D01*
X113880Y187910D01*
X113820Y187820D01*
X113750Y187740D01*
X113690Y187660D01*
X113610Y187590D01*
X113540Y187510D01*
X113460Y187450D01*
X113380Y187380D01*
X113290Y187320D01*
X113200Y187270D01*
X113110Y187220D01*
X113010Y187170D01*
X112920Y187130D01*
X112820Y187100D01*
X112720Y187070D01*
X112620Y187040D01*
X112510Y187020D01*
X112410Y187010D01*
X112300Y187000D01*
X82200D01*
Y203000D01*
X112300D01*
X112410Y202990D01*
D02*
G37*
G36*
X308000Y161600D02*
X284000D01*
X283580Y161610D01*
X283160Y161640D01*
X282750Y161700D01*
X282340Y161770D01*
X281930Y161870D01*
X281530Y161990D01*
X281130Y162130D01*
X280750Y162290D01*
X280370Y162470D01*
X280000Y162670D01*
X279640Y162890D01*
X279300Y163130D01*
X278970Y163380D01*
X278650Y163650D01*
X278340Y163940D01*
X278050Y164250D01*
X277780Y164570D01*
X277530Y164900D01*
X277290Y165240D01*
X277070Y165600D01*
X276870Y165970D01*
X276690Y166350D01*
X276530Y166730D01*
X276390Y167130D01*
X276270Y167530D01*
X276170Y167940D01*
X276100Y168350D01*
X276040Y168760D01*
X276010Y169180D01*
X276000Y169600D01*
X276010Y170020D01*
X276040Y170440D01*
X276100Y170850D01*
X276170Y171260D01*
X276270Y171670D01*
X276390Y172070D01*
X276530Y172470D01*
X276690Y172850D01*
X276870Y173230D01*
X277070Y173600D01*
X277290Y173960D01*
X277530Y174300D01*
X277780Y174630D01*
X278050Y174950D01*
X278340Y175260D01*
X278650Y175550D01*
X278970Y175820D01*
X279300Y176070D01*
X279640Y176310D01*
X280000Y176530D01*
X280370Y176730D01*
X280750Y176910D01*
X281130Y177070D01*
X281530Y177210D01*
X281930Y177330D01*
X282340Y177430D01*
X282750Y177500D01*
X283160Y177560D01*
X283580Y177590D01*
X284000Y177600D01*
X308000D01*
Y161600D01*
D02*
G37*
G36*
X106620Y177590D02*
X107040Y177560D01*
X107450Y177500D01*
X107860Y177430D01*
X108270Y177330D01*
X108670Y177210D01*
X109070Y177070D01*
X109450Y176910D01*
X109830Y176730D01*
X110200Y176530D01*
X110560Y176310D01*
X110900Y176070D01*
X111230Y175820D01*
X111550Y175550D01*
X111860Y175260D01*
X112150Y174950D01*
X112420Y174630D01*
X112670Y174300D01*
X112910Y173960D01*
X113130Y173600D01*
X113330Y173230D01*
X113510Y172850D01*
X113670Y172470D01*
X113810Y172070D01*
X113930Y171670D01*
X114030Y171260D01*
X114100Y170850D01*
X114160Y170440D01*
X114190Y170020D01*
X114200Y169600D01*
X114190Y169180D01*
X114160Y168760D01*
X114100Y168350D01*
X114030Y167940D01*
X113930Y167530D01*
X113810Y167130D01*
X113670Y166730D01*
X113510Y166350D01*
X113330Y165970D01*
X113130Y165600D01*
X112910Y165240D01*
X112670Y164900D01*
X112420Y164570D01*
X112150Y164250D01*
X111860Y163940D01*
X111550Y163650D01*
X111230Y163380D01*
X110900Y163130D01*
X110560Y162890D01*
X110200Y162670D01*
X109830Y162470D01*
X109450Y162290D01*
X109070Y162130D01*
X108670Y161990D01*
X108270Y161870D01*
X107860Y161770D01*
X107450Y161700D01*
X107040Y161640D01*
X106620Y161610D01*
X106200Y161600D01*
X82200D01*
Y177600D01*
X106200D01*
X106620Y177590D01*
D02*
G37*
G36*
X308000Y136200D02*
X284000D01*
X283580Y136210D01*
X283160Y136240D01*
X282750Y136300D01*
X282340Y136370D01*
X281930Y136470D01*
X281530Y136590D01*
X281130Y136730D01*
X280750Y136890D01*
X280370Y137070D01*
X280000Y137270D01*
X279640Y137490D01*
X279300Y137730D01*
X278970Y137980D01*
X278650Y138250D01*
X278340Y138540D01*
X278050Y138850D01*
X277780Y139170D01*
X277530Y139500D01*
X277290Y139840D01*
X277070Y140200D01*
X276870Y140570D01*
X276690Y140950D01*
X276530Y141330D01*
X276390Y141730D01*
X276270Y142130D01*
X276170Y142540D01*
X276100Y142950D01*
X276040Y143360D01*
X276010Y143780D01*
X276000Y144200D01*
X276010Y144620D01*
X276040Y145040D01*
X276100Y145450D01*
X276170Y145860D01*
X276270Y146270D01*
X276390Y146670D01*
X276530Y147070D01*
X276690Y147450D01*
X276870Y147830D01*
X277070Y148200D01*
X277290Y148560D01*
X277530Y148900D01*
X277780Y149230D01*
X278050Y149550D01*
X278340Y149860D01*
X278650Y150150D01*
X278970Y150420D01*
X279300Y150670D01*
X279640Y150910D01*
X280000Y151130D01*
X280370Y151330D01*
X280750Y151510D01*
X281130Y151670D01*
X281530Y151810D01*
X281930Y151930D01*
X282340Y152030D01*
X282750Y152100D01*
X283160Y152160D01*
X283580Y152190D01*
X284000Y152200D01*
X308000D01*
Y136200D01*
D02*
G37*
G36*
X106620Y152190D02*
X107040Y152160D01*
X107450Y152100D01*
X107860Y152030D01*
X108270Y151930D01*
X108670Y151810D01*
X109070Y151670D01*
X109450Y151510D01*
X109830Y151330D01*
X110200Y151130D01*
X110560Y150910D01*
X110900Y150670D01*
X111230Y150420D01*
X111550Y150150D01*
X111860Y149860D01*
X112150Y149550D01*
X112420Y149230D01*
X112670Y148900D01*
X112910Y148560D01*
X113130Y148200D01*
X113330Y147830D01*
X113510Y147450D01*
X113670Y147070D01*
X113810Y146670D01*
X113930Y146270D01*
X114030Y145860D01*
X114100Y145450D01*
X114160Y145040D01*
X114190Y144620D01*
X114200Y144200D01*
X114190Y143780D01*
X114160Y143360D01*
X114100Y142950D01*
X114030Y142540D01*
X113930Y142130D01*
X113810Y141730D01*
X113670Y141330D01*
X113510Y140950D01*
X113330Y140570D01*
X113130Y140200D01*
X112910Y139840D01*
X112670Y139500D01*
X112420Y139170D01*
X112150Y138850D01*
X111860Y138540D01*
X111550Y138250D01*
X111230Y137980D01*
X110900Y137730D01*
X110560Y137490D01*
X110200Y137270D01*
X109830Y137070D01*
X109450Y136890D01*
X109070Y136730D01*
X108670Y136590D01*
X108270Y136470D01*
X107860Y136370D01*
X107450Y136300D01*
X107040Y136240D01*
X106620Y136210D01*
X106200Y136200D01*
X82200D01*
Y152200D01*
X106200D01*
X106620Y152190D01*
D02*
G37*
G36*
X308000Y110800D02*
X284000D01*
X283580Y110810D01*
X283160Y110840D01*
X282750Y110900D01*
X282340Y110970D01*
X281930Y111070D01*
X281530Y111190D01*
X281130Y111330D01*
X280750Y111490D01*
X280370Y111670D01*
X280000Y111870D01*
X279640Y112090D01*
X279300Y112330D01*
X278970Y112580D01*
X278650Y112850D01*
X278340Y113140D01*
X278050Y113450D01*
X277780Y113770D01*
X277530Y114100D01*
X277290Y114440D01*
X277070Y114800D01*
X276870Y115170D01*
X276690Y115550D01*
X276530Y115930D01*
X276390Y116330D01*
X276270Y116730D01*
X276170Y117140D01*
X276100Y117550D01*
X276040Y117960D01*
X276010Y118380D01*
X276000Y118800D01*
X276010Y119220D01*
X276040Y119640D01*
X276100Y120050D01*
X276170Y120460D01*
X276270Y120870D01*
X276390Y121270D01*
X276530Y121670D01*
X276690Y122050D01*
X276870Y122430D01*
X277070Y122800D01*
X277290Y123160D01*
X277530Y123500D01*
X277780Y123830D01*
X278050Y124150D01*
X278340Y124460D01*
X278650Y124750D01*
X278970Y125020D01*
X279300Y125270D01*
X279640Y125510D01*
X280000Y125730D01*
X280370Y125930D01*
X280750Y126110D01*
X281130Y126270D01*
X281530Y126410D01*
X281930Y126530D01*
X282340Y126630D01*
X282750Y126700D01*
X283160Y126760D01*
X283580Y126790D01*
X284000Y126800D01*
X308000D01*
Y110800D01*
D02*
G37*
G36*
X106620Y126790D02*
X107040Y126760D01*
X107450Y126700D01*
X107860Y126630D01*
X108270Y126530D01*
X108670Y126410D01*
X109070Y126270D01*
X109450Y126110D01*
X109830Y125930D01*
X110200Y125730D01*
X110560Y125510D01*
X110900Y125270D01*
X111230Y125020D01*
X111550Y124750D01*
X111860Y124460D01*
X112150Y124150D01*
X112420Y123830D01*
X112670Y123500D01*
X112910Y123160D01*
X113130Y122800D01*
X113330Y122430D01*
X113510Y122050D01*
X113670Y121670D01*
X113810Y121270D01*
X113930Y120870D01*
X114030Y120460D01*
X114100Y120050D01*
X114160Y119640D01*
X114190Y119220D01*
X114200Y118800D01*
X114190Y118380D01*
X114160Y117960D01*
X114100Y117550D01*
X114030Y117140D01*
X113930Y116730D01*
X113810Y116330D01*
X113670Y115930D01*
X113510Y115550D01*
X113330Y115170D01*
X113130Y114800D01*
X112910Y114440D01*
X112670Y114100D01*
X112420Y113770D01*
X112150Y113450D01*
X111860Y113140D01*
X111550Y112850D01*
X111230Y112580D01*
X110900Y112330D01*
X110560Y112090D01*
X110200Y111870D01*
X109830Y111670D01*
X109450Y111490D01*
X109070Y111330D01*
X108670Y111190D01*
X108270Y111070D01*
X107860Y110970D01*
X107450Y110900D01*
X107040Y110840D01*
X106620Y110810D01*
X106200Y110800D01*
X82200D01*
Y126800D01*
X106200D01*
X106620Y126790D01*
D02*
G37*
G36*
X308000Y85400D02*
X284000D01*
X283580Y85410D01*
X283160Y85440D01*
X282750Y85500D01*
X282340Y85570D01*
X281930Y85670D01*
X281530Y85790D01*
X281130Y85930D01*
X280750Y86090D01*
X280370Y86270D01*
X280000Y86470D01*
X279640Y86690D01*
X279300Y86930D01*
X278970Y87180D01*
X278650Y87450D01*
X278340Y87740D01*
X278050Y88050D01*
X277780Y88370D01*
X277530Y88700D01*
X277290Y89040D01*
X277070Y89400D01*
X276870Y89770D01*
X276690Y90150D01*
X276530Y90530D01*
X276390Y90930D01*
X276270Y91330D01*
X276170Y91740D01*
X276100Y92150D01*
X276040Y92560D01*
X276010Y92980D01*
X276000Y93400D01*
X276010Y93820D01*
X276040Y94240D01*
X276100Y94650D01*
X276170Y95060D01*
X276270Y95470D01*
X276390Y95870D01*
X276530Y96270D01*
X276690Y96650D01*
X276870Y97030D01*
X277070Y97400D01*
X277290Y97760D01*
X277530Y98100D01*
X277780Y98430D01*
X278050Y98750D01*
X278340Y99060D01*
X278650Y99350D01*
X278970Y99620D01*
X279300Y99870D01*
X279640Y100110D01*
X280000Y100330D01*
X280370Y100530D01*
X280750Y100710D01*
X281130Y100870D01*
X281530Y101010D01*
X281930Y101130D01*
X282340Y101230D01*
X282750Y101300D01*
X283160Y101360D01*
X283580Y101390D01*
X284000Y101400D01*
X308000D01*
Y85400D01*
D02*
G37*
G36*
X106620Y101390D02*
X107040Y101360D01*
X107450Y101300D01*
X107860Y101230D01*
X108270Y101130D01*
X108670Y101010D01*
X109070Y100870D01*
X109450Y100710D01*
X109830Y100530D01*
X110200Y100330D01*
X110560Y100110D01*
X110900Y99870D01*
X111230Y99620D01*
X111550Y99350D01*
X111860Y99060D01*
X112150Y98750D01*
X112420Y98430D01*
X112670Y98100D01*
X112910Y97760D01*
X113130Y97400D01*
X113330Y97030D01*
X113510Y96650D01*
X113670Y96270D01*
X113810Y95870D01*
X113930Y95470D01*
X114030Y95060D01*
X114100Y94650D01*
X114160Y94240D01*
X114190Y93820D01*
X114200Y93400D01*
X114190Y92980D01*
X114160Y92560D01*
X114100Y92150D01*
X114030Y91740D01*
X113930Y91330D01*
X113810Y90930D01*
X113670Y90530D01*
X113510Y90150D01*
X113330Y89770D01*
X113130Y89400D01*
X112910Y89040D01*
X112670Y88700D01*
X112420Y88370D01*
X112150Y88050D01*
X111860Y87740D01*
X111550Y87450D01*
X111230Y87180D01*
X110900Y86930D01*
X110560Y86690D01*
X110200Y86470D01*
X109830Y86270D01*
X109450Y86090D01*
X109070Y85930D01*
X108670Y85790D01*
X108270Y85670D01*
X107860Y85570D01*
X107450Y85500D01*
X107040Y85440D01*
X106620Y85410D01*
X106200Y85400D01*
X82200D01*
Y101400D01*
X106200D01*
X106620Y101390D01*
D02*
G37*
G36*
X308000Y60000D02*
X277900D01*
X277790Y60010D01*
X277690Y60020D01*
X277580Y60040D01*
X277480Y60070D01*
X277380Y60100D01*
X277280Y60130D01*
X277190Y60170D01*
X277090Y60220D01*
X277000Y60270D01*
X276910Y60320D01*
X276820Y60380D01*
X276740Y60450D01*
X276660Y60510D01*
X276590Y60590D01*
X276510Y60660D01*
X276450Y60740D01*
X276380Y60820D01*
X276320Y60910D01*
X276270Y61000D01*
X276220Y61090D01*
X276170Y61190D01*
X276130Y61280D01*
X276100Y61380D01*
X276070Y61480D01*
X276040Y61580D01*
X276020Y61690D01*
X276010Y61790D01*
X276000Y61900D01*
Y62000D01*
Y74000D01*
Y74100D01*
X276010Y74210D01*
X276020Y74310D01*
X276040Y74420D01*
X276070Y74520D01*
X276100Y74620D01*
X276130Y74720D01*
X276170Y74810D01*
X276220Y74910D01*
X276270Y75000D01*
X276320Y75090D01*
X276380Y75180D01*
X276450Y75260D01*
X276510Y75340D01*
X276590Y75410D01*
X276660Y75490D01*
X276740Y75550D01*
X276820Y75620D01*
X276910Y75680D01*
X277000Y75730D01*
X277090Y75780D01*
X277190Y75830D01*
X277280Y75870D01*
X277380Y75900D01*
X277480Y75930D01*
X277580Y75960D01*
X277690Y75980D01*
X277790Y75990D01*
X277900Y76000D01*
X308000D01*
Y60000D01*
D02*
G37*
G36*
X112410Y75990D02*
X112510Y75980D01*
X112620Y75960D01*
X112720Y75930D01*
X112820Y75900D01*
X112920Y75870D01*
X113010Y75830D01*
X113110Y75780D01*
X113200Y75730D01*
X113290Y75680D01*
X113380Y75620D01*
X113460Y75550D01*
X113540Y75490D01*
X113610Y75410D01*
X113690Y75340D01*
X113750Y75260D01*
X113820Y75180D01*
X113880Y75090D01*
X113930Y75000D01*
X113980Y74910D01*
X114030Y74810D01*
X114070Y74720D01*
X114100Y74620D01*
X114130Y74520D01*
X114160Y74420D01*
X114180Y74310D01*
X114190Y74210D01*
X114200Y74100D01*
Y74000D01*
Y62000D01*
Y61900D01*
X114190Y61790D01*
X114180Y61690D01*
X114160Y61580D01*
X114130Y61480D01*
X114100Y61380D01*
X114070Y61280D01*
X114030Y61190D01*
X113980Y61090D01*
X113930Y61000D01*
X113880Y60910D01*
X113820Y60820D01*
X113750Y60740D01*
X113690Y60660D01*
X113610Y60590D01*
X113540Y60510D01*
X113460Y60450D01*
X113380Y60380D01*
X113290Y60320D01*
X113200Y60270D01*
X113110Y60220D01*
X113010Y60170D01*
X112920Y60130D01*
X112820Y60100D01*
X112720Y60070D01*
X112620Y60040D01*
X112510Y60020D01*
X112410Y60010D01*
X112300Y60000D01*
X82200D01*
Y76000D01*
X112300D01*
X112410Y75990D01*
D02*
G37*
G36*
X308000Y34600D02*
X284000D01*
X283580Y34610D01*
X283160Y34640D01*
X282750Y34700D01*
X282340Y34770D01*
X281930Y34870D01*
X281530Y34990D01*
X281130Y35130D01*
X280750Y35290D01*
X280370Y35470D01*
X280000Y35670D01*
X279640Y35890D01*
X279300Y36130D01*
X278970Y36380D01*
X278650Y36650D01*
X278340Y36940D01*
X278050Y37250D01*
X277780Y37570D01*
X277530Y37900D01*
X277290Y38240D01*
X277070Y38600D01*
X276870Y38970D01*
X276690Y39350D01*
X276530Y39730D01*
X276390Y40130D01*
X276270Y40530D01*
X276170Y40940D01*
X276100Y41350D01*
X276040Y41760D01*
X276010Y42180D01*
X276000Y42600D01*
X276010Y43020D01*
X276040Y43440D01*
X276100Y43850D01*
X276170Y44260D01*
X276270Y44670D01*
X276390Y45070D01*
X276530Y45470D01*
X276690Y45850D01*
X276870Y46230D01*
X277070Y46600D01*
X277290Y46960D01*
X277530Y47300D01*
X277780Y47630D01*
X278050Y47950D01*
X278340Y48260D01*
X278650Y48550D01*
X278970Y48820D01*
X279300Y49070D01*
X279640Y49310D01*
X280000Y49530D01*
X280370Y49730D01*
X280750Y49910D01*
X281130Y50070D01*
X281530Y50210D01*
X281930Y50330D01*
X282340Y50430D01*
X282750Y50500D01*
X283160Y50560D01*
X283580Y50590D01*
X284000Y50600D01*
X308000D01*
Y34600D01*
D02*
G37*
G36*
X106620Y50590D02*
X107040Y50560D01*
X107450Y50500D01*
X107860Y50430D01*
X108270Y50330D01*
X108670Y50210D01*
X109070Y50070D01*
X109450Y49910D01*
X109830Y49730D01*
X110200Y49530D01*
X110560Y49310D01*
X110900Y49070D01*
X111230Y48820D01*
X111550Y48550D01*
X111860Y48260D01*
X112150Y47950D01*
X112420Y47630D01*
X112670Y47300D01*
X112910Y46960D01*
X113130Y46600D01*
X113330Y46230D01*
X113510Y45850D01*
X113670Y45470D01*
X113810Y45070D01*
X113930Y44670D01*
X114030Y44260D01*
X114100Y43850D01*
X114160Y43440D01*
X114190Y43020D01*
X114200Y42600D01*
X114190Y42180D01*
X114160Y41760D01*
X114100Y41350D01*
X114030Y40940D01*
X113930Y40530D01*
X113810Y40130D01*
X113670Y39730D01*
X113510Y39350D01*
X113330Y38970D01*
X113130Y38600D01*
X112910Y38240D01*
X112670Y37900D01*
X112420Y37570D01*
X112150Y37250D01*
X111860Y36940D01*
X111550Y36650D01*
X111230Y36380D01*
X110900Y36130D01*
X110560Y35890D01*
X110200Y35670D01*
X109830Y35470D01*
X109450Y35290D01*
X109070Y35130D01*
X108670Y34990D01*
X108270Y34870D01*
X107860Y34770D01*
X107450Y34700D01*
X107040Y34640D01*
X106620Y34610D01*
X106200Y34600D01*
X82200D01*
Y50600D01*
X106200D01*
X106620Y50590D01*
D02*
G37*
G36*
X308000Y9200D02*
X284000D01*
X283580Y9210D01*
X283160Y9240D01*
X282750Y9300D01*
X282340Y9370D01*
X281930Y9470D01*
X281530Y9590D01*
X281130Y9730D01*
X280750Y9890D01*
X280370Y10070D01*
X280000Y10270D01*
X279640Y10490D01*
X279300Y10730D01*
X278970Y10980D01*
X278650Y11250D01*
X278340Y11540D01*
X278050Y11850D01*
X277780Y12170D01*
X277530Y12500D01*
X277290Y12840D01*
X277070Y13200D01*
X276870Y13570D01*
X276690Y13950D01*
X276530Y14330D01*
X276390Y14730D01*
X276270Y15130D01*
X276170Y15540D01*
X276100Y15950D01*
X276040Y16360D01*
X276010Y16780D01*
X276000Y17200D01*
X276010Y17620D01*
X276040Y18040D01*
X276100Y18450D01*
X276170Y18860D01*
X276270Y19270D01*
X276390Y19670D01*
X276530Y20070D01*
X276690Y20450D01*
X276870Y20830D01*
X277070Y21200D01*
X277290Y21560D01*
X277530Y21900D01*
X277780Y22230D01*
X278050Y22550D01*
X278340Y22860D01*
X278650Y23150D01*
X278970Y23420D01*
X279300Y23670D01*
X279640Y23910D01*
X280000Y24130D01*
X280370Y24330D01*
X280750Y24510D01*
X281130Y24670D01*
X281530Y24810D01*
X281930Y24930D01*
X282340Y25030D01*
X282750Y25100D01*
X283160Y25160D01*
X283580Y25190D01*
X284000Y25200D01*
X308000D01*
Y9200D01*
D02*
G37*
G36*
X106620Y25190D02*
X107040Y25160D01*
X107450Y25100D01*
X107860Y25030D01*
X108270Y24930D01*
X108670Y24810D01*
X109070Y24670D01*
X109450Y24510D01*
X109830Y24330D01*
X110200Y24130D01*
X110560Y23910D01*
X110900Y23670D01*
X111230Y23420D01*
X111550Y23150D01*
X111860Y22860D01*
X112150Y22550D01*
X112420Y22230D01*
X112670Y21900D01*
X112910Y21560D01*
X113130Y21200D01*
X113330Y20830D01*
X113510Y20450D01*
X113670Y20070D01*
X113810Y19670D01*
X113930Y19270D01*
X114030Y18860D01*
X114100Y18450D01*
X114160Y18040D01*
X114190Y17620D01*
X114200Y17200D01*
X114190Y16780D01*
X114160Y16360D01*
X114100Y15950D01*
X114030Y15540D01*
X113930Y15130D01*
X113810Y14730D01*
X113670Y14330D01*
X113510Y13950D01*
X113330Y13570D01*
X113130Y13200D01*
X112910Y12840D01*
X112670Y12500D01*
X112420Y12170D01*
X112150Y11850D01*
X111860Y11540D01*
X111550Y11250D01*
X111230Y10980D01*
X110900Y10730D01*
X110560Y10490D01*
X110200Y10270D01*
X109830Y10070D01*
X109450Y9890D01*
X109070Y9730D01*
X108670Y9590D01*
X108270Y9470D01*
X107860Y9370D01*
X107450Y9300D01*
X107040Y9240D01*
X106620Y9210D01*
X106200Y9200D01*
X82200D01*
Y25200D01*
X106200D01*
X106620Y25190D01*
D02*
G37*
D15*
X528500Y209500D02*
D03*
X562500D02*
D03*
Y139250D02*
D03*
X528500D02*
D03*
D16*
X401602Y185500D02*
D03*
X420002Y438000D02*
D03*
Y483830D02*
D03*
X399922Y235750D02*
D03*
Y323500D02*
D03*
X420002Y575500D02*
D03*
X401602Y135500D02*
D03*
X399922Y371000D02*
D03*
Y279250D02*
D03*
X420002Y529670D02*
D03*
D17*
X401602Y204500D02*
D03*
X383398Y195000D02*
D03*
X401798Y447500D02*
D03*
X420002Y457000D02*
D03*
X401798Y493330D02*
D03*
X420002Y502830D02*
D03*
X381718Y245250D02*
D03*
X399922Y254750D02*
D03*
X381718Y333000D02*
D03*
X399922Y342500D02*
D03*
X401798Y585000D02*
D03*
X420002Y594500D02*
D03*
X383398Y145000D02*
D03*
X401602Y154500D02*
D03*
X381718Y380500D02*
D03*
X399922Y390000D02*
D03*
X381718Y288750D02*
D03*
X399922Y298250D02*
D03*
X401798Y539170D02*
D03*
X420002Y548670D02*
D03*
D18*
X357500Y135750D02*
D03*
Y154250D02*
D03*
Y188250D02*
D03*
Y206750D02*
D03*
X345000Y456750D02*
D03*
Y438250D02*
D03*
X450000Y456750D02*
D03*
Y438250D02*
D03*
Y502580D02*
D03*
Y484080D02*
D03*
X424000Y254500D02*
D03*
Y236000D02*
D03*
X358500Y254500D02*
D03*
Y236000D02*
D03*
X424000Y298000D02*
D03*
Y279500D02*
D03*
Y389750D02*
D03*
Y371250D02*
D03*
X358500Y298000D02*
D03*
Y279500D02*
D03*
Y389750D02*
D03*
Y371250D02*
D03*
X424000Y342250D02*
D03*
Y323750D02*
D03*
X358500Y342250D02*
D03*
Y323750D02*
D03*
X450000Y548420D02*
D03*
Y529920D02*
D03*
X345000Y548420D02*
D03*
Y529920D02*
D03*
X450000Y594250D02*
D03*
Y575750D02*
D03*
X345000Y594250D02*
D03*
Y575750D02*
D03*
Y502580D02*
D03*
Y484080D02*
D03*
D19*
X372500Y437000D02*
D03*
Y458000D02*
D03*
Y595500D02*
D03*
Y574500D02*
D03*
Y503830D02*
D03*
Y482830D02*
D03*
Y528670D02*
D03*
Y549670D02*
D03*
D20*
X44250Y120000D02*
D03*
X25750D02*
D03*
D21*
X24500Y142500D02*
D03*
X45500D02*
D03*
D22*
X821765Y346500D02*
D03*
Y331500D02*
D03*
Y356500D02*
D03*
Y321500D02*
D03*
Y336500D02*
D03*
Y366500D02*
D03*
Y361500D02*
D03*
Y311500D02*
D03*
Y306500D02*
D03*
Y316500D02*
D03*
Y341500D02*
D03*
Y371500D02*
D03*
Y326500D02*
D03*
Y351500D02*
D03*
D23*
X838235Y395345D02*
D03*
Y282655D02*
D03*
D24*
X31000Y322250D02*
D03*
Y356250D02*
D03*
M02*
