G04*
G04 #@! TF.GenerationSoftware,Altium Limited,Altium Designer,22.8.2 (66)*
G04*
G04 Layer_Color=2752767*
%FSLAX44Y44*%
%MOMM*%
G71*
G04*
G04 #@! TF.SameCoordinates,AC85451F-D696-4C02-AFCB-F2BF1FB96518*
G04*
G04*
G04 #@! TF.FilePolarity,Positive*
G04*
G01*
G75*
%ADD46C,0.0508*%
D46*
X-54018Y-7578D02*
Y-3514D01*
X-49954D01*
Y-7578D01*
X-54018D01*
X-23282Y17718D02*
Y21782D01*
X-19218D01*
Y17718D01*
X-23282D01*
X-282Y-7532D02*
Y-3468D01*
X3782D01*
Y-7532D01*
X-282D01*
X-25227Y3718D02*
Y7782D01*
X-21163D01*
Y3718D01*
X-25227D01*
X-21411Y-3023D02*
Y1041D01*
X-17347D01*
Y-3023D01*
X-21411D01*
X-26782Y12218D02*
Y16282D01*
X-22718D01*
Y12218D01*
X-26782D01*
X-57515Y9761D02*
Y13825D01*
X-53451D01*
Y9761D01*
X-57515D01*
X-189782Y5468D02*
Y9532D01*
X-185718D01*
Y5468D01*
X-189782D01*
X-54282Y218D02*
Y4282D01*
X-50218D01*
Y218D01*
X-54282D01*
X-127032Y14968D02*
Y19032D01*
X-122968D01*
Y14968D01*
X-127032D01*
X-127532Y718D02*
Y4782D01*
X-123468D01*
Y718D01*
X-127532D01*
X-127032Y-5782D02*
Y-1718D01*
X-122968D01*
Y-5782D01*
X-127032D01*
X-115282Y968D02*
Y5032D01*
X-111218D01*
Y968D01*
X-115282D01*
X-115532Y-5782D02*
Y-1718D01*
X-111468D01*
Y-5782D01*
X-115532D01*
X-72032Y1468D02*
Y5532D01*
X-67968D01*
Y1468D01*
X-72032D01*
X-115532Y14968D02*
Y19032D01*
X-111468D01*
Y14968D01*
X-115532D01*
X-189782Y-24532D02*
Y-20468D01*
X-185718D01*
Y-24532D01*
X-189782D01*
X-145782Y-19032D02*
Y-14968D01*
X-141718D01*
Y-19032D01*
X-145782D01*
X-189782Y-29532D02*
Y-25468D01*
X-185718D01*
Y-29532D01*
X-189782D01*
X-47396Y12178D02*
Y16242D01*
X-43332D01*
Y12178D01*
X-47396D01*
X-51150Y6740D02*
Y10804D01*
X-47086D01*
Y6740D01*
X-51150D01*
X-67032Y10468D02*
Y14532D01*
X-62968D01*
Y10468D01*
X-67032D01*
X-72032Y-5782D02*
Y-1718D01*
X-67968D01*
Y-5782D01*
X-72032D01*
X-57032Y-14782D02*
Y-10718D01*
X-52968D01*
Y-14782D01*
X-57032D01*
X-45595Y-13782D02*
Y-9718D01*
X-41530D01*
Y-13782D01*
X-45595D01*
X-105282Y-11032D02*
Y-6968D01*
X-101218D01*
Y-11032D01*
X-105282D01*
X-189782Y-4532D02*
Y-468D01*
X-185718D01*
Y-4532D01*
X-189782D01*
X-49687Y-4358D02*
Y-294D01*
X-45623D01*
Y-4358D01*
X-49687D01*
X-189782Y-14532D02*
Y-10468D01*
X-185718D01*
Y-14532D01*
X-189782D01*
X-42830Y12218D02*
Y16282D01*
X-38766D01*
Y12218D01*
X-42830D01*
X-189782Y-9532D02*
Y-5468D01*
X-185718D01*
Y-9532D01*
X-189782D01*
Y468D02*
Y4532D01*
X-185718D01*
Y468D01*
X-189782D01*
X-39580Y-13580D02*
Y-9516D01*
X-35516D01*
Y-13580D01*
X-39580D01*
X-131282Y-19032D02*
Y-14968D01*
X-127218D01*
Y-19032D01*
X-131282D01*
X-38282Y12468D02*
Y16532D01*
X-34218D01*
Y12468D01*
X-38282D01*
X-21252Y-22320D02*
Y-18256D01*
X-17188D01*
Y-22320D01*
X-21252D01*
X-27032Y-13282D02*
Y-9218D01*
X-22968D01*
Y-13282D01*
X-27032D01*
X-91953Y11164D02*
Y15228D01*
X-87889D01*
Y11164D01*
X-91953D01*
X-189782Y-19532D02*
Y-15468D01*
X-185718D01*
Y-19532D01*
X-189782D01*
Y15468D02*
Y19532D01*
X-185718D01*
Y15468D01*
X-189782D01*
Y20468D02*
Y24532D01*
X-185718D01*
Y20468D01*
X-189782D01*
X-83032Y10468D02*
Y14532D01*
X-78968D01*
Y10468D01*
X-83032D01*
X-81282Y-20532D02*
Y-16468D01*
X-77218D01*
Y-20532D01*
X-81282D01*
X-189782Y10468D02*
Y14532D01*
X-185718D01*
Y10468D01*
X-189782D01*
Y25468D02*
Y29532D01*
X-185718D01*
Y25468D01*
X-189782D01*
X-33532Y12406D02*
Y16470D01*
X-29468D01*
Y12406D01*
X-33532D01*
X-112032Y-19032D02*
Y-14968D01*
X-107968D01*
Y-19032D01*
X-112032D01*
M02*
