G04*
G04 #@! TF.GenerationSoftware,Altium Limited,Altium Designer,22.8.2 (66)*
G04*
G04 Layer_Color=39423*
%FSLAX44Y44*%
%MOMM*%
G71*
G04*
G04 #@! TF.SameCoordinates,AC85451F-D696-4C02-AFCB-F2BF1FB96518*
G04*
G04*
G04 #@! TF.FilePolarity,Negative*
G04*
G01*
G75*
%ADD20R,0.5000X0.3500*%
%ADD21R,0.3500X0.5000*%
%ADD23R,0.6000X0.8000*%
%ADD25C,0.0000*%
%ADD26R,4.0250X6.5250*%
%ADD27C,0.3200*%
%ADD28R,4.2032X0.5532*%
%ADD29R,1.2032X0.7032*%
%ADD30R,0.8600X0.4100*%
%ADD31R,1.8100X2.5400*%
%ADD32C,0.3500*%
%ADD33R,0.8232X0.8832*%
%ADD34R,0.7532X0.8532*%
%ADD35R,0.8532X0.7532*%
%ADD36R,1.2532X1.2032*%
%ADD37R,0.8832X0.8232*%
G36*
X-168197Y19754D02*
X-168150D01*
Y19418D01*
X-168197D01*
Y19227D01*
X-168245D01*
Y19035D01*
X-168293D01*
Y18987D01*
X-168341D01*
Y18844D01*
X-168389D01*
Y18796D01*
X-168437D01*
Y18748D01*
X-168485D01*
Y18652D01*
X-168533D01*
Y18604D01*
X-168581D01*
Y18508D01*
X-168629D01*
Y18460D01*
X-168676D01*
Y18412D01*
X-168724D01*
Y18365D01*
X-168772D01*
Y18317D01*
X-168820D01*
Y18269D01*
X-168868D01*
Y18221D01*
X-168916D01*
Y18173D01*
X-168964D01*
Y18125D01*
X-169012D01*
Y18077D01*
X-169060D01*
Y18029D01*
X-169155D01*
Y17981D01*
X-169203D01*
Y17933D01*
X-169251D01*
Y17886D01*
X-169299D01*
Y17838D01*
X-169395D01*
Y17790D01*
X-169443D01*
Y17742D01*
X-169491D01*
Y17694D01*
X-169539D01*
Y17646D01*
X-169634D01*
Y17598D01*
X-169682D01*
Y17550D01*
X-169730D01*
Y17502D01*
X-169826D01*
Y17455D01*
X-169874D01*
Y17407D01*
X-169922D01*
Y17359D01*
X-170018D01*
Y17311D01*
X-170065D01*
Y17263D01*
X-170161D01*
Y17215D01*
X-170209D01*
Y17167D01*
X-170257D01*
Y17119D01*
X-170353D01*
Y17071D01*
X-170401D01*
Y17024D01*
X-170497D01*
Y16976D01*
X-170544D01*
Y16928D01*
X-170640D01*
Y16880D01*
X-170688D01*
Y16832D01*
X-170784D01*
Y16784D01*
X-170832D01*
Y16736D01*
X-170880D01*
Y16688D01*
X-170976D01*
Y16640D01*
X-171024D01*
Y16592D01*
X-171119D01*
Y16545D01*
X-171167D01*
Y16497D01*
X-171215D01*
Y16449D01*
X-171311D01*
Y16401D01*
X-171359D01*
Y16353D01*
X-171455D01*
Y16305D01*
X-171502D01*
Y16257D01*
X-171550D01*
Y16209D01*
X-171646D01*
Y16161D01*
X-171694D01*
Y16113D01*
X-171742D01*
Y16065D01*
X-171838D01*
Y16018D01*
X-171886D01*
Y15970D01*
X-171933D01*
Y15922D01*
X-171981D01*
Y15874D01*
X-172029D01*
Y15826D01*
X-172125D01*
Y15778D01*
X-172173D01*
Y15730D01*
X-172221D01*
Y15682D01*
X-172269D01*
Y15634D01*
X-172317D01*
Y15587D01*
X-172365D01*
Y15539D01*
X-172412D01*
Y15491D01*
X-172460D01*
Y15443D01*
X-172508D01*
Y15395D01*
X-172556D01*
Y15347D01*
X-172604D01*
Y15299D01*
X-172652D01*
Y15251D01*
X-172700D01*
Y15203D01*
X-172748D01*
Y15155D01*
X-172796D01*
Y15060D01*
X-172844D01*
Y15012D01*
X-172892D01*
Y14964D01*
X-172939D01*
Y14868D01*
X-172987D01*
Y14772D01*
X-173035D01*
Y14724D01*
X-173083D01*
Y14581D01*
X-173131D01*
Y14485D01*
X-173179D01*
Y14293D01*
X-173227D01*
Y13719D01*
X-173179D01*
Y13527D01*
X-173131D01*
Y13431D01*
X-173083D01*
Y13335D01*
X-173035D01*
Y13287D01*
X-172987D01*
Y13192D01*
X-172939D01*
Y13144D01*
X-172892D01*
Y13096D01*
X-172844D01*
Y13048D01*
X-172796D01*
Y13000D01*
X-172700D01*
Y12952D01*
X-172604D01*
Y12904D01*
X-172508D01*
Y12856D01*
X-172269D01*
Y12808D01*
X-171838D01*
Y12856D01*
X-171550D01*
Y12904D01*
X-171359D01*
Y12952D01*
X-171263D01*
Y13000D01*
X-171119D01*
Y13048D01*
X-171024D01*
Y13096D01*
X-170928D01*
Y13144D01*
X-170832D01*
Y13192D01*
X-170784D01*
Y13240D01*
X-170688D01*
Y13287D01*
X-170640D01*
Y13335D01*
X-170544D01*
Y13383D01*
X-170497D01*
Y13431D01*
X-170401D01*
Y13479D01*
X-170353D01*
Y13527D01*
X-170305D01*
Y13575D01*
X-170209D01*
Y13623D01*
X-170161D01*
Y13671D01*
X-170113D01*
Y13719D01*
X-170065D01*
Y13766D01*
X-170018D01*
Y13814D01*
X-169970D01*
Y13862D01*
X-169922D01*
Y13910D01*
X-169826D01*
Y13958D01*
X-169730D01*
Y13910D01*
X-169682D01*
Y13862D01*
X-169634D01*
Y13671D01*
X-169682D01*
Y13575D01*
X-169730D01*
Y13431D01*
X-169778D01*
Y13240D01*
X-169826D01*
Y13144D01*
X-169874D01*
Y12952D01*
X-169922D01*
Y12856D01*
X-169970D01*
Y12760D01*
X-170018D01*
Y12617D01*
X-170065D01*
Y12521D01*
X-170113D01*
Y12425D01*
X-170161D01*
Y12282D01*
X-170209D01*
Y12234D01*
X-170257D01*
Y12090D01*
X-170305D01*
Y11994D01*
X-170353D01*
Y11946D01*
X-170401D01*
Y11803D01*
X-170449D01*
Y11755D01*
X-170497D01*
Y11659D01*
X-170544D01*
Y11563D01*
X-170592D01*
Y11515D01*
X-170640D01*
Y11419D01*
X-170688D01*
Y11323D01*
X-170736D01*
Y11228D01*
X-170784D01*
Y11180D01*
X-170832D01*
Y11084D01*
X-170880D01*
Y11036D01*
X-170928D01*
Y10940D01*
X-170976D01*
Y10845D01*
X-171024D01*
Y10797D01*
X-171071D01*
Y10701D01*
X-171119D01*
Y10653D01*
X-171167D01*
Y10557D01*
X-171215D01*
Y10509D01*
X-171263D01*
Y10461D01*
X-171311D01*
Y10366D01*
X-171359D01*
Y10318D01*
X-171407D01*
Y10270D01*
X-171455D01*
Y10174D01*
X-171502D01*
Y10126D01*
X-171550D01*
Y10078D01*
X-171598D01*
Y10030D01*
X-171646D01*
Y9982D01*
X-171694D01*
Y9887D01*
X-171742D01*
Y9839D01*
X-171790D01*
Y9791D01*
X-171838D01*
Y9743D01*
X-171886D01*
Y9695D01*
X-171933D01*
Y9599D01*
X-171981D01*
Y9551D01*
X-172029D01*
Y9503D01*
X-172077D01*
Y9456D01*
X-172125D01*
Y9408D01*
X-172173D01*
Y9360D01*
X-172221D01*
Y9312D01*
X-172269D01*
Y9264D01*
X-172317D01*
Y9216D01*
X-172365D01*
Y9168D01*
X-172412D01*
Y9120D01*
X-172460D01*
Y9072D01*
X-172508D01*
Y9024D01*
X-172556D01*
Y8977D01*
X-172604D01*
Y8929D01*
X-172652D01*
Y8881D01*
X-172700D01*
Y8833D01*
X-172748D01*
Y8785D01*
X-172844D01*
Y8737D01*
X-172892D01*
Y8689D01*
X-172939D01*
Y8641D01*
X-172987D01*
Y8593D01*
X-173035D01*
Y8545D01*
X-173131D01*
Y8497D01*
X-173179D01*
Y8450D01*
X-173227D01*
Y8402D01*
X-173323D01*
Y8354D01*
X-173370D01*
Y8306D01*
X-173418D01*
Y8258D01*
X-173514D01*
Y8210D01*
X-173562D01*
Y8162D01*
X-173658D01*
Y8114D01*
X-173706D01*
Y8066D01*
X-173802D01*
Y8019D01*
X-173850D01*
Y7971D01*
X-173945D01*
Y7923D01*
X-174041D01*
Y7875D01*
X-174089D01*
Y7827D01*
X-174185D01*
Y7779D01*
X-174281D01*
Y7731D01*
X-174376D01*
Y7683D01*
X-174472D01*
Y7635D01*
X-174616D01*
Y7588D01*
X-174664D01*
Y7540D01*
X-174807D01*
Y7492D01*
X-174951D01*
Y7444D01*
X-175095D01*
Y7396D01*
X-175286D01*
Y7348D01*
X-175430D01*
Y7300D01*
X-175670D01*
Y7252D01*
X-176053D01*
Y7204D01*
X-176675D01*
Y7396D01*
X-176628D01*
Y7444D01*
X-176532D01*
Y7492D01*
X-176436D01*
Y7540D01*
X-176292D01*
Y7588D01*
X-176244D01*
Y7635D01*
X-176101D01*
Y7683D01*
X-176005D01*
Y7731D01*
X-175909D01*
Y7779D01*
X-175861D01*
Y7827D01*
X-175765D01*
Y7875D01*
X-175718D01*
Y7923D01*
X-175670D01*
Y7971D01*
X-175622D01*
Y8019D01*
X-175526D01*
Y8066D01*
X-175478D01*
Y8114D01*
X-175430D01*
Y8162D01*
X-175382D01*
Y8210D01*
X-175334D01*
Y8258D01*
X-175286D01*
Y8306D01*
X-175238D01*
Y8354D01*
X-175191D01*
Y8402D01*
X-175143D01*
Y8450D01*
X-175095D01*
Y8497D01*
X-175047D01*
Y8545D01*
X-174999D01*
Y8641D01*
X-174951D01*
Y8689D01*
X-174903D01*
Y8737D01*
X-174855D01*
Y8833D01*
X-174807D01*
Y8881D01*
X-174760D01*
Y8977D01*
X-174712D01*
Y9024D01*
X-174664D01*
Y9120D01*
X-174616D01*
Y9216D01*
X-174568D01*
Y9312D01*
X-174520D01*
Y9408D01*
X-174472D01*
Y9503D01*
X-174424D01*
Y9599D01*
X-174376D01*
Y9743D01*
X-174328D01*
Y9887D01*
X-174281D01*
Y9982D01*
X-174233D01*
Y10174D01*
X-174185D01*
Y10318D01*
X-174137D01*
Y10509D01*
X-174089D01*
Y10797D01*
X-174041D01*
Y10988D01*
X-173993D01*
Y11276D01*
X-173945D01*
Y11755D01*
X-173993D01*
Y11803D01*
X-174041D01*
Y11755D01*
X-174089D01*
Y11707D01*
X-174137D01*
Y11611D01*
X-174185D01*
Y11563D01*
X-174233D01*
Y11467D01*
X-174281D01*
Y11372D01*
X-174328D01*
Y11323D01*
X-174376D01*
Y11228D01*
X-174424D01*
Y11180D01*
X-174472D01*
Y11132D01*
X-174520D01*
Y11084D01*
X-174568D01*
Y11036D01*
X-174616D01*
Y10988D01*
X-174664D01*
Y10940D01*
X-174712D01*
Y10892D01*
X-174760D01*
Y10845D01*
X-174807D01*
Y10797D01*
X-174855D01*
Y10749D01*
X-174903D01*
Y10701D01*
X-174999D01*
Y10653D01*
X-175047D01*
Y10605D01*
X-175095D01*
Y10557D01*
X-175191D01*
Y10509D01*
X-175238D01*
Y10461D01*
X-175334D01*
Y10414D01*
X-175430D01*
Y10366D01*
X-175526D01*
Y10318D01*
X-175670D01*
Y10270D01*
X-175861D01*
Y10222D01*
X-176388D01*
Y10270D01*
X-176484D01*
Y10318D01*
X-176580D01*
Y10366D01*
X-176675D01*
Y10414D01*
X-176723D01*
Y10461D01*
X-176771D01*
Y10509D01*
X-176819D01*
Y10557D01*
X-176867D01*
Y10605D01*
X-176915D01*
Y10701D01*
X-176963D01*
Y10749D01*
X-177011D01*
Y10892D01*
X-177059D01*
Y11036D01*
X-177107D01*
Y11563D01*
X-177059D01*
Y11755D01*
X-177011D01*
Y11898D01*
X-176963D01*
Y11946D01*
X-176915D01*
Y12090D01*
X-176867D01*
Y12138D01*
X-176819D01*
Y12234D01*
X-176771D01*
Y12329D01*
X-176723D01*
Y12377D01*
X-176675D01*
Y12473D01*
X-176628D01*
Y12521D01*
X-176580D01*
Y12569D01*
X-176532D01*
Y12665D01*
X-176484D01*
Y12713D01*
X-176436D01*
Y12808D01*
X-176388D01*
Y12856D01*
X-176340D01*
Y12952D01*
X-176292D01*
Y13000D01*
X-176244D01*
Y13096D01*
X-176196D01*
Y13144D01*
X-176149D01*
Y13240D01*
X-176101D01*
Y13287D01*
X-176053D01*
Y13383D01*
X-176005D01*
Y13479D01*
X-175957D01*
Y13527D01*
X-175909D01*
Y13623D01*
X-175861D01*
Y13719D01*
X-175813D01*
Y13814D01*
X-175765D01*
Y13958D01*
X-175718D01*
Y14054D01*
X-175670D01*
Y14197D01*
X-175622D01*
Y14389D01*
X-175574D01*
Y14581D01*
X-175526D01*
Y14772D01*
X-175574D01*
Y14820D01*
X-175622D01*
Y14772D01*
X-175670D01*
Y14724D01*
X-175718D01*
Y14677D01*
X-175765D01*
Y14628D01*
X-175813D01*
Y14533D01*
X-175861D01*
Y14485D01*
X-175909D01*
Y14389D01*
X-175957D01*
Y14341D01*
X-176005D01*
Y14245D01*
X-176053D01*
Y14197D01*
X-176101D01*
Y14102D01*
X-176149D01*
Y14054D01*
X-176196D01*
Y14006D01*
X-176244D01*
Y13958D01*
X-176292D01*
Y13862D01*
X-176340D01*
Y13814D01*
X-176388D01*
Y13766D01*
X-176436D01*
Y13719D01*
X-176484D01*
Y13671D01*
X-176532D01*
Y13623D01*
X-176580D01*
Y13575D01*
X-176628D01*
Y13527D01*
X-176675D01*
Y13479D01*
X-176771D01*
Y13431D01*
X-176819D01*
Y13383D01*
X-176867D01*
Y13335D01*
X-176915D01*
Y13287D01*
X-176963D01*
Y13240D01*
X-177011D01*
Y13192D01*
X-177107D01*
Y13144D01*
X-177155D01*
Y13096D01*
X-177202D01*
Y13048D01*
X-177250D01*
Y13000D01*
X-177346D01*
Y12952D01*
X-177394D01*
Y12904D01*
X-177442D01*
Y12856D01*
X-177538D01*
Y12808D01*
X-177586D01*
Y12760D01*
X-177633D01*
Y12713D01*
X-177729D01*
Y12665D01*
X-177777D01*
Y12617D01*
X-177825D01*
Y12569D01*
X-177921D01*
Y12521D01*
X-177969D01*
Y12473D01*
X-178017D01*
Y12425D01*
X-178112D01*
Y12377D01*
X-178160D01*
Y12329D01*
X-178208D01*
Y12282D01*
X-178304D01*
Y12234D01*
X-178352D01*
Y12186D01*
X-178400D01*
Y12138D01*
X-178448D01*
Y12090D01*
X-178543D01*
Y12042D01*
X-178591D01*
Y11994D01*
X-178639D01*
Y11946D01*
X-178687D01*
Y11898D01*
X-178735D01*
Y11850D01*
X-178831D01*
Y11803D01*
X-178879D01*
Y11755D01*
X-178927D01*
Y11707D01*
X-178975D01*
Y11659D01*
X-179023D01*
Y11611D01*
X-179070D01*
Y11563D01*
X-179118D01*
Y11515D01*
X-179166D01*
Y11467D01*
X-179214D01*
Y11419D01*
X-179262D01*
Y11372D01*
X-179310D01*
Y11323D01*
X-179358D01*
Y11276D01*
X-179406D01*
Y11228D01*
X-179454D01*
Y11180D01*
X-179501D01*
Y11084D01*
X-179549D01*
Y11036D01*
X-179597D01*
Y10988D01*
X-179645D01*
Y10940D01*
X-179693D01*
Y10845D01*
X-179741D01*
Y10797D01*
X-179789D01*
Y10701D01*
X-179837D01*
Y10605D01*
X-179885D01*
Y10557D01*
X-179933D01*
Y10461D01*
X-179981D01*
Y10318D01*
X-180028D01*
Y10222D01*
X-180076D01*
Y10126D01*
X-180124D01*
Y9934D01*
X-180172D01*
Y9791D01*
X-180220D01*
Y9503D01*
X-180268D01*
Y8306D01*
X-180316D01*
Y8114D01*
X-180364D01*
Y8066D01*
X-180507D01*
Y8114D01*
X-180555D01*
Y8210D01*
X-180603D01*
Y8402D01*
X-180651D01*
Y8593D01*
X-180699D01*
Y8737D01*
X-180747D01*
Y9072D01*
X-180795D01*
Y9264D01*
X-180843D01*
Y9551D01*
X-180891D01*
Y11132D01*
X-180843D01*
Y11419D01*
X-180795D01*
Y11611D01*
X-180747D01*
Y11850D01*
X-180699D01*
Y11994D01*
X-180651D01*
Y12090D01*
X-180603D01*
Y12282D01*
X-180555D01*
Y12329D01*
X-180507D01*
Y12473D01*
X-180459D01*
Y12617D01*
X-180412D01*
Y12665D01*
X-180364D01*
Y12808D01*
X-180316D01*
Y12856D01*
X-180268D01*
Y12952D01*
X-180220D01*
Y13048D01*
X-180172D01*
Y13096D01*
X-180124D01*
Y13192D01*
X-180076D01*
Y13287D01*
X-180028D01*
Y13335D01*
X-179981D01*
Y13431D01*
X-179933D01*
Y13479D01*
X-179885D01*
Y13527D01*
X-179837D01*
Y13623D01*
X-179789D01*
Y13671D01*
X-179741D01*
Y13719D01*
X-179693D01*
Y13766D01*
X-179645D01*
Y13814D01*
X-179597D01*
Y13910D01*
X-179549D01*
Y13958D01*
X-179501D01*
Y14006D01*
X-179454D01*
Y14054D01*
X-179406D01*
Y14102D01*
X-179358D01*
Y14150D01*
X-179310D01*
Y14197D01*
X-179262D01*
Y14245D01*
X-179214D01*
Y14293D01*
X-179166D01*
Y14341D01*
X-179118D01*
Y14389D01*
X-179070D01*
Y14437D01*
X-179023D01*
Y14485D01*
X-178975D01*
Y14533D01*
X-178927D01*
Y14581D01*
X-178879D01*
Y14628D01*
X-178831D01*
Y14677D01*
X-178735D01*
Y14724D01*
X-178687D01*
Y14772D01*
X-178639D01*
Y14820D01*
X-178591D01*
Y14868D01*
X-178543D01*
Y14916D01*
X-178448D01*
Y14964D01*
X-178400D01*
Y15012D01*
X-178352D01*
Y15060D01*
X-178256D01*
Y15108D01*
X-178208D01*
Y15155D01*
X-178160D01*
Y15203D01*
X-178064D01*
Y15251D01*
X-178017D01*
Y15299D01*
X-177921D01*
Y15347D01*
X-177873D01*
Y15395D01*
X-177825D01*
Y15443D01*
X-177729D01*
Y15491D01*
X-177633D01*
Y15539D01*
X-177586D01*
Y15587D01*
X-177490D01*
Y15634D01*
X-177442D01*
Y15682D01*
X-177346D01*
Y15730D01*
X-177250D01*
Y15778D01*
X-177155D01*
Y15826D01*
X-177059D01*
Y15874D01*
X-177011D01*
Y15922D01*
X-176915D01*
Y15970D01*
X-176819D01*
Y16018D01*
X-176723D01*
Y16065D01*
X-176628D01*
Y16113D01*
X-176532D01*
Y16161D01*
X-176436D01*
Y16209D01*
X-176340D01*
Y16257D01*
X-176244D01*
Y16305D01*
X-176149D01*
Y16353D01*
X-176005D01*
Y16401D01*
X-175957D01*
Y16449D01*
X-175813D01*
Y16497D01*
X-175718D01*
Y16545D01*
X-175622D01*
Y16592D01*
X-175478D01*
Y16640D01*
X-175382D01*
Y16688D01*
X-175238D01*
Y16736D01*
X-175095D01*
Y16784D01*
X-174999D01*
Y16832D01*
X-174807D01*
Y16880D01*
X-174664D01*
Y16928D01*
X-174520D01*
Y16976D01*
X-174328D01*
Y17024D01*
X-174185D01*
Y17071D01*
X-174041D01*
Y17119D01*
X-173802D01*
Y17167D01*
X-173658D01*
Y17215D01*
X-173466D01*
Y17263D01*
X-173275D01*
Y17311D01*
X-173131D01*
Y17359D01*
X-172892D01*
Y17407D01*
X-172700D01*
Y17455D01*
X-172556D01*
Y17502D01*
X-172317D01*
Y17550D01*
X-172173D01*
Y17598D01*
X-171981D01*
Y17646D01*
X-171838D01*
Y17694D01*
X-171694D01*
Y17742D01*
X-171502D01*
Y17790D01*
X-171359D01*
Y17838D01*
X-171215D01*
Y17886D01*
X-171071D01*
Y17933D01*
X-170976D01*
Y17981D01*
X-170784D01*
Y18029D01*
X-170688D01*
Y18077D01*
X-170592D01*
Y18125D01*
X-170449D01*
Y18173D01*
X-170353D01*
Y18221D01*
X-170257D01*
Y18269D01*
X-170113D01*
Y18317D01*
X-170065D01*
Y18365D01*
X-169922D01*
Y18412D01*
X-169826D01*
Y18460D01*
X-169778D01*
Y18508D01*
X-169682D01*
Y18556D01*
X-169587D01*
Y18604D01*
X-169539D01*
Y18652D01*
X-169443D01*
Y18700D01*
X-169395D01*
Y18748D01*
X-169299D01*
Y18796D01*
X-169251D01*
Y18844D01*
X-169155D01*
Y18892D01*
X-169107D01*
Y18939D01*
X-169060D01*
Y18987D01*
X-169012D01*
Y19035D01*
X-168916D01*
Y19083D01*
X-168868D01*
Y19131D01*
X-168820D01*
Y19179D01*
X-168772D01*
Y19227D01*
X-168724D01*
Y19275D01*
X-168676D01*
Y19323D01*
X-168629D01*
Y19370D01*
X-168581D01*
Y19418D01*
X-168533D01*
Y19466D01*
X-168485D01*
Y19610D01*
X-168437D01*
Y19706D01*
X-168389D01*
Y19802D01*
X-168197D01*
Y19754D01*
D02*
G37*
G36*
X-157899Y5515D02*
X-157851D01*
Y-3633D01*
X-157899D01*
Y-3777D01*
X-157947D01*
Y-4112D01*
X-157995D01*
Y-4208D01*
X-158043D01*
Y-4304D01*
X-157995D01*
Y-4352D01*
X-158043D01*
Y-4448D01*
X-158091D01*
Y-4687D01*
X-158187D01*
Y-4879D01*
X-158235D01*
Y-5070D01*
X-158330D01*
Y-5214D01*
X-158426D01*
Y-5262D01*
X-158378D01*
Y-5310D01*
X-158426D01*
Y-5357D01*
X-158474D01*
Y-5501D01*
X-158522D01*
Y-5549D01*
X-158570D01*
Y-5645D01*
X-158618D01*
Y-5741D01*
X-158714D01*
Y-5836D01*
X-158762D01*
Y-5932D01*
X-158809D01*
Y-5980D01*
X-158857D01*
Y-6028D01*
X-158905D01*
Y-6076D01*
X-158953D01*
Y-6124D01*
X-159001D01*
Y-6172D01*
X-159049D01*
Y-6220D01*
X-159097D01*
Y-6268D01*
X-159145D01*
Y-6316D01*
X-159192D01*
Y-6363D01*
X-159240D01*
Y-6411D01*
X-159288D01*
Y-6459D01*
X-159336D01*
Y-6507D01*
X-159384D01*
Y-6555D01*
X-159432D01*
Y-6603D01*
X-159480D01*
Y-6651D01*
X-159528D01*
Y-6699D01*
X-159624D01*
Y-6747D01*
X-159671D01*
Y-6794D01*
X-159719D01*
Y-6842D01*
X-159767D01*
Y-6890D01*
X-159863D01*
Y-6938D01*
X-159959D01*
Y-6986D01*
X-160007D01*
Y-7034D01*
X-160103D01*
Y-7082D01*
X-160198D01*
Y-7130D01*
X-160246D01*
Y-7178D01*
X-160390D01*
Y-7226D01*
X-160486D01*
Y-7273D01*
X-160534D01*
Y-7321D01*
X-160677D01*
Y-7369D01*
X-160725D01*
Y-7417D01*
X-160869D01*
Y-7465D01*
X-161061D01*
Y-7561D01*
X-161252D01*
Y-7609D01*
X-161444D01*
Y-7657D01*
X-161540D01*
Y-7705D01*
X-161779D01*
Y-7753D01*
X-161827D01*
Y-7800D01*
X-162114D01*
Y-7848D01*
X-162498D01*
Y-7896D01*
X-162545D01*
Y-7944D01*
X-163072D01*
Y-7992D01*
X-163312D01*
Y-8040D01*
X-163456D01*
Y-7992D01*
X-165036D01*
Y-8040D01*
X-165132D01*
Y-7992D01*
X-165419D01*
Y-7944D01*
X-165946D01*
Y-7896D01*
X-165994D01*
Y-7848D01*
X-166377D01*
Y-7800D01*
X-166665D01*
Y-7753D01*
X-166713D01*
Y-7705D01*
X-166952D01*
Y-7657D01*
X-167000D01*
Y-7609D01*
X-167096D01*
Y-7657D01*
X-167144D01*
Y-7609D01*
X-167239D01*
Y-7561D01*
X-167431D01*
Y-7465D01*
X-167623D01*
Y-7417D01*
X-167766D01*
Y-7369D01*
X-167814D01*
Y-7321D01*
X-167958D01*
Y-7273D01*
X-168054D01*
Y-7226D01*
X-168102D01*
Y-7178D01*
X-168245D01*
Y-7082D01*
X-168389D01*
Y-7034D01*
X-168485D01*
Y-6986D01*
X-168533D01*
Y-6938D01*
X-168629D01*
Y-6890D01*
X-168676D01*
Y-6842D01*
X-168724D01*
Y-6794D01*
X-168820D01*
Y-6747D01*
X-168868D01*
Y-6699D01*
X-168964D01*
Y-6651D01*
X-169012D01*
Y-6555D01*
X-169107D01*
Y-6459D01*
X-169203D01*
Y-6411D01*
X-169299D01*
Y-6363D01*
X-169251D01*
Y-6316D01*
X-169347D01*
Y-6268D01*
X-169395D01*
Y-6220D01*
X-169443D01*
Y-6172D01*
X-169491D01*
Y-6076D01*
X-169587D01*
Y-5980D01*
X-169682D01*
Y-5884D01*
X-169730D01*
Y-5836D01*
X-169778D01*
Y-5789D01*
X-169826D01*
Y-5693D01*
X-169874D01*
Y-5645D01*
X-169922D01*
Y-5549D01*
X-169970D01*
Y-5453D01*
X-170018D01*
Y-5405D01*
X-170065D01*
Y-5262D01*
X-170113D01*
Y-5118D01*
X-170209D01*
Y-4927D01*
X-170305D01*
Y-4735D01*
X-170353D01*
Y-4543D01*
X-170401D01*
Y-4495D01*
X-170449D01*
Y-4256D01*
X-170497D01*
Y-4160D01*
X-170544D01*
Y-4064D01*
X-170497D01*
Y-3968D01*
X-170544D01*
Y-3825D01*
X-170592D01*
Y-3298D01*
X-170640D01*
Y5515D01*
X-170544D01*
Y5611D01*
X-167144D01*
Y5563D01*
X-167096D01*
Y5515D01*
X-167048D01*
Y5611D01*
X-167000D01*
Y-3250D01*
X-166952D01*
Y-3346D01*
X-166904D01*
Y-3633D01*
X-166856D01*
Y-3729D01*
X-166808D01*
Y-3777D01*
X-166856D01*
Y-3825D01*
X-166808D01*
Y-3873D01*
X-166761D01*
Y-4064D01*
X-166665D01*
Y-4160D01*
X-166713D01*
Y-4208D01*
X-166617D01*
Y-4304D01*
X-166569D01*
Y-4352D01*
X-166521D01*
Y-4448D01*
X-166473D01*
Y-4495D01*
X-166425D01*
Y-4543D01*
X-166377D01*
Y-4639D01*
X-166329D01*
Y-4735D01*
X-166234D01*
Y-4783D01*
X-166186D01*
Y-4879D01*
X-166090D01*
Y-4927D01*
X-165994D01*
Y-4974D01*
X-165946D01*
Y-5022D01*
X-165898D01*
Y-5070D01*
X-165850D01*
Y-5118D01*
X-165755D01*
Y-5166D01*
X-165659D01*
Y-5214D01*
X-165611D01*
Y-5262D01*
X-165467D01*
Y-5310D01*
X-165324D01*
Y-5357D01*
X-165276D01*
Y-5405D01*
X-164988D01*
Y-5453D01*
X-164940D01*
Y-5501D01*
X-164797D01*
Y-5453D01*
X-164653D01*
Y-5501D01*
X-163839D01*
Y-5453D01*
X-163647D01*
Y-5501D01*
X-163551D01*
Y-5453D01*
X-163456D01*
Y-5405D01*
X-163216D01*
Y-5357D01*
X-163168D01*
Y-5310D01*
X-163024D01*
Y-5262D01*
X-162881D01*
Y-5214D01*
X-162833D01*
Y-5166D01*
X-162737D01*
Y-5118D01*
X-162593D01*
Y-5022D01*
X-162498D01*
Y-4974D01*
X-162450D01*
Y-4927D01*
X-162402D01*
Y-4879D01*
X-162306D01*
Y-4783D01*
X-162210D01*
Y-4687D01*
X-162162D01*
Y-4639D01*
X-162114D01*
Y-4543D01*
X-162019D01*
Y-4448D01*
X-161971D01*
Y-4400D01*
X-161923D01*
Y-4304D01*
X-161875D01*
Y-4208D01*
X-161827D01*
Y-4160D01*
X-161779D01*
Y-4016D01*
X-161731D01*
Y-3968D01*
X-161683D01*
Y-3921D01*
X-161731D01*
Y-3873D01*
X-161683D01*
Y-3825D01*
X-161635D01*
Y-3585D01*
X-161588D01*
Y-3537D01*
X-161540D01*
Y-3154D01*
X-161492D01*
Y5515D01*
X-161444D01*
Y5611D01*
X-157899D01*
Y5515D01*
D02*
G37*
G36*
X-172460Y3025D02*
X-176580D01*
Y2977D01*
X-176628D01*
Y-7800D01*
X-180364D01*
Y-2388D01*
Y-2340D01*
Y2977D01*
X-180412D01*
Y3025D01*
X-184531D01*
Y3073D01*
X-184579D01*
Y3168D01*
X-184531D01*
Y5515D01*
X-184579D01*
Y5563D01*
X-184531D01*
Y5659D01*
X-172460D01*
Y3025D01*
D02*
G37*
G36*
X-160936Y-10157D02*
X-160822D01*
Y-10186D01*
X-160679D01*
Y-10214D01*
X-160592D01*
Y-10243D01*
X-160564D01*
Y-11074D01*
X-160592D01*
Y-11103D01*
X-160908D01*
Y-11074D01*
X-161338D01*
Y-11103D01*
X-161538D01*
Y-11131D01*
X-161653D01*
Y-11160D01*
X-161710D01*
Y-11189D01*
X-161768D01*
Y-11217D01*
X-161825D01*
Y-11246D01*
X-161853D01*
Y-11275D01*
X-161882D01*
Y-11332D01*
X-161911D01*
Y-11360D01*
X-161939D01*
Y-11418D01*
X-161968D01*
Y-11504D01*
X-161997D01*
Y-11618D01*
X-162025D01*
Y-12707D01*
X-161997D01*
Y-12736D01*
X-160736D01*
Y-13481D01*
X-162025D01*
Y-18324D01*
X-163114D01*
Y-17894D01*
Y-17866D01*
Y-13481D01*
X-164175D01*
Y-12736D01*
X-163143D01*
Y-12707D01*
X-163114D01*
Y-11590D01*
X-163086D01*
Y-11360D01*
X-163057D01*
Y-11217D01*
X-163028D01*
Y-11103D01*
X-163000D01*
Y-11045D01*
X-162971D01*
Y-10959D01*
X-162942D01*
Y-10902D01*
X-162914D01*
Y-10873D01*
X-162885D01*
Y-10816D01*
X-162856D01*
Y-10759D01*
X-162828D01*
Y-10730D01*
X-162799D01*
Y-10673D01*
X-162771D01*
Y-10644D01*
X-162742D01*
Y-10615D01*
X-162713D01*
Y-10587D01*
X-162684D01*
Y-10558D01*
X-162656D01*
Y-10530D01*
X-162627D01*
Y-10501D01*
X-162570D01*
Y-10472D01*
X-162541D01*
Y-10444D01*
X-162513D01*
Y-10415D01*
X-162455D01*
Y-10386D01*
X-162427D01*
Y-10358D01*
X-162369D01*
Y-10329D01*
X-162312D01*
Y-10300D01*
X-162255D01*
Y-10272D01*
X-162169D01*
Y-10243D01*
X-162111D01*
Y-10214D01*
X-162025D01*
Y-10186D01*
X-161911D01*
Y-10157D01*
X-161796D01*
Y-10128D01*
X-160936D01*
Y-10157D01*
D02*
G37*
G36*
X-165350Y-18324D02*
X-166410D01*
Y-10730D01*
Y-10701D01*
Y-10272D01*
X-165350D01*
Y-18324D01*
D02*
G37*
G36*
X-177357Y-10300D02*
X-176956D01*
Y-10329D01*
X-176784D01*
Y-10358D01*
X-176583D01*
Y-10386D01*
X-176497D01*
Y-10415D01*
X-176383D01*
Y-10444D01*
X-176239D01*
Y-10472D01*
X-176182D01*
Y-10501D01*
X-176096D01*
Y-10530D01*
X-176010D01*
Y-10558D01*
X-175953D01*
Y-10587D01*
X-175867D01*
Y-10615D01*
X-175809D01*
Y-10644D01*
X-175752D01*
Y-10673D01*
X-175666D01*
Y-10701D01*
X-175638D01*
Y-10730D01*
X-175580D01*
Y-10759D01*
X-175523D01*
Y-10787D01*
X-175466D01*
Y-10816D01*
X-175408D01*
Y-10845D01*
X-175380D01*
Y-10873D01*
X-175351D01*
Y-10902D01*
X-175294D01*
Y-10931D01*
X-175265D01*
Y-10959D01*
X-175208D01*
Y-10988D01*
X-175179D01*
Y-11017D01*
X-175150D01*
Y-11045D01*
X-175122D01*
Y-11074D01*
X-175064D01*
Y-11103D01*
X-175036D01*
Y-11131D01*
X-175007D01*
Y-11160D01*
X-174978D01*
Y-11189D01*
X-174950D01*
Y-11217D01*
X-174921D01*
Y-11246D01*
X-174893D01*
Y-11275D01*
X-174864D01*
Y-11303D01*
X-174835D01*
Y-11332D01*
X-174806D01*
Y-11360D01*
X-174778D01*
Y-11389D01*
X-174749D01*
Y-11418D01*
X-174720D01*
Y-11475D01*
X-174692D01*
Y-11504D01*
X-174663D01*
Y-11532D01*
X-174635D01*
Y-11561D01*
X-174606D01*
Y-11590D01*
X-174577D01*
Y-11647D01*
X-174549D01*
Y-11676D01*
X-174520D01*
Y-11733D01*
X-174491D01*
Y-11762D01*
X-174463D01*
Y-11819D01*
X-174434D01*
Y-11876D01*
X-174405D01*
Y-11905D01*
X-174377D01*
Y-11962D01*
X-174348D01*
Y-12020D01*
X-174319D01*
Y-12077D01*
X-174291D01*
Y-12134D01*
X-174262D01*
Y-12192D01*
X-174233D01*
Y-12220D01*
X-174205D01*
Y-12306D01*
X-174176D01*
Y-12392D01*
X-174147D01*
Y-12450D01*
X-174119D01*
Y-12536D01*
X-174090D01*
Y-12593D01*
X-174061D01*
Y-12679D01*
X-174033D01*
Y-12707D01*
Y-12736D01*
Y-12793D01*
X-174004D01*
Y-12879D01*
X-173975D01*
Y-12994D01*
X-173947D01*
Y-13109D01*
X-173918D01*
Y-13223D01*
X-173890D01*
Y-13395D01*
X-173861D01*
Y-13567D01*
X-173832D01*
Y-13825D01*
X-173804D01*
Y-13854D01*
X-173832D01*
Y-13911D01*
X-173804D01*
Y-14685D01*
X-173832D01*
Y-14742D01*
X-173804D01*
Y-14799D01*
X-173832D01*
Y-15029D01*
X-173861D01*
Y-15201D01*
X-173890D01*
Y-15401D01*
X-173918D01*
Y-15487D01*
X-173947D01*
Y-15630D01*
X-173975D01*
Y-15745D01*
X-174004D01*
Y-15831D01*
X-174033D01*
Y-15917D01*
X-174061D01*
Y-16003D01*
X-174090D01*
Y-16089D01*
X-174119D01*
Y-16175D01*
X-174147D01*
Y-16232D01*
X-174176D01*
Y-16290D01*
X-174205D01*
Y-16376D01*
X-174233D01*
Y-16433D01*
X-174262D01*
Y-16490D01*
X-174291D01*
Y-16547D01*
X-174319D01*
Y-16605D01*
X-174348D01*
Y-16662D01*
X-174377D01*
Y-16691D01*
X-174405D01*
Y-16748D01*
X-174434D01*
Y-16805D01*
X-174463D01*
Y-16834D01*
X-174491D01*
Y-16891D01*
X-174520D01*
Y-16920D01*
X-174549D01*
Y-16977D01*
X-174577D01*
Y-17006D01*
X-174606D01*
Y-17035D01*
X-174635D01*
Y-17092D01*
X-174663D01*
Y-17121D01*
X-174692D01*
Y-17149D01*
X-174720D01*
Y-17178D01*
X-174749D01*
Y-17207D01*
X-174778D01*
Y-17235D01*
X-174806D01*
Y-17293D01*
X-174835D01*
Y-17321D01*
X-174864D01*
Y-17350D01*
X-174893D01*
Y-17379D01*
X-174921D01*
Y-17407D01*
X-174950D01*
Y-17436D01*
X-174978D01*
Y-17464D01*
X-175036D01*
Y-17493D01*
X-175064D01*
Y-17522D01*
X-175093D01*
Y-17550D01*
X-175122D01*
Y-17579D01*
X-175150D01*
Y-17608D01*
X-175208D01*
Y-17636D01*
X-175236D01*
Y-17665D01*
X-175265D01*
Y-17694D01*
X-175322D01*
Y-17722D01*
X-175351D01*
Y-17751D01*
X-175408D01*
Y-17780D01*
X-175466D01*
Y-17808D01*
X-175494D01*
Y-17837D01*
X-175552D01*
Y-17866D01*
X-175609D01*
Y-17894D01*
X-175638D01*
Y-17923D01*
X-175695D01*
Y-17952D01*
X-175752D01*
Y-17980D01*
X-175838D01*
Y-18009D01*
X-175896D01*
Y-18038D01*
X-175953D01*
Y-18066D01*
X-176039D01*
Y-18095D01*
X-176125D01*
Y-18124D01*
X-176211D01*
Y-18152D01*
X-176297D01*
Y-18181D01*
X-176411D01*
Y-18210D01*
X-176526D01*
Y-18238D01*
X-176698D01*
Y-18267D01*
X-176812D01*
Y-18296D01*
X-177128D01*
Y-18324D01*
X-180395D01*
Y-10272D01*
X-177357D01*
Y-10300D01*
D02*
G37*
G36*
X-157500Y-11275D02*
Y-11303D01*
Y-12707D01*
X-157471D01*
Y-12736D01*
X-156182D01*
Y-13453D01*
X-156210D01*
Y-13481D01*
X-157500D01*
Y-17178D01*
X-157471D01*
Y-17321D01*
X-157443D01*
Y-17379D01*
X-157414D01*
Y-17407D01*
X-157385D01*
Y-17464D01*
X-157357D01*
Y-17493D01*
X-157328D01*
Y-17522D01*
X-157271D01*
Y-17550D01*
X-157242D01*
Y-17579D01*
X-157185D01*
Y-17608D01*
X-157127D01*
Y-17636D01*
X-157013D01*
Y-17665D01*
X-156841D01*
Y-17694D01*
X-156755D01*
Y-17665D01*
X-156468D01*
Y-17636D01*
X-156325D01*
Y-17608D01*
X-156239D01*
Y-18439D01*
X-156354D01*
Y-18468D01*
X-156583D01*
Y-18496D01*
X-157385D01*
Y-18468D01*
X-157615D01*
Y-18439D01*
X-157729D01*
Y-18410D01*
X-157844D01*
Y-18382D01*
X-157930D01*
Y-18353D01*
X-157987D01*
Y-18324D01*
X-158045D01*
Y-18296D01*
X-158102D01*
Y-18267D01*
X-158159D01*
Y-18238D01*
X-158188D01*
Y-18210D01*
X-158245D01*
Y-18181D01*
X-158274D01*
Y-18152D01*
X-158302D01*
Y-18124D01*
X-158331D01*
Y-18066D01*
X-158360D01*
Y-18038D01*
X-158388D01*
Y-17980D01*
X-158417D01*
Y-17952D01*
X-158446D01*
Y-17894D01*
X-158474D01*
Y-17808D01*
X-158503D01*
Y-17722D01*
X-158532D01*
Y-17550D01*
X-158560D01*
Y-13510D01*
X-158589D01*
Y-13481D01*
X-159535D01*
Y-12736D01*
X-158589D01*
Y-12707D01*
X-158560D01*
Y-11532D01*
X-158503D01*
Y-11504D01*
X-158417D01*
Y-11475D01*
X-158331D01*
Y-11446D01*
X-158245D01*
Y-11418D01*
X-158130D01*
Y-11389D01*
X-158045D01*
Y-11360D01*
X-157958D01*
Y-11332D01*
X-157872D01*
Y-11303D01*
X-157787D01*
Y-11275D01*
X-157672D01*
Y-11246D01*
X-157586D01*
Y-11217D01*
X-157500D01*
Y-11275D01*
D02*
G37*
G36*
X-169820Y-12593D02*
X-169620D01*
Y-12622D01*
X-169505D01*
Y-12650D01*
X-169362D01*
Y-12679D01*
X-169276D01*
Y-12707D01*
X-169218D01*
Y-12736D01*
X-169104D01*
Y-12765D01*
X-169075D01*
Y-12793D01*
X-168989D01*
Y-12822D01*
X-168932D01*
Y-12851D01*
X-168874D01*
Y-12879D01*
X-168817D01*
Y-12908D01*
X-168789D01*
Y-12937D01*
X-168731D01*
Y-12965D01*
X-168703D01*
Y-12994D01*
X-168674D01*
Y-13023D01*
X-168617D01*
Y-13051D01*
X-168588D01*
Y-13080D01*
X-168559D01*
Y-13109D01*
X-168531D01*
Y-13137D01*
X-168502D01*
Y-13166D01*
X-168445D01*
Y-13195D01*
X-168416D01*
Y-13223D01*
X-168387D01*
Y-13281D01*
X-168359D01*
Y-13309D01*
X-168330D01*
Y-13338D01*
X-168301D01*
Y-13367D01*
X-168273D01*
Y-13395D01*
X-168244D01*
Y-13424D01*
X-168215D01*
Y-13481D01*
X-168187D01*
Y-13510D01*
X-168158D01*
Y-13567D01*
X-168129D01*
Y-13596D01*
X-168101D01*
Y-13653D01*
X-168072D01*
Y-13710D01*
X-168043D01*
Y-13739D01*
X-168015D01*
Y-13796D01*
X-167986D01*
Y-13854D01*
X-167957D01*
Y-13911D01*
X-167929D01*
Y-13997D01*
X-167900D01*
Y-14054D01*
X-167871D01*
Y-14140D01*
X-167843D01*
Y-14255D01*
X-167814D01*
Y-14341D01*
X-167785D01*
Y-14484D01*
X-167757D01*
Y-14627D01*
X-167728D01*
Y-14828D01*
X-167700D01*
Y-15716D01*
X-167728D01*
Y-15745D01*
X-171683D01*
Y-16204D01*
X-171654D01*
Y-16376D01*
X-171625D01*
Y-16490D01*
X-171597D01*
Y-16633D01*
X-171568D01*
Y-16719D01*
X-171540D01*
Y-16805D01*
X-171511D01*
Y-16891D01*
X-171482D01*
Y-16920D01*
X-171454D01*
Y-17006D01*
X-171425D01*
Y-17063D01*
X-171396D01*
Y-17092D01*
X-171368D01*
Y-17149D01*
X-171339D01*
Y-17178D01*
X-171310D01*
Y-17235D01*
X-171282D01*
Y-17264D01*
X-171253D01*
Y-17293D01*
X-171224D01*
Y-17321D01*
X-171196D01*
Y-17379D01*
X-171138D01*
Y-17407D01*
X-171110D01*
Y-17436D01*
X-171081D01*
Y-17464D01*
X-171052D01*
Y-17493D01*
X-170995D01*
Y-17522D01*
X-170966D01*
Y-17550D01*
X-170909D01*
Y-17579D01*
X-170852D01*
Y-17608D01*
X-170795D01*
Y-17636D01*
X-170709D01*
Y-17665D01*
X-170623D01*
Y-17694D01*
X-170422D01*
Y-17722D01*
X-170049D01*
Y-17694D01*
X-169792D01*
Y-17665D01*
X-169706D01*
Y-17636D01*
X-169620D01*
Y-17608D01*
X-169534D01*
Y-17579D01*
X-169476D01*
Y-17550D01*
X-169419D01*
Y-17522D01*
X-169390D01*
Y-17493D01*
X-169362D01*
Y-17464D01*
X-169304D01*
Y-17436D01*
X-169276D01*
Y-17407D01*
X-169247D01*
Y-17379D01*
X-169218D01*
Y-17350D01*
X-169190D01*
Y-17321D01*
X-169161D01*
Y-17264D01*
X-169132D01*
Y-17235D01*
X-169104D01*
Y-17178D01*
X-169075D01*
Y-17121D01*
X-169046D01*
Y-17063D01*
X-169018D01*
Y-17006D01*
X-168989D01*
Y-16920D01*
X-168960D01*
Y-16834D01*
X-168932D01*
Y-16691D01*
X-168903D01*
Y-16605D01*
X-168874D01*
Y-16576D01*
X-167785D01*
Y-16605D01*
X-167757D01*
Y-16633D01*
X-167785D01*
Y-16805D01*
X-167814D01*
Y-16891D01*
X-167843D01*
Y-17006D01*
X-167871D01*
Y-17092D01*
X-167900D01*
Y-17178D01*
X-167929D01*
Y-17235D01*
X-167957D01*
Y-17293D01*
X-167986D01*
Y-17350D01*
X-168015D01*
Y-17407D01*
X-168043D01*
Y-17464D01*
X-168072D01*
Y-17493D01*
X-168101D01*
Y-17550D01*
X-168129D01*
Y-17579D01*
X-168158D01*
Y-17636D01*
X-168187D01*
Y-17665D01*
X-168215D01*
Y-17694D01*
X-168244D01*
Y-17751D01*
X-168301D01*
Y-17780D01*
X-168330D01*
Y-17837D01*
X-168387D01*
Y-17894D01*
X-168416D01*
Y-17923D01*
X-168473D01*
Y-17952D01*
X-168502D01*
Y-17980D01*
X-168531D01*
Y-18009D01*
X-168588D01*
Y-18038D01*
X-168617D01*
Y-18066D01*
X-168645D01*
Y-18095D01*
X-168703D01*
Y-18124D01*
X-168731D01*
Y-18152D01*
X-168789D01*
Y-18181D01*
X-168846D01*
Y-18210D01*
X-168903D01*
Y-18238D01*
X-168960D01*
Y-18267D01*
X-169018D01*
Y-18296D01*
X-169104D01*
Y-18324D01*
X-169190D01*
Y-18353D01*
X-169276D01*
Y-18382D01*
X-169390D01*
Y-18410D01*
X-169505D01*
Y-18439D01*
X-169648D01*
Y-18468D01*
X-169877D01*
Y-18496D01*
X-170651D01*
Y-18468D01*
X-170852D01*
Y-18439D01*
X-170995D01*
Y-18410D01*
X-171081D01*
Y-18382D01*
X-171196D01*
Y-18353D01*
X-171282D01*
Y-18324D01*
X-171339D01*
Y-18296D01*
X-171425D01*
Y-18267D01*
X-171482D01*
Y-18238D01*
X-171540D01*
Y-18210D01*
X-171597D01*
Y-18181D01*
X-171625D01*
Y-18152D01*
X-171683D01*
Y-18124D01*
X-171712D01*
Y-18095D01*
X-171769D01*
Y-18066D01*
X-171826D01*
Y-18038D01*
X-171855D01*
Y-18009D01*
X-171884D01*
Y-17980D01*
X-171912D01*
Y-17952D01*
X-171941D01*
Y-17923D01*
X-171969D01*
Y-17894D01*
X-171998D01*
Y-17866D01*
X-172027D01*
Y-17837D01*
X-172055D01*
Y-17808D01*
X-172084D01*
Y-17780D01*
X-172113D01*
Y-17751D01*
X-172141D01*
Y-17722D01*
X-172170D01*
Y-17694D01*
X-172199D01*
Y-17636D01*
X-172227D01*
Y-17608D01*
X-172256D01*
Y-17579D01*
X-172285D01*
Y-17522D01*
X-172313D01*
Y-17493D01*
X-172342D01*
Y-17436D01*
X-172371D01*
Y-17379D01*
X-172399D01*
Y-17350D01*
X-172428D01*
Y-17264D01*
X-172457D01*
Y-17207D01*
X-172485D01*
Y-17178D01*
X-172514D01*
Y-17092D01*
X-172543D01*
Y-17006D01*
X-172571D01*
Y-16949D01*
X-172600D01*
Y-16834D01*
X-172629D01*
Y-16748D01*
X-172657D01*
Y-16633D01*
X-172686D01*
Y-16490D01*
X-172715D01*
Y-16376D01*
X-172743D01*
Y-16089D01*
X-172772D01*
Y-15086D01*
X-172743D01*
Y-14828D01*
X-172715D01*
Y-14685D01*
X-172686D01*
Y-14570D01*
X-172657D01*
Y-14427D01*
X-172629D01*
Y-14369D01*
X-172600D01*
Y-14255D01*
X-172571D01*
Y-14169D01*
X-172543D01*
Y-14112D01*
X-172514D01*
Y-14026D01*
X-172485D01*
Y-13997D01*
X-172457D01*
Y-13911D01*
X-172428D01*
Y-13854D01*
X-172399D01*
Y-13825D01*
X-172371D01*
Y-13739D01*
X-172342D01*
Y-13710D01*
X-172313D01*
Y-13653D01*
X-172285D01*
Y-13625D01*
X-172256D01*
Y-13567D01*
X-172227D01*
Y-13539D01*
X-172199D01*
Y-13481D01*
X-172170D01*
Y-13453D01*
X-172141D01*
Y-13424D01*
X-172113D01*
Y-13395D01*
X-172084D01*
Y-13367D01*
X-172055D01*
Y-13309D01*
X-172027D01*
Y-13281D01*
X-171998D01*
Y-13252D01*
X-171969D01*
Y-13223D01*
X-171941D01*
Y-13195D01*
X-171912D01*
Y-13166D01*
X-171884D01*
Y-13137D01*
X-171826D01*
Y-13109D01*
X-171798D01*
Y-13080D01*
X-171769D01*
Y-13051D01*
X-171740D01*
Y-13023D01*
X-171683D01*
Y-12994D01*
X-171654D01*
Y-12965D01*
X-171597D01*
Y-12937D01*
X-171568D01*
Y-12908D01*
X-171511D01*
Y-12879D01*
X-171454D01*
Y-12851D01*
X-171425D01*
Y-12822D01*
X-171368D01*
Y-12793D01*
X-171282D01*
Y-12765D01*
X-171224D01*
Y-12736D01*
X-171138D01*
Y-12707D01*
X-171052D01*
Y-12679D01*
X-170995D01*
Y-12650D01*
X-170852D01*
Y-12622D01*
X-170737D01*
Y-12593D01*
X-170537D01*
Y-12564D01*
X-169820D01*
Y-12593D01*
D02*
G37*
%LPC*%
G36*
X-177414Y-11246D02*
X-179248D01*
Y-11275D01*
X-179277D01*
Y-17321D01*
X-179248D01*
Y-17379D01*
X-177443D01*
Y-17350D01*
X-177214D01*
Y-17321D01*
X-177013D01*
Y-17293D01*
X-176870D01*
Y-17264D01*
X-176784D01*
Y-17235D01*
X-176669D01*
Y-17207D01*
X-176612D01*
Y-17178D01*
X-176526D01*
Y-17149D01*
X-176440D01*
Y-17121D01*
X-176411D01*
Y-17092D01*
X-176325D01*
Y-17063D01*
X-176297D01*
Y-17035D01*
X-176239D01*
Y-17006D01*
X-176182D01*
Y-16977D01*
X-176153D01*
Y-16949D01*
X-176096D01*
Y-16920D01*
X-176067D01*
Y-16891D01*
X-176039D01*
Y-16863D01*
X-175981D01*
Y-16834D01*
X-175953D01*
Y-16805D01*
X-175924D01*
Y-16777D01*
X-175896D01*
Y-16748D01*
X-175867D01*
Y-16719D01*
X-175838D01*
Y-16691D01*
X-175809D01*
Y-16662D01*
X-175781D01*
Y-16633D01*
X-175752D01*
Y-16605D01*
X-175723D01*
Y-16576D01*
X-175695D01*
Y-16547D01*
X-175666D01*
Y-16519D01*
X-175638D01*
Y-16461D01*
X-175609D01*
Y-16433D01*
X-175580D01*
Y-16404D01*
X-175552D01*
Y-16347D01*
X-175523D01*
Y-16318D01*
X-175494D01*
Y-16261D01*
X-175466D01*
Y-16232D01*
X-175437D01*
Y-16175D01*
X-175408D01*
Y-16118D01*
X-175380D01*
Y-16089D01*
X-175351D01*
Y-16003D01*
X-175322D01*
Y-15946D01*
X-175294D01*
Y-15888D01*
X-175265D01*
Y-15802D01*
X-175236D01*
Y-15745D01*
X-175208D01*
Y-15659D01*
X-175179D01*
Y-15573D01*
X-175150D01*
Y-15487D01*
X-175122D01*
Y-15373D01*
X-175093D01*
Y-15229D01*
X-175064D01*
Y-15086D01*
X-175036D01*
Y-14857D01*
X-175007D01*
Y-14398D01*
X-174978D01*
Y-14198D01*
X-175007D01*
Y-13768D01*
X-175036D01*
Y-13510D01*
X-175064D01*
Y-13395D01*
X-175093D01*
Y-13252D01*
X-175122D01*
Y-13137D01*
X-175150D01*
Y-13051D01*
X-175179D01*
Y-12937D01*
X-175208D01*
Y-12879D01*
X-175236D01*
Y-12793D01*
X-175265D01*
Y-12707D01*
X-175294D01*
Y-12679D01*
X-175322D01*
Y-12593D01*
X-175351D01*
Y-12536D01*
X-175380D01*
Y-12507D01*
X-175408D01*
Y-12421D01*
X-175437D01*
Y-12392D01*
X-175466D01*
Y-12335D01*
X-175494D01*
Y-12278D01*
X-175523D01*
Y-12249D01*
X-175552D01*
Y-12220D01*
X-175580D01*
Y-12163D01*
X-175609D01*
Y-12134D01*
X-175638D01*
Y-12106D01*
X-175666D01*
Y-12077D01*
X-175695D01*
Y-12020D01*
X-175723D01*
Y-11991D01*
X-175752D01*
Y-11962D01*
X-175781D01*
Y-11934D01*
X-175809D01*
Y-11905D01*
X-175838D01*
Y-11876D01*
X-175867D01*
Y-11848D01*
X-175896D01*
Y-11819D01*
X-175953D01*
Y-11790D01*
X-175981D01*
Y-11762D01*
X-176010D01*
Y-11733D01*
X-176039D01*
Y-11704D01*
X-176096D01*
Y-11676D01*
X-176125D01*
Y-11647D01*
X-176182D01*
Y-11618D01*
X-176211D01*
Y-11590D01*
X-176268D01*
Y-11561D01*
X-176325D01*
Y-11532D01*
X-176383D01*
Y-11504D01*
X-176440D01*
Y-11475D01*
X-176497D01*
Y-11446D01*
X-176555D01*
Y-11418D01*
X-176641D01*
Y-11389D01*
X-176726D01*
Y-11360D01*
X-176841D01*
Y-11332D01*
X-176956D01*
Y-11303D01*
X-177070D01*
Y-11275D01*
X-177414D01*
Y-11246D01*
D02*
G37*
G36*
X-170021Y-13338D02*
X-170451D01*
Y-13367D01*
X-170565D01*
Y-13395D01*
X-170680D01*
Y-13424D01*
X-170766D01*
Y-13453D01*
X-170823D01*
Y-13481D01*
X-170881D01*
Y-13510D01*
X-170938D01*
Y-13539D01*
X-170966D01*
Y-13567D01*
X-171024D01*
Y-13596D01*
X-171052D01*
Y-13625D01*
X-171081D01*
Y-13653D01*
X-171110D01*
Y-13682D01*
X-171138D01*
Y-13710D01*
X-171167D01*
Y-13739D01*
X-171196D01*
Y-13768D01*
X-171224D01*
Y-13796D01*
X-171253D01*
Y-13825D01*
X-171282D01*
Y-13854D01*
X-171310D01*
Y-13882D01*
X-171339D01*
Y-13940D01*
X-171368D01*
Y-13968D01*
X-171396D01*
Y-14026D01*
X-171425D01*
Y-14083D01*
X-171454D01*
Y-14140D01*
X-171482D01*
Y-14198D01*
X-171511D01*
Y-14255D01*
X-171540D01*
Y-14341D01*
X-171568D01*
Y-14398D01*
X-171597D01*
Y-14541D01*
X-171625D01*
Y-14656D01*
X-171654D01*
Y-14885D01*
X-171683D01*
Y-14971D01*
X-171654D01*
Y-15000D01*
X-168846D01*
Y-14971D01*
X-168817D01*
Y-14943D01*
X-168846D01*
Y-14570D01*
X-168874D01*
Y-14427D01*
X-168903D01*
Y-14312D01*
X-168932D01*
Y-14226D01*
X-168960D01*
Y-14140D01*
X-168989D01*
Y-14083D01*
X-169018D01*
Y-13997D01*
X-169046D01*
Y-13968D01*
X-169075D01*
Y-13911D01*
X-169104D01*
Y-13882D01*
X-169132D01*
Y-13825D01*
X-169161D01*
Y-13796D01*
X-169190D01*
Y-13768D01*
X-169218D01*
Y-13710D01*
X-169276D01*
Y-13682D01*
X-169304D01*
Y-13653D01*
X-169333D01*
Y-13625D01*
X-169362D01*
Y-13596D01*
X-169390D01*
Y-13567D01*
X-169448D01*
Y-13539D01*
X-169476D01*
Y-13510D01*
X-169534D01*
Y-13481D01*
X-169620D01*
Y-13453D01*
X-169677D01*
Y-13424D01*
X-169763D01*
Y-13395D01*
X-169877D01*
Y-13367D01*
X-170021D01*
Y-13338D01*
D02*
G37*
%LPD*%
D20*
X-59500Y-2500D02*
D03*
Y2500D02*
D03*
X-75500Y-2500D02*
D03*
Y2500D02*
D03*
D21*
X-65000Y8000D02*
D03*
X-60000D02*
D03*
X-70000D02*
D03*
Y-8000D02*
D03*
X-60000D02*
D03*
X-65000D02*
D03*
X-75000D02*
D03*
Y8000D02*
D03*
D23*
X-103000Y-17000D02*
D03*
X-117000D02*
D03*
D25*
X-42800Y-6250D02*
G03*
X-42800Y-6250I-1450J0D01*
G01*
X-38800D02*
G03*
X-38800Y-6250I-1450J0D01*
G01*
X-42800Y5750D02*
G03*
X-42800Y5750I-1450J0D01*
G01*
Y-2250D02*
G03*
X-42800Y-2250I-1450J0D01*
G01*
Y1750D02*
G03*
X-42800Y1750I-1450J0D01*
G01*
X-38800Y9750D02*
G03*
X-38800Y9750I-1450J0D01*
G01*
X-42800D02*
G03*
X-42800Y9750I-1450J0D01*
G01*
X-38800Y5750D02*
G03*
X-38800Y5750I-1450J0D01*
G01*
Y-2250D02*
G03*
X-38800Y-2250I-1450J0D01*
G01*
Y1750D02*
G03*
X-38800Y1750I-1450J0D01*
G01*
X-34800Y-6250D02*
G03*
X-34800Y-6250I-1450J0D01*
G01*
X-30800D02*
G03*
X-30800Y-6250I-1450J0D01*
G01*
X-34800Y-2250D02*
G03*
X-34800Y-2250I-1450J0D01*
G01*
X-30800D02*
G03*
X-30800Y-2250I-1450J0D01*
G01*
X-26800Y-6250D02*
G03*
X-26800Y-6250I-1450J0D01*
G01*
Y-2250D02*
G03*
X-26800Y-2250I-1450J0D01*
G01*
X-34800Y5750D02*
G03*
X-34800Y5750I-1450J0D01*
G01*
Y1750D02*
G03*
X-34800Y1750I-1450J0D01*
G01*
X-30800Y5750D02*
G03*
X-30800Y5750I-1450J0D01*
G01*
Y9750D02*
G03*
X-30800Y9750I-1450J0D01*
G01*
X-34800D02*
G03*
X-34800Y9750I-1450J0D01*
G01*
X-30800Y1750D02*
G03*
X-30800Y1750I-1450J0D01*
G01*
X-26800D02*
G03*
X-26800Y1750I-1450J0D01*
G01*
Y5750D02*
G03*
X-26800Y5750I-1450J0D01*
G01*
Y9750D02*
G03*
X-26800Y9750I-1450J0D01*
G01*
D26*
X-212875Y124D02*
D03*
D27*
X-44250Y9750D02*
D03*
X-36250Y-6250D02*
D03*
Y-2250D02*
D03*
X-44250D02*
D03*
Y-6250D02*
D03*
X-40250D02*
D03*
Y-2250D02*
D03*
X-44250Y1750D02*
D03*
Y5750D02*
D03*
X-40250Y1750D02*
D03*
Y5750D02*
D03*
Y9750D02*
D03*
X-32250Y-6250D02*
D03*
Y-2250D02*
D03*
X-28250Y-6250D02*
D03*
Y-2250D02*
D03*
Y1750D02*
D03*
X-36250D02*
D03*
Y5750D02*
D03*
Y9750D02*
D03*
X-32250Y1750D02*
D03*
Y5750D02*
D03*
Y9750D02*
D03*
X-28250Y5750D02*
D03*
Y9750D02*
D03*
D28*
X-212750Y22500D02*
D03*
Y17500D02*
D03*
Y12500D02*
D03*
Y7500D02*
D03*
Y2500D02*
D03*
Y-22500D02*
D03*
Y-17500D02*
D03*
Y-12500D02*
D03*
Y-7500D02*
D03*
Y-2500D02*
D03*
Y-27500D02*
D03*
Y27500D02*
D03*
D29*
X-145000Y20500D02*
D03*
Y12500D02*
D03*
D30*
X-133750Y16750D02*
D03*
Y11750D02*
D03*
Y6750D02*
D03*
Y1750D02*
D03*
Y-3250D02*
D03*
X-105250Y16750D02*
D03*
Y11750D02*
D03*
Y6750D02*
D03*
Y1750D02*
D03*
Y-3250D02*
D03*
D31*
X-119500Y6750D02*
D03*
D32*
X-26623Y19750D02*
D03*
X-145750Y13000D02*
D03*
X-145500Y20500D02*
D03*
X-43482Y19750D02*
D03*
X-49226D02*
D03*
X-21250D02*
D03*
X-37738D02*
D03*
X-32250D02*
D03*
X-18000Y-8250D02*
D03*
Y13000D02*
D03*
Y5611D02*
D03*
D33*
X-84500Y300D02*
D03*
Y-8300D02*
D03*
X-94250D02*
D03*
Y300D02*
D03*
X-145250Y3550D02*
D03*
Y-5050D02*
D03*
D34*
X-94500Y10000D02*
D03*
Y18500D02*
D03*
D35*
X-84250Y17250D02*
D03*
X-75750D02*
D03*
X-65250D02*
D03*
X-56750D02*
D03*
D36*
X-143750Y-17000D02*
D03*
X-129250D02*
D03*
D37*
X-65450Y-17750D02*
D03*
X-74050D02*
D03*
X-84450D02*
D03*
X-93050D02*
D03*
X-26200Y-17500D02*
D03*
X-34800D02*
D03*
X-54800Y-17750D02*
D03*
X-46200D02*
D03*
M02*
