M48
;Layer_Color=9474304
;FILE_FORMAT=4:4
METRIC,LZ
;TYPE=PLATED
T1F00S00C0.1500
%
T01
X-0018775Y-000275
Y-000225
Y-000175
Y-000125
Y-000075
Y-000025
Y000025
Y000075
Y000125
Y000175
Y000225
Y000275
X-00125Y00017
X-001135
X-0011325Y00003
X-001135Y-0000375
X-00125
X-001255Y0000275
X-0012925Y-00017
X-0014375Y-00017
X-0011Y-00017
X-0010325Y-00009
X-0007925Y-000185
X-0007Y-0000375
Y000035
X-00065Y000125
X-00055483Y00011793
X-00049118Y00008772
X-00045364Y0001421
X-00040798Y0001425
X-0003625Y000145
X-000315Y00014438
X-0002475Y0001425
X-0002125Y0001975
X-00023194Y0000575
X-00019379Y-00000991
X-00025Y-0001125
X-00037548Y-00011548
X-00043562Y-0001175
X-00055Y-0001275
X-00051986Y-00005546
X-00047655Y-00002326
X-0005225Y0000225
X-00081Y000125
X-00089921Y00013196
X-0001922Y-00020288
X0000175Y-000055
M30
