G04*
G04 #@! TF.GenerationSoftware,Altium Limited,Altium Designer,22.8.2 (66)*
G04*
G04 Layer_Physical_Order=2*
G04 Layer_Color=16711680*
%FSLAX44Y44*%
%MOMM*%
G71*
G04*
G04 #@! TF.SameCoordinates,AC85451F-D696-4C02-AFCB-F2BF1FB96518*
G04*
G04*
G04 #@! TF.FilePolarity,Positive*
G04*
G01*
G75*
%ADD10C,0.1000*%
%ADD11C,0.2000*%
%ADD32C,0.3500*%
%ADD43C,0.5000*%
G36*
X-185578Y18965D02*
X-185692Y18846D01*
X-185877Y18625D01*
X-185948Y18522D01*
X-186005Y18424D01*
X-186048Y18331D01*
X-186077Y18244D01*
X-186091Y18161D01*
X-186091Y18084D01*
X-186077Y18012D01*
X-187238Y19173D01*
X-187166Y19159D01*
X-187089Y19159D01*
X-187006Y19174D01*
X-186919Y19202D01*
X-186826Y19245D01*
X-186728Y19302D01*
X-186625Y19373D01*
X-186517Y19458D01*
X-186404Y19558D01*
X-186285Y19672D01*
X-185578Y18965D01*
D02*
G37*
G36*
X-185584Y13959D02*
X-185697Y13842D01*
X-185881Y13622D01*
X-185951Y13521D01*
X-186008Y13424D01*
X-186050Y13333D01*
X-186079Y13247D01*
X-186093Y13166D01*
X-186093Y13090D01*
X-186079Y13020D01*
X-187230Y14171D01*
X-187160Y14157D01*
X-187084Y14157D01*
X-187003Y14171D01*
X-186917Y14200D01*
X-186826Y14242D01*
X-186729Y14299D01*
X-186628Y14369D01*
X-186521Y14454D01*
X-186291Y14666D01*
X-185584Y13959D01*
D02*
G37*
G36*
X-90071Y11453D02*
X-90161Y11453D01*
X-90282Y11442D01*
X-90435Y11420D01*
X-91082Y11283D01*
X-92385Y10938D01*
X-93113Y11800D01*
X-92941Y11845D01*
X-92772Y11925D01*
X-92608Y12038D01*
X-92447Y12186D01*
X-92290Y12369D01*
X-92137Y12585D01*
X-91989Y12836D01*
X-91844Y13121D01*
X-91703Y13441D01*
X-91566Y13795D01*
X-90071Y11453D01*
D02*
G37*
G36*
X-79701Y13718D02*
X-79469Y13568D01*
X-79236Y13434D01*
X-79002Y13319D01*
X-78767Y13222D01*
X-78530Y13142D01*
X-78292Y13080D01*
X-78054Y13036D01*
X-77814Y13009D01*
X-77573Y13000D01*
Y12000D01*
X-77814Y11991D01*
X-78054Y11964D01*
X-78292Y11920D01*
X-78530Y11858D01*
X-78767Y11778D01*
X-79002Y11681D01*
X-79236Y11566D01*
X-79469Y11432D01*
X-79702Y11282D01*
X-79932Y11113D01*
Y13887D01*
X-79701Y13718D01*
D02*
G37*
G36*
X-185237Y9305D02*
X-185371Y9161D01*
X-185492Y9006D01*
X-185600Y8841D01*
X-185695Y8666D01*
X-185778Y8480D01*
X-185849Y8285D01*
X-185906Y8080D01*
X-185951Y7865D01*
X-185983Y7639D01*
X-186003Y7404D01*
X-187846Y9247D01*
X-187610Y9267D01*
X-187385Y9299D01*
X-187170Y9344D01*
X-186965Y9401D01*
X-186770Y9472D01*
X-186584Y9554D01*
X-186409Y9650D01*
X-186244Y9758D01*
X-186089Y9879D01*
X-185944Y10013D01*
X-185237Y9305D01*
D02*
G37*
G36*
X-184973Y4570D02*
X-185137Y4393D01*
X-185288Y4205D01*
X-185425Y4004D01*
X-185550Y3793D01*
X-185660Y3569D01*
X-185758Y3334D01*
X-185842Y3086D01*
X-185913Y2827D01*
X-185970Y2557D01*
X-186015Y2274D01*
X-187976Y4235D01*
X-187693Y4279D01*
X-187423Y4337D01*
X-187164Y4408D01*
X-186917Y4492D01*
X-186681Y4590D01*
X-186457Y4700D01*
X-186245Y4825D01*
X-186045Y4962D01*
X-185857Y5113D01*
X-185680Y5277D01*
X-184973Y4570D01*
D02*
G37*
G36*
Y-430D02*
X-185137Y-607D01*
X-185288Y-795D01*
X-185425Y-996D01*
X-185550Y-1207D01*
X-185660Y-1431D01*
X-185758Y-1666D01*
X-185842Y-1914D01*
X-185913Y-2173D01*
X-185970Y-2443D01*
X-186015Y-2726D01*
X-187976Y-765D01*
X-187693Y-720D01*
X-187423Y-663D01*
X-187164Y-592D01*
X-186917Y-508D01*
X-186681Y-410D01*
X-186457Y-300D01*
X-186245Y-176D01*
X-186045Y-38D01*
X-185857Y113D01*
X-185680Y277D01*
X-184973Y-430D01*
D02*
G37*
G36*
Y-5430D02*
X-185137Y-5607D01*
X-185288Y-5795D01*
X-185425Y-5996D01*
X-185550Y-6207D01*
X-185660Y-6431D01*
X-185758Y-6666D01*
X-185842Y-6914D01*
X-185913Y-7173D01*
X-185970Y-7443D01*
X-186015Y-7726D01*
X-187976Y-5765D01*
X-187693Y-5720D01*
X-187423Y-5663D01*
X-187164Y-5592D01*
X-186917Y-5508D01*
X-186681Y-5411D01*
X-186457Y-5300D01*
X-186245Y-5175D01*
X-186045Y-5038D01*
X-185857Y-4887D01*
X-185680Y-4723D01*
X-184973Y-5430D01*
D02*
G37*
G36*
X-104318Y-10387D02*
X-104429Y-10313D01*
X-104563Y-10247D01*
X-104719Y-10189D01*
X-104898Y-10139D01*
X-105098Y-10097D01*
X-105321Y-10062D01*
X-105834Y-10015D01*
X-106436Y-10000D01*
Y-8000D01*
X-106124Y-7996D01*
X-105321Y-7938D01*
X-105098Y-7903D01*
X-104898Y-7861D01*
X-104719Y-7811D01*
X-104563Y-7753D01*
X-104429Y-7687D01*
X-104318Y-7613D01*
Y-10387D01*
D02*
G37*
G36*
X-186571Y-11187D02*
X-186437Y-11252D01*
X-186281Y-11310D01*
X-186102Y-11361D01*
X-185902Y-11403D01*
X-185679Y-11438D01*
X-185166Y-11485D01*
X-184564Y-11500D01*
Y-13500D01*
X-184876Y-13504D01*
X-185679Y-13562D01*
X-185902Y-13597D01*
X-186102Y-13639D01*
X-186281Y-13690D01*
X-186437Y-13748D01*
X-186571Y-13813D01*
X-186682Y-13887D01*
Y-11113D01*
X-186571Y-11187D01*
D02*
G37*
G36*
X-144817Y-18387D02*
X-144929Y-18313D01*
X-145063Y-18247D01*
X-145219Y-18190D01*
X-145398Y-18139D01*
X-145598Y-18097D01*
X-145821Y-18062D01*
X-146334Y-18016D01*
X-146936Y-18000D01*
Y-16000D01*
X-146624Y-15996D01*
X-145821Y-15938D01*
X-145598Y-15903D01*
X-145398Y-15861D01*
X-145219Y-15811D01*
X-145063Y-15753D01*
X-144929Y-15687D01*
X-144817Y-15613D01*
Y-18387D01*
D02*
G37*
G36*
X-186452Y-16282D02*
X-186220Y-16432D01*
X-185986Y-16566D01*
X-185752Y-16681D01*
X-185517Y-16778D01*
X-185280Y-16858D01*
X-185043Y-16920D01*
X-184804Y-16964D01*
X-184564Y-16991D01*
X-184323Y-17000D01*
Y-18000D01*
X-184564Y-18009D01*
X-184804Y-18035D01*
X-185043Y-18080D01*
X-185280Y-18142D01*
X-185517Y-18222D01*
X-185752Y-18319D01*
X-185986Y-18434D01*
X-186220Y-18568D01*
X-186452Y-18718D01*
X-186682Y-18887D01*
Y-16113D01*
X-186452Y-16282D01*
D02*
G37*
G36*
X-129223Y-18750D02*
X-129298Y-18761D01*
X-129397Y-18792D01*
X-129520Y-18842D01*
X-129666Y-18913D01*
X-130029Y-19113D01*
X-130751Y-19563D01*
X-131039Y-19753D01*
X-132401Y-18253D01*
X-132165Y-18096D01*
X-131753Y-17773D01*
X-131578Y-17609D01*
X-131422Y-17443D01*
X-131287Y-17274D01*
X-131172Y-17103D01*
X-131077Y-16930D01*
X-131003Y-16755D01*
X-130948Y-16578D01*
X-129223Y-18750D01*
D02*
G37*
G36*
X-186571Y-21187D02*
X-186437Y-21253D01*
X-186281Y-21311D01*
X-186102Y-21361D01*
X-185902Y-21403D01*
X-185679Y-21438D01*
X-185166Y-21484D01*
X-184564Y-21500D01*
Y-23500D01*
X-184876Y-23504D01*
X-185679Y-23562D01*
X-185902Y-23597D01*
X-186102Y-23639D01*
X-186281Y-23689D01*
X-186437Y-23747D01*
X-186571Y-23813D01*
X-186682Y-23887D01*
Y-21113D01*
X-186571Y-21187D01*
D02*
G37*
G36*
Y-26187D02*
X-186437Y-26253D01*
X-186281Y-26311D01*
X-186102Y-26361D01*
X-185902Y-26403D01*
X-185679Y-26438D01*
X-185166Y-26484D01*
X-184564Y-26500D01*
Y-28500D01*
X-184876Y-28504D01*
X-185679Y-28562D01*
X-185902Y-28597D01*
X-186102Y-28639D01*
X-186281Y-28689D01*
X-186437Y-28747D01*
X-186571Y-28813D01*
X-186682Y-28887D01*
Y-26113D01*
X-186571Y-26187D01*
D02*
G37*
G36*
X-36325Y17601D02*
X-35935Y16855D01*
X-35803Y16641D01*
X-35536Y16268D01*
X-35401Y16109D01*
X-35264Y15967D01*
X-35127Y15842D01*
X-37836Y15239D01*
X-37695Y15560D01*
X-37484Y16156D01*
X-37415Y16431D01*
X-37369Y16691D01*
X-37347Y16936D01*
X-37349Y17166D01*
X-37374Y17381D01*
X-37424Y17580D01*
X-37497Y17764D01*
X-36453Y17885D01*
X-36325Y17601D01*
D02*
G37*
G36*
X-45281Y16689D02*
X-45207Y16574D01*
X-45026Y16335D01*
X-44919Y16211D01*
X-44534Y15816D01*
X-44383Y15678D01*
X-44222Y15536D01*
X-46952Y14945D01*
X-46823Y15229D01*
X-46480Y16119D01*
X-46438Y16280D01*
X-46412Y16415D01*
X-46404Y16527D01*
X-46413Y16613D01*
X-46439Y16674D01*
X-45345Y16800D01*
X-45281Y16689D01*
D02*
G37*
G36*
X-41013Y17299D02*
X-40254Y16165D01*
X-40121Y16005D01*
X-39873Y15751D01*
X-39759Y15658D01*
X-42427Y14889D01*
X-42301Y15231D01*
X-42122Y15855D01*
X-42069Y16138D01*
X-42039Y16401D01*
X-42034Y16645D01*
X-42053Y16869D01*
X-42096Y17074D01*
X-42163Y17260D01*
X-42254Y17425D01*
X-41184Y17593D01*
X-41013Y17299D01*
D02*
G37*
G36*
X-62646Y14397D02*
X-62777Y14254D01*
X-62893Y14104D01*
X-62993Y13947D01*
X-63077Y13782D01*
X-63145Y13610D01*
X-63199Y13431D01*
X-63236Y13244D01*
X-63258Y13049D01*
X-63265Y12848D01*
X-63256Y12639D01*
X-65215Y14237D01*
X-64992Y14271D01*
X-64777Y14316D01*
X-64571Y14374D01*
X-64372Y14443D01*
X-64182Y14524D01*
X-64000Y14616D01*
X-63826Y14720D01*
X-63660Y14836D01*
X-63503Y14964D01*
X-63354Y15104D01*
X-62646Y14397D01*
D02*
G37*
G36*
X-30597Y12939D02*
X-30659Y12893D01*
X-30742Y12818D01*
X-30970Y12582D01*
X-31676Y11763D01*
X-32153Y11180D01*
X-33224Y11484D01*
X-33119Y11613D01*
X-33036Y11768D01*
X-32976Y11950D01*
X-32938Y12158D01*
X-32923Y12392D01*
X-32930Y12653D01*
X-32959Y12940D01*
X-33012Y13253D01*
X-33183Y13957D01*
X-30597Y12939D01*
D02*
G37*
G36*
X-23971Y12683D02*
X-24040Y12641D01*
X-24135Y12569D01*
X-24407Y12336D01*
X-25557Y11234D01*
X-25868Y10925D01*
X-26763Y11444D01*
X-26644Y11585D01*
X-26545Y11750D01*
X-26465Y11938D01*
X-26406Y12150D01*
X-26366Y12386D01*
X-26347Y12645D01*
X-26347Y12929D01*
X-26368Y13235D01*
X-26408Y13566D01*
X-26469Y13920D01*
X-23971Y12683D01*
D02*
G37*
G36*
X-54018Y12781D02*
X-53875Y12644D01*
X-53715Y12509D01*
X-53536Y12374D01*
X-53127Y12110D01*
X-52896Y11980D01*
X-52097Y11596D01*
X-52217Y10553D01*
X-52401Y10625D01*
X-52601Y10674D01*
X-52816Y10699D01*
X-53046Y10701D01*
X-53291Y10678D01*
X-53551Y10632D01*
X-53826Y10562D01*
X-54116Y10468D01*
X-54421Y10350D01*
X-54741Y10208D01*
X-54143Y12919D01*
X-54018Y12781D01*
D02*
G37*
G36*
X-56659Y10497D02*
X-56827Y10640D01*
X-56998Y10768D01*
X-57173Y10881D01*
X-57352Y10979D01*
X-57535Y11062D01*
X-57720Y11129D01*
X-57910Y11182D01*
X-58103Y11220D01*
X-58300Y11242D01*
X-58500Y11250D01*
Y12250D01*
X-58302Y12258D01*
X-58109Y12281D01*
X-57920Y12320D01*
X-57736Y12375D01*
X-57556Y12445D01*
X-57380Y12531D01*
X-57209Y12632D01*
X-57042Y12749D01*
X-56879Y12882D01*
X-56721Y13030D01*
X-56659Y10497D01*
D02*
G37*
G36*
X-51157Y11133D02*
X-50394Y10798D01*
X-50156Y10716D01*
X-49706Y10594D01*
X-49494Y10556D01*
X-49290Y10531D01*
X-49095Y10522D01*
X-50815Y8344D01*
X-50907Y8678D01*
X-51118Y9268D01*
X-51237Y9524D01*
X-51365Y9754D01*
X-51503Y9959D01*
X-51649Y10137D01*
X-51804Y10290D01*
X-51969Y10416D01*
X-52143Y10517D01*
X-51427Y11273D01*
X-51157Y11133D01*
D02*
G37*
G36*
X-22015Y7063D02*
X-21881Y6998D01*
X-21725Y6939D01*
X-21547Y6889D01*
X-21346Y6847D01*
X-21123Y6812D01*
X-20610Y6765D01*
X-20008Y6750D01*
Y4750D01*
X-20320Y4746D01*
X-21123Y4688D01*
X-21346Y4653D01*
X-21547Y4611D01*
X-21725Y4561D01*
X-21881Y4502D01*
X-22015Y4437D01*
X-22127Y4363D01*
Y7137D01*
X-22015Y7063D01*
D02*
G37*
G36*
X-50952Y3468D02*
X-50719Y3318D01*
X-50486Y3185D01*
X-50252Y3069D01*
X-50017Y2972D01*
X-49780Y2892D01*
X-49543Y2830D01*
X-49304Y2785D01*
X-49064Y2759D01*
X-48823Y2750D01*
Y1750D01*
X-49064Y1741D01*
X-49304Y1715D01*
X-49543Y1670D01*
X-49780Y1608D01*
X-50017Y1528D01*
X-50252Y1431D01*
X-50486Y1315D01*
X-50719Y1182D01*
X-50952Y1032D01*
X-51182Y863D01*
Y3637D01*
X-50952Y3468D01*
D02*
G37*
G36*
X-53317Y863D02*
X-53548Y1032D01*
X-53780Y1182D01*
X-54014Y1315D01*
X-54248Y1431D01*
X-54483Y1528D01*
X-54720Y1608D01*
X-54957Y1670D01*
X-55196Y1715D01*
X-55436Y1741D01*
X-55677Y1750D01*
Y2750D01*
X-55436Y2759D01*
X-55196Y2785D01*
X-54957Y2830D01*
X-54720Y2892D01*
X-54483Y2972D01*
X-54248Y3069D01*
X-54014Y3185D01*
X-53780Y3318D01*
X-53548Y3468D01*
X-53317Y3637D01*
Y863D01*
D02*
G37*
G36*
X658Y-2740D02*
X1428Y-3421D01*
X1584Y-3536D01*
X1726Y-3630D01*
X1853Y-3701D01*
X1965Y-3751D01*
X2063Y-3778D01*
X5Y-5638D01*
X-17Y-5479D01*
X-61Y-5313D01*
X-126Y-5141D01*
X-211Y-4962D01*
X-317Y-4777D01*
X-444Y-4585D01*
X-592Y-4387D01*
X-951Y-3970D01*
X-1161Y-3753D01*
X429Y-2515D01*
X658Y-2740D01*
D02*
G37*
G36*
X-26893Y-8637D02*
X-26705Y-8788D01*
X-26504Y-8925D01*
X-26293Y-9050D01*
X-26069Y-9161D01*
X-25833Y-9258D01*
X-25586Y-9342D01*
X-25327Y-9413D01*
X-25057Y-9470D01*
X-24774Y-9515D01*
X-26735Y-11476D01*
X-26780Y-11193D01*
X-26837Y-10923D01*
X-26908Y-10664D01*
X-26992Y-10417D01*
X-27090Y-10181D01*
X-27200Y-9957D01*
X-27325Y-9746D01*
X-27462Y-9545D01*
X-27613Y-9357D01*
X-27777Y-9180D01*
X-27070Y-8473D01*
X-26893Y-8637D01*
D02*
G37*
G36*
X-56068Y-14137D02*
X-56298Y-13968D01*
X-56530Y-13817D01*
X-56764Y-13685D01*
X-56998Y-13569D01*
X-57233Y-13472D01*
X-57470Y-13392D01*
X-57707Y-13330D01*
X-57946Y-13285D01*
X-58186Y-13259D01*
X-58427Y-13250D01*
Y-12250D01*
X-58186Y-12241D01*
X-57946Y-12215D01*
X-57707Y-12170D01*
X-57470Y-12108D01*
X-57233Y-12028D01*
X-56998Y-11931D01*
X-56764Y-11816D01*
X-56530Y-11682D01*
X-56298Y-11532D01*
X-56068Y-11363D01*
Y-14137D01*
D02*
G37*
G36*
X-42344Y-13048D02*
X-42495Y-13281D01*
X-42628Y-13514D01*
X-42743Y-13748D01*
X-42841Y-13983D01*
X-42921Y-14220D01*
X-42983Y-14457D01*
X-43027Y-14696D01*
X-43054Y-14936D01*
X-43063Y-15177D01*
X-44062D01*
X-44071Y-14936D01*
X-44098Y-14696D01*
X-44142Y-14457D01*
X-44204Y-14220D01*
X-44284Y-13983D01*
X-44382Y-13748D01*
X-44497Y-13514D01*
X-44630Y-13281D01*
X-44781Y-13048D01*
X-44949Y-12817D01*
X-42176D01*
X-42344Y-13048D01*
D02*
G37*
D10*
X-21500Y14250D02*
G03*
X-27990Y13994I-3250J0D01*
G01*
X-22938Y11552D02*
G03*
X-21500Y14250I-1812J2698D01*
G01*
X-29472Y11898D02*
G03*
X-28250Y14438I-2028J2540D01*
G01*
D02*
G03*
X-33846Y16687I-3250J0D01*
G01*
X-21550Y8553D02*
G03*
X-21550Y2947I-1644J-2803D01*
G01*
X-30039Y10289D02*
G03*
X-32250Y4952I5337J-5337D01*
G01*
X-27211Y7461D02*
G03*
X-28250Y4952I2509J-2509D01*
G01*
X-35414Y8000D02*
G03*
X-31586Y9586I0J5414D01*
G01*
X-32250Y3000D02*
G03*
X-30780Y-548I5018J0D01*
G01*
X-28250Y3000D02*
G03*
X-27956Y2285I1018J0D01*
G01*
X-35210Y18774D02*
G03*
X-37860Y22192I-9040J-4274D01*
G01*
X-45914Y8224D02*
G03*
X-44392Y8000I1522J5053D01*
G01*
X-52161Y7632D02*
G03*
X-45914Y8224I3043J1140D01*
G01*
X-57379Y9153D02*
G03*
X-54440Y8715I1895J2640D01*
G01*
X-58776Y9726D02*
G03*
X-59646Y9275I276J-1598D01*
G01*
X-67750Y4750D02*
G03*
X-61641Y7280I0J8639D01*
G01*
X-35672Y2250D02*
G03*
X-40500Y4250I-4828J-4828D01*
G01*
X-50569Y5031D02*
G03*
X-53931Y5031I-1681J-2781D01*
G01*
X-38500Y-578D02*
G03*
X-40500Y250I-2000J-2000D01*
G01*
X-53931Y-531D02*
G03*
X-50569Y-531I1681J2781D01*
G01*
X-63750Y4250D02*
G03*
X-66871Y2957I0J-4414D01*
G01*
X-69621Y-2500D02*
G03*
X-64586Y-414I-0J7121D01*
G01*
X-69613Y1500D02*
G03*
X-67420Y2409I-8J3121D01*
G01*
X-17750Y-9953D02*
G03*
X-19185Y-6487I-4914J-4D01*
G01*
X-21750Y-9952D02*
G03*
X-22014Y-9315I-914J-5D01*
G01*
X-21750Y-11250D02*
G03*
X-24222Y-8094I-3250J0D01*
G01*
X-34298Y-11548D02*
G03*
X-36415Y-8502I-3250J0D01*
G01*
X-22750Y-15750D02*
G03*
X-21750Y-14750I0J1000D01*
G01*
X-22750Y-19750D02*
G03*
X-17750Y-14750I0J5000D01*
G01*
X-28156Y-12028D02*
G03*
X-21750Y-11250I3155J778D01*
G01*
X-40514Y-12877D02*
G03*
X-34298Y-11548I2966J1329D01*
G01*
X-36415Y-8502D02*
G03*
X-40755Y-6005I-4585J-2950D01*
G01*
X-40781Y-13431D02*
G03*
X-40514Y-12877I-2781J1681D01*
G01*
X-50813Y-13726D02*
G03*
X-49282Y-14250I1532J1976D01*
G01*
X-49050Y-4153D02*
G03*
X-55093Y-6500I-2936J-1393D01*
G01*
X-56681Y-15532D02*
G03*
X-51756Y-12954I1681J2781D01*
G01*
X-45563Y-16250D02*
G03*
X-42063Y-19750I3500J0D01*
G01*
X-50813Y-13726D02*
G03*
X-49282Y-14250I1532J1976D01*
G01*
X-75000Y14500D02*
G03*
X-74280Y14798I0J1018D01*
G01*
X-79319Y15281D02*
G03*
X-83584Y14471I-1681J-2781D01*
G01*
X-86673Y13298D02*
G03*
X-92833Y14639I-3248J-102D01*
G01*
X-83584Y14471D02*
G03*
X-86673Y13298I602J-6239D01*
G01*
X-101173Y-6500D02*
G03*
X-104894Y-6197I-2077J-2500D01*
G01*
X-140500Y-17000D02*
G03*
X-141405Y-14750I-3250J0D01*
G01*
X-145394Y-19804D02*
G03*
X-140500Y-17000I1644J2803D01*
G01*
X-40909Y-8001D02*
G03*
X-41000Y-8000I-91J-3451D01*
G01*
X-37548Y-11452D02*
G03*
X-40909Y-8001I-3452J0D01*
G01*
X-49775Y9429D02*
G03*
X-55483Y11793I-5709J-5709D01*
G01*
X-58500Y11750D02*
G03*
X-61061Y10689I0J-3621D01*
G01*
X-67750Y6750D02*
G03*
X-63055Y8695I0J6639D01*
G01*
X-175000Y6750D02*
G03*
X-180975Y4275I0J-8450D01*
G01*
X-64823Y12927D02*
G03*
X-65000Y12500I427J-427D01*
G01*
X-60586Y15750D02*
G03*
X-63000Y14750I0J-3414D01*
G01*
X-49000Y13250D02*
G03*
X-55035Y15750I-6035J-6035D01*
G01*
X-32870Y11130D02*
G03*
X-31500Y14438I-3308J3308D01*
G01*
X-46710Y10960D02*
G03*
X-44392Y10000I2317J2317D01*
G01*
X-35414D02*
G03*
X-33000Y11000I0J3414D01*
G01*
X-171500Y-12750D02*
G03*
X-176621Y-14871I0J-7243D01*
G01*
X-181250Y-17500D02*
G03*
X-177836Y-16086I0J4828D01*
G01*
X-30250Y3000D02*
G03*
X-29366Y866I3018J0D01*
G01*
X-28625Y8875D02*
G03*
X-30250Y4952I3923J-3923D01*
G01*
X-19750Y-9960D02*
G03*
X-20603Y-7897I-2914J3D01*
G01*
X-22750Y-17750D02*
G03*
X-19750Y-14750I0J3000D01*
G01*
X-43562Y-16250D02*
G03*
X-42063Y-17750I1500J0D01*
G01*
X-185589Y9661D02*
G03*
X-185591Y9659I3839J-3843D01*
G01*
X-181750Y11250D02*
G03*
X-185589Y9661I0J-5432D01*
G01*
X-177750Y8750D02*
G03*
X-184152Y6098I0J-9053D01*
G01*
X-45364Y14864D02*
G03*
X-49000Y18500I-3636J0D01*
G01*
X-66500D02*
G03*
X-68634Y17616I0J-3018D01*
G01*
X-75000Y12500D02*
G03*
X-72866Y13384I0J3018D01*
G01*
X-82982Y12500D02*
G03*
X-86000Y11250I0J-4268D01*
G01*
X-92036Y8750D02*
G03*
X-86000Y11250I0J8535D01*
G01*
X-93750Y11250D02*
G03*
X-90536Y12581I0J4545D01*
G01*
X-175500Y-500D02*
G03*
X-184462Y-4212I0J-12675D01*
G01*
X-37086Y836D02*
G03*
X-40500Y2250I-3414J-3414D01*
G01*
X-63750D02*
G03*
X-65457Y1543I0J-2414D01*
G01*
X-171000Y20500D02*
G03*
X-185937Y14313I0J-21124D01*
G01*
X-178250Y22500D02*
G03*
X-185932Y19318I0J-10864D01*
G01*
X-40798Y14250D02*
G03*
X-47048Y20500I-6250J0D01*
G01*
X-36250Y14500D02*
G03*
X-44250Y22500I-8000J0D01*
G01*
X-69621Y-500D02*
G03*
X-66000Y1000I-0J5121D01*
G01*
X-22690Y16764D02*
X-17500Y21954D01*
X-26589Y22192D02*
X-17500Y13103D01*
X-21555Y13656D02*
X-17500Y17711D01*
X-18103Y22192D02*
X-17500Y21589D01*
X-22346Y22192D02*
X-17500Y17346D01*
Y8250D02*
Y22192D01*
X-22143Y8825D02*
X-17500Y13468D01*
X-21718Y13079D02*
X-17500Y8861D01*
X-24422Y10073D02*
X-23317Y11132D01*
X-23673Y10791D02*
X-21410Y8528D01*
X-28373Y15323D02*
X-21504Y22192D01*
X-30432Y17507D02*
X-25747Y22192D01*
X-37860D02*
X-17500D01*
X-34523Y17658D02*
X-29989Y22192D01*
X-35074D02*
X-30365Y17483D01*
X-30831Y22192D02*
X-25921Y17282D01*
X-28455Y15573D02*
X-27906Y15024D01*
X-30039Y10289D02*
X-28183Y12146D01*
X-29233Y12109D02*
X-28726Y11602D01*
X-30432Y10719D02*
X-29771Y11487D01*
X-18476Y8250D02*
X-17500Y9226D01*
X-19690Y8250D02*
X-17500D01*
X-19700Y3250D02*
X-17500D01*
X-25898Y8773D02*
X-25327Y8202D01*
X-27211Y7461D02*
X-25020Y9652D01*
X-27885Y6518D02*
X-26353Y4986D01*
X-20248Y3123D02*
X-17500Y375D01*
X-24077Y-1594D02*
X-19233Y3250D01*
X-20939Y3074D02*
X-20252Y3123D01*
X-28219Y2750D02*
X-26270Y4699D01*
X-26199Y527D02*
X-24098Y2628D01*
X-30897Y10152D02*
X-30432Y10719D01*
X-31259Y9892D02*
X-30786Y9419D01*
X-33843Y8233D02*
X-32093Y6483D01*
X-28250Y3000D02*
Y4952D01*
X-36499Y2955D02*
X-31718Y7736D01*
X-32195Y-1227D02*
X-31129Y-161D01*
X-36112Y20312D02*
X-34232Y22192D01*
X-34864Y18310D02*
X-34524Y17659D01*
X-44392Y8000D02*
X-35414D01*
X-39517Y4179D02*
X-35696Y8000D01*
X-42095D02*
X-37780Y3685D01*
X-37852Y8000D02*
X-32208Y2356D01*
X-43689Y4250D02*
X-39939Y8000D01*
X-47931Y4250D02*
X-44181Y8000D01*
X-46047Y7709D02*
X-42588Y4250D01*
X-55368Y8545D02*
X-52322Y5499D01*
X-61641Y7280D02*
X-59646Y9275D01*
X-73808Y18500D02*
X-72193Y16885D01*
X-59994Y8928D02*
X-55456Y4390D01*
X-60659Y4250D02*
X-56270Y8640D01*
X-56417Y4250D02*
X-52462Y8205D01*
X-62133Y6825D02*
X-59558Y4250D01*
X-65120Y4032D02*
X-62937Y6215D01*
X-32250Y3000D02*
Y4952D01*
X-48496Y4250D02*
X-40500D01*
X-48227Y5646D02*
X-46830Y4250D01*
X-51125Y5299D02*
X-50563Y5861D01*
X-34316Y895D02*
X-32250Y2961D01*
X-48496Y250D02*
X-40500D01*
X-50563Y-2624D02*
X-47689Y250D01*
X-55411Y103D02*
X-52885Y-2423D01*
X-64815Y5264D02*
X-63801Y4250D01*
X-63750Y4250D02*
X-56004D01*
X-68544Y4750D02*
X-66810Y3017D01*
X-72786Y4750D02*
X-69537Y1501D01*
X-67414Y2414D02*
X-66871Y2957D01*
X-63750Y250D02*
X-56004D01*
X-64586Y-414D02*
X-64043Y129D01*
X-71895Y1500D02*
X-68645Y4750D01*
X-19835Y-5837D02*
X-17500Y-3502D01*
X-23958Y2591D02*
X-17500Y-3867D01*
X-18042Y-8287D02*
X-17500Y-7745D01*
X-21956Y-3716D02*
X-17500Y740D01*
X-27952Y2280D02*
X-19197Y-6474D01*
X-25729Y-7489D02*
X-24784Y-6544D01*
X-17500Y-22192D02*
Y3250D01*
X-17750Y-14750D02*
Y-9967D01*
X-21750Y-11250D02*
Y-9967D01*
X-28129Y2520D02*
X-17500Y-8110D01*
X-35672Y2250D02*
X-26240Y-7181D01*
X-30780Y-548D02*
X-22026Y-9302D01*
X-27952Y-5469D02*
X-26906Y-4423D01*
X-30074Y-3348D02*
X-29027Y-2301D01*
X-35642Y-8916D02*
X-32902Y-6176D01*
X-38498Y-581D02*
X-29069Y-10010D01*
X-42830Y250D02*
X-26830Y-15750D01*
X-33990D02*
X-28761Y-10521D01*
X-34310Y-11827D02*
X-30781Y-8298D01*
X-17949Y-16146D02*
X-17500Y-16595D01*
X-18300Y-17031D02*
X-17500Y-16230D01*
X-21750Y-14750D02*
Y-11250D01*
X-23997Y-14341D02*
X-22599Y-15739D01*
X-25505Y-15750D02*
X-24139Y-14384D01*
X-19658Y-18679D02*
X-17500Y-20838D01*
X-19219Y-22192D02*
X-17500Y-20473D01*
X-23462Y-22192D02*
X-20470Y-19200D01*
X-27073Y-19750D02*
X-24631Y-22192D01*
X-22830Y-19750D02*
X-20388Y-22192D01*
X-41562Y-15750D02*
X-22750D01*
X-42063Y-19750D02*
X-22750D01*
X-34414Y-12409D02*
X-31073Y-15750D01*
X-29748D02*
X-27419Y-13421D01*
X-31316Y-19750D02*
X-28873Y-22192D01*
X-31947D02*
X-29505Y-19750D01*
X-27705Y-22192D02*
X-25262Y-19750D01*
X-36190Y-22192D02*
X-33748Y-19750D01*
X-35558D02*
X-33116Y-22192D01*
X-41132Y-5921D02*
X-37145Y-1934D01*
X-44600Y-5147D02*
X-39418Y35D01*
X-49050Y-4153D02*
X-40755Y-6005D01*
X-47073Y250D02*
X-40836Y-5987D01*
X-48068Y-4372D02*
X-43446Y250D01*
X-50541Y-525D02*
X-46298Y-4767D01*
X-37921Y-6953D02*
X-35023Y-4055D01*
X-41340Y-14615D02*
X-40180Y-13455D01*
X-51354Y-13307D02*
X-50813Y-13726D01*
X-59801Y250D02*
X-55060Y-4491D01*
X-67167Y-6500D02*
X-60417Y250D01*
X-66338Y-1698D02*
X-61536Y-6500D01*
X-71410D02*
X-66847Y-1937D01*
X-74021Y-2500D02*
X-70021Y-6500D01*
X-69779Y-2500D02*
X-65779Y-6500D01*
X-58682D02*
X-53075Y-894D01*
X-62924Y-6500D02*
X-56174Y250D01*
X-63976Y183D02*
X-57293Y-6500D01*
X-36456Y-14609D02*
X-35315Y-15750D01*
X-41135Y-14173D02*
X-39558Y-15750D01*
X-38233D02*
X-37269Y-14786D01*
X-48597Y-14250D02*
X-45946D01*
X-49282Y-14250D02*
X-48597Y-14250D01*
X-45563Y-16250D02*
Y-15504D01*
X-40433Y-22192D02*
X-37990Y-19750D01*
X-49559Y-14234D02*
X-41601Y-22192D01*
X-39801Y-19750D02*
X-37359Y-22192D01*
X-48918D02*
X-44952Y-18226D01*
X-44675Y-22192D02*
X-42229Y-19746D01*
X-61771Y-14750D02*
X-54329Y-22192D01*
X-65888D02*
X-58543Y-14847D01*
X-70131Y-22192D02*
X-62689Y-14750D01*
X-70257D02*
X-62815Y-22192D01*
X-66014Y-14750D02*
X-58572Y-22192D01*
X-53160D02*
X-45739Y-14770D01*
X-57403Y-22192D02*
X-49455Y-14244D01*
X-52849Y-15187D02*
X-45844Y-22192D01*
X-56768Y-15510D02*
X-50087Y-22192D01*
X-61646D02*
X-55426Y-15972D01*
X-79324Y15284D02*
X-76108Y18500D01*
X-82294D02*
X-78997Y15204D01*
X-74280Y14798D02*
X-70578Y18500D01*
X-87611Y15482D02*
X-84593Y18500D01*
X-90779D02*
X-88280Y16001D01*
X-86536Y18500D02*
X-83054Y15018D01*
X-75865Y14500D02*
X-71865Y18500D01*
X-78051D02*
X-74315Y14765D01*
X-84550Y14301D02*
X-80351Y18500D01*
X-87116Y14837D02*
X-86003Y13724D01*
X-91118Y16218D02*
X-88836Y18500D01*
X-151233D02*
X-70578D01*
X-107749D02*
X-102499Y13250D01*
X-111056D02*
X-105806Y18500D01*
X-95021D02*
X-92115Y15594D01*
X-99264Y18500D02*
X-94014Y13250D01*
X-102571D02*
X-97321Y18500D01*
X-98329Y13250D02*
X-93078Y18500D01*
X-106814Y13250D02*
X-101564Y18500D01*
X-106814Y13250D02*
X-101564Y18500D01*
X-103507D02*
X-98257Y13250D01*
X-77246Y14500D02*
X-75000D01*
X-88865Y1500D02*
X-85615Y4750D01*
X-93108Y1500D02*
X-89858Y4750D01*
X-93999D02*
X-90749Y1500D01*
X-89757Y4750D02*
X-86507Y1500D01*
X-77029Y4750D02*
X-73779Y1500D01*
X-80380D02*
X-77130Y4750D01*
X-76137Y1500D02*
X-72887Y4750D01*
X-84623Y1500D02*
X-81373Y4750D01*
X-85514D02*
X-82264Y1500D01*
X-81271Y4750D02*
X-78021Y1500D01*
X-94086Y13250D02*
X-93159Y14177D01*
X-151246Y4750D02*
X-67750D01*
X-151249Y1500D02*
X-69621D01*
X-106727Y4750D02*
X-103477Y1500D01*
X-151238Y13250D02*
X-93750D01*
X-105836Y1500D02*
X-102586Y4750D01*
X-97351Y1500D02*
X-94101Y4750D01*
X-98242D02*
X-94992Y1500D01*
X-151252Y-2500D02*
X-69631D01*
X-102485Y4750D02*
X-99235Y1500D01*
X-101593D02*
X-98343Y4750D01*
X-124720Y18500D02*
X-119470Y13250D01*
X-128027D02*
X-122777Y18500D01*
X-123784Y13250D02*
X-118534Y18500D01*
X-132270Y13250D02*
X-127020Y18500D01*
X-133205D02*
X-127955Y13250D01*
X-128962Y18500D02*
X-123713Y13250D01*
X-115299D02*
X-110049Y18500D01*
X-116235D02*
X-110984Y13250D01*
X-111992Y18500D02*
X-106742Y13250D01*
X-119542D02*
X-114292Y18500D01*
X-120477D02*
X-115227Y13250D01*
X-132183Y4750D02*
X-128933Y1500D01*
X-149240Y13250D02*
X-143990Y18500D01*
X-150176D02*
X-144926Y13250D01*
X-145933Y18500D02*
X-140683Y13250D01*
X-151236Y15497D02*
X-148233Y18500D01*
X-151238Y13250D02*
X-151233Y18500D01*
X-151236Y15318D02*
X-149168Y13250D01*
X-137448Y18500D02*
X-132198Y13250D01*
X-140755D02*
X-135505Y18500D01*
X-136512Y13250D02*
X-131262Y18500D01*
X-144998Y13250D02*
X-139747Y18500D01*
X-141690D02*
X-136440Y13250D01*
X-122806Y1500D02*
X-119556Y4750D01*
X-123698D02*
X-120448Y1500D01*
X-119455Y4750D02*
X-116205Y1500D01*
X-127940Y4750D02*
X-124690Y1500D01*
X-131292D02*
X-128042Y4750D01*
X-127049Y1500D02*
X-123799Y4750D01*
X-110970D02*
X-107720Y1500D01*
X-114321D02*
X-111071Y4750D01*
X-110078Y1500D02*
X-106828Y4750D01*
X-118564Y1500D02*
X-115314Y4750D01*
X-118564Y1500D02*
X-115314Y4750D01*
X-115212D02*
X-111962Y1500D01*
X-148262D02*
X-145012Y4750D01*
X-149154D02*
X-145904Y1500D01*
X-144911Y4750D02*
X-141661Y1500D01*
X-151248Y2757D02*
X-149255Y4750D01*
X-151249Y1500D02*
X-151246Y4750D01*
X-151248Y2602D02*
X-150146Y1500D01*
X-136426Y4750D02*
X-133176Y1500D01*
X-139777D02*
X-136527Y4750D01*
X-135534Y1500D02*
X-132284Y4750D01*
X-144019Y1500D02*
X-140770Y4750D01*
X-140668D02*
X-137418Y1500D01*
X-90992Y-2500D02*
X-86992Y-6500D01*
X-92623D02*
X-88623Y-2500D01*
X-88380Y-6500D02*
X-84380Y-2500D01*
X-96865Y-6500D02*
X-92865Y-2500D01*
X-99477D02*
X-95477Y-6500D01*
X-95235Y-2500D02*
X-91235Y-6500D01*
X-78264Y-2500D02*
X-74264Y-6500D01*
X-79895Y-6500D02*
X-75895Y-2500D01*
X-75652Y-6500D02*
X-71652Y-2500D01*
X-84137Y-6500D02*
X-80137Y-2500D01*
X-86749D02*
X-82749Y-6500D01*
X-82507Y-2500D02*
X-78507Y-6500D01*
X-105076Y-6225D02*
X-101350Y-2500D01*
X-107963D02*
X-104473Y-5989D01*
X-106193Y-6373D02*
X-105505Y-6324D01*
X-109593Y-6500D02*
X-105593Y-2500D01*
X-112205D02*
X-108205Y-6500D01*
X-151256D02*
X-106744D01*
X-101108D02*
X-97108Y-2500D01*
X-103720D02*
X-99720Y-6500D01*
X-101173D02*
X-55093Y-6500D01*
X-116800Y-22192D02*
X-109358Y-14750D01*
X-87227D02*
X-79785Y-22192D01*
X-91344D02*
X-83902Y-14750D01*
X-87101Y-22192D02*
X-79659Y-14750D01*
X-95587Y-22192D02*
X-88145Y-14750D01*
X-95712D02*
X-88270Y-22192D01*
X-91470Y-14750D02*
X-84028Y-22192D01*
X-74499Y-14750D02*
X-67057Y-22192D01*
X-78616D02*
X-71174Y-14750D01*
X-74374Y-22192D02*
X-66932Y-14750D01*
X-82859Y-22192D02*
X-75417Y-14750D01*
X-82985D02*
X-75542Y-22192D01*
X-78742Y-14750D02*
X-71300Y-22192D01*
X-108440Y-14750D02*
X-100998Y-22192D01*
X-141405Y-14750D02*
X-58754D01*
X-151271Y-22192D02*
X-17500D01*
X-112683Y-14750D02*
X-105241Y-22192D01*
X-116926Y-14750D02*
X-109484Y-22192D01*
X-112557D02*
X-105115Y-14750D01*
X-99955D02*
X-92513Y-22192D01*
X-104072D02*
X-96630Y-14750D01*
X-99829Y-22192D02*
X-92387Y-14750D01*
X-108315Y-22192D02*
X-100873Y-14750D01*
X-104198D02*
X-96756Y-22192D01*
X-126564Y-6500D02*
X-122564Y-2500D01*
X-129176D02*
X-125176Y-6500D01*
X-126564D02*
X-122564Y-2500D01*
X-133418D02*
X-129418Y-6500D01*
X-135049D02*
X-131049Y-2500D01*
X-130806Y-6500D02*
X-126806Y-2500D01*
X-116448D02*
X-112448Y-6500D01*
X-118078D02*
X-114078Y-2500D01*
X-113836Y-6500D02*
X-109836Y-2500D01*
X-122321Y-6500D02*
X-118321Y-2500D01*
X-124933D02*
X-120933Y-6500D01*
X-120690Y-2500D02*
X-116690Y-6500D01*
X-150389Y-2500D02*
X-146389Y-6500D01*
X-151256Y-5736D02*
X-148020Y-2500D01*
X-147777Y-6500D02*
X-143777Y-2500D01*
X-151256Y-6500D02*
X-151252Y-2500D01*
X-151256Y-6500D02*
X-151252Y-2500D01*
X-151256Y-5876D02*
X-150632Y-6500D01*
X-139292D02*
X-135292Y-2500D01*
X-141904D02*
X-137904Y-6500D01*
X-137661Y-2500D02*
X-133661Y-6500D01*
X-146146Y-2500D02*
X-142146Y-6500D01*
X-143534D02*
X-139534Y-2500D01*
X-133896Y-14750D02*
X-126454Y-22192D01*
X-138013D02*
X-130571Y-14750D01*
X-133771Y-22192D02*
X-126328Y-14750D01*
X-138139D02*
X-130697Y-22192D01*
X-140582Y-16275D02*
X-139056Y-14750D01*
X-140524Y-16608D02*
X-134939Y-22192D01*
X-121168Y-14750D02*
X-113726Y-22192D01*
X-125285D02*
X-117843Y-14750D01*
X-121043Y-22192D02*
X-113601Y-14750D01*
X-129528Y-22192D02*
X-122086Y-14750D01*
X-129654D02*
X-122212Y-22192D01*
X-125411Y-14750D02*
X-117969Y-22192D01*
X-151268Y-19500D02*
X-147255D01*
X-150741Y-22192D02*
X-148049Y-19500D01*
X-151271Y-22192D02*
X-151268Y-19500D01*
X-150359D02*
X-147667Y-22192D01*
X-142256D02*
X-134814Y-14750D01*
X-142256Y-22192D02*
X-134814Y-14750D01*
X-141785Y-19589D02*
X-139182Y-22192D01*
X-145928Y-19688D02*
X-143425Y-22192D01*
X-146498D02*
X-144475Y-20168D01*
X-51986Y-5546D02*
X-41000Y-8000D01*
X-24811Y14189D02*
X-24750Y14250D01*
X-24811Y12689D02*
Y14189D01*
X-63055Y8695D02*
X-61061Y10689D01*
X-58500Y11750D02*
X-55527D01*
X-55483Y11793D01*
X-49775Y9429D02*
X-49118Y8772D01*
X-175000Y6750D02*
X-67750D01*
X-187750Y-2500D02*
X-180975Y4275D01*
X-64823Y12927D02*
X-63000Y14750D01*
X-60586Y15750D02*
X-55035D01*
X-49000Y13250D02*
X-46710Y10960D01*
X-33000Y11000D02*
X-32870Y11130D01*
X-44392Y10000D02*
X-35414D01*
X-171500Y-12750D02*
X-55000D01*
X-187750Y-17500D02*
X-181250D01*
X-177836Y-16086D02*
X-176621Y-14871D01*
X-20612Y-7889D02*
X-20603Y-7897D01*
X-28625Y8875D02*
X-24811Y12689D01*
X-30250Y3000D02*
Y4952D01*
X-19750Y-9960D02*
X-19750Y-9967D01*
X-42063Y-17750D02*
X-22750D01*
X-43562Y-16250D02*
Y-11750D01*
X-181750Y11250D02*
X-93750D01*
X-185591Y9659D02*
X-185589Y9661D01*
X-187750Y7500D02*
X-185591Y9659D01*
X-187750Y2500D02*
X-184152Y6098D01*
X-177750Y8750D02*
X-92036D01*
X-66500Y18500D02*
X-49000D01*
X-45364Y14210D02*
Y14864D01*
X-72866Y13384D02*
X-68634Y17616D01*
X-81000Y12500D02*
X-75000D01*
X-82982Y12500D02*
X-81000D01*
X-86000Y11250D02*
Y11250D01*
X-90536Y12581D02*
X-89921Y13196D01*
X-187750Y-7500D02*
X-184462Y-4212D01*
X-187750Y-7500D02*
X-187654D01*
X-175500Y-500D02*
X-69621D01*
X-52250Y2250D02*
X-40500D01*
X-37086Y836D02*
X-25000Y-11250D01*
X-63750Y2250D02*
X-52250D01*
X-66000Y1000D02*
X-65457Y1543D01*
X-171000Y20500D02*
X-47048D01*
X-187750Y12500D02*
X-185937Y14313D01*
X-178250Y22500D02*
X-44250D01*
X-187750Y17500D02*
X-185932Y19318D01*
X-55250Y11560D02*
Y11750D01*
X-29366Y866D02*
X-20612Y-7889D01*
X-19750Y-14750D02*
Y-9967D01*
X-81000Y12500D02*
X-81000Y12500D01*
D11*
X-50264Y-10869D02*
G03*
X-51813Y-10118I-1562J-1250D01*
G01*
X-50159Y-11000D02*
G03*
X-49823Y-11331I1562J1250D01*
G01*
X-182371Y-12500D02*
G03*
X-178750Y-11000I0J5121D01*
G01*
X-174250Y-9000D02*
G03*
X-178518Y-10768I0J-6036D01*
G01*
X-140114Y-21500D02*
G03*
X-129250Y-17000I0J15364D01*
G01*
X-160568Y-21500D02*
G03*
X-166000Y-23750I0J-7682D01*
G01*
X-174516Y-27500D02*
G03*
X-166381Y-24131I0J11505D01*
G01*
X-169275Y-17000D02*
G03*
X-173500Y-18750I0J-5975D01*
G01*
X-182553Y-22500D02*
G03*
X-173500Y-18750I0J12803D01*
G01*
X-49282Y-11750D02*
X-48597Y-11750D01*
X-49823Y-11331D02*
X-49282Y-11750D01*
X-50264Y-10869D02*
X-50159Y-11000D01*
X-52243Y-9689D02*
X-51813Y-10118D01*
X-48597Y-11750D02*
X-43562D01*
X-53854Y-9000D02*
X-53403Y-9023D01*
X-52918Y-9261D02*
X-52243Y-9689D01*
X-103250Y-9000D02*
X-53854Y-9000D01*
X-53403Y-9023D02*
X-53165Y-9261D01*
X-52918D01*
X-9250Y5750D02*
X2000Y-5500D01*
X-23194Y5750D02*
X-9250D01*
X-187750Y-12500D02*
X-182371D01*
X-174250Y-9000D02*
X-103250D01*
X-178750Y-11000D02*
X-178518Y-10768D01*
X-160568Y-21500D02*
X-140114D01*
X-166381Y-24131D02*
X-166000Y-23750D01*
X-187750Y-27500D02*
X-174516D01*
X-169275Y-17000D02*
X-143750D01*
X-187750Y-22500D02*
X-182553D01*
D32*
X-51986Y-5546D02*
D03*
X-21250Y19750D02*
D03*
X1750Y-5500D02*
D03*
X-23194Y5750D02*
D03*
X-19379Y-991D02*
D03*
X-24750Y14250D02*
D03*
X-55483Y11793D02*
D03*
X-187750Y7500D02*
D03*
X-52250Y2250D02*
D03*
X-125000Y17000D02*
D03*
X-125500Y2750D02*
D03*
X-125000Y-3750D02*
D03*
X-113250Y3000D02*
D03*
X-113500Y-3750D02*
D03*
X-70000Y3500D02*
D03*
X-113500Y17000D02*
D03*
X-187750Y-22500D02*
D03*
X-143750Y-17000D02*
D03*
X-187750Y-27500D02*
D03*
X-45364Y14210D02*
D03*
X-49118Y8772D02*
D03*
X-65000Y12500D02*
D03*
X-70000Y-3750D02*
D03*
X-55000Y-12750D02*
D03*
X-43562Y-11750D02*
D03*
X-103250Y-9000D02*
D03*
X-187750Y-2500D02*
D03*
X-47655Y-2326D02*
D03*
X-187750Y-12500D02*
D03*
X-40798Y14250D02*
D03*
X-187750Y-7500D02*
D03*
Y2500D02*
D03*
X-37548Y-11548D02*
D03*
X-129250Y-17000D02*
D03*
X-36250Y14500D02*
D03*
X-19220Y-20288D02*
D03*
X-25000Y-11250D02*
D03*
X-89921Y13196D02*
D03*
X-187750Y-17500D02*
D03*
Y17500D02*
D03*
Y22500D02*
D03*
X-81000Y12500D02*
D03*
X-79250Y-18500D02*
D03*
X-187750Y12500D02*
D03*
Y27500D02*
D03*
X-31500Y14438D02*
D03*
D43*
X-110000Y-17000D02*
D03*
M02*
