G04*
G04 #@! TF.GenerationSoftware,Altium Limited,Altium Designer,22.8.2 (66)*
G04*
G04 Layer_Color=39423*
%FSLAX44Y44*%
%MOMM*%
G71*
G04*
G04 #@! TF.SameCoordinates,D1849CEB-705E-4778-8C78-DB278C0D41FE*
G04*
G04*
G04 #@! TF.FilePolarity,Negative*
G04*
G01*
G75*
%ADD19C,0.3500*%
%ADD23R,0.5000X0.3500*%
%ADD24R,0.3500X0.5000*%
%ADD26R,0.6000X0.8000*%
%ADD33R,0.6000X0.8000*%
%ADD38R,0.5000X3.1455*%
%ADD39R,0.5020X5.8712*%
%ADD40R,0.5020X5.8689*%
%ADD41R,0.5020X5.8864*%
%ADD42R,0.5020X5.8504*%
%ADD43C,0.0000*%
%ADD44R,4.0250X6.5250*%
%ADD45C,0.3200*%
%ADD46R,4.2032X0.5532*%
%ADD47R,1.2032X0.7032*%
%ADD48R,0.8600X0.4100*%
%ADD49R,1.8100X2.5400*%
%ADD50R,0.8232X0.8832*%
%ADD51R,0.7532X0.8532*%
%ADD52R,0.8532X0.7532*%
%ADD53R,1.2532X1.2032*%
%ADD54R,0.8832X0.8232*%
%ADD55R,1.6032X1.6032*%
%ADD56R,1.2032X0.7032*%
%ADD57R,0.8232X0.8832*%
%ADD58R,0.7532X0.8532*%
%ADD59C,3.7032*%
G36*
X114628Y340754D02*
X114676D01*
Y340418D01*
X114628D01*
Y340227D01*
X114580D01*
Y340035D01*
X114532D01*
Y339987D01*
X114485D01*
Y339844D01*
X114437D01*
Y339796D01*
X114389D01*
Y339748D01*
X114341D01*
Y339652D01*
X114293D01*
Y339604D01*
X114245D01*
Y339508D01*
X114197D01*
Y339460D01*
X114149D01*
Y339413D01*
X114101D01*
Y339365D01*
X114053D01*
Y339317D01*
X114005D01*
Y339269D01*
X113958D01*
Y339221D01*
X113910D01*
Y339173D01*
X113862D01*
Y339125D01*
X113814D01*
Y339077D01*
X113766D01*
Y339029D01*
X113670D01*
Y338982D01*
X113622D01*
Y338934D01*
X113574D01*
Y338886D01*
X113526D01*
Y338838D01*
X113431D01*
Y338790D01*
X113383D01*
Y338742D01*
X113335D01*
Y338694D01*
X113287D01*
Y338646D01*
X113191D01*
Y338598D01*
X113143D01*
Y338550D01*
X113095D01*
Y338503D01*
X113000D01*
Y338455D01*
X112952D01*
Y338407D01*
X112904D01*
Y338359D01*
X112808D01*
Y338311D01*
X112760D01*
Y338263D01*
X112664D01*
Y338215D01*
X112617D01*
Y338167D01*
X112569D01*
Y338119D01*
X112473D01*
Y338071D01*
X112425D01*
Y338023D01*
X112329D01*
Y337976D01*
X112281D01*
Y337928D01*
X112185D01*
Y337880D01*
X112137D01*
Y337832D01*
X112042D01*
Y337784D01*
X111994D01*
Y337736D01*
X111946D01*
Y337688D01*
X111850D01*
Y337640D01*
X111802D01*
Y337592D01*
X111706D01*
Y337545D01*
X111658D01*
Y337497D01*
X111611D01*
Y337449D01*
X111515D01*
Y337401D01*
X111467D01*
Y337353D01*
X111371D01*
Y337305D01*
X111323D01*
Y337257D01*
X111275D01*
Y337209D01*
X111180D01*
Y337161D01*
X111132D01*
Y337113D01*
X111084D01*
Y337066D01*
X110988D01*
Y337018D01*
X110940D01*
Y336970D01*
X110892D01*
Y336922D01*
X110844D01*
Y336874D01*
X110796D01*
Y336826D01*
X110701D01*
Y336778D01*
X110653D01*
Y336730D01*
X110605D01*
Y336682D01*
X110557D01*
Y336634D01*
X110509D01*
Y336587D01*
X110461D01*
Y336539D01*
X110413D01*
Y336491D01*
X110365D01*
Y336443D01*
X110317D01*
Y336395D01*
X110269D01*
Y336347D01*
X110222D01*
Y336299D01*
X110174D01*
Y336251D01*
X110126D01*
Y336203D01*
X110078D01*
Y336156D01*
X110030D01*
Y336060D01*
X109982D01*
Y336012D01*
X109934D01*
Y335964D01*
X109886D01*
Y335868D01*
X109838D01*
Y335772D01*
X109790D01*
Y335724D01*
X109743D01*
Y335581D01*
X109695D01*
Y335485D01*
X109647D01*
Y335293D01*
X109599D01*
Y334719D01*
X109647D01*
Y334527D01*
X109695D01*
Y334431D01*
X109743D01*
Y334335D01*
X109790D01*
Y334287D01*
X109838D01*
Y334192D01*
X109886D01*
Y334144D01*
X109934D01*
Y334096D01*
X109982D01*
Y334048D01*
X110030D01*
Y334000D01*
X110126D01*
Y333952D01*
X110222D01*
Y333904D01*
X110317D01*
Y333856D01*
X110557D01*
Y333809D01*
X110988D01*
Y333856D01*
X111275D01*
Y333904D01*
X111467D01*
Y333952D01*
X111563D01*
Y334000D01*
X111706D01*
Y334048D01*
X111802D01*
Y334096D01*
X111898D01*
Y334144D01*
X111994D01*
Y334192D01*
X112042D01*
Y334240D01*
X112137D01*
Y334287D01*
X112185D01*
Y334335D01*
X112281D01*
Y334383D01*
X112329D01*
Y334431D01*
X112425D01*
Y334479D01*
X112473D01*
Y334527D01*
X112521D01*
Y334575D01*
X112617D01*
Y334623D01*
X112664D01*
Y334671D01*
X112712D01*
Y334719D01*
X112760D01*
Y334766D01*
X112808D01*
Y334814D01*
X112856D01*
Y334862D01*
X112904D01*
Y334910D01*
X113000D01*
Y334958D01*
X113095D01*
Y334910D01*
X113143D01*
Y334862D01*
X113191D01*
Y334671D01*
X113143D01*
Y334575D01*
X113095D01*
Y334431D01*
X113048D01*
Y334240D01*
X113000D01*
Y334144D01*
X112952D01*
Y333952D01*
X112904D01*
Y333856D01*
X112856D01*
Y333760D01*
X112808D01*
Y333617D01*
X112760D01*
Y333521D01*
X112712D01*
Y333425D01*
X112664D01*
Y333282D01*
X112617D01*
Y333234D01*
X112569D01*
Y333090D01*
X112521D01*
Y332994D01*
X112473D01*
Y332946D01*
X112425D01*
Y332803D01*
X112377D01*
Y332755D01*
X112329D01*
Y332659D01*
X112281D01*
Y332563D01*
X112233D01*
Y332515D01*
X112185D01*
Y332419D01*
X112137D01*
Y332324D01*
X112090D01*
Y332228D01*
X112042D01*
Y332180D01*
X111994D01*
Y332084D01*
X111946D01*
Y332036D01*
X111898D01*
Y331940D01*
X111850D01*
Y331845D01*
X111802D01*
Y331797D01*
X111754D01*
Y331701D01*
X111706D01*
Y331653D01*
X111658D01*
Y331557D01*
X111611D01*
Y331509D01*
X111563D01*
Y331461D01*
X111515D01*
Y331366D01*
X111467D01*
Y331318D01*
X111419D01*
Y331270D01*
X111371D01*
Y331174D01*
X111323D01*
Y331126D01*
X111275D01*
Y331078D01*
X111227D01*
Y331030D01*
X111180D01*
Y330982D01*
X111132D01*
Y330887D01*
X111084D01*
Y330839D01*
X111036D01*
Y330791D01*
X110988D01*
Y330743D01*
X110940D01*
Y330695D01*
X110892D01*
Y330599D01*
X110844D01*
Y330551D01*
X110796D01*
Y330504D01*
X110748D01*
Y330456D01*
X110701D01*
Y330408D01*
X110653D01*
Y330360D01*
X110605D01*
Y330312D01*
X110557D01*
Y330264D01*
X110509D01*
Y330216D01*
X110461D01*
Y330168D01*
X110413D01*
Y330120D01*
X110365D01*
Y330072D01*
X110317D01*
Y330024D01*
X110269D01*
Y329977D01*
X110222D01*
Y329929D01*
X110174D01*
Y329881D01*
X110126D01*
Y329833D01*
X110078D01*
Y329785D01*
X109982D01*
Y329737D01*
X109934D01*
Y329689D01*
X109886D01*
Y329641D01*
X109838D01*
Y329593D01*
X109790D01*
Y329546D01*
X109695D01*
Y329498D01*
X109647D01*
Y329450D01*
X109599D01*
Y329402D01*
X109503D01*
Y329354D01*
X109455D01*
Y329306D01*
X109407D01*
Y329258D01*
X109312D01*
Y329210D01*
X109264D01*
Y329162D01*
X109168D01*
Y329114D01*
X109120D01*
Y329067D01*
X109024D01*
Y329019D01*
X108976D01*
Y328971D01*
X108880D01*
Y328923D01*
X108785D01*
Y328875D01*
X108737D01*
Y328827D01*
X108641D01*
Y328779D01*
X108545D01*
Y328731D01*
X108449D01*
Y328683D01*
X108354D01*
Y328635D01*
X108210D01*
Y328587D01*
X108162D01*
Y328540D01*
X108018D01*
Y328492D01*
X107874D01*
Y328444D01*
X107731D01*
Y328396D01*
X107539D01*
Y328348D01*
X107395D01*
Y328300D01*
X107156D01*
Y328252D01*
X106773D01*
Y328204D01*
X106150D01*
Y328396D01*
X106198D01*
Y328444D01*
X106294D01*
Y328492D01*
X106390D01*
Y328540D01*
X106533D01*
Y328587D01*
X106581D01*
Y328635D01*
X106725D01*
Y328683D01*
X106821D01*
Y328731D01*
X106917D01*
Y328779D01*
X106964D01*
Y328827D01*
X107060D01*
Y328875D01*
X107108D01*
Y328923D01*
X107156D01*
Y328971D01*
X107204D01*
Y329019D01*
X107300D01*
Y329067D01*
X107348D01*
Y329114D01*
X107395D01*
Y329162D01*
X107443D01*
Y329210D01*
X107491D01*
Y329258D01*
X107539D01*
Y329306D01*
X107587D01*
Y329354D01*
X107635D01*
Y329402D01*
X107683D01*
Y329450D01*
X107731D01*
Y329498D01*
X107779D01*
Y329546D01*
X107827D01*
Y329641D01*
X107874D01*
Y329689D01*
X107922D01*
Y329737D01*
X107970D01*
Y329833D01*
X108018D01*
Y329881D01*
X108066D01*
Y329977D01*
X108114D01*
Y330024D01*
X108162D01*
Y330120D01*
X108210D01*
Y330216D01*
X108258D01*
Y330312D01*
X108306D01*
Y330408D01*
X108354D01*
Y330504D01*
X108401D01*
Y330599D01*
X108449D01*
Y330743D01*
X108497D01*
Y330887D01*
X108545D01*
Y330982D01*
X108593D01*
Y331174D01*
X108641D01*
Y331318D01*
X108689D01*
Y331509D01*
X108737D01*
Y331797D01*
X108785D01*
Y331988D01*
X108833D01*
Y332276D01*
X108880D01*
Y332755D01*
X108833D01*
Y332803D01*
X108785D01*
Y332755D01*
X108737D01*
Y332707D01*
X108689D01*
Y332611D01*
X108641D01*
Y332563D01*
X108593D01*
Y332467D01*
X108545D01*
Y332371D01*
X108497D01*
Y332324D01*
X108449D01*
Y332228D01*
X108401D01*
Y332180D01*
X108354D01*
Y332132D01*
X108306D01*
Y332084D01*
X108258D01*
Y332036D01*
X108210D01*
Y331988D01*
X108162D01*
Y331940D01*
X108114D01*
Y331893D01*
X108066D01*
Y331845D01*
X108018D01*
Y331797D01*
X107970D01*
Y331749D01*
X107922D01*
Y331701D01*
X107827D01*
Y331653D01*
X107779D01*
Y331605D01*
X107731D01*
Y331557D01*
X107635D01*
Y331509D01*
X107587D01*
Y331461D01*
X107491D01*
Y331413D01*
X107395D01*
Y331366D01*
X107300D01*
Y331318D01*
X107156D01*
Y331270D01*
X106964D01*
Y331222D01*
X106438D01*
Y331270D01*
X106342D01*
Y331318D01*
X106246D01*
Y331366D01*
X106150D01*
Y331413D01*
X106102D01*
Y331461D01*
X106054D01*
Y331509D01*
X106006D01*
Y331557D01*
X105959D01*
Y331605D01*
X105911D01*
Y331701D01*
X105863D01*
Y331749D01*
X105815D01*
Y331893D01*
X105767D01*
Y332036D01*
X105719D01*
Y332563D01*
X105767D01*
Y332755D01*
X105815D01*
Y332898D01*
X105863D01*
Y332946D01*
X105911D01*
Y333090D01*
X105959D01*
Y333138D01*
X106006D01*
Y333234D01*
X106054D01*
Y333330D01*
X106102D01*
Y333377D01*
X106150D01*
Y333473D01*
X106198D01*
Y333521D01*
X106246D01*
Y333569D01*
X106294D01*
Y333665D01*
X106342D01*
Y333713D01*
X106390D01*
Y333809D01*
X106438D01*
Y333856D01*
X106486D01*
Y333952D01*
X106533D01*
Y334000D01*
X106581D01*
Y334096D01*
X106629D01*
Y334144D01*
X106677D01*
Y334240D01*
X106725D01*
Y334287D01*
X106773D01*
Y334383D01*
X106821D01*
Y334479D01*
X106869D01*
Y334527D01*
X106917D01*
Y334623D01*
X106964D01*
Y334719D01*
X107012D01*
Y334814D01*
X107060D01*
Y334958D01*
X107108D01*
Y335054D01*
X107156D01*
Y335197D01*
X107204D01*
Y335389D01*
X107252D01*
Y335581D01*
X107300D01*
Y335772D01*
X107252D01*
Y335820D01*
X107204D01*
Y335772D01*
X107156D01*
Y335724D01*
X107108D01*
Y335676D01*
X107060D01*
Y335629D01*
X107012D01*
Y335533D01*
X106964D01*
Y335485D01*
X106917D01*
Y335389D01*
X106869D01*
Y335341D01*
X106821D01*
Y335245D01*
X106773D01*
Y335197D01*
X106725D01*
Y335102D01*
X106677D01*
Y335054D01*
X106629D01*
Y335006D01*
X106581D01*
Y334958D01*
X106533D01*
Y334862D01*
X106486D01*
Y334814D01*
X106438D01*
Y334766D01*
X106390D01*
Y334719D01*
X106342D01*
Y334671D01*
X106294D01*
Y334623D01*
X106246D01*
Y334575D01*
X106198D01*
Y334527D01*
X106150D01*
Y334479D01*
X106054D01*
Y334431D01*
X106006D01*
Y334383D01*
X105959D01*
Y334335D01*
X105911D01*
Y334287D01*
X105863D01*
Y334240D01*
X105815D01*
Y334192D01*
X105719D01*
Y334144D01*
X105671D01*
Y334096D01*
X105623D01*
Y334048D01*
X105575D01*
Y334000D01*
X105480D01*
Y333952D01*
X105432D01*
Y333904D01*
X105384D01*
Y333856D01*
X105288D01*
Y333809D01*
X105240D01*
Y333760D01*
X105192D01*
Y333713D01*
X105096D01*
Y333665D01*
X105049D01*
Y333617D01*
X105001D01*
Y333569D01*
X104905D01*
Y333521D01*
X104857D01*
Y333473D01*
X104809D01*
Y333425D01*
X104713D01*
Y333377D01*
X104665D01*
Y333330D01*
X104617D01*
Y333282D01*
X104522D01*
Y333234D01*
X104474D01*
Y333186D01*
X104426D01*
Y333138D01*
X104378D01*
Y333090D01*
X104282D01*
Y333042D01*
X104234D01*
Y332994D01*
X104186D01*
Y332946D01*
X104138D01*
Y332898D01*
X104090D01*
Y332850D01*
X103995D01*
Y332803D01*
X103947D01*
Y332755D01*
X103899D01*
Y332707D01*
X103851D01*
Y332659D01*
X103803D01*
Y332611D01*
X103755D01*
Y332563D01*
X103707D01*
Y332515D01*
X103659D01*
Y332467D01*
X103612D01*
Y332419D01*
X103564D01*
Y332371D01*
X103516D01*
Y332324D01*
X103468D01*
Y332276D01*
X103420D01*
Y332228D01*
X103372D01*
Y332180D01*
X103324D01*
Y332084D01*
X103276D01*
Y332036D01*
X103228D01*
Y331988D01*
X103181D01*
Y331940D01*
X103133D01*
Y331845D01*
X103085D01*
Y331797D01*
X103037D01*
Y331701D01*
X102989D01*
Y331605D01*
X102941D01*
Y331557D01*
X102893D01*
Y331461D01*
X102845D01*
Y331318D01*
X102797D01*
Y331222D01*
X102749D01*
Y331126D01*
X102702D01*
Y330934D01*
X102654D01*
Y330791D01*
X102606D01*
Y330504D01*
X102558D01*
Y329306D01*
X102510D01*
Y329114D01*
X102462D01*
Y329067D01*
X102318D01*
Y329114D01*
X102270D01*
Y329210D01*
X102222D01*
Y329402D01*
X102175D01*
Y329593D01*
X102127D01*
Y329737D01*
X102079D01*
Y330072D01*
X102031D01*
Y330264D01*
X101983D01*
Y330551D01*
X101935D01*
Y332132D01*
X101983D01*
Y332419D01*
X102031D01*
Y332611D01*
X102079D01*
Y332850D01*
X102127D01*
Y332994D01*
X102175D01*
Y333090D01*
X102222D01*
Y333282D01*
X102270D01*
Y333330D01*
X102318D01*
Y333473D01*
X102366D01*
Y333617D01*
X102414D01*
Y333665D01*
X102462D01*
Y333809D01*
X102510D01*
Y333856D01*
X102558D01*
Y333952D01*
X102606D01*
Y334048D01*
X102654D01*
Y334096D01*
X102702D01*
Y334192D01*
X102749D01*
Y334287D01*
X102797D01*
Y334335D01*
X102845D01*
Y334431D01*
X102893D01*
Y334479D01*
X102941D01*
Y334527D01*
X102989D01*
Y334623D01*
X103037D01*
Y334671D01*
X103085D01*
Y334719D01*
X103133D01*
Y334766D01*
X103181D01*
Y334814D01*
X103228D01*
Y334910D01*
X103276D01*
Y334958D01*
X103324D01*
Y335006D01*
X103372D01*
Y335054D01*
X103420D01*
Y335102D01*
X103468D01*
Y335150D01*
X103516D01*
Y335197D01*
X103564D01*
Y335245D01*
X103612D01*
Y335293D01*
X103659D01*
Y335341D01*
X103707D01*
Y335389D01*
X103755D01*
Y335437D01*
X103803D01*
Y335485D01*
X103851D01*
Y335533D01*
X103899D01*
Y335581D01*
X103947D01*
Y335629D01*
X103995D01*
Y335676D01*
X104090D01*
Y335724D01*
X104138D01*
Y335772D01*
X104186D01*
Y335820D01*
X104234D01*
Y335868D01*
X104282D01*
Y335916D01*
X104378D01*
Y335964D01*
X104426D01*
Y336012D01*
X104474D01*
Y336060D01*
X104570D01*
Y336108D01*
X104617D01*
Y336156D01*
X104665D01*
Y336203D01*
X104761D01*
Y336251D01*
X104809D01*
Y336299D01*
X104905D01*
Y336347D01*
X104953D01*
Y336395D01*
X105001D01*
Y336443D01*
X105096D01*
Y336491D01*
X105192D01*
Y336539D01*
X105240D01*
Y336587D01*
X105336D01*
Y336634D01*
X105384D01*
Y336682D01*
X105480D01*
Y336730D01*
X105575D01*
Y336778D01*
X105671D01*
Y336826D01*
X105767D01*
Y336874D01*
X105815D01*
Y336922D01*
X105911D01*
Y336970D01*
X106006D01*
Y337018D01*
X106102D01*
Y337066D01*
X106198D01*
Y337113D01*
X106294D01*
Y337161D01*
X106390D01*
Y337209D01*
X106486D01*
Y337257D01*
X106581D01*
Y337305D01*
X106677D01*
Y337353D01*
X106821D01*
Y337401D01*
X106869D01*
Y337449D01*
X107012D01*
Y337497D01*
X107108D01*
Y337545D01*
X107204D01*
Y337592D01*
X107348D01*
Y337640D01*
X107443D01*
Y337688D01*
X107587D01*
Y337736D01*
X107731D01*
Y337784D01*
X107827D01*
Y337832D01*
X108018D01*
Y337880D01*
X108162D01*
Y337928D01*
X108306D01*
Y337976D01*
X108497D01*
Y338023D01*
X108641D01*
Y338071D01*
X108785D01*
Y338119D01*
X109024D01*
Y338167D01*
X109168D01*
Y338215D01*
X109359D01*
Y338263D01*
X109551D01*
Y338311D01*
X109695D01*
Y338359D01*
X109934D01*
Y338407D01*
X110126D01*
Y338455D01*
X110269D01*
Y338503D01*
X110509D01*
Y338550D01*
X110653D01*
Y338598D01*
X110844D01*
Y338646D01*
X110988D01*
Y338694D01*
X111132D01*
Y338742D01*
X111323D01*
Y338790D01*
X111467D01*
Y338838D01*
X111611D01*
Y338886D01*
X111754D01*
Y338934D01*
X111850D01*
Y338982D01*
X112042D01*
Y339029D01*
X112137D01*
Y339077D01*
X112233D01*
Y339125D01*
X112377D01*
Y339173D01*
X112473D01*
Y339221D01*
X112569D01*
Y339269D01*
X112712D01*
Y339317D01*
X112760D01*
Y339365D01*
X112904D01*
Y339413D01*
X113000D01*
Y339460D01*
X113048D01*
Y339508D01*
X113143D01*
Y339556D01*
X113239D01*
Y339604D01*
X113287D01*
Y339652D01*
X113383D01*
Y339700D01*
X113431D01*
Y339748D01*
X113526D01*
Y339796D01*
X113574D01*
Y339844D01*
X113670D01*
Y339892D01*
X113718D01*
Y339939D01*
X113766D01*
Y339987D01*
X113814D01*
Y340035D01*
X113910D01*
Y340083D01*
X113958D01*
Y340131D01*
X114005D01*
Y340179D01*
X114053D01*
Y340227D01*
X114101D01*
Y340275D01*
X114149D01*
Y340323D01*
X114197D01*
Y340370D01*
X114245D01*
Y340418D01*
X114293D01*
Y340466D01*
X114341D01*
Y340610D01*
X114389D01*
Y340706D01*
X114437D01*
Y340802D01*
X114628D01*
Y340754D01*
D02*
G37*
G36*
X124926Y326516D02*
X124974D01*
Y317367D01*
X124926D01*
Y317223D01*
X124879D01*
Y316888D01*
X124831D01*
Y316792D01*
X124783D01*
Y316696D01*
X124831D01*
Y316648D01*
X124783D01*
Y316553D01*
X124735D01*
Y316313D01*
X124639D01*
Y316122D01*
X124591D01*
Y315930D01*
X124495D01*
Y315786D01*
X124399D01*
Y315738D01*
X124447D01*
Y315690D01*
X124399D01*
Y315643D01*
X124352D01*
Y315499D01*
X124304D01*
Y315451D01*
X124256D01*
Y315355D01*
X124208D01*
Y315259D01*
X124112D01*
Y315163D01*
X124064D01*
Y315068D01*
X124016D01*
Y315020D01*
X123968D01*
Y314972D01*
X123920D01*
Y314924D01*
X123873D01*
Y314876D01*
X123825D01*
Y314828D01*
X123777D01*
Y314780D01*
X123729D01*
Y314732D01*
X123681D01*
Y314685D01*
X123633D01*
Y314637D01*
X123585D01*
Y314589D01*
X123537D01*
Y314541D01*
X123489D01*
Y314493D01*
X123441D01*
Y314445D01*
X123394D01*
Y314397D01*
X123346D01*
Y314349D01*
X123298D01*
Y314301D01*
X123202D01*
Y314253D01*
X123154D01*
Y314205D01*
X123106D01*
Y314158D01*
X123058D01*
Y314110D01*
X122963D01*
Y314062D01*
X122867D01*
Y314014D01*
X122819D01*
Y313966D01*
X122723D01*
Y313918D01*
X122627D01*
Y313870D01*
X122579D01*
Y313822D01*
X122436D01*
Y313775D01*
X122340D01*
Y313727D01*
X122292D01*
Y313679D01*
X122148D01*
Y313631D01*
X122100D01*
Y313583D01*
X121957D01*
Y313535D01*
X121765D01*
Y313439D01*
X121573D01*
Y313391D01*
X121382D01*
Y313343D01*
X121286D01*
Y313295D01*
X121047D01*
Y313248D01*
X120999D01*
Y313200D01*
X120711D01*
Y313152D01*
X120328D01*
Y313104D01*
X120280D01*
Y313056D01*
X119753D01*
Y313008D01*
X119514D01*
Y312960D01*
X119370D01*
Y313008D01*
X117789D01*
Y312960D01*
X117694D01*
Y313008D01*
X117406D01*
Y313056D01*
X116879D01*
Y313104D01*
X116832D01*
Y313152D01*
X116448D01*
Y313200D01*
X116161D01*
Y313248D01*
X116113D01*
Y313295D01*
X115874D01*
Y313343D01*
X115826D01*
Y313391D01*
X115730D01*
Y313343D01*
X115682D01*
Y313391D01*
X115586D01*
Y313439D01*
X115395D01*
Y313535D01*
X115203D01*
Y313583D01*
X115059D01*
Y313631D01*
X115011D01*
Y313679D01*
X114868D01*
Y313727D01*
X114772D01*
Y313775D01*
X114724D01*
Y313822D01*
X114580D01*
Y313918D01*
X114437D01*
Y313966D01*
X114341D01*
Y314014D01*
X114293D01*
Y314062D01*
X114197D01*
Y314110D01*
X114149D01*
Y314158D01*
X114101D01*
Y314205D01*
X114005D01*
Y314253D01*
X113958D01*
Y314301D01*
X113862D01*
Y314349D01*
X113814D01*
Y314445D01*
X113718D01*
Y314541D01*
X113622D01*
Y314589D01*
X113526D01*
Y314637D01*
X113574D01*
Y314685D01*
X113479D01*
Y314732D01*
X113431D01*
Y314780D01*
X113383D01*
Y314828D01*
X113335D01*
Y314924D01*
X113239D01*
Y315020D01*
X113143D01*
Y315116D01*
X113095D01*
Y315163D01*
X113048D01*
Y315211D01*
X113000D01*
Y315307D01*
X112952D01*
Y315355D01*
X112904D01*
Y315451D01*
X112856D01*
Y315547D01*
X112808D01*
Y315595D01*
X112760D01*
Y315738D01*
X112712D01*
Y315882D01*
X112617D01*
Y316074D01*
X112521D01*
Y316265D01*
X112473D01*
Y316457D01*
X112425D01*
Y316505D01*
X112377D01*
Y316744D01*
X112329D01*
Y316840D01*
X112281D01*
Y316936D01*
X112329D01*
Y317031D01*
X112281D01*
Y317175D01*
X112233D01*
Y317702D01*
X112185D01*
Y326516D01*
X112281D01*
Y326611D01*
X115682D01*
Y326563D01*
X115730D01*
Y326516D01*
X115778D01*
Y326611D01*
X115826D01*
Y317750D01*
X115874D01*
Y317654D01*
X115921D01*
Y317367D01*
X115969D01*
Y317271D01*
X116017D01*
Y317223D01*
X115969D01*
Y317175D01*
X116017D01*
Y317127D01*
X116065D01*
Y316936D01*
X116161D01*
Y316840D01*
X116113D01*
Y316792D01*
X116209D01*
Y316696D01*
X116257D01*
Y316648D01*
X116305D01*
Y316553D01*
X116353D01*
Y316505D01*
X116400D01*
Y316457D01*
X116448D01*
Y316361D01*
X116496D01*
Y316265D01*
X116592D01*
Y316217D01*
X116640D01*
Y316122D01*
X116736D01*
Y316074D01*
X116832D01*
Y316026D01*
X116879D01*
Y315978D01*
X116927D01*
Y315930D01*
X116975D01*
Y315882D01*
X117071D01*
Y315834D01*
X117167D01*
Y315786D01*
X117215D01*
Y315738D01*
X117358D01*
Y315690D01*
X117502D01*
Y315643D01*
X117550D01*
Y315595D01*
X117837D01*
Y315547D01*
X117885D01*
Y315499D01*
X118029D01*
Y315547D01*
X118173D01*
Y315499D01*
X118987D01*
Y315547D01*
X119179D01*
Y315499D01*
X119274D01*
Y315547D01*
X119370D01*
Y315595D01*
X119610D01*
Y315643D01*
X119657D01*
Y315690D01*
X119801D01*
Y315738D01*
X119945D01*
Y315786D01*
X119993D01*
Y315834D01*
X120089D01*
Y315882D01*
X120232D01*
Y315978D01*
X120328D01*
Y316026D01*
X120376D01*
Y316074D01*
X120424D01*
Y316122D01*
X120520D01*
Y316217D01*
X120616D01*
Y316313D01*
X120663D01*
Y316361D01*
X120711D01*
Y316457D01*
X120807D01*
Y316553D01*
X120855D01*
Y316600D01*
X120903D01*
Y316696D01*
X120951D01*
Y316792D01*
X120999D01*
Y316840D01*
X121047D01*
Y316984D01*
X121095D01*
Y317031D01*
X121142D01*
Y317080D01*
X121095D01*
Y317127D01*
X121142D01*
Y317175D01*
X121190D01*
Y317415D01*
X121238D01*
Y317463D01*
X121286D01*
Y317846D01*
X121334D01*
Y326516D01*
X121382D01*
Y326611D01*
X124926D01*
Y326516D01*
D02*
G37*
G36*
X110365Y324025D02*
X106246D01*
Y323977D01*
X106198D01*
Y313200D01*
X102462D01*
Y318612D01*
Y318660D01*
Y323977D01*
X102414D01*
Y324025D01*
X98295D01*
Y324073D01*
X98247D01*
Y324168D01*
X98295D01*
Y326516D01*
X98247D01*
Y326563D01*
X98295D01*
Y326659D01*
X110365D01*
Y324025D01*
D02*
G37*
G36*
X121889Y310843D02*
X122004D01*
Y310814D01*
X122147D01*
Y310786D01*
X122233D01*
Y310757D01*
X122262D01*
Y309926D01*
X122233D01*
Y309897D01*
X121918D01*
Y309926D01*
X121488D01*
Y309897D01*
X121287D01*
Y309869D01*
X121173D01*
Y309840D01*
X121116D01*
Y309811D01*
X121058D01*
Y309783D01*
X121001D01*
Y309754D01*
X120972D01*
Y309725D01*
X120943D01*
Y309668D01*
X120915D01*
Y309639D01*
X120886D01*
Y309582D01*
X120858D01*
Y309496D01*
X120829D01*
Y309382D01*
X120800D01*
Y308293D01*
X120829D01*
Y308264D01*
X122090D01*
Y307519D01*
X120800D01*
Y302676D01*
X119711D01*
Y303106D01*
Y303134D01*
Y307519D01*
X118651D01*
Y308264D01*
X119683D01*
Y308293D01*
X119711D01*
Y309410D01*
X119740D01*
Y309639D01*
X119769D01*
Y309783D01*
X119797D01*
Y309897D01*
X119826D01*
Y309955D01*
X119855D01*
Y310041D01*
X119883D01*
Y310098D01*
X119912D01*
Y310127D01*
X119941D01*
Y310184D01*
X119969D01*
Y310241D01*
X119998D01*
Y310270D01*
X120027D01*
Y310327D01*
X120055D01*
Y310356D01*
X120084D01*
Y310385D01*
X120112D01*
Y310413D01*
X120141D01*
Y310442D01*
X120170D01*
Y310471D01*
X120198D01*
Y310499D01*
X120256D01*
Y310528D01*
X120284D01*
Y310557D01*
X120313D01*
Y310585D01*
X120370D01*
Y310614D01*
X120399D01*
Y310643D01*
X120456D01*
Y310671D01*
X120514D01*
Y310700D01*
X120571D01*
Y310728D01*
X120657D01*
Y310757D01*
X120714D01*
Y310786D01*
X120800D01*
Y310814D01*
X120915D01*
Y310843D01*
X121030D01*
Y310872D01*
X121889D01*
Y310843D01*
D02*
G37*
G36*
X117476Y302676D02*
X116416D01*
Y310270D01*
Y310299D01*
Y310728D01*
X117476D01*
Y302676D01*
D02*
G37*
G36*
X105469Y310700D02*
X105870D01*
Y310671D01*
X106042D01*
Y310643D01*
X106242D01*
Y310614D01*
X106328D01*
Y310585D01*
X106443D01*
Y310557D01*
X106586D01*
Y310528D01*
X106644D01*
Y310499D01*
X106730D01*
Y310471D01*
X106816D01*
Y310442D01*
X106873D01*
Y310413D01*
X106959D01*
Y310385D01*
X107016D01*
Y310356D01*
X107073D01*
Y310327D01*
X107159D01*
Y310299D01*
X107188D01*
Y310270D01*
X107245D01*
Y310241D01*
X107303D01*
Y310213D01*
X107360D01*
Y310184D01*
X107417D01*
Y310155D01*
X107446D01*
Y310127D01*
X107475D01*
Y310098D01*
X107532D01*
Y310069D01*
X107561D01*
Y310041D01*
X107618D01*
Y310012D01*
X107647D01*
Y309983D01*
X107675D01*
Y309955D01*
X107704D01*
Y309926D01*
X107761D01*
Y309897D01*
X107790D01*
Y309869D01*
X107819D01*
Y309840D01*
X107847D01*
Y309811D01*
X107876D01*
Y309783D01*
X107905D01*
Y309754D01*
X107933D01*
Y309725D01*
X107962D01*
Y309697D01*
X107991D01*
Y309668D01*
X108019D01*
Y309639D01*
X108048D01*
Y309611D01*
X108076D01*
Y309582D01*
X108105D01*
Y309525D01*
X108134D01*
Y309496D01*
X108162D01*
Y309468D01*
X108191D01*
Y309439D01*
X108220D01*
Y309410D01*
X108248D01*
Y309353D01*
X108277D01*
Y309324D01*
X108306D01*
Y309267D01*
X108334D01*
Y309238D01*
X108363D01*
Y309181D01*
X108392D01*
Y309124D01*
X108420D01*
Y309095D01*
X108449D01*
Y309038D01*
X108478D01*
Y308980D01*
X108506D01*
Y308923D01*
X108535D01*
Y308866D01*
X108564D01*
Y308808D01*
X108592D01*
Y308780D01*
X108621D01*
Y308694D01*
X108650D01*
Y308608D01*
X108678D01*
Y308550D01*
X108707D01*
Y308465D01*
X108736D01*
Y308407D01*
X108764D01*
Y308321D01*
X108793D01*
Y308293D01*
Y308264D01*
Y308207D01*
X108822D01*
Y308121D01*
X108850D01*
Y308006D01*
X108879D01*
Y307891D01*
X108907D01*
Y307777D01*
X108936D01*
Y307605D01*
X108965D01*
Y307433D01*
X108994D01*
Y307175D01*
X109022D01*
Y307146D01*
X108994D01*
Y307089D01*
X109022D01*
Y306315D01*
X108994D01*
Y306258D01*
X109022D01*
Y306201D01*
X108994D01*
Y305971D01*
X108965D01*
Y305799D01*
X108936D01*
Y305599D01*
X108907D01*
Y305513D01*
X108879D01*
Y305370D01*
X108850D01*
Y305255D01*
X108822D01*
Y305169D01*
X108793D01*
Y305083D01*
X108764D01*
Y304997D01*
X108736D01*
Y304911D01*
X108707D01*
Y304825D01*
X108678D01*
Y304768D01*
X108650D01*
Y304711D01*
X108621D01*
Y304625D01*
X108592D01*
Y304567D01*
X108564D01*
Y304510D01*
X108535D01*
Y304453D01*
X108506D01*
Y304395D01*
X108478D01*
Y304338D01*
X108449D01*
Y304309D01*
X108420D01*
Y304252D01*
X108392D01*
Y304195D01*
X108363D01*
Y304166D01*
X108334D01*
Y304109D01*
X108306D01*
Y304080D01*
X108277D01*
Y304023D01*
X108248D01*
Y303994D01*
X108220D01*
Y303965D01*
X108191D01*
Y303908D01*
X108162D01*
Y303879D01*
X108134D01*
Y303851D01*
X108105D01*
Y303822D01*
X108076D01*
Y303793D01*
X108048D01*
Y303765D01*
X108019D01*
Y303708D01*
X107991D01*
Y303679D01*
X107962D01*
Y303650D01*
X107933D01*
Y303622D01*
X107905D01*
Y303593D01*
X107876D01*
Y303564D01*
X107847D01*
Y303535D01*
X107790D01*
Y303507D01*
X107761D01*
Y303478D01*
X107733D01*
Y303450D01*
X107704D01*
Y303421D01*
X107675D01*
Y303392D01*
X107618D01*
Y303364D01*
X107589D01*
Y303335D01*
X107561D01*
Y303306D01*
X107503D01*
Y303278D01*
X107475D01*
Y303249D01*
X107417D01*
Y303220D01*
X107360D01*
Y303192D01*
X107331D01*
Y303163D01*
X107274D01*
Y303134D01*
X107217D01*
Y303106D01*
X107188D01*
Y303077D01*
X107131D01*
Y303048D01*
X107073D01*
Y303020D01*
X106987D01*
Y302991D01*
X106930D01*
Y302962D01*
X106873D01*
Y302934D01*
X106787D01*
Y302905D01*
X106701D01*
Y302876D01*
X106615D01*
Y302848D01*
X106529D01*
Y302819D01*
X106414D01*
Y302790D01*
X106300D01*
Y302762D01*
X106128D01*
Y302733D01*
X106013D01*
Y302705D01*
X105698D01*
Y302676D01*
X102431D01*
Y310728D01*
X105469D01*
Y310700D01*
D02*
G37*
G36*
X125326Y309725D02*
Y309697D01*
Y308293D01*
X125354D01*
Y308264D01*
X126644D01*
Y307547D01*
X126615D01*
Y307519D01*
X125326D01*
Y303822D01*
X125354D01*
Y303679D01*
X125383D01*
Y303622D01*
X125412D01*
Y303593D01*
X125440D01*
Y303535D01*
X125469D01*
Y303507D01*
X125498D01*
Y303478D01*
X125555D01*
Y303450D01*
X125584D01*
Y303421D01*
X125641D01*
Y303392D01*
X125698D01*
Y303364D01*
X125813D01*
Y303335D01*
X125985D01*
Y303306D01*
X126071D01*
Y303335D01*
X126357D01*
Y303364D01*
X126501D01*
Y303392D01*
X126587D01*
Y302561D01*
X126472D01*
Y302533D01*
X126243D01*
Y302504D01*
X125440D01*
Y302533D01*
X125211D01*
Y302561D01*
X125096D01*
Y302590D01*
X124982D01*
Y302619D01*
X124896D01*
Y302647D01*
X124838D01*
Y302676D01*
X124781D01*
Y302705D01*
X124724D01*
Y302733D01*
X124667D01*
Y302762D01*
X124638D01*
Y302790D01*
X124581D01*
Y302819D01*
X124552D01*
Y302848D01*
X124523D01*
Y302876D01*
X124495D01*
Y302934D01*
X124466D01*
Y302962D01*
X124437D01*
Y303020D01*
X124409D01*
Y303048D01*
X124380D01*
Y303106D01*
X124351D01*
Y303192D01*
X124323D01*
Y303278D01*
X124294D01*
Y303450D01*
X124265D01*
Y307490D01*
X124237D01*
Y307519D01*
X123291D01*
Y308264D01*
X124237D01*
Y308293D01*
X124265D01*
Y309468D01*
X124323D01*
Y309496D01*
X124409D01*
Y309525D01*
X124495D01*
Y309554D01*
X124581D01*
Y309582D01*
X124695D01*
Y309611D01*
X124781D01*
Y309639D01*
X124867D01*
Y309668D01*
X124953D01*
Y309697D01*
X125039D01*
Y309725D01*
X125154D01*
Y309754D01*
X125240D01*
Y309783D01*
X125326D01*
Y309725D01*
D02*
G37*
G36*
X113006Y308407D02*
X113206D01*
Y308379D01*
X113321D01*
Y308350D01*
X113464D01*
Y308321D01*
X113550D01*
Y308293D01*
X113607D01*
Y308264D01*
X113722D01*
Y308235D01*
X113751D01*
Y308207D01*
X113837D01*
Y308178D01*
X113894D01*
Y308149D01*
X113951D01*
Y308121D01*
X114009D01*
Y308092D01*
X114037D01*
Y308063D01*
X114094D01*
Y308035D01*
X114123D01*
Y308006D01*
X114152D01*
Y307977D01*
X114209D01*
Y307949D01*
X114238D01*
Y307920D01*
X114266D01*
Y307891D01*
X114295D01*
Y307863D01*
X114324D01*
Y307834D01*
X114381D01*
Y307806D01*
X114410D01*
Y307777D01*
X114438D01*
Y307719D01*
X114467D01*
Y307691D01*
X114496D01*
Y307662D01*
X114524D01*
Y307633D01*
X114553D01*
Y307605D01*
X114582D01*
Y307576D01*
X114610D01*
Y307519D01*
X114639D01*
Y307490D01*
X114668D01*
Y307433D01*
X114696D01*
Y307404D01*
X114725D01*
Y307347D01*
X114754D01*
Y307290D01*
X114782D01*
Y307261D01*
X114811D01*
Y307204D01*
X114840D01*
Y307146D01*
X114868D01*
Y307089D01*
X114897D01*
Y307003D01*
X114925D01*
Y306946D01*
X114954D01*
Y306860D01*
X114983D01*
Y306745D01*
X115012D01*
Y306659D01*
X115040D01*
Y306516D01*
X115069D01*
Y306373D01*
X115098D01*
Y306172D01*
X115126D01*
Y305284D01*
X115098D01*
Y305255D01*
X111143D01*
Y304796D01*
X111171D01*
Y304625D01*
X111200D01*
Y304510D01*
X111229D01*
Y304367D01*
X111257D01*
Y304281D01*
X111286D01*
Y304195D01*
X111315D01*
Y304109D01*
X111343D01*
Y304080D01*
X111372D01*
Y303994D01*
X111401D01*
Y303937D01*
X111429D01*
Y303908D01*
X111458D01*
Y303851D01*
X111487D01*
Y303822D01*
X111515D01*
Y303765D01*
X111544D01*
Y303736D01*
X111573D01*
Y303708D01*
X111601D01*
Y303679D01*
X111630D01*
Y303622D01*
X111687D01*
Y303593D01*
X111716D01*
Y303564D01*
X111745D01*
Y303535D01*
X111773D01*
Y303507D01*
X111831D01*
Y303478D01*
X111859D01*
Y303450D01*
X111917D01*
Y303421D01*
X111974D01*
Y303392D01*
X112031D01*
Y303364D01*
X112117D01*
Y303335D01*
X112203D01*
Y303306D01*
X112404D01*
Y303278D01*
X112776D01*
Y303306D01*
X113034D01*
Y303335D01*
X113120D01*
Y303364D01*
X113206D01*
Y303392D01*
X113292D01*
Y303421D01*
X113349D01*
Y303450D01*
X113407D01*
Y303478D01*
X113435D01*
Y303507D01*
X113464D01*
Y303535D01*
X113521D01*
Y303564D01*
X113550D01*
Y303593D01*
X113579D01*
Y303622D01*
X113607D01*
Y303650D01*
X113636D01*
Y303679D01*
X113665D01*
Y303736D01*
X113693D01*
Y303765D01*
X113722D01*
Y303822D01*
X113751D01*
Y303879D01*
X113779D01*
Y303937D01*
X113808D01*
Y303994D01*
X113837D01*
Y304080D01*
X113865D01*
Y304166D01*
X113894D01*
Y304309D01*
X113923D01*
Y304395D01*
X113951D01*
Y304424D01*
X115040D01*
Y304395D01*
X115069D01*
Y304367D01*
X115040D01*
Y304195D01*
X115012D01*
Y304109D01*
X114983D01*
Y303994D01*
X114954D01*
Y303908D01*
X114925D01*
Y303822D01*
X114897D01*
Y303765D01*
X114868D01*
Y303708D01*
X114840D01*
Y303650D01*
X114811D01*
Y303593D01*
X114782D01*
Y303535D01*
X114754D01*
Y303507D01*
X114725D01*
Y303450D01*
X114696D01*
Y303421D01*
X114668D01*
Y303364D01*
X114639D01*
Y303335D01*
X114610D01*
Y303306D01*
X114582D01*
Y303249D01*
X114524D01*
Y303220D01*
X114496D01*
Y303163D01*
X114438D01*
Y303106D01*
X114410D01*
Y303077D01*
X114352D01*
Y303048D01*
X114324D01*
Y303020D01*
X114295D01*
Y302991D01*
X114238D01*
Y302962D01*
X114209D01*
Y302934D01*
X114180D01*
Y302905D01*
X114123D01*
Y302876D01*
X114094D01*
Y302848D01*
X114037D01*
Y302819D01*
X113980D01*
Y302790D01*
X113923D01*
Y302762D01*
X113865D01*
Y302733D01*
X113808D01*
Y302705D01*
X113722D01*
Y302676D01*
X113636D01*
Y302647D01*
X113550D01*
Y302619D01*
X113435D01*
Y302590D01*
X113321D01*
Y302561D01*
X113177D01*
Y302533D01*
X112948D01*
Y302504D01*
X112175D01*
Y302533D01*
X111974D01*
Y302561D01*
X111831D01*
Y302590D01*
X111745D01*
Y302619D01*
X111630D01*
Y302647D01*
X111544D01*
Y302676D01*
X111487D01*
Y302705D01*
X111401D01*
Y302733D01*
X111343D01*
Y302762D01*
X111286D01*
Y302790D01*
X111229D01*
Y302819D01*
X111200D01*
Y302848D01*
X111143D01*
Y302876D01*
X111114D01*
Y302905D01*
X111057D01*
Y302934D01*
X110999D01*
Y302962D01*
X110971D01*
Y302991D01*
X110942D01*
Y303020D01*
X110913D01*
Y303048D01*
X110885D01*
Y303077D01*
X110856D01*
Y303106D01*
X110828D01*
Y303134D01*
X110799D01*
Y303163D01*
X110770D01*
Y303192D01*
X110742D01*
Y303220D01*
X110713D01*
Y303249D01*
X110684D01*
Y303278D01*
X110656D01*
Y303306D01*
X110627D01*
Y303364D01*
X110598D01*
Y303392D01*
X110570D01*
Y303421D01*
X110541D01*
Y303478D01*
X110512D01*
Y303507D01*
X110484D01*
Y303564D01*
X110455D01*
Y303622D01*
X110426D01*
Y303650D01*
X110398D01*
Y303736D01*
X110369D01*
Y303793D01*
X110340D01*
Y303822D01*
X110312D01*
Y303908D01*
X110283D01*
Y303994D01*
X110254D01*
Y304051D01*
X110226D01*
Y304166D01*
X110197D01*
Y304252D01*
X110168D01*
Y304367D01*
X110140D01*
Y304510D01*
X110111D01*
Y304625D01*
X110083D01*
Y304911D01*
X110054D01*
Y305914D01*
X110083D01*
Y306172D01*
X110111D01*
Y306315D01*
X110140D01*
Y306430D01*
X110168D01*
Y306573D01*
X110197D01*
Y306630D01*
X110226D01*
Y306745D01*
X110254D01*
Y306831D01*
X110283D01*
Y306888D01*
X110312D01*
Y306974D01*
X110340D01*
Y307003D01*
X110369D01*
Y307089D01*
X110398D01*
Y307146D01*
X110426D01*
Y307175D01*
X110455D01*
Y307261D01*
X110484D01*
Y307290D01*
X110512D01*
Y307347D01*
X110541D01*
Y307376D01*
X110570D01*
Y307433D01*
X110598D01*
Y307462D01*
X110627D01*
Y307519D01*
X110656D01*
Y307547D01*
X110684D01*
Y307576D01*
X110713D01*
Y307605D01*
X110742D01*
Y307633D01*
X110770D01*
Y307691D01*
X110799D01*
Y307719D01*
X110828D01*
Y307748D01*
X110856D01*
Y307777D01*
X110885D01*
Y307806D01*
X110913D01*
Y307834D01*
X110942D01*
Y307863D01*
X110999D01*
Y307891D01*
X111028D01*
Y307920D01*
X111057D01*
Y307949D01*
X111086D01*
Y307977D01*
X111143D01*
Y308006D01*
X111171D01*
Y308035D01*
X111229D01*
Y308063D01*
X111257D01*
Y308092D01*
X111315D01*
Y308121D01*
X111372D01*
Y308149D01*
X111401D01*
Y308178D01*
X111458D01*
Y308207D01*
X111544D01*
Y308235D01*
X111601D01*
Y308264D01*
X111687D01*
Y308293D01*
X111773D01*
Y308321D01*
X111831D01*
Y308350D01*
X111974D01*
Y308379D01*
X112088D01*
Y308407D01*
X112289D01*
Y308436D01*
X113006D01*
Y308407D01*
D02*
G37*
G36*
X114628Y264673D02*
X114676D01*
Y264338D01*
X114628D01*
Y264146D01*
X114580D01*
Y263955D01*
X114532D01*
Y263907D01*
X114485D01*
Y263763D01*
X114437D01*
Y263715D01*
X114389D01*
Y263667D01*
X114341D01*
Y263571D01*
X114293D01*
Y263524D01*
X114245D01*
Y263428D01*
X114197D01*
Y263380D01*
X114149D01*
Y263332D01*
X114101D01*
Y263284D01*
X114053D01*
Y263236D01*
X114005D01*
Y263188D01*
X113958D01*
Y263140D01*
X113910D01*
Y263092D01*
X113862D01*
Y263044D01*
X113814D01*
Y262997D01*
X113766D01*
Y262949D01*
X113670D01*
Y262901D01*
X113622D01*
Y262853D01*
X113574D01*
Y262805D01*
X113526D01*
Y262757D01*
X113431D01*
Y262709D01*
X113383D01*
Y262661D01*
X113335D01*
Y262613D01*
X113287D01*
Y262565D01*
X113191D01*
Y262518D01*
X113143D01*
Y262470D01*
X113095D01*
Y262422D01*
X113000D01*
Y262374D01*
X112952D01*
Y262326D01*
X112904D01*
Y262278D01*
X112808D01*
Y262230D01*
X112760D01*
Y262182D01*
X112664D01*
Y262134D01*
X112617D01*
Y262087D01*
X112569D01*
Y262039D01*
X112473D01*
Y261991D01*
X112425D01*
Y261943D01*
X112329D01*
Y261895D01*
X112281D01*
Y261847D01*
X112185D01*
Y261799D01*
X112137D01*
Y261751D01*
X112042D01*
Y261703D01*
X111994D01*
Y261655D01*
X111946D01*
Y261607D01*
X111850D01*
Y261560D01*
X111802D01*
Y261512D01*
X111706D01*
Y261464D01*
X111658D01*
Y261416D01*
X111611D01*
Y261368D01*
X111515D01*
Y261320D01*
X111467D01*
Y261272D01*
X111371D01*
Y261224D01*
X111323D01*
Y261176D01*
X111275D01*
Y261129D01*
X111180D01*
Y261081D01*
X111132D01*
Y261033D01*
X111084D01*
Y260985D01*
X110988D01*
Y260937D01*
X110940D01*
Y260889D01*
X110892D01*
Y260841D01*
X110844D01*
Y260793D01*
X110796D01*
Y260745D01*
X110701D01*
Y260697D01*
X110653D01*
Y260650D01*
X110605D01*
Y260602D01*
X110557D01*
Y260554D01*
X110509D01*
Y260506D01*
X110461D01*
Y260458D01*
X110413D01*
Y260410D01*
X110365D01*
Y260362D01*
X110317D01*
Y260314D01*
X110269D01*
Y260266D01*
X110222D01*
Y260219D01*
X110174D01*
Y260170D01*
X110126D01*
Y260123D01*
X110078D01*
Y260075D01*
X110030D01*
Y259979D01*
X109982D01*
Y259931D01*
X109934D01*
Y259883D01*
X109886D01*
Y259787D01*
X109838D01*
Y259692D01*
X109790D01*
Y259644D01*
X109743D01*
Y259500D01*
X109695D01*
Y259404D01*
X109647D01*
Y259213D01*
X109599D01*
Y258638D01*
X109647D01*
Y258446D01*
X109695D01*
Y258350D01*
X109743D01*
Y258255D01*
X109790D01*
Y258207D01*
X109838D01*
Y258111D01*
X109886D01*
Y258063D01*
X109934D01*
Y258015D01*
X109982D01*
Y257967D01*
X110030D01*
Y257919D01*
X110126D01*
Y257871D01*
X110222D01*
Y257824D01*
X110317D01*
Y257776D01*
X110557D01*
Y257728D01*
X110988D01*
Y257776D01*
X111275D01*
Y257824D01*
X111467D01*
Y257871D01*
X111563D01*
Y257919D01*
X111706D01*
Y257967D01*
X111802D01*
Y258015D01*
X111898D01*
Y258063D01*
X111994D01*
Y258111D01*
X112042D01*
Y258159D01*
X112137D01*
Y258207D01*
X112185D01*
Y258255D01*
X112281D01*
Y258302D01*
X112329D01*
Y258350D01*
X112425D01*
Y258398D01*
X112473D01*
Y258446D01*
X112521D01*
Y258494D01*
X112617D01*
Y258542D01*
X112664D01*
Y258590D01*
X112712D01*
Y258638D01*
X112760D01*
Y258686D01*
X112808D01*
Y258734D01*
X112856D01*
Y258782D01*
X112904D01*
Y258829D01*
X113000D01*
Y258877D01*
X113095D01*
Y258829D01*
X113143D01*
Y258782D01*
X113191D01*
Y258590D01*
X113143D01*
Y258494D01*
X113095D01*
Y258350D01*
X113048D01*
Y258159D01*
X113000D01*
Y258063D01*
X112952D01*
Y257871D01*
X112904D01*
Y257776D01*
X112856D01*
Y257680D01*
X112808D01*
Y257536D01*
X112760D01*
Y257440D01*
X112712D01*
Y257344D01*
X112664D01*
Y257201D01*
X112617D01*
Y257153D01*
X112569D01*
Y257009D01*
X112521D01*
Y256914D01*
X112473D01*
Y256866D01*
X112425D01*
Y256722D01*
X112377D01*
Y256674D01*
X112329D01*
Y256578D01*
X112281D01*
Y256482D01*
X112233D01*
Y256434D01*
X112185D01*
Y256339D01*
X112137D01*
Y256243D01*
X112090D01*
Y256147D01*
X112042D01*
Y256099D01*
X111994D01*
Y256003D01*
X111946D01*
Y255956D01*
X111898D01*
Y255860D01*
X111850D01*
Y255764D01*
X111802D01*
Y255716D01*
X111754D01*
Y255620D01*
X111706D01*
Y255572D01*
X111658D01*
Y255476D01*
X111611D01*
Y255429D01*
X111563D01*
Y255381D01*
X111515D01*
Y255285D01*
X111467D01*
Y255237D01*
X111419D01*
Y255189D01*
X111371D01*
Y255093D01*
X111323D01*
Y255045D01*
X111275D01*
Y254998D01*
X111227D01*
Y254950D01*
X111180D01*
Y254902D01*
X111132D01*
Y254806D01*
X111084D01*
Y254758D01*
X111036D01*
Y254710D01*
X110988D01*
Y254662D01*
X110940D01*
Y254614D01*
X110892D01*
Y254519D01*
X110844D01*
Y254471D01*
X110796D01*
Y254423D01*
X110748D01*
Y254375D01*
X110701D01*
Y254327D01*
X110653D01*
Y254279D01*
X110605D01*
Y254231D01*
X110557D01*
Y254183D01*
X110509D01*
Y254135D01*
X110461D01*
Y254088D01*
X110413D01*
Y254039D01*
X110365D01*
Y253992D01*
X110317D01*
Y253944D01*
X110269D01*
Y253896D01*
X110222D01*
Y253848D01*
X110174D01*
Y253800D01*
X110126D01*
Y253752D01*
X110078D01*
Y253704D01*
X109982D01*
Y253656D01*
X109934D01*
Y253608D01*
X109886D01*
Y253561D01*
X109838D01*
Y253513D01*
X109790D01*
Y253465D01*
X109695D01*
Y253417D01*
X109647D01*
Y253369D01*
X109599D01*
Y253321D01*
X109503D01*
Y253273D01*
X109455D01*
Y253225D01*
X109407D01*
Y253177D01*
X109312D01*
Y253130D01*
X109264D01*
Y253082D01*
X109168D01*
Y253034D01*
X109120D01*
Y252986D01*
X109024D01*
Y252938D01*
X108976D01*
Y252890D01*
X108880D01*
Y252842D01*
X108785D01*
Y252794D01*
X108737D01*
Y252746D01*
X108641D01*
Y252698D01*
X108545D01*
Y252651D01*
X108449D01*
Y252603D01*
X108354D01*
Y252555D01*
X108210D01*
Y252507D01*
X108162D01*
Y252459D01*
X108018D01*
Y252411D01*
X107874D01*
Y252363D01*
X107731D01*
Y252315D01*
X107539D01*
Y252267D01*
X107395D01*
Y252219D01*
X107156D01*
Y252171D01*
X106773D01*
Y252124D01*
X106150D01*
Y252315D01*
X106198D01*
Y252363D01*
X106294D01*
Y252411D01*
X106390D01*
Y252459D01*
X106533D01*
Y252507D01*
X106581D01*
Y252555D01*
X106725D01*
Y252603D01*
X106821D01*
Y252651D01*
X106917D01*
Y252698D01*
X106964D01*
Y252746D01*
X107060D01*
Y252794D01*
X107108D01*
Y252842D01*
X107156D01*
Y252890D01*
X107204D01*
Y252938D01*
X107300D01*
Y252986D01*
X107348D01*
Y253034D01*
X107395D01*
Y253082D01*
X107443D01*
Y253130D01*
X107491D01*
Y253177D01*
X107539D01*
Y253225D01*
X107587D01*
Y253273D01*
X107635D01*
Y253321D01*
X107683D01*
Y253369D01*
X107731D01*
Y253417D01*
X107779D01*
Y253465D01*
X107827D01*
Y253561D01*
X107874D01*
Y253608D01*
X107922D01*
Y253656D01*
X107970D01*
Y253752D01*
X108018D01*
Y253800D01*
X108066D01*
Y253896D01*
X108114D01*
Y253944D01*
X108162D01*
Y254039D01*
X108210D01*
Y254135D01*
X108258D01*
Y254231D01*
X108306D01*
Y254327D01*
X108354D01*
Y254423D01*
X108401D01*
Y254519D01*
X108449D01*
Y254662D01*
X108497D01*
Y254806D01*
X108545D01*
Y254902D01*
X108593D01*
Y255093D01*
X108641D01*
Y255237D01*
X108689D01*
Y255429D01*
X108737D01*
Y255716D01*
X108785D01*
Y255908D01*
X108833D01*
Y256195D01*
X108880D01*
Y256674D01*
X108833D01*
Y256722D01*
X108785D01*
Y256674D01*
X108737D01*
Y256626D01*
X108689D01*
Y256530D01*
X108641D01*
Y256482D01*
X108593D01*
Y256387D01*
X108545D01*
Y256291D01*
X108497D01*
Y256243D01*
X108449D01*
Y256147D01*
X108401D01*
Y256099D01*
X108354D01*
Y256051D01*
X108306D01*
Y256003D01*
X108258D01*
Y255956D01*
X108210D01*
Y255908D01*
X108162D01*
Y255860D01*
X108114D01*
Y255812D01*
X108066D01*
Y255764D01*
X108018D01*
Y255716D01*
X107970D01*
Y255668D01*
X107922D01*
Y255620D01*
X107827D01*
Y255572D01*
X107779D01*
Y255524D01*
X107731D01*
Y255476D01*
X107635D01*
Y255429D01*
X107587D01*
Y255381D01*
X107491D01*
Y255333D01*
X107395D01*
Y255285D01*
X107300D01*
Y255237D01*
X107156D01*
Y255189D01*
X106964D01*
Y255141D01*
X106438D01*
Y255189D01*
X106342D01*
Y255237D01*
X106246D01*
Y255285D01*
X106150D01*
Y255333D01*
X106102D01*
Y255381D01*
X106054D01*
Y255429D01*
X106006D01*
Y255476D01*
X105959D01*
Y255524D01*
X105911D01*
Y255620D01*
X105863D01*
Y255668D01*
X105815D01*
Y255812D01*
X105767D01*
Y255956D01*
X105719D01*
Y256482D01*
X105767D01*
Y256674D01*
X105815D01*
Y256818D01*
X105863D01*
Y256866D01*
X105911D01*
Y257009D01*
X105959D01*
Y257057D01*
X106006D01*
Y257153D01*
X106054D01*
Y257249D01*
X106102D01*
Y257297D01*
X106150D01*
Y257392D01*
X106198D01*
Y257440D01*
X106246D01*
Y257488D01*
X106294D01*
Y257584D01*
X106342D01*
Y257632D01*
X106390D01*
Y257728D01*
X106438D01*
Y257776D01*
X106486D01*
Y257871D01*
X106533D01*
Y257919D01*
X106581D01*
Y258015D01*
X106629D01*
Y258063D01*
X106677D01*
Y258159D01*
X106725D01*
Y258207D01*
X106773D01*
Y258302D01*
X106821D01*
Y258398D01*
X106869D01*
Y258446D01*
X106917D01*
Y258542D01*
X106964D01*
Y258638D01*
X107012D01*
Y258734D01*
X107060D01*
Y258877D01*
X107108D01*
Y258973D01*
X107156D01*
Y259117D01*
X107204D01*
Y259308D01*
X107252D01*
Y259500D01*
X107300D01*
Y259692D01*
X107252D01*
Y259739D01*
X107204D01*
Y259692D01*
X107156D01*
Y259644D01*
X107108D01*
Y259596D01*
X107060D01*
Y259548D01*
X107012D01*
Y259452D01*
X106964D01*
Y259404D01*
X106917D01*
Y259308D01*
X106869D01*
Y259261D01*
X106821D01*
Y259165D01*
X106773D01*
Y259117D01*
X106725D01*
Y259021D01*
X106677D01*
Y258973D01*
X106629D01*
Y258925D01*
X106581D01*
Y258877D01*
X106533D01*
Y258782D01*
X106486D01*
Y258734D01*
X106438D01*
Y258686D01*
X106390D01*
Y258638D01*
X106342D01*
Y258590D01*
X106294D01*
Y258542D01*
X106246D01*
Y258494D01*
X106198D01*
Y258446D01*
X106150D01*
Y258398D01*
X106054D01*
Y258350D01*
X106006D01*
Y258302D01*
X105959D01*
Y258255D01*
X105911D01*
Y258207D01*
X105863D01*
Y258159D01*
X105815D01*
Y258111D01*
X105719D01*
Y258063D01*
X105671D01*
Y258015D01*
X105623D01*
Y257967D01*
X105575D01*
Y257919D01*
X105480D01*
Y257871D01*
X105432D01*
Y257824D01*
X105384D01*
Y257776D01*
X105288D01*
Y257728D01*
X105240D01*
Y257680D01*
X105192D01*
Y257632D01*
X105096D01*
Y257584D01*
X105049D01*
Y257536D01*
X105001D01*
Y257488D01*
X104905D01*
Y257440D01*
X104857D01*
Y257392D01*
X104809D01*
Y257344D01*
X104713D01*
Y257297D01*
X104665D01*
Y257249D01*
X104617D01*
Y257201D01*
X104522D01*
Y257153D01*
X104474D01*
Y257105D01*
X104426D01*
Y257057D01*
X104378D01*
Y257009D01*
X104282D01*
Y256961D01*
X104234D01*
Y256914D01*
X104186D01*
Y256866D01*
X104138D01*
Y256818D01*
X104090D01*
Y256770D01*
X103995D01*
Y256722D01*
X103947D01*
Y256674D01*
X103899D01*
Y256626D01*
X103851D01*
Y256578D01*
X103803D01*
Y256530D01*
X103755D01*
Y256482D01*
X103707D01*
Y256434D01*
X103659D01*
Y256387D01*
X103612D01*
Y256339D01*
X103564D01*
Y256291D01*
X103516D01*
Y256243D01*
X103468D01*
Y256195D01*
X103420D01*
Y256147D01*
X103372D01*
Y256099D01*
X103324D01*
Y256003D01*
X103276D01*
Y255956D01*
X103228D01*
Y255908D01*
X103181D01*
Y255860D01*
X103133D01*
Y255764D01*
X103085D01*
Y255716D01*
X103037D01*
Y255620D01*
X102989D01*
Y255524D01*
X102941D01*
Y255476D01*
X102893D01*
Y255381D01*
X102845D01*
Y255237D01*
X102797D01*
Y255141D01*
X102749D01*
Y255045D01*
X102702D01*
Y254854D01*
X102654D01*
Y254710D01*
X102606D01*
Y254423D01*
X102558D01*
Y253225D01*
X102510D01*
Y253034D01*
X102462D01*
Y252986D01*
X102318D01*
Y253034D01*
X102270D01*
Y253130D01*
X102222D01*
Y253321D01*
X102175D01*
Y253513D01*
X102127D01*
Y253656D01*
X102079D01*
Y253992D01*
X102031D01*
Y254183D01*
X101983D01*
Y254471D01*
X101935D01*
Y256051D01*
X101983D01*
Y256339D01*
X102031D01*
Y256530D01*
X102079D01*
Y256770D01*
X102127D01*
Y256914D01*
X102175D01*
Y257009D01*
X102222D01*
Y257201D01*
X102270D01*
Y257249D01*
X102318D01*
Y257392D01*
X102366D01*
Y257536D01*
X102414D01*
Y257584D01*
X102462D01*
Y257728D01*
X102510D01*
Y257776D01*
X102558D01*
Y257871D01*
X102606D01*
Y257967D01*
X102654D01*
Y258015D01*
X102702D01*
Y258111D01*
X102749D01*
Y258207D01*
X102797D01*
Y258255D01*
X102845D01*
Y258350D01*
X102893D01*
Y258398D01*
X102941D01*
Y258446D01*
X102989D01*
Y258542D01*
X103037D01*
Y258590D01*
X103085D01*
Y258638D01*
X103133D01*
Y258686D01*
X103181D01*
Y258734D01*
X103228D01*
Y258829D01*
X103276D01*
Y258877D01*
X103324D01*
Y258925D01*
X103372D01*
Y258973D01*
X103420D01*
Y259021D01*
X103468D01*
Y259069D01*
X103516D01*
Y259117D01*
X103564D01*
Y259165D01*
X103612D01*
Y259213D01*
X103659D01*
Y259261D01*
X103707D01*
Y259308D01*
X103755D01*
Y259356D01*
X103803D01*
Y259404D01*
X103851D01*
Y259452D01*
X103899D01*
Y259500D01*
X103947D01*
Y259548D01*
X103995D01*
Y259596D01*
X104090D01*
Y259644D01*
X104138D01*
Y259692D01*
X104186D01*
Y259739D01*
X104234D01*
Y259787D01*
X104282D01*
Y259835D01*
X104378D01*
Y259883D01*
X104426D01*
Y259931D01*
X104474D01*
Y259979D01*
X104570D01*
Y260027D01*
X104617D01*
Y260075D01*
X104665D01*
Y260123D01*
X104761D01*
Y260170D01*
X104809D01*
Y260219D01*
X104905D01*
Y260266D01*
X104953D01*
Y260314D01*
X105001D01*
Y260362D01*
X105096D01*
Y260410D01*
X105192D01*
Y260458D01*
X105240D01*
Y260506D01*
X105336D01*
Y260554D01*
X105384D01*
Y260602D01*
X105480D01*
Y260650D01*
X105575D01*
Y260697D01*
X105671D01*
Y260745D01*
X105767D01*
Y260793D01*
X105815D01*
Y260841D01*
X105911D01*
Y260889D01*
X106006D01*
Y260937D01*
X106102D01*
Y260985D01*
X106198D01*
Y261033D01*
X106294D01*
Y261081D01*
X106390D01*
Y261129D01*
X106486D01*
Y261176D01*
X106581D01*
Y261224D01*
X106677D01*
Y261272D01*
X106821D01*
Y261320D01*
X106869D01*
Y261368D01*
X107012D01*
Y261416D01*
X107108D01*
Y261464D01*
X107204D01*
Y261512D01*
X107348D01*
Y261560D01*
X107443D01*
Y261607D01*
X107587D01*
Y261655D01*
X107731D01*
Y261703D01*
X107827D01*
Y261751D01*
X108018D01*
Y261799D01*
X108162D01*
Y261847D01*
X108306D01*
Y261895D01*
X108497D01*
Y261943D01*
X108641D01*
Y261991D01*
X108785D01*
Y262039D01*
X109024D01*
Y262087D01*
X109168D01*
Y262134D01*
X109359D01*
Y262182D01*
X109551D01*
Y262230D01*
X109695D01*
Y262278D01*
X109934D01*
Y262326D01*
X110126D01*
Y262374D01*
X110269D01*
Y262422D01*
X110509D01*
Y262470D01*
X110653D01*
Y262518D01*
X110844D01*
Y262565D01*
X110988D01*
Y262613D01*
X111132D01*
Y262661D01*
X111323D01*
Y262709D01*
X111467D01*
Y262757D01*
X111611D01*
Y262805D01*
X111754D01*
Y262853D01*
X111850D01*
Y262901D01*
X112042D01*
Y262949D01*
X112137D01*
Y262997D01*
X112233D01*
Y263044D01*
X112377D01*
Y263092D01*
X112473D01*
Y263140D01*
X112569D01*
Y263188D01*
X112712D01*
Y263236D01*
X112760D01*
Y263284D01*
X112904D01*
Y263332D01*
X113000D01*
Y263380D01*
X113048D01*
Y263428D01*
X113143D01*
Y263475D01*
X113239D01*
Y263524D01*
X113287D01*
Y263571D01*
X113383D01*
Y263619D01*
X113431D01*
Y263667D01*
X113526D01*
Y263715D01*
X113574D01*
Y263763D01*
X113670D01*
Y263811D01*
X113718D01*
Y263859D01*
X113766D01*
Y263907D01*
X113814D01*
Y263955D01*
X113910D01*
Y264002D01*
X113958D01*
Y264050D01*
X114005D01*
Y264098D01*
X114053D01*
Y264146D01*
X114101D01*
Y264194D01*
X114149D01*
Y264242D01*
X114197D01*
Y264290D01*
X114245D01*
Y264338D01*
X114293D01*
Y264386D01*
X114341D01*
Y264529D01*
X114389D01*
Y264625D01*
X114437D01*
Y264721D01*
X114628D01*
Y264673D01*
D02*
G37*
G36*
X124926Y250435D02*
X124974D01*
Y241286D01*
X124926D01*
Y241142D01*
X124879D01*
Y240807D01*
X124831D01*
Y240711D01*
X124783D01*
Y240616D01*
X124831D01*
Y240568D01*
X124783D01*
Y240472D01*
X124735D01*
Y240232D01*
X124639D01*
Y240041D01*
X124591D01*
Y239849D01*
X124495D01*
Y239706D01*
X124399D01*
Y239658D01*
X124447D01*
Y239610D01*
X124399D01*
Y239562D01*
X124352D01*
Y239418D01*
X124304D01*
Y239370D01*
X124256D01*
Y239274D01*
X124208D01*
Y239179D01*
X124112D01*
Y239083D01*
X124064D01*
Y238987D01*
X124016D01*
Y238939D01*
X123968D01*
Y238891D01*
X123920D01*
Y238843D01*
X123873D01*
Y238795D01*
X123825D01*
Y238748D01*
X123777D01*
Y238700D01*
X123729D01*
Y238652D01*
X123681D01*
Y238604D01*
X123633D01*
Y238556D01*
X123585D01*
Y238508D01*
X123537D01*
Y238460D01*
X123489D01*
Y238412D01*
X123441D01*
Y238364D01*
X123394D01*
Y238316D01*
X123346D01*
Y238269D01*
X123298D01*
Y238221D01*
X123202D01*
Y238173D01*
X123154D01*
Y238125D01*
X123106D01*
Y238077D01*
X123058D01*
Y238029D01*
X122963D01*
Y237981D01*
X122867D01*
Y237933D01*
X122819D01*
Y237885D01*
X122723D01*
Y237837D01*
X122627D01*
Y237789D01*
X122579D01*
Y237742D01*
X122436D01*
Y237694D01*
X122340D01*
Y237646D01*
X122292D01*
Y237598D01*
X122148D01*
Y237550D01*
X122100D01*
Y237502D01*
X121957D01*
Y237454D01*
X121765D01*
Y237358D01*
X121573D01*
Y237311D01*
X121382D01*
Y237263D01*
X121286D01*
Y237215D01*
X121047D01*
Y237167D01*
X120999D01*
Y237119D01*
X120711D01*
Y237071D01*
X120328D01*
Y237023D01*
X120280D01*
Y236975D01*
X119753D01*
Y236927D01*
X119514D01*
Y236880D01*
X119370D01*
Y236927D01*
X117789D01*
Y236880D01*
X117694D01*
Y236927D01*
X117406D01*
Y236975D01*
X116879D01*
Y237023D01*
X116832D01*
Y237071D01*
X116448D01*
Y237119D01*
X116161D01*
Y237167D01*
X116113D01*
Y237215D01*
X115874D01*
Y237263D01*
X115826D01*
Y237311D01*
X115730D01*
Y237263D01*
X115682D01*
Y237311D01*
X115586D01*
Y237358D01*
X115395D01*
Y237454D01*
X115203D01*
Y237502D01*
X115059D01*
Y237550D01*
X115011D01*
Y237598D01*
X114868D01*
Y237646D01*
X114772D01*
Y237694D01*
X114724D01*
Y237742D01*
X114580D01*
Y237837D01*
X114437D01*
Y237885D01*
X114341D01*
Y237933D01*
X114293D01*
Y237981D01*
X114197D01*
Y238029D01*
X114149D01*
Y238077D01*
X114101D01*
Y238125D01*
X114005D01*
Y238173D01*
X113958D01*
Y238221D01*
X113862D01*
Y238269D01*
X113814D01*
Y238364D01*
X113718D01*
Y238460D01*
X113622D01*
Y238508D01*
X113526D01*
Y238556D01*
X113574D01*
Y238604D01*
X113479D01*
Y238652D01*
X113431D01*
Y238700D01*
X113383D01*
Y238748D01*
X113335D01*
Y238843D01*
X113239D01*
Y238939D01*
X113143D01*
Y239035D01*
X113095D01*
Y239083D01*
X113048D01*
Y239131D01*
X113000D01*
Y239226D01*
X112952D01*
Y239274D01*
X112904D01*
Y239370D01*
X112856D01*
Y239466D01*
X112808D01*
Y239514D01*
X112760D01*
Y239658D01*
X112712D01*
Y239801D01*
X112617D01*
Y239993D01*
X112521D01*
Y240184D01*
X112473D01*
Y240376D01*
X112425D01*
Y240424D01*
X112377D01*
Y240664D01*
X112329D01*
Y240759D01*
X112281D01*
Y240855D01*
X112329D01*
Y240951D01*
X112281D01*
Y241094D01*
X112233D01*
Y241621D01*
X112185D01*
Y250435D01*
X112281D01*
Y250530D01*
X115682D01*
Y250483D01*
X115730D01*
Y250435D01*
X115778D01*
Y250530D01*
X115826D01*
Y241669D01*
X115874D01*
Y241574D01*
X115921D01*
Y241286D01*
X115969D01*
Y241190D01*
X116017D01*
Y241142D01*
X115969D01*
Y241094D01*
X116017D01*
Y241047D01*
X116065D01*
Y240855D01*
X116161D01*
Y240759D01*
X116113D01*
Y240711D01*
X116209D01*
Y240616D01*
X116257D01*
Y240568D01*
X116305D01*
Y240472D01*
X116353D01*
Y240424D01*
X116400D01*
Y240376D01*
X116448D01*
Y240280D01*
X116496D01*
Y240184D01*
X116592D01*
Y240137D01*
X116640D01*
Y240041D01*
X116736D01*
Y239993D01*
X116832D01*
Y239945D01*
X116879D01*
Y239897D01*
X116927D01*
Y239849D01*
X116975D01*
Y239801D01*
X117071D01*
Y239753D01*
X117167D01*
Y239706D01*
X117215D01*
Y239658D01*
X117358D01*
Y239610D01*
X117502D01*
Y239562D01*
X117550D01*
Y239514D01*
X117837D01*
Y239466D01*
X117885D01*
Y239418D01*
X118029D01*
Y239466D01*
X118173D01*
Y239418D01*
X118987D01*
Y239466D01*
X119179D01*
Y239418D01*
X119274D01*
Y239466D01*
X119370D01*
Y239514D01*
X119610D01*
Y239562D01*
X119657D01*
Y239610D01*
X119801D01*
Y239658D01*
X119945D01*
Y239706D01*
X119993D01*
Y239753D01*
X120089D01*
Y239801D01*
X120232D01*
Y239897D01*
X120328D01*
Y239945D01*
X120376D01*
Y239993D01*
X120424D01*
Y240041D01*
X120520D01*
Y240137D01*
X120616D01*
Y240232D01*
X120663D01*
Y240280D01*
X120711D01*
Y240376D01*
X120807D01*
Y240472D01*
X120855D01*
Y240520D01*
X120903D01*
Y240616D01*
X120951D01*
Y240711D01*
X120999D01*
Y240759D01*
X121047D01*
Y240903D01*
X121095D01*
Y240951D01*
X121142D01*
Y240999D01*
X121095D01*
Y241047D01*
X121142D01*
Y241094D01*
X121190D01*
Y241334D01*
X121238D01*
Y241382D01*
X121286D01*
Y241765D01*
X121334D01*
Y250435D01*
X121382D01*
Y250530D01*
X124926D01*
Y250435D01*
D02*
G37*
G36*
X110365Y247944D02*
X106246D01*
Y247896D01*
X106198D01*
Y237119D01*
X102462D01*
Y242532D01*
Y242579D01*
Y247896D01*
X102414D01*
Y247944D01*
X98295D01*
Y247992D01*
X98247D01*
Y248088D01*
X98295D01*
Y250435D01*
X98247D01*
Y250483D01*
X98295D01*
Y250578D01*
X110365D01*
Y247944D01*
D02*
G37*
G36*
X121889Y234762D02*
X122004D01*
Y234734D01*
X122147D01*
Y234705D01*
X122233D01*
Y234676D01*
X122262D01*
Y233845D01*
X122233D01*
Y233817D01*
X121918D01*
Y233845D01*
X121488D01*
Y233817D01*
X121287D01*
Y233788D01*
X121173D01*
Y233759D01*
X121116D01*
Y233731D01*
X121058D01*
Y233702D01*
X121001D01*
Y233673D01*
X120972D01*
Y233645D01*
X120943D01*
Y233587D01*
X120915D01*
Y233559D01*
X120886D01*
Y233501D01*
X120858D01*
Y233416D01*
X120829D01*
Y233301D01*
X120800D01*
Y232212D01*
X120829D01*
Y232183D01*
X122090D01*
Y231438D01*
X120800D01*
Y226595D01*
X119711D01*
Y227025D01*
Y227054D01*
Y231438D01*
X118651D01*
Y232183D01*
X119683D01*
Y232212D01*
X119711D01*
Y233330D01*
X119740D01*
Y233559D01*
X119769D01*
Y233702D01*
X119797D01*
Y233817D01*
X119826D01*
Y233874D01*
X119855D01*
Y233960D01*
X119883D01*
Y234017D01*
X119912D01*
Y234046D01*
X119941D01*
Y234103D01*
X119969D01*
Y234161D01*
X119998D01*
Y234189D01*
X120027D01*
Y234247D01*
X120055D01*
Y234275D01*
X120084D01*
Y234304D01*
X120112D01*
Y234333D01*
X120141D01*
Y234361D01*
X120170D01*
Y234390D01*
X120198D01*
Y234419D01*
X120256D01*
Y234447D01*
X120284D01*
Y234476D01*
X120313D01*
Y234505D01*
X120370D01*
Y234533D01*
X120399D01*
Y234562D01*
X120456D01*
Y234590D01*
X120514D01*
Y234619D01*
X120571D01*
Y234648D01*
X120657D01*
Y234676D01*
X120714D01*
Y234705D01*
X120800D01*
Y234734D01*
X120915D01*
Y234762D01*
X121030D01*
Y234791D01*
X121889D01*
Y234762D01*
D02*
G37*
G36*
X117476Y226595D02*
X116416D01*
Y234189D01*
Y234218D01*
Y234648D01*
X117476D01*
Y226595D01*
D02*
G37*
G36*
X105469Y234619D02*
X105870D01*
Y234590D01*
X106042D01*
Y234562D01*
X106242D01*
Y234533D01*
X106328D01*
Y234505D01*
X106443D01*
Y234476D01*
X106586D01*
Y234447D01*
X106644D01*
Y234419D01*
X106730D01*
Y234390D01*
X106816D01*
Y234361D01*
X106873D01*
Y234333D01*
X106959D01*
Y234304D01*
X107016D01*
Y234275D01*
X107073D01*
Y234247D01*
X107159D01*
Y234218D01*
X107188D01*
Y234189D01*
X107245D01*
Y234161D01*
X107303D01*
Y234132D01*
X107360D01*
Y234103D01*
X107417D01*
Y234075D01*
X107446D01*
Y234046D01*
X107475D01*
Y234017D01*
X107532D01*
Y233989D01*
X107561D01*
Y233960D01*
X107618D01*
Y233931D01*
X107647D01*
Y233903D01*
X107675D01*
Y233874D01*
X107704D01*
Y233845D01*
X107761D01*
Y233817D01*
X107790D01*
Y233788D01*
X107819D01*
Y233759D01*
X107847D01*
Y233731D01*
X107876D01*
Y233702D01*
X107905D01*
Y233673D01*
X107933D01*
Y233645D01*
X107962D01*
Y233616D01*
X107991D01*
Y233587D01*
X108019D01*
Y233559D01*
X108048D01*
Y233530D01*
X108076D01*
Y233501D01*
X108105D01*
Y233444D01*
X108134D01*
Y233416D01*
X108162D01*
Y233387D01*
X108191D01*
Y233358D01*
X108220D01*
Y233330D01*
X108248D01*
Y233272D01*
X108277D01*
Y233244D01*
X108306D01*
Y233186D01*
X108334D01*
Y233158D01*
X108363D01*
Y233100D01*
X108392D01*
Y233043D01*
X108420D01*
Y233014D01*
X108449D01*
Y232957D01*
X108478D01*
Y232900D01*
X108506D01*
Y232842D01*
X108535D01*
Y232785D01*
X108564D01*
Y232728D01*
X108592D01*
Y232699D01*
X108621D01*
Y232613D01*
X108650D01*
Y232527D01*
X108678D01*
Y232470D01*
X108707D01*
Y232384D01*
X108736D01*
Y232327D01*
X108764D01*
Y232241D01*
X108793D01*
Y232212D01*
Y232183D01*
Y232126D01*
X108822D01*
Y232040D01*
X108850D01*
Y231925D01*
X108879D01*
Y231811D01*
X108907D01*
Y231696D01*
X108936D01*
Y231524D01*
X108965D01*
Y231352D01*
X108994D01*
Y231094D01*
X109022D01*
Y231066D01*
X108994D01*
Y231008D01*
X109022D01*
Y230235D01*
X108994D01*
Y230177D01*
X109022D01*
Y230120D01*
X108994D01*
Y229891D01*
X108965D01*
Y229719D01*
X108936D01*
Y229518D01*
X108907D01*
Y229432D01*
X108879D01*
Y229289D01*
X108850D01*
Y229174D01*
X108822D01*
Y229088D01*
X108793D01*
Y229002D01*
X108764D01*
Y228916D01*
X108736D01*
Y228830D01*
X108707D01*
Y228744D01*
X108678D01*
Y228687D01*
X108650D01*
Y228630D01*
X108621D01*
Y228544D01*
X108592D01*
Y228486D01*
X108564D01*
Y228429D01*
X108535D01*
Y228372D01*
X108506D01*
Y228314D01*
X108478D01*
Y228257D01*
X108449D01*
Y228229D01*
X108420D01*
Y228171D01*
X108392D01*
Y228114D01*
X108363D01*
Y228085D01*
X108334D01*
Y228028D01*
X108306D01*
Y227999D01*
X108277D01*
Y227942D01*
X108248D01*
Y227913D01*
X108220D01*
Y227885D01*
X108191D01*
Y227827D01*
X108162D01*
Y227799D01*
X108134D01*
Y227770D01*
X108105D01*
Y227741D01*
X108076D01*
Y227713D01*
X108048D01*
Y227684D01*
X108019D01*
Y227627D01*
X107991D01*
Y227598D01*
X107962D01*
Y227569D01*
X107933D01*
Y227541D01*
X107905D01*
Y227512D01*
X107876D01*
Y227484D01*
X107847D01*
Y227455D01*
X107790D01*
Y227426D01*
X107761D01*
Y227397D01*
X107733D01*
Y227369D01*
X107704D01*
Y227340D01*
X107675D01*
Y227311D01*
X107618D01*
Y227283D01*
X107589D01*
Y227254D01*
X107561D01*
Y227225D01*
X107503D01*
Y227197D01*
X107475D01*
Y227168D01*
X107417D01*
Y227140D01*
X107360D01*
Y227111D01*
X107331D01*
Y227082D01*
X107274D01*
Y227054D01*
X107217D01*
Y227025D01*
X107188D01*
Y226996D01*
X107131D01*
Y226968D01*
X107073D01*
Y226939D01*
X106987D01*
Y226910D01*
X106930D01*
Y226882D01*
X106873D01*
Y226853D01*
X106787D01*
Y226824D01*
X106701D01*
Y226796D01*
X106615D01*
Y226767D01*
X106529D01*
Y226738D01*
X106414D01*
Y226710D01*
X106300D01*
Y226681D01*
X106128D01*
Y226652D01*
X106013D01*
Y226624D01*
X105698D01*
Y226595D01*
X102431D01*
Y234648D01*
X105469D01*
Y234619D01*
D02*
G37*
G36*
X125326Y233645D02*
Y233616D01*
Y232212D01*
X125354D01*
Y232183D01*
X126644D01*
Y231467D01*
X126615D01*
Y231438D01*
X125326D01*
Y227741D01*
X125354D01*
Y227598D01*
X125383D01*
Y227541D01*
X125412D01*
Y227512D01*
X125440D01*
Y227455D01*
X125469D01*
Y227426D01*
X125498D01*
Y227397D01*
X125555D01*
Y227369D01*
X125584D01*
Y227340D01*
X125641D01*
Y227311D01*
X125698D01*
Y227283D01*
X125813D01*
Y227254D01*
X125985D01*
Y227225D01*
X126071D01*
Y227254D01*
X126357D01*
Y227283D01*
X126501D01*
Y227311D01*
X126587D01*
Y226480D01*
X126472D01*
Y226452D01*
X126243D01*
Y226423D01*
X125440D01*
Y226452D01*
X125211D01*
Y226480D01*
X125096D01*
Y226509D01*
X124982D01*
Y226538D01*
X124896D01*
Y226566D01*
X124838D01*
Y226595D01*
X124781D01*
Y226624D01*
X124724D01*
Y226652D01*
X124667D01*
Y226681D01*
X124638D01*
Y226710D01*
X124581D01*
Y226738D01*
X124552D01*
Y226767D01*
X124523D01*
Y226796D01*
X124495D01*
Y226853D01*
X124466D01*
Y226882D01*
X124437D01*
Y226939D01*
X124409D01*
Y226968D01*
X124380D01*
Y227025D01*
X124351D01*
Y227111D01*
X124323D01*
Y227197D01*
X124294D01*
Y227369D01*
X124265D01*
Y231409D01*
X124237D01*
Y231438D01*
X123291D01*
Y232183D01*
X124237D01*
Y232212D01*
X124265D01*
Y233387D01*
X124323D01*
Y233416D01*
X124409D01*
Y233444D01*
X124495D01*
Y233473D01*
X124581D01*
Y233501D01*
X124695D01*
Y233530D01*
X124781D01*
Y233559D01*
X124867D01*
Y233587D01*
X124953D01*
Y233616D01*
X125039D01*
Y233645D01*
X125154D01*
Y233673D01*
X125240D01*
Y233702D01*
X125326D01*
Y233645D01*
D02*
G37*
G36*
X113006Y232327D02*
X113206D01*
Y232298D01*
X113321D01*
Y232269D01*
X113464D01*
Y232241D01*
X113550D01*
Y232212D01*
X113607D01*
Y232183D01*
X113722D01*
Y232155D01*
X113751D01*
Y232126D01*
X113837D01*
Y232097D01*
X113894D01*
Y232069D01*
X113951D01*
Y232040D01*
X114009D01*
Y232011D01*
X114037D01*
Y231983D01*
X114094D01*
Y231954D01*
X114123D01*
Y231925D01*
X114152D01*
Y231897D01*
X114209D01*
Y231868D01*
X114238D01*
Y231839D01*
X114266D01*
Y231811D01*
X114295D01*
Y231782D01*
X114324D01*
Y231753D01*
X114381D01*
Y231725D01*
X114410D01*
Y231696D01*
X114438D01*
Y231639D01*
X114467D01*
Y231610D01*
X114496D01*
Y231581D01*
X114524D01*
Y231553D01*
X114553D01*
Y231524D01*
X114582D01*
Y231495D01*
X114610D01*
Y231438D01*
X114639D01*
Y231409D01*
X114668D01*
Y231352D01*
X114696D01*
Y231324D01*
X114725D01*
Y231266D01*
X114754D01*
Y231209D01*
X114782D01*
Y231180D01*
X114811D01*
Y231123D01*
X114840D01*
Y231066D01*
X114868D01*
Y231008D01*
X114897D01*
Y230922D01*
X114925D01*
Y230865D01*
X114954D01*
Y230779D01*
X114983D01*
Y230664D01*
X115012D01*
Y230578D01*
X115040D01*
Y230435D01*
X115069D01*
Y230292D01*
X115098D01*
Y230091D01*
X115126D01*
Y229203D01*
X115098D01*
Y229174D01*
X111143D01*
Y228716D01*
X111171D01*
Y228544D01*
X111200D01*
Y228429D01*
X111229D01*
Y228286D01*
X111257D01*
Y228200D01*
X111286D01*
Y228114D01*
X111315D01*
Y228028D01*
X111343D01*
Y227999D01*
X111372D01*
Y227913D01*
X111401D01*
Y227856D01*
X111429D01*
Y227827D01*
X111458D01*
Y227770D01*
X111487D01*
Y227741D01*
X111515D01*
Y227684D01*
X111544D01*
Y227655D01*
X111573D01*
Y227627D01*
X111601D01*
Y227598D01*
X111630D01*
Y227541D01*
X111687D01*
Y227512D01*
X111716D01*
Y227484D01*
X111745D01*
Y227455D01*
X111773D01*
Y227426D01*
X111831D01*
Y227397D01*
X111859D01*
Y227369D01*
X111917D01*
Y227340D01*
X111974D01*
Y227311D01*
X112031D01*
Y227283D01*
X112117D01*
Y227254D01*
X112203D01*
Y227225D01*
X112404D01*
Y227197D01*
X112776D01*
Y227225D01*
X113034D01*
Y227254D01*
X113120D01*
Y227283D01*
X113206D01*
Y227311D01*
X113292D01*
Y227340D01*
X113349D01*
Y227369D01*
X113407D01*
Y227397D01*
X113435D01*
Y227426D01*
X113464D01*
Y227455D01*
X113521D01*
Y227484D01*
X113550D01*
Y227512D01*
X113579D01*
Y227541D01*
X113607D01*
Y227569D01*
X113636D01*
Y227598D01*
X113665D01*
Y227655D01*
X113693D01*
Y227684D01*
X113722D01*
Y227741D01*
X113751D01*
Y227799D01*
X113779D01*
Y227856D01*
X113808D01*
Y227913D01*
X113837D01*
Y227999D01*
X113865D01*
Y228085D01*
X113894D01*
Y228229D01*
X113923D01*
Y228314D01*
X113951D01*
Y228343D01*
X115040D01*
Y228314D01*
X115069D01*
Y228286D01*
X115040D01*
Y228114D01*
X115012D01*
Y228028D01*
X114983D01*
Y227913D01*
X114954D01*
Y227827D01*
X114925D01*
Y227741D01*
X114897D01*
Y227684D01*
X114868D01*
Y227627D01*
X114840D01*
Y227569D01*
X114811D01*
Y227512D01*
X114782D01*
Y227455D01*
X114754D01*
Y227426D01*
X114725D01*
Y227369D01*
X114696D01*
Y227340D01*
X114668D01*
Y227283D01*
X114639D01*
Y227254D01*
X114610D01*
Y227225D01*
X114582D01*
Y227168D01*
X114524D01*
Y227140D01*
X114496D01*
Y227082D01*
X114438D01*
Y227025D01*
X114410D01*
Y226996D01*
X114352D01*
Y226968D01*
X114324D01*
Y226939D01*
X114295D01*
Y226910D01*
X114238D01*
Y226882D01*
X114209D01*
Y226853D01*
X114180D01*
Y226824D01*
X114123D01*
Y226796D01*
X114094D01*
Y226767D01*
X114037D01*
Y226738D01*
X113980D01*
Y226710D01*
X113923D01*
Y226681D01*
X113865D01*
Y226652D01*
X113808D01*
Y226624D01*
X113722D01*
Y226595D01*
X113636D01*
Y226566D01*
X113550D01*
Y226538D01*
X113435D01*
Y226509D01*
X113321D01*
Y226480D01*
X113177D01*
Y226452D01*
X112948D01*
Y226423D01*
X112175D01*
Y226452D01*
X111974D01*
Y226480D01*
X111831D01*
Y226509D01*
X111745D01*
Y226538D01*
X111630D01*
Y226566D01*
X111544D01*
Y226595D01*
X111487D01*
Y226624D01*
X111401D01*
Y226652D01*
X111343D01*
Y226681D01*
X111286D01*
Y226710D01*
X111229D01*
Y226738D01*
X111200D01*
Y226767D01*
X111143D01*
Y226796D01*
X111114D01*
Y226824D01*
X111057D01*
Y226853D01*
X110999D01*
Y226882D01*
X110971D01*
Y226910D01*
X110942D01*
Y226939D01*
X110913D01*
Y226968D01*
X110885D01*
Y226996D01*
X110856D01*
Y227025D01*
X110828D01*
Y227054D01*
X110799D01*
Y227082D01*
X110770D01*
Y227111D01*
X110742D01*
Y227140D01*
X110713D01*
Y227168D01*
X110684D01*
Y227197D01*
X110656D01*
Y227225D01*
X110627D01*
Y227283D01*
X110598D01*
Y227311D01*
X110570D01*
Y227340D01*
X110541D01*
Y227397D01*
X110512D01*
Y227426D01*
X110484D01*
Y227484D01*
X110455D01*
Y227541D01*
X110426D01*
Y227569D01*
X110398D01*
Y227655D01*
X110369D01*
Y227713D01*
X110340D01*
Y227741D01*
X110312D01*
Y227827D01*
X110283D01*
Y227913D01*
X110254D01*
Y227971D01*
X110226D01*
Y228085D01*
X110197D01*
Y228171D01*
X110168D01*
Y228286D01*
X110140D01*
Y228429D01*
X110111D01*
Y228544D01*
X110083D01*
Y228830D01*
X110054D01*
Y229833D01*
X110083D01*
Y230091D01*
X110111D01*
Y230235D01*
X110140D01*
Y230349D01*
X110168D01*
Y230492D01*
X110197D01*
Y230550D01*
X110226D01*
Y230664D01*
X110254D01*
Y230750D01*
X110283D01*
Y230808D01*
X110312D01*
Y230894D01*
X110340D01*
Y230922D01*
X110369D01*
Y231008D01*
X110398D01*
Y231066D01*
X110426D01*
Y231094D01*
X110455D01*
Y231180D01*
X110484D01*
Y231209D01*
X110512D01*
Y231266D01*
X110541D01*
Y231295D01*
X110570D01*
Y231352D01*
X110598D01*
Y231381D01*
X110627D01*
Y231438D01*
X110656D01*
Y231467D01*
X110684D01*
Y231495D01*
X110713D01*
Y231524D01*
X110742D01*
Y231553D01*
X110770D01*
Y231610D01*
X110799D01*
Y231639D01*
X110828D01*
Y231667D01*
X110856D01*
Y231696D01*
X110885D01*
Y231725D01*
X110913D01*
Y231753D01*
X110942D01*
Y231782D01*
X110999D01*
Y231811D01*
X111028D01*
Y231839D01*
X111057D01*
Y231868D01*
X111086D01*
Y231897D01*
X111143D01*
Y231925D01*
X111171D01*
Y231954D01*
X111229D01*
Y231983D01*
X111257D01*
Y232011D01*
X111315D01*
Y232040D01*
X111372D01*
Y232069D01*
X111401D01*
Y232097D01*
X111458D01*
Y232126D01*
X111544D01*
Y232155D01*
X111601D01*
Y232183D01*
X111687D01*
Y232212D01*
X111773D01*
Y232241D01*
X111831D01*
Y232269D01*
X111974D01*
Y232298D01*
X112088D01*
Y232327D01*
X112289D01*
Y232355D01*
X113006D01*
Y232327D01*
D02*
G37*
G36*
X114628Y188592D02*
X114676D01*
Y188257D01*
X114628D01*
Y188065D01*
X114580D01*
Y187874D01*
X114532D01*
Y187826D01*
X114485D01*
Y187682D01*
X114437D01*
Y187634D01*
X114389D01*
Y187586D01*
X114341D01*
Y187491D01*
X114293D01*
Y187443D01*
X114245D01*
Y187347D01*
X114197D01*
Y187299D01*
X114149D01*
Y187251D01*
X114101D01*
Y187203D01*
X114053D01*
Y187155D01*
X114005D01*
Y187107D01*
X113958D01*
Y187059D01*
X113910D01*
Y187012D01*
X113862D01*
Y186964D01*
X113814D01*
Y186916D01*
X113766D01*
Y186868D01*
X113670D01*
Y186820D01*
X113622D01*
Y186772D01*
X113574D01*
Y186724D01*
X113526D01*
Y186676D01*
X113431D01*
Y186628D01*
X113383D01*
Y186581D01*
X113335D01*
Y186533D01*
X113287D01*
Y186485D01*
X113191D01*
Y186437D01*
X113143D01*
Y186389D01*
X113095D01*
Y186341D01*
X113000D01*
Y186293D01*
X112952D01*
Y186245D01*
X112904D01*
Y186197D01*
X112808D01*
Y186150D01*
X112760D01*
Y186102D01*
X112664D01*
Y186054D01*
X112617D01*
Y186006D01*
X112569D01*
Y185958D01*
X112473D01*
Y185910D01*
X112425D01*
Y185862D01*
X112329D01*
Y185814D01*
X112281D01*
Y185766D01*
X112185D01*
Y185718D01*
X112137D01*
Y185671D01*
X112042D01*
Y185623D01*
X111994D01*
Y185575D01*
X111946D01*
Y185527D01*
X111850D01*
Y185479D01*
X111802D01*
Y185431D01*
X111706D01*
Y185383D01*
X111658D01*
Y185335D01*
X111611D01*
Y185287D01*
X111515D01*
Y185239D01*
X111467D01*
Y185191D01*
X111371D01*
Y185144D01*
X111323D01*
Y185096D01*
X111275D01*
Y185048D01*
X111180D01*
Y185000D01*
X111132D01*
Y184952D01*
X111084D01*
Y184904D01*
X110988D01*
Y184856D01*
X110940D01*
Y184808D01*
X110892D01*
Y184760D01*
X110844D01*
Y184713D01*
X110796D01*
Y184665D01*
X110701D01*
Y184617D01*
X110653D01*
Y184569D01*
X110605D01*
Y184521D01*
X110557D01*
Y184473D01*
X110509D01*
Y184425D01*
X110461D01*
Y184377D01*
X110413D01*
Y184329D01*
X110365D01*
Y184281D01*
X110317D01*
Y184233D01*
X110269D01*
Y184186D01*
X110222D01*
Y184138D01*
X110174D01*
Y184090D01*
X110126D01*
Y184042D01*
X110078D01*
Y183994D01*
X110030D01*
Y183898D01*
X109982D01*
Y183850D01*
X109934D01*
Y183803D01*
X109886D01*
Y183707D01*
X109838D01*
Y183611D01*
X109790D01*
Y183563D01*
X109743D01*
Y183419D01*
X109695D01*
Y183323D01*
X109647D01*
Y183132D01*
X109599D01*
Y182557D01*
X109647D01*
Y182365D01*
X109695D01*
Y182270D01*
X109743D01*
Y182174D01*
X109790D01*
Y182126D01*
X109838D01*
Y182030D01*
X109886D01*
Y181982D01*
X109934D01*
Y181934D01*
X109982D01*
Y181887D01*
X110030D01*
Y181839D01*
X110126D01*
Y181791D01*
X110222D01*
Y181743D01*
X110317D01*
Y181695D01*
X110557D01*
Y181647D01*
X110988D01*
Y181695D01*
X111275D01*
Y181743D01*
X111467D01*
Y181791D01*
X111563D01*
Y181839D01*
X111706D01*
Y181887D01*
X111802D01*
Y181934D01*
X111898D01*
Y181982D01*
X111994D01*
Y182030D01*
X112042D01*
Y182078D01*
X112137D01*
Y182126D01*
X112185D01*
Y182174D01*
X112281D01*
Y182222D01*
X112329D01*
Y182270D01*
X112425D01*
Y182318D01*
X112473D01*
Y182365D01*
X112521D01*
Y182413D01*
X112617D01*
Y182461D01*
X112664D01*
Y182509D01*
X112712D01*
Y182557D01*
X112760D01*
Y182605D01*
X112808D01*
Y182653D01*
X112856D01*
Y182701D01*
X112904D01*
Y182749D01*
X113000D01*
Y182797D01*
X113095D01*
Y182749D01*
X113143D01*
Y182701D01*
X113191D01*
Y182509D01*
X113143D01*
Y182413D01*
X113095D01*
Y182270D01*
X113048D01*
Y182078D01*
X113000D01*
Y181982D01*
X112952D01*
Y181791D01*
X112904D01*
Y181695D01*
X112856D01*
Y181599D01*
X112808D01*
Y181455D01*
X112760D01*
Y181360D01*
X112712D01*
Y181264D01*
X112664D01*
Y181120D01*
X112617D01*
Y181072D01*
X112569D01*
Y180928D01*
X112521D01*
Y180833D01*
X112473D01*
Y180785D01*
X112425D01*
Y180641D01*
X112377D01*
Y180593D01*
X112329D01*
Y180497D01*
X112281D01*
Y180402D01*
X112233D01*
Y180354D01*
X112185D01*
Y180258D01*
X112137D01*
Y180162D01*
X112090D01*
Y180066D01*
X112042D01*
Y180019D01*
X111994D01*
Y179923D01*
X111946D01*
Y179875D01*
X111898D01*
Y179779D01*
X111850D01*
Y179683D01*
X111802D01*
Y179635D01*
X111754D01*
Y179540D01*
X111706D01*
Y179492D01*
X111658D01*
Y179396D01*
X111611D01*
Y179348D01*
X111563D01*
Y179300D01*
X111515D01*
Y179204D01*
X111467D01*
Y179156D01*
X111419D01*
Y179108D01*
X111371D01*
Y179013D01*
X111323D01*
Y178965D01*
X111275D01*
Y178917D01*
X111227D01*
Y178869D01*
X111180D01*
Y178821D01*
X111132D01*
Y178725D01*
X111084D01*
Y178677D01*
X111036D01*
Y178629D01*
X110988D01*
Y178582D01*
X110940D01*
Y178534D01*
X110892D01*
Y178438D01*
X110844D01*
Y178390D01*
X110796D01*
Y178342D01*
X110748D01*
Y178294D01*
X110701D01*
Y178246D01*
X110653D01*
Y178198D01*
X110605D01*
Y178150D01*
X110557D01*
Y178102D01*
X110509D01*
Y178055D01*
X110461D01*
Y178007D01*
X110413D01*
Y177959D01*
X110365D01*
Y177911D01*
X110317D01*
Y177863D01*
X110269D01*
Y177815D01*
X110222D01*
Y177767D01*
X110174D01*
Y177719D01*
X110126D01*
Y177672D01*
X110078D01*
Y177624D01*
X109982D01*
Y177576D01*
X109934D01*
Y177528D01*
X109886D01*
Y177480D01*
X109838D01*
Y177432D01*
X109790D01*
Y177384D01*
X109695D01*
Y177336D01*
X109647D01*
Y177288D01*
X109599D01*
Y177240D01*
X109503D01*
Y177192D01*
X109455D01*
Y177145D01*
X109407D01*
Y177097D01*
X109312D01*
Y177049D01*
X109264D01*
Y177001D01*
X109168D01*
Y176953D01*
X109120D01*
Y176905D01*
X109024D01*
Y176857D01*
X108976D01*
Y176809D01*
X108880D01*
Y176761D01*
X108785D01*
Y176714D01*
X108737D01*
Y176666D01*
X108641D01*
Y176618D01*
X108545D01*
Y176570D01*
X108449D01*
Y176522D01*
X108354D01*
Y176474D01*
X108210D01*
Y176426D01*
X108162D01*
Y176378D01*
X108018D01*
Y176330D01*
X107874D01*
Y176282D01*
X107731D01*
Y176234D01*
X107539D01*
Y176187D01*
X107395D01*
Y176139D01*
X107156D01*
Y176091D01*
X106773D01*
Y176043D01*
X106150D01*
Y176234D01*
X106198D01*
Y176282D01*
X106294D01*
Y176330D01*
X106390D01*
Y176378D01*
X106533D01*
Y176426D01*
X106581D01*
Y176474D01*
X106725D01*
Y176522D01*
X106821D01*
Y176570D01*
X106917D01*
Y176618D01*
X106964D01*
Y176666D01*
X107060D01*
Y176714D01*
X107108D01*
Y176761D01*
X107156D01*
Y176809D01*
X107204D01*
Y176857D01*
X107300D01*
Y176905D01*
X107348D01*
Y176953D01*
X107395D01*
Y177001D01*
X107443D01*
Y177049D01*
X107491D01*
Y177097D01*
X107539D01*
Y177145D01*
X107587D01*
Y177192D01*
X107635D01*
Y177240D01*
X107683D01*
Y177288D01*
X107731D01*
Y177336D01*
X107779D01*
Y177384D01*
X107827D01*
Y177480D01*
X107874D01*
Y177528D01*
X107922D01*
Y177576D01*
X107970D01*
Y177672D01*
X108018D01*
Y177719D01*
X108066D01*
Y177815D01*
X108114D01*
Y177863D01*
X108162D01*
Y177959D01*
X108210D01*
Y178055D01*
X108258D01*
Y178150D01*
X108306D01*
Y178246D01*
X108354D01*
Y178342D01*
X108401D01*
Y178438D01*
X108449D01*
Y178582D01*
X108497D01*
Y178725D01*
X108545D01*
Y178821D01*
X108593D01*
Y179013D01*
X108641D01*
Y179156D01*
X108689D01*
Y179348D01*
X108737D01*
Y179635D01*
X108785D01*
Y179827D01*
X108833D01*
Y180114D01*
X108880D01*
Y180593D01*
X108833D01*
Y180641D01*
X108785D01*
Y180593D01*
X108737D01*
Y180545D01*
X108689D01*
Y180450D01*
X108641D01*
Y180402D01*
X108593D01*
Y180306D01*
X108545D01*
Y180210D01*
X108497D01*
Y180162D01*
X108449D01*
Y180066D01*
X108401D01*
Y180019D01*
X108354D01*
Y179971D01*
X108306D01*
Y179923D01*
X108258D01*
Y179875D01*
X108210D01*
Y179827D01*
X108162D01*
Y179779D01*
X108114D01*
Y179731D01*
X108066D01*
Y179683D01*
X108018D01*
Y179635D01*
X107970D01*
Y179587D01*
X107922D01*
Y179540D01*
X107827D01*
Y179492D01*
X107779D01*
Y179444D01*
X107731D01*
Y179396D01*
X107635D01*
Y179348D01*
X107587D01*
Y179300D01*
X107491D01*
Y179252D01*
X107395D01*
Y179204D01*
X107300D01*
Y179156D01*
X107156D01*
Y179108D01*
X106964D01*
Y179060D01*
X106438D01*
Y179108D01*
X106342D01*
Y179156D01*
X106246D01*
Y179204D01*
X106150D01*
Y179252D01*
X106102D01*
Y179300D01*
X106054D01*
Y179348D01*
X106006D01*
Y179396D01*
X105959D01*
Y179444D01*
X105911D01*
Y179540D01*
X105863D01*
Y179587D01*
X105815D01*
Y179731D01*
X105767D01*
Y179875D01*
X105719D01*
Y180402D01*
X105767D01*
Y180593D01*
X105815D01*
Y180737D01*
X105863D01*
Y180785D01*
X105911D01*
Y180928D01*
X105959D01*
Y180976D01*
X106006D01*
Y181072D01*
X106054D01*
Y181168D01*
X106102D01*
Y181216D01*
X106150D01*
Y181312D01*
X106198D01*
Y181360D01*
X106246D01*
Y181408D01*
X106294D01*
Y181503D01*
X106342D01*
Y181551D01*
X106390D01*
Y181647D01*
X106438D01*
Y181695D01*
X106486D01*
Y181791D01*
X106533D01*
Y181839D01*
X106581D01*
Y181934D01*
X106629D01*
Y181982D01*
X106677D01*
Y182078D01*
X106725D01*
Y182126D01*
X106773D01*
Y182222D01*
X106821D01*
Y182318D01*
X106869D01*
Y182365D01*
X106917D01*
Y182461D01*
X106964D01*
Y182557D01*
X107012D01*
Y182653D01*
X107060D01*
Y182797D01*
X107108D01*
Y182892D01*
X107156D01*
Y183036D01*
X107204D01*
Y183228D01*
X107252D01*
Y183419D01*
X107300D01*
Y183611D01*
X107252D01*
Y183659D01*
X107204D01*
Y183611D01*
X107156D01*
Y183563D01*
X107108D01*
Y183515D01*
X107060D01*
Y183467D01*
X107012D01*
Y183371D01*
X106964D01*
Y183323D01*
X106917D01*
Y183228D01*
X106869D01*
Y183180D01*
X106821D01*
Y183084D01*
X106773D01*
Y183036D01*
X106725D01*
Y182940D01*
X106677D01*
Y182892D01*
X106629D01*
Y182845D01*
X106581D01*
Y182797D01*
X106533D01*
Y182701D01*
X106486D01*
Y182653D01*
X106438D01*
Y182605D01*
X106390D01*
Y182557D01*
X106342D01*
Y182509D01*
X106294D01*
Y182461D01*
X106246D01*
Y182413D01*
X106198D01*
Y182365D01*
X106150D01*
Y182318D01*
X106054D01*
Y182270D01*
X106006D01*
Y182222D01*
X105959D01*
Y182174D01*
X105911D01*
Y182126D01*
X105863D01*
Y182078D01*
X105815D01*
Y182030D01*
X105719D01*
Y181982D01*
X105671D01*
Y181934D01*
X105623D01*
Y181887D01*
X105575D01*
Y181839D01*
X105480D01*
Y181791D01*
X105432D01*
Y181743D01*
X105384D01*
Y181695D01*
X105288D01*
Y181647D01*
X105240D01*
Y181599D01*
X105192D01*
Y181551D01*
X105096D01*
Y181503D01*
X105049D01*
Y181455D01*
X105001D01*
Y181408D01*
X104905D01*
Y181360D01*
X104857D01*
Y181312D01*
X104809D01*
Y181264D01*
X104713D01*
Y181216D01*
X104665D01*
Y181168D01*
X104617D01*
Y181120D01*
X104522D01*
Y181072D01*
X104474D01*
Y181024D01*
X104426D01*
Y180976D01*
X104378D01*
Y180928D01*
X104282D01*
Y180881D01*
X104234D01*
Y180833D01*
X104186D01*
Y180785D01*
X104138D01*
Y180737D01*
X104090D01*
Y180689D01*
X103995D01*
Y180641D01*
X103947D01*
Y180593D01*
X103899D01*
Y180545D01*
X103851D01*
Y180497D01*
X103803D01*
Y180450D01*
X103755D01*
Y180402D01*
X103707D01*
Y180354D01*
X103659D01*
Y180306D01*
X103612D01*
Y180258D01*
X103564D01*
Y180210D01*
X103516D01*
Y180162D01*
X103468D01*
Y180114D01*
X103420D01*
Y180066D01*
X103372D01*
Y180019D01*
X103324D01*
Y179923D01*
X103276D01*
Y179875D01*
X103228D01*
Y179827D01*
X103181D01*
Y179779D01*
X103133D01*
Y179683D01*
X103085D01*
Y179635D01*
X103037D01*
Y179540D01*
X102989D01*
Y179444D01*
X102941D01*
Y179396D01*
X102893D01*
Y179300D01*
X102845D01*
Y179156D01*
X102797D01*
Y179060D01*
X102749D01*
Y178965D01*
X102702D01*
Y178773D01*
X102654D01*
Y178629D01*
X102606D01*
Y178342D01*
X102558D01*
Y177145D01*
X102510D01*
Y176953D01*
X102462D01*
Y176905D01*
X102318D01*
Y176953D01*
X102270D01*
Y177049D01*
X102222D01*
Y177240D01*
X102175D01*
Y177432D01*
X102127D01*
Y177576D01*
X102079D01*
Y177911D01*
X102031D01*
Y178102D01*
X101983D01*
Y178390D01*
X101935D01*
Y179971D01*
X101983D01*
Y180258D01*
X102031D01*
Y180450D01*
X102079D01*
Y180689D01*
X102127D01*
Y180833D01*
X102175D01*
Y180928D01*
X102222D01*
Y181120D01*
X102270D01*
Y181168D01*
X102318D01*
Y181312D01*
X102366D01*
Y181455D01*
X102414D01*
Y181503D01*
X102462D01*
Y181647D01*
X102510D01*
Y181695D01*
X102558D01*
Y181791D01*
X102606D01*
Y181887D01*
X102654D01*
Y181934D01*
X102702D01*
Y182030D01*
X102749D01*
Y182126D01*
X102797D01*
Y182174D01*
X102845D01*
Y182270D01*
X102893D01*
Y182318D01*
X102941D01*
Y182365D01*
X102989D01*
Y182461D01*
X103037D01*
Y182509D01*
X103085D01*
Y182557D01*
X103133D01*
Y182605D01*
X103181D01*
Y182653D01*
X103228D01*
Y182749D01*
X103276D01*
Y182797D01*
X103324D01*
Y182845D01*
X103372D01*
Y182892D01*
X103420D01*
Y182940D01*
X103468D01*
Y182988D01*
X103516D01*
Y183036D01*
X103564D01*
Y183084D01*
X103612D01*
Y183132D01*
X103659D01*
Y183180D01*
X103707D01*
Y183228D01*
X103755D01*
Y183276D01*
X103803D01*
Y183323D01*
X103851D01*
Y183371D01*
X103899D01*
Y183419D01*
X103947D01*
Y183467D01*
X103995D01*
Y183515D01*
X104090D01*
Y183563D01*
X104138D01*
Y183611D01*
X104186D01*
Y183659D01*
X104234D01*
Y183707D01*
X104282D01*
Y183755D01*
X104378D01*
Y183803D01*
X104426D01*
Y183850D01*
X104474D01*
Y183898D01*
X104570D01*
Y183946D01*
X104617D01*
Y183994D01*
X104665D01*
Y184042D01*
X104761D01*
Y184090D01*
X104809D01*
Y184138D01*
X104905D01*
Y184186D01*
X104953D01*
Y184233D01*
X105001D01*
Y184281D01*
X105096D01*
Y184329D01*
X105192D01*
Y184377D01*
X105240D01*
Y184425D01*
X105336D01*
Y184473D01*
X105384D01*
Y184521D01*
X105480D01*
Y184569D01*
X105575D01*
Y184617D01*
X105671D01*
Y184665D01*
X105767D01*
Y184713D01*
X105815D01*
Y184760D01*
X105911D01*
Y184808D01*
X106006D01*
Y184856D01*
X106102D01*
Y184904D01*
X106198D01*
Y184952D01*
X106294D01*
Y185000D01*
X106390D01*
Y185048D01*
X106486D01*
Y185096D01*
X106581D01*
Y185144D01*
X106677D01*
Y185191D01*
X106821D01*
Y185239D01*
X106869D01*
Y185287D01*
X107012D01*
Y185335D01*
X107108D01*
Y185383D01*
X107204D01*
Y185431D01*
X107348D01*
Y185479D01*
X107443D01*
Y185527D01*
X107587D01*
Y185575D01*
X107731D01*
Y185623D01*
X107827D01*
Y185671D01*
X108018D01*
Y185718D01*
X108162D01*
Y185766D01*
X108306D01*
Y185814D01*
X108497D01*
Y185862D01*
X108641D01*
Y185910D01*
X108785D01*
Y185958D01*
X109024D01*
Y186006D01*
X109168D01*
Y186054D01*
X109359D01*
Y186102D01*
X109551D01*
Y186150D01*
X109695D01*
Y186197D01*
X109934D01*
Y186245D01*
X110126D01*
Y186293D01*
X110269D01*
Y186341D01*
X110509D01*
Y186389D01*
X110653D01*
Y186437D01*
X110844D01*
Y186485D01*
X110988D01*
Y186533D01*
X111132D01*
Y186581D01*
X111323D01*
Y186628D01*
X111467D01*
Y186676D01*
X111611D01*
Y186724D01*
X111754D01*
Y186772D01*
X111850D01*
Y186820D01*
X112042D01*
Y186868D01*
X112137D01*
Y186916D01*
X112233D01*
Y186964D01*
X112377D01*
Y187012D01*
X112473D01*
Y187059D01*
X112569D01*
Y187107D01*
X112712D01*
Y187155D01*
X112760D01*
Y187203D01*
X112904D01*
Y187251D01*
X113000D01*
Y187299D01*
X113048D01*
Y187347D01*
X113143D01*
Y187395D01*
X113239D01*
Y187443D01*
X113287D01*
Y187491D01*
X113383D01*
Y187539D01*
X113431D01*
Y187586D01*
X113526D01*
Y187634D01*
X113574D01*
Y187682D01*
X113670D01*
Y187730D01*
X113718D01*
Y187778D01*
X113766D01*
Y187826D01*
X113814D01*
Y187874D01*
X113910D01*
Y187922D01*
X113958D01*
Y187970D01*
X114005D01*
Y188018D01*
X114053D01*
Y188065D01*
X114101D01*
Y188113D01*
X114149D01*
Y188161D01*
X114197D01*
Y188209D01*
X114245D01*
Y188257D01*
X114293D01*
Y188305D01*
X114341D01*
Y188449D01*
X114389D01*
Y188544D01*
X114437D01*
Y188640D01*
X114628D01*
Y188592D01*
D02*
G37*
G36*
X124926Y174354D02*
X124974D01*
Y165205D01*
X124926D01*
Y165062D01*
X124879D01*
Y164726D01*
X124831D01*
Y164631D01*
X124783D01*
Y164535D01*
X124831D01*
Y164487D01*
X124783D01*
Y164391D01*
X124735D01*
Y164152D01*
X124639D01*
Y163960D01*
X124591D01*
Y163769D01*
X124495D01*
Y163625D01*
X124399D01*
Y163577D01*
X124447D01*
Y163529D01*
X124399D01*
Y163481D01*
X124352D01*
Y163337D01*
X124304D01*
Y163290D01*
X124256D01*
Y163194D01*
X124208D01*
Y163098D01*
X124112D01*
Y163002D01*
X124064D01*
Y162906D01*
X124016D01*
Y162858D01*
X123968D01*
Y162810D01*
X123920D01*
Y162763D01*
X123873D01*
Y162715D01*
X123825D01*
Y162667D01*
X123777D01*
Y162619D01*
X123729D01*
Y162571D01*
X123681D01*
Y162523D01*
X123633D01*
Y162475D01*
X123585D01*
Y162427D01*
X123537D01*
Y162379D01*
X123489D01*
Y162332D01*
X123441D01*
Y162284D01*
X123394D01*
Y162236D01*
X123346D01*
Y162188D01*
X123298D01*
Y162140D01*
X123202D01*
Y162092D01*
X123154D01*
Y162044D01*
X123106D01*
Y161996D01*
X123058D01*
Y161948D01*
X122963D01*
Y161900D01*
X122867D01*
Y161852D01*
X122819D01*
Y161805D01*
X122723D01*
Y161757D01*
X122627D01*
Y161709D01*
X122579D01*
Y161661D01*
X122436D01*
Y161613D01*
X122340D01*
Y161565D01*
X122292D01*
Y161517D01*
X122148D01*
Y161469D01*
X122100D01*
Y161421D01*
X121957D01*
Y161374D01*
X121765D01*
Y161278D01*
X121573D01*
Y161230D01*
X121382D01*
Y161182D01*
X121286D01*
Y161134D01*
X121047D01*
Y161086D01*
X120999D01*
Y161038D01*
X120711D01*
Y160990D01*
X120328D01*
Y160942D01*
X120280D01*
Y160895D01*
X119753D01*
Y160847D01*
X119514D01*
Y160799D01*
X119370D01*
Y160847D01*
X117789D01*
Y160799D01*
X117694D01*
Y160847D01*
X117406D01*
Y160895D01*
X116879D01*
Y160942D01*
X116832D01*
Y160990D01*
X116448D01*
Y161038D01*
X116161D01*
Y161086D01*
X116113D01*
Y161134D01*
X115874D01*
Y161182D01*
X115826D01*
Y161230D01*
X115730D01*
Y161182D01*
X115682D01*
Y161230D01*
X115586D01*
Y161278D01*
X115395D01*
Y161374D01*
X115203D01*
Y161421D01*
X115059D01*
Y161469D01*
X115011D01*
Y161517D01*
X114868D01*
Y161565D01*
X114772D01*
Y161613D01*
X114724D01*
Y161661D01*
X114580D01*
Y161757D01*
X114437D01*
Y161805D01*
X114341D01*
Y161852D01*
X114293D01*
Y161900D01*
X114197D01*
Y161948D01*
X114149D01*
Y161996D01*
X114101D01*
Y162044D01*
X114005D01*
Y162092D01*
X113958D01*
Y162140D01*
X113862D01*
Y162188D01*
X113814D01*
Y162284D01*
X113718D01*
Y162379D01*
X113622D01*
Y162427D01*
X113526D01*
Y162475D01*
X113574D01*
Y162523D01*
X113479D01*
Y162571D01*
X113431D01*
Y162619D01*
X113383D01*
Y162667D01*
X113335D01*
Y162763D01*
X113239D01*
Y162858D01*
X113143D01*
Y162954D01*
X113095D01*
Y163002D01*
X113048D01*
Y163050D01*
X113000D01*
Y163146D01*
X112952D01*
Y163194D01*
X112904D01*
Y163290D01*
X112856D01*
Y163385D01*
X112808D01*
Y163433D01*
X112760D01*
Y163577D01*
X112712D01*
Y163721D01*
X112617D01*
Y163912D01*
X112521D01*
Y164104D01*
X112473D01*
Y164295D01*
X112425D01*
Y164343D01*
X112377D01*
Y164583D01*
X112329D01*
Y164678D01*
X112281D01*
Y164774D01*
X112329D01*
Y164870D01*
X112281D01*
Y165014D01*
X112233D01*
Y165541D01*
X112185D01*
Y174354D01*
X112281D01*
Y174450D01*
X115682D01*
Y174402D01*
X115730D01*
Y174354D01*
X115778D01*
Y174450D01*
X115826D01*
Y165589D01*
X115874D01*
Y165493D01*
X115921D01*
Y165205D01*
X115969D01*
Y165110D01*
X116017D01*
Y165062D01*
X115969D01*
Y165014D01*
X116017D01*
Y164966D01*
X116065D01*
Y164774D01*
X116161D01*
Y164678D01*
X116113D01*
Y164631D01*
X116209D01*
Y164535D01*
X116257D01*
Y164487D01*
X116305D01*
Y164391D01*
X116353D01*
Y164343D01*
X116400D01*
Y164295D01*
X116448D01*
Y164200D01*
X116496D01*
Y164104D01*
X116592D01*
Y164056D01*
X116640D01*
Y163960D01*
X116736D01*
Y163912D01*
X116832D01*
Y163864D01*
X116879D01*
Y163816D01*
X116927D01*
Y163769D01*
X116975D01*
Y163721D01*
X117071D01*
Y163673D01*
X117167D01*
Y163625D01*
X117215D01*
Y163577D01*
X117358D01*
Y163529D01*
X117502D01*
Y163481D01*
X117550D01*
Y163433D01*
X117837D01*
Y163385D01*
X117885D01*
Y163337D01*
X118029D01*
Y163385D01*
X118173D01*
Y163337D01*
X118987D01*
Y163385D01*
X119179D01*
Y163337D01*
X119274D01*
Y163385D01*
X119370D01*
Y163433D01*
X119610D01*
Y163481D01*
X119657D01*
Y163529D01*
X119801D01*
Y163577D01*
X119945D01*
Y163625D01*
X119993D01*
Y163673D01*
X120089D01*
Y163721D01*
X120232D01*
Y163816D01*
X120328D01*
Y163864D01*
X120376D01*
Y163912D01*
X120424D01*
Y163960D01*
X120520D01*
Y164056D01*
X120616D01*
Y164152D01*
X120663D01*
Y164200D01*
X120711D01*
Y164295D01*
X120807D01*
Y164391D01*
X120855D01*
Y164439D01*
X120903D01*
Y164535D01*
X120951D01*
Y164631D01*
X120999D01*
Y164678D01*
X121047D01*
Y164822D01*
X121095D01*
Y164870D01*
X121142D01*
Y164918D01*
X121095D01*
Y164966D01*
X121142D01*
Y165014D01*
X121190D01*
Y165253D01*
X121238D01*
Y165301D01*
X121286D01*
Y165684D01*
X121334D01*
Y174354D01*
X121382D01*
Y174450D01*
X124926D01*
Y174354D01*
D02*
G37*
G36*
X110365Y171863D02*
X106246D01*
Y171815D01*
X106198D01*
Y161038D01*
X102462D01*
Y166451D01*
Y166499D01*
Y171815D01*
X102414D01*
Y171863D01*
X98295D01*
Y171911D01*
X98247D01*
Y172007D01*
X98295D01*
Y174354D01*
X98247D01*
Y174402D01*
X98295D01*
Y174498D01*
X110365D01*
Y171863D01*
D02*
G37*
G36*
X121889Y158682D02*
X122004D01*
Y158653D01*
X122147D01*
Y158624D01*
X122233D01*
Y158596D01*
X122262D01*
Y157765D01*
X122233D01*
Y157736D01*
X121918D01*
Y157765D01*
X121488D01*
Y157736D01*
X121287D01*
Y157707D01*
X121173D01*
Y157679D01*
X121116D01*
Y157650D01*
X121058D01*
Y157621D01*
X121001D01*
Y157593D01*
X120972D01*
Y157564D01*
X120943D01*
Y157507D01*
X120915D01*
Y157478D01*
X120886D01*
Y157421D01*
X120858D01*
Y157335D01*
X120829D01*
Y157220D01*
X120800D01*
Y156131D01*
X120829D01*
Y156103D01*
X122090D01*
Y155357D01*
X120800D01*
Y150514D01*
X119711D01*
Y150944D01*
Y150973D01*
Y155357D01*
X118651D01*
Y156103D01*
X119683D01*
Y156131D01*
X119711D01*
Y157249D01*
X119740D01*
Y157478D01*
X119769D01*
Y157621D01*
X119797D01*
Y157736D01*
X119826D01*
Y157793D01*
X119855D01*
Y157879D01*
X119883D01*
Y157937D01*
X119912D01*
Y157965D01*
X119941D01*
Y158022D01*
X119969D01*
Y158080D01*
X119998D01*
Y158109D01*
X120027D01*
Y158166D01*
X120055D01*
Y158195D01*
X120084D01*
Y158223D01*
X120112D01*
Y158252D01*
X120141D01*
Y158280D01*
X120170D01*
Y158309D01*
X120198D01*
Y158338D01*
X120256D01*
Y158366D01*
X120284D01*
Y158395D01*
X120313D01*
Y158424D01*
X120370D01*
Y158452D01*
X120399D01*
Y158481D01*
X120456D01*
Y158510D01*
X120514D01*
Y158538D01*
X120571D01*
Y158567D01*
X120657D01*
Y158596D01*
X120714D01*
Y158624D01*
X120800D01*
Y158653D01*
X120915D01*
Y158682D01*
X121030D01*
Y158710D01*
X121889D01*
Y158682D01*
D02*
G37*
G36*
X117476Y150514D02*
X116416D01*
Y158109D01*
Y158137D01*
Y158567D01*
X117476D01*
Y150514D01*
D02*
G37*
G36*
X105469Y158538D02*
X105870D01*
Y158510D01*
X106042D01*
Y158481D01*
X106242D01*
Y158452D01*
X106328D01*
Y158424D01*
X106443D01*
Y158395D01*
X106586D01*
Y158366D01*
X106644D01*
Y158338D01*
X106730D01*
Y158309D01*
X106816D01*
Y158280D01*
X106873D01*
Y158252D01*
X106959D01*
Y158223D01*
X107016D01*
Y158195D01*
X107073D01*
Y158166D01*
X107159D01*
Y158137D01*
X107188D01*
Y158109D01*
X107245D01*
Y158080D01*
X107303D01*
Y158051D01*
X107360D01*
Y158022D01*
X107417D01*
Y157994D01*
X107446D01*
Y157965D01*
X107475D01*
Y157937D01*
X107532D01*
Y157908D01*
X107561D01*
Y157879D01*
X107618D01*
Y157851D01*
X107647D01*
Y157822D01*
X107675D01*
Y157793D01*
X107704D01*
Y157765D01*
X107761D01*
Y157736D01*
X107790D01*
Y157707D01*
X107819D01*
Y157679D01*
X107847D01*
Y157650D01*
X107876D01*
Y157621D01*
X107905D01*
Y157593D01*
X107933D01*
Y157564D01*
X107962D01*
Y157535D01*
X107991D01*
Y157507D01*
X108019D01*
Y157478D01*
X108048D01*
Y157449D01*
X108076D01*
Y157421D01*
X108105D01*
Y157363D01*
X108134D01*
Y157335D01*
X108162D01*
Y157306D01*
X108191D01*
Y157277D01*
X108220D01*
Y157249D01*
X108248D01*
Y157191D01*
X108277D01*
Y157163D01*
X108306D01*
Y157106D01*
X108334D01*
Y157077D01*
X108363D01*
Y157020D01*
X108392D01*
Y156962D01*
X108420D01*
Y156934D01*
X108449D01*
Y156876D01*
X108478D01*
Y156819D01*
X108506D01*
Y156762D01*
X108535D01*
Y156704D01*
X108564D01*
Y156647D01*
X108592D01*
Y156618D01*
X108621D01*
Y156532D01*
X108650D01*
Y156446D01*
X108678D01*
Y156389D01*
X108707D01*
Y156303D01*
X108736D01*
Y156246D01*
X108764D01*
Y156160D01*
X108793D01*
Y156131D01*
Y156103D01*
Y156045D01*
X108822D01*
Y155959D01*
X108850D01*
Y155845D01*
X108879D01*
Y155730D01*
X108907D01*
Y155615D01*
X108936D01*
Y155443D01*
X108965D01*
Y155272D01*
X108994D01*
Y155014D01*
X109022D01*
Y154985D01*
X108994D01*
Y154928D01*
X109022D01*
Y154154D01*
X108994D01*
Y154096D01*
X109022D01*
Y154039D01*
X108994D01*
Y153810D01*
X108965D01*
Y153638D01*
X108936D01*
Y153437D01*
X108907D01*
Y153351D01*
X108879D01*
Y153208D01*
X108850D01*
Y153094D01*
X108822D01*
Y153007D01*
X108793D01*
Y152922D01*
X108764D01*
Y152836D01*
X108736D01*
Y152750D01*
X108707D01*
Y152664D01*
X108678D01*
Y152606D01*
X108650D01*
Y152549D01*
X108621D01*
Y152463D01*
X108592D01*
Y152406D01*
X108564D01*
Y152348D01*
X108535D01*
Y152291D01*
X108506D01*
Y152234D01*
X108478D01*
Y152177D01*
X108449D01*
Y152148D01*
X108420D01*
Y152091D01*
X108392D01*
Y152033D01*
X108363D01*
Y152004D01*
X108334D01*
Y151947D01*
X108306D01*
Y151919D01*
X108277D01*
Y151861D01*
X108248D01*
Y151833D01*
X108220D01*
Y151804D01*
X108191D01*
Y151747D01*
X108162D01*
Y151718D01*
X108134D01*
Y151689D01*
X108105D01*
Y151661D01*
X108076D01*
Y151632D01*
X108048D01*
Y151603D01*
X108019D01*
Y151546D01*
X107991D01*
Y151517D01*
X107962D01*
Y151489D01*
X107933D01*
Y151460D01*
X107905D01*
Y151431D01*
X107876D01*
Y151403D01*
X107847D01*
Y151374D01*
X107790D01*
Y151345D01*
X107761D01*
Y151317D01*
X107733D01*
Y151288D01*
X107704D01*
Y151259D01*
X107675D01*
Y151231D01*
X107618D01*
Y151202D01*
X107589D01*
Y151173D01*
X107561D01*
Y151145D01*
X107503D01*
Y151116D01*
X107475D01*
Y151088D01*
X107417D01*
Y151059D01*
X107360D01*
Y151030D01*
X107331D01*
Y151002D01*
X107274D01*
Y150973D01*
X107217D01*
Y150944D01*
X107188D01*
Y150916D01*
X107131D01*
Y150887D01*
X107073D01*
Y150858D01*
X106987D01*
Y150830D01*
X106930D01*
Y150801D01*
X106873D01*
Y150772D01*
X106787D01*
Y150744D01*
X106701D01*
Y150715D01*
X106615D01*
Y150686D01*
X106529D01*
Y150658D01*
X106414D01*
Y150629D01*
X106300D01*
Y150600D01*
X106128D01*
Y150572D01*
X106013D01*
Y150543D01*
X105698D01*
Y150514D01*
X102431D01*
Y158567D01*
X105469D01*
Y158538D01*
D02*
G37*
G36*
X125326Y157564D02*
Y157535D01*
Y156131D01*
X125354D01*
Y156103D01*
X126644D01*
Y155386D01*
X126615D01*
Y155357D01*
X125326D01*
Y151661D01*
X125354D01*
Y151517D01*
X125383D01*
Y151460D01*
X125412D01*
Y151431D01*
X125440D01*
Y151374D01*
X125469D01*
Y151345D01*
X125498D01*
Y151317D01*
X125555D01*
Y151288D01*
X125584D01*
Y151259D01*
X125641D01*
Y151231D01*
X125698D01*
Y151202D01*
X125813D01*
Y151173D01*
X125985D01*
Y151145D01*
X126071D01*
Y151173D01*
X126357D01*
Y151202D01*
X126501D01*
Y151231D01*
X126587D01*
Y150400D01*
X126472D01*
Y150371D01*
X126243D01*
Y150342D01*
X125440D01*
Y150371D01*
X125211D01*
Y150400D01*
X125096D01*
Y150428D01*
X124982D01*
Y150457D01*
X124896D01*
Y150486D01*
X124838D01*
Y150514D01*
X124781D01*
Y150543D01*
X124724D01*
Y150572D01*
X124667D01*
Y150600D01*
X124638D01*
Y150629D01*
X124581D01*
Y150658D01*
X124552D01*
Y150686D01*
X124523D01*
Y150715D01*
X124495D01*
Y150772D01*
X124466D01*
Y150801D01*
X124437D01*
Y150858D01*
X124409D01*
Y150887D01*
X124380D01*
Y150944D01*
X124351D01*
Y151030D01*
X124323D01*
Y151116D01*
X124294D01*
Y151288D01*
X124265D01*
Y155329D01*
X124237D01*
Y155357D01*
X123291D01*
Y156103D01*
X124237D01*
Y156131D01*
X124265D01*
Y157306D01*
X124323D01*
Y157335D01*
X124409D01*
Y157363D01*
X124495D01*
Y157392D01*
X124581D01*
Y157421D01*
X124695D01*
Y157449D01*
X124781D01*
Y157478D01*
X124867D01*
Y157507D01*
X124953D01*
Y157535D01*
X125039D01*
Y157564D01*
X125154D01*
Y157593D01*
X125240D01*
Y157621D01*
X125326D01*
Y157564D01*
D02*
G37*
G36*
X113006Y156246D02*
X113206D01*
Y156217D01*
X113321D01*
Y156188D01*
X113464D01*
Y156160D01*
X113550D01*
Y156131D01*
X113607D01*
Y156103D01*
X113722D01*
Y156074D01*
X113751D01*
Y156045D01*
X113837D01*
Y156017D01*
X113894D01*
Y155988D01*
X113951D01*
Y155959D01*
X114009D01*
Y155931D01*
X114037D01*
Y155902D01*
X114094D01*
Y155873D01*
X114123D01*
Y155845D01*
X114152D01*
Y155816D01*
X114209D01*
Y155787D01*
X114238D01*
Y155759D01*
X114266D01*
Y155730D01*
X114295D01*
Y155701D01*
X114324D01*
Y155673D01*
X114381D01*
Y155644D01*
X114410D01*
Y155615D01*
X114438D01*
Y155558D01*
X114467D01*
Y155529D01*
X114496D01*
Y155501D01*
X114524D01*
Y155472D01*
X114553D01*
Y155443D01*
X114582D01*
Y155415D01*
X114610D01*
Y155357D01*
X114639D01*
Y155329D01*
X114668D01*
Y155272D01*
X114696D01*
Y155243D01*
X114725D01*
Y155185D01*
X114754D01*
Y155128D01*
X114782D01*
Y155099D01*
X114811D01*
Y155042D01*
X114840D01*
Y154985D01*
X114868D01*
Y154928D01*
X114897D01*
Y154842D01*
X114925D01*
Y154784D01*
X114954D01*
Y154698D01*
X114983D01*
Y154584D01*
X115012D01*
Y154498D01*
X115040D01*
Y154354D01*
X115069D01*
Y154211D01*
X115098D01*
Y154010D01*
X115126D01*
Y153122D01*
X115098D01*
Y153094D01*
X111143D01*
Y152635D01*
X111171D01*
Y152463D01*
X111200D01*
Y152348D01*
X111229D01*
Y152205D01*
X111257D01*
Y152119D01*
X111286D01*
Y152033D01*
X111315D01*
Y151947D01*
X111343D01*
Y151919D01*
X111372D01*
Y151833D01*
X111401D01*
Y151775D01*
X111429D01*
Y151747D01*
X111458D01*
Y151689D01*
X111487D01*
Y151661D01*
X111515D01*
Y151603D01*
X111544D01*
Y151575D01*
X111573D01*
Y151546D01*
X111601D01*
Y151517D01*
X111630D01*
Y151460D01*
X111687D01*
Y151431D01*
X111716D01*
Y151403D01*
X111745D01*
Y151374D01*
X111773D01*
Y151345D01*
X111831D01*
Y151317D01*
X111859D01*
Y151288D01*
X111917D01*
Y151259D01*
X111974D01*
Y151231D01*
X112031D01*
Y151202D01*
X112117D01*
Y151173D01*
X112203D01*
Y151145D01*
X112404D01*
Y151116D01*
X112776D01*
Y151145D01*
X113034D01*
Y151173D01*
X113120D01*
Y151202D01*
X113206D01*
Y151231D01*
X113292D01*
Y151259D01*
X113349D01*
Y151288D01*
X113407D01*
Y151317D01*
X113435D01*
Y151345D01*
X113464D01*
Y151374D01*
X113521D01*
Y151403D01*
X113550D01*
Y151431D01*
X113579D01*
Y151460D01*
X113607D01*
Y151489D01*
X113636D01*
Y151517D01*
X113665D01*
Y151575D01*
X113693D01*
Y151603D01*
X113722D01*
Y151661D01*
X113751D01*
Y151718D01*
X113779D01*
Y151775D01*
X113808D01*
Y151833D01*
X113837D01*
Y151919D01*
X113865D01*
Y152004D01*
X113894D01*
Y152148D01*
X113923D01*
Y152234D01*
X113951D01*
Y152262D01*
X115040D01*
Y152234D01*
X115069D01*
Y152205D01*
X115040D01*
Y152033D01*
X115012D01*
Y151947D01*
X114983D01*
Y151833D01*
X114954D01*
Y151747D01*
X114925D01*
Y151661D01*
X114897D01*
Y151603D01*
X114868D01*
Y151546D01*
X114840D01*
Y151489D01*
X114811D01*
Y151431D01*
X114782D01*
Y151374D01*
X114754D01*
Y151345D01*
X114725D01*
Y151288D01*
X114696D01*
Y151259D01*
X114668D01*
Y151202D01*
X114639D01*
Y151173D01*
X114610D01*
Y151145D01*
X114582D01*
Y151088D01*
X114524D01*
Y151059D01*
X114496D01*
Y151002D01*
X114438D01*
Y150944D01*
X114410D01*
Y150916D01*
X114352D01*
Y150887D01*
X114324D01*
Y150858D01*
X114295D01*
Y150830D01*
X114238D01*
Y150801D01*
X114209D01*
Y150772D01*
X114180D01*
Y150744D01*
X114123D01*
Y150715D01*
X114094D01*
Y150686D01*
X114037D01*
Y150658D01*
X113980D01*
Y150629D01*
X113923D01*
Y150600D01*
X113865D01*
Y150572D01*
X113808D01*
Y150543D01*
X113722D01*
Y150514D01*
X113636D01*
Y150486D01*
X113550D01*
Y150457D01*
X113435D01*
Y150428D01*
X113321D01*
Y150400D01*
X113177D01*
Y150371D01*
X112948D01*
Y150342D01*
X112175D01*
Y150371D01*
X111974D01*
Y150400D01*
X111831D01*
Y150428D01*
X111745D01*
Y150457D01*
X111630D01*
Y150486D01*
X111544D01*
Y150514D01*
X111487D01*
Y150543D01*
X111401D01*
Y150572D01*
X111343D01*
Y150600D01*
X111286D01*
Y150629D01*
X111229D01*
Y150658D01*
X111200D01*
Y150686D01*
X111143D01*
Y150715D01*
X111114D01*
Y150744D01*
X111057D01*
Y150772D01*
X110999D01*
Y150801D01*
X110971D01*
Y150830D01*
X110942D01*
Y150858D01*
X110913D01*
Y150887D01*
X110885D01*
Y150916D01*
X110856D01*
Y150944D01*
X110828D01*
Y150973D01*
X110799D01*
Y151002D01*
X110770D01*
Y151030D01*
X110742D01*
Y151059D01*
X110713D01*
Y151088D01*
X110684D01*
Y151116D01*
X110656D01*
Y151145D01*
X110627D01*
Y151202D01*
X110598D01*
Y151231D01*
X110570D01*
Y151259D01*
X110541D01*
Y151317D01*
X110512D01*
Y151345D01*
X110484D01*
Y151403D01*
X110455D01*
Y151460D01*
X110426D01*
Y151489D01*
X110398D01*
Y151575D01*
X110369D01*
Y151632D01*
X110340D01*
Y151661D01*
X110312D01*
Y151747D01*
X110283D01*
Y151833D01*
X110254D01*
Y151890D01*
X110226D01*
Y152004D01*
X110197D01*
Y152091D01*
X110168D01*
Y152205D01*
X110140D01*
Y152348D01*
X110111D01*
Y152463D01*
X110083D01*
Y152750D01*
X110054D01*
Y153753D01*
X110083D01*
Y154010D01*
X110111D01*
Y154154D01*
X110140D01*
Y154268D01*
X110168D01*
Y154412D01*
X110197D01*
Y154469D01*
X110226D01*
Y154584D01*
X110254D01*
Y154670D01*
X110283D01*
Y154727D01*
X110312D01*
Y154813D01*
X110340D01*
Y154842D01*
X110369D01*
Y154928D01*
X110398D01*
Y154985D01*
X110426D01*
Y155014D01*
X110455D01*
Y155099D01*
X110484D01*
Y155128D01*
X110512D01*
Y155185D01*
X110541D01*
Y155214D01*
X110570D01*
Y155272D01*
X110598D01*
Y155300D01*
X110627D01*
Y155357D01*
X110656D01*
Y155386D01*
X110684D01*
Y155415D01*
X110713D01*
Y155443D01*
X110742D01*
Y155472D01*
X110770D01*
Y155529D01*
X110799D01*
Y155558D01*
X110828D01*
Y155587D01*
X110856D01*
Y155615D01*
X110885D01*
Y155644D01*
X110913D01*
Y155673D01*
X110942D01*
Y155701D01*
X110999D01*
Y155730D01*
X111028D01*
Y155759D01*
X111057D01*
Y155787D01*
X111086D01*
Y155816D01*
X111143D01*
Y155845D01*
X111171D01*
Y155873D01*
X111229D01*
Y155902D01*
X111257D01*
Y155931D01*
X111315D01*
Y155959D01*
X111372D01*
Y155988D01*
X111401D01*
Y156017D01*
X111458D01*
Y156045D01*
X111544D01*
Y156074D01*
X111601D01*
Y156103D01*
X111687D01*
Y156131D01*
X111773D01*
Y156160D01*
X111831D01*
Y156188D01*
X111974D01*
Y156217D01*
X112088D01*
Y156246D01*
X112289D01*
Y156274D01*
X113006D01*
Y156246D01*
D02*
G37*
G36*
X114628Y112512D02*
X114676D01*
Y112176D01*
X114628D01*
Y111985D01*
X114580D01*
Y111793D01*
X114532D01*
Y111745D01*
X114485D01*
Y111601D01*
X114437D01*
Y111554D01*
X114389D01*
Y111506D01*
X114341D01*
Y111410D01*
X114293D01*
Y111362D01*
X114245D01*
Y111266D01*
X114197D01*
Y111218D01*
X114149D01*
Y111170D01*
X114101D01*
Y111123D01*
X114053D01*
Y111075D01*
X114005D01*
Y111027D01*
X113958D01*
Y110979D01*
X113910D01*
Y110931D01*
X113862D01*
Y110883D01*
X113814D01*
Y110835D01*
X113766D01*
Y110787D01*
X113670D01*
Y110739D01*
X113622D01*
Y110691D01*
X113574D01*
Y110644D01*
X113526D01*
Y110596D01*
X113431D01*
Y110548D01*
X113383D01*
Y110500D01*
X113335D01*
Y110452D01*
X113287D01*
Y110404D01*
X113191D01*
Y110356D01*
X113143D01*
Y110308D01*
X113095D01*
Y110260D01*
X113000D01*
Y110212D01*
X112952D01*
Y110164D01*
X112904D01*
Y110117D01*
X112808D01*
Y110069D01*
X112760D01*
Y110021D01*
X112664D01*
Y109973D01*
X112617D01*
Y109925D01*
X112569D01*
Y109877D01*
X112473D01*
Y109829D01*
X112425D01*
Y109781D01*
X112329D01*
Y109733D01*
X112281D01*
Y109686D01*
X112185D01*
Y109638D01*
X112137D01*
Y109590D01*
X112042D01*
Y109542D01*
X111994D01*
Y109494D01*
X111946D01*
Y109446D01*
X111850D01*
Y109398D01*
X111802D01*
Y109350D01*
X111706D01*
Y109302D01*
X111658D01*
Y109255D01*
X111611D01*
Y109207D01*
X111515D01*
Y109159D01*
X111467D01*
Y109111D01*
X111371D01*
Y109063D01*
X111323D01*
Y109015D01*
X111275D01*
Y108967D01*
X111180D01*
Y108919D01*
X111132D01*
Y108871D01*
X111084D01*
Y108823D01*
X110988D01*
Y108776D01*
X110940D01*
Y108728D01*
X110892D01*
Y108680D01*
X110844D01*
Y108632D01*
X110796D01*
Y108584D01*
X110701D01*
Y108536D01*
X110653D01*
Y108488D01*
X110605D01*
Y108440D01*
X110557D01*
Y108392D01*
X110509D01*
Y108344D01*
X110461D01*
Y108296D01*
X110413D01*
Y108249D01*
X110365D01*
Y108201D01*
X110317D01*
Y108153D01*
X110269D01*
Y108105D01*
X110222D01*
Y108057D01*
X110174D01*
Y108009D01*
X110126D01*
Y107961D01*
X110078D01*
Y107913D01*
X110030D01*
Y107817D01*
X109982D01*
Y107770D01*
X109934D01*
Y107722D01*
X109886D01*
Y107626D01*
X109838D01*
Y107530D01*
X109790D01*
Y107482D01*
X109743D01*
Y107338D01*
X109695D01*
Y107243D01*
X109647D01*
Y107051D01*
X109599D01*
Y106476D01*
X109647D01*
Y106285D01*
X109695D01*
Y106189D01*
X109743D01*
Y106093D01*
X109790D01*
Y106045D01*
X109838D01*
Y105949D01*
X109886D01*
Y105902D01*
X109934D01*
Y105854D01*
X109982D01*
Y105806D01*
X110030D01*
Y105758D01*
X110126D01*
Y105710D01*
X110222D01*
Y105662D01*
X110317D01*
Y105614D01*
X110557D01*
Y105566D01*
X110988D01*
Y105614D01*
X111275D01*
Y105662D01*
X111467D01*
Y105710D01*
X111563D01*
Y105758D01*
X111706D01*
Y105806D01*
X111802D01*
Y105854D01*
X111898D01*
Y105902D01*
X111994D01*
Y105949D01*
X112042D01*
Y105997D01*
X112137D01*
Y106045D01*
X112185D01*
Y106093D01*
X112281D01*
Y106141D01*
X112329D01*
Y106189D01*
X112425D01*
Y106237D01*
X112473D01*
Y106285D01*
X112521D01*
Y106333D01*
X112617D01*
Y106381D01*
X112664D01*
Y106428D01*
X112712D01*
Y106476D01*
X112760D01*
Y106524D01*
X112808D01*
Y106572D01*
X112856D01*
Y106620D01*
X112904D01*
Y106668D01*
X113000D01*
Y106716D01*
X113095D01*
Y106668D01*
X113143D01*
Y106620D01*
X113191D01*
Y106428D01*
X113143D01*
Y106333D01*
X113095D01*
Y106189D01*
X113048D01*
Y105997D01*
X113000D01*
Y105902D01*
X112952D01*
Y105710D01*
X112904D01*
Y105614D01*
X112856D01*
Y105518D01*
X112808D01*
Y105375D01*
X112760D01*
Y105279D01*
X112712D01*
Y105183D01*
X112664D01*
Y105039D01*
X112617D01*
Y104992D01*
X112569D01*
Y104848D01*
X112521D01*
Y104752D01*
X112473D01*
Y104704D01*
X112425D01*
Y104560D01*
X112377D01*
Y104513D01*
X112329D01*
Y104417D01*
X112281D01*
Y104321D01*
X112233D01*
Y104273D01*
X112185D01*
Y104177D01*
X112137D01*
Y104081D01*
X112090D01*
Y103986D01*
X112042D01*
Y103938D01*
X111994D01*
Y103842D01*
X111946D01*
Y103794D01*
X111898D01*
Y103698D01*
X111850D01*
Y103603D01*
X111802D01*
Y103555D01*
X111754D01*
Y103459D01*
X111706D01*
Y103411D01*
X111658D01*
Y103315D01*
X111611D01*
Y103267D01*
X111563D01*
Y103219D01*
X111515D01*
Y103124D01*
X111467D01*
Y103076D01*
X111419D01*
Y103028D01*
X111371D01*
Y102932D01*
X111323D01*
Y102884D01*
X111275D01*
Y102836D01*
X111227D01*
Y102788D01*
X111180D01*
Y102740D01*
X111132D01*
Y102645D01*
X111084D01*
Y102597D01*
X111036D01*
Y102549D01*
X110988D01*
Y102501D01*
X110940D01*
Y102453D01*
X110892D01*
Y102357D01*
X110844D01*
Y102309D01*
X110796D01*
Y102261D01*
X110748D01*
Y102213D01*
X110701D01*
Y102165D01*
X110653D01*
Y102118D01*
X110605D01*
Y102070D01*
X110557D01*
Y102022D01*
X110509D01*
Y101974D01*
X110461D01*
Y101926D01*
X110413D01*
Y101878D01*
X110365D01*
Y101830D01*
X110317D01*
Y101782D01*
X110269D01*
Y101734D01*
X110222D01*
Y101686D01*
X110174D01*
Y101639D01*
X110126D01*
Y101591D01*
X110078D01*
Y101543D01*
X109982D01*
Y101495D01*
X109934D01*
Y101447D01*
X109886D01*
Y101399D01*
X109838D01*
Y101351D01*
X109790D01*
Y101303D01*
X109695D01*
Y101255D01*
X109647D01*
Y101208D01*
X109599D01*
Y101160D01*
X109503D01*
Y101112D01*
X109455D01*
Y101064D01*
X109407D01*
Y101016D01*
X109312D01*
Y100968D01*
X109264D01*
Y100920D01*
X109168D01*
Y100872D01*
X109120D01*
Y100824D01*
X109024D01*
Y100777D01*
X108976D01*
Y100729D01*
X108880D01*
Y100681D01*
X108785D01*
Y100633D01*
X108737D01*
Y100585D01*
X108641D01*
Y100537D01*
X108545D01*
Y100489D01*
X108449D01*
Y100441D01*
X108354D01*
Y100393D01*
X108210D01*
Y100345D01*
X108162D01*
Y100297D01*
X108018D01*
Y100250D01*
X107874D01*
Y100202D01*
X107731D01*
Y100154D01*
X107539D01*
Y100106D01*
X107395D01*
Y100058D01*
X107156D01*
Y100010D01*
X106773D01*
Y99962D01*
X106150D01*
Y100154D01*
X106198D01*
Y100202D01*
X106294D01*
Y100250D01*
X106390D01*
Y100297D01*
X106533D01*
Y100345D01*
X106581D01*
Y100393D01*
X106725D01*
Y100441D01*
X106821D01*
Y100489D01*
X106917D01*
Y100537D01*
X106964D01*
Y100585D01*
X107060D01*
Y100633D01*
X107108D01*
Y100681D01*
X107156D01*
Y100729D01*
X107204D01*
Y100777D01*
X107300D01*
Y100824D01*
X107348D01*
Y100872D01*
X107395D01*
Y100920D01*
X107443D01*
Y100968D01*
X107491D01*
Y101016D01*
X107539D01*
Y101064D01*
X107587D01*
Y101112D01*
X107635D01*
Y101160D01*
X107683D01*
Y101208D01*
X107731D01*
Y101255D01*
X107779D01*
Y101303D01*
X107827D01*
Y101399D01*
X107874D01*
Y101447D01*
X107922D01*
Y101495D01*
X107970D01*
Y101591D01*
X108018D01*
Y101639D01*
X108066D01*
Y101734D01*
X108114D01*
Y101782D01*
X108162D01*
Y101878D01*
X108210D01*
Y101974D01*
X108258D01*
Y102070D01*
X108306D01*
Y102165D01*
X108354D01*
Y102261D01*
X108401D01*
Y102357D01*
X108449D01*
Y102501D01*
X108497D01*
Y102645D01*
X108545D01*
Y102740D01*
X108593D01*
Y102932D01*
X108641D01*
Y103076D01*
X108689D01*
Y103267D01*
X108737D01*
Y103555D01*
X108785D01*
Y103746D01*
X108833D01*
Y104033D01*
X108880D01*
Y104513D01*
X108833D01*
Y104560D01*
X108785D01*
Y104513D01*
X108737D01*
Y104465D01*
X108689D01*
Y104369D01*
X108641D01*
Y104321D01*
X108593D01*
Y104225D01*
X108545D01*
Y104129D01*
X108497D01*
Y104081D01*
X108449D01*
Y103986D01*
X108401D01*
Y103938D01*
X108354D01*
Y103890D01*
X108306D01*
Y103842D01*
X108258D01*
Y103794D01*
X108210D01*
Y103746D01*
X108162D01*
Y103698D01*
X108114D01*
Y103650D01*
X108066D01*
Y103603D01*
X108018D01*
Y103555D01*
X107970D01*
Y103507D01*
X107922D01*
Y103459D01*
X107827D01*
Y103411D01*
X107779D01*
Y103363D01*
X107731D01*
Y103315D01*
X107635D01*
Y103267D01*
X107587D01*
Y103219D01*
X107491D01*
Y103171D01*
X107395D01*
Y103124D01*
X107300D01*
Y103076D01*
X107156D01*
Y103028D01*
X106964D01*
Y102980D01*
X106438D01*
Y103028D01*
X106342D01*
Y103076D01*
X106246D01*
Y103124D01*
X106150D01*
Y103171D01*
X106102D01*
Y103219D01*
X106054D01*
Y103267D01*
X106006D01*
Y103315D01*
X105959D01*
Y103363D01*
X105911D01*
Y103459D01*
X105863D01*
Y103507D01*
X105815D01*
Y103650D01*
X105767D01*
Y103794D01*
X105719D01*
Y104321D01*
X105767D01*
Y104513D01*
X105815D01*
Y104656D01*
X105863D01*
Y104704D01*
X105911D01*
Y104848D01*
X105959D01*
Y104896D01*
X106006D01*
Y104992D01*
X106054D01*
Y105087D01*
X106102D01*
Y105135D01*
X106150D01*
Y105231D01*
X106198D01*
Y105279D01*
X106246D01*
Y105327D01*
X106294D01*
Y105423D01*
X106342D01*
Y105471D01*
X106390D01*
Y105566D01*
X106438D01*
Y105614D01*
X106486D01*
Y105710D01*
X106533D01*
Y105758D01*
X106581D01*
Y105854D01*
X106629D01*
Y105902D01*
X106677D01*
Y105997D01*
X106725D01*
Y106045D01*
X106773D01*
Y106141D01*
X106821D01*
Y106237D01*
X106869D01*
Y106285D01*
X106917D01*
Y106381D01*
X106964D01*
Y106476D01*
X107012D01*
Y106572D01*
X107060D01*
Y106716D01*
X107108D01*
Y106812D01*
X107156D01*
Y106955D01*
X107204D01*
Y107147D01*
X107252D01*
Y107338D01*
X107300D01*
Y107530D01*
X107252D01*
Y107578D01*
X107204D01*
Y107530D01*
X107156D01*
Y107482D01*
X107108D01*
Y107434D01*
X107060D01*
Y107386D01*
X107012D01*
Y107291D01*
X106964D01*
Y107243D01*
X106917D01*
Y107147D01*
X106869D01*
Y107099D01*
X106821D01*
Y107003D01*
X106773D01*
Y106955D01*
X106725D01*
Y106860D01*
X106677D01*
Y106812D01*
X106629D01*
Y106764D01*
X106581D01*
Y106716D01*
X106533D01*
Y106620D01*
X106486D01*
Y106572D01*
X106438D01*
Y106524D01*
X106390D01*
Y106476D01*
X106342D01*
Y106428D01*
X106294D01*
Y106381D01*
X106246D01*
Y106333D01*
X106198D01*
Y106285D01*
X106150D01*
Y106237D01*
X106054D01*
Y106189D01*
X106006D01*
Y106141D01*
X105959D01*
Y106093D01*
X105911D01*
Y106045D01*
X105863D01*
Y105997D01*
X105815D01*
Y105949D01*
X105719D01*
Y105902D01*
X105671D01*
Y105854D01*
X105623D01*
Y105806D01*
X105575D01*
Y105758D01*
X105480D01*
Y105710D01*
X105432D01*
Y105662D01*
X105384D01*
Y105614D01*
X105288D01*
Y105566D01*
X105240D01*
Y105518D01*
X105192D01*
Y105471D01*
X105096D01*
Y105423D01*
X105049D01*
Y105375D01*
X105001D01*
Y105327D01*
X104905D01*
Y105279D01*
X104857D01*
Y105231D01*
X104809D01*
Y105183D01*
X104713D01*
Y105135D01*
X104665D01*
Y105087D01*
X104617D01*
Y105039D01*
X104522D01*
Y104992D01*
X104474D01*
Y104944D01*
X104426D01*
Y104896D01*
X104378D01*
Y104848D01*
X104282D01*
Y104800D01*
X104234D01*
Y104752D01*
X104186D01*
Y104704D01*
X104138D01*
Y104656D01*
X104090D01*
Y104608D01*
X103995D01*
Y104560D01*
X103947D01*
Y104513D01*
X103899D01*
Y104465D01*
X103851D01*
Y104417D01*
X103803D01*
Y104369D01*
X103755D01*
Y104321D01*
X103707D01*
Y104273D01*
X103659D01*
Y104225D01*
X103612D01*
Y104177D01*
X103564D01*
Y104129D01*
X103516D01*
Y104081D01*
X103468D01*
Y104033D01*
X103420D01*
Y103986D01*
X103372D01*
Y103938D01*
X103324D01*
Y103842D01*
X103276D01*
Y103794D01*
X103228D01*
Y103746D01*
X103181D01*
Y103698D01*
X103133D01*
Y103603D01*
X103085D01*
Y103555D01*
X103037D01*
Y103459D01*
X102989D01*
Y103363D01*
X102941D01*
Y103315D01*
X102893D01*
Y103219D01*
X102845D01*
Y103076D01*
X102797D01*
Y102980D01*
X102749D01*
Y102884D01*
X102702D01*
Y102692D01*
X102654D01*
Y102549D01*
X102606D01*
Y102261D01*
X102558D01*
Y101064D01*
X102510D01*
Y100872D01*
X102462D01*
Y100824D01*
X102318D01*
Y100872D01*
X102270D01*
Y100968D01*
X102222D01*
Y101160D01*
X102175D01*
Y101351D01*
X102127D01*
Y101495D01*
X102079D01*
Y101830D01*
X102031D01*
Y102022D01*
X101983D01*
Y102309D01*
X101935D01*
Y103890D01*
X101983D01*
Y104177D01*
X102031D01*
Y104369D01*
X102079D01*
Y104608D01*
X102127D01*
Y104752D01*
X102175D01*
Y104848D01*
X102222D01*
Y105039D01*
X102270D01*
Y105087D01*
X102318D01*
Y105231D01*
X102366D01*
Y105375D01*
X102414D01*
Y105423D01*
X102462D01*
Y105566D01*
X102510D01*
Y105614D01*
X102558D01*
Y105710D01*
X102606D01*
Y105806D01*
X102654D01*
Y105854D01*
X102702D01*
Y105949D01*
X102749D01*
Y106045D01*
X102797D01*
Y106093D01*
X102845D01*
Y106189D01*
X102893D01*
Y106237D01*
X102941D01*
Y106285D01*
X102989D01*
Y106381D01*
X103037D01*
Y106428D01*
X103085D01*
Y106476D01*
X103133D01*
Y106524D01*
X103181D01*
Y106572D01*
X103228D01*
Y106668D01*
X103276D01*
Y106716D01*
X103324D01*
Y106764D01*
X103372D01*
Y106812D01*
X103420D01*
Y106860D01*
X103468D01*
Y106908D01*
X103516D01*
Y106955D01*
X103564D01*
Y107003D01*
X103612D01*
Y107051D01*
X103659D01*
Y107099D01*
X103707D01*
Y107147D01*
X103755D01*
Y107195D01*
X103803D01*
Y107243D01*
X103851D01*
Y107291D01*
X103899D01*
Y107338D01*
X103947D01*
Y107386D01*
X103995D01*
Y107434D01*
X104090D01*
Y107482D01*
X104138D01*
Y107530D01*
X104186D01*
Y107578D01*
X104234D01*
Y107626D01*
X104282D01*
Y107674D01*
X104378D01*
Y107722D01*
X104426D01*
Y107770D01*
X104474D01*
Y107817D01*
X104570D01*
Y107865D01*
X104617D01*
Y107913D01*
X104665D01*
Y107961D01*
X104761D01*
Y108009D01*
X104809D01*
Y108057D01*
X104905D01*
Y108105D01*
X104953D01*
Y108153D01*
X105001D01*
Y108201D01*
X105096D01*
Y108249D01*
X105192D01*
Y108296D01*
X105240D01*
Y108344D01*
X105336D01*
Y108392D01*
X105384D01*
Y108440D01*
X105480D01*
Y108488D01*
X105575D01*
Y108536D01*
X105671D01*
Y108584D01*
X105767D01*
Y108632D01*
X105815D01*
Y108680D01*
X105911D01*
Y108728D01*
X106006D01*
Y108776D01*
X106102D01*
Y108823D01*
X106198D01*
Y108871D01*
X106294D01*
Y108919D01*
X106390D01*
Y108967D01*
X106486D01*
Y109015D01*
X106581D01*
Y109063D01*
X106677D01*
Y109111D01*
X106821D01*
Y109159D01*
X106869D01*
Y109207D01*
X107012D01*
Y109255D01*
X107108D01*
Y109302D01*
X107204D01*
Y109350D01*
X107348D01*
Y109398D01*
X107443D01*
Y109446D01*
X107587D01*
Y109494D01*
X107731D01*
Y109542D01*
X107827D01*
Y109590D01*
X108018D01*
Y109638D01*
X108162D01*
Y109686D01*
X108306D01*
Y109733D01*
X108497D01*
Y109781D01*
X108641D01*
Y109829D01*
X108785D01*
Y109877D01*
X109024D01*
Y109925D01*
X109168D01*
Y109973D01*
X109359D01*
Y110021D01*
X109551D01*
Y110069D01*
X109695D01*
Y110117D01*
X109934D01*
Y110164D01*
X110126D01*
Y110212D01*
X110269D01*
Y110260D01*
X110509D01*
Y110308D01*
X110653D01*
Y110356D01*
X110844D01*
Y110404D01*
X110988D01*
Y110452D01*
X111132D01*
Y110500D01*
X111323D01*
Y110548D01*
X111467D01*
Y110596D01*
X111611D01*
Y110644D01*
X111754D01*
Y110691D01*
X111850D01*
Y110739D01*
X112042D01*
Y110787D01*
X112137D01*
Y110835D01*
X112233D01*
Y110883D01*
X112377D01*
Y110931D01*
X112473D01*
Y110979D01*
X112569D01*
Y111027D01*
X112712D01*
Y111075D01*
X112760D01*
Y111123D01*
X112904D01*
Y111170D01*
X113000D01*
Y111218D01*
X113048D01*
Y111266D01*
X113143D01*
Y111314D01*
X113239D01*
Y111362D01*
X113287D01*
Y111410D01*
X113383D01*
Y111458D01*
X113431D01*
Y111506D01*
X113526D01*
Y111554D01*
X113574D01*
Y111601D01*
X113670D01*
Y111649D01*
X113718D01*
Y111697D01*
X113766D01*
Y111745D01*
X113814D01*
Y111793D01*
X113910D01*
Y111841D01*
X113958D01*
Y111889D01*
X114005D01*
Y111937D01*
X114053D01*
Y111985D01*
X114101D01*
Y112033D01*
X114149D01*
Y112080D01*
X114197D01*
Y112128D01*
X114245D01*
Y112176D01*
X114293D01*
Y112224D01*
X114341D01*
Y112368D01*
X114389D01*
Y112464D01*
X114437D01*
Y112559D01*
X114628D01*
Y112512D01*
D02*
G37*
G36*
X124926Y98273D02*
X124974D01*
Y89125D01*
X124926D01*
Y88981D01*
X124879D01*
Y88646D01*
X124831D01*
Y88550D01*
X124783D01*
Y88454D01*
X124831D01*
Y88406D01*
X124783D01*
Y88310D01*
X124735D01*
Y88071D01*
X124639D01*
Y87879D01*
X124591D01*
Y87688D01*
X124495D01*
Y87544D01*
X124399D01*
Y87496D01*
X124447D01*
Y87448D01*
X124399D01*
Y87400D01*
X124352D01*
Y87257D01*
X124304D01*
Y87209D01*
X124256D01*
Y87113D01*
X124208D01*
Y87017D01*
X124112D01*
Y86921D01*
X124064D01*
Y86826D01*
X124016D01*
Y86778D01*
X123968D01*
Y86730D01*
X123920D01*
Y86682D01*
X123873D01*
Y86634D01*
X123825D01*
Y86586D01*
X123777D01*
Y86538D01*
X123729D01*
Y86490D01*
X123681D01*
Y86442D01*
X123633D01*
Y86395D01*
X123585D01*
Y86347D01*
X123537D01*
Y86299D01*
X123489D01*
Y86251D01*
X123441D01*
Y86203D01*
X123394D01*
Y86155D01*
X123346D01*
Y86107D01*
X123298D01*
Y86059D01*
X123202D01*
Y86011D01*
X123154D01*
Y85963D01*
X123106D01*
Y85915D01*
X123058D01*
Y85868D01*
X122963D01*
Y85820D01*
X122867D01*
Y85772D01*
X122819D01*
Y85724D01*
X122723D01*
Y85676D01*
X122627D01*
Y85628D01*
X122579D01*
Y85580D01*
X122436D01*
Y85532D01*
X122340D01*
Y85484D01*
X122292D01*
Y85436D01*
X122148D01*
Y85389D01*
X122100D01*
Y85341D01*
X121957D01*
Y85293D01*
X121765D01*
Y85197D01*
X121573D01*
Y85149D01*
X121382D01*
Y85101D01*
X121286D01*
Y85053D01*
X121047D01*
Y85005D01*
X120999D01*
Y84958D01*
X120711D01*
Y84910D01*
X120328D01*
Y84862D01*
X120280D01*
Y84814D01*
X119753D01*
Y84766D01*
X119514D01*
Y84718D01*
X119370D01*
Y84766D01*
X117789D01*
Y84718D01*
X117694D01*
Y84766D01*
X117406D01*
Y84814D01*
X116879D01*
Y84862D01*
X116832D01*
Y84910D01*
X116448D01*
Y84958D01*
X116161D01*
Y85005D01*
X116113D01*
Y85053D01*
X115874D01*
Y85101D01*
X115826D01*
Y85149D01*
X115730D01*
Y85101D01*
X115682D01*
Y85149D01*
X115586D01*
Y85197D01*
X115395D01*
Y85293D01*
X115203D01*
Y85341D01*
X115059D01*
Y85389D01*
X115011D01*
Y85436D01*
X114868D01*
Y85484D01*
X114772D01*
Y85532D01*
X114724D01*
Y85580D01*
X114580D01*
Y85676D01*
X114437D01*
Y85724D01*
X114341D01*
Y85772D01*
X114293D01*
Y85820D01*
X114197D01*
Y85868D01*
X114149D01*
Y85915D01*
X114101D01*
Y85963D01*
X114005D01*
Y86011D01*
X113958D01*
Y86059D01*
X113862D01*
Y86107D01*
X113814D01*
Y86203D01*
X113718D01*
Y86299D01*
X113622D01*
Y86347D01*
X113526D01*
Y86395D01*
X113574D01*
Y86442D01*
X113479D01*
Y86490D01*
X113431D01*
Y86538D01*
X113383D01*
Y86586D01*
X113335D01*
Y86682D01*
X113239D01*
Y86778D01*
X113143D01*
Y86874D01*
X113095D01*
Y86921D01*
X113048D01*
Y86969D01*
X113000D01*
Y87065D01*
X112952D01*
Y87113D01*
X112904D01*
Y87209D01*
X112856D01*
Y87304D01*
X112808D01*
Y87352D01*
X112760D01*
Y87496D01*
X112712D01*
Y87640D01*
X112617D01*
Y87831D01*
X112521D01*
Y88023D01*
X112473D01*
Y88215D01*
X112425D01*
Y88263D01*
X112377D01*
Y88502D01*
X112329D01*
Y88598D01*
X112281D01*
Y88694D01*
X112329D01*
Y88789D01*
X112281D01*
Y88933D01*
X112233D01*
Y89460D01*
X112185D01*
Y98273D01*
X112281D01*
Y98369D01*
X115682D01*
Y98321D01*
X115730D01*
Y98273D01*
X115778D01*
Y98369D01*
X115826D01*
Y89508D01*
X115874D01*
Y89412D01*
X115921D01*
Y89125D01*
X115969D01*
Y89029D01*
X116017D01*
Y88981D01*
X115969D01*
Y88933D01*
X116017D01*
Y88885D01*
X116065D01*
Y88694D01*
X116161D01*
Y88598D01*
X116113D01*
Y88550D01*
X116209D01*
Y88454D01*
X116257D01*
Y88406D01*
X116305D01*
Y88310D01*
X116353D01*
Y88263D01*
X116400D01*
Y88215D01*
X116448D01*
Y88119D01*
X116496D01*
Y88023D01*
X116592D01*
Y87975D01*
X116640D01*
Y87879D01*
X116736D01*
Y87831D01*
X116832D01*
Y87783D01*
X116879D01*
Y87736D01*
X116927D01*
Y87688D01*
X116975D01*
Y87640D01*
X117071D01*
Y87592D01*
X117167D01*
Y87544D01*
X117215D01*
Y87496D01*
X117358D01*
Y87448D01*
X117502D01*
Y87400D01*
X117550D01*
Y87352D01*
X117837D01*
Y87304D01*
X117885D01*
Y87257D01*
X118029D01*
Y87304D01*
X118173D01*
Y87257D01*
X118987D01*
Y87304D01*
X119179D01*
Y87257D01*
X119274D01*
Y87304D01*
X119370D01*
Y87352D01*
X119610D01*
Y87400D01*
X119657D01*
Y87448D01*
X119801D01*
Y87496D01*
X119945D01*
Y87544D01*
X119993D01*
Y87592D01*
X120089D01*
Y87640D01*
X120232D01*
Y87736D01*
X120328D01*
Y87783D01*
X120376D01*
Y87831D01*
X120424D01*
Y87879D01*
X120520D01*
Y87975D01*
X120616D01*
Y88071D01*
X120663D01*
Y88119D01*
X120711D01*
Y88215D01*
X120807D01*
Y88310D01*
X120855D01*
Y88358D01*
X120903D01*
Y88454D01*
X120951D01*
Y88550D01*
X120999D01*
Y88598D01*
X121047D01*
Y88742D01*
X121095D01*
Y88789D01*
X121142D01*
Y88837D01*
X121095D01*
Y88885D01*
X121142D01*
Y88933D01*
X121190D01*
Y89173D01*
X121238D01*
Y89221D01*
X121286D01*
Y89604D01*
X121334D01*
Y98273D01*
X121382D01*
Y98369D01*
X124926D01*
Y98273D01*
D02*
G37*
G36*
X110365Y95783D02*
X106246D01*
Y95735D01*
X106198D01*
Y84958D01*
X102462D01*
Y90370D01*
Y90418D01*
Y95735D01*
X102414D01*
Y95783D01*
X98295D01*
Y95830D01*
X98247D01*
Y95926D01*
X98295D01*
Y98273D01*
X98247D01*
Y98321D01*
X98295D01*
Y98417D01*
X110365D01*
Y95783D01*
D02*
G37*
G36*
X121889Y82601D02*
X122004D01*
Y82572D01*
X122147D01*
Y82544D01*
X122233D01*
Y82515D01*
X122262D01*
Y81684D01*
X122233D01*
Y81655D01*
X121918D01*
Y81684D01*
X121488D01*
Y81655D01*
X121287D01*
Y81627D01*
X121173D01*
Y81598D01*
X121116D01*
Y81569D01*
X121058D01*
Y81541D01*
X121001D01*
Y81512D01*
X120972D01*
Y81483D01*
X120943D01*
Y81426D01*
X120915D01*
Y81397D01*
X120886D01*
Y81340D01*
X120858D01*
Y81254D01*
X120829D01*
Y81139D01*
X120800D01*
Y80050D01*
X120829D01*
Y80022D01*
X122090D01*
Y79277D01*
X120800D01*
Y74434D01*
X119711D01*
Y74864D01*
Y74892D01*
Y79277D01*
X118651D01*
Y80022D01*
X119683D01*
Y80050D01*
X119711D01*
Y81168D01*
X119740D01*
Y81397D01*
X119769D01*
Y81541D01*
X119797D01*
Y81655D01*
X119826D01*
Y81713D01*
X119855D01*
Y81798D01*
X119883D01*
Y81856D01*
X119912D01*
Y81884D01*
X119941D01*
Y81942D01*
X119969D01*
Y81999D01*
X119998D01*
Y82028D01*
X120027D01*
Y82085D01*
X120055D01*
Y82114D01*
X120084D01*
Y82142D01*
X120112D01*
Y82171D01*
X120141D01*
Y82200D01*
X120170D01*
Y82228D01*
X120198D01*
Y82257D01*
X120256D01*
Y82286D01*
X120284D01*
Y82314D01*
X120313D01*
Y82343D01*
X120370D01*
Y82372D01*
X120399D01*
Y82400D01*
X120456D01*
Y82429D01*
X120514D01*
Y82458D01*
X120571D01*
Y82486D01*
X120657D01*
Y82515D01*
X120714D01*
Y82544D01*
X120800D01*
Y82572D01*
X120915D01*
Y82601D01*
X121030D01*
Y82630D01*
X121889D01*
Y82601D01*
D02*
G37*
G36*
X117476Y74434D02*
X116416D01*
Y82028D01*
Y82057D01*
Y82486D01*
X117476D01*
Y74434D01*
D02*
G37*
G36*
X105469Y82458D02*
X105870D01*
Y82429D01*
X106042D01*
Y82400D01*
X106242D01*
Y82372D01*
X106328D01*
Y82343D01*
X106443D01*
Y82314D01*
X106586D01*
Y82286D01*
X106644D01*
Y82257D01*
X106730D01*
Y82228D01*
X106816D01*
Y82200D01*
X106873D01*
Y82171D01*
X106959D01*
Y82142D01*
X107016D01*
Y82114D01*
X107073D01*
Y82085D01*
X107159D01*
Y82057D01*
X107188D01*
Y82028D01*
X107245D01*
Y81999D01*
X107303D01*
Y81971D01*
X107360D01*
Y81942D01*
X107417D01*
Y81913D01*
X107446D01*
Y81884D01*
X107475D01*
Y81856D01*
X107532D01*
Y81827D01*
X107561D01*
Y81798D01*
X107618D01*
Y81770D01*
X107647D01*
Y81741D01*
X107675D01*
Y81713D01*
X107704D01*
Y81684D01*
X107761D01*
Y81655D01*
X107790D01*
Y81627D01*
X107819D01*
Y81598D01*
X107847D01*
Y81569D01*
X107876D01*
Y81541D01*
X107905D01*
Y81512D01*
X107933D01*
Y81483D01*
X107962D01*
Y81455D01*
X107991D01*
Y81426D01*
X108019D01*
Y81397D01*
X108048D01*
Y81369D01*
X108076D01*
Y81340D01*
X108105D01*
Y81283D01*
X108134D01*
Y81254D01*
X108162D01*
Y81225D01*
X108191D01*
Y81197D01*
X108220D01*
Y81168D01*
X108248D01*
Y81111D01*
X108277D01*
Y81082D01*
X108306D01*
Y81025D01*
X108334D01*
Y80996D01*
X108363D01*
Y80939D01*
X108392D01*
Y80882D01*
X108420D01*
Y80853D01*
X108449D01*
Y80795D01*
X108478D01*
Y80738D01*
X108506D01*
Y80681D01*
X108535D01*
Y80624D01*
X108564D01*
Y80566D01*
X108592D01*
Y80538D01*
X108621D01*
Y80452D01*
X108650D01*
Y80366D01*
X108678D01*
Y80308D01*
X108707D01*
Y80222D01*
X108736D01*
Y80165D01*
X108764D01*
Y80079D01*
X108793D01*
Y80050D01*
Y80022D01*
Y79964D01*
X108822D01*
Y79879D01*
X108850D01*
Y79764D01*
X108879D01*
Y79649D01*
X108907D01*
Y79535D01*
X108936D01*
Y79363D01*
X108965D01*
Y79191D01*
X108994D01*
Y78933D01*
X109022D01*
Y78904D01*
X108994D01*
Y78847D01*
X109022D01*
Y78073D01*
X108994D01*
Y78016D01*
X109022D01*
Y77958D01*
X108994D01*
Y77729D01*
X108965D01*
Y77557D01*
X108936D01*
Y77357D01*
X108907D01*
Y77271D01*
X108879D01*
Y77127D01*
X108850D01*
Y77013D01*
X108822D01*
Y76927D01*
X108793D01*
Y76841D01*
X108764D01*
Y76755D01*
X108736D01*
Y76669D01*
X108707D01*
Y76583D01*
X108678D01*
Y76526D01*
X108650D01*
Y76468D01*
X108621D01*
Y76382D01*
X108592D01*
Y76325D01*
X108564D01*
Y76268D01*
X108535D01*
Y76210D01*
X108506D01*
Y76153D01*
X108478D01*
Y76096D01*
X108449D01*
Y76067D01*
X108420D01*
Y76010D01*
X108392D01*
Y75953D01*
X108363D01*
Y75924D01*
X108334D01*
Y75866D01*
X108306D01*
Y75838D01*
X108277D01*
Y75781D01*
X108248D01*
Y75752D01*
X108220D01*
Y75723D01*
X108191D01*
Y75666D01*
X108162D01*
Y75637D01*
X108134D01*
Y75609D01*
X108105D01*
Y75580D01*
X108076D01*
Y75551D01*
X108048D01*
Y75523D01*
X108019D01*
Y75465D01*
X107991D01*
Y75437D01*
X107962D01*
Y75408D01*
X107933D01*
Y75379D01*
X107905D01*
Y75351D01*
X107876D01*
Y75322D01*
X107847D01*
Y75293D01*
X107790D01*
Y75265D01*
X107761D01*
Y75236D01*
X107733D01*
Y75207D01*
X107704D01*
Y75179D01*
X107675D01*
Y75150D01*
X107618D01*
Y75121D01*
X107589D01*
Y75093D01*
X107561D01*
Y75064D01*
X107503D01*
Y75035D01*
X107475D01*
Y75007D01*
X107417D01*
Y74978D01*
X107360D01*
Y74949D01*
X107331D01*
Y74921D01*
X107274D01*
Y74892D01*
X107217D01*
Y74864D01*
X107188D01*
Y74835D01*
X107131D01*
Y74806D01*
X107073D01*
Y74777D01*
X106987D01*
Y74749D01*
X106930D01*
Y74720D01*
X106873D01*
Y74692D01*
X106787D01*
Y74663D01*
X106701D01*
Y74634D01*
X106615D01*
Y74606D01*
X106529D01*
Y74577D01*
X106414D01*
Y74548D01*
X106300D01*
Y74520D01*
X106128D01*
Y74491D01*
X106013D01*
Y74462D01*
X105698D01*
Y74434D01*
X102431D01*
Y82486D01*
X105469D01*
Y82458D01*
D02*
G37*
G36*
X125326Y81483D02*
Y81455D01*
Y80050D01*
X125354D01*
Y80022D01*
X126644D01*
Y79305D01*
X126615D01*
Y79277D01*
X125326D01*
Y75580D01*
X125354D01*
Y75437D01*
X125383D01*
Y75379D01*
X125412D01*
Y75351D01*
X125440D01*
Y75293D01*
X125469D01*
Y75265D01*
X125498D01*
Y75236D01*
X125555D01*
Y75207D01*
X125584D01*
Y75179D01*
X125641D01*
Y75150D01*
X125698D01*
Y75121D01*
X125813D01*
Y75093D01*
X125985D01*
Y75064D01*
X126071D01*
Y75093D01*
X126357D01*
Y75121D01*
X126501D01*
Y75150D01*
X126587D01*
Y74319D01*
X126472D01*
Y74290D01*
X126243D01*
Y74262D01*
X125440D01*
Y74290D01*
X125211D01*
Y74319D01*
X125096D01*
Y74348D01*
X124982D01*
Y74376D01*
X124896D01*
Y74405D01*
X124838D01*
Y74434D01*
X124781D01*
Y74462D01*
X124724D01*
Y74491D01*
X124667D01*
Y74520D01*
X124638D01*
Y74548D01*
X124581D01*
Y74577D01*
X124552D01*
Y74606D01*
X124523D01*
Y74634D01*
X124495D01*
Y74692D01*
X124466D01*
Y74720D01*
X124437D01*
Y74777D01*
X124409D01*
Y74806D01*
X124380D01*
Y74864D01*
X124351D01*
Y74949D01*
X124323D01*
Y75035D01*
X124294D01*
Y75207D01*
X124265D01*
Y79248D01*
X124237D01*
Y79277D01*
X123291D01*
Y80022D01*
X124237D01*
Y80050D01*
X124265D01*
Y81225D01*
X124323D01*
Y81254D01*
X124409D01*
Y81283D01*
X124495D01*
Y81311D01*
X124581D01*
Y81340D01*
X124695D01*
Y81369D01*
X124781D01*
Y81397D01*
X124867D01*
Y81426D01*
X124953D01*
Y81455D01*
X125039D01*
Y81483D01*
X125154D01*
Y81512D01*
X125240D01*
Y81541D01*
X125326D01*
Y81483D01*
D02*
G37*
G36*
X113006Y80165D02*
X113206D01*
Y80136D01*
X113321D01*
Y80108D01*
X113464D01*
Y80079D01*
X113550D01*
Y80050D01*
X113607D01*
Y80022D01*
X113722D01*
Y79993D01*
X113751D01*
Y79964D01*
X113837D01*
Y79936D01*
X113894D01*
Y79907D01*
X113951D01*
Y79879D01*
X114009D01*
Y79850D01*
X114037D01*
Y79821D01*
X114094D01*
Y79792D01*
X114123D01*
Y79764D01*
X114152D01*
Y79735D01*
X114209D01*
Y79707D01*
X114238D01*
Y79678D01*
X114266D01*
Y79649D01*
X114295D01*
Y79621D01*
X114324D01*
Y79592D01*
X114381D01*
Y79563D01*
X114410D01*
Y79535D01*
X114438D01*
Y79477D01*
X114467D01*
Y79449D01*
X114496D01*
Y79420D01*
X114524D01*
Y79391D01*
X114553D01*
Y79363D01*
X114582D01*
Y79334D01*
X114610D01*
Y79277D01*
X114639D01*
Y79248D01*
X114668D01*
Y79191D01*
X114696D01*
Y79162D01*
X114725D01*
Y79105D01*
X114754D01*
Y79047D01*
X114782D01*
Y79019D01*
X114811D01*
Y78962D01*
X114840D01*
Y78904D01*
X114868D01*
Y78847D01*
X114897D01*
Y78761D01*
X114925D01*
Y78704D01*
X114954D01*
Y78618D01*
X114983D01*
Y78503D01*
X115012D01*
Y78417D01*
X115040D01*
Y78274D01*
X115069D01*
Y78130D01*
X115098D01*
Y77930D01*
X115126D01*
Y77042D01*
X115098D01*
Y77013D01*
X111143D01*
Y76554D01*
X111171D01*
Y76382D01*
X111200D01*
Y76268D01*
X111229D01*
Y76124D01*
X111257D01*
Y76038D01*
X111286D01*
Y75953D01*
X111315D01*
Y75866D01*
X111343D01*
Y75838D01*
X111372D01*
Y75752D01*
X111401D01*
Y75695D01*
X111429D01*
Y75666D01*
X111458D01*
Y75609D01*
X111487D01*
Y75580D01*
X111515D01*
Y75523D01*
X111544D01*
Y75494D01*
X111573D01*
Y75465D01*
X111601D01*
Y75437D01*
X111630D01*
Y75379D01*
X111687D01*
Y75351D01*
X111716D01*
Y75322D01*
X111745D01*
Y75293D01*
X111773D01*
Y75265D01*
X111831D01*
Y75236D01*
X111859D01*
Y75207D01*
X111917D01*
Y75179D01*
X111974D01*
Y75150D01*
X112031D01*
Y75121D01*
X112117D01*
Y75093D01*
X112203D01*
Y75064D01*
X112404D01*
Y75035D01*
X112776D01*
Y75064D01*
X113034D01*
Y75093D01*
X113120D01*
Y75121D01*
X113206D01*
Y75150D01*
X113292D01*
Y75179D01*
X113349D01*
Y75207D01*
X113407D01*
Y75236D01*
X113435D01*
Y75265D01*
X113464D01*
Y75293D01*
X113521D01*
Y75322D01*
X113550D01*
Y75351D01*
X113579D01*
Y75379D01*
X113607D01*
Y75408D01*
X113636D01*
Y75437D01*
X113665D01*
Y75494D01*
X113693D01*
Y75523D01*
X113722D01*
Y75580D01*
X113751D01*
Y75637D01*
X113779D01*
Y75695D01*
X113808D01*
Y75752D01*
X113837D01*
Y75838D01*
X113865D01*
Y75924D01*
X113894D01*
Y76067D01*
X113923D01*
Y76153D01*
X113951D01*
Y76182D01*
X115040D01*
Y76153D01*
X115069D01*
Y76124D01*
X115040D01*
Y75953D01*
X115012D01*
Y75866D01*
X114983D01*
Y75752D01*
X114954D01*
Y75666D01*
X114925D01*
Y75580D01*
X114897D01*
Y75523D01*
X114868D01*
Y75465D01*
X114840D01*
Y75408D01*
X114811D01*
Y75351D01*
X114782D01*
Y75293D01*
X114754D01*
Y75265D01*
X114725D01*
Y75207D01*
X114696D01*
Y75179D01*
X114668D01*
Y75121D01*
X114639D01*
Y75093D01*
X114610D01*
Y75064D01*
X114582D01*
Y75007D01*
X114524D01*
Y74978D01*
X114496D01*
Y74921D01*
X114438D01*
Y74864D01*
X114410D01*
Y74835D01*
X114352D01*
Y74806D01*
X114324D01*
Y74777D01*
X114295D01*
Y74749D01*
X114238D01*
Y74720D01*
X114209D01*
Y74692D01*
X114180D01*
Y74663D01*
X114123D01*
Y74634D01*
X114094D01*
Y74606D01*
X114037D01*
Y74577D01*
X113980D01*
Y74548D01*
X113923D01*
Y74520D01*
X113865D01*
Y74491D01*
X113808D01*
Y74462D01*
X113722D01*
Y74434D01*
X113636D01*
Y74405D01*
X113550D01*
Y74376D01*
X113435D01*
Y74348D01*
X113321D01*
Y74319D01*
X113177D01*
Y74290D01*
X112948D01*
Y74262D01*
X112175D01*
Y74290D01*
X111974D01*
Y74319D01*
X111831D01*
Y74348D01*
X111745D01*
Y74376D01*
X111630D01*
Y74405D01*
X111544D01*
Y74434D01*
X111487D01*
Y74462D01*
X111401D01*
Y74491D01*
X111343D01*
Y74520D01*
X111286D01*
Y74548D01*
X111229D01*
Y74577D01*
X111200D01*
Y74606D01*
X111143D01*
Y74634D01*
X111114D01*
Y74663D01*
X111057D01*
Y74692D01*
X110999D01*
Y74720D01*
X110971D01*
Y74749D01*
X110942D01*
Y74777D01*
X110913D01*
Y74806D01*
X110885D01*
Y74835D01*
X110856D01*
Y74864D01*
X110828D01*
Y74892D01*
X110799D01*
Y74921D01*
X110770D01*
Y74949D01*
X110742D01*
Y74978D01*
X110713D01*
Y75007D01*
X110684D01*
Y75035D01*
X110656D01*
Y75064D01*
X110627D01*
Y75121D01*
X110598D01*
Y75150D01*
X110570D01*
Y75179D01*
X110541D01*
Y75236D01*
X110512D01*
Y75265D01*
X110484D01*
Y75322D01*
X110455D01*
Y75379D01*
X110426D01*
Y75408D01*
X110398D01*
Y75494D01*
X110369D01*
Y75551D01*
X110340D01*
Y75580D01*
X110312D01*
Y75666D01*
X110283D01*
Y75752D01*
X110254D01*
Y75809D01*
X110226D01*
Y75924D01*
X110197D01*
Y76010D01*
X110168D01*
Y76124D01*
X110140D01*
Y76268D01*
X110111D01*
Y76382D01*
X110083D01*
Y76669D01*
X110054D01*
Y77672D01*
X110083D01*
Y77930D01*
X110111D01*
Y78073D01*
X110140D01*
Y78188D01*
X110168D01*
Y78331D01*
X110197D01*
Y78388D01*
X110226D01*
Y78503D01*
X110254D01*
Y78589D01*
X110283D01*
Y78646D01*
X110312D01*
Y78732D01*
X110340D01*
Y78761D01*
X110369D01*
Y78847D01*
X110398D01*
Y78904D01*
X110426D01*
Y78933D01*
X110455D01*
Y79019D01*
X110484D01*
Y79047D01*
X110512D01*
Y79105D01*
X110541D01*
Y79133D01*
X110570D01*
Y79191D01*
X110598D01*
Y79219D01*
X110627D01*
Y79277D01*
X110656D01*
Y79305D01*
X110684D01*
Y79334D01*
X110713D01*
Y79363D01*
X110742D01*
Y79391D01*
X110770D01*
Y79449D01*
X110799D01*
Y79477D01*
X110828D01*
Y79506D01*
X110856D01*
Y79535D01*
X110885D01*
Y79563D01*
X110913D01*
Y79592D01*
X110942D01*
Y79621D01*
X110999D01*
Y79649D01*
X111028D01*
Y79678D01*
X111057D01*
Y79707D01*
X111086D01*
Y79735D01*
X111143D01*
Y79764D01*
X111171D01*
Y79792D01*
X111229D01*
Y79821D01*
X111257D01*
Y79850D01*
X111315D01*
Y79879D01*
X111372D01*
Y79907D01*
X111401D01*
Y79936D01*
X111458D01*
Y79964D01*
X111544D01*
Y79993D01*
X111601D01*
Y80022D01*
X111687D01*
Y80050D01*
X111773D01*
Y80079D01*
X111831D01*
Y80108D01*
X111974D01*
Y80136D01*
X112088D01*
Y80165D01*
X112289D01*
Y80194D01*
X113006D01*
Y80165D01*
D02*
G37*
%LPC*%
G36*
X105411Y309754D02*
X103577D01*
Y309725D01*
X103549D01*
Y303679D01*
X103577D01*
Y303622D01*
X105383D01*
Y303650D01*
X105612D01*
Y303679D01*
X105813D01*
Y303708D01*
X105956D01*
Y303736D01*
X106042D01*
Y303765D01*
X106156D01*
Y303793D01*
X106214D01*
Y303822D01*
X106300D01*
Y303851D01*
X106386D01*
Y303879D01*
X106414D01*
Y303908D01*
X106500D01*
Y303937D01*
X106529D01*
Y303965D01*
X106586D01*
Y303994D01*
X106644D01*
Y304023D01*
X106672D01*
Y304051D01*
X106730D01*
Y304080D01*
X106758D01*
Y304109D01*
X106787D01*
Y304137D01*
X106844D01*
Y304166D01*
X106873D01*
Y304195D01*
X106902D01*
Y304223D01*
X106930D01*
Y304252D01*
X106959D01*
Y304281D01*
X106987D01*
Y304309D01*
X107016D01*
Y304338D01*
X107045D01*
Y304367D01*
X107073D01*
Y304395D01*
X107102D01*
Y304424D01*
X107131D01*
Y304453D01*
X107159D01*
Y304481D01*
X107188D01*
Y304538D01*
X107217D01*
Y304567D01*
X107245D01*
Y304596D01*
X107274D01*
Y304653D01*
X107303D01*
Y304682D01*
X107331D01*
Y304739D01*
X107360D01*
Y304768D01*
X107389D01*
Y304825D01*
X107417D01*
Y304882D01*
X107446D01*
Y304911D01*
X107475D01*
Y304997D01*
X107503D01*
Y305054D01*
X107532D01*
Y305112D01*
X107561D01*
Y305198D01*
X107589D01*
Y305255D01*
X107618D01*
Y305341D01*
X107647D01*
Y305427D01*
X107675D01*
Y305513D01*
X107704D01*
Y305627D01*
X107733D01*
Y305771D01*
X107761D01*
Y305914D01*
X107790D01*
Y306143D01*
X107819D01*
Y306602D01*
X107847D01*
Y306802D01*
X107819D01*
Y307232D01*
X107790D01*
Y307490D01*
X107761D01*
Y307605D01*
X107733D01*
Y307748D01*
X107704D01*
Y307863D01*
X107675D01*
Y307949D01*
X107647D01*
Y308063D01*
X107618D01*
Y308121D01*
X107589D01*
Y308207D01*
X107561D01*
Y308293D01*
X107532D01*
Y308321D01*
X107503D01*
Y308407D01*
X107475D01*
Y308465D01*
X107446D01*
Y308493D01*
X107417D01*
Y308579D01*
X107389D01*
Y308608D01*
X107360D01*
Y308665D01*
X107331D01*
Y308722D01*
X107303D01*
Y308751D01*
X107274D01*
Y308780D01*
X107245D01*
Y308837D01*
X107217D01*
Y308866D01*
X107188D01*
Y308894D01*
X107159D01*
Y308923D01*
X107131D01*
Y308980D01*
X107102D01*
Y309009D01*
X107073D01*
Y309038D01*
X107045D01*
Y309066D01*
X107016D01*
Y309095D01*
X106987D01*
Y309124D01*
X106959D01*
Y309152D01*
X106930D01*
Y309181D01*
X106873D01*
Y309210D01*
X106844D01*
Y309238D01*
X106816D01*
Y309267D01*
X106787D01*
Y309296D01*
X106730D01*
Y309324D01*
X106701D01*
Y309353D01*
X106644D01*
Y309382D01*
X106615D01*
Y309410D01*
X106558D01*
Y309439D01*
X106500D01*
Y309468D01*
X106443D01*
Y309496D01*
X106386D01*
Y309525D01*
X106328D01*
Y309554D01*
X106271D01*
Y309582D01*
X106185D01*
Y309611D01*
X106099D01*
Y309639D01*
X105984D01*
Y309668D01*
X105870D01*
Y309697D01*
X105755D01*
Y309725D01*
X105411D01*
Y309754D01*
D02*
G37*
G36*
X112805Y307662D02*
X112375D01*
Y307633D01*
X112260D01*
Y307605D01*
X112146D01*
Y307576D01*
X112060D01*
Y307547D01*
X112002D01*
Y307519D01*
X111945D01*
Y307490D01*
X111888D01*
Y307462D01*
X111859D01*
Y307433D01*
X111802D01*
Y307404D01*
X111773D01*
Y307376D01*
X111745D01*
Y307347D01*
X111716D01*
Y307318D01*
X111687D01*
Y307290D01*
X111659D01*
Y307261D01*
X111630D01*
Y307232D01*
X111601D01*
Y307204D01*
X111573D01*
Y307175D01*
X111544D01*
Y307146D01*
X111515D01*
Y307118D01*
X111487D01*
Y307060D01*
X111458D01*
Y307032D01*
X111429D01*
Y306974D01*
X111401D01*
Y306917D01*
X111372D01*
Y306860D01*
X111343D01*
Y306802D01*
X111315D01*
Y306745D01*
X111286D01*
Y306659D01*
X111257D01*
Y306602D01*
X111229D01*
Y306458D01*
X111200D01*
Y306344D01*
X111171D01*
Y306115D01*
X111143D01*
Y306029D01*
X111171D01*
Y306000D01*
X113980D01*
Y306029D01*
X114009D01*
Y306057D01*
X113980D01*
Y306430D01*
X113951D01*
Y306573D01*
X113923D01*
Y306688D01*
X113894D01*
Y306774D01*
X113865D01*
Y306860D01*
X113837D01*
Y306917D01*
X113808D01*
Y307003D01*
X113779D01*
Y307032D01*
X113751D01*
Y307089D01*
X113722D01*
Y307118D01*
X113693D01*
Y307175D01*
X113665D01*
Y307204D01*
X113636D01*
Y307232D01*
X113607D01*
Y307290D01*
X113550D01*
Y307318D01*
X113521D01*
Y307347D01*
X113493D01*
Y307376D01*
X113464D01*
Y307404D01*
X113435D01*
Y307433D01*
X113378D01*
Y307462D01*
X113349D01*
Y307490D01*
X113292D01*
Y307519D01*
X113206D01*
Y307547D01*
X113149D01*
Y307576D01*
X113063D01*
Y307605D01*
X112948D01*
Y307633D01*
X112805D01*
Y307662D01*
D02*
G37*
G36*
X105411Y233673D02*
X103577D01*
Y233645D01*
X103549D01*
Y227598D01*
X103577D01*
Y227541D01*
X105383D01*
Y227569D01*
X105612D01*
Y227598D01*
X105813D01*
Y227627D01*
X105956D01*
Y227655D01*
X106042D01*
Y227684D01*
X106156D01*
Y227713D01*
X106214D01*
Y227741D01*
X106300D01*
Y227770D01*
X106386D01*
Y227799D01*
X106414D01*
Y227827D01*
X106500D01*
Y227856D01*
X106529D01*
Y227885D01*
X106586D01*
Y227913D01*
X106644D01*
Y227942D01*
X106672D01*
Y227971D01*
X106730D01*
Y227999D01*
X106758D01*
Y228028D01*
X106787D01*
Y228057D01*
X106844D01*
Y228085D01*
X106873D01*
Y228114D01*
X106902D01*
Y228143D01*
X106930D01*
Y228171D01*
X106959D01*
Y228200D01*
X106987D01*
Y228229D01*
X107016D01*
Y228257D01*
X107045D01*
Y228286D01*
X107073D01*
Y228314D01*
X107102D01*
Y228343D01*
X107131D01*
Y228372D01*
X107159D01*
Y228400D01*
X107188D01*
Y228458D01*
X107217D01*
Y228486D01*
X107245D01*
Y228515D01*
X107274D01*
Y228572D01*
X107303D01*
Y228601D01*
X107331D01*
Y228658D01*
X107360D01*
Y228687D01*
X107389D01*
Y228744D01*
X107417D01*
Y228802D01*
X107446D01*
Y228830D01*
X107475D01*
Y228916D01*
X107503D01*
Y228974D01*
X107532D01*
Y229031D01*
X107561D01*
Y229117D01*
X107589D01*
Y229174D01*
X107618D01*
Y229260D01*
X107647D01*
Y229346D01*
X107675D01*
Y229432D01*
X107704D01*
Y229547D01*
X107733D01*
Y229690D01*
X107761D01*
Y229833D01*
X107790D01*
Y230063D01*
X107819D01*
Y230521D01*
X107847D01*
Y230722D01*
X107819D01*
Y231152D01*
X107790D01*
Y231409D01*
X107761D01*
Y231524D01*
X107733D01*
Y231667D01*
X107704D01*
Y231782D01*
X107675D01*
Y231868D01*
X107647D01*
Y231983D01*
X107618D01*
Y232040D01*
X107589D01*
Y232126D01*
X107561D01*
Y232212D01*
X107532D01*
Y232241D01*
X107503D01*
Y232327D01*
X107475D01*
Y232384D01*
X107446D01*
Y232412D01*
X107417D01*
Y232498D01*
X107389D01*
Y232527D01*
X107360D01*
Y232584D01*
X107331D01*
Y232642D01*
X107303D01*
Y232670D01*
X107274D01*
Y232699D01*
X107245D01*
Y232756D01*
X107217D01*
Y232785D01*
X107188D01*
Y232814D01*
X107159D01*
Y232842D01*
X107131D01*
Y232900D01*
X107102D01*
Y232928D01*
X107073D01*
Y232957D01*
X107045D01*
Y232986D01*
X107016D01*
Y233014D01*
X106987D01*
Y233043D01*
X106959D01*
Y233072D01*
X106930D01*
Y233100D01*
X106873D01*
Y233129D01*
X106844D01*
Y233158D01*
X106816D01*
Y233186D01*
X106787D01*
Y233215D01*
X106730D01*
Y233244D01*
X106701D01*
Y233272D01*
X106644D01*
Y233301D01*
X106615D01*
Y233330D01*
X106558D01*
Y233358D01*
X106500D01*
Y233387D01*
X106443D01*
Y233416D01*
X106386D01*
Y233444D01*
X106328D01*
Y233473D01*
X106271D01*
Y233501D01*
X106185D01*
Y233530D01*
X106099D01*
Y233559D01*
X105984D01*
Y233587D01*
X105870D01*
Y233616D01*
X105755D01*
Y233645D01*
X105411D01*
Y233673D01*
D02*
G37*
G36*
X112805Y231581D02*
X112375D01*
Y231553D01*
X112260D01*
Y231524D01*
X112146D01*
Y231495D01*
X112060D01*
Y231467D01*
X112002D01*
Y231438D01*
X111945D01*
Y231409D01*
X111888D01*
Y231381D01*
X111859D01*
Y231352D01*
X111802D01*
Y231324D01*
X111773D01*
Y231295D01*
X111745D01*
Y231266D01*
X111716D01*
Y231238D01*
X111687D01*
Y231209D01*
X111659D01*
Y231180D01*
X111630D01*
Y231152D01*
X111601D01*
Y231123D01*
X111573D01*
Y231094D01*
X111544D01*
Y231066D01*
X111515D01*
Y231037D01*
X111487D01*
Y230980D01*
X111458D01*
Y230951D01*
X111429D01*
Y230894D01*
X111401D01*
Y230836D01*
X111372D01*
Y230779D01*
X111343D01*
Y230722D01*
X111315D01*
Y230664D01*
X111286D01*
Y230578D01*
X111257D01*
Y230521D01*
X111229D01*
Y230378D01*
X111200D01*
Y230263D01*
X111171D01*
Y230034D01*
X111143D01*
Y229948D01*
X111171D01*
Y229919D01*
X113980D01*
Y229948D01*
X114009D01*
Y229977D01*
X113980D01*
Y230349D01*
X113951D01*
Y230492D01*
X113923D01*
Y230607D01*
X113894D01*
Y230693D01*
X113865D01*
Y230779D01*
X113837D01*
Y230836D01*
X113808D01*
Y230922D01*
X113779D01*
Y230951D01*
X113751D01*
Y231008D01*
X113722D01*
Y231037D01*
X113693D01*
Y231094D01*
X113665D01*
Y231123D01*
X113636D01*
Y231152D01*
X113607D01*
Y231209D01*
X113550D01*
Y231238D01*
X113521D01*
Y231266D01*
X113493D01*
Y231295D01*
X113464D01*
Y231324D01*
X113435D01*
Y231352D01*
X113378D01*
Y231381D01*
X113349D01*
Y231409D01*
X113292D01*
Y231438D01*
X113206D01*
Y231467D01*
X113149D01*
Y231495D01*
X113063D01*
Y231524D01*
X112948D01*
Y231553D01*
X112805D01*
Y231581D01*
D02*
G37*
G36*
X105411Y157593D02*
X103577D01*
Y157564D01*
X103549D01*
Y151517D01*
X103577D01*
Y151460D01*
X105383D01*
Y151489D01*
X105612D01*
Y151517D01*
X105813D01*
Y151546D01*
X105956D01*
Y151575D01*
X106042D01*
Y151603D01*
X106156D01*
Y151632D01*
X106214D01*
Y151661D01*
X106300D01*
Y151689D01*
X106386D01*
Y151718D01*
X106414D01*
Y151747D01*
X106500D01*
Y151775D01*
X106529D01*
Y151804D01*
X106586D01*
Y151833D01*
X106644D01*
Y151861D01*
X106672D01*
Y151890D01*
X106730D01*
Y151919D01*
X106758D01*
Y151947D01*
X106787D01*
Y151976D01*
X106844D01*
Y152004D01*
X106873D01*
Y152033D01*
X106902D01*
Y152062D01*
X106930D01*
Y152091D01*
X106959D01*
Y152119D01*
X106987D01*
Y152148D01*
X107016D01*
Y152177D01*
X107045D01*
Y152205D01*
X107073D01*
Y152234D01*
X107102D01*
Y152262D01*
X107131D01*
Y152291D01*
X107159D01*
Y152320D01*
X107188D01*
Y152377D01*
X107217D01*
Y152406D01*
X107245D01*
Y152434D01*
X107274D01*
Y152492D01*
X107303D01*
Y152520D01*
X107331D01*
Y152578D01*
X107360D01*
Y152606D01*
X107389D01*
Y152664D01*
X107417D01*
Y152721D01*
X107446D01*
Y152750D01*
X107475D01*
Y152836D01*
X107503D01*
Y152893D01*
X107532D01*
Y152950D01*
X107561D01*
Y153036D01*
X107589D01*
Y153094D01*
X107618D01*
Y153180D01*
X107647D01*
Y153265D01*
X107675D01*
Y153351D01*
X107704D01*
Y153466D01*
X107733D01*
Y153609D01*
X107761D01*
Y153753D01*
X107790D01*
Y153982D01*
X107819D01*
Y154440D01*
X107847D01*
Y154641D01*
X107819D01*
Y155071D01*
X107790D01*
Y155329D01*
X107761D01*
Y155443D01*
X107733D01*
Y155587D01*
X107704D01*
Y155701D01*
X107675D01*
Y155787D01*
X107647D01*
Y155902D01*
X107618D01*
Y155959D01*
X107589D01*
Y156045D01*
X107561D01*
Y156131D01*
X107532D01*
Y156160D01*
X107503D01*
Y156246D01*
X107475D01*
Y156303D01*
X107446D01*
Y156332D01*
X107417D01*
Y156418D01*
X107389D01*
Y156446D01*
X107360D01*
Y156504D01*
X107331D01*
Y156561D01*
X107303D01*
Y156590D01*
X107274D01*
Y156618D01*
X107245D01*
Y156676D01*
X107217D01*
Y156704D01*
X107188D01*
Y156733D01*
X107159D01*
Y156762D01*
X107131D01*
Y156819D01*
X107102D01*
Y156848D01*
X107073D01*
Y156876D01*
X107045D01*
Y156905D01*
X107016D01*
Y156934D01*
X106987D01*
Y156962D01*
X106959D01*
Y156991D01*
X106930D01*
Y157020D01*
X106873D01*
Y157048D01*
X106844D01*
Y157077D01*
X106816D01*
Y157106D01*
X106787D01*
Y157134D01*
X106730D01*
Y157163D01*
X106701D01*
Y157191D01*
X106644D01*
Y157220D01*
X106615D01*
Y157249D01*
X106558D01*
Y157277D01*
X106500D01*
Y157306D01*
X106443D01*
Y157335D01*
X106386D01*
Y157363D01*
X106328D01*
Y157392D01*
X106271D01*
Y157421D01*
X106185D01*
Y157449D01*
X106099D01*
Y157478D01*
X105984D01*
Y157507D01*
X105870D01*
Y157535D01*
X105755D01*
Y157564D01*
X105411D01*
Y157593D01*
D02*
G37*
G36*
X112805Y155501D02*
X112375D01*
Y155472D01*
X112260D01*
Y155443D01*
X112146D01*
Y155415D01*
X112060D01*
Y155386D01*
X112002D01*
Y155357D01*
X111945D01*
Y155329D01*
X111888D01*
Y155300D01*
X111859D01*
Y155272D01*
X111802D01*
Y155243D01*
X111773D01*
Y155214D01*
X111745D01*
Y155185D01*
X111716D01*
Y155157D01*
X111687D01*
Y155128D01*
X111659D01*
Y155099D01*
X111630D01*
Y155071D01*
X111601D01*
Y155042D01*
X111573D01*
Y155014D01*
X111544D01*
Y154985D01*
X111515D01*
Y154956D01*
X111487D01*
Y154899D01*
X111458D01*
Y154870D01*
X111429D01*
Y154813D01*
X111401D01*
Y154756D01*
X111372D01*
Y154698D01*
X111343D01*
Y154641D01*
X111315D01*
Y154584D01*
X111286D01*
Y154498D01*
X111257D01*
Y154440D01*
X111229D01*
Y154297D01*
X111200D01*
Y154183D01*
X111171D01*
Y153953D01*
X111143D01*
Y153867D01*
X111171D01*
Y153839D01*
X113980D01*
Y153867D01*
X114009D01*
Y153896D01*
X113980D01*
Y154268D01*
X113951D01*
Y154412D01*
X113923D01*
Y154526D01*
X113894D01*
Y154612D01*
X113865D01*
Y154698D01*
X113837D01*
Y154756D01*
X113808D01*
Y154842D01*
X113779D01*
Y154870D01*
X113751D01*
Y154928D01*
X113722D01*
Y154956D01*
X113693D01*
Y155014D01*
X113665D01*
Y155042D01*
X113636D01*
Y155071D01*
X113607D01*
Y155128D01*
X113550D01*
Y155157D01*
X113521D01*
Y155185D01*
X113493D01*
Y155214D01*
X113464D01*
Y155243D01*
X113435D01*
Y155272D01*
X113378D01*
Y155300D01*
X113349D01*
Y155329D01*
X113292D01*
Y155357D01*
X113206D01*
Y155386D01*
X113149D01*
Y155415D01*
X113063D01*
Y155443D01*
X112948D01*
Y155472D01*
X112805D01*
Y155501D01*
D02*
G37*
G36*
X105411Y81512D02*
X103577D01*
Y81483D01*
X103549D01*
Y75437D01*
X103577D01*
Y75379D01*
X105383D01*
Y75408D01*
X105612D01*
Y75437D01*
X105813D01*
Y75465D01*
X105956D01*
Y75494D01*
X106042D01*
Y75523D01*
X106156D01*
Y75551D01*
X106214D01*
Y75580D01*
X106300D01*
Y75609D01*
X106386D01*
Y75637D01*
X106414D01*
Y75666D01*
X106500D01*
Y75695D01*
X106529D01*
Y75723D01*
X106586D01*
Y75752D01*
X106644D01*
Y75781D01*
X106672D01*
Y75809D01*
X106730D01*
Y75838D01*
X106758D01*
Y75866D01*
X106787D01*
Y75895D01*
X106844D01*
Y75924D01*
X106873D01*
Y75953D01*
X106902D01*
Y75981D01*
X106930D01*
Y76010D01*
X106959D01*
Y76038D01*
X106987D01*
Y76067D01*
X107016D01*
Y76096D01*
X107045D01*
Y76124D01*
X107073D01*
Y76153D01*
X107102D01*
Y76182D01*
X107131D01*
Y76210D01*
X107159D01*
Y76239D01*
X107188D01*
Y76296D01*
X107217D01*
Y76325D01*
X107245D01*
Y76354D01*
X107274D01*
Y76411D01*
X107303D01*
Y76440D01*
X107331D01*
Y76497D01*
X107360D01*
Y76526D01*
X107389D01*
Y76583D01*
X107417D01*
Y76640D01*
X107446D01*
Y76669D01*
X107475D01*
Y76755D01*
X107503D01*
Y76812D01*
X107532D01*
Y76870D01*
X107561D01*
Y76955D01*
X107589D01*
Y77013D01*
X107618D01*
Y77099D01*
X107647D01*
Y77185D01*
X107675D01*
Y77271D01*
X107704D01*
Y77385D01*
X107733D01*
Y77529D01*
X107761D01*
Y77672D01*
X107790D01*
Y77901D01*
X107819D01*
Y78360D01*
X107847D01*
Y78560D01*
X107819D01*
Y78990D01*
X107790D01*
Y79248D01*
X107761D01*
Y79363D01*
X107733D01*
Y79506D01*
X107704D01*
Y79621D01*
X107675D01*
Y79707D01*
X107647D01*
Y79821D01*
X107618D01*
Y79879D01*
X107589D01*
Y79964D01*
X107561D01*
Y80050D01*
X107532D01*
Y80079D01*
X107503D01*
Y80165D01*
X107475D01*
Y80222D01*
X107446D01*
Y80251D01*
X107417D01*
Y80337D01*
X107389D01*
Y80366D01*
X107360D01*
Y80423D01*
X107331D01*
Y80480D01*
X107303D01*
Y80509D01*
X107274D01*
Y80538D01*
X107245D01*
Y80595D01*
X107217D01*
Y80624D01*
X107188D01*
Y80652D01*
X107159D01*
Y80681D01*
X107131D01*
Y80738D01*
X107102D01*
Y80767D01*
X107073D01*
Y80795D01*
X107045D01*
Y80824D01*
X107016D01*
Y80853D01*
X106987D01*
Y80882D01*
X106959D01*
Y80910D01*
X106930D01*
Y80939D01*
X106873D01*
Y80968D01*
X106844D01*
Y80996D01*
X106816D01*
Y81025D01*
X106787D01*
Y81053D01*
X106730D01*
Y81082D01*
X106701D01*
Y81111D01*
X106644D01*
Y81139D01*
X106615D01*
Y81168D01*
X106558D01*
Y81197D01*
X106500D01*
Y81225D01*
X106443D01*
Y81254D01*
X106386D01*
Y81283D01*
X106328D01*
Y81311D01*
X106271D01*
Y81340D01*
X106185D01*
Y81369D01*
X106099D01*
Y81397D01*
X105984D01*
Y81426D01*
X105870D01*
Y81455D01*
X105755D01*
Y81483D01*
X105411D01*
Y81512D01*
D02*
G37*
G36*
X112805Y79420D02*
X112375D01*
Y79391D01*
X112260D01*
Y79363D01*
X112146D01*
Y79334D01*
X112060D01*
Y79305D01*
X112002D01*
Y79277D01*
X111945D01*
Y79248D01*
X111888D01*
Y79219D01*
X111859D01*
Y79191D01*
X111802D01*
Y79162D01*
X111773D01*
Y79133D01*
X111745D01*
Y79105D01*
X111716D01*
Y79076D01*
X111687D01*
Y79047D01*
X111659D01*
Y79019D01*
X111630D01*
Y78990D01*
X111601D01*
Y78962D01*
X111573D01*
Y78933D01*
X111544D01*
Y78904D01*
X111515D01*
Y78875D01*
X111487D01*
Y78818D01*
X111458D01*
Y78790D01*
X111429D01*
Y78732D01*
X111401D01*
Y78675D01*
X111372D01*
Y78618D01*
X111343D01*
Y78560D01*
X111315D01*
Y78503D01*
X111286D01*
Y78417D01*
X111257D01*
Y78360D01*
X111229D01*
Y78216D01*
X111200D01*
Y78102D01*
X111171D01*
Y77873D01*
X111143D01*
Y77786D01*
X111171D01*
Y77758D01*
X113980D01*
Y77786D01*
X114009D01*
Y77815D01*
X113980D01*
Y78188D01*
X113951D01*
Y78331D01*
X113923D01*
Y78446D01*
X113894D01*
Y78532D01*
X113865D01*
Y78618D01*
X113837D01*
Y78675D01*
X113808D01*
Y78761D01*
X113779D01*
Y78790D01*
X113751D01*
Y78847D01*
X113722D01*
Y78875D01*
X113693D01*
Y78933D01*
X113665D01*
Y78962D01*
X113636D01*
Y78990D01*
X113607D01*
Y79047D01*
X113550D01*
Y79076D01*
X113521D01*
Y79105D01*
X113493D01*
Y79133D01*
X113464D01*
Y79162D01*
X113435D01*
Y79191D01*
X113378D01*
Y79219D01*
X113349D01*
Y79248D01*
X113292D01*
Y79277D01*
X113206D01*
Y79305D01*
X113149D01*
Y79334D01*
X113063D01*
Y79363D01*
X112948D01*
Y79391D01*
X112805D01*
Y79420D01*
D02*
G37*
%LPD*%
D19*
X256202Y264669D02*
D03*
X137076Y257919D02*
D03*
X137326Y265419D02*
D03*
X239344Y264669D02*
D03*
X233600D02*
D03*
X261576D02*
D03*
X245088D02*
D03*
X250576D02*
D03*
X264826Y236669D02*
D03*
Y257919D02*
D03*
Y250530D02*
D03*
X264608Y181839D02*
D03*
X264826Y174450D02*
D03*
X256202Y188589D02*
D03*
X239344Y188589D02*
D03*
X233600D02*
D03*
X261576D02*
D03*
X245088D02*
D03*
X250576D02*
D03*
X264608Y105758D02*
D03*
X264826Y98369D02*
D03*
X256202Y112508D02*
D03*
X239344Y112508D02*
D03*
X233600D02*
D03*
X261576D02*
D03*
X245088D02*
D03*
X250576D02*
D03*
X256202Y340750D02*
D03*
X137076Y334000D02*
D03*
X137326Y341500D02*
D03*
X239344Y340750D02*
D03*
X233600D02*
D03*
X261576D02*
D03*
X245088D02*
D03*
X250576D02*
D03*
X264826Y312750D02*
D03*
Y334000D02*
D03*
Y326611D02*
D03*
D23*
X223326Y242419D02*
D03*
Y247419D02*
D03*
X207326Y242419D02*
D03*
Y247419D02*
D03*
X223326Y166339D02*
D03*
Y171339D02*
D03*
X207326Y166339D02*
D03*
Y171339D02*
D03*
X223326Y90258D02*
D03*
Y95258D02*
D03*
X207326Y90258D02*
D03*
Y95258D02*
D03*
X223326Y318500D02*
D03*
Y323500D02*
D03*
X207326Y318500D02*
D03*
Y323500D02*
D03*
D24*
X217826Y252919D02*
D03*
X222826D02*
D03*
X212826D02*
D03*
Y236919D02*
D03*
X222826D02*
D03*
X217826D02*
D03*
X207826D02*
D03*
Y252919D02*
D03*
X217826Y176839D02*
D03*
X222826D02*
D03*
X212826D02*
D03*
Y160839D02*
D03*
X222826D02*
D03*
X217826D02*
D03*
X207826D02*
D03*
Y176839D02*
D03*
X217826Y100758D02*
D03*
X222826D02*
D03*
X212826D02*
D03*
Y84758D02*
D03*
X222826D02*
D03*
X217826D02*
D03*
X207826D02*
D03*
Y100758D02*
D03*
X217826Y329000D02*
D03*
X222826D02*
D03*
X212826D02*
D03*
Y313000D02*
D03*
X222826D02*
D03*
X217826D02*
D03*
X207826D02*
D03*
Y329000D02*
D03*
D26*
X179826Y227919D02*
D03*
X165826D02*
D03*
D33*
X179826Y304000D02*
D03*
X165826D02*
D03*
D38*
X410326Y92861D02*
D03*
Y169023D02*
D03*
Y245023D02*
D03*
Y321023D02*
D03*
D39*
X47586Y92856D02*
D03*
D40*
Y168902D02*
D03*
D41*
Y245023D02*
D03*
D42*
Y321051D02*
D03*
D43*
X240026Y238669D02*
G03*
X240026Y238669I-1450J0D01*
G01*
X244026D02*
G03*
X244026Y238669I-1450J0D01*
G01*
X240026Y250669D02*
G03*
X240026Y250669I-1450J0D01*
G01*
Y242669D02*
G03*
X240026Y242669I-1450J0D01*
G01*
Y246669D02*
G03*
X240026Y246669I-1450J0D01*
G01*
X244026Y254669D02*
G03*
X244026Y254669I-1450J0D01*
G01*
X240026D02*
G03*
X240026Y254669I-1450J0D01*
G01*
X244026Y250669D02*
G03*
X244026Y250669I-1450J0D01*
G01*
Y242669D02*
G03*
X244026Y242669I-1450J0D01*
G01*
Y246669D02*
G03*
X244026Y246669I-1450J0D01*
G01*
X248026Y238669D02*
G03*
X248026Y238669I-1450J0D01*
G01*
X252026D02*
G03*
X252026Y238669I-1450J0D01*
G01*
X248026Y242669D02*
G03*
X248026Y242669I-1450J0D01*
G01*
X252026D02*
G03*
X252026Y242669I-1450J0D01*
G01*
X256026Y238669D02*
G03*
X256026Y238669I-1450J0D01*
G01*
Y242669D02*
G03*
X256026Y242669I-1450J0D01*
G01*
X248026Y250669D02*
G03*
X248026Y250669I-1450J0D01*
G01*
Y246669D02*
G03*
X248026Y246669I-1450J0D01*
G01*
X252026Y250669D02*
G03*
X252026Y250669I-1450J0D01*
G01*
Y254669D02*
G03*
X252026Y254669I-1450J0D01*
G01*
X248026D02*
G03*
X248026Y254669I-1450J0D01*
G01*
X252026Y246669D02*
G03*
X252026Y246669I-1450J0D01*
G01*
X256026D02*
G03*
X256026Y246669I-1450J0D01*
G01*
Y250669D02*
G03*
X256026Y250669I-1450J0D01*
G01*
Y254669D02*
G03*
X256026Y254669I-1450J0D01*
G01*
X240026Y162589D02*
G03*
X240026Y162589I-1450J0D01*
G01*
X244026D02*
G03*
X244026Y162589I-1450J0D01*
G01*
X240026Y174589D02*
G03*
X240026Y174589I-1450J0D01*
G01*
Y166589D02*
G03*
X240026Y166589I-1450J0D01*
G01*
Y170589D02*
G03*
X240026Y170589I-1450J0D01*
G01*
X244026Y178589D02*
G03*
X244026Y178589I-1450J0D01*
G01*
X240026D02*
G03*
X240026Y178589I-1450J0D01*
G01*
X244026Y174589D02*
G03*
X244026Y174589I-1450J0D01*
G01*
Y166589D02*
G03*
X244026Y166589I-1450J0D01*
G01*
Y170589D02*
G03*
X244026Y170589I-1450J0D01*
G01*
X248026Y162589D02*
G03*
X248026Y162589I-1450J0D01*
G01*
X252026D02*
G03*
X252026Y162589I-1450J0D01*
G01*
X248026Y166589D02*
G03*
X248026Y166589I-1450J0D01*
G01*
X252026D02*
G03*
X252026Y166589I-1450J0D01*
G01*
X256026Y162589D02*
G03*
X256026Y162589I-1450J0D01*
G01*
Y166589D02*
G03*
X256026Y166589I-1450J0D01*
G01*
X248026Y174589D02*
G03*
X248026Y174589I-1450J0D01*
G01*
Y170589D02*
G03*
X248026Y170589I-1450J0D01*
G01*
X252026Y174589D02*
G03*
X252026Y174589I-1450J0D01*
G01*
Y178589D02*
G03*
X252026Y178589I-1450J0D01*
G01*
X248026D02*
G03*
X248026Y178589I-1450J0D01*
G01*
X252026Y170589D02*
G03*
X252026Y170589I-1450J0D01*
G01*
X256026D02*
G03*
X256026Y170589I-1450J0D01*
G01*
Y174589D02*
G03*
X256026Y174589I-1450J0D01*
G01*
Y178589D02*
G03*
X256026Y178589I-1450J0D01*
G01*
X240026Y86508D02*
G03*
X240026Y86508I-1450J0D01*
G01*
X244026D02*
G03*
X244026Y86508I-1450J0D01*
G01*
X240026Y98508D02*
G03*
X240026Y98508I-1450J0D01*
G01*
Y90508D02*
G03*
X240026Y90508I-1450J0D01*
G01*
Y94508D02*
G03*
X240026Y94508I-1450J0D01*
G01*
X244026Y102508D02*
G03*
X244026Y102508I-1450J0D01*
G01*
X240026D02*
G03*
X240026Y102508I-1450J0D01*
G01*
X244026Y98508D02*
G03*
X244026Y98508I-1450J0D01*
G01*
Y90508D02*
G03*
X244026Y90508I-1450J0D01*
G01*
Y94508D02*
G03*
X244026Y94508I-1450J0D01*
G01*
X248026Y86508D02*
G03*
X248026Y86508I-1450J0D01*
G01*
X252026D02*
G03*
X252026Y86508I-1450J0D01*
G01*
X248026Y90508D02*
G03*
X248026Y90508I-1450J0D01*
G01*
X252026D02*
G03*
X252026Y90508I-1450J0D01*
G01*
X256026Y86508D02*
G03*
X256026Y86508I-1450J0D01*
G01*
Y90508D02*
G03*
X256026Y90508I-1450J0D01*
G01*
X248026Y98508D02*
G03*
X248026Y98508I-1450J0D01*
G01*
Y94508D02*
G03*
X248026Y94508I-1450J0D01*
G01*
X252026Y98508D02*
G03*
X252026Y98508I-1450J0D01*
G01*
Y102508D02*
G03*
X252026Y102508I-1450J0D01*
G01*
X248026D02*
G03*
X248026Y102508I-1450J0D01*
G01*
X252026Y94508D02*
G03*
X252026Y94508I-1450J0D01*
G01*
X256026D02*
G03*
X256026Y94508I-1450J0D01*
G01*
Y98508D02*
G03*
X256026Y98508I-1450J0D01*
G01*
Y102508D02*
G03*
X256026Y102508I-1450J0D01*
G01*
X240026Y314750D02*
G03*
X240026Y314750I-1450J0D01*
G01*
X244026D02*
G03*
X244026Y314750I-1450J0D01*
G01*
X240026Y326750D02*
G03*
X240026Y326750I-1450J0D01*
G01*
Y318750D02*
G03*
X240026Y318750I-1450J0D01*
G01*
Y322750D02*
G03*
X240026Y322750I-1450J0D01*
G01*
X244026Y330750D02*
G03*
X244026Y330750I-1450J0D01*
G01*
X240026D02*
G03*
X240026Y330750I-1450J0D01*
G01*
X244026Y326750D02*
G03*
X244026Y326750I-1450J0D01*
G01*
Y318750D02*
G03*
X244026Y318750I-1450J0D01*
G01*
Y322750D02*
G03*
X244026Y322750I-1450J0D01*
G01*
X248026Y314750D02*
G03*
X248026Y314750I-1450J0D01*
G01*
X252026D02*
G03*
X252026Y314750I-1450J0D01*
G01*
X248026Y318750D02*
G03*
X248026Y318750I-1450J0D01*
G01*
X252026D02*
G03*
X252026Y318750I-1450J0D01*
G01*
X256026Y314750D02*
G03*
X256026Y314750I-1450J0D01*
G01*
Y318750D02*
G03*
X256026Y318750I-1450J0D01*
G01*
X248026Y326750D02*
G03*
X248026Y326750I-1450J0D01*
G01*
Y322750D02*
G03*
X248026Y322750I-1450J0D01*
G01*
X252026Y326750D02*
G03*
X252026Y326750I-1450J0D01*
G01*
Y330750D02*
G03*
X252026Y330750I-1450J0D01*
G01*
X248026D02*
G03*
X248026Y330750I-1450J0D01*
G01*
X252026Y322750D02*
G03*
X252026Y322750I-1450J0D01*
G01*
X256026D02*
G03*
X256026Y322750I-1450J0D01*
G01*
Y326750D02*
G03*
X256026Y326750I-1450J0D01*
G01*
Y330750D02*
G03*
X256026Y330750I-1450J0D01*
G01*
D44*
X69951Y245044D02*
D03*
Y168963D02*
D03*
Y92882D02*
D03*
Y321124D02*
D03*
D45*
X238576Y254669D02*
D03*
X246576Y238669D02*
D03*
Y242669D02*
D03*
X238576D02*
D03*
Y238669D02*
D03*
X242576D02*
D03*
Y242669D02*
D03*
X238576Y246669D02*
D03*
Y250669D02*
D03*
X242576Y246669D02*
D03*
Y250669D02*
D03*
Y254669D02*
D03*
X250576Y238669D02*
D03*
Y242669D02*
D03*
X254576Y238669D02*
D03*
Y242669D02*
D03*
Y246669D02*
D03*
X246576D02*
D03*
Y250669D02*
D03*
Y254669D02*
D03*
X250576Y246669D02*
D03*
Y250669D02*
D03*
Y254669D02*
D03*
X254576Y250669D02*
D03*
Y254669D02*
D03*
X238576Y166589D02*
D03*
Y162589D02*
D03*
X242576D02*
D03*
Y166589D02*
D03*
X238576Y170589D02*
D03*
Y174589D02*
D03*
Y178589D02*
D03*
X242576Y170589D02*
D03*
Y174589D02*
D03*
Y178589D02*
D03*
X246576Y162589D02*
D03*
X250576D02*
D03*
X246576Y166589D02*
D03*
X250576D02*
D03*
X254576Y162589D02*
D03*
Y166589D02*
D03*
Y170589D02*
D03*
X246576D02*
D03*
Y174589D02*
D03*
Y178589D02*
D03*
X250576Y170589D02*
D03*
Y174589D02*
D03*
Y178589D02*
D03*
X254576Y174589D02*
D03*
Y178589D02*
D03*
X238576Y90508D02*
D03*
Y86508D02*
D03*
X242576D02*
D03*
Y90508D02*
D03*
X238576Y94508D02*
D03*
Y98508D02*
D03*
Y102508D02*
D03*
X242576Y94508D02*
D03*
Y98508D02*
D03*
Y102508D02*
D03*
X246576Y86508D02*
D03*
X250576D02*
D03*
X246576Y90508D02*
D03*
X250576D02*
D03*
X254576Y86508D02*
D03*
Y90508D02*
D03*
Y94508D02*
D03*
X246576D02*
D03*
Y98508D02*
D03*
Y102508D02*
D03*
X250576Y94508D02*
D03*
Y98508D02*
D03*
Y102508D02*
D03*
X254576Y98508D02*
D03*
Y102508D02*
D03*
X238576Y330750D02*
D03*
X246576Y314750D02*
D03*
Y318750D02*
D03*
X238576D02*
D03*
Y314750D02*
D03*
X242576D02*
D03*
Y318750D02*
D03*
X238576Y322750D02*
D03*
Y326750D02*
D03*
X242576Y322750D02*
D03*
Y326750D02*
D03*
Y330750D02*
D03*
X250576Y314750D02*
D03*
Y318750D02*
D03*
X254576Y314750D02*
D03*
Y318750D02*
D03*
Y322750D02*
D03*
X246576D02*
D03*
Y326750D02*
D03*
Y330750D02*
D03*
X250576Y322750D02*
D03*
Y326750D02*
D03*
Y330750D02*
D03*
X254576Y326750D02*
D03*
Y330750D02*
D03*
D46*
X70076Y267419D02*
D03*
Y262419D02*
D03*
Y257419D02*
D03*
Y252419D02*
D03*
Y247419D02*
D03*
Y222419D02*
D03*
Y227419D02*
D03*
Y232419D02*
D03*
Y237419D02*
D03*
Y242419D02*
D03*
Y217419D02*
D03*
Y272419D02*
D03*
Y191339D02*
D03*
Y186339D02*
D03*
Y181339D02*
D03*
Y176339D02*
D03*
Y171339D02*
D03*
Y146339D02*
D03*
Y151339D02*
D03*
Y156339D02*
D03*
Y161339D02*
D03*
Y166339D02*
D03*
Y141339D02*
D03*
Y196339D02*
D03*
Y115258D02*
D03*
Y110258D02*
D03*
Y105258D02*
D03*
Y100258D02*
D03*
Y95258D02*
D03*
Y70258D02*
D03*
Y75258D02*
D03*
Y80258D02*
D03*
Y85258D02*
D03*
Y90258D02*
D03*
Y65258D02*
D03*
Y120258D02*
D03*
Y343500D02*
D03*
Y338500D02*
D03*
Y333500D02*
D03*
Y328500D02*
D03*
Y323500D02*
D03*
Y298500D02*
D03*
Y303500D02*
D03*
Y308500D02*
D03*
Y313500D02*
D03*
Y318500D02*
D03*
Y293500D02*
D03*
Y348500D02*
D03*
D47*
X137826Y265419D02*
D03*
Y257419D02*
D03*
D48*
X149076Y261669D02*
D03*
Y256669D02*
D03*
Y251669D02*
D03*
Y246669D02*
D03*
Y241669D02*
D03*
X177576Y261669D02*
D03*
Y256669D02*
D03*
Y251669D02*
D03*
Y246669D02*
D03*
Y241669D02*
D03*
X149076Y337750D02*
D03*
Y332750D02*
D03*
Y327750D02*
D03*
Y322750D02*
D03*
Y317750D02*
D03*
X177576Y337750D02*
D03*
Y332750D02*
D03*
Y327750D02*
D03*
Y322750D02*
D03*
Y317750D02*
D03*
D49*
X163326Y251669D02*
D03*
Y327750D02*
D03*
D50*
X198326Y245219D02*
D03*
Y236619D02*
D03*
X188576D02*
D03*
Y245219D02*
D03*
X137576Y248469D02*
D03*
Y239869D02*
D03*
Y324550D02*
D03*
Y315950D02*
D03*
D51*
X188326Y254919D02*
D03*
Y263419D02*
D03*
D52*
X198576Y262169D02*
D03*
X207076D02*
D03*
X217576D02*
D03*
X226076D02*
D03*
X198576Y186089D02*
D03*
X207076D02*
D03*
X217576D02*
D03*
X226076D02*
D03*
X198576Y110008D02*
D03*
X207076D02*
D03*
X217576D02*
D03*
X226076D02*
D03*
X198576Y338250D02*
D03*
X207076D02*
D03*
X217576D02*
D03*
X226076D02*
D03*
D53*
X139076Y227919D02*
D03*
X153576D02*
D03*
X139076Y304000D02*
D03*
X153576D02*
D03*
D54*
X217376Y227169D02*
D03*
X208776D02*
D03*
X198376D02*
D03*
X189776D02*
D03*
X256626Y227419D02*
D03*
X248026D02*
D03*
X228026Y227169D02*
D03*
X236626D02*
D03*
X217376Y151089D02*
D03*
X208776D02*
D03*
X256626Y151339D02*
D03*
X248026D02*
D03*
X228026Y151089D02*
D03*
X236626D02*
D03*
X217376Y75008D02*
D03*
X208776D02*
D03*
X256626Y75258D02*
D03*
X248026D02*
D03*
X228026Y75008D02*
D03*
X236626D02*
D03*
X217376Y303250D02*
D03*
X208776D02*
D03*
X198376D02*
D03*
X189776D02*
D03*
X256626Y303500D02*
D03*
X248026D02*
D03*
X228026Y303250D02*
D03*
X236626D02*
D03*
D55*
X180076Y180589D02*
D03*
Y158589D02*
D03*
X150576Y180589D02*
D03*
Y158589D02*
D03*
X180076Y104508D02*
D03*
Y82508D02*
D03*
X150576Y104508D02*
D03*
Y82508D02*
D03*
D56*
X137826Y341500D02*
D03*
Y333500D02*
D03*
D57*
X198326Y321300D02*
D03*
Y312700D02*
D03*
X188576D02*
D03*
Y321300D02*
D03*
D58*
X188326Y331000D02*
D03*
Y339500D02*
D03*
D59*
X433076Y25000D02*
D03*
Y387750D02*
D03*
X25000D02*
D03*
Y25000D02*
D03*
M02*
