G04*
G04 #@! TF.GenerationSoftware,Altium Limited,Altium Designer,22.8.2 (66)*
G04*
G04 Layer_Color=16711935*
%FSLAX44Y44*%
%MOMM*%
G71*
G04*
G04 #@! TF.SameCoordinates,D1849CEB-705E-4778-8C78-DB278C0D41FE*
G04*
G04*
G04 #@! TF.FilePolarity,Positive*
G04*
G01*
G75*
%ADD12C,0.2000*%
%ADD60C,0.0500*%
D12*
X0Y25178D02*
G03*
X25178Y0I25178J0D01*
G01*
X25142Y412750D02*
G03*
X0Y387608I0J-25142D01*
G01*
X458076Y387896D02*
G03*
X433222Y412750I-24854J0D01*
G01*
X433738Y0D02*
G03*
X458076Y24338I0J24338D01*
G01*
X0Y25178D02*
Y387608D01*
X25178Y0D02*
X433738D01*
X25142Y412750D02*
X433222D01*
X458076Y24338D02*
Y387896D01*
D60*
X130076Y219919D02*
G03*
X124954Y217798I0J-7243D01*
G01*
X115826Y212419D02*
G03*
X122227Y215071I0J9053D01*
G01*
X123227Y274768D02*
G03*
X116826Y277419I-6402J-6402D01*
G01*
X125954Y272041D02*
G03*
X131076Y269919I5121J5121D01*
G01*
X50077Y215510D02*
G03*
X52985Y212421I2999J-91D01*
G01*
X53166Y277418D02*
G03*
X50077Y274510I-91J-2999D01*
G01*
X122227Y215071D02*
X124954Y217798D01*
X53166Y277419D02*
X116826D01*
X123227Y274768D02*
X125954Y272041D01*
X131076Y269919D02*
X407826Y269919D01*
X52985Y212419D02*
X115826D01*
X50076Y215510D02*
Y274327D01*
X130076Y219919D02*
X407826Y219919D01*
Y269919D01*
X130076Y143839D02*
G03*
X124954Y141717I0J-7243D01*
G01*
X115826Y136339D02*
G03*
X122227Y138990I0J9053D01*
G01*
X123227Y198687D02*
G03*
X116826Y201339I-6402J-6402D01*
G01*
X125954Y195960D02*
G03*
X131076Y193839I5121J5121D01*
G01*
X50077Y139430D02*
G03*
X52985Y136340I2999J-91D01*
G01*
X53166Y201337D02*
G03*
X50077Y198430I-91J-2999D01*
G01*
X122227Y138990D02*
X124954Y141717D01*
X53166Y201339D02*
X116826D01*
X123227Y198687D02*
X125954Y195960D01*
X131076Y193839D02*
X407826Y193839D01*
X52985Y136339D02*
X115826D01*
X50076Y139430D02*
Y198246D01*
X130076Y143839D02*
X407826Y143839D01*
Y193839D01*
X130076Y67758D02*
G03*
X124954Y65637I0J-7243D01*
G01*
X115826Y60258D02*
G03*
X122227Y62909I0J9053D01*
G01*
X123227Y122606D02*
G03*
X116826Y125258I-6402J-6402D01*
G01*
X125954Y119879D02*
G03*
X131076Y117758I5121J5121D01*
G01*
X50077Y63349D02*
G03*
X52985Y60259I2999J-91D01*
G01*
X53166Y125257D02*
G03*
X50077Y122349I-91J-2999D01*
G01*
X122227Y62909D02*
X124954Y65637D01*
X53166Y125258D02*
X116826D01*
X123227Y122606D02*
X125954Y119879D01*
X131076Y117758D02*
X407826Y117758D01*
X52985Y60258D02*
X115826D01*
X50076Y63349D02*
Y122166D01*
X130076Y67758D02*
X407826Y67758D01*
Y117758D01*
X130076Y296000D02*
G03*
X124954Y293879I0J-7243D01*
G01*
X115826Y288500D02*
G03*
X122227Y291152I0J9053D01*
G01*
X123227Y350848D02*
G03*
X116826Y353500I-6402J-6402D01*
G01*
X125954Y348121D02*
G03*
X131076Y346000I5121J5121D01*
G01*
X50077Y291591D02*
G03*
X52985Y288501I2999J-91D01*
G01*
X53166Y353499D02*
G03*
X50077Y350591I-91J-2999D01*
G01*
X122227Y291152D02*
X124954Y293879D01*
X53166Y353500D02*
X116826D01*
X123227Y350848D02*
X125954Y348121D01*
X131076Y346000D02*
X407826Y346000D01*
X52985Y288500D02*
X115826D01*
X50076Y291591D02*
Y350408D01*
X130076Y296000D02*
X407826Y296000D01*
Y346000D01*
M02*
