G04*
G04 #@! TF.GenerationSoftware,Altium Limited,Altium Designer,22.8.2 (66)*
G04*
G04 Layer_Color=2752767*
%FSLAX44Y44*%
%MOMM*%
G71*
G04*
G04 #@! TF.SameCoordinates,D1849CEB-705E-4778-8C78-DB278C0D41FE*
G04*
G04*
G04 #@! TF.FilePolarity,Positive*
G04*
G01*
G75*
%ADD61C,0.2540*%
%ADD63C,0.0508*%
%ADD64C,0.3810*%
%ADD65C,0.4064*%
D61*
X508074Y349775D02*
G03*
X508074Y349775I-8467J0D01*
G01*
X491141Y303208D02*
X508074D01*
Y320141D01*
X491141D02*
X508074D01*
X491141Y303208D02*
Y320141D01*
X1907110Y341308D02*
Y356543D01*
X1914727D01*
X1917266Y354004D01*
Y348926D01*
X1914727Y346386D01*
X1907110D01*
X1912188D02*
X1917266Y341308D01*
X1924884D02*
X1929962D01*
X1932501Y343847D01*
Y348926D01*
X1929962Y351465D01*
X1924884D01*
X1922345Y348926D01*
Y343847D01*
X1924884Y341308D01*
X1937580Y351465D02*
Y343847D01*
X1940119Y341308D01*
X1947736D01*
Y351465D01*
X1952815Y341308D02*
Y351465D01*
X1960432D01*
X1962971Y348926D01*
Y341308D01*
X1978206Y356543D02*
Y341308D01*
X1970589D01*
X1968050Y343847D01*
Y348926D01*
X1970589Y351465D01*
X1978206D01*
X1990902Y341308D02*
X1985824D01*
X1983285Y343847D01*
Y348926D01*
X1985824Y351465D01*
X1990902D01*
X1993442Y348926D01*
Y346386D01*
X1983285D01*
X2008677Y356543D02*
Y341308D01*
X2001059D01*
X1998520Y343847D01*
Y348926D01*
X2001059Y351465D01*
X2008677D01*
X1907110Y303208D02*
Y318443D01*
X1914727D01*
X1917266Y315904D01*
Y310826D01*
X1914727Y308286D01*
X1907110D01*
X1912188D02*
X1917266Y303208D01*
X1924884D02*
X1929962D01*
X1932501Y305747D01*
Y310826D01*
X1929962Y313365D01*
X1924884D01*
X1922345Y310826D01*
Y305747D01*
X1924884Y303208D01*
X1937580Y313365D02*
Y305747D01*
X1940119Y303208D01*
X1947736D01*
Y313365D01*
X1952815Y303208D02*
Y313365D01*
X1960432D01*
X1962971Y310826D01*
Y303208D01*
X1978206Y318443D02*
Y303208D01*
X1970589D01*
X1968050Y305747D01*
Y310826D01*
X1970589Y313365D01*
X1978206D01*
X1990902Y303208D02*
X1985824D01*
X1983285Y305747D01*
Y310826D01*
X1985824Y313365D01*
X1990902D01*
X1993442Y310826D01*
Y308286D01*
X1983285D01*
X2008677Y318443D02*
Y303208D01*
X2001059D01*
X1998520Y305747D01*
Y310826D01*
X2001059Y313365D01*
X2008677D01*
X1757288Y341308D02*
Y356543D01*
X1764906D01*
X1767445Y354004D01*
Y348926D01*
X1764906Y346386D01*
X1757288D01*
X1775062Y351465D02*
X1780141D01*
X1782680Y348926D01*
Y341308D01*
X1775062D01*
X1772523Y343847D01*
X1775062Y346386D01*
X1782680D01*
X1797915Y356543D02*
Y341308D01*
X1790297D01*
X1787758Y343847D01*
Y348926D01*
X1790297Y351465D01*
X1797915D01*
X1757288Y318443D02*
Y308286D01*
X1762366Y303208D01*
X1767445Y308286D01*
Y318443D01*
X1772523Y303208D02*
X1777601D01*
X1775062D01*
Y313365D01*
X1772523D01*
X1787758D02*
X1792836D01*
X1795376Y310826D01*
Y303208D01*
X1787758D01*
X1785219Y305747D01*
X1787758Y308286D01*
X1795376D01*
X1376402Y356543D02*
X1386559D01*
X1381481D01*
Y341308D01*
X1394176D02*
X1399255D01*
X1401794Y343847D01*
Y348926D01*
X1399255Y351465D01*
X1394176D01*
X1391637Y348926D01*
Y343847D01*
X1394176Y341308D01*
X1406872Y336230D02*
Y351465D01*
X1414490D01*
X1417029Y348926D01*
Y343847D01*
X1414490Y341308D01*
X1406872D01*
X1437342Y356543D02*
Y341308D01*
X1447499D01*
X1455117Y351465D02*
X1460195D01*
X1462734Y348926D01*
Y341308D01*
X1455117D01*
X1452578Y343847D01*
X1455117Y346386D01*
X1462734D01*
X1467813Y351465D02*
Y343847D01*
X1470352Y341308D01*
X1477969D01*
Y338769D01*
X1475430Y336230D01*
X1472891D01*
X1477969Y341308D02*
Y351465D01*
X1490665Y341308D02*
X1485587D01*
X1483048Y343847D01*
Y348926D01*
X1485587Y351465D01*
X1490665D01*
X1493204Y348926D01*
Y346386D01*
X1483048D01*
X1498283Y351465D02*
Y341308D01*
Y346386D01*
X1500822Y348926D01*
X1503361Y351465D01*
X1505900D01*
X1528753Y348926D02*
X1538910D01*
X1559223Y356543D02*
Y341308D01*
X1566841D01*
X1569380Y343847D01*
Y346386D01*
X1566841Y348926D01*
X1559223D01*
X1566841D01*
X1569380Y351465D01*
Y354004D01*
X1566841Y356543D01*
X1559223D01*
X1576997Y341308D02*
X1582076D01*
X1584615Y343847D01*
Y348926D01*
X1582076Y351465D01*
X1576997D01*
X1574458Y348926D01*
Y343847D01*
X1576997Y341308D01*
X1592232Y354004D02*
Y351465D01*
X1589693D01*
X1594772D01*
X1592232D01*
Y343847D01*
X1594772Y341308D01*
X1604928Y354004D02*
Y351465D01*
X1602389D01*
X1607467D01*
X1604928D01*
Y343847D01*
X1607467Y341308D01*
X1617624D02*
X1622702D01*
X1625242Y343847D01*
Y348926D01*
X1622702Y351465D01*
X1617624D01*
X1615085Y348926D01*
Y343847D01*
X1617624Y341308D01*
X1630320D02*
Y351465D01*
X1632859D01*
X1635398Y348926D01*
Y341308D01*
Y348926D01*
X1637937Y351465D01*
X1640477Y348926D01*
Y341308D01*
X1660790Y356543D02*
Y341308D01*
X1670947D01*
X1678564Y351465D02*
X1683643D01*
X1686182Y348926D01*
Y341308D01*
X1678564D01*
X1676025Y343847D01*
X1678564Y346386D01*
X1686182D01*
X1691260Y351465D02*
Y343847D01*
X1693799Y341308D01*
X1701417D01*
Y338769D01*
X1698878Y336230D01*
X1696339D01*
X1701417Y341308D02*
Y351465D01*
X1714113Y341308D02*
X1709035D01*
X1706495Y343847D01*
Y348926D01*
X1709035Y351465D01*
X1714113D01*
X1716652Y348926D01*
Y346386D01*
X1706495D01*
X1721730Y351465D02*
Y341308D01*
Y346386D01*
X1724270Y348926D01*
X1726809Y351465D01*
X1729348D01*
X1376402Y318443D02*
X1386559D01*
X1381481D01*
Y303208D01*
X1394176D02*
X1399255D01*
X1401794Y305747D01*
Y310826D01*
X1399255Y313365D01*
X1394176D01*
X1391637Y310826D01*
Y305747D01*
X1394176Y303208D01*
X1406872Y298130D02*
Y313365D01*
X1414490D01*
X1417029Y310826D01*
Y305747D01*
X1414490Y303208D01*
X1406872D01*
X1437342Y318443D02*
Y303208D01*
X1447499D01*
X1455117Y313365D02*
X1460195D01*
X1462734Y310826D01*
Y303208D01*
X1455117D01*
X1452578Y305747D01*
X1455117Y308286D01*
X1462734D01*
X1467813Y313365D02*
Y305747D01*
X1470352Y303208D01*
X1477969D01*
Y300669D01*
X1475430Y298130D01*
X1472891D01*
X1477969Y303208D02*
Y313365D01*
X1490665Y303208D02*
X1485587D01*
X1483048Y305747D01*
Y310826D01*
X1485587Y313365D01*
X1490665D01*
X1493204Y310826D01*
Y308286D01*
X1483048D01*
X1498283Y313365D02*
Y303208D01*
Y308286D01*
X1500822Y310826D01*
X1503361Y313365D01*
X1505900D01*
X1528753Y310826D02*
X1538910D01*
X1559223Y318443D02*
Y303208D01*
X1566841D01*
X1569380Y305747D01*
Y308286D01*
X1566841Y310826D01*
X1559223D01*
X1566841D01*
X1569380Y313365D01*
Y315904D01*
X1566841Y318443D01*
X1559223D01*
X1576997Y303208D02*
X1582076D01*
X1584615Y305747D01*
Y310826D01*
X1582076Y313365D01*
X1576997D01*
X1574458Y310826D01*
Y305747D01*
X1576997Y303208D01*
X1592232Y315904D02*
Y313365D01*
X1589693D01*
X1594772D01*
X1592232D01*
Y305747D01*
X1594772Y303208D01*
X1604928Y315904D02*
Y313365D01*
X1602389D01*
X1607467D01*
X1604928D01*
Y305747D01*
X1607467Y303208D01*
X1617624D02*
X1622702D01*
X1625242Y305747D01*
Y310826D01*
X1622702Y313365D01*
X1617624D01*
X1615085Y310826D01*
Y305747D01*
X1617624Y303208D01*
X1630320D02*
Y313365D01*
X1632859D01*
X1635398Y310826D01*
Y303208D01*
Y310826D01*
X1637937Y313365D01*
X1640477Y310826D01*
Y303208D01*
X1660790Y318443D02*
Y303208D01*
X1670947D01*
X1678564Y313365D02*
X1683643D01*
X1686182Y310826D01*
Y303208D01*
X1678564D01*
X1676025Y305747D01*
X1678564Y308286D01*
X1686182D01*
X1691260Y313365D02*
Y305747D01*
X1693799Y303208D01*
X1701417D01*
Y300669D01*
X1698878Y298130D01*
X1696339D01*
X1701417Y303208D02*
Y313365D01*
X1714113Y303208D02*
X1709035D01*
X1706495Y305747D01*
Y310826D01*
X1709035Y313365D01*
X1714113D01*
X1716652Y310826D01*
Y308286D01*
X1706495D01*
X1721730Y313365D02*
Y303208D01*
Y308286D01*
X1724270Y310826D01*
X1726809Y313365D01*
X1729348D01*
X1190016Y341308D02*
Y356543D01*
X1197634D01*
X1200173Y354004D01*
Y348926D01*
X1197634Y346386D01*
X1190016D01*
X1195095D02*
X1200173Y341308D01*
X1207791D02*
X1212869D01*
X1215408Y343847D01*
Y348926D01*
X1212869Y351465D01*
X1207791D01*
X1205251Y348926D01*
Y343847D01*
X1207791Y341308D01*
X1220487Y351465D02*
Y343847D01*
X1223026Y341308D01*
X1230643D01*
Y351465D01*
X1235722Y341308D02*
Y351465D01*
X1243339D01*
X1245878Y348926D01*
Y341308D01*
X1261114Y356543D02*
Y341308D01*
X1253496D01*
X1250957Y343847D01*
Y348926D01*
X1253496Y351465D01*
X1261114D01*
X1190016Y303208D02*
Y318443D01*
X1197634D01*
X1200173Y315904D01*
Y310826D01*
X1197634Y308286D01*
X1190016D01*
X1195095D02*
X1200173Y303208D01*
X1207791D02*
X1212869D01*
X1215408Y305747D01*
Y310826D01*
X1212869Y313365D01*
X1207791D01*
X1205251Y310826D01*
Y305747D01*
X1207791Y303208D01*
X1220487Y313365D02*
Y305747D01*
X1223026Y303208D01*
X1230643D01*
Y313365D01*
X1235722Y303208D02*
Y313365D01*
X1243339D01*
X1245878Y310826D01*
Y303208D01*
X1261114Y318443D02*
Y303208D01*
X1253496D01*
X1250957Y305747D01*
Y310826D01*
X1253496Y313365D01*
X1261114D01*
X1061524Y341308D02*
Y356543D01*
X1069141D01*
X1071681Y354004D01*
Y348926D01*
X1069141Y346386D01*
X1061524D01*
X1076759Y356543D02*
X1086916D01*
X1081837D01*
Y341308D01*
X1091994Y356543D02*
Y341308D01*
Y348926D01*
X1102151D01*
Y356543D01*
Y341308D01*
X1061524Y303208D02*
Y318443D01*
X1069141D01*
X1071681Y315904D01*
Y310826D01*
X1069141Y308286D01*
X1061524D01*
X1076759Y318443D02*
X1086916D01*
X1081837D01*
Y303208D01*
X1091994Y318443D02*
Y303208D01*
Y310826D01*
X1102151D01*
Y318443D01*
Y303208D01*
X787284Y341308D02*
X777127D01*
X787284Y351465D01*
Y354004D01*
X784744Y356543D01*
X779666D01*
X777127Y354004D01*
X794901Y338769D02*
X797440Y341308D01*
Y343847D01*
X794901D01*
Y341308D01*
X797440D01*
X794901Y338769D01*
X792362Y336230D01*
X807597Y354004D02*
X810136Y356543D01*
X815215D01*
X817754Y354004D01*
Y343847D01*
X815215Y341308D01*
X810136D01*
X807597Y343847D01*
Y354004D01*
X822832D02*
X825371Y356543D01*
X830450D01*
X832989Y354004D01*
Y343847D01*
X830450Y341308D01*
X825371D01*
X822832Y343847D01*
Y354004D01*
X838067D02*
X840606Y356543D01*
X845685D01*
X848224Y354004D01*
Y343847D01*
X845685Y341308D01*
X840606D01*
X838067Y343847D01*
Y354004D01*
X853302Y341308D02*
Y351465D01*
X855842D01*
X858381Y348926D01*
Y341308D01*
Y348926D01*
X860920Y351465D01*
X863459Y348926D01*
Y341308D01*
X868537D02*
Y351465D01*
X871077D01*
X873616Y348926D01*
Y341308D01*
Y348926D01*
X876155Y351465D01*
X878694Y348926D01*
Y341308D01*
X904086D02*
X899007Y346386D01*
Y351465D01*
X904086Y356543D01*
X911703D02*
X921860D01*
Y354004D01*
X911703Y343847D01*
Y341308D01*
X926938Y354004D02*
X929478Y356543D01*
X934556D01*
X937095Y354004D01*
Y351465D01*
X934556Y348926D01*
X937095Y346386D01*
Y343847D01*
X934556Y341308D01*
X929478D01*
X926938Y343847D01*
Y346386D01*
X929478Y348926D01*
X926938Y351465D01*
Y354004D01*
X929478Y348926D02*
X934556D01*
X944713Y338769D02*
X947252Y341308D01*
Y343847D01*
X944713D01*
Y341308D01*
X947252D01*
X944713Y338769D01*
X942174Y336230D01*
X957409Y356543D02*
X967565D01*
Y354004D01*
X957409Y343847D01*
Y341308D01*
X980261D02*
Y356543D01*
X972644Y348926D01*
X982800D01*
X987879Y341308D02*
Y351465D01*
X990418D01*
X992957Y348926D01*
Y341308D01*
Y348926D01*
X995496Y351465D01*
X998036Y348926D01*
Y341308D01*
X1003114D02*
X1008192D01*
X1005653D01*
Y351465D01*
X1003114D01*
X1015810Y341308D02*
X1020888D01*
X1018349D01*
Y356543D01*
X1015810D01*
X1028506Y341308D02*
X1033584Y346386D01*
Y351465D01*
X1028506Y356543D01*
X777127Y315904D02*
X779666Y318443D01*
X784744D01*
X787284Y315904D01*
Y305747D01*
X784744Y303208D01*
X779666D01*
X777127Y305747D01*
Y315904D01*
X794901Y300669D02*
X797440Y303208D01*
Y305747D01*
X794901D01*
Y303208D01*
X797440D01*
X794901Y300669D01*
X792362Y298130D01*
X807597Y303208D02*
X812675D01*
X810136D01*
Y318443D01*
X807597Y315904D01*
X830450Y318443D02*
X820293D01*
Y310826D01*
X825371Y313365D01*
X827911D01*
X830450Y310826D01*
Y305747D01*
X827911Y303208D01*
X822832D01*
X820293Y305747D01*
X835528Y315904D02*
X838067Y318443D01*
X843146D01*
X845685Y315904D01*
Y305747D01*
X843146Y303208D01*
X838067D01*
X835528Y305747D01*
Y315904D01*
X850763Y303208D02*
Y313365D01*
X853302D01*
X855842Y310826D01*
Y303208D01*
Y310826D01*
X858381Y313365D01*
X860920Y310826D01*
Y303208D01*
X865998D02*
Y313365D01*
X868537D01*
X871077Y310826D01*
Y303208D01*
Y310826D01*
X873616Y313365D01*
X876155Y310826D01*
Y303208D01*
X901547D02*
X896468Y308286D01*
Y313365D01*
X901547Y318443D01*
X919321D02*
X909164D01*
Y310826D01*
X914243Y313365D01*
X916782D01*
X919321Y310826D01*
Y305747D01*
X916782Y303208D01*
X911703D01*
X909164Y305747D01*
X926938Y300669D02*
X929478Y303208D01*
Y305747D01*
X926938D01*
Y303208D01*
X929478D01*
X926938Y300669D01*
X924399Y298130D01*
X939634Y305747D02*
X942174Y303208D01*
X947252D01*
X949791Y305747D01*
Y315904D01*
X947252Y318443D01*
X942174D01*
X939634Y315904D01*
Y313365D01*
X942174Y310826D01*
X949791D01*
X954870Y303208D02*
X959948D01*
X957409D01*
Y318443D01*
X954870Y315904D01*
X967565Y303208D02*
Y313365D01*
X970105D01*
X972644Y310826D01*
Y303208D01*
Y310826D01*
X975183Y313365D01*
X977722Y310826D01*
Y303208D01*
X982800D02*
X987879D01*
X985340D01*
Y313365D01*
X982800D01*
X995496Y303208D02*
X1000575D01*
X998036D01*
Y318443D01*
X995496D01*
X1008192Y303208D02*
X1013270Y308286D01*
Y313365D01*
X1008192Y318443D01*
X627306Y265108D02*
X632385D01*
X629846D01*
Y280343D01*
X627306Y277804D01*
X640002D02*
X642542Y280343D01*
X647620D01*
X650159Y277804D01*
Y275265D01*
X647620Y272726D01*
X650159Y270186D01*
Y267647D01*
X647620Y265108D01*
X642542D01*
X640002Y267647D01*
Y270186D01*
X642542Y272726D01*
X640002Y275265D01*
Y277804D01*
X642542Y272726D02*
X647620D01*
X665394Y265108D02*
X655237D01*
X665394Y275265D01*
Y277804D01*
X662855Y280343D01*
X657777D01*
X655237Y277804D01*
X685707Y280343D02*
X695864D01*
X690786D01*
Y265108D01*
X703482D02*
X708560D01*
X711099Y267647D01*
Y272726D01*
X708560Y275265D01*
X703482D01*
X700943Y272726D01*
Y267647D01*
X703482Y265108D01*
X718717Y277804D02*
Y275265D01*
X716178D01*
X721256D01*
X718717D01*
Y267647D01*
X721256Y265108D01*
X731413Y275265D02*
X736491D01*
X739030Y272726D01*
Y265108D01*
X731413D01*
X728874Y267647D01*
X731413Y270186D01*
X739030D01*
X744109Y265108D02*
X749187D01*
X746648D01*
Y280343D01*
X744109D01*
X634924Y341308D02*
Y356543D01*
X627306Y348926D01*
X637463D01*
X627306Y303208D02*
X632385D01*
X629846D01*
Y318443D01*
X627306Y315904D01*
X640002Y318443D02*
X650159D01*
Y315904D01*
X640002Y305747D01*
Y303208D01*
X655237Y315904D02*
X657777Y318443D01*
X662855D01*
X665394Y315904D01*
Y313365D01*
X662855Y310826D01*
X665394Y308286D01*
Y305747D01*
X662855Y303208D01*
X657777D01*
X655237Y305747D01*
Y308286D01*
X657777Y310826D01*
X655237Y313365D01*
Y315904D01*
X657777Y310826D02*
X662855D01*
D63*
X27540Y25000D02*
G03*
X27540Y25000I-2540J0D01*
G01*
Y387750D02*
G03*
X27540Y387750I-2540J0D01*
G01*
X435616D02*
G03*
X435616Y387750I-2540J0D01*
G01*
Y25000D02*
G03*
X435616Y25000I-2540J0D01*
G01*
X170286Y301460D02*
X175366D01*
Y306540D01*
X170286D02*
X175366D01*
X170286Y301460D02*
Y306540D01*
X248786Y332898D02*
X253866D01*
Y337978D01*
X248786D02*
X253866D01*
X248786Y332898D02*
Y337978D01*
X92536Y345960D02*
X97616D01*
Y351040D01*
X92536D02*
X97616D01*
X92536Y345960D02*
Y351040D01*
Y330960D02*
X97616D01*
Y336040D01*
X92536D02*
X97616D01*
X92536Y330960D02*
Y336040D01*
X201036Y299960D02*
X206116D01*
Y305040D01*
X201036D02*
X206116D01*
X201036Y299960D02*
Y305040D01*
X199286Y330960D02*
X204366D01*
Y336040D01*
X199286D02*
X204366D01*
X199286Y330960D02*
Y336040D01*
X92536Y340960D02*
X97616D01*
Y346040D01*
X92536D02*
X97616D01*
X92536Y340960D02*
Y346040D01*
Y335960D02*
X97616D01*
Y341040D01*
X92536D02*
X97616D01*
X92536Y335960D02*
Y341040D01*
Y300960D02*
X97616D01*
Y306040D01*
X92536D02*
X97616D01*
X92536Y300960D02*
Y306040D01*
X190364Y331656D02*
X195444D01*
Y336736D01*
X190364D02*
X195444D01*
X190364Y331656D02*
Y336736D01*
X255286Y307210D02*
X260366D01*
Y312290D01*
X255286D02*
X260366D01*
X255286Y307210D02*
Y312290D01*
X261066Y298172D02*
X266146D01*
Y303252D01*
X261066D02*
X266146D01*
X261066Y298172D02*
Y303252D01*
X244036Y332960D02*
X249116D01*
Y338040D01*
X244036D02*
X249116D01*
X244036Y332960D02*
Y338040D01*
X151036Y301460D02*
X156116D01*
Y306540D01*
X151036D02*
X156116D01*
X151036Y301460D02*
Y306540D01*
X242738Y306912D02*
X247817D01*
Y311992D01*
X242738D02*
X247817D01*
X242738Y306912D02*
Y311992D01*
X92536Y320960D02*
X97616D01*
Y326040D01*
X92536D02*
X97616D01*
X92536Y320960D02*
Y326040D01*
Y310960D02*
X97616D01*
Y316040D01*
X92536D02*
X97616D01*
X92536Y310960D02*
Y316040D01*
X239488Y332710D02*
X244568D01*
Y337790D01*
X239488D02*
X244568D01*
X239488Y332710D02*
Y337790D01*
X92536Y305960D02*
X97616D01*
Y311040D01*
X92536D02*
X97616D01*
X92536Y305960D02*
Y311040D01*
X232631Y316134D02*
X237711D01*
Y321214D01*
X232631D02*
X237711D01*
X232631Y316134D02*
Y321214D01*
X92536Y315960D02*
X97616D01*
Y321040D01*
X92536D02*
X97616D01*
X92536Y315960D02*
Y321040D01*
X177036Y309460D02*
X182116D01*
Y314540D01*
X177036D02*
X182116D01*
X177036Y309460D02*
Y314540D01*
X236723Y306710D02*
X241803D01*
Y311790D01*
X236723D02*
X241803D01*
X236723Y306710D02*
Y311790D01*
X225286Y305710D02*
X230366D01*
Y310790D01*
X225286D02*
X230366D01*
X225286Y305710D02*
Y310790D01*
X210286Y314710D02*
X215366D01*
Y319790D01*
X210286D02*
X215366D01*
X210286Y314710D02*
Y319790D01*
X215286Y330960D02*
X220366D01*
Y336040D01*
X215286D02*
X220366D01*
X215286Y330960D02*
Y336040D01*
X231168Y327232D02*
X236248D01*
Y332312D01*
X231168D02*
X236248D01*
X231168Y327232D02*
Y332312D01*
X234922Y332670D02*
X240002D01*
Y337750D01*
X234922D02*
X240002D01*
X234922Y332670D02*
Y337750D01*
X92536Y290960D02*
X97616D01*
Y296040D01*
X92536D02*
X97616D01*
X92536Y290960D02*
Y296040D01*
X136536Y301460D02*
X141616D01*
Y306540D01*
X136536D02*
X141616D01*
X136536Y301460D02*
Y306540D01*
X92536Y295960D02*
X97616D01*
Y301040D01*
X92536D02*
X97616D01*
X92536Y295960D02*
Y301040D01*
X166786Y335460D02*
X171866D01*
Y340540D01*
X166786D02*
X171866D01*
X166786Y335460D02*
Y340540D01*
X210286Y321960D02*
X215366D01*
Y327040D01*
X210286D02*
X215366D01*
X210286Y321960D02*
Y327040D01*
X166786Y314710D02*
X171866D01*
Y319790D01*
X166786D02*
X171866D01*
X166786Y314710D02*
Y319790D01*
X167036Y321460D02*
X172116D01*
Y326540D01*
X167036D02*
X172116D01*
X167036Y321460D02*
Y326540D01*
X155286Y314710D02*
X160366D01*
Y319790D01*
X155286D02*
X160366D01*
X155286Y314710D02*
Y319790D01*
X154786Y321210D02*
X159866D01*
Y326290D01*
X154786D02*
X159866D01*
X154786Y321210D02*
Y326290D01*
X155286Y335460D02*
X160366D01*
Y340540D01*
X155286D02*
X160366D01*
X155286Y335460D02*
Y340540D01*
X228036Y320710D02*
X233116D01*
Y325790D01*
X228036D02*
X233116D01*
X228036Y320710D02*
Y325790D01*
X92536Y325960D02*
X97616D01*
Y331040D01*
X92536D02*
X97616D01*
X92536Y325960D02*
Y331040D01*
X224802Y330253D02*
X229882D01*
Y335333D01*
X224802D02*
X229882D01*
X224802Y330253D02*
Y335333D01*
X255536Y332710D02*
X260616D01*
Y337790D01*
X255536D02*
X260616D01*
X255536Y332710D02*
Y337790D01*
X260907Y317469D02*
X265987D01*
Y322549D01*
X260907D02*
X265987D01*
X260907Y317469D02*
Y322549D01*
X257091Y324210D02*
X262171D01*
Y329290D01*
X257091D02*
X262171D01*
X257091Y324210D02*
Y329290D01*
X282036Y312960D02*
X287116D01*
Y318040D01*
X282036D02*
X287116D01*
X282036Y312960D02*
Y318040D01*
X259036Y338210D02*
X264116D01*
Y343290D01*
X259036D02*
X264116D01*
X259036Y338210D02*
Y343290D01*
X228300Y312914D02*
X233380D01*
Y317994D01*
X228300D02*
X233380D01*
X228300Y312914D02*
Y317994D01*
X248786Y104656D02*
X253866D01*
Y109735D01*
X248786D02*
X253866D01*
X248786Y104656D02*
Y109735D01*
X92536Y102718D02*
X97616D01*
Y107798D01*
X92536D02*
X97616D01*
X92536Y102718D02*
Y107798D01*
Y112718D02*
X97616D01*
Y117798D01*
X92536D02*
X97616D01*
X92536Y112718D02*
Y117798D01*
Y107718D02*
X97616D01*
Y112798D01*
X92536D02*
X97616D01*
X92536Y107718D02*
Y112798D01*
Y72718D02*
X97616D01*
Y77798D01*
X92536D02*
X97616D01*
X92536Y72718D02*
Y77798D01*
X255536Y104468D02*
X260616D01*
Y109548D01*
X255536D02*
X260616D01*
X255536Y104468D02*
Y109548D01*
X244036Y104718D02*
X249116D01*
Y109798D01*
X244036D02*
X249116D01*
X244036Y104718D02*
Y109798D01*
X92536Y92718D02*
X97616D01*
Y97798D01*
X92536D02*
X97616D01*
X92536Y92718D02*
Y97798D01*
Y82718D02*
X97616D01*
Y87798D01*
X92536D02*
X97616D01*
X92536Y82718D02*
Y87798D01*
X239488Y104468D02*
X244568D01*
Y109548D01*
X239488D02*
X244568D01*
X239488Y104468D02*
Y109548D01*
X92536Y77718D02*
X97616D01*
Y82798D01*
X92536D02*
X97616D01*
X92536Y77718D02*
Y82798D01*
X259036Y109968D02*
X264116D01*
Y115048D01*
X259036D02*
X264116D01*
X259036Y109968D02*
Y115048D01*
X232631Y87891D02*
X237711D01*
Y92971D01*
X232631D02*
X237711D01*
X232631Y87891D02*
Y92971D01*
X92536Y87718D02*
X97616D01*
Y92798D01*
X92536D02*
X97616D01*
X92536Y87718D02*
Y92798D01*
X236723Y78468D02*
X241803D01*
Y83548D01*
X236723D02*
X241803D01*
X236723Y78468D02*
Y83548D01*
X215286Y102718D02*
X220366D01*
Y107798D01*
X215286D02*
X220366D01*
X215286Y102718D02*
Y107798D01*
X231168Y98989D02*
X236248D01*
Y104069D01*
X231168D02*
X236248D01*
X231168Y98989D02*
Y104069D01*
X234922Y104428D02*
X240002D01*
Y109508D01*
X234922D02*
X240002D01*
X234922Y104428D02*
Y109508D01*
X92536Y62718D02*
X97616D01*
Y67798D01*
X92536D02*
X97616D01*
X92536Y62718D02*
Y67798D01*
X210286Y93718D02*
X215366D01*
Y98798D01*
X210286D02*
X215366D01*
X210286Y93718D02*
Y98798D01*
X228036Y92468D02*
X233116D01*
Y97548D01*
X228036D02*
X233116D01*
X228036Y92468D02*
Y97548D01*
X92536Y97718D02*
X97616D01*
Y102798D01*
X92536D02*
X97616D01*
X92536Y97718D02*
Y102798D01*
X224802Y102011D02*
X229882D01*
Y107091D01*
X224802D02*
X229882D01*
X224802Y102011D02*
Y107091D01*
X199286Y102718D02*
X204366D01*
Y107798D01*
X199286D02*
X204366D01*
X199286Y102718D02*
Y107798D01*
X191023Y102062D02*
X196103D01*
Y107142D01*
X191023D02*
X196103D01*
X191023Y102062D02*
Y107142D01*
X282036Y84718D02*
X287116D01*
Y89798D01*
X282036D02*
X287116D01*
X282036Y84718D02*
Y89798D01*
X257091Y95968D02*
X262171D01*
Y101048D01*
X257091D02*
X262171D01*
X257091Y95968D02*
Y101048D01*
X242738Y78670D02*
X247817D01*
Y83750D01*
X242738D02*
X247817D01*
X242738Y78670D02*
Y83750D01*
X163536Y81218D02*
X168616D01*
Y86298D01*
X163536D02*
X168616D01*
X163536Y81218D02*
Y86298D01*
X131036Y85218D02*
X136116D01*
Y90298D01*
X131036D02*
X136116D01*
X131036Y85218D02*
Y90298D01*
X131792Y69968D02*
X136872D01*
Y75048D01*
X131792D02*
X136872D01*
X131792Y69968D02*
Y75048D01*
X137036Y70218D02*
X142116D01*
Y75298D01*
X137036D02*
X142116D01*
X137036Y70218D02*
Y75298D01*
X262536Y69968D02*
X267616D01*
Y75048D01*
X262536D02*
X267616D01*
X262536Y69968D02*
Y75048D01*
X257536Y83718D02*
X262616D01*
Y88798D01*
X257536D02*
X262616D01*
X257536Y83718D02*
Y88798D01*
X255286Y78968D02*
X260366D01*
Y84048D01*
X255286D02*
X260366D01*
X255286Y78968D02*
Y84048D01*
X178211Y73228D02*
X183291D01*
Y78307D01*
X178211D02*
X183291D01*
X178211Y73228D02*
Y78307D01*
X147286Y72718D02*
X152366D01*
Y77798D01*
X147286D02*
X152366D01*
X147286Y72718D02*
Y77798D01*
X197461Y72477D02*
X202541D01*
Y77558D01*
X197461D02*
X202541D01*
X197461Y72477D02*
Y77558D01*
X194786Y93218D02*
X199866D01*
Y98298D01*
X194786D02*
X199866D01*
X194786Y93218D02*
Y98298D01*
X163286Y106968D02*
X168366D01*
Y112048D01*
X163286D02*
X168366D01*
X163286Y106968D02*
Y112048D01*
X225286Y77468D02*
X230366D01*
Y82548D01*
X225286D02*
X230366D01*
X225286Y77468D02*
Y82548D01*
X228303Y84679D02*
X233383D01*
Y89759D01*
X228303D02*
X233383D01*
X228303Y84679D02*
Y89759D01*
X248786Y180736D02*
X253866D01*
Y185816D01*
X248786D02*
X253866D01*
X248786Y180736D02*
Y185816D01*
X92536Y178799D02*
X97616D01*
Y183879D01*
X92536D02*
X97616D01*
X92536Y178799D02*
Y183879D01*
Y188799D02*
X97616D01*
Y193879D01*
X92536D02*
X97616D01*
X92536Y188799D02*
Y193879D01*
Y183799D02*
X97616D01*
Y188879D01*
X92536D02*
X97616D01*
X92536Y183799D02*
Y188879D01*
Y148799D02*
X97616D01*
Y153879D01*
X92536D02*
X97616D01*
X92536Y148799D02*
Y153879D01*
X255536Y180549D02*
X260616D01*
Y185629D01*
X255536D02*
X260616D01*
X255536Y180549D02*
Y185629D01*
X244036Y180799D02*
X249116D01*
Y185879D01*
X244036D02*
X249116D01*
X244036Y180799D02*
Y185879D01*
X92536Y168799D02*
X97616D01*
Y173879D01*
X92536D02*
X97616D01*
X92536Y168799D02*
Y173879D01*
Y158799D02*
X97616D01*
Y163879D01*
X92536D02*
X97616D01*
X92536Y158799D02*
Y163879D01*
X239488Y180549D02*
X244568D01*
Y185629D01*
X239488D02*
X244568D01*
X239488Y180549D02*
Y185629D01*
X92536Y153799D02*
X97616D01*
Y158879D01*
X92536D02*
X97616D01*
X92536Y153799D02*
Y158879D01*
X259036Y186049D02*
X264116D01*
Y191129D01*
X259036D02*
X264116D01*
X259036Y186049D02*
Y191129D01*
X232631Y163972D02*
X237711D01*
Y169052D01*
X232631D02*
X237711D01*
X232631Y163972D02*
Y169052D01*
X92536Y163799D02*
X97616D01*
Y168879D01*
X92536D02*
X97616D01*
X92536Y163799D02*
Y168879D01*
X236723Y154549D02*
X241803D01*
Y159629D01*
X236723D02*
X241803D01*
X236723Y154549D02*
Y159629D01*
X215286Y178799D02*
X220366D01*
Y183879D01*
X215286D02*
X220366D01*
X215286Y178799D02*
Y183879D01*
X231168Y175070D02*
X236248D01*
Y180150D01*
X231168D02*
X236248D01*
X231168Y175070D02*
Y180150D01*
X234922Y180508D02*
X240002D01*
Y185588D01*
X234922D02*
X240002D01*
X234922Y180508D02*
Y185588D01*
X92536Y138799D02*
X97616D01*
Y143879D01*
X92536D02*
X97616D01*
X92536Y138799D02*
Y143879D01*
X210286Y169799D02*
X215366D01*
Y174879D01*
X210286D02*
X215366D01*
X210286Y169799D02*
Y174879D01*
X228036Y168549D02*
X233116D01*
Y173629D01*
X228036D02*
X233116D01*
X228036Y168549D02*
Y173629D01*
X92536Y173799D02*
X97616D01*
Y178879D01*
X92536D02*
X97616D01*
X92536Y173799D02*
Y178879D01*
X224802Y178092D02*
X229882D01*
Y183172D01*
X224802D02*
X229882D01*
X224802Y178092D02*
Y183172D01*
X199286Y178799D02*
X204366D01*
Y183879D01*
X199286D02*
X204366D01*
X199286Y178799D02*
Y183879D01*
X191023Y178142D02*
X196103D01*
Y183222D01*
X191023D02*
X196103D01*
X191023Y178142D02*
Y183222D01*
X282036Y160799D02*
X287116D01*
Y165879D01*
X282036D02*
X287116D01*
X282036Y160799D02*
Y165879D01*
X257091Y172049D02*
X262171D01*
Y177129D01*
X257091D02*
X262171D01*
X257091Y172049D02*
Y177129D01*
X242738Y154750D02*
X247817D01*
Y159831D01*
X242738D02*
X247817D01*
X242738Y154750D02*
Y159831D01*
X163536Y157299D02*
X168616D01*
Y162379D01*
X163536D02*
X168616D01*
X163536Y157299D02*
Y162379D01*
X131036Y161299D02*
X136116D01*
Y166379D01*
X131036D02*
X136116D01*
X131036Y161299D02*
Y166379D01*
X131792Y146049D02*
X136872D01*
Y151129D01*
X131792D02*
X136872D01*
X131792Y146049D02*
Y151129D01*
X137036Y146299D02*
X142116D01*
Y151379D01*
X137036D02*
X142116D01*
X137036Y146299D02*
Y151379D01*
X262536Y146049D02*
X267616D01*
Y151129D01*
X262536D02*
X267616D01*
X262536Y146049D02*
Y151129D01*
X257536Y159799D02*
X262616D01*
Y164879D01*
X257536D02*
X262616D01*
X257536Y159799D02*
Y164879D01*
X255286Y155049D02*
X260366D01*
Y160129D01*
X255286D02*
X260366D01*
X255286Y155049D02*
Y160129D01*
X178211Y149308D02*
X183291D01*
Y154388D01*
X178211D02*
X183291D01*
X178211Y149308D02*
Y154388D01*
X147286Y148799D02*
X152366D01*
Y153879D01*
X147286D02*
X152366D01*
X147286Y148799D02*
Y153879D01*
X197461Y148558D02*
X202541D01*
Y153638D01*
X197461D02*
X202541D01*
X197461Y148558D02*
Y153638D01*
X194786Y169299D02*
X199866D01*
Y174379D01*
X194786D02*
X199866D01*
X194786Y169299D02*
Y174379D01*
X163286Y183049D02*
X168366D01*
Y188129D01*
X163286D02*
X168366D01*
X163286Y183049D02*
Y188129D01*
X225286Y153549D02*
X230366D01*
Y158629D01*
X225286D02*
X230366D01*
X225286Y153549D02*
Y158629D01*
X228303Y160760D02*
X233383D01*
Y165840D01*
X228303D02*
X233383D01*
X228303Y160760D02*
Y165840D01*
X170286Y225379D02*
X175366D01*
Y230459D01*
X170286D02*
X175366D01*
X170286Y225379D02*
Y230459D01*
X248786Y256817D02*
X253866D01*
Y261897D01*
X248786D02*
X253866D01*
X248786Y256817D02*
Y261897D01*
X92536Y269879D02*
X97616D01*
Y274959D01*
X92536D02*
X97616D01*
X92536Y269879D02*
Y274959D01*
Y254879D02*
X97616D01*
Y259959D01*
X92536D02*
X97616D01*
X92536Y254879D02*
Y259959D01*
X201036Y223879D02*
X206116D01*
Y228959D01*
X201036D02*
X206116D01*
X201036Y223879D02*
Y228959D01*
X199286Y254879D02*
X204366D01*
Y259959D01*
X199286D02*
X204366D01*
X199286Y254879D02*
Y259959D01*
X92536Y264879D02*
X97616D01*
Y269959D01*
X92536D02*
X97616D01*
X92536Y264879D02*
Y269959D01*
Y259879D02*
X97616D01*
Y264959D01*
X92536D02*
X97616D01*
X92536Y259879D02*
Y264959D01*
Y224879D02*
X97616D01*
Y229959D01*
X92536D02*
X97616D01*
X92536Y224879D02*
Y229959D01*
X190364Y255576D02*
X195444D01*
Y260655D01*
X190364D02*
X195444D01*
X190364Y255576D02*
Y260655D01*
X255286Y231129D02*
X260366D01*
Y236209D01*
X255286D02*
X260366D01*
X255286Y231129D02*
Y236209D01*
X261066Y222092D02*
X266146D01*
Y227171D01*
X261066D02*
X266146D01*
X261066Y222092D02*
Y227171D01*
X244036Y256879D02*
X249116D01*
Y261959D01*
X244036D02*
X249116D01*
X244036Y256879D02*
Y261959D01*
X151036Y225379D02*
X156116D01*
Y230459D01*
X151036D02*
X156116D01*
X151036Y225379D02*
Y230459D01*
X242738Y230831D02*
X247817D01*
Y235911D01*
X242738D02*
X247817D01*
X242738Y230831D02*
Y235911D01*
X92536Y244879D02*
X97616D01*
Y249959D01*
X92536D02*
X97616D01*
X92536Y244879D02*
Y249959D01*
Y234879D02*
X97616D01*
Y239959D01*
X92536D02*
X97616D01*
X92536Y234879D02*
Y239959D01*
X239488Y256629D02*
X244568D01*
Y261709D01*
X239488D02*
X244568D01*
X239488Y256629D02*
Y261709D01*
X92536Y229879D02*
X97616D01*
Y234959D01*
X92536D02*
X97616D01*
X92536Y229879D02*
Y234959D01*
X232631Y240053D02*
X237711D01*
Y245133D01*
X232631D02*
X237711D01*
X232631Y240053D02*
Y245133D01*
X92536Y239879D02*
X97616D01*
Y244959D01*
X92536D02*
X97616D01*
X92536Y239879D02*
Y244959D01*
X177036Y233379D02*
X182116D01*
Y238459D01*
X177036D02*
X182116D01*
X177036Y233379D02*
Y238459D01*
X236723Y230629D02*
X241803D01*
Y235709D01*
X236723D02*
X241803D01*
X236723Y230629D02*
Y235709D01*
X225286Y229629D02*
X230366D01*
Y234709D01*
X225286D02*
X230366D01*
X225286Y229629D02*
Y234709D01*
X210286Y238629D02*
X215366D01*
Y243709D01*
X210286D02*
X215366D01*
X210286Y238629D02*
Y243709D01*
X215286Y254879D02*
X220366D01*
Y259959D01*
X215286D02*
X220366D01*
X215286Y254879D02*
Y259959D01*
X231168Y251151D02*
X236248D01*
Y256231D01*
X231168D02*
X236248D01*
X231168Y251151D02*
Y256231D01*
X234922Y256589D02*
X240002D01*
Y261669D01*
X234922D02*
X240002D01*
X234922Y256589D02*
Y261669D01*
X92536Y214879D02*
X97616D01*
Y219959D01*
X92536D02*
X97616D01*
X92536Y214879D02*
Y219959D01*
X136536Y225379D02*
X141616D01*
Y230459D01*
X136536D02*
X141616D01*
X136536Y225379D02*
Y230459D01*
X92536Y219879D02*
X97616D01*
Y224959D01*
X92536D02*
X97616D01*
X92536Y219879D02*
Y224959D01*
X166786Y259379D02*
X171866D01*
Y264459D01*
X166786D02*
X171866D01*
X166786Y259379D02*
Y264459D01*
X210286Y245879D02*
X215366D01*
Y250959D01*
X210286D02*
X215366D01*
X210286Y245879D02*
Y250959D01*
X166786Y238629D02*
X171866D01*
Y243709D01*
X166786D02*
X171866D01*
X166786Y238629D02*
Y243709D01*
X167036Y245379D02*
X172116D01*
Y250459D01*
X167036D02*
X172116D01*
X167036Y245379D02*
Y250459D01*
X155286Y238629D02*
X160366D01*
Y243709D01*
X155286D02*
X160366D01*
X155286Y238629D02*
Y243709D01*
X154786Y245129D02*
X159866D01*
Y250209D01*
X154786D02*
X159866D01*
X154786Y245129D02*
Y250209D01*
X155286Y259379D02*
X160366D01*
Y264459D01*
X155286D02*
X160366D01*
X155286Y259379D02*
Y264459D01*
X228036Y244629D02*
X233116D01*
Y249709D01*
X228036D02*
X233116D01*
X228036Y244629D02*
Y249709D01*
X92536Y249879D02*
X97616D01*
Y254959D01*
X92536D02*
X97616D01*
X92536Y249879D02*
Y254959D01*
X224802Y254173D02*
X229882D01*
Y259253D01*
X224802D02*
X229882D01*
X224802Y254173D02*
Y259253D01*
X255536Y256629D02*
X260616D01*
Y261709D01*
X255536D02*
X260616D01*
X255536Y256629D02*
Y261709D01*
X260907Y241389D02*
X265987D01*
Y246469D01*
X260907D02*
X265987D01*
X260907Y241389D02*
Y246469D01*
X257091Y248129D02*
X262171D01*
Y253209D01*
X257091D02*
X262171D01*
X257091Y248129D02*
Y253209D01*
X282036Y236879D02*
X287116D01*
Y241959D01*
X282036D02*
X287116D01*
X282036Y236879D02*
Y241959D01*
X259036Y262129D02*
X264116D01*
Y267209D01*
X259036D02*
X264116D01*
X259036Y262129D02*
Y267209D01*
X228300Y236833D02*
X233380D01*
Y241913D01*
X228300D02*
X233380D01*
X228300Y236833D02*
Y241913D01*
D64*
X475954Y367978D02*
X2096542D01*
X475954Y291778D02*
X2096542D01*
X475954Y253678D02*
X2096542D01*
Y406078D01*
X475954D02*
X2096542D01*
X475954Y253678D02*
Y406078D01*
X1895679Y253678D02*
Y406078D01*
X1745858Y253678D02*
Y406078D01*
X1364972Y253678D02*
Y406078D01*
X1178586Y253678D02*
Y406078D01*
X1050094Y253678D02*
Y406078D01*
X765697Y253678D02*
Y406078D01*
X615876Y253678D02*
Y406078D01*
D65*
X1907110Y379408D02*
Y397690D01*
X1916251D01*
X1919298Y394643D01*
Y388549D01*
X1916251Y385502D01*
X1907110D01*
X1928439Y391596D02*
X1934533D01*
X1937580Y388549D01*
Y379408D01*
X1928439D01*
X1925392Y382455D01*
X1928439Y385502D01*
X1937580D01*
X1955862Y397690D02*
Y379408D01*
X1946721D01*
X1943674Y382455D01*
Y388549D01*
X1946721Y391596D01*
X1955862D01*
X1992426Y394643D02*
X1989379Y397690D01*
X1983285D01*
X1980238Y394643D01*
Y391596D01*
X1983285Y388549D01*
X1989379D01*
X1992426Y385502D01*
Y382455D01*
X1989379Y379408D01*
X1983285D01*
X1980238Y382455D01*
X1998520Y397690D02*
Y379408D01*
Y388549D01*
X2001567Y391596D01*
X2007661D01*
X2010708Y388549D01*
Y379408D01*
X2019849Y391596D02*
X2025943D01*
X2028990Y388549D01*
Y379408D01*
X2019849D01*
X2016802Y382455D01*
X2019849Y385502D01*
X2028990D01*
X2035084Y373314D02*
Y391596D01*
X2044225D01*
X2047272Y388549D01*
Y382455D01*
X2044225Y379408D01*
X2035084D01*
X2062507D02*
X2056413D01*
X2053366Y382455D01*
Y388549D01*
X2056413Y391596D01*
X2062507D01*
X2065554Y388549D01*
Y385502D01*
X2053366D01*
X1757288Y397690D02*
Y385502D01*
X1763382Y379408D01*
X1769476Y385502D01*
Y397690D01*
X1775570Y379408D02*
X1781664D01*
X1778617D01*
Y391596D01*
X1775570D01*
X1793852D02*
X1799946D01*
X1802993Y388549D01*
Y379408D01*
X1793852D01*
X1790805Y382455D01*
X1793852Y385502D01*
X1802993D01*
X1809087Y379408D02*
X1821275Y391596D01*
X1827369Y379408D02*
Y397690D01*
X1836510D01*
X1839557Y394643D01*
Y388549D01*
X1836510Y385502D01*
X1827369D01*
X1848698Y391596D02*
X1854792D01*
X1857839Y388549D01*
Y379408D01*
X1848698D01*
X1845651Y382455D01*
X1848698Y385502D01*
X1857839D01*
X1876122Y397690D02*
Y379408D01*
X1866980D01*
X1863934Y382455D01*
Y388549D01*
X1866980Y391596D01*
X1876122D01*
X1376402Y397690D02*
Y379408D01*
X1385543D01*
X1388590Y382455D01*
Y394643D01*
X1385543Y397690D01*
X1376402D01*
X1394684Y391596D02*
Y379408D01*
Y385502D01*
X1397731Y388549D01*
X1400778Y391596D01*
X1403825D01*
X1412966Y379408D02*
X1419060D01*
X1416013D01*
Y391596D01*
X1412966D01*
X1428201Y379408D02*
X1434295D01*
X1431248D01*
Y397690D01*
X1428201D01*
X1443436Y379408D02*
X1449530D01*
X1446483D01*
Y397690D01*
X1443436D01*
X1476954D02*
Y379408D01*
X1489142D01*
X1498283Y391596D02*
X1504377D01*
X1507424Y388549D01*
Y379408D01*
X1498283D01*
X1495236Y382455D01*
X1498283Y385502D01*
X1507424D01*
X1513518Y391596D02*
Y382455D01*
X1516565Y379408D01*
X1525706D01*
Y376361D01*
X1522659Y373314D01*
X1519612D01*
X1525706Y379408D02*
Y391596D01*
X1540941Y379408D02*
X1534847D01*
X1531800Y382455D01*
Y388549D01*
X1534847Y391596D01*
X1540941D01*
X1543988Y388549D01*
Y385502D01*
X1531800D01*
X1550082Y391596D02*
Y379408D01*
Y385502D01*
X1553129Y388549D01*
X1556176Y391596D01*
X1559223D01*
X1586646Y379408D02*
Y397690D01*
X1595787D01*
X1598834Y394643D01*
Y388549D01*
X1595787Y385502D01*
X1586646D01*
X1607975Y391596D02*
X1614069D01*
X1617116Y388549D01*
Y379408D01*
X1607975D01*
X1604928Y382455D01*
X1607975Y385502D01*
X1617116D01*
X1623210Y379408D02*
X1629304D01*
X1626257D01*
Y391596D01*
X1623210D01*
X1638445D02*
Y379408D01*
Y385502D01*
X1641492Y388549D01*
X1644539Y391596D01*
X1647586D01*
X1190016Y397690D02*
Y379408D01*
Y388549D01*
X1202205D01*
Y397690D01*
Y379408D01*
X1211346D02*
X1217440D01*
X1220487Y382455D01*
Y388549D01*
X1217440Y391596D01*
X1211346D01*
X1208298Y388549D01*
Y382455D01*
X1211346Y379408D01*
X1226581D02*
X1232675D01*
X1229628D01*
Y397690D01*
X1226581D01*
X1250957Y379408D02*
X1244863D01*
X1241816Y382455D01*
Y388549D01*
X1244863Y391596D01*
X1250957D01*
X1254004Y388549D01*
Y385502D01*
X1241816D01*
X1278380Y397690D02*
X1290568D01*
X1284474D01*
Y379408D01*
X1296662Y391596D02*
Y382455D01*
X1299709Y379408D01*
X1308850D01*
Y376361D01*
X1305803Y373314D01*
X1302756D01*
X1308850Y379408D02*
Y391596D01*
X1314944Y373314D02*
Y391596D01*
X1324085D01*
X1327132Y388549D01*
Y382455D01*
X1324085Y379408D01*
X1314944D01*
X1342367D02*
X1336273D01*
X1333226Y382455D01*
Y388549D01*
X1336273Y391596D01*
X1342367D01*
X1345414Y388549D01*
Y385502D01*
X1333226D01*
X1061524Y379408D02*
Y397690D01*
X1070665D01*
X1073712Y394643D01*
Y388549D01*
X1070665Y385502D01*
X1061524D01*
X1079806Y379408D02*
X1085900D01*
X1082853D01*
Y397690D01*
X1079806D01*
X1098088Y391596D02*
X1104182D01*
X1107229Y388549D01*
Y379408D01*
X1098088D01*
X1095041Y382455D01*
X1098088Y385502D01*
X1107229D01*
X1116370Y394643D02*
Y391596D01*
X1113323D01*
X1119417D01*
X1116370D01*
Y382455D01*
X1119417Y379408D01*
X1137699D02*
X1131605D01*
X1128558Y382455D01*
Y388549D01*
X1131605Y391596D01*
X1137699D01*
X1140746Y388549D01*
Y385502D01*
X1128558D01*
X1159028Y397690D02*
Y379408D01*
X1149887D01*
X1146840Y382455D01*
Y388549D01*
X1149887Y391596D01*
X1159028D01*
X777127Y397690D02*
Y379408D01*
Y388549D01*
X789315D01*
Y397690D01*
Y379408D01*
X798456D02*
X804550D01*
X807597Y382455D01*
Y388549D01*
X804550Y391596D01*
X798456D01*
X795409Y388549D01*
Y382455D01*
X798456Y379408D01*
X813691D02*
X819785D01*
X816738D01*
Y397690D01*
X813691D01*
X838067Y379408D02*
X831973D01*
X828926Y382455D01*
Y388549D01*
X831973Y391596D01*
X838067D01*
X841114Y388549D01*
Y385502D01*
X828926D01*
X877678Y394643D02*
X874631Y397690D01*
X868537D01*
X865490Y394643D01*
Y391596D01*
X868537Y388549D01*
X874631D01*
X877678Y385502D01*
Y382455D01*
X874631Y379408D01*
X868537D01*
X865490Y382455D01*
X883773Y379408D02*
X889866D01*
X886820D01*
Y391596D01*
X883773D01*
X899007D02*
X911196D01*
X899007Y379408D01*
X911196D01*
X926431D02*
X920337D01*
X917290Y382455D01*
Y388549D01*
X920337Y391596D01*
X926431D01*
X929478Y388549D01*
Y385502D01*
X917290D01*
X639495Y394643D02*
X636447Y397690D01*
X630353D01*
X627306Y394643D01*
Y382455D01*
X630353Y379408D01*
X636447D01*
X639495Y382455D01*
X648635Y379408D02*
X654730D01*
X657777Y382455D01*
Y388549D01*
X654730Y391596D01*
X648635D01*
X645589Y388549D01*
Y382455D01*
X648635Y379408D01*
X663871Y391596D02*
Y382455D01*
X666918Y379408D01*
X676059D01*
Y391596D01*
X682153Y379408D02*
Y391596D01*
X691294D01*
X694341Y388549D01*
Y379408D01*
X703482Y394643D02*
Y391596D01*
X700435D01*
X706529D01*
X703482D01*
Y382455D01*
X706529Y379408D01*
X511002Y394643D02*
X507955Y397690D01*
X501861D01*
X498814Y394643D01*
Y391596D01*
X501861Y388549D01*
X507955D01*
X511002Y385502D01*
Y382455D01*
X507955Y379408D01*
X501861D01*
X498814Y382455D01*
X517096Y391596D02*
Y382455D01*
X520143Y379408D01*
X529284D01*
Y376361D01*
X526237Y373314D01*
X523190D01*
X529284Y379408D02*
Y391596D01*
X535378Y379408D02*
Y391596D01*
X538425D01*
X541472Y388549D01*
Y379408D01*
Y388549D01*
X544519Y391596D01*
X547566Y388549D01*
Y379408D01*
X553660Y397690D02*
Y379408D01*
X562801D01*
X565848Y382455D01*
Y385502D01*
Y388549D01*
X562801Y391596D01*
X553660D01*
X574989Y379408D02*
X581083D01*
X584130Y382455D01*
Y388549D01*
X581083Y391596D01*
X574989D01*
X571942Y388549D01*
Y382455D01*
X574989Y379408D01*
X590224D02*
X596318D01*
X593271D01*
Y397690D01*
X590224D01*
M02*
