M48
;Layer_Color=9474304
;FILE_FORMAT=2:4
METRIC,LZ
;TYPE=PLATED
T1F00S00C0.1500
T2F00S00C2.0000
%
T01
X095076Y065258
Y075258
Y080258
Y085258
Y090258
Y095258
Y100258
X133576Y087758
X134332Y072508
X139576Y072758
X149826Y075258
X166076Y083758
X180751Y075767
X200001Y075017
X197326Y095758
X212826Y096258
X230576Y095008
X230843Y087219
X235171Y090431
X233708Y10153
X239263Y081008
X245278Y08121
X257826Y081508
X260076Y086258
X259631Y098508
X265076Y072508
X284576Y087258
X227826Y080008
X227342Y104551
X217826Y105258
X201826Y105258
X193563Y104602
X165826Y109508
X166076Y159839
X180751Y151848
X200001Y151098
X197326Y171839
X193563Y180682
X201826Y181339
X217826Y181339
X227342Y180632
X233708Y17761
X237462Y183048
X242028Y183089
X246576Y183339
X251326Y183276
X258076Y183089
X261576Y188589
X259631Y174589
X260076Y162339
X257826Y157589
X245278Y15729
X239263Y157089
X227826Y156089
X230843Y1633
X235171Y166512
X230576Y171089
X212826Y172339
X165826Y185589
X172826Y227919
X179576Y235919
X169326Y241169
X169576Y247919
X157326Y247669
X157826Y241169
X153576Y227919
X139076Y227919
X095076Y227419
Y222419
Y217419
Y232419
Y237419
Y242419
Y247419
Y252419
Y257419
Y262419
Y267419
Y272419
Y2935
Y2985
Y3035
Y3085
Y3135
Y3185
Y3235
Y3285
Y3335
Y3385
Y3435
Y3485
X157826Y338
X169326
X169576Y324
X169326Y31725
X157826
X157326Y32375
X153576Y304
X139076Y304
X172826Y304
X179576Y312
X203576Y3025
X212826Y31725
Y3245
X217826Y3335
X227342Y332793
X233708Y329772
X237462Y33521
X242028Y33525
X246576Y3355
X251326Y335438
X258076Y33525
X261576Y34075
X259631Y32675
X263447Y320009
X257826Y30975
X245278Y309452
X239263Y30925
X227826Y30825
X23084Y315454
X235171Y318674
X230576Y32325
X201826Y3335
X192904Y334196
Y258116
X201826Y257419
X217826Y257419
X227342Y256713
X233708Y253691
X237462Y259129
X242028Y259169
X246576Y259419
X251326Y259357
X258076Y259169
X261576Y264669
X259631Y250669
X263447Y243929
X257826Y233669
X245278Y233371
X239263Y233169
X227826Y232169
X23084Y239373
X235171Y242593
X230576Y247169
X212826Y248419
Y241169
X203576Y226419
X263606Y224632
X284576Y239419
Y163339
X265076Y148589
X261576Y112508
X258076Y107008
X251326Y107196
X246576Y107258
X242028Y107008
X237462Y106968
X149826Y151339
X139576Y148839
X134332Y148589
X133576Y163839
X095076Y166339
Y161339
Y156339
Y151339
Y141339
Y115258
Y110258
Y105258
Y171339
Y176339
Y181339
Y186339
Y191339
X157826Y261919
X169326
X263606Y300712
X284576Y3155
T02
X025Y025
X433076
Y38775
X025
M30
