G04*
G04 #@! TF.GenerationSoftware,Altium Limited,Altium Designer,22.8.2 (66)*
G04*
G04 Layer_Color=8388736*
%FSLAX44Y44*%
%MOMM*%
G71*
G04*
G04 #@! TF.SameCoordinates,D1849CEB-705E-4778-8C78-DB278C0D41FE*
G04*
G04*
G04 #@! TF.FilePolarity,Positive*
G04*
G01*
G75*
%ADD10C,0.1000*%
%ADD61C,0.2540*%
D10*
X53166Y277418D02*
G03*
X50077Y274510I-91J-2999D01*
G01*
Y215510D02*
G03*
X52985Y212421I2999J-91D01*
G01*
X125954Y272041D02*
G03*
X131076Y269919I5121J5121D01*
G01*
X123227Y274768D02*
G03*
X116826Y277419I-6402J-6402D01*
G01*
X115826Y212419D02*
G03*
X122227Y215071I0J9053D01*
G01*
X130076Y219919D02*
G03*
X124954Y217798I0J-7243D01*
G01*
X130076Y219919D02*
X267076D01*
X50076Y215510D02*
Y274327D01*
X52985Y212419D02*
X115826D01*
X123227Y274768D02*
X125954Y272041D01*
X53166Y277419D02*
X116826D01*
X122227Y215071D02*
X124954Y217798D01*
X267076Y219919D02*
Y269919D01*
X131076D02*
X267076D01*
X53166Y201337D02*
G03*
X50077Y198430I-91J-2999D01*
G01*
Y139430D02*
G03*
X52985Y136340I2999J-91D01*
G01*
X125954Y195960D02*
G03*
X131076Y193839I5121J5121D01*
G01*
X123227Y198687D02*
G03*
X116826Y201339I-6402J-6402D01*
G01*
X115826Y136339D02*
G03*
X122227Y138990I0J9053D01*
G01*
X130076Y143839D02*
G03*
X124954Y141717I0J-7243D01*
G01*
X130076Y143839D02*
X267076D01*
X50076Y139430D02*
Y198246D01*
X52985Y136339D02*
X115826D01*
X123227Y198687D02*
X125954Y195960D01*
X53166Y201339D02*
X116826D01*
X122227Y138990D02*
X124954Y141717D01*
X267076Y143839D02*
Y193839D01*
X131076D02*
X267076D01*
X53166Y125257D02*
G03*
X50077Y122349I-91J-2999D01*
G01*
Y63349D02*
G03*
X52985Y60259I2999J-91D01*
G01*
X125954Y119879D02*
G03*
X131076Y117758I5121J5121D01*
G01*
X123227Y122606D02*
G03*
X116826Y125258I-6402J-6402D01*
G01*
X115826Y60258D02*
G03*
X122227Y62909I0J9053D01*
G01*
X130076Y67758D02*
G03*
X124954Y65637I0J-7243D01*
G01*
X130076Y67758D02*
X267076D01*
X50076Y63349D02*
Y122166D01*
X52985Y60258D02*
X115826D01*
X123227Y122606D02*
X125954Y119879D01*
X53166Y125258D02*
X116826D01*
X122227Y62909D02*
X124954Y65637D01*
X267076Y67758D02*
Y117758D01*
X131076D02*
X267076D01*
X53166Y353499D02*
G03*
X50077Y350591I-91J-2999D01*
G01*
Y291591D02*
G03*
X52985Y288501I2999J-91D01*
G01*
X125954Y348121D02*
G03*
X131076Y346000I5121J5121D01*
G01*
X123227Y350848D02*
G03*
X116826Y353500I-6402J-6402D01*
G01*
X115826Y288500D02*
G03*
X122227Y291152I0J9053D01*
G01*
X130076Y296000D02*
G03*
X124954Y293879I0J-7243D01*
G01*
X130076Y296000D02*
X267076D01*
X50076Y291591D02*
Y350408D01*
X52985Y288500D02*
X115826D01*
X123227Y350848D02*
X125954Y348121D01*
X53166Y353500D02*
X116826D01*
X122227Y291152D02*
X124954Y293879D01*
X267076Y296000D02*
Y346000D01*
X131076D02*
X267076D01*
D61*
X94697Y30486D02*
X92157Y33025D01*
X87079D01*
X84540Y30486D01*
Y27947D01*
X87079Y25408D01*
X92157D01*
X94697Y22868D01*
Y20329D01*
X92157Y17790D01*
X87079D01*
X84540Y20329D01*
X99775Y33025D02*
X109932D01*
X104853D01*
Y17790D01*
X115010Y33025D02*
X120089D01*
X117549D01*
Y17790D01*
X115010D01*
X120089D01*
X137863Y33025D02*
X127706D01*
Y25408D01*
X132784D01*
X127706D01*
Y17790D01*
X153098Y33025D02*
X142941D01*
Y25408D01*
X148019D01*
X142941D01*
Y17790D01*
X168333Y33025D02*
X158176D01*
Y17790D01*
X168333D01*
X158176Y25408D02*
X163255D01*
X173411Y17790D02*
Y33025D01*
X183568Y17790D01*
Y33025D01*
X198803D02*
X188646D01*
Y17790D01*
X198803D01*
X188646Y25408D02*
X193725D01*
X203881Y17790D02*
Y33025D01*
X211499D01*
X214038Y30486D01*
Y25408D01*
X211499Y22868D01*
X203881D01*
X208960D02*
X214038Y17790D01*
X234352D02*
Y33025D01*
X241969D01*
X244508Y30486D01*
Y25408D01*
X241969Y22868D01*
X234352D01*
X249587Y33025D02*
X254665D01*
X252126D01*
Y17790D01*
X249587D01*
X254665D01*
X277518Y30486D02*
X280057Y33025D01*
X285135D01*
X287674Y30486D01*
Y20329D01*
X285135Y17790D01*
X280057D01*
X277518Y20329D01*
Y30486D01*
X292753Y17790D02*
Y20329D01*
X295292D01*
Y17790D01*
X292753D01*
X305448D02*
X310527D01*
X307988D01*
Y33025D01*
X305448Y30486D01*
X328301Y33025D02*
X318144D01*
Y25408D01*
X323223Y27947D01*
X325762D01*
X328301Y25408D01*
Y20329D01*
X325762Y17790D01*
X320684D01*
X318144Y20329D01*
X333380Y30486D02*
X335919Y33025D01*
X340997D01*
X343536Y30486D01*
Y20329D01*
X340997Y17790D01*
X335919D01*
X333380Y20329D01*
Y30486D01*
X348615Y17790D02*
Y33025D01*
X353693Y27947D01*
X358771Y33025D01*
Y17790D01*
X363850D02*
Y33025D01*
X368928Y27947D01*
X374006Y33025D01*
Y17790D01*
M02*
