G04*
G04 #@! TF.GenerationSoftware,Altium Limited,Altium Designer,22.8.2 (66)*
G04*
G04 Layer_Color=8421504*
%FSLAX44Y44*%
%MOMM*%
G71*
G04*
G04 #@! TF.SameCoordinates,D1849CEB-705E-4778-8C78-DB278C0D41FE*
G04*
G04*
G04 #@! TF.FilePolarity,Positive*
G04*
G01*
G75*
%ADD17R,0.7000X0.2500*%
%ADD18R,1.6500X2.3800*%
%ADD20R,0.6200X0.6800*%
%ADD21R,0.5500X0.6500*%
%ADD22R,0.6500X0.5500*%
%ADD23R,0.5000X0.3500*%
%ADD24R,0.3500X0.5000*%
%ADD25R,1.0500X1.0000*%
%ADD26R,0.6000X0.8000*%
%ADD27R,0.6800X0.6200*%
%ADD29R,1.4000X1.4000*%
%ADD31R,0.6200X0.6800*%
%ADD32R,0.5500X0.6500*%
%ADD33R,0.6000X0.8000*%
%ADD37C,0.2750*%
D17*
X149076Y261669D02*
D03*
Y256669D02*
D03*
Y251669D02*
D03*
Y246669D02*
D03*
Y241669D02*
D03*
X177576Y261669D02*
D03*
Y256669D02*
D03*
Y251669D02*
D03*
Y246669D02*
D03*
Y241669D02*
D03*
X149076Y337750D02*
D03*
Y332750D02*
D03*
Y327750D02*
D03*
Y322750D02*
D03*
Y317750D02*
D03*
X177576Y337750D02*
D03*
Y332750D02*
D03*
Y327750D02*
D03*
Y322750D02*
D03*
Y317750D02*
D03*
D18*
X163326Y251669D02*
D03*
Y327750D02*
D03*
D20*
X198326Y245219D02*
D03*
Y236619D02*
D03*
X188576D02*
D03*
Y245219D02*
D03*
X137576Y248469D02*
D03*
Y239869D02*
D03*
Y324550D02*
D03*
Y315950D02*
D03*
D21*
X188326Y254919D02*
D03*
Y263419D02*
D03*
D22*
X198576Y262169D02*
D03*
X207076D02*
D03*
X217576D02*
D03*
X226076D02*
D03*
X198576Y186089D02*
D03*
X207076D02*
D03*
X217576D02*
D03*
X226076D02*
D03*
X198576Y110008D02*
D03*
X207076D02*
D03*
X217576D02*
D03*
X226076D02*
D03*
X198576Y338250D02*
D03*
X207076D02*
D03*
X217576D02*
D03*
X226076D02*
D03*
D23*
X223326Y242419D02*
D03*
Y247419D02*
D03*
X207326Y242419D02*
D03*
Y247419D02*
D03*
X223326Y166339D02*
D03*
Y171339D02*
D03*
X207326Y166339D02*
D03*
Y171339D02*
D03*
X223326Y90258D02*
D03*
Y95258D02*
D03*
X207326Y90258D02*
D03*
Y95258D02*
D03*
X223326Y318500D02*
D03*
Y323500D02*
D03*
X207326Y318500D02*
D03*
Y323500D02*
D03*
D24*
X217826Y252919D02*
D03*
X222826D02*
D03*
X212826D02*
D03*
Y236919D02*
D03*
X222826D02*
D03*
X217826D02*
D03*
X207826D02*
D03*
Y252919D02*
D03*
X217826Y176839D02*
D03*
X222826D02*
D03*
X212826D02*
D03*
Y160839D02*
D03*
X222826D02*
D03*
X217826D02*
D03*
X207826D02*
D03*
Y176839D02*
D03*
X217826Y100758D02*
D03*
X222826D02*
D03*
X212826D02*
D03*
Y84758D02*
D03*
X222826D02*
D03*
X217826D02*
D03*
X207826D02*
D03*
Y100758D02*
D03*
X217826Y329000D02*
D03*
X222826D02*
D03*
X212826D02*
D03*
Y313000D02*
D03*
X222826D02*
D03*
X217826D02*
D03*
X207826D02*
D03*
Y329000D02*
D03*
D25*
X139076Y227919D02*
D03*
X153576D02*
D03*
X139076Y304000D02*
D03*
X153576D02*
D03*
D26*
X179826Y227919D02*
D03*
X165826D02*
D03*
D27*
X217376Y227169D02*
D03*
X208776D02*
D03*
X198376D02*
D03*
X189776D02*
D03*
X256626Y227419D02*
D03*
X248026D02*
D03*
X228026Y227169D02*
D03*
X236626D02*
D03*
X217376Y151089D02*
D03*
X208776D02*
D03*
X256626Y151339D02*
D03*
X248026D02*
D03*
X228026Y151089D02*
D03*
X236626D02*
D03*
X217376Y75008D02*
D03*
X208776D02*
D03*
X256626Y75258D02*
D03*
X248026D02*
D03*
X228026Y75008D02*
D03*
X236626D02*
D03*
X217376Y303250D02*
D03*
X208776D02*
D03*
X198376D02*
D03*
X189776D02*
D03*
X256626Y303500D02*
D03*
X248026D02*
D03*
X228026Y303250D02*
D03*
X236626D02*
D03*
D29*
X180076Y180589D02*
D03*
Y158589D02*
D03*
X150576Y180589D02*
D03*
Y158589D02*
D03*
X180076Y104508D02*
D03*
Y82508D02*
D03*
X150576Y104508D02*
D03*
Y82508D02*
D03*
D31*
X198326Y321300D02*
D03*
Y312700D02*
D03*
X188576D02*
D03*
Y321300D02*
D03*
D32*
X188326Y331000D02*
D03*
Y339500D02*
D03*
D33*
X179826Y304000D02*
D03*
X165826D02*
D03*
D37*
X238576Y254669D02*
D03*
X246576Y238669D02*
D03*
Y242669D02*
D03*
X238576D02*
D03*
Y238669D02*
D03*
X242576D02*
D03*
Y242669D02*
D03*
X238576Y246669D02*
D03*
Y250669D02*
D03*
X242576Y246669D02*
D03*
Y250669D02*
D03*
Y254669D02*
D03*
X250576Y238669D02*
D03*
Y242669D02*
D03*
X254576Y238669D02*
D03*
Y242669D02*
D03*
Y246669D02*
D03*
X246576D02*
D03*
Y250669D02*
D03*
Y254669D02*
D03*
X250576Y246669D02*
D03*
Y250669D02*
D03*
Y254669D02*
D03*
X254576Y250669D02*
D03*
Y254669D02*
D03*
X238576Y166589D02*
D03*
Y162589D02*
D03*
X242576D02*
D03*
Y166589D02*
D03*
X238576Y170589D02*
D03*
Y174589D02*
D03*
Y178589D02*
D03*
X242576Y170589D02*
D03*
Y174589D02*
D03*
Y178589D02*
D03*
X246576Y162589D02*
D03*
X250576D02*
D03*
X246576Y166589D02*
D03*
X250576D02*
D03*
X254576Y162589D02*
D03*
Y166589D02*
D03*
Y170589D02*
D03*
X246576D02*
D03*
Y174589D02*
D03*
Y178589D02*
D03*
X250576Y170589D02*
D03*
Y174589D02*
D03*
Y178589D02*
D03*
X254576Y174589D02*
D03*
Y178589D02*
D03*
X238576Y90508D02*
D03*
Y86508D02*
D03*
X242576D02*
D03*
Y90508D02*
D03*
X238576Y94508D02*
D03*
Y98508D02*
D03*
Y102508D02*
D03*
X242576Y94508D02*
D03*
Y98508D02*
D03*
Y102508D02*
D03*
X246576Y86508D02*
D03*
X250576D02*
D03*
X246576Y90508D02*
D03*
X250576D02*
D03*
X254576Y86508D02*
D03*
Y90508D02*
D03*
Y94508D02*
D03*
X246576D02*
D03*
Y98508D02*
D03*
Y102508D02*
D03*
X250576Y94508D02*
D03*
Y98508D02*
D03*
Y102508D02*
D03*
X254576Y98508D02*
D03*
Y102508D02*
D03*
X238576Y330750D02*
D03*
X246576Y314750D02*
D03*
Y318750D02*
D03*
X238576D02*
D03*
Y314750D02*
D03*
X242576D02*
D03*
Y318750D02*
D03*
X238576Y322750D02*
D03*
Y326750D02*
D03*
X242576Y322750D02*
D03*
Y326750D02*
D03*
Y330750D02*
D03*
X250576Y314750D02*
D03*
Y318750D02*
D03*
X254576Y314750D02*
D03*
Y318750D02*
D03*
Y322750D02*
D03*
X246576D02*
D03*
Y326750D02*
D03*
Y330750D02*
D03*
X250576Y322750D02*
D03*
Y326750D02*
D03*
Y330750D02*
D03*
X254576Y326750D02*
D03*
Y330750D02*
D03*
M02*
