M48
;Layer_Color=9474304
;FILE_FORMAT=4:4
METRIC,LZ
;TYPE=PLATED
T1F00S00C0.1500
T2F00S00C2.0000
%
T01
X00094001Y00055
Y0006
Y00065
Y0007
Y00075
Y0008
Y00085
Y0009
Y00095
Y001
X00134001Y0009975
X00150251Y00098875
X00159751Y0006675
X00169751Y0006625
X00194743Y00062057
X00136251Y00062
X00232001Y001
X00262001Y001015
X00262097Y0007375
X00318501Y0007394
X00327501Y0007375
X00333501
X00348126
X00346751Y0008725
X00347251Y00093
X0033538Y00091621
X00328659Y00094093
X00305001Y001005
X00387001Y0010075
X00389001Y0009375
X00388751Y00087
X00387929Y00076875
X00375501Y0007575
X00375616Y00080248
X00416501Y0008025
X00417001Y0007375
X00428251
X00428499Y0008675
X00428251Y0009603
X00428731Y00102576
X00438005Y0008075
X00442501Y00080563
X00447001Y00080492
X00447501Y000725
X00412846Y0008675
X00407251Y000905
X00455251Y0009025
X00458001Y000965
X00453751Y0007725
X00484751Y00087
Y00217
X00455251Y0022025
X00458001Y002265
X00453751Y0020725
Y0033725
X00455251Y0035025
X00458001Y003565
X00484751Y00347
Y00477
X00455251Y0048025
X00458001Y004865
X00453751Y0046725
X00447001Y00470492
X00442501Y00470563
X00438005Y0047075
X00428499Y0047675
X00428251Y0048603
X00428731Y00492576
X00417751Y00494
X00412846Y0047675
X00407251Y004805
X00416501Y0047025
X00417001Y0046375
X00428251
X00447501Y004625
X00447001Y004955
X00387001Y0049075
X00389001Y0048375
X00388751Y00477
X00387929Y00466875
X00375501Y0046575
X00375616Y00470248
X00375751Y0049275
X00350001Y0049625
X00347251Y00483
X00346751Y0047725
X00348126Y0046375
X00333501
X00327501
X00318501Y0046394
X00328659Y00484092
X0033538Y00481621
X00305001Y004905
X00262001Y004915
X00262097Y0046375
X00232001Y0049
X00232501Y0049675
X00220751Y00498
X00175751Y0049475
X00167751Y00495
X00159751Y00498324
X00154501Y0049425
X00150251Y00488875
X00134001Y0048975
X00136251Y00452
X00159751Y0045675
X00169751Y0045625
X00194743Y00452057
X00195251Y003825
X00167001Y0037775
X00167751Y00365
X00175751Y0036475
X00159751Y00368324
X00154501Y0036425
X00150251Y00358875
X00134001Y0035975
X00135501Y00382
X00094001Y00385
Y0039
Y00375
Y0037
Y00365
Y0036
Y00355
Y0035
Y00345
Y0034
Y00335
Y0033
Y00325
Y0032
Y00315
X00136251Y00322
X00159751Y0032675
X00169751Y0032625
X00194743Y00322057
X00195251Y002525
X00167001Y0024775
X00167751Y00235
X00175751Y0023475
X00159751Y00238324
X00154501Y0023425
X00150251Y00228875
X00134001Y0022975
X00135501Y00252
X00094001Y00255
Y0026
Y00245
Y0024
Y00235
Y0023
Y00225
Y0022
Y00215
Y0021
Y00205
Y002
Y00195
Y0019
Y00185
X00136251Y00192
X00159751Y0019675
X00169751Y0019625
X00194743Y00192057
X00195251Y001225
X00167001Y0011775
X00167751Y00105
X00175751Y0010475
X00159751Y00108324
X00154501Y0010425
X00135501Y00122
X00094001Y00125
Y0013
Y00115
Y0011
Y00105
X00220751Y00108
X00232501Y0010675
X00294001Y001115
X00314001
X00326501Y00113
X00350001Y0010625
X00375751Y00109729
X00375751Y0010275
X00417751Y00104
X00430751Y00111346
X00435501Y0011125
X00447001Y001055
X00447501Y002025
X00447001Y00210492
X00442501Y00210563
X00438005Y0021075
X00428499Y0021675
X00428251Y0022603
X00428731Y00232576
X00430751Y00241346
X00435501Y0024125
X00447001Y002355
X00417751Y00234
X00412846Y0021675
X00407251Y002205
X00416501Y0021025
X00417001Y0020375
X00428251
X00387929Y00206875
X00388751Y00217
X00389001Y0022375
X00387001Y0023075
X00375751Y0023275
X00375751Y00239729
X00350001Y0023625
X00347251Y00223
X00346751Y0021725
X00348126Y0020375
X00333501
X00327501
X00318501Y0020394
X00328659Y00224093
X0033538Y00221621
X00326501Y00243
X00314001Y002415
X00305001Y002305
X00294001Y002415
X00262001Y002315
X00262097Y0020375
X00232001Y0023
X00232501Y0023675
X00220751Y00238
Y00368
X00232501Y0036675
X00232001Y0036
X00262001Y003615
X00262097Y0033375
X00318501Y0033394
X00327501Y0033375
X00333501
X00348126
X00346751Y0034725
X00347251Y00353
X0033538Y00351621
X00328659Y00354092
X00326501Y00373
X00314001Y003715
X00305001Y003605
X00294001Y003715
X00350001Y0036625
X00375751Y00369729
X00375751Y0036275
X00387001Y0036075
X00389001Y0035375
X00388751Y00347
X00387929Y00336875
X00375501Y0033575
X00375616Y00340248
X00416501Y0034025
X00417001Y0033375
X00428251
X00428499Y0034675
X00428251Y0035603
X00428731Y00362576
X00430751Y00371346
X00435501Y0037125
X00447001Y003655
X00447001Y00340492
X00442501Y00340563
X00438005Y0034075
X00447501Y003325
X00412846Y0034675
X00407251Y003505
X00417751Y00364
X00375616Y00210249
X00375501Y0020575
X00094001Y00445
Y0045
Y00455
Y0046
Y00465
Y0047
Y00475
Y0048
Y00485
Y0049
Y00495
Y005
Y00505
Y00515
Y0052
X00135501Y00512
X00167001Y0050775
X00195251Y005125
X00294001Y005015
X00314001
X00326501Y00503
X00375751Y00499729
X00430751Y00501346
X00435501Y0050125
T02
X00025Y00025
X00635
X00025357Y00555
X00635
M30
