G04*
G04 #@! TF.GenerationSoftware,Altium Limited,Altium Designer,22.8.2 (66)*
G04*
G04 Layer_Color=16711935*
%FSLAX44Y44*%
%MOMM*%
G71*
G04*
G04 #@! TF.SameCoordinates,B7D2F7D4-6D39-437B-AB94-B8173392384B*
G04*
G04*
G04 #@! TF.FilePolarity,Positive*
G04*
G01*
G75*
%ADD13C,0.2000*%
%ADD63C,0.0500*%
%ADD64C,0.0500*%
%ADD65C,0.2540*%
D13*
X274832Y443665D02*
X273499Y444997D01*
X270833D01*
X269500Y443665D01*
Y438333D01*
X270833Y437000D01*
X273499D01*
X274832Y438333D01*
X277497Y444997D02*
Y438333D01*
X278830Y437000D01*
X281496D01*
X282829Y438333D01*
Y444997D01*
X285495D02*
X290826D01*
X288161D01*
Y437000D01*
X293492Y440999D02*
X298824D01*
X305488Y444997D02*
X302823D01*
X301490Y443665D01*
Y438333D01*
X302823Y437000D01*
X305488D01*
X306821Y438333D01*
Y443665D01*
X305488Y444997D01*
X309487D02*
Y438333D01*
X310820Y437000D01*
X313486D01*
X314819Y438333D01*
Y444997D01*
X317484D02*
X322816D01*
X320150D01*
Y437000D01*
X274832Y523665D02*
X273499Y524997D01*
X270833D01*
X269500Y523665D01*
Y518333D01*
X270833Y517000D01*
X273499D01*
X274832Y518333D01*
X277497Y524997D02*
Y518333D01*
X278830Y517000D01*
X281496D01*
X282829Y518333D01*
Y524997D01*
X285495D02*
X290826D01*
X288161D01*
Y517000D01*
X293492Y520999D02*
X298824D01*
X305488Y524997D02*
X302823D01*
X301490Y523665D01*
Y518333D01*
X302823Y517000D01*
X305488D01*
X306821Y518333D01*
Y523665D01*
X305488Y524997D01*
X309487D02*
Y518333D01*
X310820Y517000D01*
X313486D01*
X314819Y518333D01*
Y524997D01*
X317484D02*
X322816D01*
X320150D01*
Y517000D01*
X274832Y313664D02*
X273499Y314997D01*
X270833D01*
X269500Y313664D01*
Y308333D01*
X270833Y307000D01*
X273499D01*
X274832Y308333D01*
X277497Y314997D02*
Y308333D01*
X278830Y307000D01*
X281496D01*
X282829Y308333D01*
Y314997D01*
X285495D02*
X290826D01*
X288161D01*
Y307000D01*
X293492Y310999D02*
X298824D01*
X305488Y314997D02*
X302823D01*
X301490Y313664D01*
Y308333D01*
X302823Y307000D01*
X305488D01*
X306821Y308333D01*
Y313664D01*
X305488Y314997D01*
X309487D02*
Y308333D01*
X310820Y307000D01*
X313486D01*
X314819Y308333D01*
Y314997D01*
X317484D02*
X322816D01*
X320150D01*
Y307000D01*
X274832Y393665D02*
X273499Y394997D01*
X270833D01*
X269500Y393665D01*
Y388333D01*
X270833Y387000D01*
X273499D01*
X274832Y388333D01*
X277497Y394997D02*
Y388333D01*
X278830Y387000D01*
X281496D01*
X282829Y388333D01*
Y394997D01*
X285495D02*
X290826D01*
X288161D01*
Y387000D01*
X293492Y390999D02*
X298824D01*
X305488Y394997D02*
X302823D01*
X301490Y393665D01*
Y388333D01*
X302823Y387000D01*
X305488D01*
X306821Y388333D01*
Y393665D01*
X305488Y394997D01*
X309487D02*
Y388333D01*
X310820Y387000D01*
X313486D01*
X314819Y388333D01*
Y394997D01*
X317484D02*
X322816D01*
X320150D01*
Y387000D01*
X274832Y183664D02*
X273499Y184997D01*
X270833D01*
X269500Y183664D01*
Y178333D01*
X270833Y177000D01*
X273499D01*
X274832Y178333D01*
X277497Y184997D02*
Y178333D01*
X278830Y177000D01*
X281496D01*
X282829Y178333D01*
Y184997D01*
X285495D02*
X290826D01*
X288161D01*
Y177000D01*
X293492Y180999D02*
X298824D01*
X305488Y184997D02*
X302823D01*
X301490Y183664D01*
Y178333D01*
X302823Y177000D01*
X305488D01*
X306821Y178333D01*
Y183664D01*
X305488Y184997D01*
X309487D02*
Y178333D01*
X310820Y177000D01*
X313486D01*
X314819Y178333D01*
Y184997D01*
X317484D02*
X322816D01*
X320150D01*
Y177000D01*
X274832Y263664D02*
X273499Y264997D01*
X270833D01*
X269500Y263664D01*
Y258333D01*
X270833Y257000D01*
X273499D01*
X274832Y258333D01*
X277497Y264997D02*
Y258333D01*
X278830Y257000D01*
X281496D01*
X282829Y258333D01*
Y264997D01*
X285495D02*
X290826D01*
X288161D01*
Y257000D01*
X293492Y260999D02*
X298824D01*
X305488Y264997D02*
X302823D01*
X301490Y263664D01*
Y258333D01*
X302823Y257000D01*
X305488D01*
X306821Y258333D01*
Y263664D01*
X305488Y264997D01*
X309487D02*
Y258333D01*
X310820Y257000D01*
X313486D01*
X314819Y258333D01*
Y264997D01*
X317484D02*
X322816D01*
X320150D01*
Y257000D01*
X274832Y133665D02*
X273499Y134997D01*
X270833D01*
X269500Y133665D01*
Y128333D01*
X270833Y127000D01*
X273499D01*
X274832Y128333D01*
X277497Y134997D02*
Y128333D01*
X278830Y127000D01*
X281496D01*
X282829Y128333D01*
Y134997D01*
X285495D02*
X290826D01*
X288161D01*
Y127000D01*
X293492Y130999D02*
X298824D01*
X305488Y134997D02*
X302823D01*
X301490Y133665D01*
Y128333D01*
X302823Y127000D01*
X305488D01*
X306821Y128333D01*
Y133665D01*
X305488Y134997D01*
X309487D02*
Y128333D01*
X310820Y127000D01*
X313486D01*
X314819Y128333D01*
Y134997D01*
X317484D02*
X322816D01*
X320150D01*
Y127000D01*
X274832Y53664D02*
X273499Y54997D01*
X270833D01*
X269500Y53664D01*
Y48333D01*
X270833Y47000D01*
X273499D01*
X274832Y48333D01*
X277497Y54997D02*
Y48333D01*
X278830Y47000D01*
X281496D01*
X282829Y48333D01*
Y54997D01*
X285495D02*
X290826D01*
X288161D01*
Y47000D01*
X293492Y50999D02*
X298824D01*
X305488Y54997D02*
X302823D01*
X301490Y53664D01*
Y48333D01*
X302823Y47000D01*
X305488D01*
X306821Y48333D01*
Y53664D01*
X305488Y54997D01*
X309487D02*
Y48333D01*
X310820Y47000D01*
X313486D01*
X314819Y48333D01*
Y54997D01*
X317484D02*
X322816D01*
X320150D01*
Y47000D01*
D63*
X220060Y509621D02*
G03*
X225182Y507500I5121J5121D01*
G01*
X214833Y514848D02*
G03*
X208432Y517500I-6402J-6402D01*
G01*
X208250Y447500D02*
G03*
X214652Y450152I0J9053D01*
G01*
X225000Y457500D02*
G03*
X219879Y455379I0J-7243D01*
G01*
X130068Y447500D02*
G03*
X122813Y444495I0J-10261D01*
G01*
X114068Y440000D02*
G03*
X121324Y443005I0J10261D01*
G01*
X121323Y443005D02*
G03*
X121324Y443005I0J0D01*
G01*
X121324Y443005D02*
G03*
X121324Y443006I0J0D01*
G01*
X122813Y444494D02*
G03*
X122813Y444495I0J0D01*
G01*
X122995Y520505D02*
G03*
X122994Y520506I0J0D01*
G01*
X121506Y521994D02*
G03*
X121505Y521995I0J0D01*
G01*
X121505Y521995D02*
G03*
X121505Y521995I0J0D01*
G01*
X121505Y521995D02*
G03*
X114250Y525000I-7255J-7255D01*
G01*
X122995Y520505D02*
G03*
X130250Y517500I7255J7255D01*
G01*
X50001Y443091D02*
G03*
X52909Y440001I2999J-91D01*
G01*
X53091Y524999D02*
G03*
X50001Y522091I-91J-2999D01*
G01*
X40000Y440000D02*
G03*
X50000Y430000I10000J0D01*
G01*
X610000D02*
G03*
X620000Y440000I0J10000D01*
G01*
Y525000D02*
G03*
X610000Y535000I-10000J0D01*
G01*
X50000D02*
G03*
X40000Y525000I0J-10000D01*
G01*
X52909Y524999D02*
G03*
X50001Y521909I91J-2999D01*
G01*
X122813Y520505D02*
G03*
X122813Y520506I0J0D01*
G01*
X121324Y521994D02*
G03*
X121324Y521995I0J0D01*
G01*
X121324Y521995D02*
G03*
X121323Y521995I0J0D01*
G01*
X121324Y521995D02*
G03*
X114068Y525000I-7255J-7255D01*
G01*
X122813Y520505D02*
G03*
X130068Y517500I7255J7255D01*
G01*
X219879Y509621D02*
G03*
X225000Y507500I5121J5121D01*
G01*
X214652Y514848D02*
G03*
X208250Y517500I-6402J-6402D01*
G01*
X220060Y379621D02*
G03*
X225182Y377500I5121J5121D01*
G01*
X214833Y384848D02*
G03*
X208432Y387500I-6402J-6402D01*
G01*
X208250Y317500D02*
G03*
X214652Y320152I0J9053D01*
G01*
X225000Y327500D02*
G03*
X219879Y325379I0J-7243D01*
G01*
X130068Y317500D02*
G03*
X122813Y314495I0J-10261D01*
G01*
X114068Y310000D02*
G03*
X121324Y313005I0J10261D01*
G01*
X121323Y313005D02*
G03*
X121324Y313006I0J0D01*
G01*
X121324Y313005D02*
G03*
X121324Y313006I0J0D01*
G01*
X122813Y314494D02*
G03*
X122813Y314495I0J0D01*
G01*
X122995Y390505D02*
G03*
X122994Y390506I0J0D01*
G01*
X121506Y391994D02*
G03*
X121505Y391995I0J0D01*
G01*
X121505Y391995D02*
G03*
X121505Y391995I0J0D01*
G01*
X121505Y391995D02*
G03*
X114250Y395000I-7255J-7255D01*
G01*
X122995Y390505D02*
G03*
X130250Y387500I7255J7255D01*
G01*
X50001Y313091D02*
G03*
X52909Y310001I2999J-91D01*
G01*
X53091Y394999D02*
G03*
X50001Y392091I-91J-2999D01*
G01*
X40000Y310000D02*
G03*
X50000Y300000I10000J0D01*
G01*
X610000D02*
G03*
X620000Y310000I0J10000D01*
G01*
Y395000D02*
G03*
X610000Y405000I-10000J0D01*
G01*
X50000D02*
G03*
X40000Y395000I0J-10000D01*
G01*
X52909Y394999D02*
G03*
X50001Y391909I91J-2999D01*
G01*
X122813Y390505D02*
G03*
X122813Y390506I0J0D01*
G01*
X121324Y391994D02*
G03*
X121324Y391995I0J0D01*
G01*
X121324Y391995D02*
G03*
X121323Y391995I0J0D01*
G01*
X121324Y391995D02*
G03*
X114068Y395000I-7255J-7255D01*
G01*
X122813Y390505D02*
G03*
X130068Y387500I7255J7255D01*
G01*
X219879Y379621D02*
G03*
X225000Y377500I5121J5121D01*
G01*
X214652Y384848D02*
G03*
X208250Y387500I-6402J-6402D01*
G01*
X220060Y249621D02*
G03*
X225182Y247500I5121J5121D01*
G01*
X214833Y254848D02*
G03*
X208432Y257500I-6402J-6402D01*
G01*
X208250Y187500D02*
G03*
X214652Y190152I0J9053D01*
G01*
X225000Y197500D02*
G03*
X219879Y195379I0J-7243D01*
G01*
X130068Y187500D02*
G03*
X122813Y184495I0J-10261D01*
G01*
X114068Y180000D02*
G03*
X121324Y183005I0J10261D01*
G01*
X121323Y183005D02*
G03*
X121324Y183006I0J0D01*
G01*
X121324Y183006D02*
G03*
X121324Y183006I0J0D01*
G01*
X122813Y184494D02*
G03*
X122813Y184495I0J0D01*
G01*
X122995Y260505D02*
G03*
X122994Y260506I0J0D01*
G01*
X121506Y261994D02*
G03*
X121505Y261994I0J0D01*
G01*
X121505Y261994D02*
G03*
X121505Y261995I0J0D01*
G01*
X121505Y261995D02*
G03*
X114250Y265000I-7255J-7255D01*
G01*
X122995Y260505D02*
G03*
X130250Y257500I7255J7255D01*
G01*
X50001Y183091D02*
G03*
X52909Y180001I2999J-91D01*
G01*
X53091Y264999D02*
G03*
X50001Y262091I-91J-2999D01*
G01*
X40000Y180000D02*
G03*
X50000Y170000I10000J0D01*
G01*
X610000D02*
G03*
X620000Y180000I0J10000D01*
G01*
Y265000D02*
G03*
X610000Y275000I-10000J0D01*
G01*
X50000D02*
G03*
X40000Y265000I0J-10000D01*
G01*
X52909Y264999D02*
G03*
X50001Y261909I91J-2999D01*
G01*
X122813Y260505D02*
G03*
X122813Y260506I0J0D01*
G01*
X121324Y261994D02*
G03*
X121324Y261994I0J0D01*
G01*
X121324Y261994D02*
G03*
X121323Y261995I0J0D01*
G01*
X121324Y261995D02*
G03*
X114068Y265000I-7255J-7255D01*
G01*
X122813Y260505D02*
G03*
X130068Y257500I7255J7255D01*
G01*
X219879Y249621D02*
G03*
X225000Y247500I5121J5121D01*
G01*
X214652Y254848D02*
G03*
X208250Y257500I-6402J-6402D01*
G01*
X214652Y124848D02*
G03*
X208250Y127500I-6402J-6402D01*
G01*
X219879Y119621D02*
G03*
X225000Y117500I5121J5121D01*
G01*
X122813Y130505D02*
G03*
X130068Y127500I7255J7255D01*
G01*
X121324Y131995D02*
G03*
X114068Y135000I-7255J-7255D01*
G01*
X121324Y131994D02*
G03*
X121323Y131995I0J0D01*
G01*
X121324Y131994D02*
G03*
X121324Y131995I0J0D01*
G01*
X122813Y130505D02*
G03*
X122813Y130506I0J0D01*
G01*
X52909Y134999D02*
G03*
X50001Y131909I91J-2999D01*
G01*
X50000Y145000D02*
G03*
X40000Y135000I0J-10000D01*
G01*
X620000D02*
G03*
X610000Y145000I-10000J0D01*
G01*
X22699Y-0D02*
G03*
X22698Y0I0J0D01*
G01*
X610000Y40000D02*
G03*
X620000Y50000I0J10000D01*
G01*
X40000D02*
G03*
X50000Y40000I10000J0D01*
G01*
X53091Y134999D02*
G03*
X50001Y132091I-91J-2999D01*
G01*
Y53091D02*
G03*
X52909Y50001I2999J-91D01*
G01*
X122995Y130505D02*
G03*
X130250Y127500I7255J7255D01*
G01*
X121505Y131995D02*
G03*
X114250Y135000I-7255J-7255D01*
G01*
X121505Y131994D02*
G03*
X121505Y131995I0J0D01*
G01*
X121506Y131994D02*
G03*
X121505Y131995I0J0D01*
G01*
X122995Y130505D02*
G03*
X122994Y130506I0J0D01*
G01*
X122813Y54494D02*
G03*
X122813Y54495I0J0D01*
G01*
X121324Y53005D02*
G03*
X121324Y53006I0J0D01*
G01*
X121323Y53005D02*
G03*
X121324Y53005I0J0D01*
G01*
X114068Y50000D02*
G03*
X121324Y53005I0J10261D01*
G01*
X130068Y57500D02*
G03*
X122813Y54495I0J-10261D01*
G01*
X225000Y67500D02*
G03*
X219879Y65379I0J-7243D01*
G01*
X208250Y57500D02*
G03*
X214652Y60152I0J9053D01*
G01*
X214833Y124848D02*
G03*
X208432Y127500I-6402J-6402D01*
G01*
X220060Y119621D02*
G03*
X225182Y117500I5121J5121D01*
G01*
X130250Y517500D02*
X208432D01*
X214833Y514848D02*
X220060Y509621D01*
X214652Y450152D02*
X219879Y455379D01*
X52909Y440000D02*
X114068D01*
X130068Y447500D02*
X208250D01*
X121324Y443006D02*
X122812Y444495D01*
X121506Y521994D02*
X122994Y520505D01*
X50000Y443091D02*
Y450000D01*
X53091Y525000D02*
X114250D01*
X225000Y457500D02*
X608000Y457500D01*
X50000Y430000D02*
X170000D01*
X610000D01*
X608000Y465000D02*
X620000D01*
X40000Y440000D02*
Y450000D01*
X50000D01*
X620000Y460000D02*
X620000D01*
Y440000D02*
Y460000D01*
X620000D02*
Y465000D01*
X608000Y457500D02*
Y465000D01*
X225182Y507500D02*
X608000D01*
Y500000D02*
Y507500D01*
X620000Y500000D02*
Y505000D01*
X620000D02*
Y525000D01*
X620000Y505000D02*
X620000D01*
X40000Y515000D02*
X50000D01*
X40000D02*
Y525000D01*
X170000Y535000D02*
X610000D01*
X50000D02*
X170000D01*
X225000Y507500D02*
X608000Y507500D01*
X50000Y515000D02*
Y521909D01*
X121324Y521994D02*
X122812Y520505D01*
X130068Y517500D02*
X208250D01*
X52909Y525000D02*
X114068D01*
X214652Y514848D02*
X219879Y509621D01*
X608000Y500000D02*
X620000D01*
X130250Y387500D02*
X208432D01*
X214833Y384848D02*
X220060Y379621D01*
X214652Y320152D02*
X219879Y325379D01*
X52909Y310000D02*
X114068D01*
X130068Y317500D02*
X208250D01*
X121324Y313006D02*
X122812Y314494D01*
X121506Y391994D02*
X122994Y390505D01*
X50000Y313091D02*
Y320000D01*
X53091Y395000D02*
X114250D01*
X225000Y327500D02*
X608000Y327500D01*
X50000Y300000D02*
X170000D01*
X610000D01*
X608000Y335000D02*
X620000D01*
X40000Y310000D02*
Y320000D01*
X50000D01*
X620000Y330000D02*
X620000D01*
Y310000D02*
Y330000D01*
X620000D02*
Y335000D01*
X608000Y327500D02*
Y335000D01*
X225182Y377500D02*
X608000D01*
Y370000D02*
Y377500D01*
X620000Y370000D02*
Y375000D01*
X620000D02*
Y395000D01*
X620000Y375000D02*
X620000D01*
X40000Y385000D02*
X50000D01*
X40000D02*
Y395000D01*
X170000Y405000D02*
X610000D01*
X50000D02*
X170000D01*
X225000Y377500D02*
X608000Y377500D01*
X50000Y385000D02*
Y391909D01*
X121324Y391994D02*
X122812Y390505D01*
X130068Y387500D02*
X208250D01*
X52909Y395000D02*
X114068D01*
X214652Y384848D02*
X219879Y379621D01*
X608000Y370000D02*
X620000D01*
X130250Y257500D02*
X208432D01*
X214833Y254848D02*
X220060Y249621D01*
X214652Y190152D02*
X219879Y195379D01*
X52909Y180000D02*
X114068D01*
X130068Y187500D02*
X208250D01*
X121324Y183006D02*
X122812Y184494D01*
X121506Y261994D02*
X122994Y260506D01*
X50000Y183091D02*
Y190000D01*
X53091Y265000D02*
X114250D01*
X225000Y197500D02*
X608000Y197500D01*
X50000Y170000D02*
X170000D01*
X610000D01*
X608000Y205000D02*
X620000D01*
X40000Y180000D02*
Y190000D01*
X50000D01*
X620000Y200000D02*
X620000D01*
Y180000D02*
Y200000D01*
X620000D02*
Y205000D01*
X608000Y197500D02*
Y205000D01*
X225182Y247500D02*
X608000D01*
Y240000D02*
Y247500D01*
X620000Y240000D02*
Y245000D01*
X620000D02*
Y265000D01*
X620000Y245000D02*
X620000D01*
X40000Y255000D02*
X50000D01*
X40000D02*
Y265000D01*
X170000Y275000D02*
X610000D01*
X50000D02*
X170000D01*
X225000Y247500D02*
X608000Y247500D01*
X50000Y255000D02*
Y261909D01*
X121324Y261994D02*
X122812Y260506D01*
X130068Y257500D02*
X208250D01*
X52909Y265000D02*
X114068D01*
X214652Y254848D02*
X219879Y249621D01*
X608000Y240000D02*
X620000D01*
X608000Y110000D02*
X620000D01*
X214652Y124848D02*
X219879Y119621D01*
X52909Y135000D02*
X114068D01*
X130068Y127500D02*
X208250D01*
X121324Y131994D02*
X122812Y130506D01*
X50000Y125000D02*
Y131909D01*
X225000Y117500D02*
X608000Y117500D01*
X50000Y145000D02*
X170000D01*
X610000D01*
X40000Y125000D02*
Y135000D01*
Y125000D02*
X50000D01*
X620000Y115000D02*
X620000D01*
Y135000D01*
X620000Y110000D02*
Y115000D01*
X608000Y110000D02*
Y117500D01*
X225182Y117500D02*
X608000D01*
Y67500D02*
Y75000D01*
X620000Y70000D02*
Y75000D01*
X620000Y50000D02*
Y70000D01*
X620000D02*
X620000D01*
X40000Y60000D02*
X50000D01*
X40000Y50000D02*
Y60000D01*
X608000Y75000D02*
X620000D01*
X170000Y40000D02*
X610000D01*
X50000D02*
X170000D01*
X225000Y67500D02*
X608000Y67500D01*
X53091Y135000D02*
X114250D01*
X50000Y53091D02*
Y60000D01*
X121506Y131994D02*
X122994Y130506D01*
X121324Y53006D02*
X122812Y54495D01*
X130068Y57500D02*
X208250D01*
X52909Y50000D02*
X114068D01*
X214652Y60152D02*
X219879Y65379D01*
X214833Y124848D02*
X220060Y119621D01*
X130250Y127500D02*
X208432D01*
X220062Y509621D02*
G03*
X225183Y507500I5121J5121D01*
G01*
X214835Y514848D02*
G03*
X208433Y517500I-6402J-6402D01*
G01*
X208251Y447500D02*
G03*
X214653Y450152I0J9053D01*
G01*
X225001Y457500D02*
G03*
X219880Y455379I0J-7243D01*
G01*
X130070Y447500D02*
G03*
X122814Y444495I0J-10261D01*
G01*
X114070Y440000D02*
G03*
X121325Y443005I0J10261D01*
G01*
X121325Y443005D02*
G03*
X121325Y443006I0J0D01*
G01*
X121325Y443005D02*
G03*
X121325Y443006I0J0D01*
G01*
X122814Y444494D02*
G03*
X122814Y444495I0J0D01*
G01*
X122996Y520505D02*
G03*
X122996Y520506I0J0D01*
G01*
X121507Y521994D02*
G03*
X121507Y521995I0J0D01*
G01*
X121507Y521995D02*
G03*
X121507Y521995I0J0D01*
G01*
X121507Y521995D02*
G03*
X114251Y525000I-7255J-7255D01*
G01*
X122996Y520505D02*
G03*
X130251Y517500I7255J7255D01*
G01*
X50003Y443091D02*
G03*
X52910Y440001I2999J-91D01*
G01*
X53092Y524999D02*
G03*
X50003Y522091I-91J-2999D01*
G01*
X608001Y457500D02*
Y507500D01*
Y507500D01*
X225183D02*
X608001D01*
X130251Y517500D02*
X208433D01*
X214835Y514848D02*
X220062Y509621D01*
X214653Y450152D02*
X219880Y455379D01*
X52910Y440000D02*
X114070D01*
X130070Y447500D02*
X208251D01*
X121325Y443006D02*
X122814Y444495D01*
X121507Y521994D02*
X122996Y520505D01*
X50001Y443091D02*
Y522091D01*
X53092Y525000D02*
X114251D01*
X225001Y457500D02*
X608001Y457500D01*
X220062Y379621D02*
G03*
X225183Y377500I5121J5121D01*
G01*
X214835Y384848D02*
G03*
X208433Y387500I-6402J-6402D01*
G01*
X208251Y317500D02*
G03*
X214653Y320152I0J9053D01*
G01*
X225001Y327500D02*
G03*
X219880Y325379I0J-7243D01*
G01*
X130070Y317500D02*
G03*
X122814Y314495I0J-10261D01*
G01*
X114070Y310000D02*
G03*
X121325Y313005I0J10261D01*
G01*
X121325Y313005D02*
G03*
X121325Y313006I0J0D01*
G01*
X121325Y313006D02*
G03*
X121325Y313006I0J0D01*
G01*
X122814Y314494D02*
G03*
X122814Y314495I0J0D01*
G01*
X122996Y390505D02*
G03*
X122996Y390506I0J0D01*
G01*
X121507Y391994D02*
G03*
X121507Y391995I0J0D01*
G01*
X121507Y391995D02*
G03*
X121507Y391995I0J0D01*
G01*
X121507Y391995D02*
G03*
X114251Y395000I-7255J-7255D01*
G01*
X122996Y390505D02*
G03*
X130251Y387500I7255J7255D01*
G01*
X50003Y313091D02*
G03*
X52910Y310001I2999J-91D01*
G01*
X53092Y394999D02*
G03*
X50003Y392091I-91J-2999D01*
G01*
X608001Y327500D02*
Y377500D01*
Y377500D01*
X225183D02*
X608001D01*
X130251Y387500D02*
X208433D01*
X214835Y384848D02*
X220062Y379621D01*
X214653Y320152D02*
X219880Y325379D01*
X52910Y310000D02*
X114070D01*
X130070Y317500D02*
X208251D01*
X121325Y313006D02*
X122814Y314494D01*
X121507Y391994D02*
X122996Y390505D01*
X50001Y313091D02*
Y392091D01*
X53092Y395000D02*
X114251D01*
X225001Y327500D02*
X608001Y327500D01*
X220062Y249621D02*
G03*
X225183Y247500I5121J5121D01*
G01*
X214835Y254848D02*
G03*
X208433Y257500I-6402J-6402D01*
G01*
X208251Y187500D02*
G03*
X214653Y190152I0J9053D01*
G01*
X225001Y197500D02*
G03*
X219880Y195379I0J-7243D01*
G01*
X130070Y187500D02*
G03*
X122814Y184495I0J-10261D01*
G01*
X114070Y180000D02*
G03*
X121325Y183005I0J10261D01*
G01*
X121325Y183005D02*
G03*
X121325Y183006I0J0D01*
G01*
X121325Y183006D02*
G03*
X121325Y183006I0J0D01*
G01*
X122814Y184494D02*
G03*
X122814Y184495I0J0D01*
G01*
X122996Y260505D02*
G03*
X122996Y260506I0J0D01*
G01*
X121507Y261994D02*
G03*
X121507Y261995I0J0D01*
G01*
X121507Y261994D02*
G03*
X121507Y261995I0J0D01*
G01*
X121507Y261995D02*
G03*
X114251Y265000I-7255J-7255D01*
G01*
X122996Y260505D02*
G03*
X130251Y257500I7255J7255D01*
G01*
X50003Y183091D02*
G03*
X52910Y180001I2999J-91D01*
G01*
X53092Y264999D02*
G03*
X50003Y262091I-91J-2999D01*
G01*
X608001Y197500D02*
Y247500D01*
Y247500D01*
X225183D02*
X608001D01*
X130251Y257500D02*
X208433D01*
X214835Y254848D02*
X220062Y249621D01*
X214653Y190152D02*
X219880Y195379D01*
X52910Y180000D02*
X114070D01*
X130070Y187500D02*
X208251D01*
X121325Y183006D02*
X122814Y184495D01*
X121507Y261994D02*
X122996Y260506D01*
X50001Y183091D02*
Y262091D01*
X53092Y265000D02*
X114251D01*
X225001Y197500D02*
X608001Y197500D01*
X220062Y119621D02*
G03*
X225183Y117500I5121J5121D01*
G01*
X214835Y124848D02*
G03*
X208433Y127500I-6402J-6402D01*
G01*
X208251Y57500D02*
G03*
X214653Y60152I0J9053D01*
G01*
X225001Y67500D02*
G03*
X219880Y65379I0J-7243D01*
G01*
X130070Y57500D02*
G03*
X122814Y54495I0J-10261D01*
G01*
X114070Y50000D02*
G03*
X121325Y53005I0J10261D01*
G01*
X121325Y53005D02*
G03*
X121325Y53006I0J0D01*
G01*
X121325Y53005D02*
G03*
X121325Y53006I0J0D01*
G01*
X122814Y54494D02*
G03*
X122814Y54495I0J0D01*
G01*
X122996Y130505D02*
G03*
X122996Y130506I0J0D01*
G01*
X121507Y131994D02*
G03*
X121507Y131995I0J0D01*
G01*
X121507Y131994D02*
G03*
X121507Y131995I0J0D01*
G01*
X121507Y131995D02*
G03*
X114251Y135000I-7255J-7255D01*
G01*
X122996Y130505D02*
G03*
X130251Y127500I7255J7255D01*
G01*
X50003Y53091D02*
G03*
X52910Y50001I2999J-91D01*
G01*
X53092Y134999D02*
G03*
X50003Y132091I-91J-2999D01*
G01*
X608001Y67500D02*
Y117500D01*
Y117500D01*
X225183D02*
X608001D01*
X130251Y127500D02*
X208433D01*
X214835Y124848D02*
X220062Y119621D01*
X214653Y60152D02*
X219880Y65379D01*
X52910Y50000D02*
X114070D01*
X130070Y57500D02*
X208251D01*
X121325Y53006D02*
X122814Y54495D01*
X121507Y131994D02*
X122996Y130506D01*
X50001Y53091D02*
Y132091D01*
X53092Y135000D02*
X114251D01*
X225001Y67500D02*
X608001Y67500D01*
D64*
X608000Y507500D02*
D03*
Y377500D02*
D03*
Y247500D02*
D03*
Y117500D02*
D03*
X608001Y507500D02*
D03*
Y377500D02*
D03*
Y247500D02*
D03*
Y117500D02*
D03*
D65*
X22699Y580000D02*
G03*
X0Y557302I0J-22698D01*
G01*
X660000Y557302D02*
G03*
X637302Y580000I-22698J0D01*
G01*
X637301Y-0D02*
G03*
X660000Y22698I0J22698D01*
G01*
X-0Y22699D02*
G03*
X22698Y0I22698J0D01*
G01*
X-0Y557302D02*
X0Y22699D01*
X22699Y580000D02*
X637302Y580000D01*
X660000Y557302D02*
X660000Y22698D01*
X22699Y-0D02*
X637301Y-0D01*
M02*
